<?xml version="1.0" standalone="no"?>
 <!DOCTYPE svg PUBLIC "-//W3C//DTD SVG 1.1//EN" 
 "http://www.w3.org/Graphics/SVG/1.1/DTD/svg11.dtd"> 
<svg xmlns="http://www.w3.org/2000/svg" version="1.1" 
    width="29.7002cm" height="21.0007cm" viewBox="0 0 116930 82680 ">
<title>SVG Picture created as palette1202-PM-back-brd.svg date 2020/03/30 03:10:24 </title>
  <desc>Picture generated by PCBNEW </desc>
<g style="fill:#000000; fill-opacity:1;stroke:#000000; stroke-opacity:1;
stroke-linecap:round; stroke-linejoin:round; "
 transform="translate(0 0) scale(1 1)">
</g>
<g style="fill:#000000; fill-opacity:0.0; 
stroke:#000000; stroke-width:-0.000393701; stroke-opacity:1; 
stroke-linecap:round; stroke-linejoin:round;">
</g>
<g style="fill:#000000; fill-opacity:0.0; 
stroke:#000000; stroke-width:39.3701; stroke-opacity:1; 
stroke-linecap:round; stroke-linejoin:round;">
</g>
<g style="fill:#000000; fill-opacity:0.0; 
stroke:#000000; stroke-width:59.0551; stroke-opacity:1; 
stroke-linecap:round; stroke-linejoin:round;">
<rect x="69685.9" y="65357.2" width="42519.7" height="12598.4" rx="0" />
</g>
<g style="fill:#000000; fill-opacity:0.0; 
stroke:#000000; stroke-width:39.3701; stroke-opacity:1; 
stroke-linecap:round; stroke-linejoin:round;">
</g>
<g style="fill:#000000; fill-opacity:0.0; 
stroke:#000000; stroke-width:59.0551; stroke-opacity:1; 
stroke-linecap:round; stroke-linejoin:round;">
<rect x="3937.01" y="3937.01" width="109056" height="74806" rx="0" />
</g>
<g style="fill:#000000; fill-opacity:0.0; 
stroke:#000000; stroke-width:39.3701; stroke-opacity:1; 
stroke-linecap:round; stroke-linejoin:round;">
</g>
<g style="fill:#000000; fill-opacity:0.0; 
stroke:#000000; stroke-width:59.0551; stroke-opacity:1; 
stroke-linecap:round; stroke-linejoin:round;">
<rect x="4724.41" y="4724.41" width="107481" height="73231.2" rx="0" />
</g>
<g style="fill:#000000; fill-opacity:0.0; 
stroke:#000000; stroke-width:39.3701; stroke-opacity:1; 
stroke-linecap:round; stroke-linejoin:round;">
</g>
<g style="fill:#000000; fill-opacity:0.0; 
stroke:#000000; stroke-width:59.0551; stroke-opacity:1; 
stroke-linecap:round; stroke-linejoin:round;">
<path d="M23622 4724
L23622 3937
" />
</g>
<g style="fill:#000000; fill-opacity:0.0; 
stroke:#000000; stroke-width:39.3701; stroke-opacity:1; 
stroke-linecap:round; stroke-linejoin:round;">
</g>
<g style="fill:#000000; fill-opacity:0.0; 
stroke:#000000; stroke-width:59.0551; stroke-opacity:1; 
stroke-linecap:round; stroke-linejoin:round;">
<path d="M43307 4724
L43307 3937
" />
</g>
<g style="fill:#000000; fill-opacity:0.0; 
stroke:#000000; stroke-width:39.3701; stroke-opacity:1; 
stroke-linecap:round; stroke-linejoin:round;">
</g>
<g style="fill:#000000; fill-opacity:0.0; 
stroke:#000000; stroke-width:59.0551; stroke-opacity:1; 
stroke-linecap:round; stroke-linejoin:round;">
<path d="M62992 4724
L62992 3937
" />
</g>
<g style="fill:#000000; fill-opacity:0.0; 
stroke:#000000; stroke-width:39.3701; stroke-opacity:1; 
stroke-linecap:round; stroke-linejoin:round;">
</g>
<g style="fill:#000000; fill-opacity:0.0; 
stroke:#000000; stroke-width:59.0551; stroke-opacity:1; 
stroke-linecap:round; stroke-linejoin:round;">
<path d="M82677 4724
L82677 3937
" />
</g>
<g style="fill:#000000; fill-opacity:0.0; 
stroke:#000000; stroke-width:39.3701; stroke-opacity:1; 
stroke-linecap:round; stroke-linejoin:round;">
</g>
<g style="fill:#000000; fill-opacity:0.0; 
stroke:#000000; stroke-width:59.0551; stroke-opacity:1; 
stroke-linecap:round; stroke-linejoin:round;">
<path d="M102362 4724
L102362 3937
" />
</g>
<g style="fill:#000000; fill-opacity:0.0; 
stroke:#000000; stroke-width:39.3701; stroke-opacity:1; 
stroke-linecap:round; stroke-linejoin:round;">
</g>
<g style="fill:#000000; fill-opacity:0.0; 
stroke:#000000; stroke-width:59.0551; stroke-opacity:1; 
stroke-linecap:round; stroke-linejoin:round;">
<path d="M14199 4562
L13906 4562
" />
<path d="M14052 4562
L14052 4050
L14004 4123
L13955 4172
L13906 4196
" />
</g>
<g style="fill:#000000; fill-opacity:0.0; 
stroke:#000000; stroke-width:39.3701; stroke-opacity:1; 
stroke-linecap:round; stroke-linejoin:round;">
</g>
<g style="fill:#000000; fill-opacity:0.0; 
stroke:#000000; stroke-width:59.0551; stroke-opacity:1; 
stroke-linecap:round; stroke-linejoin:round;">
<path d="M33591 4099
L33615 4074
L33664 4050
L33786 4050
L33835 4074
L33859 4099
L33884 4147
L33884 4196
L33859 4269
L33567 4562
L33884 4562
" />
</g>
<g style="fill:#000000; fill-opacity:0.0; 
stroke:#000000; stroke-width:39.3701; stroke-opacity:1; 
stroke-linecap:round; stroke-linejoin:round;">
</g>
<g style="fill:#000000; fill-opacity:0.0; 
stroke:#000000; stroke-width:59.0551; stroke-opacity:1; 
stroke-linecap:round; stroke-linejoin:round;">
<path d="M53252 4050
L53569 4050
L53398 4245
L53471 4245
L53520 4269
L53544 4294
L53569 4342
L53569 4464
L53544 4513
L53520 4537
L53471 4562
L53325 4562
L53276 4537
L53252 4513
" />
</g>
<g style="fill:#000000; fill-opacity:0.0; 
stroke:#000000; stroke-width:39.3701; stroke-opacity:1; 
stroke-linecap:round; stroke-linejoin:round;">
</g>
<g style="fill:#000000; fill-opacity:0.0; 
stroke:#000000; stroke-width:59.0551; stroke-opacity:1; 
stroke-linecap:round; stroke-linejoin:round;">
<path d="M73205 4221
L73205 4562
" />
<path d="M73083 4026
L72961 4391
L73278 4391
" />
</g>
<g style="fill:#000000; fill-opacity:0.0; 
stroke:#000000; stroke-width:39.3701; stroke-opacity:1; 
stroke-linecap:round; stroke-linejoin:round;">
</g>
<g style="fill:#000000; fill-opacity:0.0; 
stroke:#000000; stroke-width:59.0551; stroke-opacity:1; 
stroke-linecap:round; stroke-linejoin:round;">
<path d="M92914 4050
L92671 4050
L92646 4294
L92671 4269
L92719 4245
L92841 4245
L92890 4269
L92914 4294
L92939 4342
L92939 4464
L92914 4513
L92890 4537
L92841 4562
L92719 4562
L92671 4537
L92646 4513
" />
</g>
<g style="fill:#000000; fill-opacity:0.0; 
stroke:#000000; stroke-width:39.3701; stroke-opacity:1; 
stroke-linecap:round; stroke-linejoin:round;">
</g>
<g style="fill:#000000; fill-opacity:0.0; 
stroke:#000000; stroke-width:59.0551; stroke-opacity:1; 
stroke-linecap:round; stroke-linejoin:round;">
<path d="M112575 4050
L112477 4050
L112429 4074
L112404 4099
L112356 4172
L112331 4269
L112331 4464
L112356 4513
L112380 4537
L112429 4562
L112526 4562
L112575 4537
L112599 4513
L112624 4464
L112624 4342
L112599 4294
L112575 4269
L112526 4245
L112429 4245
L112380 4269
L112356 4294
L112331 4342
" />
</g>
<g style="fill:#000000; fill-opacity:0.0; 
stroke:#000000; stroke-width:39.3701; stroke-opacity:1; 
stroke-linecap:round; stroke-linejoin:round;">
</g>
<g style="fill:#000000; fill-opacity:0.0; 
stroke:#000000; stroke-width:59.0551; stroke-opacity:1; 
stroke-linecap:round; stroke-linejoin:round;">
<path d="M23622 77955
L23622 78742
" />
</g>
<g style="fill:#000000; fill-opacity:0.0; 
stroke:#000000; stroke-width:39.3701; stroke-opacity:1; 
stroke-linecap:round; stroke-linejoin:round;">
</g>
<g style="fill:#000000; fill-opacity:0.0; 
stroke:#000000; stroke-width:59.0551; stroke-opacity:1; 
stroke-linecap:round; stroke-linejoin:round;">
<path d="M43307 77955
L43307 78742
" />
</g>
<g style="fill:#000000; fill-opacity:0.0; 
stroke:#000000; stroke-width:39.3701; stroke-opacity:1; 
stroke-linecap:round; stroke-linejoin:round;">
</g>
<g style="fill:#000000; fill-opacity:0.0; 
stroke:#000000; stroke-width:59.0551; stroke-opacity:1; 
stroke-linecap:round; stroke-linejoin:round;">
<path d="M62992 77955
L62992 78742
" />
</g>
<g style="fill:#000000; fill-opacity:0.0; 
stroke:#000000; stroke-width:39.3701; stroke-opacity:1; 
stroke-linecap:round; stroke-linejoin:round;">
</g>
<g style="fill:#000000; fill-opacity:0.0; 
stroke:#000000; stroke-width:59.0551; stroke-opacity:1; 
stroke-linecap:round; stroke-linejoin:round;">
<path d="M82677 77955
L82677 78742
" />
</g>
<g style="fill:#000000; fill-opacity:0.0; 
stroke:#000000; stroke-width:39.3701; stroke-opacity:1; 
stroke-linecap:round; stroke-linejoin:round;">
</g>
<g style="fill:#000000; fill-opacity:0.0; 
stroke:#000000; stroke-width:59.0551; stroke-opacity:1; 
stroke-linecap:round; stroke-linejoin:round;">
<path d="M102362 77955
L102362 78742
" />
</g>
<g style="fill:#000000; fill-opacity:0.0; 
stroke:#000000; stroke-width:39.3701; stroke-opacity:1; 
stroke-linecap:round; stroke-linejoin:round;">
</g>
<g style="fill:#000000; fill-opacity:0.0; 
stroke:#000000; stroke-width:59.0551; stroke-opacity:1; 
stroke-linecap:round; stroke-linejoin:round;">
<path d="M14199 78580
L13906 78580
" />
<path d="M14052 78580
L14052 78069
L14004 78142
L13955 78190
L13906 78215
" />
</g>
<g style="fill:#000000; fill-opacity:0.0; 
stroke:#000000; stroke-width:39.3701; stroke-opacity:1; 
stroke-linecap:round; stroke-linejoin:round;">
</g>
<g style="fill:#000000; fill-opacity:0.0; 
stroke:#000000; stroke-width:59.0551; stroke-opacity:1; 
stroke-linecap:round; stroke-linejoin:round;">
<path d="M33591 78117
L33615 78093
L33664 78069
L33786 78069
L33835 78093
L33859 78117
L33884 78166
L33884 78215
L33859 78288
L33567 78580
L33884 78580
" />
</g>
<g style="fill:#000000; fill-opacity:0.0; 
stroke:#000000; stroke-width:39.3701; stroke-opacity:1; 
stroke-linecap:round; stroke-linejoin:round;">
</g>
<g style="fill:#000000; fill-opacity:0.0; 
stroke:#000000; stroke-width:59.0551; stroke-opacity:1; 
stroke-linecap:round; stroke-linejoin:round;">
<path d="M53252 78069
L53569 78069
L53398 78263
L53471 78263
L53520 78288
L53544 78312
L53569 78361
L53569 78483
L53544 78532
L53520 78556
L53471 78580
L53325 78580
L53276 78556
L53252 78532
" />
</g>
<g style="fill:#000000; fill-opacity:0.0; 
stroke:#000000; stroke-width:39.3701; stroke-opacity:1; 
stroke-linecap:round; stroke-linejoin:round;">
</g>
<g style="fill:#000000; fill-opacity:0.0; 
stroke:#000000; stroke-width:59.0551; stroke-opacity:1; 
stroke-linecap:round; stroke-linejoin:round;">
<path d="M73205 78239
L73205 78580
" />
<path d="M73083 78044
L72961 78410
L73278 78410
" />
</g>
<g style="fill:#000000; fill-opacity:0.0; 
stroke:#000000; stroke-width:39.3701; stroke-opacity:1; 
stroke-linecap:round; stroke-linejoin:round;">
</g>
<g style="fill:#000000; fill-opacity:0.0; 
stroke:#000000; stroke-width:59.0551; stroke-opacity:1; 
stroke-linecap:round; stroke-linejoin:round;">
<path d="M92914 78069
L92671 78069
L92646 78312
L92671 78288
L92719 78263
L92841 78263
L92890 78288
L92914 78312
L92939 78361
L92939 78483
L92914 78532
L92890 78556
L92841 78580
L92719 78580
L92671 78556
L92646 78532
" />
</g>
<g style="fill:#000000; fill-opacity:0.0; 
stroke:#000000; stroke-width:39.3701; stroke-opacity:1; 
stroke-linecap:round; stroke-linejoin:round;">
</g>
<g style="fill:#000000; fill-opacity:0.0; 
stroke:#000000; stroke-width:59.0551; stroke-opacity:1; 
stroke-linecap:round; stroke-linejoin:round;">
<path d="M112575 78069
L112477 78069
L112429 78093
L112404 78117
L112356 78190
L112331 78288
L112331 78483
L112356 78532
L112380 78556
L112429 78580
L112526 78580
L112575 78556
L112599 78532
L112624 78483
L112624 78361
L112599 78312
L112575 78288
L112526 78263
L112429 78263
L112380 78288
L112356 78312
L112331 78361
" />
</g>
<g style="fill:#000000; fill-opacity:0.0; 
stroke:#000000; stroke-width:39.3701; stroke-opacity:1; 
stroke-linecap:round; stroke-linejoin:round;">
</g>
<g style="fill:#000000; fill-opacity:0.0; 
stroke:#000000; stroke-width:59.0551; stroke-opacity:1; 
stroke-linecap:round; stroke-linejoin:round;">
<path d="M3937 23622
L4724 23622
" />
</g>
<g style="fill:#000000; fill-opacity:0.0; 
stroke:#000000; stroke-width:39.3701; stroke-opacity:1; 
stroke-linecap:round; stroke-linejoin:round;">
</g>
<g style="fill:#000000; fill-opacity:0.0; 
stroke:#000000; stroke-width:59.0551; stroke-opacity:1; 
stroke-linecap:round; stroke-linejoin:round;">
<path d="M3937 43307
L4724 43307
" />
</g>
<g style="fill:#000000; fill-opacity:0.0; 
stroke:#000000; stroke-width:39.3701; stroke-opacity:1; 
stroke-linecap:round; stroke-linejoin:round;">
</g>
<g style="fill:#000000; fill-opacity:0.0; 
stroke:#000000; stroke-width:59.0551; stroke-opacity:1; 
stroke-linecap:round; stroke-linejoin:round;">
<path d="M3937 62992
L4724 62992
" />
</g>
<g style="fill:#000000; fill-opacity:0.0; 
stroke:#000000; stroke-width:39.3701; stroke-opacity:1; 
stroke-linecap:round; stroke-linejoin:round;">
</g>
<g style="fill:#000000; fill-opacity:0.0; 
stroke:#000000; stroke-width:59.0551; stroke-opacity:1; 
stroke-linecap:round; stroke-linejoin:round;">
<path d="M4208 13864
L4452 13864
" />
<path d="M4160 14011
L4330 13499
L4501 14011
" />
</g>
<g style="fill:#000000; fill-opacity:0.0; 
stroke:#000000; stroke-width:39.3701; stroke-opacity:1; 
stroke-linecap:round; stroke-linejoin:round;">
</g>
<g style="fill:#000000; fill-opacity:0.0; 
stroke:#000000; stroke-width:59.0551; stroke-opacity:1; 
stroke-linecap:round; stroke-linejoin:round;">
<path d="M4367 33428
L4440 33452
L4464 33476
L4489 33525
L4489 33598
L4464 33647
L4440 33671
L4391 33696
L4196 33696
L4196 33184
L4367 33184
L4416 33208
L4440 33233
L4464 33281
L4464 33330
L4440 33379
L4416 33403
L4367 33428
L4196 33428
" />
</g>
<g style="fill:#000000; fill-opacity:0.0; 
stroke:#000000; stroke-width:39.3701; stroke-opacity:1; 
stroke-linecap:round; stroke-linejoin:round;">
</g>
<g style="fill:#000000; fill-opacity:0.0; 
stroke:#000000; stroke-width:59.0551; stroke-opacity:1; 
stroke-linecap:round; stroke-linejoin:round;">
<path d="M4489 53332
L4464 53356
L4391 53381
L4342 53381
L4269 53356
L4221 53308
L4196 53259
L4172 53161
L4172 53088
L4196 52991
L4221 52942
L4269 52893
L4342 52869
L4391 52869
L4464 52893
L4489 52918
" />
</g>
<g style="fill:#000000; fill-opacity:0.0; 
stroke:#000000; stroke-width:39.3701; stroke-opacity:1; 
stroke-linecap:round; stroke-linejoin:round;">
</g>
<g style="fill:#000000; fill-opacity:0.0; 
stroke:#000000; stroke-width:59.0551; stroke-opacity:1; 
stroke-linecap:round; stroke-linejoin:round;">
<path d="M4196 73066
L4196 72554
L4318 72554
L4391 72578
L4440 72627
L4464 72676
L4489 72773
L4489 72846
L4464 72944
L4440 72993
L4391 73041
L4318 73066
L4196 73066
" />
</g>
<g style="fill:#000000; fill-opacity:0.0; 
stroke:#000000; stroke-width:39.3701; stroke-opacity:1; 
stroke-linecap:round; stroke-linejoin:round;">
</g>
<g style="fill:#000000; fill-opacity:0.0; 
stroke:#000000; stroke-width:59.0551; stroke-opacity:1; 
stroke-linecap:round; stroke-linejoin:round;">
<path d="M112992 23622
L112205 23622
" />
</g>
<g style="fill:#000000; fill-opacity:0.0; 
stroke:#000000; stroke-width:39.3701; stroke-opacity:1; 
stroke-linecap:round; stroke-linejoin:round;">
</g>
<g style="fill:#000000; fill-opacity:0.0; 
stroke:#000000; stroke-width:59.0551; stroke-opacity:1; 
stroke-linecap:round; stroke-linejoin:round;">
<path d="M112992 43307
L112205 43307
" />
</g>
<g style="fill:#000000; fill-opacity:0.0; 
stroke:#000000; stroke-width:39.3701; stroke-opacity:1; 
stroke-linecap:round; stroke-linejoin:round;">
</g>
<g style="fill:#000000; fill-opacity:0.0; 
stroke:#000000; stroke-width:59.0551; stroke-opacity:1; 
stroke-linecap:round; stroke-linejoin:round;">
<path d="M112992 62992
L112205 62992
" />
</g>
<g style="fill:#000000; fill-opacity:0.0; 
stroke:#000000; stroke-width:39.3701; stroke-opacity:1; 
stroke-linecap:round; stroke-linejoin:round;">
</g>
<g style="fill:#000000; fill-opacity:0.0; 
stroke:#000000; stroke-width:59.0551; stroke-opacity:1; 
stroke-linecap:round; stroke-linejoin:round;">
<path d="M112477 13864
L112721 13864
" />
<path d="M112428 14011
L112599 13499
L112769 14011
" />
</g>
<g style="fill:#000000; fill-opacity:0.0; 
stroke:#000000; stroke-width:39.3701; stroke-opacity:1; 
stroke-linecap:round; stroke-linejoin:round;">
</g>
<g style="fill:#000000; fill-opacity:0.0; 
stroke:#000000; stroke-width:59.0551; stroke-opacity:1; 
stroke-linecap:round; stroke-linejoin:round;">
<path d="M112635 33428
L112708 33452
L112733 33476
L112757 33525
L112757 33598
L112733 33647
L112708 33671
L112660 33696
L112465 33696
L112465 33184
L112635 33184
L112684 33208
L112708 33233
L112733 33281
L112733 33330
L112708 33379
L112684 33403
L112635 33428
L112465 33428
" />
</g>
<g style="fill:#000000; fill-opacity:0.0; 
stroke:#000000; stroke-width:39.3701; stroke-opacity:1; 
stroke-linecap:round; stroke-linejoin:round;">
</g>
<g style="fill:#000000; fill-opacity:0.0; 
stroke:#000000; stroke-width:59.0551; stroke-opacity:1; 
stroke-linecap:round; stroke-linejoin:round;">
<path d="M112757 53332
L112733 53356
L112660 53381
L112611 53381
L112538 53356
L112489 53308
L112465 53259
L112440 53161
L112440 53088
L112465 52991
L112489 52942
L112538 52893
L112611 52869
L112660 52869
L112733 52893
L112757 52918
" />
</g>
<g style="fill:#000000; fill-opacity:0.0; 
stroke:#000000; stroke-width:39.3701; stroke-opacity:1; 
stroke-linecap:round; stroke-linejoin:round;">
</g>
<g style="fill:#000000; fill-opacity:0.0; 
stroke:#000000; stroke-width:59.0551; stroke-opacity:1; 
stroke-linecap:round; stroke-linejoin:round;">
<path d="M112465 73066
L112465 72554
L112587 72554
L112660 72578
L112708 72627
L112733 72676
L112757 72773
L112757 72846
L112733 72944
L112708 72993
L112660 73041
L112587 73066
L112465 73066
" />
</g>
<g style="fill:#000000; fill-opacity:0.0; 
stroke:#000000; stroke-width:39.3701; stroke-opacity:1; 
stroke-linecap:round; stroke-linejoin:round;">
</g>
<g style="fill:#000000; fill-opacity:0.0; 
stroke:#000000; stroke-width:59.0551; stroke-opacity:1; 
stroke-linecap:round; stroke-linejoin:round;">
<path d="M78911 76293
L78911 75703
L79051 75703
L79136 75731
L79192 75787
L79220 75843
L79248 75956
L79248 76040
L79220 76153
L79192 76209
L79136 76265
L79051 76293
L78911 76293
" />
<path d="M79754 76293
L79754 75984
L79726 75928
L79670 75899
L79557 75899
L79501 75928
" />
<path d="M79754 76265
L79698 76293
L79557 76293
L79501 76265
L79473 76209
L79473 76153
L79501 76096
L79557 76068
L79698 76068
L79754 76040
" />
<path d="M79951 75899
L80176 75899
" />
<path d="M80036 75703
L80036 76209
L80064 76265
L80120 76293
L80176 76293
" />
<path d="M80598 76265
L80542 76293
L80429 76293
L80373 76265
L80345 76209
L80345 75984
L80373 75928
L80429 75899
L80542 75899
L80598 75928
L80626 75984
L80626 76040
L80345 76096
" />
<path d="M80879 76237
L80907 76265
L80879 76293
L80851 76265
L80879 76237
L80879 76293
" />
<path d="M80879 75928
L80907 75956
L80879 75984
L80851 75956
L80879 75928
L80879 75984
" />
</g>
<g style="fill:#000000; fill-opacity:0.0; 
stroke:#000000; stroke-width:39.3701; stroke-opacity:1; 
stroke-linecap:round; stroke-linejoin:round;">
</g>
<g style="fill:#000000; fill-opacity:0.0; 
stroke:#000000; stroke-width:59.0551; stroke-opacity:1; 
stroke-linecap:round; stroke-linejoin:round;">
<path d="M69685 76577
L112205 76577
" />
</g>
<g style="fill:#000000; fill-opacity:0.0; 
stroke:#000000; stroke-width:39.3701; stroke-opacity:1; 
stroke-linecap:round; stroke-linejoin:round;">
</g>
<g style="fill:#000000; fill-opacity:0.0; 
stroke:#000000; stroke-width:59.0551; stroke-opacity:1; 
stroke-linecap:round; stroke-linejoin:round;">
<path d="M70249 77395
L70249 76805
" />
<path d="M70587 77395
L70334 77058
" />
<path d="M70587 76805
L70249 77142
" />
<path d="M70840 77395
L70840 77002
" />
<path d="M70840 76805
L70812 76833
L70840 76861
L70868 76833
L70840 76805
L70840 76861
" />
<path d="M71458 77339
L71430 77367
L71346 77395
L71290 77395
L71205 77367
L71149 77311
L71121 77255
L71093 77142
L71093 77058
L71121 76946
L71149 76889
L71205 76833
L71290 76805
L71346 76805
L71430 76833
L71458 76861
" />
<path d="M71965 77395
L71965 77086
L71937 77030
L71880 77002
L71768 77002
L71712 77030
" />
<path d="M71965 77367
L71908 77395
L71768 77395
L71712 77367
L71683 77311
L71683 77255
L71712 77199
L71768 77171
L71908 77171
L71965 77142
" />
<path d="M72499 77395
L72499 76805
" />
<path d="M72499 77367
L72443 77395
L72330 77395
L72274 77367
L72246 77339
L72218 77283
L72218 77114
L72246 77058
L72274 77030
L72330 77002
L72443 77002
L72499 77030
" />
<path d="M73230 77086
L73427 77086
" />
<path d="M73511 77395
L73230 77395
L73230 76805
L73511 76805
" />
<path d="M73764 77339
L73793 77367
L73764 77395
L73736 77367
L73764 77339
L73764 77395
" />
<path d="M74046 77395
L74046 76805
L74186 76805
L74271 76833
L74327 76889
L74355 76946
L74383 77058
L74383 77142
L74355 77255
L74327 77311
L74271 77367
L74186 77395
L74046 77395
" />
<path d="M74636 77339
L74664 77367
L74636 77395
L74608 77367
L74636 77339
L74636 77395
" />
<path d="M74889 77227
L75171 77227
" />
<path d="M74833 77395
L75030 76805
L75227 77395
" />
<path d="M75424 77339
L75452 77367
L75424 77395
L75395 77367
L75424 77339
L75424 77395
" />
<path d="M76605 77395
L76605 76805
" />
<path d="M76661 77171
L76830 77395
" />
<path d="M76830 77002
L76605 77227
" />
<path d="M77083 77395
L77083 77002
" />
<path d="M77083 76805
L77055 76833
L77083 76861
L77111 76833
L77083 76805
L77083 76861
" />
<path d="M77617 77367
L77561 77395
L77448 77395
L77392 77367
L77364 77339
L77336 77283
L77336 77114
L77364 77058
L77392 77030
L77448 77002
L77561 77002
L77617 77030
" />
<path d="M78123 77395
L78123 77086
L78095 77030
L78039 77002
L77926 77002
L77870 77030
" />
<path d="M78123 77367
L78067 77395
L77926 77395
L77870 77367
L77842 77311
L77842 77255
L77870 77199
L77926 77171
L78067 77171
L78123 77142
" />
<path d="M78658 77395
L78658 76805
" />
<path d="M78658 77367
L78601 77395
L78489 77395
L78433 77367
L78404 77339
L78376 77283
L78376 77114
L78404 77058
L78433 77030
L78489 77002
L78601 77002
L78658 77030
" />
<path d="M79557 77620
L79529 77592
L79473 77508
L79445 77452
L79417 77367
L79389 77227
L79389 77114
L79417 76974
L79445 76889
L79473 76833
L79529 76749
L79557 76721
" />
<path d="M80064 76805
L79782 76805
L79754 77086
L79782 77058
L79839 77030
L79979 77030
L80036 77058
L80064 77086
L80092 77142
L80092 77283
L80064 77339
L80036 77367
L79979 77395
L79839 77395
L79782 77367
L79754 77339
" />
<path d="M80345 77339
L80373 77367
L80345 77395
L80317 77367
L80345 77339
L80345 77395
" />
<path d="M80935 77395
L80598 77395
" />
<path d="M80767 77395
L80767 76805
L80710 76889
L80654 76946
L80598 76974
" />
<path d="M81188 77339
L81217 77367
L81188 77395
L81160 77367
L81188 77339
L81188 77395
" />
<path d="M81723 77002
L81723 77395
" />
<path d="M81582 76777
L81442 77199
L81807 77199
" />
<path d="M82032 77171
L82482 77171
" />
<path d="M82876 76805
L82932 76805
L82988 76833
L83016 76861
L83045 76917
L83073 77030
L83073 77171
L83045 77283
L83016 77339
L82988 77367
L82932 77395
L82876 77395
L82820 77367
L82791 77339
L82763 77283
L82735 77171
L82735 77030
L82763 76917
L82791 76861
L82820 76833
L82876 76805
" />
<path d="M83326 77171
L83776 77171
" />
<path d="M84366 77395
L84029 77395
" />
<path d="M84197 77395
L84197 76805
L84141 76889
L84085 76946
L84029 76974
" />
<path d="M84732 76805
L84788 76805
L84844 76833
L84872 76861
L84901 76917
L84929 77030
L84929 77171
L84901 77283
L84872 77339
L84844 77367
L84788 77395
L84732 77395
L84676 77367
L84647 77339
L84619 77283
L84591 77171
L84591 77030
L84619 76917
L84647 76861
L84676 76833
L84732 76805
" />
<path d="M85041 77452
L85491 77452
" />
<path d="M85941 77395
L85604 77395
" />
<path d="M85772 77395
L85772 76805
L85716 76889
L85660 76946
L85604 76974
" />
<path d="M86447 77002
L86447 77395
" />
<path d="M86307 76777
L86166 77199
L86532 77199
" />
<path d="M86700 77620
L86728 77592
L86785 77508
L86813 77452
L86841 77367
L86869 77227
L86869 77114
L86841 76974
L86813 76889
L86785 76833
L86728 76749
L86700 76721
" />
</g>
<g style="fill:#000000; fill-opacity:0.0; 
stroke:#000000; stroke-width:39.3701; stroke-opacity:1; 
stroke-linecap:round; stroke-linejoin:round;">
</g>
<g style="fill:#000000; fill-opacity:0.0; 
stroke:#000000; stroke-width:59.0551; stroke-opacity:1; 
stroke-linecap:round; stroke-linejoin:round;">
<path d="M69685 75396
L112205 75396
" />
</g>
<g style="fill:#000000; fill-opacity:0.0; 
stroke:#000000; stroke-width:39.3701; stroke-opacity:1; 
stroke-linecap:round; stroke-linejoin:round;">
</g>
<g style="fill:#000000; fill-opacity:0.0; 
stroke:#000000; stroke-width:118.11; stroke-opacity:1; 
stroke-linecap:round; stroke-linejoin:round;">
<path d="M104099 76293
L103902 76012
" />
<path d="M103761 76293
L103761 75703
L103986 75703
L104042 75731
L104070 75759
L104099 75815
L104099 75899
L104070 75956
L104042 75984
L103986 76012
L103761 76012
" />
<path d="M104577 76265
L104520 76293
L104408 76293
L104352 76265
L104323 76209
L104323 75984
L104352 75928
L104408 75899
L104520 75899
L104577 75928
L104605 75984
L104605 76040
L104323 76096
" />
<path d="M104802 75899
L104942 76293
L105083 75899
" />
<path d="M105308 76237
L105336 76265
L105308 76293
L105280 76265
L105308 76237
L105308 76293
" />
<path d="M105308 75928
L105336 75956
L105308 75984
L105280 75956
L105308 75928
L105308 75984
" />
</g>
<g style="fill:#000000; fill-opacity:0.0; 
stroke:#000000; stroke-width:39.3701; stroke-opacity:1; 
stroke-linecap:round; stroke-linejoin:round;">
</g>
<g style="fill:#000000; fill-opacity:0.0; 
stroke:#000000; stroke-width:59.0551; stroke-opacity:1; 
stroke-linecap:round; stroke-linejoin:round;">
<path d="M70221 76265
L70305 76293
L70446 76293
L70502 76265
L70530 76237
L70559 76181
L70559 76124
L70530 76068
L70502 76040
L70446 76012
L70334 75984
L70277 75956
L70249 75928
L70221 75871
L70221 75815
L70249 75759
L70277 75731
L70334 75703
L70474 75703
L70559 75731
" />
<path d="M70812 76293
L70812 75899
" />
<path d="M70812 75703
L70784 75731
L70812 75759
L70840 75731
L70812 75703
L70812 75759
" />
<path d="M71037 75899
L71346 75899
L71037 76293
L71346 76293
" />
<path d="M71796 76265
L71740 76293
L71627 76293
L71571 76265
L71543 76209
L71543 75984
L71571 75928
L71627 75899
L71740 75899
L71796 75928
L71824 75984
L71824 76040
L71543 76096
" />
<path d="M72077 76237
L72105 76265
L72077 76293
L72049 76265
L72077 76237
L72077 76293
" />
<path d="M72077 75928
L72105 75956
L72077 75984
L72049 75956
L72077 75928
L72077 75984
" />
<path d="M72780 76124
L73061 76124
" />
<path d="M72724 76293
L72921 75703
L73118 76293
" />
<path d="M73568 75899
L73568 76293
" />
<path d="M73427 75674
L73286 76096
L73652 76096
" />
</g>
<g style="fill:#000000; fill-opacity:0.0; 
stroke:#000000; stroke-width:39.3701; stroke-opacity:1; 
stroke-linecap:round; stroke-linejoin:round;">
</g>
<g style="fill:#000000; fill-opacity:0.0; 
stroke:#000000; stroke-width:59.0551; stroke-opacity:1; 
stroke-linecap:round; stroke-linejoin:round;">
<path d="M103714 77395
L103714 76805
" />
<path d="M104248 77395
L104248 76805
" />
<path d="M104248 77367
L104192 77395
L104079 77395
L104023 77367
L103995 77339
L103967 77283
L103967 77114
L103995 77058
L104023 77030
L104079 77002
L104192 77002
L104248 77030
" />
<path d="M104529 77339
L104557 77367
L104529 77395
L104501 77367
L104529 77339
L104529 77395
" />
<path d="M104529 77030
L104557 77058
L104529 77086
L104501 77058
L104529 77030
L104529 77086
" />
<path d="M105570 77395
L105232 77395
" />
<path d="M105401 77395
L105401 76805
L105345 76889
L105289 76946
L105232 76974
" />
<path d="M106245 76777
L105739 77536
" />
<path d="M106751 77395
L106413 77395
" />
<path d="M106582 77395
L106582 76805
L106526 76889
L106470 76946
L106413 76974
" />
</g>
<g style="fill:#000000; fill-opacity:0.0; 
stroke:#000000; stroke-width:39.3701; stroke-opacity:1; 
stroke-linecap:round; stroke-linejoin:round;">
</g>
<g style="fill:#000000; fill-opacity:0.0; 
stroke:#000000; stroke-width:59.0551; stroke-opacity:1; 
stroke-linecap:round; stroke-linejoin:round;">
<path d="M69685 73821
L112205 73821
" />
</g>
<g style="fill:#000000; fill-opacity:0.0; 
stroke:#000000; stroke-width:39.3701; stroke-opacity:1; 
stroke-linecap:round; stroke-linejoin:round;">
</g>
<g style="fill:#000000; fill-opacity:0.0; 
stroke:#000000; stroke-width:157.48; stroke-opacity:1; 
stroke-linecap:round; stroke-linejoin:round;">
<path d="M70360 74099
L70810 74099
" />
<path d="M70486 74886
L70585 74099
" />
<path d="M70974 74886
L71039 74361
" />
<path d="M71072 74099
L71030 74136
L71063 74174
L71105 74136
L71072 74099
L71063 74174
" />
<path d="M71302 74361
L71602 74361
" />
<path d="M71447 74099
L71363 74774
L71391 74849
L71461 74886
L71536 74886
" />
<path d="M71911 74886
L71841 74849
L71813 74774
L71897 74099
" />
<path d="M72516 74849
L72436 74886
L72286 74886
L72216 74849
L72187 74774
L72225 74474
L72272 74399
L72352 74361
L72501 74361
L72572 74399
L72600 74474
L72591 74549
L72206 74624
" />
<path d="M72895 74811
L72928 74849
L72886 74886
L72853 74849
L72895 74811
L72886 74886
" />
<path d="M72947 74399
L72980 74436
L72937 74474
L72905 74436
L72947 74399
L72937 74474
" />
</g>
<g style="fill:#000000; fill-opacity:0.0; 
stroke:#000000; stroke-width:39.3701; stroke-opacity:1; 
stroke-linecap:round; stroke-linejoin:round;">
</g>
<g style="fill:#000000; fill-opacity:0.0; 
stroke:#000000; stroke-width:59.0551; stroke-opacity:1; 
stroke-linecap:round; stroke-linejoin:round;">
<path d="M70446 73070
L70249 73070
" />
<path d="M70249 73380
L70249 72789
L70530 72789
" />
<path d="M70755 73380
L70755 72986
" />
<path d="M70755 72789
L70727 72817
L70755 72845
L70784 72817
L70755 72789
L70755 72845
" />
<path d="M71121 73380
L71065 73352
L71037 73295
L71037 72789
" />
<path d="M71571 73352
L71515 73380
L71402 73380
L71346 73352
L71318 73295
L71318 73070
L71346 73014
L71402 72986
L71515 72986
L71571 73014
L71599 73070
L71599 73127
L71318 73183
" />
<path d="M71852 73323
L71880 73352
L71852 73380
L71824 73352
L71852 73323
L71852 73380
" />
<path d="M71852 73014
L71880 73042
L71852 73070
L71824 73042
L71852 73014
L71852 73070
" />
<path d="M72583 72986
L72583 73577
" />
<path d="M72583 73014
L72640 72986
L72752 72986
L72808 73014
L72836 73042
L72865 73099
L72865 73267
L72836 73323
L72808 73352
L72752 73380
L72640 73380
L72583 73352
" />
<path d="M73371 73380
L73371 73070
L73343 73014
L73286 72986
L73174 72986
L73118 73014
" />
<path d="M73371 73352
L73314 73380
L73174 73380
L73118 73352
L73090 73295
L73090 73239
L73118 73183
L73174 73155
L73314 73155
L73371 73127
" />
<path d="M73736 73380
L73680 73352
L73652 73295
L73652 72789
" />
<path d="M74186 73352
L74130 73380
L74018 73380
L73961 73352
L73933 73295
L73933 73070
L73961 73014
L74018 72986
L74130 72986
L74186 73014
L74214 73070
L74214 73127
L73933 73183
" />
<path d="M74383 72986
L74608 72986
" />
<path d="M74467 72789
L74467 73295
L74496 73352
L74552 73380
L74608 73380
" />
<path d="M74721 72986
L74946 72986
" />
<path d="M74805 72789
L74805 73295
L74833 73352
L74889 73380
L74946 73380
" />
<path d="M75367 73352
L75311 73380
L75199 73380
L75142 73352
L75114 73295
L75114 73070
L75142 73014
L75199 72986
L75311 72986
L75367 73014
L75395 73070
L75395 73127
L75114 73183
" />
<path d="M75958 73380
L75620 73380
" />
<path d="M75789 73380
L75789 72789
L75733 72874
L75677 72930
L75620 72958
" />
<path d="M76183 72845
L76211 72817
L76267 72789
L76408 72789
L76464 72817
L76492 72845
L76520 72902
L76520 72958
L76492 73042
L76155 73380
L76520 73380
" />
<path d="M76886 72789
L76942 72789
L76998 72817
L77027 72845
L77055 72902
L77083 73014
L77083 73155
L77055 73267
L77027 73323
L76998 73352
L76942 73380
L76886 73380
L76830 73352
L76802 73323
L76773 73267
L76745 73155
L76745 73014
L76773 72902
L76802 72845
L76830 72817
L76886 72789
" />
<path d="M77308 72845
L77336 72817
L77392 72789
L77533 72789
L77589 72817
L77617 72845
L77645 72902
L77645 72958
L77617 73042
L77280 73380
L77645 73380
" />
<path d="M77898 73155
L78348 73155
" />
<path d="M78629 73380
L78629 72789
L78854 72789
L78911 72817
L78939 72845
L78967 72902
L78967 72986
L78939 73042
L78911 73070
L78854 73099
L78629 73099
" />
<path d="M79220 73380
L79220 72789
L79417 73211
L79614 72789
L79614 73380
" />
<path d="M79895 73155
L80345 73155
" />
<path d="M80626 73380
L80626 72789
" />
<path d="M80626 73014
L80682 72986
L80795 72986
L80851 73014
L80879 73042
L80907 73099
L80907 73267
L80879 73323
L80851 73352
L80795 73380
L80682 73380
L80626 73352
" />
<path d="M81413 73380
L81413 73070
L81385 73014
L81329 72986
L81217 72986
L81160 73014
" />
<path d="M81413 73352
L81357 73380
L81217 73380
L81160 73352
L81132 73295
L81132 73239
L81160 73183
L81217 73155
L81357 73155
L81413 73127
" />
<path d="M81948 73352
L81892 73380
L81779 73380
L81723 73352
L81695 73323
L81667 73267
L81667 73099
L81695 73042
L81723 73014
L81779 72986
L81892 72986
L81948 73014
" />
<path d="M82201 73380
L82201 72789
" />
<path d="M82257 73155
L82426 73380
" />
<path d="M82426 72986
L82201 73211
" />
<path d="M82679 73323
L82707 73352
L82679 73380
L82651 73352
L82679 73323
L82679 73380
" />
<path d="M82960 73380
L82960 72789
" />
<path d="M83016 73155
L83185 73380
" />
<path d="M83185 72986
L82960 73211
" />
<path d="M83438 73380
L83438 72986
" />
<path d="M83438 72789
L83410 72817
L83438 72845
L83466 72817
L83438 72789
L83438 72845
" />
<path d="M83973 73352
L83916 73380
L83804 73380
L83748 73352
L83719 73323
L83691 73267
L83691 73099
L83719 73042
L83748 73014
L83804 72986
L83916 72986
L83973 73014
" />
<path d="M84479 73380
L84479 73070
L84451 73014
L84394 72986
L84282 72986
L84226 73014
" />
<path d="M84479 73352
L84422 73380
L84282 73380
L84226 73352
L84197 73295
L84197 73239
L84226 73183
L84282 73155
L84422 73155
L84479 73127
" />
<path d="M85013 73380
L85013 72789
" />
<path d="M85013 73352
L84957 73380
L84844 73380
L84788 73352
L84760 73323
L84732 73267
L84732 73099
L84760 73042
L84788 73014
L84844 72986
L84957 72986
L85013 73014
" />
<path d="M85154 73436
L85604 73436
" />
<path d="M85744 72986
L85744 73577
" />
<path d="M85744 73014
L85800 72986
L85913 72986
L85969 73014
L85997 73042
L86025 73099
L86025 73267
L85997 73323
L85969 73352
L85913 73380
L85800 73380
L85744 73352
" />
<path d="M86532 73352
L86475 73380
L86363 73380
L86307 73352
L86278 73323
L86250 73267
L86250 73099
L86278 73042
L86307 73014
L86363 72986
L86475 72986
L86532 73014
" />
<path d="M86785 73380
L86785 72789
" />
<path d="M86785 73014
L86841 72986
L86953 72986
L87010 73014
L87038 73042
L87066 73099
L87066 73267
L87038 73323
L87010 73352
L86953 73380
L86841 73380
L86785 73352
" />
</g>
<g style="fill:#000000; fill-opacity:0.0; 
stroke:#000000; stroke-width:39.3701; stroke-opacity:1; 
stroke-linecap:round; stroke-linejoin:round;">
</g>
<g style="fill:#000000; fill-opacity:0.0; 
stroke:#000000; stroke-width:59.0551; stroke-opacity:1; 
stroke-linecap:round; stroke-linejoin:round;">
<path d="M69685 71459
L112205 71459
" />
</g>
<g style="fill:#000000; fill-opacity:0.0; 
stroke:#000000; stroke-width:39.3701; stroke-opacity:1; 
stroke-linecap:round; stroke-linejoin:round;">
</g>
<g style="fill:#000000; fill-opacity:0.0; 
stroke:#000000; stroke-width:59.0551; stroke-opacity:1; 
stroke-linecap:round; stroke-linejoin:round;">
<path d="M70221 72289
L70305 72317
L70446 72317
L70502 72289
L70530 72260
L70559 72204
L70559 72148
L70530 72092
L70502 72064
L70446 72036
L70334 72007
L70277 71979
L70249 71951
L70221 71895
L70221 71839
L70249 71782
L70277 71754
L70334 71726
L70474 71726
L70559 71754
" />
<path d="M70812 72317
L70812 71726
" />
<path d="M71065 72317
L71065 72007
L71037 71951
L70980 71923
L70896 71923
L70840 71951
L70812 71979
" />
<path d="M71571 72289
L71515 72317
L71402 72317
L71346 72289
L71318 72232
L71318 72007
L71346 71951
L71402 71923
L71515 71923
L71571 71951
L71599 72007
L71599 72064
L71318 72120
" />
<path d="M72077 72289
L72021 72317
L71908 72317
L71852 72289
L71824 72232
L71824 72007
L71852 71951
L71908 71923
L72021 71923
L72077 71951
L72105 72007
L72105 72064
L71824 72120
" />
<path d="M72274 71923
L72499 71923
" />
<path d="M72358 71726
L72358 72232
L72386 72289
L72443 72317
L72499 72317
" />
<path d="M72696 72260
L72724 72289
L72696 72317
L72668 72289
L72696 72260
L72696 72317
" />
<path d="M72696 71951
L72724 71979
L72696 72007
L72668 71979
L72696 71951
L72696 72007
" />
</g>
<g style="fill:#000000; fill-opacity:0.0; 
stroke:#000000; stroke-width:39.3701; stroke-opacity:1; 
stroke-linecap:round; stroke-linejoin:round;">
</g>
<g style="fill:#000000; fill-opacity:0.0; 
stroke:#000000; stroke-width:59.0551; stroke-opacity:1; 
stroke-linecap:round; stroke-linejoin:round;">
<path d="M77559 75396
L77559 76577
" />
</g>
<g style="fill:#000000; fill-opacity:0.0; 
stroke:#000000; stroke-width:39.3701; stroke-opacity:1; 
stroke-linecap:round; stroke-linejoin:round;">
</g>
<g style="fill:#000000; fill-opacity:0.0; 
stroke:#000000; stroke-width:59.0551; stroke-opacity:1; 
stroke-linecap:round; stroke-linejoin:round;">
<path d="M102756 75396
L102756 77955
" />
</g>
<g style="fill:#840084; fill-opacity:0.0; 
stroke:#840084; stroke-width:59.0551; stroke-opacity:1; 
stroke-linecap:round; stroke-linejoin:round;">
</g>
<g style="fill:#840084; fill-opacity:0.0; 
stroke:#840084; stroke-width:157.48; stroke-opacity:1; 
stroke-linecap:round; stroke-linejoin:round;">
<circle cx="40550" cy="43426.3" r="393.701" /> 
<circle cx="40550" cy="27900" r="393.701" /> 
</g>
<g style="fill:#840084; fill-opacity:1.0; 
stroke:#840084; stroke-width:0; stroke-opacity:1; 
stroke-linecap:round; stroke-linejoin:round;">
<path style="fill:#840084; fill-opacity:1.0; 
stroke:#840084; stroke-width:0; stroke-opacity:1; 
stroke-linecap:round; stroke-linejoin:round;fill-rule:evenodd;"
d="M 40135,47331
40137,47500
40025,47500
40025,47252
40029,47221
40037,47185
40049,47158
40072,47130
40096,47114
40127,47099
40159,47091
40190,47087
40207,47088
40265,47091
40320,47103
40366,47120
40337,47209
40312,47201
40269,47189
40224,47187
40190,47189
40159,47205
40143,47225
40139,47240
40135,47272
Z" /> 
<path style="fill:#840084; fill-opacity:1.0; 
stroke:#840084; stroke-width:0; stroke-opacity:1; 
stroke-linecap:round; stroke-linejoin:round;fill-rule:evenodd;"
d="M 40137,47456
40155,47473
40194,47496
40245,47508
40269,47508
40305,47504
40336,47492
40360,47477
40379,47453
40395,47425
40399,47390
40399,47366
40391,47327
40371,47296
40344,47276
40316,47264
40293,47256
40261,47252
40236,47251
40202,47252
40163,47260
40137,47268
40116,47280
40108,47347
40135,47336
40171,47323
40209,47321
40238,47323
40261,47331
40281,47347
40289,47370
40289,47382
40281,47406
40269,47418
40249,47425
40226,47428
40198,47425
40182,47422
40167,47414
40159,47406
40143,47390
40135,47366
40135,47356
40108,47362
40108,47457
Z" /> 
<path style="fill:#840084; fill-opacity:1.0; 
stroke:#840084; stroke-width:0; stroke-opacity:1; 
stroke-linecap:round; stroke-linejoin:round;fill-rule:evenodd;"
d="M 40584,47225
40580,47237
40572,47268
40501,47166
40509,47154
Z" /> 
<path style="fill:#840084; fill-opacity:1.0; 
stroke:#840084; stroke-width:0; stroke-opacity:1; 
stroke-linecap:round; stroke-linejoin:round;fill-rule:evenodd;"
d="M 40660,47085
40694,47087
40730,47095
40781,47122
40816,47158
40840,47197
40856,47237
40862,47299
40860,47339
40848,47382
40832,47414
40805,47449
40769,47477
40726,47496
40682,47508
40649,47509
40596,47504
40557,47492
40517,47469
40482,47433
40549,47375
40584,47402
40616,47414
40648,47416
40679,47414
40710,47398
40730,47378
40742,47355
40747,47337
40463,47337
40462,47303
40466,47252
40474,47217
40501,47162
40574,47264
40749,47264
40738,47229
40722,47205
40702,47189
40686,47181
40660,47178
40631,47181
40604,47197
40584,47225
40505,47158
40525,47134
40557,47111
40584,47099
40608,47091
40639,47087
Z" /> 
<path style="fill:#840084; fill-opacity:1.0; 
stroke:#840084; stroke-width:0; stroke-opacity:1; 
stroke-linecap:round; stroke-linejoin:round;fill-rule:evenodd;"
d="M 41333,47076
41333,46968
40892,46968
40892,47076
Z" /> 
<path style="fill:#840084; fill-opacity:1.0; 
stroke:#840084; stroke-width:0; stroke-opacity:1; 
stroke-linecap:round; stroke-linejoin:round;fill-rule:evenodd;"
d="M 41171,47076
41054,47076
41054,47500
41171,47500
Z" /> 
<path style="fill:#840084; fill-opacity:1.0; 
stroke:#840084; stroke-width:0; stroke-opacity:1; 
stroke-linecap:round; stroke-linejoin:round;fill-rule:evenodd;"
d="M 41962,47162
41954,47146
41934,47118
41911,47103
41891,47091
41864,47087
41836,47087
41837,47206
41860,47205
41891,47213
41923,47229
41950,47260
41962,47300
41966,47339
41967,47500
42083,47500
42083,47092
41967,47092
41966,47170
Z" /> 
</g>
<g style="fill:#840084; fill-opacity:1.0; 
stroke:#840084; stroke-width:3.93701; stroke-opacity:1; 
stroke-linecap:round; stroke-linejoin:round;">
</g>
<g style="fill:#840084; fill-opacity:0.0; 
stroke:#840084; stroke-width:3.93701; stroke-opacity:1; 
stroke-linecap:round; stroke-linejoin:round;">
<path d="M41760 47092
L41644 47092
" />
<path d="M41644 47092
L41644 47500
" />
<path d="M41644 47500
L41760 47500
" />
<path d="M41760 47500
L41760 47092
" />
</g>
<g style="fill:#840084; fill-opacity:1.0; 
stroke:#840084; stroke-width:0; stroke-opacity:1; 
stroke-linecap:round; stroke-linejoin:round;">
<path style="fill:#840084; fill-opacity:1.0; 
stroke:#840084; stroke-width:0; stroke-opacity:1; 
stroke-linecap:round; stroke-linejoin:round;fill-rule:evenodd;"
d="M 41763,46945
41641,46945
41641,47047
41763,47047
Z" /> 
<path style="fill:#840084; fill-opacity:1.0; 
stroke:#840084; stroke-width:0; stroke-opacity:1; 
stroke-linecap:round; stroke-linejoin:round;fill-rule:evenodd;"
d="M 41760,47092
41644,47092
41644,47500
41760,47500
Z" /> 
</g>
<g style="fill:#840084; fill-opacity:1.0; 
stroke:#840084; stroke-width:3.93701; stroke-opacity:1; 
stroke-linecap:round; stroke-linejoin:round;">
</g>
<g style="fill:#840084; fill-opacity:0.0; 
stroke:#840084; stroke-width:3.93701; stroke-opacity:1; 
stroke-linecap:round; stroke-linejoin:round;">
<path d="M42307 47092
L42192 47092
" />
<path d="M42192 47092
L42192 47500
" />
<path d="M42192 47500
L42307 47500
" />
<path d="M42307 47500
L42307 47092
" />
</g>
<g style="fill:#840084; fill-opacity:1.0; 
stroke:#840084; stroke-width:0; stroke-opacity:1; 
stroke-linecap:round; stroke-linejoin:round;">
<path style="fill:#840084; fill-opacity:1.0; 
stroke:#840084; stroke-width:0; stroke-opacity:1; 
stroke-linecap:round; stroke-linejoin:round;fill-rule:evenodd;"
d="M 42310,46945
42189,46945
42189,47047
42310,47047
Z" /> 
<path style="fill:#840084; fill-opacity:1.0; 
stroke:#840084; stroke-width:0; stroke-opacity:1; 
stroke-linecap:round; stroke-linejoin:round;fill-rule:evenodd;"
d="M 42307,47092
42192,47092
42192,47500
42307,47500
Z" /> 
<path style="fill:#840084; fill-opacity:1.0; 
stroke:#840084; stroke-width:0; stroke-opacity:1; 
stroke-linecap:round; stroke-linejoin:round;fill-rule:evenodd;"
d="M 42840,47315
42836,47339
42828,47362
42812,47390
42797,47410
42777,47429
42757,47441
42726,47457
42686,47465
42663,47467
42635,47465
42604,47457
42572,47441
42553,47425
42525,47398
42537,47315
42557,47343
42580,47359
42600,47366
42623,47370
42663,47366
42694,47351
42714,47327
42726,47307
42730,47292
Z" /> 
<path style="fill:#840084; fill-opacity:1.0; 
stroke:#840084; stroke-width:0; stroke-opacity:1; 
stroke-linecap:round; stroke-linejoin:round;fill-rule:evenodd;"
d="M 42529,47276
42533,47244
42549,47217
42568,47197
42592,47185
42616,47181
42630,47181
42663,47185
42690,47197
42706,47213
42718,47233
42726,47252
42729,47276
42726,47296
42840,47315
42844,47292
42844,47276
42844,47248
42836,47213
42820,47174
42797,47142
42777,47122
42753,47107
42726,47095
42694,47087
42663,47085
42631,47087
42612,47091
42584,47103
42564,47114
42541,47134
42529,47146
42529,47091
42415,47091
42415,47414
42419,47465
42427,47504
42434,47524
42442,47536
42458,47563
42486,47587
42501,47595
42525,47607
42549,47614
42572,47618
42608,47622
42643,47623
42675,47622
42710,47618
42738,47614
42777,47603
42805,47591
42824,47581
42784,47494
42757,47508
42738,47516
42710,47524
42686,47528
42646,47531
42608,47528
42584,47520
42560,47504
42545,47485
42537,47465
42529,47433
42530,47400
42541,47323
42533,47303
Z" /> 
<path style="fill:#840084; fill-opacity:1.0; 
stroke:#840084; stroke-width:0; stroke-opacity:1; 
stroke-linecap:round; stroke-linejoin:round;fill-rule:evenodd;"
d="M 43050,47500
42935,47500
42935,46945
43050,46945
Z" /> 
<path style="fill:#840084; fill-opacity:1.0; 
stroke:#840084; stroke-width:0; stroke-opacity:1; 
stroke-linecap:round; stroke-linejoin:round;fill-rule:evenodd;"
d="M 43280,47092
43164,47092
43164,47500
43280,47500
Z" /> 
<path style="fill:#840084; fill-opacity:1.0; 
stroke:#840084; stroke-width:0; stroke-opacity:1; 
stroke-linecap:round; stroke-linejoin:round;fill-rule:evenodd;"
d="M 43283,46945
43161,46945
43161,47047
43283,47047
Z" /> 
<path style="fill:#840084; fill-opacity:1.0; 
stroke:#840084; stroke-width:0; stroke-opacity:1; 
stroke-linecap:round; stroke-linejoin:round;fill-rule:evenodd;"
d="M 43874,46968
43766,46968
43516,47295
43516,46968
43401,46968
43401,47500
43500,47500
43758,47162
43758,47500
43874,47500
Z" /> 
</g>
<g style="fill:#840084; fill-opacity:1.0; 
stroke:#840084; stroke-width:3.93701; stroke-opacity:1; 
stroke-linecap:round; stroke-linejoin:round;">
</g>
<g style="fill:#840084; fill-opacity:0.0; 
stroke:#840084; stroke-width:3.93701; stroke-opacity:1; 
stroke-linecap:round; stroke-linejoin:round;">
<path d="M41171 47500
L41171 47076
" />
<path d="M41054 47500
L41171 47500
" />
<path d="M41054 47076
L41054 47500
" />
<path d="M40892 47076
L41054 47076
" />
<path d="M40892 46968
L40892 47076
" />
<path d="M41333 46968
L40892 46968
" />
<path d="M41333 47076
L41333 46968
" />
<path d="M41171 47076
L41333 47076
" />
<path d="M41760 47500
L41760 47092
" />
<path d="M41644 47500
L41760 47500
" />
<path d="M41644 47092
L41644 47500
" />
<path d="M41760 47092
L41644 47092
" />
<path d="M41763 47047
L41763 46945
" />
<path d="M41641 47047
L41763 47047
" />
<path d="M41641 46945
L41641 47047
" />
<path d="M41763 46945
L41641 46945
" />
<path d="M43874 47500
L43874 46968
" />
<path d="M43516 46968
L43401 46968
" />
<path d="M43766 46968
L43516 47295
" />
<path d="M43874 46968
L43766 46968
" />
<path d="M42192 47092
L42192 47500
" />
<path d="M42307 47092
L42192 47092
" />
<path d="M42310 47047
L42310 46945
" />
<path d="M42189 47047
L42310 47047
" />
<path d="M42189 46945
L42189 47047
" />
<path d="M42310 46945
L42189 46945
" />
<path d="M43050 47500
L43050 46945
" />
<path d="M42935 47500
L43050 47500
" />
<path d="M42935 46945
L42935 47500
" />
<path d="M43050 46945
L42935 46945
" />
<path d="M43280 47500
L43280 47092
" />
<path d="M43164 47500
L43280 47500
" />
<path d="M43164 47092
L43164 47500
" />
<path d="M43280 47092
L43164 47092
" />
<path d="M43758 47500
L43874 47500
" />
<path d="M43758 47162
L43758 47500
" />
<path d="M42307 47500
L42307 47092
" />
<path d="M42192 47500
L42307 47500
" />
<path d="M43401 47500
L43500 47500
" />
<path d="M43516 47295
L43516 46968
" />
<path d="M43500 47500
L43758 47162
" />
<path d="M43401 46968
L43401 47500
" />
</g>
<g style="fill:#840084; fill-opacity:0.0; 
stroke:#840084; stroke-width:157.48; stroke-opacity:1; 
stroke-linecap:round; stroke-linejoin:round;">
<circle cx="64388.7" cy="43426.3" r="393.701" /> 
<circle cx="64388.7" cy="27900" r="393.701" /> 
<g >
</g>
</g>
<g style="fill:#000000; fill-opacity:0.0; 
stroke:#000000; stroke-width:157.48; stroke-opacity:1; 
stroke-linecap:round; stroke-linejoin:round;">
</g>
<g style="fill:#008484; fill-opacity:0.0; 
stroke:#008484; stroke-width:157.48; stroke-opacity:1; 
stroke-linecap:round; stroke-linejoin:round;">
</g>
<g style="fill:#008484; fill-opacity:0.0; 
stroke:#008484; stroke-width:3.93701; stroke-opacity:1; 
stroke-linecap:round; stroke-linejoin:round;">
<path d="M41268 46968
L41268 47500
" />
<path d="M41169 47500
L40911 47162
" />
<path d="M41153 47295
L41153 46968
" />
<path d="M41268 47500
L41169 47500
" />
<path d="M42477 47500
L42362 47500
" />
<path d="M42362 47500
L42362 47092
" />
<path d="M40911 47162
L40911 47500
" />
<path d="M40911 47500
L40795 47500
" />
<path d="M41389 47092
L41505 47092
" />
<path d="M41505 47092
L41505 47500
" />
<path d="M41505 47500
L41389 47500
" />
<path d="M41389 47500
L41389 47092
" />
<path d="M41619 46945
L41734 46945
" />
<path d="M41734 46945
L41734 47500
" />
<path d="M41734 47500
L41619 47500
" />
<path d="M41619 47500
L41619 46945
" />
<path d="M42359 46945
L42480 46945
" />
<path d="M42480 46945
L42480 47047
" />
<path d="M42480 47047
L42359 47047
" />
<path d="M42359 47047
L42359 46945
" />
<path d="M42362 47092
L42477 47092
" />
<path d="M42477 47092
L42477 47500
" />
<path d="M40795 46968
L40903 46968
" />
<path d="M40903 46968
L41153 47295
" />
<path d="M41153 46968
L41268 46968
" />
<path d="M40795 47500
L40795 46968
" />
<path d="M42906 46945
L43028 46945
" />
<path d="M43028 46945
L43028 47047
" />
<path d="M43028 47047
L42906 47047
" />
<path d="M42906 47047
L42906 46945
" />
<path d="M42909 47092
L43025 47092
" />
<path d="M43025 47092
L43025 47500
" />
<path d="M43025 47500
L42909 47500
" />
<path d="M42909 47500
L42909 47092
" />
<path d="M43498 47076
L43336 47076
" />
<path d="M43336 47076
L43336 46968
" />
<path d="M43336 46968
L43777 46968
" />
<path d="M43777 46968
L43777 47076
" />
<path d="M43777 47076
L43615 47076
" />
<path d="M43615 47076
L43615 47500
" />
<path d="M43615 47500
L43498 47500
" />
<path d="M43498 47500
L43498 47076
" />
</g>
<g style="fill:#008484; fill-opacity:1.0; 
stroke:#008484; stroke-width:0; stroke-opacity:1; 
stroke-linecap:round; stroke-linejoin:round;">
<path style="fill:#008484; fill-opacity:1.0; 
stroke:#008484; stroke-width:0; stroke-opacity:1; 
stroke-linecap:round; stroke-linejoin:round;fill-rule:evenodd;"
d="M 40795,46968
40903,46968
41153,47295
41153,46968
41268,46968
41268,47500
41169,47500
40911,47162
40911,47500
40795,47500
Z" /> 
<path style="fill:#008484; fill-opacity:1.0; 
stroke:#008484; stroke-width:0; stroke-opacity:1; 
stroke-linecap:round; stroke-linejoin:round;fill-rule:evenodd;"
d="M 41386,46945
41508,46945
41508,47047
41386,47047
Z" /> 
<path style="fill:#008484; fill-opacity:1.0; 
stroke:#008484; stroke-width:0; stroke-opacity:1; 
stroke-linecap:round; stroke-linejoin:round;fill-rule:evenodd;"
d="M 41389,47092
41505,47092
41505,47500
41389,47500
Z" /> 
<path style="fill:#008484; fill-opacity:1.0; 
stroke:#008484; stroke-width:0; stroke-opacity:1; 
stroke-linecap:round; stroke-linejoin:round;fill-rule:evenodd;"
d="M 41619,47500
41734,47500
41734,46945
41619,46945
Z" /> 
<path style="fill:#008484; fill-opacity:1.0; 
stroke:#008484; stroke-width:0; stroke-opacity:1; 
stroke-linecap:round; stroke-linejoin:round;fill-rule:evenodd;"
d="M 42140,47276
42136,47244
42120,47217
42101,47197
42077,47185
42053,47181
42039,47181
42006,47185
41979,47197
41963,47213
41951,47233
41943,47252
41940,47276
41943,47296
41829,47315
41825,47292
41825,47276
41825,47248
41833,47213
41849,47174
41872,47142
41892,47122
41916,47107
41943,47095
41975,47087
42006,47085
42038,47087
42057,47091
42085,47103
42105,47114
42128,47134
42140,47146
42140,47091
42254,47091
42254,47414
42250,47465
42242,47504
42235,47524
42227,47536
42211,47563
42183,47587
42168,47595
42144,47607
42120,47614
42097,47618
42061,47622
42026,47623
41994,47622
41959,47618
41931,47614
41892,47603
41864,47591
41845,47581
41885,47494
41912,47508
41931,47516
41959,47524
41983,47528
42023,47531
42061,47528
42085,47520
42109,47504
42124,47485
42132,47465
42140,47433
42139,47400
42128,47323
42136,47303
Z" /> 
<path style="fill:#008484; fill-opacity:1.0; 
stroke:#008484; stroke-width:0; stroke-opacity:1; 
stroke-linecap:round; stroke-linejoin:round;fill-rule:evenodd;"
d="M 41829,47315
41833,47339
41841,47362
41857,47390
41872,47410
41892,47429
41912,47441
41943,47457
41983,47465
42006,47467
42034,47465
42065,47457
42097,47441
42116,47425
42144,47398
42132,47315
42112,47343
42089,47359
42069,47366
42046,47370
42006,47366
41975,47351
41955,47327
41943,47307
41939,47292
Z" /> 
<path style="fill:#008484; fill-opacity:1.0; 
stroke:#008484; stroke-width:0; stroke-opacity:1; 
stroke-linecap:round; stroke-linejoin:round;fill-rule:evenodd;"
d="M 42362,47092
42477,47092
42477,47500
42362,47500
Z" /> 
<path style="fill:#008484; fill-opacity:1.0; 
stroke:#008484; stroke-width:0; stroke-opacity:1; 
stroke-linecap:round; stroke-linejoin:round;fill-rule:evenodd;"
d="M 42359,46945
42480,46945
42480,47047
42359,47047
Z" /> 
</g>
<g style="fill:#008484; fill-opacity:1.0; 
stroke:#008484; stroke-width:3.93701; stroke-opacity:1; 
stroke-linecap:round; stroke-linejoin:round;">
</g>
<g style="fill:#008484; fill-opacity:0.0; 
stroke:#008484; stroke-width:3.93701; stroke-opacity:1; 
stroke-linecap:round; stroke-linejoin:round;">
<path d="M42362 47500
L42362 47092
" />
<path d="M42477 47500
L42362 47500
" />
<path d="M42477 47092
L42477 47500
" />
<path d="M42362 47092
L42477 47092
" />
</g>
<g style="fill:#008484; fill-opacity:1.0; 
stroke:#008484; stroke-width:0; stroke-opacity:1; 
stroke-linecap:round; stroke-linejoin:round;">
<path style="fill:#008484; fill-opacity:1.0; 
stroke:#008484; stroke-width:0; stroke-opacity:1; 
stroke-linecap:round; stroke-linejoin:round;fill-rule:evenodd;"
d="M 42909,47092
43025,47092
43025,47500
42909,47500
Z" /> 
<path style="fill:#008484; fill-opacity:1.0; 
stroke:#008484; stroke-width:0; stroke-opacity:1; 
stroke-linecap:round; stroke-linejoin:round;fill-rule:evenodd;"
d="M 42906,46945
43028,46945
43028,47047
42906,47047
Z" /> 
</g>
<g style="fill:#008484; fill-opacity:1.0; 
stroke:#008484; stroke-width:3.93701; stroke-opacity:1; 
stroke-linecap:round; stroke-linejoin:round;">
</g>
<g style="fill:#008484; fill-opacity:0.0; 
stroke:#008484; stroke-width:3.93701; stroke-opacity:1; 
stroke-linecap:round; stroke-linejoin:round;">
<path d="M42909 47500
L42909 47092
" />
<path d="M43025 47500
L42909 47500
" />
<path d="M43025 47092
L43025 47500
" />
<path d="M42909 47092
L43025 47092
" />
</g>
<g style="fill:#008484; fill-opacity:1.0; 
stroke:#008484; stroke-width:0; stroke-opacity:1; 
stroke-linecap:round; stroke-linejoin:round;">
<path style="fill:#008484; fill-opacity:1.0; 
stroke:#008484; stroke-width:0; stroke-opacity:1; 
stroke-linecap:round; stroke-linejoin:round;fill-rule:evenodd;"
d="M 42707,47162
42715,47146
42735,47118
42758,47103
42778,47091
42805,47087
42833,47087
42832,47206
42809,47205
42778,47213
42746,47229
42719,47260
42707,47300
42703,47339
42702,47500
42586,47500
42586,47092
42702,47092
42703,47170
Z" /> 
<path style="fill:#008484; fill-opacity:1.0; 
stroke:#008484; stroke-width:0; stroke-opacity:1; 
stroke-linecap:round; stroke-linejoin:round;fill-rule:evenodd;"
d="M 43498,47076
43615,47076
43615,47500
43498,47500
Z" /> 
<path style="fill:#008484; fill-opacity:1.0; 
stroke:#008484; stroke-width:0; stroke-opacity:1; 
stroke-linecap:round; stroke-linejoin:round;fill-rule:evenodd;"
d="M 43336,47076
43336,46968
43777,46968
43777,47076
Z" /> 
<path style="fill:#008484; fill-opacity:1.0; 
stroke:#008484; stroke-width:0; stroke-opacity:1; 
stroke-linecap:round; stroke-linejoin:round;fill-rule:evenodd;"
d="M 44009,47085
43975,47087
43939,47095
43888,47122
43853,47158
43829,47197
43813,47237
43807,47299
43809,47339
43821,47382
43837,47414
43864,47449
43900,47477
43943,47496
43987,47508
44020,47509
44073,47504
44112,47492
44152,47469
44187,47433
44120,47375
44085,47402
44053,47414
44021,47416
43990,47414
43959,47398
43939,47378
43927,47355
43922,47337
44206,47337
44207,47303
44203,47252
44195,47217
44168,47162
44095,47264
43920,47264
43931,47229
43947,47205
43967,47189
43983,47181
44009,47178
44038,47181
44065,47197
44085,47225
44164,47158
44144,47134
44112,47111
44085,47099
44061,47091
44030,47087
Z" /> 
<path style="fill:#008484; fill-opacity:1.0; 
stroke:#008484; stroke-width:0; stroke-opacity:1; 
stroke-linecap:round; stroke-linejoin:round;fill-rule:evenodd;"
d="M 44085,47225
44089,47237
44097,47268
44168,47166
44160,47154
Z" /> 
<path style="fill:#008484; fill-opacity:1.0; 
stroke:#008484; stroke-width:0; stroke-opacity:1; 
stroke-linecap:round; stroke-linejoin:round;fill-rule:evenodd;"
d="M 44532,47456
44514,47473
44475,47496
44424,47508
44400,47508
44364,47504
44333,47492
44309,47477
44290,47453
44274,47425
44270,47390
44270,47366
44278,47327
44298,47296
44325,47276
44353,47264
44376,47256
44408,47252
44433,47251
44467,47252
44506,47260
44532,47268
44553,47280
44561,47347
44534,47336
44498,47323
44460,47321
44431,47323
44408,47331
44388,47347
44380,47370
44380,47382
44388,47406
44400,47418
44420,47425
44443,47428
44471,47425
44487,47422
44502,47414
44510,47406
44526,47390
44534,47366
44534,47356
44561,47362
44561,47457
Z" /> 
<path style="fill:#008484; fill-opacity:1.0; 
stroke:#008484; stroke-width:0; stroke-opacity:1; 
stroke-linecap:round; stroke-linejoin:round;fill-rule:evenodd;"
d="M 44534,47331
44532,47500
44644,47500
44644,47252
44640,47221
44632,47185
44620,47158
44597,47130
44573,47114
44542,47099
44510,47091
44479,47087
44462,47088
44404,47091
44349,47103
44303,47120
44332,47209
44357,47201
44400,47189
44445,47187
44479,47189
44510,47205
44526,47225
44530,47240
44534,47272
Z" /> 
</g>
<g style="fill:#008484; fill-opacity:0.0; 
stroke:#008484; stroke-width:157.48; stroke-opacity:1; 
stroke-linecap:round; stroke-linejoin:round;">
<circle cx="40550" cy="43426.3" r="393.701" /> 
<circle cx="40550" cy="27900" r="393.701" /> 
<circle cx="64388.7" cy="43426.3" r="393.701" /> 
<circle cx="64388.7" cy="27900" r="393.701" /> 
<g >
</g>
</g>
<g style="fill:#000000; fill-opacity:0.0; 
stroke:#000000; stroke-width:157.48; stroke-opacity:1; 
stroke-linecap:round; stroke-linejoin:round;">
</g>
<g style="fill:#C2C200; fill-opacity:0.0; 
stroke:#C2C200; stroke-width:157.48; stroke-opacity:1; 
stroke-linecap:round; stroke-linejoin:round;">
</g>
<g style="fill:#C2C200; fill-opacity:0.0; 
stroke:#C2C200; stroke-width:19.685; stroke-opacity:1; 
stroke-linecap:round; stroke-linejoin:round;">
<path d="M73249 21457
L73249 15332
" />
</g>
<g style="fill:#C2C200; fill-opacity:0.0; 
stroke:#C2C200; stroke-width:59.0551; stroke-opacity:1; 
stroke-linecap:round; stroke-linejoin:round;">
<path d="M73249 15332
L73247 15272
" />
<path d="M73247 15272
L73243 15216
" />
<path d="M73243 15216
L73237 15162
" />
<path d="M73237 15162
L73228 15110
" />
<path d="M73228 15110
L73217 15060
" />
<path d="M73217 15060
L73205 15012
" />
<path d="M73205 15012
L73191 14965
" />
<path d="M73191 14965
L73175 14921
" />
<path d="M73175 14921
L73158 14877
" />
<path d="M73158 14877
L73140 14836
" />
<path d="M73140 14836
L73120 14795
" />
<path d="M73120 14795
L73099 14755
" />
<path d="M73099 14755
L73077 14717
" />
<path d="M73077 14717
L73053 14680
" />
<path d="M73053 14680
L73028 14644
" />
<path d="M73028 14644
L73003 14610
" />
<path d="M73003 14610
L72976 14577
" />
<path d="M72976 14577
L72948 14545
" />
<path d="M72948 14545
L72919 14514
" />
<path d="M72919 14514
L72889 14483
" />
<path d="M72889 14483
L72858 14454
" />
<path d="M72858 14454
L72826 14427
" />
<path d="M72826 14427
L72792 14399
" />
<path d="M72792 14399
L72758 14373
" />
<path d="M72758 14373
L72722 14349
" />
<path d="M72722 14349
L72685 14325
" />
<path d="M72685 14325
L72648 14303
" />
<path d="M72648 14303
L72609 14282
" />
<path d="M72609 14282
L72569 14262
" />
<path d="M72569 14262
L72527 14244
" />
<path d="M72527 14244
L72483 14226
" />
<path d="M72483 14226
L72439 14211
" />
<path d="M72439 14211
L72393 14196
" />
<path d="M72393 14196
L72344 14184
" />
<path d="M72344 14184
L72295 14173
" />
<path d="M72295 14173
L72244 14164
" />
<path d="M72244 14164
L72189 14157
" />
<path d="M72189 14157
L72133 14153
" />
<path d="M72133 14153
L72074 14151
" />
<path d="M72074 14151
L72068 14151
" />
<path d="M35096 14151
L35037 14153
" />
<path d="M35037 14153
L34980 14157
" />
<path d="M34980 14157
L34926 14164
" />
<path d="M34926 14164
L34875 14172
" />
<path d="M34875 14172
L34825 14183
" />
<path d="M34825 14183
L34777 14195
" />
<path d="M34777 14195
L34731 14209
" />
<path d="M34731 14209
L34685 14225
" />
<path d="M34685 14225
L34642 14242
" />
<path d="M34642 14242
L34600 14260
" />
<path d="M34600 14260
L34559 14280
" />
<path d="M34559 14280
L34518 14302
" />
<path d="M34518 14302
L34480 14324
" />
<path d="M34480 14324
L34444 14348
" />
<path d="M34444 14348
L34408 14372
" />
<path d="M34408 14372
L34374 14397
" />
<path d="M34374 14397
L34341 14424
" />
<path d="M34341 14424
L34309 14452
" />
<path d="M34309 14452
L34278 14481
" />
<path d="M34278 14481
L34248 14511
" />
<path d="M34248 14511
L34219 14542
" />
<path d="M34219 14542
L34191 14574
" />
<path d="M34191 14574
L34164 14608
" />
<path d="M34164 14608
L34138 14642
" />
<path d="M34138 14642
L34114 14677
" />
<path d="M34114 14677
L34090 14714
" />
<path d="M34090 14714
L34067 14753
" />
<path d="M34067 14753
L34046 14791
" />
<path d="M34046 14791
L34026 14832
" />
<path d="M34026 14832
L34008 14873
" />
<path d="M34008 14873
L33991 14916
" />
<path d="M33991 14916
L33975 14960
" />
<path d="M33975 14960
L33961 15006
" />
<path d="M33961 15006
L33949 15053
" />
<path d="M33949 15053
L33938 15102
" />
<path d="M33938 15102
L33929 15153
" />
<path d="M33929 15153
L33922 15205
" />
<path d="M33922 15205
L33918 15260
" />
<path d="M33918 15260
L33916 15320
" />
<path d="M33916 15320
L33915 15332
" />
</g>
<g style="fill:#C2C200; fill-opacity:0.0; 
stroke:#C2C200; stroke-width:19.685; stroke-opacity:1; 
stroke-linecap:round; stroke-linejoin:round;">
<path d="M33915 21457
L33915 15332
" />
<path d="M73249 21457
L73285 47720
" />
<path d="M33915 47720
L33915 21457
" />
<path d="M35096 14151
L72068 14151
" />
<path d="M35096 48901
L72106 48901
" />
</g>
<g style="fill:#C2C200; fill-opacity:0.0; 
stroke:#C2C200; stroke-width:59.0551; stroke-opacity:1; 
stroke-linecap:round; stroke-linejoin:round;">
<path d="M33915 47720
L33917 47781
" />
<path d="M33917 47781
L33921 47836
" />
<path d="M33921 47836
L33927 47889
" />
<path d="M33927 47889
L33936 47940
" />
<path d="M33936 47940
L33946 47989
" />
<path d="M33946 47989
L33959 48039
" />
<path d="M33959 48039
L33973 48085
" />
<path d="M33973 48085
L33988 48129
" />
<path d="M33988 48129
L34005 48173
" />
<path d="M34005 48173
L34023 48214
" />
<path d="M34023 48214
L34044 48256
" />
<path d="M34044 48256
L34064 48295
" />
<path d="M34064 48295
L34086 48332
" />
<path d="M34086 48332
L34110 48370
" />
<path d="M34110 48370
L34134 48405
" />
<path d="M34134 48405
L34160 48439
" />
<path d="M34160 48439
L34187 48473
" />
<path d="M34187 48473
L34214 48505
" />
<path d="M34214 48505
L34243 48537
" />
<path d="M34243 48537
L34273 48567
" />
<path d="M34273 48567
L34304 48596
" />
<path d="M34304 48596
L34336 48624
" />
<path d="M34336 48624
L34370 48651
" />
<path d="M34370 48651
L34404 48677
" />
<path d="M34404 48677
L34439 48701
" />
<path d="M34439 48701
L34477 48726
" />
<path d="M34477 48726
L34515 48748
" />
<path d="M34515 48748
L34554 48769
" />
<path d="M34554 48769
L34595 48790
" />
<path d="M34595 48790
L34637 48808
" />
<path d="M34637 48808
L34680 48825
" />
<path d="M34680 48825
L34725 48841
" />
<path d="M34725 48841
L34771 48855
" />
<path d="M34771 48855
L34818 48868
" />
<path d="M34818 48868
L34866 48878
" />
<path d="M34866 48878
L34917 48887
" />
<path d="M34917 48887
L34971 48894
" />
<path d="M34971 48894
L35027 48899
" />
<path d="M35027 48899
L35086 48901
" />
<path d="M35086 48901
L35096 48901
" />
<path d="M72104 48901
L72164 48899
" />
<path d="M72164 48899
L72219 48895
" />
<path d="M72219 48895
L72272 48889
" />
<path d="M72272 48889
L72323 48881
" />
<path d="M72323 48881
L72373 48870
" />
<path d="M72373 48870
L72420 48858
" />
<path d="M72420 48858
L72467 48844
" />
<path d="M72467 48844
L72512 48829
" />
<path d="M72512 48829
L72555 48812
" />
<path d="M72555 48812
L72596 48794
" />
<path d="M72596 48794
L72637 48774
" />
<path d="M72637 48774
L72676 48754
" />
<path d="M72676 48754
L72716 48730
" />
<path d="M72716 48730
L72754 48706
" />
<path d="M72754 48706
L72789 48682
" />
<path d="M72789 48682
L72823 48657
" />
<path d="M72823 48657
L72858 48629
" />
<path d="M72858 48629
L72890 48601
" />
<path d="M72890 48601
L72921 48572
" />
<path d="M72921 48572
L72952 48542
" />
<path d="M72952 48542
L72981 48511
" />
<path d="M72981 48511
L73008 48479
" />
<path d="M73008 48479
L73036 48445
" />
<path d="M73036 48445
L73062 48411
" />
<path d="M73062 48411
L73086 48376
" />
<path d="M73086 48376
L73110 48339
" />
<path d="M73110 48339
L73132 48302
" />
<path d="M73132 48302
L73153 48263
" />
<path d="M73153 48263
L73173 48223
" />
<path d="M73173 48223
L73191 48182
" />
<path d="M73191 48182
L73209 48138
" />
<path d="M73209 48138
L73224 48094
" />
<path d="M73224 48094
L73239 48048
" />
<path d="M73239 48048
L73251 48001
" />
<path d="M73251 48001
L73262 47951
" />
<path d="M73262 47951
L73271 47899
" />
<path d="M73271 47899
L73278 47847
" />
<path d="M73278 47847
L73283 47790
" />
<path d="M73283 47790
L73285 47732
" />
<path d="M73285 47732
L73285 47720
" />
<g >
</g>
<g >
</g>
<g >
</g>
<g >
</g>
<g >
</g>
<g >
</g>
<g >
</g>
</g> 
</svg>
