M48
; DRILL file {KiCad (5.1.4-0-10_14)} date 2019 October 30, Wednesday 04:12:14
; FORMAT={3:3/ absolute / metric / suppress trailing zeros}
; #@! TF.CreationDate,2019-10-30T04:12:14+09:00
; #@! TF.GenerationSoftware,Kicad,Pcbnew,(5.1.4-0-10_14)
; #@! TF.FileFunction,Plated,1,2,PTH
FMAT,2
METRIC,LZ
T1C0.400
T2C0.550
T3C0.600
T4C0.813
T5C0.850
T6C0.900
T7C1.000
T8C1.200
T9C1.300
T10C1.500
%
G90
G05
T1
X096203Y-066287
X097053Y-063576
X097092Y-066866
X097403Y-067818
X098144Y-068725
X098853Y-06785
X099578Y-066974
X099822Y-063754
X101407Y-066669
X104521Y-073787
X105283Y-052832
X106934Y-079502
X107442Y-075184
X107887Y-080264
X10922Y-087122
X109347Y-041783
X111506Y-0762
X11303Y-082106
X119507Y-098679
X119761Y-078486
X124892Y-063411
X125552Y-093294
X126Y-0924
X126356Y-088528
X126365Y-074041
X12765Y-102
X128397Y-04699
X128524Y-098044
X129279Y-096246
X129625Y-10355
X130556Y-051562
X130556Y-089662
X131016Y-096325
X131525Y-094175
X132334Y-095123
X1347Y-0927
X134747Y-103124
X135211Y-093612
X1366Y-07526
X137668Y-044831
X13775Y-090436
X138811Y-069596
X140716Y-093091
X141224Y-045593
X142175Y-1091
X142275Y-094291
X143129Y-089281
X143403Y-09025
X143539Y-091342
X14355Y-0603
X143556Y-09301
X144018Y-10033
X144071Y-062283
X145669Y-055753
X145796Y-093218
X146558Y-078232
X147066Y-106934
X147701Y-103886
X147828Y-090932
X148479Y-049392
X148792Y-061433
X149606Y-100838
X149665Y-064262
X150622Y-080772
X151384Y-072898
X153403Y-104902
X154064Y-102006
X15875Y-062357
X1589Y-04155
X159512Y-052832
X162763Y-113487
X163106Y-102095
X164245Y-116747
X165143Y-059393
X165595Y-102184
X171704Y-065024
X17255Y-0636
X17399Y-079248
X174752Y-10033
X18034Y-059563
T4
X105664Y-114815
X105664Y-122435
X1635Y-07704
X1635Y-08466
X163Y-114815
X163Y-122435
X14195Y-06764
X14195Y-07526
X1039Y-092415
X1039Y-100035
X08905Y-05495
X091572Y-039739
X091572Y-054959
X094112Y-039739
X094112Y-054959
X096652Y-039739
X096652Y-054959
X099192Y-039739
X099192Y-054959
X101732Y-039739
X101732Y-054959
X104272Y-039739
X104272Y-054959
X106812Y-039739
X106812Y-054959
X109352Y-039739
X109352Y-054959
X111892Y-039739
X111892Y-054959
X114432Y-039739
X114432Y-054959
X116972Y-039739
X116972Y-054959
X119512Y-039739
X119512Y-054959
X1424Y-080265
X1424Y-087885
X1231Y-06754
X1231Y-07516
X16095Y-07704
X16095Y-08466
X16075Y-114815
X16075Y-122435
X143002Y-114815
X143002Y-122435
X12319Y-080264
X12319Y-087884
X16345Y-08734
X16345Y-09496
X10405Y-07969
X10405Y-08731
X16075Y-08734
X16075Y-09496
X08915Y-03975
T6
X1277Y-04695
X150354Y-0457
X150354Y-0483
X156146Y-0457
X156146Y-0483
X1788Y-04705
T7
X1718Y-0826
X1718Y-0971
X1743Y-0826
X1768Y-0826
X1768Y-0971
X151384Y-061087
X151384Y-063627
X153924Y-061087
X153924Y-063627
X156464Y-061087
X156464Y-063627
X1719Y-0611
X1719Y-0756
X1744Y-0611
X1769Y-0611
X1769Y-0756
T8
X14894Y-07401
X15275Y-07065
X15529Y-07147
X15785Y-07265
X11099Y-06956
X1148Y-0662
X11734Y-06702
X1199Y-0682
X12994Y-08351
X13375Y-08015
X13629Y-08097
X13885Y-08215
X171227Y-10916
X175777Y-106901
X178018Y-10835
X180186Y-110153
X14894Y-09301
X15275Y-08965
X15529Y-09047
X15785Y-09165
X09179Y-07906
X0956Y-0757
X09814Y-07652
X1007Y-0777
X09175Y-09814
X09556Y-09478
X0981Y-0956
X10066Y-09678
X14894Y-11216
X15785Y-1108
X11094Y-08846
X11475Y-0851
X11729Y-08592
X11985Y-0871
X15275Y-1088
X15529Y-10962
X13885Y-1108
X12989Y-06451
X1337Y-06115
X13624Y-06197
X1388Y-06315
X12994Y-11216
X13375Y-1088
X13629Y-10962
X11089Y-11216
X1147Y-1088
X11724Y-10962
X1198Y-1108
T9
X105056Y-060325
X111556Y-060325
T2
G00X088316Y-062724
M15
G01X087666Y-062724
M16
G05
G00X088316Y-070474
M15
G01X087666Y-070474
M16
G05
T3
G00X094283Y-060225
M15
G01X094283Y-061025
M16
G05
G00X094283Y-064245
M15
G01X094283Y-065345
M16
G05
G00X102923Y-060225
M15
G01X102923Y-061025
M16
G05
G00X102923Y-064245
M15
G01X102923Y-065345
M16
G05
T5
G00X092066Y-062874
M15
G01X091516Y-062874
M16
G05
G00X092066Y-070324
M15
G01X091516Y-070324
M16
G05
T10
G00X1688Y-06795
M15
G01X1688Y-06925
M16
G05
G00X18Y-06795
M15
G01X18Y-06925
M16
G05
G00X1687Y-08945
M15
G01X1687Y-09075
M16
G05
G00X1799Y-08945
M15
G01X1799Y-09075
M16
G05
T0
M30
