G04 #@! TF.GenerationSoftware,KiCad,Pcbnew,(5.1.4-0-10_14)*
G04 #@! TF.CreationDate,2020-03-30T03:15:34+09:00*
G04 #@! TF.ProjectId,palette1202-PM,70616c65-7474-4653-9132-30322d504d2e,rev?*
G04 #@! TF.SameCoordinates,Original*
G04 #@! TF.FileFunction,Legend,Top*
G04 #@! TF.FilePolarity,Positive*
%FSLAX46Y46*%
G04 Gerber Fmt 4.6, Leading zero omitted, Abs format (unit mm)*
G04 Created by KiCad (PCBNEW (5.1.4-0-10_14)) date 2020-03-30 03:15:34*
%MOMM*%
%LPD*%
G04 APERTURE LIST*
%ADD10C,0.500000*%
%ADD11C,0.200000*%
%ADD12C,0.100000*%
%ADD13C,0.150000*%
%ADD14C,0.120000*%
%ADD15C,0.400000*%
%ADD16C,0.125000*%
%ADD17C,3.102000*%
%ADD18C,1.802000*%
%ADD19C,2.002000*%
%ADD20C,4.102000*%
%ADD21R,2.102000X2.102000*%
%ADD22R,1.902000X2.102000*%
%ADD23C,2.102000*%
%ADD24C,1.902000*%
%ADD25C,1.626000*%
%ADD26R,1.802000X1.802000*%
%ADD27O,1.802000X1.802000*%
%ADD28C,0.300000*%
%ADD29R,1.402000X1.052000*%
%ADD30R,3.102000X4.102000*%
%ADD31R,2.102000X3.302000*%
%ADD32C,1.702200*%
%ADD33C,1.002000*%
%ADD34C,1.499000*%
%ADD35R,1.499000X1.499000*%
%ADD36R,1.052000X1.402000*%
%ADD37C,1.452000*%
%ADD38C,4.202000*%
%ADD39C,2.202000*%
%ADD40R,1.102000X0.902000*%
%ADD41R,0.802000X1.602000*%
G04 APERTURE END LIST*
D10*
X160451800Y-37185600D02*
X160451800Y-38989000D01*
D11*
X89802000Y-39470200D02*
X89802000Y-52143600D01*
D12*
G36*
X170367856Y-47095925D02*
G01*
X170390876Y-47097232D01*
X170413051Y-47099415D01*
X170434393Y-47102477D01*
X170454913Y-47106424D01*
X170474623Y-47111257D01*
X170493534Y-47116982D01*
X170511659Y-47123603D01*
X170529009Y-47131122D01*
X170545595Y-47139545D01*
X170561429Y-47148875D01*
X170576524Y-47159115D01*
X170590889Y-47170270D01*
X170604537Y-47182344D01*
X170617480Y-47195340D01*
X170629730Y-47209262D01*
X170641110Y-47224022D01*
X170651439Y-47239534D01*
X170660722Y-47255806D01*
X170668963Y-47272845D01*
X170676164Y-47290659D01*
X170682331Y-47309256D01*
X170687467Y-47328644D01*
X170691576Y-47348830D01*
X170694662Y-47369822D01*
X170696728Y-47391628D01*
X170697779Y-47414256D01*
X170697819Y-47437713D01*
X170696850Y-47462007D01*
X170694878Y-47487147D01*
X170691906Y-47513138D01*
X170687938Y-47539991D01*
X170526542Y-48682991D01*
X170521433Y-48682636D01*
X170396897Y-49558760D01*
X170124377Y-49558760D01*
X170132313Y-49463510D01*
X170108501Y-49463510D01*
X170101431Y-49470331D01*
X170094114Y-49476905D01*
X170086548Y-49483230D01*
X170078735Y-49489307D01*
X170070673Y-49495136D01*
X170062364Y-49500717D01*
X170053806Y-49506050D01*
X170045001Y-49511135D01*
X170036066Y-49516850D01*
X170027100Y-49522132D01*
X170018072Y-49527041D01*
X170008951Y-49531640D01*
X169999706Y-49535991D01*
X169990306Y-49540156D01*
X169980720Y-49544197D01*
X169970917Y-49548176D01*
X169960866Y-49551023D01*
X169950536Y-49553592D01*
X169939896Y-49555850D01*
X169928915Y-49557767D01*
X169917562Y-49559313D01*
X169905805Y-49560455D01*
X169893615Y-49561163D01*
X169880959Y-49561405D01*
X169866201Y-49560941D01*
X169851695Y-49559550D01*
X169837445Y-49557237D01*
X169823454Y-49554005D01*
X169809727Y-49549859D01*
X169796267Y-49544802D01*
X169783078Y-49538838D01*
X169770165Y-49531971D01*
X169757531Y-49524205D01*
X169745179Y-49515543D01*
X169733115Y-49505990D01*
X169721341Y-49495549D01*
X169709861Y-49484225D01*
X169698680Y-49472021D01*
X169687802Y-49458941D01*
X169677229Y-49444990D01*
X169667246Y-49430169D01*
X169658135Y-49414485D01*
X169649900Y-49397940D01*
X169642544Y-49380539D01*
X169636073Y-49362285D01*
X169630488Y-49343182D01*
X169625795Y-49323234D01*
X169621998Y-49302446D01*
X169619099Y-49280820D01*
X169617104Y-49258360D01*
X169616016Y-49235072D01*
X169615838Y-49210958D01*
X169616072Y-49203009D01*
X169923463Y-49203009D01*
X169923611Y-49212090D01*
X169923992Y-49220761D01*
X169924614Y-49229025D01*
X169925483Y-49236885D01*
X169926608Y-49244347D01*
X169927997Y-49251413D01*
X169929657Y-49258088D01*
X169931596Y-49264375D01*
X169933822Y-49270278D01*
X169936343Y-49275801D01*
X169939166Y-49280949D01*
X169941738Y-49285755D01*
X169944489Y-49290251D01*
X169947410Y-49294437D01*
X169950494Y-49298312D01*
X169953732Y-49301878D01*
X169957119Y-49305134D01*
X169960644Y-49308079D01*
X169964302Y-49310715D01*
X169968083Y-49313040D01*
X169971981Y-49315056D01*
X169975987Y-49316761D01*
X169980094Y-49318157D01*
X169984294Y-49319242D01*
X169988579Y-49320017D01*
X169992942Y-49320482D01*
X169997374Y-49320637D01*
X170001808Y-49320545D01*
X170006180Y-49320270D01*
X170010490Y-49319817D01*
X170014738Y-49319190D01*
X170018924Y-49318392D01*
X170023048Y-49317428D01*
X170027109Y-49316300D01*
X170031109Y-49315014D01*
X170035047Y-49313573D01*
X170038923Y-49311981D01*
X170042736Y-49310241D01*
X170046488Y-49308358D01*
X170050178Y-49306335D01*
X170053805Y-49304177D01*
X170057371Y-49301887D01*
X170060874Y-49299469D01*
X170064317Y-49296928D01*
X170067701Y-49294271D01*
X170071031Y-49291505D01*
X170074310Y-49288638D01*
X170077543Y-49285679D01*
X170080734Y-49282634D01*
X170087002Y-49276319D01*
X170093146Y-49269756D01*
X170099198Y-49263007D01*
X170111146Y-49249199D01*
X170116107Y-49241138D01*
X170121068Y-49232828D01*
X170126029Y-49224270D01*
X170130990Y-49215464D01*
X170135951Y-49206411D01*
X170140912Y-49197109D01*
X170145873Y-49187559D01*
X170150834Y-49177761D01*
X170238146Y-48497782D01*
X170243438Y-48497782D01*
X170264604Y-48333741D01*
X170150834Y-48333741D01*
X170143973Y-48333911D01*
X170137283Y-48334421D01*
X170130763Y-48335271D01*
X170124411Y-48336459D01*
X170118229Y-48337984D01*
X170112214Y-48339845D01*
X170106367Y-48342041D01*
X170100687Y-48344572D01*
X170095173Y-48347436D01*
X170089826Y-48350632D01*
X170084645Y-48354160D01*
X170079628Y-48358018D01*
X170074777Y-48362206D01*
X170070090Y-48366722D01*
X170065566Y-48371565D01*
X170061206Y-48376735D01*
X170052973Y-48388051D01*
X170045387Y-48400661D01*
X170038445Y-48414558D01*
X170032143Y-48429734D01*
X170026476Y-48446182D01*
X170021440Y-48463892D01*
X170017033Y-48482859D01*
X170013250Y-48503073D01*
X169925937Y-49151303D01*
X169925039Y-49162497D01*
X169924335Y-49173260D01*
X169923833Y-49183598D01*
X169923539Y-49193512D01*
X169923463Y-49203009D01*
X169616072Y-49203009D01*
X169616575Y-49186022D01*
X169618231Y-49160268D01*
X169620809Y-49133700D01*
X169624313Y-49106323D01*
X169711626Y-48492490D01*
X169716432Y-48465113D01*
X169721920Y-48438545D01*
X169728090Y-48412792D01*
X169734942Y-48387856D01*
X169742477Y-48363742D01*
X169750693Y-48340453D01*
X169759592Y-48317994D01*
X169769173Y-48296368D01*
X169779435Y-48275579D01*
X169790380Y-48255631D01*
X169802008Y-48236528D01*
X169814317Y-48218274D01*
X169827308Y-48200873D01*
X169840982Y-48184328D01*
X169855337Y-48168643D01*
X169870375Y-48153823D01*
X169886032Y-48139871D01*
X169902244Y-48126792D01*
X169919006Y-48114588D01*
X169936314Y-48103264D01*
X169954165Y-48092823D01*
X169972555Y-48083270D01*
X169991480Y-48074609D01*
X170010935Y-48066842D01*
X170030918Y-48059975D01*
X170051424Y-48054011D01*
X170072449Y-48048954D01*
X170093990Y-48044807D01*
X170116042Y-48041576D01*
X170138602Y-48039262D01*
X170161666Y-48037872D01*
X170185230Y-48037407D01*
X170301645Y-48037407D01*
X170388958Y-47524116D01*
X170390757Y-47515341D01*
X170392187Y-47506876D01*
X170393254Y-47498722D01*
X170393960Y-47490877D01*
X170394310Y-47483343D01*
X170394306Y-47476119D01*
X170393954Y-47469204D01*
X170393257Y-47462600D01*
X170392219Y-47456306D01*
X170390844Y-47450322D01*
X170389136Y-47444648D01*
X170387098Y-47439284D01*
X170384734Y-47434230D01*
X170382049Y-47429486D01*
X170379046Y-47425052D01*
X170375729Y-47420928D01*
X170372193Y-47417084D01*
X170368525Y-47413487D01*
X170364718Y-47410139D01*
X170360763Y-47407038D01*
X170356654Y-47404186D01*
X170352381Y-47401581D01*
X170347938Y-47399225D01*
X170343317Y-47397116D01*
X170338510Y-47395256D01*
X170333509Y-47393644D01*
X170328307Y-47392279D01*
X170322895Y-47391163D01*
X170317266Y-47390295D01*
X170311412Y-47389675D01*
X170305326Y-47389303D01*
X170298999Y-47389179D01*
X170294535Y-47389303D01*
X170290075Y-47389675D01*
X170285622Y-47390295D01*
X170281181Y-47391163D01*
X170276756Y-47392279D01*
X170272350Y-47393643D01*
X170267967Y-47395256D01*
X170263612Y-47397116D01*
X170259287Y-47399224D01*
X170254997Y-47401581D01*
X170250746Y-47404185D01*
X170246538Y-47407038D01*
X170242376Y-47410138D01*
X170238264Y-47413487D01*
X170234207Y-47417084D01*
X170230208Y-47420928D01*
X170226302Y-47425052D01*
X170222524Y-47429486D01*
X170218878Y-47434229D01*
X170215367Y-47439283D01*
X170211996Y-47444647D01*
X170208768Y-47450321D01*
X170205687Y-47456305D01*
X170202758Y-47462600D01*
X170199983Y-47469204D01*
X170197368Y-47476118D01*
X170194915Y-47483343D01*
X170192629Y-47490877D01*
X170190514Y-47498722D01*
X170188573Y-47506876D01*
X170186810Y-47515341D01*
X170185230Y-47524116D01*
X170134959Y-47828387D01*
X169838625Y-47828387D01*
X169888896Y-47502950D01*
X169893702Y-47478052D01*
X169899190Y-47453955D01*
X169905360Y-47430658D01*
X169912213Y-47408154D01*
X169919747Y-47386442D01*
X169927963Y-47365516D01*
X169936862Y-47345373D01*
X169946443Y-47326009D01*
X169956706Y-47307420D01*
X169967651Y-47289603D01*
X169979278Y-47272553D01*
X169991587Y-47256266D01*
X170004579Y-47240740D01*
X170018252Y-47225969D01*
X170032608Y-47211949D01*
X170047646Y-47198678D01*
X170063211Y-47186183D01*
X170079153Y-47174494D01*
X170095474Y-47163611D01*
X170112179Y-47153534D01*
X170129272Y-47144263D01*
X170146756Y-47135799D01*
X170164635Y-47128140D01*
X170182914Y-47121288D01*
X170201596Y-47115242D01*
X170220684Y-47110002D01*
X170240184Y-47105568D01*
X170260098Y-47101940D01*
X170280431Y-47099118D01*
X170301186Y-47097103D01*
X170322368Y-47095894D01*
X170343979Y-47095491D01*
X170367856Y-47095925D01*
G37*
G36*
X169310408Y-46373707D02*
G01*
X169337064Y-46375298D01*
X169362960Y-46377958D01*
X169388089Y-46381695D01*
X169412443Y-46386518D01*
X169436014Y-46392433D01*
X169458794Y-46399450D01*
X169480776Y-46407575D01*
X169501952Y-46416816D01*
X169522314Y-46427181D01*
X169541854Y-46438677D01*
X169560565Y-46451314D01*
X169578438Y-46465097D01*
X169595467Y-46480035D01*
X169611643Y-46496136D01*
X169626958Y-46513408D01*
X169641687Y-46531640D01*
X169655122Y-46550620D01*
X169667270Y-46570352D01*
X169678139Y-46590840D01*
X169687736Y-46612087D01*
X169696070Y-46634098D01*
X169703149Y-46656877D01*
X169708979Y-46680426D01*
X169713569Y-46704751D01*
X169716927Y-46729855D01*
X169719060Y-46755741D01*
X169719976Y-46782415D01*
X169719683Y-46809879D01*
X169718188Y-46838138D01*
X169715499Y-46867195D01*
X169711625Y-46897054D01*
X169613729Y-47587616D01*
X169612295Y-47587361D01*
X169542292Y-48082386D01*
X169537361Y-48112246D01*
X169531497Y-48141303D01*
X169524694Y-48169561D01*
X169516950Y-48197025D01*
X169508260Y-48223699D01*
X169498620Y-48249586D01*
X169488027Y-48274689D01*
X169476477Y-48299014D01*
X169463965Y-48322564D01*
X169450489Y-48345342D01*
X169436043Y-48367353D01*
X169420625Y-48388600D01*
X169404230Y-48409088D01*
X169386855Y-48428820D01*
X169368495Y-48447800D01*
X169349146Y-48466032D01*
X169329055Y-48482868D01*
X169308467Y-48498645D01*
X169287383Y-48513361D01*
X169265803Y-48527011D01*
X169243727Y-48539591D01*
X169221154Y-48551097D01*
X169198086Y-48561526D01*
X169174522Y-48570874D01*
X169150461Y-48579136D01*
X169125905Y-48586309D01*
X169100852Y-48592390D01*
X169075303Y-48597373D01*
X169049258Y-48601256D01*
X169022717Y-48604034D01*
X168995680Y-48605704D01*
X168968147Y-48606262D01*
X168785584Y-48606262D01*
X168653293Y-49561407D01*
X168335792Y-49561407D01*
X168514279Y-48288762D01*
X168830563Y-48288762D01*
X169013125Y-48288762D01*
X169035326Y-48287986D01*
X169045962Y-48287014D01*
X169056290Y-48285651D01*
X169066310Y-48283898D01*
X169076022Y-48281751D01*
X169085427Y-48279211D01*
X169094526Y-48276277D01*
X169103318Y-48272948D01*
X169111804Y-48269222D01*
X169119986Y-48265099D01*
X169127862Y-48260578D01*
X169135434Y-48255658D01*
X169142703Y-48250337D01*
X169149668Y-48244615D01*
X169156331Y-48238491D01*
X169162691Y-48231965D01*
X169168749Y-48225034D01*
X169174506Y-48217698D01*
X169179963Y-48209956D01*
X169185118Y-48201807D01*
X169189974Y-48193250D01*
X169194531Y-48184284D01*
X169198788Y-48174909D01*
X169202748Y-48165122D01*
X169206409Y-48154924D01*
X169212839Y-48133288D01*
X169218084Y-48109994D01*
X169222147Y-48085033D01*
X169306813Y-47492366D01*
X169307157Y-47492439D01*
X169391479Y-46899700D01*
X169392773Y-46887243D01*
X169393679Y-46875175D01*
X169394196Y-46863495D01*
X169394321Y-46852204D01*
X169394056Y-46841302D01*
X169393398Y-46830791D01*
X169392346Y-46820670D01*
X169390901Y-46810940D01*
X169389059Y-46801602D01*
X169386822Y-46792655D01*
X169384187Y-46784101D01*
X169381154Y-46775940D01*
X169377722Y-46768172D01*
X169373890Y-46760798D01*
X169369656Y-46753818D01*
X169365021Y-46747234D01*
X169359982Y-46741044D01*
X169354540Y-46735251D01*
X169348692Y-46729853D01*
X169342438Y-46724853D01*
X169335778Y-46720249D01*
X169328709Y-46716044D01*
X169321232Y-46712237D01*
X169313344Y-46708828D01*
X169305046Y-46705818D01*
X169296336Y-46703209D01*
X169287214Y-46700999D01*
X169277677Y-46699190D01*
X169267726Y-46697782D01*
X169257359Y-46696776D01*
X169246576Y-46696172D01*
X169235375Y-46695971D01*
X169052813Y-46695971D01*
X168830563Y-48288762D01*
X168514279Y-48288762D01*
X168782938Y-46373179D01*
X169283000Y-46373179D01*
X169310408Y-46373707D01*
G37*
G36*
X175167397Y-47098541D02*
G01*
X175190417Y-47099755D01*
X175212592Y-47101782D01*
X175233934Y-47104628D01*
X175254454Y-47108295D01*
X175274164Y-47112788D01*
X175293076Y-47118110D01*
X175311201Y-47124265D01*
X175328550Y-47131258D01*
X175345136Y-47139091D01*
X175360971Y-47147770D01*
X175376065Y-47157297D01*
X175390430Y-47167677D01*
X175404078Y-47178913D01*
X175417021Y-47191010D01*
X175429270Y-47203971D01*
X175440650Y-47217272D01*
X175450980Y-47231375D01*
X175460263Y-47246277D01*
X175468504Y-47261973D01*
X175475706Y-47278460D01*
X175481873Y-47295733D01*
X175487009Y-47313790D01*
X175491117Y-47332625D01*
X175494203Y-47352236D01*
X175496270Y-47372617D01*
X175497320Y-47393767D01*
X175497360Y-47415679D01*
X175496391Y-47438352D01*
X175494419Y-47461780D01*
X175491447Y-47485960D01*
X175487479Y-47510887D01*
X175416041Y-47981846D01*
X175414470Y-47981832D01*
X175357832Y-48362847D01*
X174833958Y-48362847D01*
X174725479Y-49114263D01*
X174724370Y-49124030D01*
X174723525Y-49133486D01*
X174722944Y-49142633D01*
X174722626Y-49151470D01*
X174722572Y-49159996D01*
X174722781Y-49168213D01*
X174723254Y-49176119D01*
X174723991Y-49183716D01*
X174724991Y-49191002D01*
X174726254Y-49197978D01*
X174727781Y-49204645D01*
X174729572Y-49211001D01*
X174731626Y-49217047D01*
X174733944Y-49222783D01*
X174736525Y-49228209D01*
X174739370Y-49233325D01*
X174742478Y-49238131D01*
X174745850Y-49242627D01*
X174749485Y-49246813D01*
X174753384Y-49250688D01*
X174757547Y-49254254D01*
X174761973Y-49257510D01*
X174766663Y-49260455D01*
X174771616Y-49263091D01*
X174776832Y-49265416D01*
X174782313Y-49267431D01*
X174788057Y-49269137D01*
X174794064Y-49270532D01*
X174800335Y-49271617D01*
X174806869Y-49272392D01*
X174813667Y-49272857D01*
X174820729Y-49273012D01*
X174827822Y-49272857D01*
X174834714Y-49272392D01*
X174841407Y-49271617D01*
X174847901Y-49270532D01*
X174854197Y-49269137D01*
X174860297Y-49267432D01*
X174866201Y-49265416D01*
X174871910Y-49263091D01*
X174877425Y-49260455D01*
X174882748Y-49257510D01*
X174887878Y-49254254D01*
X174892818Y-49250689D01*
X174897568Y-49246813D01*
X174902129Y-49242627D01*
X174906502Y-49238131D01*
X174910688Y-49233325D01*
X174914688Y-49228209D01*
X174918502Y-49222783D01*
X174925581Y-49211001D01*
X174931930Y-49197979D01*
X174937559Y-49183716D01*
X174942475Y-49168213D01*
X174946685Y-49151470D01*
X174950198Y-49133487D01*
X174953021Y-49114263D01*
X175029749Y-48590389D01*
X175326083Y-48590389D01*
X175249354Y-49114263D01*
X175245043Y-49141640D01*
X175240041Y-49168208D01*
X175234343Y-49193961D01*
X175227939Y-49218897D01*
X175220821Y-49243011D01*
X175212983Y-49266300D01*
X175204417Y-49288759D01*
X175195114Y-49310385D01*
X175185066Y-49331174D01*
X175174267Y-49351122D01*
X175162709Y-49370225D01*
X175150383Y-49388479D01*
X175137281Y-49405880D01*
X175123397Y-49422425D01*
X175108722Y-49438110D01*
X175093249Y-49452930D01*
X175077126Y-49466882D01*
X175060507Y-49479961D01*
X175043392Y-49492165D01*
X175025781Y-49503489D01*
X175007673Y-49513930D01*
X174989070Y-49523483D01*
X174969970Y-49532144D01*
X174950374Y-49539911D01*
X174930283Y-49546778D01*
X174909695Y-49552742D01*
X174888611Y-49557799D01*
X174867031Y-49561946D01*
X174844954Y-49565177D01*
X174822382Y-49567491D01*
X174799314Y-49568881D01*
X174775750Y-49569346D01*
X174751873Y-49568912D01*
X174728853Y-49567609D01*
X174706678Y-49565439D01*
X174685336Y-49562400D01*
X174664816Y-49558494D01*
X174645106Y-49553719D01*
X174626195Y-49548076D01*
X174608070Y-49541565D01*
X174590720Y-49534185D01*
X174574134Y-49525938D01*
X174558300Y-49516822D01*
X174543206Y-49506838D01*
X174528840Y-49495986D01*
X174515192Y-49484266D01*
X174502249Y-49471677D01*
X174489999Y-49458221D01*
X174479055Y-49443928D01*
X174469045Y-49428832D01*
X174459972Y-49412939D01*
X174451841Y-49396250D01*
X174444656Y-49378771D01*
X174438421Y-49360506D01*
X174433139Y-49341457D01*
X174428814Y-49321630D01*
X174425451Y-49301027D01*
X174423052Y-49279653D01*
X174421623Y-49257511D01*
X174421166Y-49234607D01*
X174421686Y-49210942D01*
X174423187Y-49186522D01*
X174425672Y-49161350D01*
X174429145Y-49135430D01*
X174586519Y-48063867D01*
X174876292Y-48063867D01*
X175103833Y-48063867D01*
X175119710Y-47960679D01*
X175122635Y-47960783D01*
X175191145Y-47529409D01*
X175192945Y-47520634D01*
X175194375Y-47512169D01*
X175195442Y-47504015D01*
X175196148Y-47496170D01*
X175196498Y-47488636D01*
X175196495Y-47481411D01*
X175196143Y-47474497D01*
X175195446Y-47467893D01*
X175194408Y-47461599D01*
X175193033Y-47455615D01*
X175191324Y-47449941D01*
X175189286Y-47444577D01*
X175186923Y-47439523D01*
X175184238Y-47434779D01*
X175181235Y-47430345D01*
X175177918Y-47426221D01*
X175174382Y-47422377D01*
X175170714Y-47418780D01*
X175166906Y-47415431D01*
X175162952Y-47412331D01*
X175158842Y-47409478D01*
X175154570Y-47406874D01*
X175150127Y-47404518D01*
X175145506Y-47402409D01*
X175140698Y-47400549D01*
X175135697Y-47398936D01*
X175130495Y-47397572D01*
X175125083Y-47396456D01*
X175119454Y-47395588D01*
X175113600Y-47394968D01*
X175107514Y-47394595D01*
X175101187Y-47394471D01*
X175094327Y-47394603D01*
X175087637Y-47394999D01*
X175081117Y-47395657D01*
X175074766Y-47396580D01*
X175068583Y-47397766D01*
X175062568Y-47399215D01*
X175056721Y-47400928D01*
X175051041Y-47402905D01*
X175045528Y-47405145D01*
X175040181Y-47407649D01*
X175034999Y-47410416D01*
X175029983Y-47413447D01*
X175025132Y-47416741D01*
X175020444Y-47420299D01*
X175015921Y-47424121D01*
X175011560Y-47428206D01*
X175007363Y-47432554D01*
X175003328Y-47437166D01*
X174999454Y-47442042D01*
X174995742Y-47447181D01*
X174992191Y-47452584D01*
X174988800Y-47458250D01*
X174982497Y-47470374D01*
X174976830Y-47483551D01*
X174971795Y-47497783D01*
X174967388Y-47513069D01*
X174963604Y-47529409D01*
X174876292Y-48063867D01*
X174586519Y-48063867D01*
X174664624Y-47532054D01*
X174669430Y-47505698D01*
X174674923Y-47480202D01*
X174681106Y-47455559D01*
X174687982Y-47431760D01*
X174695556Y-47408799D01*
X174703831Y-47386667D01*
X174712812Y-47365357D01*
X174722502Y-47344861D01*
X174732905Y-47325171D01*
X174744025Y-47306279D01*
X174755866Y-47288178D01*
X174768432Y-47270860D01*
X174781726Y-47254317D01*
X174795753Y-47238542D01*
X174810516Y-47223526D01*
X174826020Y-47209262D01*
X174842143Y-47195806D01*
X174858762Y-47183217D01*
X174875877Y-47171497D01*
X174893489Y-47160645D01*
X174911596Y-47150661D01*
X174930200Y-47141545D01*
X174949299Y-47133298D01*
X174968895Y-47125918D01*
X174988987Y-47119407D01*
X175009575Y-47113764D01*
X175030659Y-47108989D01*
X175052239Y-47105083D01*
X175074315Y-47102044D01*
X175096888Y-47099874D01*
X175119956Y-47098571D01*
X175143521Y-47098137D01*
X175167397Y-47098541D01*
G37*
G36*
X178204751Y-49577283D02*
G01*
X175635645Y-49577283D01*
X175659459Y-49410595D01*
X178225916Y-49410595D01*
X178204751Y-49577283D01*
G37*
G36*
X178256457Y-47511166D02*
G01*
X178270689Y-47512008D01*
X178284487Y-47513415D01*
X178297850Y-47515393D01*
X178310780Y-47517944D01*
X178323275Y-47521072D01*
X178335336Y-47524782D01*
X178346963Y-47529077D01*
X178358157Y-47533961D01*
X178368916Y-47539438D01*
X178379241Y-47545512D01*
X178389131Y-47552187D01*
X178398588Y-47559466D01*
X178407611Y-47567354D01*
X178416200Y-47575854D01*
X178424355Y-47584970D01*
X178431952Y-47594582D01*
X178438870Y-47604571D01*
X178445115Y-47614939D01*
X178450688Y-47625691D01*
X178455596Y-47636831D01*
X178459840Y-47648362D01*
X178463426Y-47660288D01*
X178466356Y-47672613D01*
X178468636Y-47685342D01*
X178470268Y-47698477D01*
X178471257Y-47712024D01*
X178471606Y-47725985D01*
X178471320Y-47740365D01*
X178470402Y-47755167D01*
X178468857Y-47770395D01*
X178466687Y-47786054D01*
X178460480Y-47822264D01*
X178453747Y-47857450D01*
X178446456Y-47891582D01*
X178438575Y-47924629D01*
X178430075Y-47956560D01*
X178420923Y-47987344D01*
X178411089Y-48016949D01*
X178400542Y-48045346D01*
X178389498Y-48073747D01*
X178378176Y-48101404D01*
X178366543Y-48128317D01*
X178354570Y-48154486D01*
X178342224Y-48179910D01*
X178329475Y-48204591D01*
X178316293Y-48228527D01*
X178302645Y-48251720D01*
X178288749Y-48275289D01*
X178274822Y-48298394D01*
X178260833Y-48321064D01*
X178246752Y-48343332D01*
X178232546Y-48365227D01*
X178218185Y-48386781D01*
X178203638Y-48408025D01*
X178188874Y-48428991D01*
X178174110Y-48449950D01*
X178159563Y-48471158D01*
X178145202Y-48492614D01*
X178130996Y-48514318D01*
X178102925Y-48558471D01*
X178075102Y-48603615D01*
X178049430Y-48649834D01*
X178036826Y-48673471D01*
X178024501Y-48697542D01*
X178012548Y-48722109D01*
X178001061Y-48747235D01*
X177990131Y-48772980D01*
X177979853Y-48799407D01*
X177969311Y-48826574D01*
X177959513Y-48854515D01*
X177950459Y-48883263D01*
X177942150Y-48912847D01*
X177934584Y-48943300D01*
X177927763Y-48974652D01*
X177921686Y-49006934D01*
X177916354Y-49040178D01*
X178278834Y-49040178D01*
X178257666Y-49209511D01*
X177725853Y-49206866D01*
X177747019Y-49040178D01*
X177753226Y-49003095D01*
X177759959Y-48967252D01*
X177767251Y-48932650D01*
X177775132Y-48899287D01*
X177783633Y-48867165D01*
X177792785Y-48836283D01*
X177802619Y-48806642D01*
X177813166Y-48778241D01*
X177824209Y-48750707D01*
X177835532Y-48723670D01*
X177847164Y-48697129D01*
X177859138Y-48671084D01*
X177871483Y-48645535D01*
X177884232Y-48620482D01*
X177897415Y-48595926D01*
X177911063Y-48571865D01*
X177924958Y-48548296D01*
X177938885Y-48525191D01*
X177952874Y-48502521D01*
X177966956Y-48480254D01*
X177981162Y-48458358D01*
X177995523Y-48436804D01*
X178010070Y-48415560D01*
X178024834Y-48394595D01*
X178039598Y-48373635D01*
X178054144Y-48352427D01*
X178068505Y-48330971D01*
X178082711Y-48309267D01*
X178110782Y-48265114D01*
X178138604Y-48219970D01*
X178164276Y-48173792D01*
X178176880Y-48150253D01*
X178189205Y-48126374D01*
X178201158Y-48102122D01*
X178212646Y-48077467D01*
X178223576Y-48052378D01*
X178233855Y-48026824D01*
X178244397Y-48000418D01*
X178254195Y-47972833D01*
X178263249Y-47944132D01*
X178271558Y-47914377D01*
X178279124Y-47883629D01*
X178285945Y-47851952D01*
X178292022Y-47819406D01*
X178297354Y-47786054D01*
X178298875Y-47773093D01*
X178299289Y-47766937D01*
X178299473Y-47760996D01*
X178299429Y-47755270D01*
X178299157Y-47749759D01*
X178298658Y-47744463D01*
X178297933Y-47739380D01*
X178296984Y-47734510D01*
X178295811Y-47729852D01*
X178294415Y-47725407D01*
X178292797Y-47721174D01*
X178290958Y-47717152D01*
X178288899Y-47713340D01*
X178286621Y-47709739D01*
X178284126Y-47706348D01*
X178281413Y-47703166D01*
X178278484Y-47700192D01*
X178275340Y-47697427D01*
X178271982Y-47694870D01*
X178268410Y-47692521D01*
X178264627Y-47690378D01*
X178260632Y-47688441D01*
X178256427Y-47686711D01*
X178252013Y-47685185D01*
X178247390Y-47683865D01*
X178242560Y-47682749D01*
X178237524Y-47681837D01*
X178232282Y-47681129D01*
X178226836Y-47680624D01*
X178215334Y-47680220D01*
X178209459Y-47680321D01*
X178203738Y-47680624D01*
X178198173Y-47681129D01*
X178192762Y-47681837D01*
X178187507Y-47682749D01*
X178182406Y-47683865D01*
X178177461Y-47685185D01*
X178172671Y-47686711D01*
X178168035Y-47688441D01*
X178163555Y-47690378D01*
X178159229Y-47692521D01*
X178155059Y-47694870D01*
X178151044Y-47697427D01*
X178147184Y-47700192D01*
X178143478Y-47703166D01*
X178139928Y-47706348D01*
X178136533Y-47709739D01*
X178133293Y-47713340D01*
X178130208Y-47717152D01*
X178127278Y-47721174D01*
X178124502Y-47725407D01*
X178121882Y-47729852D01*
X178119417Y-47734510D01*
X178117107Y-47739380D01*
X178114952Y-47744463D01*
X178112952Y-47749759D01*
X178111108Y-47755270D01*
X178109418Y-47760996D01*
X178107883Y-47766937D01*
X178106503Y-47773093D01*
X178104208Y-47786054D01*
X178061875Y-48069158D01*
X177892542Y-48069158D01*
X177934876Y-47783408D01*
X177937605Y-47767749D01*
X177940829Y-47752525D01*
X177944550Y-47737736D01*
X177948767Y-47723380D01*
X177953480Y-47709458D01*
X177958688Y-47695971D01*
X177964394Y-47682917D01*
X177970595Y-47670298D01*
X177977292Y-47658112D01*
X177984485Y-47646361D01*
X177992175Y-47635044D01*
X178000360Y-47624161D01*
X178009042Y-47613712D01*
X178018220Y-47603697D01*
X178027894Y-47594116D01*
X178038064Y-47584970D01*
X178048636Y-47575854D01*
X178059515Y-47567354D01*
X178070695Y-47559466D01*
X178082175Y-47552187D01*
X178093948Y-47545512D01*
X178106013Y-47539438D01*
X178118364Y-47533961D01*
X178130998Y-47529077D01*
X178143911Y-47524782D01*
X178157100Y-47521072D01*
X178170559Y-47517944D01*
X178184286Y-47515393D01*
X178198277Y-47513415D01*
X178212527Y-47512008D01*
X178227033Y-47511166D01*
X178241791Y-47510886D01*
X178256457Y-47511166D01*
G37*
G36*
X177528853Y-47508986D02*
G01*
X177543085Y-47510230D01*
X177556883Y-47511979D01*
X177570246Y-47514235D01*
X177583176Y-47517003D01*
X177595671Y-47520287D01*
X177607732Y-47524090D01*
X177619360Y-47528416D01*
X177630553Y-47533269D01*
X177641312Y-47538653D01*
X177651637Y-47544572D01*
X177661528Y-47551029D01*
X177670984Y-47558029D01*
X177680007Y-47565576D01*
X177688596Y-47573673D01*
X177696751Y-47582324D01*
X177704378Y-47591471D01*
X177711380Y-47601047D01*
X177717755Y-47611050D01*
X177723498Y-47621475D01*
X177728606Y-47632318D01*
X177733074Y-47643577D01*
X177736899Y-47655246D01*
X177740076Y-47667322D01*
X177742603Y-47679801D01*
X177744474Y-47692680D01*
X177745686Y-47705954D01*
X177746236Y-47719619D01*
X177746119Y-47733672D01*
X177745332Y-47748108D01*
X177743870Y-47762924D01*
X177741730Y-47778117D01*
X177635895Y-48487200D01*
X177633907Y-48487045D01*
X177567105Y-48942284D01*
X177564347Y-48957476D01*
X177561038Y-48972292D01*
X177557187Y-48986729D01*
X177552801Y-49000782D01*
X177547888Y-49014447D01*
X177542455Y-49027721D01*
X177536511Y-49040599D01*
X177530063Y-49053078D01*
X177523119Y-49065154D01*
X177515687Y-49076823D01*
X177507774Y-49088082D01*
X177499388Y-49098925D01*
X177490538Y-49109350D01*
X177481229Y-49119353D01*
X177471471Y-49128929D01*
X177461272Y-49138075D01*
X177450699Y-49146726D01*
X177439821Y-49154819D01*
X177428640Y-49162353D01*
X177417161Y-49169329D01*
X177405387Y-49175748D01*
X177393323Y-49181608D01*
X177380971Y-49186910D01*
X177368337Y-49191654D01*
X177355424Y-49195839D01*
X177342236Y-49199467D01*
X177328776Y-49202537D01*
X177315049Y-49205048D01*
X177301058Y-49207002D01*
X177286808Y-49208397D01*
X177272302Y-49209234D01*
X177257544Y-49209513D01*
X177242878Y-49208768D01*
X177228646Y-49207524D01*
X177214848Y-49205775D01*
X177201485Y-49203519D01*
X177188555Y-49200751D01*
X177176060Y-49197468D01*
X177163998Y-49193665D01*
X177152371Y-49189339D01*
X177141178Y-49184486D01*
X177130419Y-49179102D01*
X177120094Y-49173183D01*
X177110203Y-49166726D01*
X177100746Y-49159725D01*
X177091724Y-49152179D01*
X177083135Y-49144082D01*
X177074980Y-49135431D01*
X177067383Y-49126284D01*
X177060464Y-49116708D01*
X177054220Y-49106705D01*
X177048646Y-49096280D01*
X177043738Y-49085437D01*
X177039493Y-49074178D01*
X177035907Y-49062509D01*
X177032977Y-49050433D01*
X177030697Y-49037954D01*
X177029065Y-49025075D01*
X177028076Y-49011801D01*
X177027726Y-48998136D01*
X177028012Y-48984083D01*
X177028931Y-48969647D01*
X177029314Y-48965973D01*
X177198252Y-48965973D01*
X177198352Y-48971554D01*
X177198714Y-48976887D01*
X177199333Y-48981972D01*
X177200200Y-48986809D01*
X177201307Y-48991398D01*
X177202647Y-48995739D01*
X177204211Y-48999831D01*
X177205993Y-49003676D01*
X177207984Y-49007273D01*
X177210177Y-49010621D01*
X177212563Y-49013722D01*
X177215603Y-49017071D01*
X177218775Y-49020176D01*
X177222086Y-49023041D01*
X177225545Y-49025670D01*
X177229158Y-49028066D01*
X177232934Y-49030233D01*
X177236881Y-49032175D01*
X177241006Y-49033897D01*
X177245317Y-49035401D01*
X177249822Y-49036692D01*
X177254528Y-49037774D01*
X177259444Y-49038651D01*
X177264577Y-49039326D01*
X177269934Y-49039803D01*
X177275525Y-49040087D01*
X177281355Y-49040181D01*
X177292981Y-49039777D01*
X177298582Y-49039274D01*
X177304041Y-49038568D01*
X177309357Y-49037661D01*
X177314528Y-49036553D01*
X177319553Y-49035243D01*
X177324433Y-49033731D01*
X177329165Y-49032018D01*
X177333749Y-49030104D01*
X177338183Y-49027987D01*
X177342468Y-49025670D01*
X177346601Y-49023150D01*
X177350582Y-49020430D01*
X177354410Y-49017507D01*
X177358084Y-49014383D01*
X177361603Y-49011058D01*
X177364966Y-49007531D01*
X177368172Y-49003803D01*
X177371220Y-48999873D01*
X177374109Y-48995741D01*
X177376839Y-48991408D01*
X177379407Y-48986874D01*
X177381814Y-48982137D01*
X177384058Y-48977200D01*
X177386138Y-48972060D01*
X177388053Y-48966720D01*
X177389803Y-48961177D01*
X177391386Y-48955434D01*
X177392801Y-48949488D01*
X177395125Y-48936993D01*
X177469208Y-48452805D01*
X177469713Y-48452813D01*
X177569750Y-47780764D01*
X177570626Y-47774416D01*
X177571271Y-47768269D01*
X177571685Y-47762323D01*
X177571869Y-47756579D01*
X177571825Y-47751037D01*
X177571553Y-47745696D01*
X177571054Y-47740557D01*
X177570329Y-47735620D01*
X177569380Y-47730883D01*
X177568207Y-47726349D01*
X177566811Y-47722016D01*
X177565193Y-47717884D01*
X177563354Y-47713954D01*
X177561295Y-47710226D01*
X177559017Y-47706699D01*
X177556522Y-47703373D01*
X177553809Y-47700250D01*
X177550880Y-47697327D01*
X177547736Y-47694606D01*
X177544378Y-47692087D01*
X177540807Y-47689770D01*
X177537023Y-47687653D01*
X177533028Y-47685739D01*
X177528823Y-47684026D01*
X177524409Y-47682514D01*
X177519786Y-47681204D01*
X177514957Y-47680096D01*
X177509920Y-47679189D01*
X177504678Y-47678483D01*
X177499232Y-47677979D01*
X177493583Y-47677677D01*
X177487731Y-47677576D01*
X177481855Y-47677677D01*
X177476134Y-47677979D01*
X177470569Y-47678483D01*
X177465158Y-47679189D01*
X177459903Y-47680096D01*
X177454802Y-47681204D01*
X177449857Y-47682514D01*
X177445067Y-47684026D01*
X177440431Y-47685739D01*
X177435951Y-47687653D01*
X177431626Y-47689770D01*
X177427455Y-47692087D01*
X177423440Y-47694606D01*
X177419580Y-47697327D01*
X177415874Y-47700250D01*
X177412324Y-47703373D01*
X177408929Y-47706699D01*
X177405689Y-47710226D01*
X177402604Y-47713954D01*
X177399674Y-47717884D01*
X177396899Y-47722016D01*
X177394278Y-47726349D01*
X177391813Y-47730883D01*
X177389503Y-47735620D01*
X177387349Y-47740557D01*
X177385349Y-47745696D01*
X177383504Y-47751037D01*
X177381814Y-47756579D01*
X177378899Y-47768269D01*
X177376605Y-47780764D01*
X177201979Y-48934347D01*
X177200645Y-48941169D01*
X177199613Y-48947742D01*
X177198875Y-48954067D01*
X177198424Y-48960144D01*
X177198252Y-48965973D01*
X177029314Y-48965973D01*
X177030477Y-48954831D01*
X177032647Y-48939638D01*
X177207272Y-47775471D01*
X177210001Y-47760279D01*
X177213225Y-47745463D01*
X177216946Y-47731026D01*
X177221163Y-47716973D01*
X177225876Y-47703308D01*
X177231085Y-47690034D01*
X177236790Y-47677156D01*
X177242991Y-47664677D01*
X177249688Y-47652601D01*
X177256881Y-47640931D01*
X177264571Y-47629673D01*
X177272756Y-47618829D01*
X177281438Y-47608404D01*
X177290616Y-47598401D01*
X177300290Y-47588825D01*
X177310460Y-47579679D01*
X177321468Y-47571028D01*
X177332670Y-47562936D01*
X177344073Y-47555401D01*
X177355686Y-47548425D01*
X177367516Y-47542007D01*
X177379570Y-47536147D01*
X177391857Y-47530845D01*
X177404385Y-47526101D01*
X177417160Y-47521915D01*
X177430192Y-47518287D01*
X177443487Y-47515217D01*
X177457053Y-47512706D01*
X177470899Y-47510753D01*
X177485031Y-47509357D01*
X177499458Y-47508520D01*
X177514187Y-47508241D01*
X177528853Y-47508986D01*
G37*
G36*
X176803895Y-47505874D02*
G01*
X176818127Y-47506716D01*
X176831925Y-47508124D01*
X176845288Y-47510101D01*
X176858218Y-47512652D01*
X176870713Y-47515780D01*
X176882775Y-47519490D01*
X176894402Y-47523785D01*
X176905595Y-47528669D01*
X176916354Y-47534146D01*
X176926679Y-47540220D01*
X176936570Y-47546895D01*
X176946027Y-47554174D01*
X176955049Y-47562062D01*
X176963638Y-47570562D01*
X176971793Y-47579678D01*
X176979390Y-47589291D01*
X176986308Y-47599279D01*
X176992552Y-47609648D01*
X176998126Y-47620400D01*
X177003034Y-47631539D01*
X177007278Y-47643070D01*
X177010864Y-47654997D01*
X177013795Y-47667322D01*
X177016074Y-47680051D01*
X177017707Y-47693186D01*
X177018696Y-47706733D01*
X177019045Y-47720694D01*
X177018759Y-47735073D01*
X177017841Y-47749875D01*
X177016295Y-47765103D01*
X177014124Y-47780762D01*
X177007919Y-47816972D01*
X177001186Y-47852158D01*
X176993894Y-47886290D01*
X176986014Y-47919337D01*
X176977513Y-47951268D01*
X176968361Y-47982052D01*
X176958527Y-48011657D01*
X176947979Y-48040054D01*
X176936936Y-48068455D01*
X176925614Y-48096112D01*
X176913981Y-48123025D01*
X176902007Y-48149194D01*
X176889662Y-48174619D01*
X176876913Y-48199299D01*
X176863730Y-48223236D01*
X176850083Y-48246428D01*
X176836187Y-48269998D01*
X176822261Y-48293102D01*
X176808272Y-48315773D01*
X176794190Y-48338040D01*
X176779984Y-48359935D01*
X176765623Y-48381489D01*
X176751076Y-48402733D01*
X176736311Y-48423699D01*
X176721547Y-48444659D01*
X176707000Y-48465866D01*
X176692640Y-48487322D01*
X176678434Y-48509026D01*
X176650364Y-48553179D01*
X176622542Y-48598323D01*
X176608899Y-48621278D01*
X176595752Y-48644543D01*
X176583102Y-48668179D01*
X176570947Y-48692250D01*
X176559289Y-48716817D01*
X176548127Y-48741943D01*
X176537461Y-48767688D01*
X176527291Y-48794115D01*
X176516749Y-48821282D01*
X176506951Y-48849223D01*
X176497897Y-48877971D01*
X176489587Y-48907556D01*
X176482022Y-48938008D01*
X176475201Y-48969361D01*
X176469124Y-49001643D01*
X176463791Y-49034887D01*
X176826272Y-49034887D01*
X176805104Y-49204219D01*
X176273291Y-49201574D01*
X176294459Y-49034887D01*
X176300665Y-48997804D01*
X176307398Y-48961961D01*
X176314689Y-48927358D01*
X176322570Y-48893996D01*
X176331070Y-48861873D01*
X176340222Y-48830992D01*
X176350057Y-48801350D01*
X176360604Y-48772949D01*
X176371647Y-48745415D01*
X176382970Y-48718378D01*
X176394602Y-48691837D01*
X176406576Y-48665792D01*
X176418922Y-48640243D01*
X176431670Y-48615190D01*
X176444853Y-48590634D01*
X176458500Y-48566573D01*
X176472396Y-48543004D01*
X176486323Y-48519899D01*
X176500312Y-48497229D01*
X176514394Y-48474962D01*
X176528600Y-48453066D01*
X176542961Y-48431512D01*
X176557508Y-48410268D01*
X176572272Y-48389304D01*
X176587036Y-48368344D01*
X176601583Y-48347136D01*
X176615944Y-48325680D01*
X176630150Y-48303975D01*
X176658220Y-48259823D01*
X176686043Y-48214678D01*
X176711716Y-48168500D01*
X176724320Y-48144961D01*
X176736645Y-48121082D01*
X176748598Y-48096830D01*
X176760085Y-48072175D01*
X176771014Y-48047086D01*
X176781292Y-48021532D01*
X176791835Y-47995126D01*
X176801632Y-47967541D01*
X176810686Y-47938840D01*
X176818996Y-47909085D01*
X176826561Y-47878338D01*
X176833383Y-47846660D01*
X176839459Y-47814114D01*
X176844792Y-47780762D01*
X176846313Y-47767801D01*
X176846727Y-47761645D01*
X176846911Y-47755704D01*
X176846866Y-47749978D01*
X176846594Y-47744468D01*
X176846096Y-47739171D01*
X176845371Y-47734088D01*
X176844422Y-47729218D01*
X176843248Y-47724560D01*
X176841852Y-47720115D01*
X176840234Y-47715882D01*
X176838396Y-47711860D01*
X176836337Y-47708048D01*
X176834059Y-47704447D01*
X176831563Y-47701056D01*
X176828850Y-47697874D01*
X176825922Y-47694900D01*
X176822778Y-47692136D01*
X176819419Y-47689578D01*
X176815848Y-47687229D01*
X176812065Y-47685086D01*
X176808070Y-47683149D01*
X176803865Y-47681419D01*
X176799451Y-47679893D01*
X176794828Y-47678573D01*
X176789998Y-47677457D01*
X176784962Y-47676545D01*
X176779720Y-47675837D01*
X176774274Y-47675332D01*
X176762772Y-47674928D01*
X176756897Y-47675029D01*
X176751176Y-47675332D01*
X176745610Y-47675837D01*
X176740200Y-47676545D01*
X176734945Y-47677457D01*
X176729844Y-47678573D01*
X176724899Y-47679893D01*
X176720108Y-47681419D01*
X176715473Y-47683149D01*
X176710993Y-47685086D01*
X176706667Y-47687229D01*
X176702497Y-47689578D01*
X176698482Y-47692136D01*
X176694621Y-47694900D01*
X176690916Y-47697874D01*
X176687366Y-47701056D01*
X176683971Y-47704447D01*
X176680731Y-47708048D01*
X176677646Y-47711860D01*
X176674716Y-47715882D01*
X176671941Y-47720115D01*
X176669321Y-47724560D01*
X176666856Y-47729218D01*
X176664546Y-47734088D01*
X176662391Y-47739171D01*
X176660391Y-47744468D01*
X176658546Y-47749978D01*
X176656857Y-47755704D01*
X176655322Y-47761645D01*
X176653942Y-47767801D01*
X176651648Y-47780762D01*
X176609313Y-48063866D01*
X176439980Y-48063866D01*
X176482314Y-47778116D01*
X176485043Y-47762458D01*
X176488267Y-47747234D01*
X176491988Y-47732444D01*
X176496205Y-47718088D01*
X176500918Y-47704167D01*
X176506127Y-47690679D01*
X176511833Y-47677626D01*
X176518034Y-47665006D01*
X176524731Y-47652821D01*
X176531924Y-47641070D01*
X176539614Y-47629753D01*
X176547799Y-47618870D01*
X176556480Y-47608421D01*
X176565658Y-47598406D01*
X176575332Y-47588825D01*
X176585501Y-47579678D01*
X176596074Y-47570562D01*
X176606952Y-47562062D01*
X176618133Y-47554174D01*
X176629613Y-47546895D01*
X176641386Y-47540220D01*
X176653451Y-47534146D01*
X176665802Y-47528669D01*
X176678437Y-47523785D01*
X176691350Y-47519490D01*
X176704538Y-47515780D01*
X176717998Y-47512652D01*
X176731725Y-47510101D01*
X176745715Y-47508124D01*
X176759965Y-47506716D01*
X176774471Y-47505874D01*
X176789229Y-47505595D01*
X176803895Y-47505874D01*
G37*
G36*
X176013999Y-49029595D02*
G01*
X176146290Y-49029595D01*
X176125123Y-49198927D01*
X175691208Y-49201574D01*
X175712376Y-49032241D01*
X175844668Y-49032241D01*
X176021937Y-47809866D01*
X176008708Y-47809866D01*
X176006662Y-47811820D01*
X176004501Y-47813711D01*
X176002231Y-47815540D01*
X175999861Y-47817308D01*
X175997397Y-47819013D01*
X175994848Y-47820656D01*
X175992222Y-47822238D01*
X175989526Y-47823757D01*
X175986767Y-47825214D01*
X175983955Y-47826609D01*
X175981096Y-47827942D01*
X175978198Y-47829214D01*
X175975269Y-47830423D01*
X175972317Y-47831570D01*
X175969349Y-47832655D01*
X175966374Y-47833679D01*
X175960416Y-47835772D01*
X175954426Y-47838020D01*
X175942230Y-47842609D01*
X175935961Y-47844764D01*
X175932771Y-47845765D01*
X175929538Y-47846701D01*
X175926258Y-47847560D01*
X175922928Y-47848329D01*
X175919544Y-47848998D01*
X175916102Y-47849554D01*
X175912567Y-47850516D01*
X175908909Y-47851415D01*
X175905126Y-47852252D01*
X175901219Y-47853027D01*
X175893034Y-47854391D01*
X175884352Y-47855507D01*
X175875175Y-47856375D01*
X175865501Y-47856995D01*
X175855331Y-47857367D01*
X175844666Y-47857491D01*
X175863186Y-47735783D01*
X175873543Y-47735535D01*
X175883780Y-47734791D01*
X175893900Y-47733550D01*
X175903908Y-47731814D01*
X175913807Y-47729582D01*
X175923601Y-47726853D01*
X175933295Y-47723629D01*
X175942892Y-47719908D01*
X175952396Y-47715691D01*
X175961811Y-47710978D01*
X175971140Y-47705769D01*
X175980388Y-47700064D01*
X175989559Y-47693863D01*
X175998656Y-47687165D01*
X176007683Y-47679972D01*
X176016644Y-47672283D01*
X176025356Y-47664190D01*
X176033631Y-47655788D01*
X176041463Y-47647075D01*
X176048850Y-47638052D01*
X176055787Y-47628720D01*
X176062270Y-47619077D01*
X176068296Y-47609124D01*
X176073861Y-47598861D01*
X176078961Y-47588288D01*
X176083592Y-47577405D01*
X176087750Y-47566212D01*
X176091431Y-47554708D01*
X176094632Y-47542895D01*
X176097348Y-47530772D01*
X176099576Y-47518338D01*
X176101311Y-47505595D01*
X176233603Y-47505595D01*
X176013999Y-49029595D01*
G37*
G36*
X174175146Y-47103429D02*
G01*
X174471479Y-47103429D01*
X174431792Y-47399762D01*
X174135458Y-47399762D01*
X173899979Y-49106324D01*
X173897158Y-49125548D01*
X173895644Y-49143532D01*
X173895377Y-49152058D01*
X173895439Y-49160275D01*
X173895829Y-49168181D01*
X173896548Y-49175778D01*
X173897597Y-49183064D01*
X173898975Y-49190041D01*
X173900684Y-49196707D01*
X173902724Y-49203063D01*
X173905095Y-49209109D01*
X173907798Y-49214845D01*
X173910833Y-49220271D01*
X173914201Y-49225387D01*
X173917902Y-49230193D01*
X173921938Y-49234689D01*
X173926307Y-49238874D01*
X173931011Y-49242750D01*
X173936051Y-49246316D01*
X173941426Y-49249571D01*
X173947138Y-49252517D01*
X173953186Y-49255152D01*
X173959571Y-49257478D01*
X173966294Y-49259493D01*
X173973355Y-49261198D01*
X173980755Y-49262594D01*
X173988494Y-49263679D01*
X173996573Y-49264454D01*
X174004991Y-49264919D01*
X174013751Y-49265074D01*
X174172500Y-49265074D01*
X174132812Y-49561407D01*
X173974062Y-49561407D01*
X173948699Y-49560943D01*
X173924200Y-49559552D01*
X173900561Y-49557239D01*
X173877779Y-49554007D01*
X173855849Y-49549861D01*
X173834768Y-49544804D01*
X173814532Y-49538840D01*
X173795137Y-49531972D01*
X173776580Y-49524206D01*
X173758855Y-49515544D01*
X173741960Y-49505991D01*
X173725891Y-49495551D01*
X173710643Y-49484227D01*
X173696213Y-49472023D01*
X173682597Y-49458943D01*
X173669791Y-49444991D01*
X173657916Y-49430171D01*
X173647095Y-49414487D01*
X173637328Y-49397942D01*
X173628615Y-49380540D01*
X173620957Y-49362286D01*
X173614353Y-49343183D01*
X173608803Y-49323236D01*
X173604307Y-49302447D01*
X173600865Y-49280821D01*
X173598477Y-49258362D01*
X173597144Y-49235073D01*
X173596865Y-49210959D01*
X173597640Y-49186023D01*
X173599469Y-49160270D01*
X173602353Y-49133702D01*
X173606290Y-49106324D01*
X173844416Y-47399762D01*
X173656562Y-47399762D01*
X173696250Y-47103429D01*
X173878812Y-47103429D01*
X174066666Y-46603367D01*
X174249228Y-46603367D01*
X174175146Y-47103429D01*
G37*
G36*
X176206284Y-40246643D02*
G01*
X176356864Y-40258098D01*
X176505244Y-40276962D01*
X176651238Y-40303048D01*
X176794661Y-40336168D01*
X176935326Y-40376135D01*
X177073049Y-40422763D01*
X177207643Y-40475864D01*
X177338924Y-40535252D01*
X177466706Y-40600739D01*
X177590802Y-40672139D01*
X177711029Y-40749263D01*
X177827199Y-40831927D01*
X177939128Y-40919942D01*
X178046630Y-41013121D01*
X178149519Y-41111278D01*
X178247610Y-41214225D01*
X178340717Y-41321775D01*
X178428655Y-41433742D01*
X178511238Y-41549938D01*
X178588281Y-41670177D01*
X178659598Y-41794271D01*
X178725004Y-41922033D01*
X178784312Y-42053277D01*
X178837338Y-42187815D01*
X178883896Y-42325460D01*
X178923800Y-42466026D01*
X178956865Y-42609326D01*
X178982905Y-42755171D01*
X179001735Y-42903376D01*
X179013169Y-43053753D01*
X179017022Y-43206116D01*
X179013162Y-43358711D01*
X179001706Y-43509292D01*
X178982842Y-43657672D01*
X178956757Y-43803666D01*
X178923637Y-43947089D01*
X178883669Y-44087754D01*
X178837041Y-44225477D01*
X178783940Y-44360071D01*
X178724553Y-44491352D01*
X178659065Y-44619134D01*
X178587666Y-44743230D01*
X178510541Y-44863457D01*
X178427877Y-44979627D01*
X178339863Y-45091556D01*
X178246683Y-45199057D01*
X178148527Y-45301947D01*
X178045580Y-45400038D01*
X177938029Y-45493145D01*
X177826062Y-45581083D01*
X177709866Y-45663666D01*
X177589627Y-45740709D01*
X177465533Y-45812026D01*
X177337771Y-45877431D01*
X177206527Y-45936740D01*
X177071989Y-45989766D01*
X176934344Y-46036324D01*
X176793778Y-46076228D01*
X176650479Y-46109293D01*
X176504633Y-46135333D01*
X176356428Y-46154163D01*
X176206051Y-46165597D01*
X176053689Y-46169449D01*
X176053689Y-45534449D01*
X176173269Y-45531412D01*
X176291307Y-45522399D01*
X176407653Y-45507557D01*
X176522161Y-45487036D01*
X176634683Y-45460982D01*
X176745071Y-45429543D01*
X176853177Y-45392866D01*
X176958853Y-45351101D01*
X177061952Y-45304394D01*
X177162326Y-45252893D01*
X177259827Y-45196746D01*
X177354308Y-45136101D01*
X177445620Y-45071106D01*
X177533615Y-45001907D01*
X177618147Y-44928654D01*
X177699067Y-44851493D01*
X177776228Y-44770573D01*
X177849481Y-44686042D01*
X177918680Y-44598046D01*
X177983675Y-44506734D01*
X178044320Y-44412254D01*
X178100467Y-44314753D01*
X178151968Y-44214379D01*
X178198675Y-44111280D01*
X178240441Y-44005604D01*
X178277117Y-43897498D01*
X178308556Y-43787110D01*
X178334610Y-43674589D01*
X178355132Y-43560081D01*
X178369973Y-43443734D01*
X178378986Y-43325696D01*
X178382023Y-43206116D01*
X178378986Y-43086536D01*
X178369973Y-42968498D01*
X178355132Y-42852152D01*
X178334610Y-42737643D01*
X178308556Y-42625122D01*
X178277117Y-42514734D01*
X178240441Y-42406628D01*
X178198675Y-42300952D01*
X178151968Y-42197853D01*
X178100467Y-42097479D01*
X178044320Y-41999978D01*
X177983675Y-41905498D01*
X177918679Y-41814186D01*
X177849481Y-41726191D01*
X177776227Y-41641659D01*
X177699066Y-41560739D01*
X177618146Y-41483578D01*
X177533614Y-41410325D01*
X177445619Y-41341126D01*
X177354307Y-41276131D01*
X177259826Y-41215486D01*
X177162325Y-41159339D01*
X177061952Y-41107838D01*
X176958853Y-41061131D01*
X176853176Y-41019366D01*
X176745070Y-40982689D01*
X176634683Y-40951250D01*
X176522161Y-40925196D01*
X176407653Y-40904675D01*
X176291306Y-40889833D01*
X176173269Y-40880820D01*
X176053689Y-40877783D01*
X175934108Y-40880820D01*
X175816071Y-40889833D01*
X175699724Y-40904675D01*
X175585216Y-40925196D01*
X175472694Y-40951250D01*
X175362306Y-40982689D01*
X175254201Y-41019366D01*
X175148524Y-41061131D01*
X175045425Y-41107838D01*
X174945052Y-41159339D01*
X174847551Y-41215486D01*
X174753071Y-41276131D01*
X174661759Y-41341126D01*
X174573763Y-41410325D01*
X174489231Y-41483578D01*
X174408311Y-41560739D01*
X174331151Y-41641659D01*
X174257897Y-41726190D01*
X174188699Y-41814186D01*
X174123703Y-41905498D01*
X174063058Y-41999978D01*
X174006911Y-42097479D01*
X173955411Y-42197853D01*
X173908704Y-42300952D01*
X173866938Y-42406628D01*
X173830262Y-42514734D01*
X173798823Y-42625121D01*
X173772769Y-42737643D01*
X173752247Y-42852151D01*
X173737406Y-42968498D01*
X173728393Y-43086536D01*
X173725356Y-43206116D01*
X173090355Y-43206116D01*
X173094215Y-43053521D01*
X173105671Y-42902940D01*
X173124535Y-42754560D01*
X173150620Y-42608566D01*
X173183740Y-42465143D01*
X173223708Y-42324478D01*
X173270336Y-42186755D01*
X173323437Y-42052161D01*
X173382824Y-41920880D01*
X173448312Y-41793098D01*
X173519711Y-41669002D01*
X173596836Y-41548775D01*
X173679499Y-41432605D01*
X173767514Y-41320676D01*
X173860693Y-41213175D01*
X173958850Y-41110285D01*
X174061797Y-41012194D01*
X174169348Y-40919087D01*
X174281314Y-40831149D01*
X174397511Y-40748566D01*
X174517749Y-40671523D01*
X174641843Y-40600206D01*
X174769606Y-40534801D01*
X174900849Y-40475492D01*
X175035387Y-40422466D01*
X175173033Y-40375908D01*
X175313599Y-40336004D01*
X175456898Y-40302939D01*
X175602744Y-40276899D01*
X175750949Y-40258069D01*
X175901326Y-40246635D01*
X176053689Y-40242783D01*
X176206284Y-40246643D01*
G37*
G36*
X167708730Y-45764637D02*
G01*
X167708730Y-49574637D01*
X162811292Y-49574637D01*
X162785160Y-49573975D01*
X162759369Y-49572013D01*
X162733953Y-49568781D01*
X162708942Y-49564312D01*
X162684370Y-49558637D01*
X162660267Y-49551789D01*
X162636666Y-49543800D01*
X162613599Y-49534701D01*
X162591098Y-49524525D01*
X162569195Y-49513303D01*
X162547921Y-49501068D01*
X162527310Y-49487852D01*
X162507392Y-49473685D01*
X162488200Y-49458601D01*
X162469765Y-49442632D01*
X162452121Y-49425809D01*
X162435298Y-49408164D01*
X162419328Y-49389730D01*
X162404244Y-49370538D01*
X162390078Y-49350620D01*
X162376861Y-49330008D01*
X162364626Y-49308735D01*
X162353404Y-49286832D01*
X162343228Y-49264331D01*
X162334129Y-49241264D01*
X162326140Y-49217663D01*
X162319292Y-49193560D01*
X162313617Y-49168988D01*
X162309148Y-49143977D01*
X162305916Y-49118561D01*
X162303954Y-49092770D01*
X162303293Y-49066637D01*
X162303293Y-44904742D01*
X162938293Y-44904742D01*
X162938293Y-48712096D01*
X162938585Y-48723689D01*
X162939453Y-48735144D01*
X162940882Y-48746445D01*
X162942861Y-48757576D01*
X162945374Y-48768523D01*
X162948408Y-48779272D01*
X162951950Y-48789806D01*
X162955987Y-48800111D01*
X162960503Y-48810172D01*
X162965487Y-48819973D01*
X162970925Y-48829501D01*
X162976802Y-48838739D01*
X162983105Y-48847673D01*
X162989822Y-48856288D01*
X162996937Y-48864568D01*
X163004439Y-48872499D01*
X163012312Y-48880066D01*
X163020544Y-48887254D01*
X163029120Y-48894047D01*
X163038028Y-48900431D01*
X163047254Y-48906390D01*
X163056784Y-48911910D01*
X163066605Y-48916975D01*
X163076703Y-48921571D01*
X163087064Y-48925683D01*
X163097676Y-48929295D01*
X163108524Y-48932393D01*
X163119594Y-48934961D01*
X163130874Y-48936984D01*
X163142350Y-48938448D01*
X163154008Y-48939338D01*
X163165834Y-48939637D01*
X167076376Y-48939637D01*
X167076376Y-44904742D01*
X162938293Y-44904742D01*
X162303293Y-44904742D01*
X162303293Y-44269741D01*
X167073730Y-44269741D01*
X167073730Y-41126491D01*
X167706084Y-41126491D01*
X167706084Y-45124345D01*
X171844167Y-45124345D01*
X171844167Y-41126491D01*
X167706084Y-41126491D01*
X167073730Y-41126491D01*
X167073730Y-40494138D01*
X172479167Y-40494138D01*
X172479167Y-45764637D01*
X167708730Y-45764637D01*
G37*
G36*
X178527543Y-47296575D02*
G01*
X175958437Y-47296575D01*
X175982251Y-47127241D01*
X178548708Y-47127241D01*
X178527543Y-47296575D01*
G37*
G36*
X176053687Y-40877783D02*
G01*
X175934106Y-40880820D01*
X175816069Y-40889833D01*
X175699722Y-40904675D01*
X175585214Y-40925196D01*
X175472692Y-40951250D01*
X175362305Y-40982689D01*
X175254199Y-41019366D01*
X175148522Y-41061131D01*
X175045424Y-41107838D01*
X174945050Y-41159339D01*
X174847549Y-41215486D01*
X174753069Y-41276131D01*
X174661757Y-41341126D01*
X174573761Y-41410325D01*
X174489229Y-41483578D01*
X174408309Y-41560739D01*
X174331149Y-41641659D01*
X174257895Y-41726191D01*
X174188697Y-41814186D01*
X174123701Y-41905498D01*
X174063056Y-41999978D01*
X174006910Y-42097479D01*
X173955409Y-42197853D01*
X173908702Y-42300952D01*
X173866936Y-42406628D01*
X173830260Y-42514734D01*
X173798821Y-42625122D01*
X173772767Y-42737643D01*
X173752245Y-42852152D01*
X173737404Y-42968498D01*
X173728391Y-43086536D01*
X173725354Y-43206116D01*
X173728391Y-43325696D01*
X173737404Y-43443734D01*
X173752245Y-43560081D01*
X173772767Y-43674589D01*
X173798821Y-43787110D01*
X173830260Y-43897498D01*
X173866936Y-44005604D01*
X173908701Y-44111280D01*
X173955408Y-44214379D01*
X174006909Y-44314753D01*
X174063056Y-44412254D01*
X174123701Y-44506734D01*
X174188697Y-44598046D01*
X174257895Y-44686042D01*
X174331148Y-44770573D01*
X174408309Y-44851493D01*
X174489229Y-44928654D01*
X174573760Y-45001907D01*
X174661756Y-45071106D01*
X174753068Y-45136101D01*
X174847548Y-45196746D01*
X174945049Y-45252893D01*
X175045423Y-45304394D01*
X175148522Y-45351101D01*
X175254198Y-45392866D01*
X175362304Y-45429543D01*
X175472692Y-45460982D01*
X175585213Y-45487036D01*
X175699722Y-45507557D01*
X175816068Y-45522399D01*
X175934106Y-45531412D01*
X176053687Y-45534449D01*
X176173267Y-45531412D01*
X176291305Y-45522399D01*
X176407651Y-45507557D01*
X176522160Y-45487036D01*
X176634681Y-45460982D01*
X176745069Y-45429543D01*
X176853175Y-45392866D01*
X176958851Y-45351101D01*
X177061950Y-45304394D01*
X177162324Y-45252893D01*
X177259825Y-45196746D01*
X177354305Y-45136101D01*
X177445617Y-45071106D01*
X177533613Y-45001907D01*
X177618144Y-44928654D01*
X177699064Y-44851493D01*
X177776225Y-44770573D01*
X177849478Y-44686042D01*
X177918676Y-44598046D01*
X177983672Y-44506734D01*
X178044317Y-44412254D01*
X178100464Y-44314753D01*
X178151965Y-44214379D01*
X178198672Y-44111280D01*
X178240437Y-44005604D01*
X178277113Y-43897498D01*
X178308552Y-43787110D01*
X178334606Y-43674589D01*
X178355128Y-43560081D01*
X178369969Y-43443734D01*
X178378982Y-43325696D01*
X178382020Y-43206116D01*
X179017020Y-43206116D01*
X179013160Y-43358711D01*
X179001704Y-43509292D01*
X178982840Y-43657672D01*
X178956755Y-43803666D01*
X178923635Y-43947089D01*
X178883667Y-44087754D01*
X178837040Y-44225477D01*
X178783938Y-44360071D01*
X178724551Y-44491352D01*
X178659063Y-44619134D01*
X178587664Y-44743230D01*
X178510539Y-44863457D01*
X178427875Y-44979627D01*
X178339861Y-45091556D01*
X178246681Y-45199057D01*
X178148525Y-45301947D01*
X178045578Y-45400038D01*
X177938027Y-45493145D01*
X177826060Y-45581083D01*
X177709864Y-45663666D01*
X177589626Y-45740709D01*
X177465532Y-45812026D01*
X177337769Y-45877431D01*
X177206525Y-45936740D01*
X177071987Y-45989766D01*
X176934342Y-46036324D01*
X176793776Y-46076228D01*
X176650477Y-46109293D01*
X176504631Y-46135333D01*
X176356426Y-46154163D01*
X176206049Y-46165597D01*
X176053687Y-46169449D01*
X175901091Y-46165589D01*
X175750511Y-46154134D01*
X175602130Y-46135270D01*
X175456136Y-46109184D01*
X175312714Y-46076064D01*
X175172048Y-46036097D01*
X175034326Y-45989469D01*
X174899731Y-45936368D01*
X174768450Y-45876980D01*
X174640669Y-45811493D01*
X174516572Y-45740094D01*
X174396346Y-45662969D01*
X174280175Y-45580305D01*
X174168247Y-45492290D01*
X174060745Y-45399111D01*
X173957856Y-45300955D01*
X173859765Y-45198007D01*
X173766658Y-45090457D01*
X173678720Y-44978490D01*
X173596136Y-44862294D01*
X173519093Y-44742055D01*
X173447777Y-44617961D01*
X173382371Y-44490199D01*
X173323063Y-44358955D01*
X173270037Y-44224417D01*
X173223479Y-44086772D01*
X173183575Y-43946206D01*
X173150510Y-43802907D01*
X173124470Y-43657061D01*
X173105640Y-43508856D01*
X173094206Y-43358479D01*
X173090354Y-43206116D01*
X173094214Y-43053521D01*
X173105669Y-42902940D01*
X173124533Y-42754560D01*
X173150619Y-42608566D01*
X173183738Y-42465144D01*
X173223706Y-42324478D01*
X173270334Y-42186756D01*
X173323435Y-42052161D01*
X173382823Y-41920880D01*
X173448310Y-41793099D01*
X173519709Y-41669002D01*
X173596834Y-41548776D01*
X173679497Y-41432606D01*
X173767512Y-41320677D01*
X173860692Y-41213175D01*
X173958848Y-41110286D01*
X174061795Y-41012195D01*
X174169346Y-40919088D01*
X174281312Y-40831150D01*
X174397509Y-40748566D01*
X174517747Y-40671524D01*
X174641841Y-40600207D01*
X174769604Y-40534801D01*
X174900847Y-40475493D01*
X175035386Y-40422467D01*
X175173031Y-40375909D01*
X175313597Y-40336005D01*
X175456896Y-40302940D01*
X175602742Y-40276900D01*
X175750947Y-40258070D01*
X175901324Y-40246636D01*
X176053687Y-40242783D01*
X176053687Y-40877783D01*
G37*
G36*
X173241167Y-47103429D02*
G01*
X173537500Y-47103429D01*
X173497812Y-47399762D01*
X173201479Y-47399762D01*
X172966001Y-49106324D01*
X172963180Y-49125548D01*
X172961665Y-49143532D01*
X172961399Y-49152058D01*
X172961460Y-49160275D01*
X172961850Y-49168181D01*
X172962569Y-49175778D01*
X172963618Y-49183064D01*
X172964996Y-49190041D01*
X172966705Y-49196707D01*
X172968745Y-49203063D01*
X172971116Y-49209109D01*
X172973819Y-49214845D01*
X172976854Y-49220271D01*
X172980222Y-49225387D01*
X172983923Y-49230193D01*
X172987959Y-49234689D01*
X172992328Y-49238874D01*
X172997032Y-49242750D01*
X173002072Y-49246316D01*
X173007447Y-49249571D01*
X173013159Y-49252517D01*
X173019207Y-49255152D01*
X173025592Y-49257478D01*
X173032315Y-49259493D01*
X173039376Y-49261198D01*
X173046776Y-49262594D01*
X173054515Y-49263679D01*
X173062594Y-49264454D01*
X173071012Y-49264919D01*
X173079772Y-49265074D01*
X173238521Y-49265074D01*
X173198833Y-49561407D01*
X173040083Y-49561407D01*
X173014720Y-49560943D01*
X172990221Y-49559552D01*
X172966582Y-49557239D01*
X172943800Y-49554007D01*
X172921871Y-49549861D01*
X172900790Y-49544804D01*
X172880554Y-49538840D01*
X172861159Y-49531972D01*
X172842602Y-49524206D01*
X172824877Y-49515544D01*
X172807982Y-49505991D01*
X172791913Y-49495551D01*
X172776665Y-49484227D01*
X172762235Y-49472023D01*
X172748619Y-49458943D01*
X172735813Y-49444991D01*
X172723937Y-49430171D01*
X172713116Y-49414487D01*
X172703349Y-49397942D01*
X172694637Y-49380540D01*
X172686978Y-49362286D01*
X172680374Y-49343183D01*
X172674824Y-49323236D01*
X172670328Y-49302447D01*
X172666886Y-49280821D01*
X172664499Y-49258362D01*
X172663165Y-49235073D01*
X172662886Y-49210959D01*
X172663661Y-49186023D01*
X172665491Y-49160270D01*
X172668374Y-49133702D01*
X172672312Y-49106324D01*
X172910437Y-47399762D01*
X172722583Y-47399762D01*
X172762271Y-47103429D01*
X172944833Y-47103429D01*
X173132687Y-46603367D01*
X173315250Y-46603367D01*
X173241167Y-47103429D01*
G37*
G36*
X172161730Y-47098541D02*
G01*
X172184750Y-47099755D01*
X172206925Y-47101782D01*
X172228266Y-47104628D01*
X172248787Y-47108295D01*
X172268497Y-47112788D01*
X172287408Y-47118110D01*
X172305533Y-47124265D01*
X172322883Y-47131258D01*
X172339469Y-47139091D01*
X172355303Y-47147770D01*
X172370397Y-47157297D01*
X172384763Y-47167677D01*
X172398411Y-47178913D01*
X172411354Y-47191010D01*
X172423604Y-47203971D01*
X172434984Y-47217272D01*
X172445313Y-47231375D01*
X172454596Y-47246277D01*
X172462837Y-47261973D01*
X172470039Y-47278460D01*
X172476206Y-47295733D01*
X172481342Y-47313790D01*
X172485451Y-47332625D01*
X172488537Y-47352236D01*
X172490603Y-47372617D01*
X172491654Y-47393767D01*
X172491693Y-47415679D01*
X172490725Y-47438352D01*
X172488753Y-47461780D01*
X172485781Y-47485960D01*
X172481813Y-47510887D01*
X172411986Y-47971226D01*
X172413022Y-47971263D01*
X172354813Y-48362847D01*
X171828291Y-48362847D01*
X171719813Y-49114263D01*
X171718704Y-49124030D01*
X171717859Y-49133486D01*
X171717278Y-49142633D01*
X171716960Y-49151470D01*
X171716906Y-49159996D01*
X171717115Y-49168213D01*
X171717588Y-49176119D01*
X171718324Y-49183716D01*
X171719324Y-49191002D01*
X171720588Y-49197978D01*
X171722115Y-49204645D01*
X171723905Y-49211001D01*
X171725960Y-49217047D01*
X171728277Y-49222783D01*
X171730858Y-49228209D01*
X171733703Y-49233325D01*
X171736812Y-49238131D01*
X171740183Y-49242627D01*
X171743819Y-49246813D01*
X171747718Y-49250688D01*
X171751880Y-49254254D01*
X171756307Y-49257510D01*
X171760996Y-49260455D01*
X171765949Y-49263091D01*
X171771166Y-49265416D01*
X171776647Y-49267431D01*
X171782390Y-49269137D01*
X171788398Y-49270532D01*
X171794669Y-49271617D01*
X171801203Y-49272392D01*
X171808001Y-49272857D01*
X171815063Y-49273012D01*
X171822156Y-49272857D01*
X171829048Y-49272392D01*
X171835740Y-49271617D01*
X171842234Y-49270532D01*
X171848531Y-49269137D01*
X171854630Y-49267432D01*
X171860534Y-49265416D01*
X171866243Y-49263091D01*
X171871759Y-49260455D01*
X171877081Y-49257510D01*
X171882212Y-49254254D01*
X171887151Y-49250689D01*
X171891901Y-49246813D01*
X171896462Y-49242627D01*
X171900835Y-49238131D01*
X171905021Y-49233325D01*
X171909021Y-49228209D01*
X171912836Y-49222783D01*
X171919914Y-49211001D01*
X171926264Y-49197979D01*
X171931893Y-49183716D01*
X171936808Y-49168213D01*
X171941019Y-49151470D01*
X171944531Y-49133487D01*
X171947354Y-49114263D01*
X172024084Y-48590389D01*
X172320417Y-48590389D01*
X172243687Y-49114263D01*
X172239376Y-49141640D01*
X172234375Y-49168208D01*
X172228676Y-49193961D01*
X172222272Y-49218897D01*
X172215155Y-49243011D01*
X172207317Y-49266300D01*
X172198750Y-49288759D01*
X172189447Y-49310385D01*
X172179400Y-49331174D01*
X172168601Y-49351122D01*
X172157042Y-49370225D01*
X172144716Y-49388479D01*
X172131615Y-49405880D01*
X172117731Y-49422425D01*
X172103056Y-49438110D01*
X172087583Y-49452930D01*
X172071460Y-49466882D01*
X172054841Y-49479961D01*
X172037726Y-49492165D01*
X172020114Y-49503489D01*
X172002007Y-49513930D01*
X171983404Y-49523483D01*
X171964304Y-49532144D01*
X171944708Y-49539911D01*
X171924616Y-49546778D01*
X171904028Y-49552742D01*
X171882944Y-49557799D01*
X171861364Y-49561946D01*
X171839288Y-49565177D01*
X171816716Y-49567491D01*
X171793647Y-49568881D01*
X171770083Y-49569346D01*
X171746206Y-49568912D01*
X171723186Y-49567609D01*
X171701011Y-49565439D01*
X171679670Y-49562400D01*
X171659150Y-49558494D01*
X171639440Y-49553719D01*
X171620528Y-49548076D01*
X171602403Y-49541565D01*
X171585053Y-49534185D01*
X171568467Y-49525938D01*
X171552633Y-49516822D01*
X171537539Y-49506838D01*
X171523173Y-49495986D01*
X171509525Y-49484266D01*
X171496582Y-49471677D01*
X171484333Y-49458221D01*
X171473388Y-49443928D01*
X171463378Y-49428832D01*
X171454305Y-49412939D01*
X171446175Y-49396250D01*
X171438990Y-49378771D01*
X171432754Y-49360506D01*
X171427472Y-49341457D01*
X171423147Y-49321630D01*
X171419784Y-49301027D01*
X171417385Y-49279653D01*
X171415956Y-49257511D01*
X171415499Y-49234607D01*
X171416019Y-49210942D01*
X171417520Y-49186522D01*
X171420005Y-49161350D01*
X171423479Y-49135430D01*
X171580852Y-48063867D01*
X171873271Y-48063867D01*
X172100813Y-48063867D01*
X172116688Y-47960679D01*
X172119613Y-47960783D01*
X172188126Y-47529409D01*
X172189925Y-47520634D01*
X172191356Y-47512169D01*
X172192423Y-47504015D01*
X172193129Y-47496170D01*
X172193478Y-47488636D01*
X172193475Y-47481411D01*
X172193123Y-47474497D01*
X172192426Y-47467893D01*
X172191388Y-47461599D01*
X172190013Y-47455615D01*
X172188304Y-47449941D01*
X172186266Y-47444577D01*
X172183902Y-47439523D01*
X172181217Y-47434779D01*
X172178214Y-47430345D01*
X172174897Y-47426221D01*
X172171361Y-47422377D01*
X172167693Y-47418780D01*
X172163886Y-47415431D01*
X172159932Y-47412331D01*
X172155822Y-47409478D01*
X172151550Y-47406874D01*
X172147107Y-47404518D01*
X172142486Y-47402409D01*
X172137679Y-47400549D01*
X172132678Y-47398936D01*
X172127475Y-47397572D01*
X172122063Y-47396456D01*
X172116434Y-47395588D01*
X172110581Y-47394968D01*
X172104494Y-47394595D01*
X172098168Y-47394471D01*
X172091308Y-47394603D01*
X172084618Y-47394999D01*
X172078097Y-47395657D01*
X172071746Y-47396580D01*
X172065563Y-47397766D01*
X172059548Y-47399215D01*
X172053701Y-47400928D01*
X172048021Y-47402905D01*
X172042508Y-47405145D01*
X172037160Y-47407649D01*
X172031979Y-47410416D01*
X172026963Y-47413447D01*
X172022111Y-47416741D01*
X172017424Y-47420299D01*
X172012900Y-47424121D01*
X172008540Y-47428206D01*
X172004342Y-47432554D01*
X172000307Y-47437166D01*
X171996434Y-47442042D01*
X171992722Y-47447181D01*
X171989170Y-47452584D01*
X171985780Y-47458250D01*
X171979477Y-47470374D01*
X171973810Y-47483551D01*
X171968775Y-47497783D01*
X171964367Y-47513069D01*
X171960584Y-47529409D01*
X171873271Y-48063867D01*
X171580852Y-48063867D01*
X171658957Y-47532054D01*
X171663764Y-47505698D01*
X171669256Y-47480202D01*
X171675439Y-47455559D01*
X171682315Y-47431760D01*
X171689889Y-47408799D01*
X171698164Y-47386667D01*
X171707145Y-47365357D01*
X171716835Y-47344861D01*
X171727238Y-47325171D01*
X171738358Y-47306279D01*
X171750199Y-47288178D01*
X171762765Y-47270860D01*
X171776059Y-47254317D01*
X171790086Y-47238542D01*
X171804850Y-47223526D01*
X171820353Y-47209262D01*
X171836476Y-47195806D01*
X171853095Y-47183217D01*
X171870211Y-47171497D01*
X171887822Y-47160645D01*
X171905930Y-47150661D01*
X171924533Y-47141545D01*
X171943633Y-47133298D01*
X171963228Y-47125918D01*
X171983320Y-47119407D01*
X172003908Y-47113764D01*
X172024992Y-47108989D01*
X172046572Y-47105083D01*
X172068648Y-47102044D01*
X172091220Y-47099874D01*
X172114289Y-47098571D01*
X172137853Y-47098137D01*
X172161730Y-47098541D01*
G37*
G36*
X171034542Y-49561408D02*
G01*
X170738208Y-49561408D01*
X171188000Y-46328200D01*
X171484334Y-46328200D01*
X171034542Y-49561408D01*
G37*
D13*
X167126433Y-51650066D02*
X167126433Y-50950066D01*
X167393100Y-50950066D01*
X167459766Y-50983400D01*
X167493100Y-51016733D01*
X167526433Y-51083400D01*
X167526433Y-51183400D01*
X167493100Y-51250066D01*
X167459766Y-51283400D01*
X167393100Y-51316733D01*
X167126433Y-51316733D01*
X167826433Y-51650066D02*
X167826433Y-50950066D01*
X168059766Y-51450066D01*
X168293100Y-50950066D01*
X168293100Y-51650066D01*
X168626433Y-51283400D02*
X168859766Y-51283400D01*
X168959766Y-51650066D02*
X168626433Y-51650066D01*
X168626433Y-50950066D01*
X168959766Y-50950066D01*
X170293100Y-50916733D02*
X169693100Y-51816733D01*
X170993100Y-51183400D02*
X171159766Y-51650066D01*
X171326433Y-51183400D01*
X171559766Y-51016733D02*
X171593100Y-50983400D01*
X171659766Y-50950066D01*
X171826433Y-50950066D01*
X171893100Y-50983400D01*
X171926433Y-51016733D01*
X171959766Y-51083400D01*
X171959766Y-51150066D01*
X171926433Y-51250066D01*
X171526433Y-51650066D01*
X171959766Y-51650066D01*
X172259766Y-51583400D02*
X172293100Y-51616733D01*
X172259766Y-51650066D01*
X172226433Y-51616733D01*
X172259766Y-51583400D01*
X172259766Y-51650066D01*
X172526433Y-50950066D02*
X172959766Y-50950066D01*
X172726433Y-51216733D01*
X172826433Y-51216733D01*
X172893100Y-51250066D01*
X172926433Y-51283400D01*
X172959766Y-51350066D01*
X172959766Y-51516733D01*
X172926433Y-51583400D01*
X172893100Y-51616733D01*
X172826433Y-51650066D01*
X172626433Y-51650066D01*
X172559766Y-51616733D01*
X172526433Y-51583400D01*
X173393100Y-50950066D02*
X173459766Y-50950066D01*
X173526433Y-50983400D01*
X173559766Y-51016733D01*
X173593100Y-51083400D01*
X173626433Y-51216733D01*
X173626433Y-51383400D01*
X173593100Y-51516733D01*
X173559766Y-51583400D01*
X173526433Y-51616733D01*
X173459766Y-51650066D01*
X173393100Y-51650066D01*
X173326433Y-51616733D01*
X173293100Y-51583400D01*
X173259766Y-51516733D01*
X173226433Y-51383400D01*
X173226433Y-51216733D01*
X173259766Y-51083400D01*
X173293100Y-51016733D01*
X173326433Y-50983400D01*
X173393100Y-50950066D01*
X174126433Y-51916733D02*
X174093100Y-51883400D01*
X174026433Y-51783400D01*
X173993100Y-51716733D01*
X173959766Y-51616733D01*
X173926433Y-51450066D01*
X173926433Y-51316733D01*
X173959766Y-51150066D01*
X173993100Y-51050066D01*
X174026433Y-50983400D01*
X174093100Y-50883400D01*
X174126433Y-50850066D01*
X174359766Y-51016733D02*
X174393100Y-50983400D01*
X174459766Y-50950066D01*
X174626433Y-50950066D01*
X174693100Y-50983400D01*
X174726433Y-51016733D01*
X174759766Y-51083400D01*
X174759766Y-51150066D01*
X174726433Y-51250066D01*
X174326433Y-51650066D01*
X174759766Y-51650066D01*
X175193100Y-50950066D02*
X175259766Y-50950066D01*
X175326433Y-50983400D01*
X175359766Y-51016733D01*
X175393100Y-51083400D01*
X175426433Y-51216733D01*
X175426433Y-51383400D01*
X175393100Y-51516733D01*
X175359766Y-51583400D01*
X175326433Y-51616733D01*
X175259766Y-51650066D01*
X175193100Y-51650066D01*
X175126433Y-51616733D01*
X175093100Y-51583400D01*
X175059766Y-51516733D01*
X175026433Y-51383400D01*
X175026433Y-51216733D01*
X175059766Y-51083400D01*
X175093100Y-51016733D01*
X175126433Y-50983400D01*
X175193100Y-50950066D01*
X175859766Y-50950066D02*
X175926433Y-50950066D01*
X175993100Y-50983400D01*
X176026433Y-51016733D01*
X176059766Y-51083400D01*
X176093100Y-51216733D01*
X176093100Y-51383400D01*
X176059766Y-51516733D01*
X176026433Y-51583400D01*
X175993100Y-51616733D01*
X175926433Y-51650066D01*
X175859766Y-51650066D01*
X175793100Y-51616733D01*
X175759766Y-51583400D01*
X175726433Y-51516733D01*
X175693100Y-51383400D01*
X175693100Y-51216733D01*
X175726433Y-51083400D01*
X175759766Y-51016733D01*
X175793100Y-50983400D01*
X175859766Y-50950066D01*
X176326433Y-50950066D02*
X176759766Y-50950066D01*
X176526433Y-51216733D01*
X176626433Y-51216733D01*
X176693100Y-51250066D01*
X176726433Y-51283400D01*
X176759766Y-51350066D01*
X176759766Y-51516733D01*
X176726433Y-51583400D01*
X176693100Y-51616733D01*
X176626433Y-51650066D01*
X176426433Y-51650066D01*
X176359766Y-51616733D01*
X176326433Y-51583400D01*
X176993100Y-50950066D02*
X177426433Y-50950066D01*
X177193100Y-51216733D01*
X177293100Y-51216733D01*
X177359766Y-51250066D01*
X177393100Y-51283400D01*
X177426433Y-51350066D01*
X177426433Y-51516733D01*
X177393100Y-51583400D01*
X177359766Y-51616733D01*
X177293100Y-51650066D01*
X177093100Y-51650066D01*
X177026433Y-51616733D01*
X176993100Y-51583400D01*
X177859766Y-50950066D02*
X177926433Y-50950066D01*
X177993100Y-50983400D01*
X178026433Y-51016733D01*
X178059766Y-51083400D01*
X178093100Y-51216733D01*
X178093100Y-51383400D01*
X178059766Y-51516733D01*
X178026433Y-51583400D01*
X177993100Y-51616733D01*
X177926433Y-51650066D01*
X177859766Y-51650066D01*
X177793100Y-51616733D01*
X177759766Y-51583400D01*
X177726433Y-51516733D01*
X177693100Y-51383400D01*
X177693100Y-51216733D01*
X177726433Y-51083400D01*
X177759766Y-51016733D01*
X177793100Y-50983400D01*
X177859766Y-50950066D01*
X178326433Y-51916733D02*
X178359766Y-51883400D01*
X178426433Y-51783400D01*
X178459766Y-51716733D01*
X178493100Y-51616733D01*
X178526433Y-51450066D01*
X178526433Y-51316733D01*
X178493100Y-51150066D01*
X178459766Y-51050066D01*
X178426433Y-50983400D01*
X178359766Y-50883400D01*
X178326433Y-50850066D01*
X88389666Y-51426533D02*
X88556333Y-51426533D01*
X88489666Y-51593200D02*
X88556333Y-51426533D01*
X88489666Y-51259866D01*
X88689666Y-51526533D02*
X88556333Y-51426533D01*
X88689666Y-51326533D01*
X88723000Y-50759866D02*
X88723000Y-50993200D01*
X89089666Y-50993200D02*
X88389666Y-50993200D01*
X88389666Y-50659866D01*
X88389666Y-50259866D02*
X88389666Y-50126533D01*
X88423000Y-50059866D01*
X88489666Y-49993200D01*
X88623000Y-49959866D01*
X88856333Y-49959866D01*
X88989666Y-49993200D01*
X89056333Y-50059866D01*
X89089666Y-50126533D01*
X89089666Y-50259866D01*
X89056333Y-50326533D01*
X88989666Y-50393200D01*
X88856333Y-50426533D01*
X88623000Y-50426533D01*
X88489666Y-50393200D01*
X88423000Y-50326533D01*
X88389666Y-50259866D01*
X89089666Y-49259866D02*
X88756333Y-49493200D01*
X89089666Y-49659866D02*
X88389666Y-49659866D01*
X88389666Y-49393200D01*
X88423000Y-49326533D01*
X88456333Y-49293200D01*
X88523000Y-49259866D01*
X88623000Y-49259866D01*
X88689666Y-49293200D01*
X88723000Y-49326533D01*
X88756333Y-49393200D01*
X88756333Y-49659866D01*
X88723000Y-48193200D02*
X88756333Y-48093200D01*
X88789666Y-48059866D01*
X88856333Y-48026533D01*
X88956333Y-48026533D01*
X89023000Y-48059866D01*
X89056333Y-48093200D01*
X89089666Y-48159866D01*
X89089666Y-48426533D01*
X88389666Y-48426533D01*
X88389666Y-48193200D01*
X88423000Y-48126533D01*
X88456333Y-48093200D01*
X88523000Y-48059866D01*
X88589666Y-48059866D01*
X88656333Y-48093200D01*
X88689666Y-48126533D01*
X88723000Y-48193200D01*
X88723000Y-48426533D01*
X89089666Y-47393200D02*
X89089666Y-47726533D01*
X88389666Y-47726533D01*
X88723000Y-47159866D02*
X88723000Y-46926533D01*
X89089666Y-46826533D02*
X89089666Y-47159866D01*
X88389666Y-47159866D01*
X88389666Y-46826533D01*
X89089666Y-45993200D02*
X88389666Y-45993200D01*
X88889666Y-45759866D01*
X88389666Y-45526533D01*
X89089666Y-45526533D01*
X89089666Y-45193200D02*
X88389666Y-45193200D01*
X89023000Y-44459866D02*
X89056333Y-44493200D01*
X89089666Y-44593200D01*
X89089666Y-44659866D01*
X89056333Y-44759866D01*
X88989666Y-44826533D01*
X88923000Y-44859866D01*
X88789666Y-44893200D01*
X88689666Y-44893200D01*
X88556333Y-44859866D01*
X88489666Y-44826533D01*
X88423000Y-44759866D01*
X88389666Y-44659866D01*
X88389666Y-44593200D01*
X88423000Y-44493200D01*
X88456333Y-44459866D01*
X89089666Y-43759866D02*
X88756333Y-43993200D01*
X89089666Y-44159866D02*
X88389666Y-44159866D01*
X88389666Y-43893200D01*
X88423000Y-43826533D01*
X88456333Y-43793200D01*
X88523000Y-43759866D01*
X88623000Y-43759866D01*
X88689666Y-43793200D01*
X88723000Y-43826533D01*
X88756333Y-43893200D01*
X88756333Y-44159866D01*
X88389666Y-43326533D02*
X88389666Y-43193200D01*
X88423000Y-43126533D01*
X88489666Y-43059866D01*
X88623000Y-43026533D01*
X88856333Y-43026533D01*
X88989666Y-43059866D01*
X89056333Y-43126533D01*
X89089666Y-43193200D01*
X89089666Y-43326533D01*
X89056333Y-43393200D01*
X88989666Y-43459866D01*
X88856333Y-43493200D01*
X88623000Y-43493200D01*
X88489666Y-43459866D01*
X88423000Y-43393200D01*
X88389666Y-43326533D01*
X89089666Y-42193200D02*
X88389666Y-42193200D01*
X88389666Y-41926533D01*
X88423000Y-41859866D01*
X88456333Y-41826533D01*
X88523000Y-41793200D01*
X88623000Y-41793200D01*
X88689666Y-41826533D01*
X88723000Y-41859866D01*
X88756333Y-41926533D01*
X88756333Y-42193200D01*
X89089666Y-41093200D02*
X88756333Y-41326533D01*
X89089666Y-41493200D02*
X88389666Y-41493200D01*
X88389666Y-41226533D01*
X88423000Y-41159866D01*
X88456333Y-41126533D01*
X88523000Y-41093200D01*
X88623000Y-41093200D01*
X88689666Y-41126533D01*
X88723000Y-41159866D01*
X88756333Y-41226533D01*
X88756333Y-41493200D01*
X88389666Y-40659866D02*
X88389666Y-40526533D01*
X88423000Y-40459866D01*
X88489666Y-40393200D01*
X88623000Y-40359866D01*
X88856333Y-40359866D01*
X88989666Y-40393200D01*
X89056333Y-40459866D01*
X89089666Y-40526533D01*
X89089666Y-40659866D01*
X89056333Y-40726533D01*
X88989666Y-40793200D01*
X88856333Y-40826533D01*
X88623000Y-40826533D01*
X88489666Y-40793200D01*
X88423000Y-40726533D01*
X88389666Y-40659866D01*
X88389666Y-39959866D02*
X88556333Y-39959866D01*
X88489666Y-40126533D02*
X88556333Y-39959866D01*
X88489666Y-39793200D01*
X88689666Y-40059866D02*
X88556333Y-39959866D01*
X88689666Y-39859866D01*
D11*
X87757000Y-54694600D02*
X89802000Y-54683600D01*
X87757000Y-36930200D02*
X89802000Y-36923600D01*
X87757000Y-54694600D02*
X87757000Y-36930200D01*
D12*
G36*
X112440000Y-99190000D02*
G01*
X112450000Y-94600000D01*
X115230000Y-94600000D01*
X116270000Y-94270000D01*
X117050000Y-93430000D01*
X117350000Y-92390000D01*
X122010000Y-92380000D01*
X122030000Y-97010000D01*
X118240000Y-97040000D01*
X117790000Y-97180000D01*
X117270000Y-97540000D01*
X117030000Y-98100000D01*
X117050000Y-99230000D01*
X112440000Y-99190000D01*
G37*
X112440000Y-99190000D02*
X112450000Y-94600000D01*
X115230000Y-94600000D01*
X116270000Y-94270000D01*
X117050000Y-93430000D01*
X117350000Y-92390000D01*
X122010000Y-92380000D01*
X122030000Y-97010000D01*
X118240000Y-97040000D01*
X117790000Y-97180000D01*
X117270000Y-97540000D01*
X117030000Y-98100000D01*
X117050000Y-99230000D01*
X112440000Y-99190000D01*
G36*
X109960000Y-84170000D02*
G01*
X118700000Y-84170000D01*
X119470000Y-84300000D01*
X120230000Y-84750000D01*
X120810000Y-85630000D01*
X120840000Y-86200000D01*
X120860000Y-90090000D01*
X117250000Y-90090000D01*
X117080000Y-89460000D01*
X116630000Y-88780000D01*
X115910000Y-88340000D01*
X115320000Y-88200000D01*
X109950000Y-88120000D01*
X109960000Y-84170000D01*
G37*
X109960000Y-84170000D02*
X118700000Y-84170000D01*
X119470000Y-84300000D01*
X120230000Y-84750000D01*
X120810000Y-85630000D01*
X120840000Y-86200000D01*
X120860000Y-90090000D01*
X117250000Y-90090000D01*
X117080000Y-89460000D01*
X116630000Y-88780000D01*
X115910000Y-88340000D01*
X115320000Y-88200000D01*
X109950000Y-88120000D01*
X109960000Y-84170000D01*
D13*
X117030000Y-98500000D02*
X117030000Y-99200000D01*
X117030000Y-98450000D02*
G75*
G02X118250000Y-97030000I1320000J100000D01*
G01*
X117320000Y-92400000D02*
G75*
G02X114950000Y-94570000I-2270000J100000D01*
G01*
X122025000Y-92400000D02*
X122050000Y-97000000D01*
X112450000Y-94600000D02*
X112450000Y-99200000D01*
X118250000Y-97025000D02*
X122025000Y-97025000D01*
X117325000Y-92375000D02*
X122025000Y-92375000D01*
X112475000Y-94575000D02*
X115025000Y-94575000D01*
X112475000Y-99225000D02*
X117025000Y-99225000D01*
X117235000Y-90080000D02*
G75*
G03X114975000Y-88200000I-2070000J-190000D01*
G01*
X120839000Y-86080000D02*
G75*
G03X118575000Y-84196000I-2074000J-190000D01*
G01*
X109950000Y-88150000D02*
X115000000Y-88196000D01*
X109950000Y-88104000D02*
X109950000Y-84196000D01*
X109950000Y-84196000D02*
X118575000Y-84196000D01*
X120850000Y-86150000D02*
X120850000Y-90095000D01*
X120850000Y-90104000D02*
X117240000Y-90104000D01*
D12*
G36*
X112490000Y-80290000D02*
G01*
X112500000Y-75700000D01*
X115280000Y-75700000D01*
X116320000Y-75370000D01*
X117100000Y-74530000D01*
X117400000Y-73490000D01*
X122060000Y-73480000D01*
X122080000Y-78110000D01*
X118290000Y-78140000D01*
X117840000Y-78280000D01*
X117320000Y-78640000D01*
X117080000Y-79200000D01*
X117100000Y-80330000D01*
X112490000Y-80290000D01*
G37*
X112490000Y-80290000D02*
X112500000Y-75700000D01*
X115280000Y-75700000D01*
X116320000Y-75370000D01*
X117100000Y-74530000D01*
X117400000Y-73490000D01*
X122060000Y-73480000D01*
X122080000Y-78110000D01*
X118290000Y-78140000D01*
X117840000Y-78280000D01*
X117320000Y-78640000D01*
X117080000Y-79200000D01*
X117100000Y-80330000D01*
X112490000Y-80290000D01*
G36*
X110010000Y-65270000D02*
G01*
X118750000Y-65270000D01*
X119520000Y-65400000D01*
X120280000Y-65850000D01*
X120860000Y-66730000D01*
X120890000Y-67300000D01*
X120910000Y-71190000D01*
X117300000Y-71190000D01*
X117130000Y-70560000D01*
X116680000Y-69880000D01*
X115960000Y-69440000D01*
X115370000Y-69300000D01*
X110000000Y-69220000D01*
X110010000Y-65270000D01*
G37*
X110010000Y-65270000D02*
X118750000Y-65270000D01*
X119520000Y-65400000D01*
X120280000Y-65850000D01*
X120860000Y-66730000D01*
X120890000Y-67300000D01*
X120910000Y-71190000D01*
X117300000Y-71190000D01*
X117130000Y-70560000D01*
X116680000Y-69880000D01*
X115960000Y-69440000D01*
X115370000Y-69300000D01*
X110000000Y-69220000D01*
X110010000Y-65270000D01*
D13*
X117080000Y-79600000D02*
X117080000Y-80300000D01*
X117080000Y-79550000D02*
G75*
G02X118300000Y-78130000I1320000J100000D01*
G01*
X117370000Y-73500000D02*
G75*
G02X115000000Y-75670000I-2270000J100000D01*
G01*
X122075000Y-73500000D02*
X122100000Y-78100000D01*
X112500000Y-75700000D02*
X112500000Y-80300000D01*
X118300000Y-78125000D02*
X122075000Y-78125000D01*
X117375000Y-73475000D02*
X122075000Y-73475000D01*
X112525000Y-75675000D02*
X115075000Y-75675000D01*
X112525000Y-80325000D02*
X117075000Y-80325000D01*
X117285000Y-71180000D02*
G75*
G03X115025000Y-69300000I-2070000J-190000D01*
G01*
X120889000Y-67180000D02*
G75*
G03X118625000Y-65296000I-2074000J-190000D01*
G01*
X110000000Y-69250000D02*
X115050000Y-69296000D01*
X110000000Y-69204000D02*
X110000000Y-65296000D01*
X110000000Y-65296000D02*
X118625000Y-65296000D01*
X120900000Y-67250000D02*
X120900000Y-71195000D01*
X120900000Y-71204000D02*
X117290000Y-71204000D01*
D12*
G36*
X150440000Y-103740000D02*
G01*
X150450000Y-99150000D01*
X153230000Y-99150000D01*
X154270000Y-98820000D01*
X155050000Y-97980000D01*
X155350000Y-96940000D01*
X160010000Y-96930000D01*
X160030000Y-101560000D01*
X156240000Y-101590000D01*
X155790000Y-101730000D01*
X155270000Y-102090000D01*
X155030000Y-102650000D01*
X155050000Y-103780000D01*
X150440000Y-103740000D01*
G37*
X150440000Y-103740000D02*
X150450000Y-99150000D01*
X153230000Y-99150000D01*
X154270000Y-98820000D01*
X155050000Y-97980000D01*
X155350000Y-96940000D01*
X160010000Y-96930000D01*
X160030000Y-101560000D01*
X156240000Y-101590000D01*
X155790000Y-101730000D01*
X155270000Y-102090000D01*
X155030000Y-102650000D01*
X155050000Y-103780000D01*
X150440000Y-103740000D01*
G36*
X147960000Y-88720000D02*
G01*
X156700000Y-88720000D01*
X157470000Y-88850000D01*
X158230000Y-89300000D01*
X158810000Y-90180000D01*
X158840000Y-90750000D01*
X158860000Y-94640000D01*
X155250000Y-94640000D01*
X155080000Y-94010000D01*
X154630000Y-93330000D01*
X153910000Y-92890000D01*
X153320000Y-92750000D01*
X147950000Y-92670000D01*
X147960000Y-88720000D01*
G37*
X147960000Y-88720000D02*
X156700000Y-88720000D01*
X157470000Y-88850000D01*
X158230000Y-89300000D01*
X158810000Y-90180000D01*
X158840000Y-90750000D01*
X158860000Y-94640000D01*
X155250000Y-94640000D01*
X155080000Y-94010000D01*
X154630000Y-93330000D01*
X153910000Y-92890000D01*
X153320000Y-92750000D01*
X147950000Y-92670000D01*
X147960000Y-88720000D01*
D13*
X155030000Y-103050000D02*
X155030000Y-103750000D01*
X155030000Y-103000000D02*
G75*
G02X156250000Y-101580000I1320000J100000D01*
G01*
X155320000Y-96950000D02*
G75*
G02X152950000Y-99120000I-2270000J100000D01*
G01*
X160025000Y-96950000D02*
X160050000Y-101550000D01*
X150450000Y-99150000D02*
X150450000Y-103750000D01*
X156250000Y-101575000D02*
X160025000Y-101575000D01*
X155325000Y-96925000D02*
X160025000Y-96925000D01*
X150475000Y-99125000D02*
X153025000Y-99125000D01*
X150475000Y-103775000D02*
X155025000Y-103775000D01*
X155235000Y-94630000D02*
G75*
G03X152975000Y-92750000I-2070000J-190000D01*
G01*
X158839000Y-90630000D02*
G75*
G03X156575000Y-88746000I-2074000J-190000D01*
G01*
X147950000Y-92700000D02*
X153000000Y-92746000D01*
X147950000Y-92654000D02*
X147950000Y-88746000D01*
X147950000Y-88746000D02*
X156575000Y-88746000D01*
X158850000Y-90700000D02*
X158850000Y-94645000D01*
X158850000Y-94654000D02*
X155240000Y-94654000D01*
D12*
G36*
X131390000Y-75240000D02*
G01*
X131400000Y-70650000D01*
X134180000Y-70650000D01*
X135220000Y-70320000D01*
X136000000Y-69480000D01*
X136300000Y-68440000D01*
X140960000Y-68430000D01*
X140980000Y-73060000D01*
X137190000Y-73090000D01*
X136740000Y-73230000D01*
X136220000Y-73590000D01*
X135980000Y-74150000D01*
X136000000Y-75280000D01*
X131390000Y-75240000D01*
G37*
X131390000Y-75240000D02*
X131400000Y-70650000D01*
X134180000Y-70650000D01*
X135220000Y-70320000D01*
X136000000Y-69480000D01*
X136300000Y-68440000D01*
X140960000Y-68430000D01*
X140980000Y-73060000D01*
X137190000Y-73090000D01*
X136740000Y-73230000D01*
X136220000Y-73590000D01*
X135980000Y-74150000D01*
X136000000Y-75280000D01*
X131390000Y-75240000D01*
G36*
X128910000Y-60220000D02*
G01*
X137650000Y-60220000D01*
X138420000Y-60350000D01*
X139180000Y-60800000D01*
X139760000Y-61680000D01*
X139790000Y-62250000D01*
X139810000Y-66140000D01*
X136200000Y-66140000D01*
X136030000Y-65510000D01*
X135580000Y-64830000D01*
X134860000Y-64390000D01*
X134270000Y-64250000D01*
X128900000Y-64170000D01*
X128910000Y-60220000D01*
G37*
X128910000Y-60220000D02*
X137650000Y-60220000D01*
X138420000Y-60350000D01*
X139180000Y-60800000D01*
X139760000Y-61680000D01*
X139790000Y-62250000D01*
X139810000Y-66140000D01*
X136200000Y-66140000D01*
X136030000Y-65510000D01*
X135580000Y-64830000D01*
X134860000Y-64390000D01*
X134270000Y-64250000D01*
X128900000Y-64170000D01*
X128910000Y-60220000D01*
D13*
X135980000Y-74550000D02*
X135980000Y-75250000D01*
X135980000Y-74500000D02*
G75*
G02X137200000Y-73080000I1320000J100000D01*
G01*
X136270000Y-68450000D02*
G75*
G02X133900000Y-70620000I-2270000J100000D01*
G01*
X140975000Y-68450000D02*
X141000000Y-73050000D01*
X131400000Y-70650000D02*
X131400000Y-75250000D01*
X137200000Y-73075000D02*
X140975000Y-73075000D01*
X136275000Y-68425000D02*
X140975000Y-68425000D01*
X131425000Y-70625000D02*
X133975000Y-70625000D01*
X131425000Y-75275000D02*
X135975000Y-75275000D01*
X136185000Y-66130000D02*
G75*
G03X133925000Y-64250000I-2070000J-190000D01*
G01*
X139789000Y-62130000D02*
G75*
G03X137525000Y-60246000I-2074000J-190000D01*
G01*
X128900000Y-64200000D02*
X133950000Y-64246000D01*
X128900000Y-64154000D02*
X128900000Y-60246000D01*
X128900000Y-60246000D02*
X137525000Y-60246000D01*
X139800000Y-62200000D02*
X139800000Y-66145000D01*
X139800000Y-66154000D02*
X136190000Y-66154000D01*
D12*
G36*
X150440000Y-122890000D02*
G01*
X150450000Y-118300000D01*
X153230000Y-118300000D01*
X154270000Y-117970000D01*
X155050000Y-117130000D01*
X155350000Y-116090000D01*
X160010000Y-116080000D01*
X160030000Y-120710000D01*
X156240000Y-120740000D01*
X155790000Y-120880000D01*
X155270000Y-121240000D01*
X155030000Y-121800000D01*
X155050000Y-122930000D01*
X150440000Y-122890000D01*
G37*
X150440000Y-122890000D02*
X150450000Y-118300000D01*
X153230000Y-118300000D01*
X154270000Y-117970000D01*
X155050000Y-117130000D01*
X155350000Y-116090000D01*
X160010000Y-116080000D01*
X160030000Y-120710000D01*
X156240000Y-120740000D01*
X155790000Y-120880000D01*
X155270000Y-121240000D01*
X155030000Y-121800000D01*
X155050000Y-122930000D01*
X150440000Y-122890000D01*
G36*
X147960000Y-107870000D02*
G01*
X156700000Y-107870000D01*
X157470000Y-108000000D01*
X158230000Y-108450000D01*
X158810000Y-109330000D01*
X158840000Y-109900000D01*
X158860000Y-113790000D01*
X155250000Y-113790000D01*
X155080000Y-113160000D01*
X154630000Y-112480000D01*
X153910000Y-112040000D01*
X153320000Y-111900000D01*
X147950000Y-111820000D01*
X147960000Y-107870000D01*
G37*
X147960000Y-107870000D02*
X156700000Y-107870000D01*
X157470000Y-108000000D01*
X158230000Y-108450000D01*
X158810000Y-109330000D01*
X158840000Y-109900000D01*
X158860000Y-113790000D01*
X155250000Y-113790000D01*
X155080000Y-113160000D01*
X154630000Y-112480000D01*
X153910000Y-112040000D01*
X153320000Y-111900000D01*
X147950000Y-111820000D01*
X147960000Y-107870000D01*
D13*
X155030000Y-122200000D02*
X155030000Y-122900000D01*
X155030000Y-122150000D02*
G75*
G02X156250000Y-120730000I1320000J100000D01*
G01*
X155320000Y-116100000D02*
G75*
G02X152950000Y-118270000I-2270000J100000D01*
G01*
X160025000Y-116100000D02*
X160050000Y-120700000D01*
X150450000Y-118300000D02*
X150450000Y-122900000D01*
X156250000Y-120725000D02*
X160025000Y-120725000D01*
X155325000Y-116075000D02*
X160025000Y-116075000D01*
X150475000Y-118275000D02*
X153025000Y-118275000D01*
X150475000Y-122925000D02*
X155025000Y-122925000D01*
X155235000Y-113780000D02*
G75*
G03X152975000Y-111900000I-2070000J-190000D01*
G01*
X158839000Y-109780000D02*
G75*
G03X156575000Y-107896000I-2074000J-190000D01*
G01*
X147950000Y-111850000D02*
X153000000Y-111896000D01*
X147950000Y-111804000D02*
X147950000Y-107896000D01*
X147950000Y-107896000D02*
X156575000Y-107896000D01*
X158850000Y-109850000D02*
X158850000Y-113795000D01*
X158850000Y-113804000D02*
X155240000Y-113804000D01*
D12*
G36*
X131440000Y-122890000D02*
G01*
X131450000Y-118300000D01*
X134230000Y-118300000D01*
X135270000Y-117970000D01*
X136050000Y-117130000D01*
X136350000Y-116090000D01*
X141010000Y-116080000D01*
X141030000Y-120710000D01*
X137240000Y-120740000D01*
X136790000Y-120880000D01*
X136270000Y-121240000D01*
X136030000Y-121800000D01*
X136050000Y-122930000D01*
X131440000Y-122890000D01*
G37*
X131440000Y-122890000D02*
X131450000Y-118300000D01*
X134230000Y-118300000D01*
X135270000Y-117970000D01*
X136050000Y-117130000D01*
X136350000Y-116090000D01*
X141010000Y-116080000D01*
X141030000Y-120710000D01*
X137240000Y-120740000D01*
X136790000Y-120880000D01*
X136270000Y-121240000D01*
X136030000Y-121800000D01*
X136050000Y-122930000D01*
X131440000Y-122890000D01*
G36*
X128960000Y-107870000D02*
G01*
X137700000Y-107870000D01*
X138470000Y-108000000D01*
X139230000Y-108450000D01*
X139810000Y-109330000D01*
X139840000Y-109900000D01*
X139860000Y-113790000D01*
X136250000Y-113790000D01*
X136080000Y-113160000D01*
X135630000Y-112480000D01*
X134910000Y-112040000D01*
X134320000Y-111900000D01*
X128950000Y-111820000D01*
X128960000Y-107870000D01*
G37*
X128960000Y-107870000D02*
X137700000Y-107870000D01*
X138470000Y-108000000D01*
X139230000Y-108450000D01*
X139810000Y-109330000D01*
X139840000Y-109900000D01*
X139860000Y-113790000D01*
X136250000Y-113790000D01*
X136080000Y-113160000D01*
X135630000Y-112480000D01*
X134910000Y-112040000D01*
X134320000Y-111900000D01*
X128950000Y-111820000D01*
X128960000Y-107870000D01*
D13*
X136030000Y-122200000D02*
X136030000Y-122900000D01*
X136030000Y-122150000D02*
G75*
G02X137250000Y-120730000I1320000J100000D01*
G01*
X136320000Y-116100000D02*
G75*
G02X133950000Y-118270000I-2270000J100000D01*
G01*
X141025000Y-116100000D02*
X141050000Y-120700000D01*
X131450000Y-118300000D02*
X131450000Y-122900000D01*
X137250000Y-120725000D02*
X141025000Y-120725000D01*
X136325000Y-116075000D02*
X141025000Y-116075000D01*
X131475000Y-118275000D02*
X134025000Y-118275000D01*
X131475000Y-122925000D02*
X136025000Y-122925000D01*
X136235000Y-113780000D02*
G75*
G03X133975000Y-111900000I-2070000J-190000D01*
G01*
X139839000Y-109780000D02*
G75*
G03X137575000Y-107896000I-2074000J-190000D01*
G01*
X128950000Y-111850000D02*
X134000000Y-111896000D01*
X128950000Y-111804000D02*
X128950000Y-107896000D01*
X128950000Y-107896000D02*
X137575000Y-107896000D01*
X139850000Y-109850000D02*
X139850000Y-113795000D01*
X139850000Y-113804000D02*
X136240000Y-113804000D01*
D12*
G36*
X150440000Y-84740000D02*
G01*
X150450000Y-80150000D01*
X153230000Y-80150000D01*
X154270000Y-79820000D01*
X155050000Y-78980000D01*
X155350000Y-77940000D01*
X160010000Y-77930000D01*
X160030000Y-82560000D01*
X156240000Y-82590000D01*
X155790000Y-82730000D01*
X155270000Y-83090000D01*
X155030000Y-83650000D01*
X155050000Y-84780000D01*
X150440000Y-84740000D01*
G37*
X150440000Y-84740000D02*
X150450000Y-80150000D01*
X153230000Y-80150000D01*
X154270000Y-79820000D01*
X155050000Y-78980000D01*
X155350000Y-77940000D01*
X160010000Y-77930000D01*
X160030000Y-82560000D01*
X156240000Y-82590000D01*
X155790000Y-82730000D01*
X155270000Y-83090000D01*
X155030000Y-83650000D01*
X155050000Y-84780000D01*
X150440000Y-84740000D01*
G36*
X147960000Y-69720000D02*
G01*
X156700000Y-69720000D01*
X157470000Y-69850000D01*
X158230000Y-70300000D01*
X158810000Y-71180000D01*
X158840000Y-71750000D01*
X158860000Y-75640000D01*
X155250000Y-75640000D01*
X155080000Y-75010000D01*
X154630000Y-74330000D01*
X153910000Y-73890000D01*
X153320000Y-73750000D01*
X147950000Y-73670000D01*
X147960000Y-69720000D01*
G37*
X147960000Y-69720000D02*
X156700000Y-69720000D01*
X157470000Y-69850000D01*
X158230000Y-70300000D01*
X158810000Y-71180000D01*
X158840000Y-71750000D01*
X158860000Y-75640000D01*
X155250000Y-75640000D01*
X155080000Y-75010000D01*
X154630000Y-74330000D01*
X153910000Y-73890000D01*
X153320000Y-73750000D01*
X147950000Y-73670000D01*
X147960000Y-69720000D01*
D13*
X155030000Y-84050000D02*
X155030000Y-84750000D01*
X155030000Y-84000000D02*
G75*
G02X156250000Y-82580000I1320000J100000D01*
G01*
X155320000Y-77950000D02*
G75*
G02X152950000Y-80120000I-2270000J100000D01*
G01*
X160025000Y-77950000D02*
X160050000Y-82550000D01*
X150450000Y-80150000D02*
X150450000Y-84750000D01*
X156250000Y-82575000D02*
X160025000Y-82575000D01*
X155325000Y-77925000D02*
X160025000Y-77925000D01*
X150475000Y-80125000D02*
X153025000Y-80125000D01*
X150475000Y-84775000D02*
X155025000Y-84775000D01*
X155235000Y-75630000D02*
G75*
G03X152975000Y-73750000I-2070000J-190000D01*
G01*
X158839000Y-71630000D02*
G75*
G03X156575000Y-69746000I-2074000J-190000D01*
G01*
X147950000Y-73700000D02*
X153000000Y-73746000D01*
X147950000Y-73654000D02*
X147950000Y-69746000D01*
X147950000Y-69746000D02*
X156575000Y-69746000D01*
X158850000Y-71700000D02*
X158850000Y-75645000D01*
X158850000Y-75654000D02*
X155240000Y-75654000D01*
D12*
G36*
X93290000Y-89790000D02*
G01*
X93300000Y-85200000D01*
X96080000Y-85200000D01*
X97120000Y-84870000D01*
X97900000Y-84030000D01*
X98200000Y-82990000D01*
X102860000Y-82980000D01*
X102880000Y-87610000D01*
X99090000Y-87640000D01*
X98640000Y-87780000D01*
X98120000Y-88140000D01*
X97880000Y-88700000D01*
X97900000Y-89830000D01*
X93290000Y-89790000D01*
G37*
X93290000Y-89790000D02*
X93300000Y-85200000D01*
X96080000Y-85200000D01*
X97120000Y-84870000D01*
X97900000Y-84030000D01*
X98200000Y-82990000D01*
X102860000Y-82980000D01*
X102880000Y-87610000D01*
X99090000Y-87640000D01*
X98640000Y-87780000D01*
X98120000Y-88140000D01*
X97880000Y-88700000D01*
X97900000Y-89830000D01*
X93290000Y-89790000D01*
G36*
X90810000Y-74770000D02*
G01*
X99550000Y-74770000D01*
X100320000Y-74900000D01*
X101080000Y-75350000D01*
X101660000Y-76230000D01*
X101690000Y-76800000D01*
X101710000Y-80690000D01*
X98100000Y-80690000D01*
X97930000Y-80060000D01*
X97480000Y-79380000D01*
X96760000Y-78940000D01*
X96170000Y-78800000D01*
X90800000Y-78720000D01*
X90810000Y-74770000D01*
G37*
X90810000Y-74770000D02*
X99550000Y-74770000D01*
X100320000Y-74900000D01*
X101080000Y-75350000D01*
X101660000Y-76230000D01*
X101690000Y-76800000D01*
X101710000Y-80690000D01*
X98100000Y-80690000D01*
X97930000Y-80060000D01*
X97480000Y-79380000D01*
X96760000Y-78940000D01*
X96170000Y-78800000D01*
X90800000Y-78720000D01*
X90810000Y-74770000D01*
D13*
X97880000Y-89100000D02*
X97880000Y-89800000D01*
X97880000Y-89050000D02*
G75*
G02X99100000Y-87630000I1320000J100000D01*
G01*
X98170000Y-83000000D02*
G75*
G02X95800000Y-85170000I-2270000J100000D01*
G01*
X102875000Y-83000000D02*
X102900000Y-87600000D01*
X93300000Y-85200000D02*
X93300000Y-89800000D01*
X99100000Y-87625000D02*
X102875000Y-87625000D01*
X98175000Y-82975000D02*
X102875000Y-82975000D01*
X93325000Y-85175000D02*
X95875000Y-85175000D01*
X93325000Y-89825000D02*
X97875000Y-89825000D01*
X98085000Y-80680000D02*
G75*
G03X95825000Y-78800000I-2070000J-190000D01*
G01*
X101689000Y-76680000D02*
G75*
G03X99425000Y-74796000I-2074000J-190000D01*
G01*
X90800000Y-78750000D02*
X95850000Y-78796000D01*
X90800000Y-78704000D02*
X90800000Y-74796000D01*
X90800000Y-74796000D02*
X99425000Y-74796000D01*
X101700000Y-76750000D02*
X101700000Y-80695000D01*
X101700000Y-80704000D02*
X98090000Y-80704000D01*
D12*
G36*
X131440000Y-94240000D02*
G01*
X131450000Y-89650000D01*
X134230000Y-89650000D01*
X135270000Y-89320000D01*
X136050000Y-88480000D01*
X136350000Y-87440000D01*
X141010000Y-87430000D01*
X141030000Y-92060000D01*
X137240000Y-92090000D01*
X136790000Y-92230000D01*
X136270000Y-92590000D01*
X136030000Y-93150000D01*
X136050000Y-94280000D01*
X131440000Y-94240000D01*
G37*
X131440000Y-94240000D02*
X131450000Y-89650000D01*
X134230000Y-89650000D01*
X135270000Y-89320000D01*
X136050000Y-88480000D01*
X136350000Y-87440000D01*
X141010000Y-87430000D01*
X141030000Y-92060000D01*
X137240000Y-92090000D01*
X136790000Y-92230000D01*
X136270000Y-92590000D01*
X136030000Y-93150000D01*
X136050000Y-94280000D01*
X131440000Y-94240000D01*
G36*
X128960000Y-79220000D02*
G01*
X137700000Y-79220000D01*
X138470000Y-79350000D01*
X139230000Y-79800000D01*
X139810000Y-80680000D01*
X139840000Y-81250000D01*
X139860000Y-85140000D01*
X136250000Y-85140000D01*
X136080000Y-84510000D01*
X135630000Y-83830000D01*
X134910000Y-83390000D01*
X134320000Y-83250000D01*
X128950000Y-83170000D01*
X128960000Y-79220000D01*
G37*
X128960000Y-79220000D02*
X137700000Y-79220000D01*
X138470000Y-79350000D01*
X139230000Y-79800000D01*
X139810000Y-80680000D01*
X139840000Y-81250000D01*
X139860000Y-85140000D01*
X136250000Y-85140000D01*
X136080000Y-84510000D01*
X135630000Y-83830000D01*
X134910000Y-83390000D01*
X134320000Y-83250000D01*
X128950000Y-83170000D01*
X128960000Y-79220000D01*
D13*
X136030000Y-93550000D02*
X136030000Y-94250000D01*
X136030000Y-93500000D02*
G75*
G02X137250000Y-92080000I1320000J100000D01*
G01*
X136320000Y-87450000D02*
G75*
G02X133950000Y-89620000I-2270000J100000D01*
G01*
X141025000Y-87450000D02*
X141050000Y-92050000D01*
X131450000Y-89650000D02*
X131450000Y-94250000D01*
X137250000Y-92075000D02*
X141025000Y-92075000D01*
X136325000Y-87425000D02*
X141025000Y-87425000D01*
X131475000Y-89625000D02*
X134025000Y-89625000D01*
X131475000Y-94275000D02*
X136025000Y-94275000D01*
X136235000Y-85130000D02*
G75*
G03X133975000Y-83250000I-2070000J-190000D01*
G01*
X139839000Y-81130000D02*
G75*
G03X137575000Y-79246000I-2074000J-190000D01*
G01*
X128950000Y-83200000D02*
X134000000Y-83246000D01*
X128950000Y-83154000D02*
X128950000Y-79246000D01*
X128950000Y-79246000D02*
X137575000Y-79246000D01*
X139850000Y-81200000D02*
X139850000Y-85145000D01*
X139850000Y-85154000D02*
X136240000Y-85154000D01*
D12*
G36*
X112390000Y-122890000D02*
G01*
X112400000Y-118300000D01*
X115180000Y-118300000D01*
X116220000Y-117970000D01*
X117000000Y-117130000D01*
X117300000Y-116090000D01*
X121960000Y-116080000D01*
X121980000Y-120710000D01*
X118190000Y-120740000D01*
X117740000Y-120880000D01*
X117220000Y-121240000D01*
X116980000Y-121800000D01*
X117000000Y-122930000D01*
X112390000Y-122890000D01*
G37*
X112390000Y-122890000D02*
X112400000Y-118300000D01*
X115180000Y-118300000D01*
X116220000Y-117970000D01*
X117000000Y-117130000D01*
X117300000Y-116090000D01*
X121960000Y-116080000D01*
X121980000Y-120710000D01*
X118190000Y-120740000D01*
X117740000Y-120880000D01*
X117220000Y-121240000D01*
X116980000Y-121800000D01*
X117000000Y-122930000D01*
X112390000Y-122890000D01*
G36*
X109910000Y-107870000D02*
G01*
X118650000Y-107870000D01*
X119420000Y-108000000D01*
X120180000Y-108450000D01*
X120760000Y-109330000D01*
X120790000Y-109900000D01*
X120810000Y-113790000D01*
X117200000Y-113790000D01*
X117030000Y-113160000D01*
X116580000Y-112480000D01*
X115860000Y-112040000D01*
X115270000Y-111900000D01*
X109900000Y-111820000D01*
X109910000Y-107870000D01*
G37*
X109910000Y-107870000D02*
X118650000Y-107870000D01*
X119420000Y-108000000D01*
X120180000Y-108450000D01*
X120760000Y-109330000D01*
X120790000Y-109900000D01*
X120810000Y-113790000D01*
X117200000Y-113790000D01*
X117030000Y-113160000D01*
X116580000Y-112480000D01*
X115860000Y-112040000D01*
X115270000Y-111900000D01*
X109900000Y-111820000D01*
X109910000Y-107870000D01*
D13*
X116980000Y-122200000D02*
X116980000Y-122900000D01*
X116980000Y-122150000D02*
G75*
G02X118200000Y-120730000I1320000J100000D01*
G01*
X117270000Y-116100000D02*
G75*
G02X114900000Y-118270000I-2270000J100000D01*
G01*
X121975000Y-116100000D02*
X122000000Y-120700000D01*
X112400000Y-118300000D02*
X112400000Y-122900000D01*
X118200000Y-120725000D02*
X121975000Y-120725000D01*
X117275000Y-116075000D02*
X121975000Y-116075000D01*
X112425000Y-118275000D02*
X114975000Y-118275000D01*
X112425000Y-122925000D02*
X116975000Y-122925000D01*
X117185000Y-113780000D02*
G75*
G03X114925000Y-111900000I-2070000J-190000D01*
G01*
X120789000Y-109780000D02*
G75*
G03X118525000Y-107896000I-2074000J-190000D01*
G01*
X109900000Y-111850000D02*
X114950000Y-111896000D01*
X109900000Y-111804000D02*
X109900000Y-107896000D01*
X109900000Y-107896000D02*
X118525000Y-107896000D01*
X120800000Y-109850000D02*
X120800000Y-113795000D01*
X120800000Y-113804000D02*
X117190000Y-113804000D01*
D12*
G36*
X169898983Y-119913061D02*
G01*
X171096622Y-115482049D01*
X173781896Y-116201566D01*
X174871869Y-116151982D01*
X175842699Y-115542484D01*
X176401649Y-114615566D01*
X180905451Y-115812004D01*
X179726438Y-120289417D01*
X176057814Y-119337470D01*
X175586913Y-119356232D01*
X174991457Y-119569379D01*
X174614696Y-120048181D01*
X174341549Y-121144853D01*
X169898983Y-119913061D01*
G37*
X169898983Y-119913061D02*
X171096622Y-115482049D01*
X173781896Y-116201566D01*
X174871869Y-116151982D01*
X175842699Y-115542484D01*
X176401649Y-114615566D01*
X180905451Y-115812004D01*
X179726438Y-120289417D01*
X176057814Y-119337470D01*
X175586913Y-119356232D01*
X174991457Y-119569379D01*
X174614696Y-120048181D01*
X174341549Y-121144853D01*
X169898983Y-119913061D01*
G36*
X171390949Y-104762983D02*
G01*
X179833141Y-107025062D01*
X180543258Y-107349923D01*
X181160893Y-107981292D01*
X181493369Y-108981422D01*
X181374820Y-109539764D01*
X180387332Y-113302392D01*
X176900340Y-112368055D01*
X176899189Y-111715523D01*
X176640519Y-110942224D01*
X176058933Y-110330867D01*
X175525271Y-110042935D01*
X170358955Y-108575802D01*
X171390949Y-104762983D01*
G37*
X171390949Y-104762983D02*
X179833141Y-107025062D01*
X180543258Y-107349923D01*
X181160893Y-107981292D01*
X181493369Y-108981422D01*
X181374820Y-109539764D01*
X180387332Y-113302392D01*
X176900340Y-112368055D01*
X176899189Y-111715523D01*
X176640519Y-110942224D01*
X176058933Y-110330867D01*
X175525271Y-110042935D01*
X170358955Y-108575802D01*
X171390949Y-104762983D01*
D13*
X174511168Y-120434551D02*
X174329995Y-121110699D01*
X174524109Y-120386254D02*
G75*
G02X176070062Y-119330399I1300904J-245049D01*
G01*
X176370083Y-114617461D02*
G75*
G02X173519201Y-116100119I-2166770J684112D01*
G01*
X180914764Y-115835205D02*
X179748344Y-120284934D01*
X171096622Y-115482049D02*
X169906054Y-119925308D01*
X176071356Y-119325570D02*
X179717726Y-120302612D01*
X176381383Y-114594607D02*
X180921234Y-115811057D01*
X171127241Y-115464372D02*
X173590352Y-116124360D01*
X169923732Y-119955927D02*
X174318695Y-121133553D01*
X176888439Y-112354514D02*
G75*
G03X175192027Y-109953642I-2048642J352230D01*
G01*
X181404911Y-109423594D02*
G75*
G03X179705671Y-107017824I-2052505J353265D01*
G01*
X170351190Y-108604780D02*
X175217210Y-109956249D01*
X170363096Y-108560347D02*
X171374561Y-104785509D01*
X171374561Y-104785509D02*
X179705671Y-107017824D01*
X181397420Y-109494056D02*
X180376379Y-113304633D01*
X180374049Y-113313327D02*
X176887057Y-112378990D01*
D12*
G36*
X93250000Y-108870000D02*
G01*
X93260000Y-104280000D01*
X96040000Y-104280000D01*
X97080000Y-103950000D01*
X97860000Y-103110000D01*
X98160000Y-102070000D01*
X102820000Y-102060000D01*
X102840000Y-106690000D01*
X99050000Y-106720000D01*
X98600000Y-106860000D01*
X98080000Y-107220000D01*
X97840000Y-107780000D01*
X97860000Y-108910000D01*
X93250000Y-108870000D01*
G37*
X93250000Y-108870000D02*
X93260000Y-104280000D01*
X96040000Y-104280000D01*
X97080000Y-103950000D01*
X97860000Y-103110000D01*
X98160000Y-102070000D01*
X102820000Y-102060000D01*
X102840000Y-106690000D01*
X99050000Y-106720000D01*
X98600000Y-106860000D01*
X98080000Y-107220000D01*
X97840000Y-107780000D01*
X97860000Y-108910000D01*
X93250000Y-108870000D01*
G36*
X90770000Y-93850000D02*
G01*
X99510000Y-93850000D01*
X100280000Y-93980000D01*
X101040000Y-94430000D01*
X101620000Y-95310000D01*
X101650000Y-95880000D01*
X101670000Y-99770000D01*
X98060000Y-99770000D01*
X97890000Y-99140000D01*
X97440000Y-98460000D01*
X96720000Y-98020000D01*
X96130000Y-97880000D01*
X90760000Y-97800000D01*
X90770000Y-93850000D01*
G37*
X90770000Y-93850000D02*
X99510000Y-93850000D01*
X100280000Y-93980000D01*
X101040000Y-94430000D01*
X101620000Y-95310000D01*
X101650000Y-95880000D01*
X101670000Y-99770000D01*
X98060000Y-99770000D01*
X97890000Y-99140000D01*
X97440000Y-98460000D01*
X96720000Y-98020000D01*
X96130000Y-97880000D01*
X90760000Y-97800000D01*
X90770000Y-93850000D01*
D13*
X97840000Y-108180000D02*
X97840000Y-108880000D01*
X97840000Y-108130000D02*
G75*
G02X99060000Y-106710000I1320000J100000D01*
G01*
X98130000Y-102080000D02*
G75*
G02X95760000Y-104250000I-2270000J100000D01*
G01*
X102835000Y-102080000D02*
X102860000Y-106680000D01*
X93260000Y-104280000D02*
X93260000Y-108880000D01*
X99060000Y-106705000D02*
X102835000Y-106705000D01*
X98135000Y-102055000D02*
X102835000Y-102055000D01*
X93285000Y-104255000D02*
X95835000Y-104255000D01*
X93285000Y-108905000D02*
X97835000Y-108905000D01*
X98045000Y-99760000D02*
G75*
G03X95785000Y-97880000I-2070000J-190000D01*
G01*
X101649000Y-95760000D02*
G75*
G03X99385000Y-93876000I-2074000J-190000D01*
G01*
X90760000Y-97830000D02*
X95810000Y-97876000D01*
X90760000Y-97784000D02*
X90760000Y-93876000D01*
X90760000Y-93876000D02*
X99385000Y-93876000D01*
X101660000Y-95830000D02*
X101660000Y-99775000D01*
X101660000Y-99784000D02*
X98050000Y-99784000D01*
X89802000Y-54683600D02*
X89802000Y-52143600D01*
X89802000Y-52143600D02*
X120282000Y-52143600D01*
X120282000Y-52143600D02*
X120282000Y-54683600D01*
X120282000Y-54683600D02*
X89802000Y-54683600D01*
X89802000Y-39463600D02*
X89802000Y-36923600D01*
X89802000Y-36923600D02*
X120282000Y-36923600D01*
X120282000Y-36923600D02*
X120282000Y-39463600D01*
X120282000Y-39463600D02*
X89802000Y-39463600D01*
D14*
X128304600Y-41142100D02*
X125644600Y-41142100D01*
X128304600Y-48822100D02*
X128304600Y-41142100D01*
X125644600Y-48822100D02*
X125644600Y-41142100D01*
X128304600Y-48822100D02*
X125644600Y-48822100D01*
X128304600Y-50092100D02*
X128304600Y-51422100D01*
X128304600Y-51422100D02*
X126974600Y-51422100D01*
X94123000Y-50141200D02*
X94123000Y-47341200D01*
X94123000Y-47341200D02*
X96123000Y-47341200D01*
X96123000Y-47341200D02*
X96123000Y-50141200D01*
X96123000Y-50141200D02*
X94123000Y-50141200D01*
X96123000Y-44039200D02*
X96123000Y-46839200D01*
X96123000Y-46839200D02*
X94123000Y-46839200D01*
X94123000Y-46839200D02*
X94123000Y-44039200D01*
X94123000Y-44039200D02*
X96123000Y-44039200D01*
X122171000Y-49130200D02*
X124971000Y-49130200D01*
X124971000Y-49130200D02*
X124971000Y-51130200D01*
X124971000Y-51130200D02*
X122171000Y-51130200D01*
X122171000Y-51130200D02*
X122171000Y-49130200D01*
X122171000Y-46590200D02*
X124971000Y-46590200D01*
X124971000Y-46590200D02*
X124971000Y-48590200D01*
X124971000Y-48590200D02*
X122171000Y-48590200D01*
X122171000Y-48590200D02*
X122171000Y-46590200D01*
X122171000Y-44050200D02*
X124971000Y-44050200D01*
X124971000Y-44050200D02*
X124971000Y-46050200D01*
X124971000Y-46050200D02*
X122171000Y-46050200D01*
X122171000Y-46050200D02*
X122171000Y-44050200D01*
X122171000Y-41510200D02*
X124971000Y-41510200D01*
X124971000Y-41510200D02*
X124971000Y-43510200D01*
X124971000Y-43510200D02*
X122171000Y-43510200D01*
X122171000Y-43510200D02*
X122171000Y-41510200D01*
D13*
X154653000Y-51650200D02*
X154653000Y-50150200D01*
X160053000Y-51650200D02*
X154653000Y-51650200D01*
X160053000Y-50150200D02*
X160053000Y-51650200D01*
X154653000Y-50150200D02*
X160053000Y-50150200D01*
X156853000Y-51400200D02*
X157753000Y-50900200D01*
X156853000Y-50400200D02*
X156853000Y-51400200D01*
X157753000Y-50900200D02*
X156853000Y-50400200D01*
X157853000Y-50400200D02*
X157853000Y-51400200D01*
X154653000Y-53936200D02*
X154653000Y-52436200D01*
X160053000Y-53936200D02*
X154653000Y-53936200D01*
X160053000Y-52436200D02*
X160053000Y-53936200D01*
X154653000Y-52436200D02*
X160053000Y-52436200D01*
X156853000Y-53686200D02*
X157753000Y-53186200D01*
X156853000Y-52686200D02*
X156853000Y-53686200D01*
X157753000Y-53186200D02*
X156853000Y-52686200D01*
X157853000Y-52686200D02*
X157853000Y-53686200D01*
D14*
X174400000Y-66100000D02*
X174400000Y-67100000D01*
X174900000Y-66600000D02*
X173900000Y-66600000D01*
X170900000Y-72700000D02*
X168500000Y-72700000D01*
X175700000Y-72700000D02*
X173100000Y-72700000D01*
X180300000Y-72700000D02*
X177900000Y-72700000D01*
X178500000Y-59400000D02*
X178200000Y-59100000D01*
X178500000Y-58800000D02*
X178500000Y-59400000D01*
X178200000Y-59100000D02*
X178500000Y-58800000D01*
X180300000Y-60500000D02*
X168500000Y-60500000D01*
X180300000Y-64600000D02*
X180300000Y-60500000D01*
X168500000Y-64600000D02*
X168500000Y-60500000D01*
X168500000Y-72700000D02*
X168500000Y-68600000D01*
X180300000Y-68600000D02*
X180300000Y-72700000D01*
X177400000Y-66600000D02*
G75*
G03X177400000Y-66600000I-3000000J0D01*
G01*
X170958000Y-64188800D02*
X170958000Y-61388800D01*
X170958000Y-61388800D02*
X172958000Y-61388800D01*
X172958000Y-61388800D02*
X172958000Y-64188800D01*
X172958000Y-64188800D02*
X170958000Y-64188800D01*
D13*
X165391400Y-92219800D02*
X166891400Y-92219800D01*
X165391400Y-97619800D02*
X165391400Y-92219800D01*
X166891400Y-97619800D02*
X165391400Y-97619800D01*
X166891400Y-92219800D02*
X166891400Y-97619800D01*
X166641400Y-95419800D02*
X165641400Y-95419800D01*
X165641400Y-94419800D02*
X166141400Y-95319800D01*
X166641400Y-94419800D02*
X165641400Y-94419800D01*
X166141400Y-95319800D02*
X166641400Y-94419800D01*
X165391400Y-79494400D02*
X166891400Y-79494400D01*
X165391400Y-84894400D02*
X165391400Y-79494400D01*
X166891400Y-84894400D02*
X165391400Y-84894400D01*
X166891400Y-79494400D02*
X166891400Y-84894400D01*
X166641400Y-82694400D02*
X165641400Y-82694400D01*
X165641400Y-81694400D02*
X166141400Y-82594400D01*
X166641400Y-81694400D02*
X165641400Y-81694400D01*
X166141400Y-82594400D02*
X166641400Y-81694400D01*
X162800600Y-92219800D02*
X164300600Y-92219800D01*
X162800600Y-97619800D02*
X162800600Y-92219800D01*
X164300600Y-97619800D02*
X162800600Y-97619800D01*
X164300600Y-92219800D02*
X164300600Y-97619800D01*
X164050600Y-95419800D02*
X163050600Y-95419800D01*
X163050600Y-94419800D02*
X163550600Y-95319800D01*
X164050600Y-94419800D02*
X163050600Y-94419800D01*
X163550600Y-95319800D02*
X164050600Y-94419800D01*
X154145000Y-105982200D02*
X154145000Y-104482200D01*
X159545000Y-105982200D02*
X154145000Y-105982200D01*
X159545000Y-104482200D02*
X159545000Y-105982200D01*
X154145000Y-104482200D02*
X159545000Y-104482200D01*
X157345000Y-104732200D02*
X157345000Y-105732200D01*
X156345000Y-105732200D02*
X157245000Y-105232200D01*
X156345000Y-104732200D02*
X156345000Y-105732200D01*
X157245000Y-105232200D02*
X156345000Y-104732200D01*
X135349000Y-99962400D02*
X135349000Y-98462400D01*
X140749000Y-99962400D02*
X135349000Y-99962400D01*
X140749000Y-98462400D02*
X140749000Y-99962400D01*
X135349000Y-98462400D02*
X140749000Y-98462400D01*
X138549000Y-98712400D02*
X138549000Y-99712400D01*
X137549000Y-99712400D02*
X138449000Y-99212400D01*
X137549000Y-98712400D02*
X137549000Y-99712400D01*
X138449000Y-99212400D02*
X137549000Y-98712400D01*
X154348200Y-86779800D02*
X154348200Y-85279800D01*
X159748200Y-86779800D02*
X154348200Y-86779800D01*
X159748200Y-85279800D02*
X159748200Y-86779800D01*
X154348200Y-85279800D02*
X159748200Y-85279800D01*
X157548200Y-85529800D02*
X157548200Y-86529800D01*
X156548200Y-86529800D02*
X157448200Y-86029800D01*
X156548200Y-85529800D02*
X156548200Y-86529800D01*
X157448200Y-86029800D02*
X156548200Y-85529800D01*
X135349000Y-106160000D02*
X135349000Y-104660000D01*
X140749000Y-106160000D02*
X135349000Y-106160000D01*
X140749000Y-104660000D02*
X140749000Y-106160000D01*
X135349000Y-104660000D02*
X140749000Y-104660000D01*
X138549000Y-104910000D02*
X138549000Y-105910000D01*
X137549000Y-105910000D02*
X138449000Y-105410000D01*
X137549000Y-104910000D02*
X137549000Y-105910000D01*
X138449000Y-105410000D02*
X137549000Y-104910000D01*
X135349000Y-96711200D02*
X135349000Y-95211200D01*
X140749000Y-96711200D02*
X135349000Y-96711200D01*
X140749000Y-95211200D02*
X140749000Y-96711200D01*
X135349000Y-95211200D02*
X140749000Y-95211200D01*
X138549000Y-95461200D02*
X138549000Y-96461200D01*
X137549000Y-96461200D02*
X138449000Y-95961200D01*
X137549000Y-95461200D02*
X137549000Y-96461200D01*
X138449000Y-95961200D02*
X137549000Y-95461200D01*
X135349000Y-77508800D02*
X135349000Y-76008800D01*
X140749000Y-77508800D02*
X135349000Y-77508800D01*
X140749000Y-76008800D02*
X140749000Y-77508800D01*
X135349000Y-76008800D02*
X140749000Y-76008800D01*
X138549000Y-76258800D02*
X138549000Y-77258800D01*
X137549000Y-77258800D02*
X138449000Y-76758800D01*
X137549000Y-76258800D02*
X137549000Y-77258800D01*
X138449000Y-76758800D02*
X137549000Y-76258800D01*
X116349800Y-106642600D02*
X116349800Y-105142600D01*
X121749800Y-106642600D02*
X116349800Y-106642600D01*
X121749800Y-105142600D02*
X121749800Y-106642600D01*
X116349800Y-105142600D02*
X121749800Y-105142600D01*
X119549800Y-105392600D02*
X119549800Y-106392600D01*
X118549800Y-106392600D02*
X119449800Y-105892600D01*
X118549800Y-105392600D02*
X118549800Y-106392600D01*
X119449800Y-105892600D02*
X118549800Y-105392600D01*
X116349800Y-101689600D02*
X116349800Y-100189600D01*
X121749800Y-101689600D02*
X116349800Y-101689600D01*
X121749800Y-100189600D02*
X121749800Y-101689600D01*
X116349800Y-100189600D02*
X121749800Y-100189600D01*
X119549800Y-100439600D02*
X119549800Y-101439600D01*
X118549800Y-101439600D02*
X119449800Y-100939600D01*
X118549800Y-100439600D02*
X118549800Y-101439600D01*
X119449800Y-100939600D02*
X118549800Y-100439600D01*
X116349800Y-82436400D02*
X116349800Y-80936400D01*
X121749800Y-82436400D02*
X116349800Y-82436400D01*
X121749800Y-80936400D02*
X121749800Y-82436400D01*
X116349800Y-80936400D02*
X121749800Y-80936400D01*
X119549800Y-81186400D02*
X119549800Y-82186400D01*
X118549800Y-82186400D02*
X119449800Y-81686400D01*
X118549800Y-81186400D02*
X118549800Y-82186400D01*
X119449800Y-81686400D02*
X118549800Y-81186400D01*
X92016600Y-111316200D02*
X92016600Y-109816200D01*
X97416600Y-111316200D02*
X92016600Y-111316200D01*
X97416600Y-109816200D02*
X97416600Y-111316200D01*
X92016600Y-109816200D02*
X97416600Y-109816200D01*
X95216600Y-110066200D02*
X95216600Y-111066200D01*
X94216600Y-111066200D02*
X95116600Y-110566200D01*
X94216600Y-110066200D02*
X94216600Y-111066200D01*
X95116600Y-110566200D02*
X94216600Y-110066200D01*
X97198200Y-92088400D02*
X97198200Y-90588400D01*
X102598200Y-92088400D02*
X97198200Y-92088400D01*
X102598200Y-90588400D02*
X102598200Y-92088400D01*
X97198200Y-90588400D02*
X102598200Y-90588400D01*
X100398200Y-90838400D02*
X100398200Y-91838400D01*
X99398200Y-91838400D02*
X100298200Y-91338400D01*
X99398200Y-90838400D02*
X99398200Y-91838400D01*
X100298200Y-91338400D02*
X99398200Y-90838400D01*
D14*
X160329000Y-39008200D02*
X164414000Y-39008200D01*
X160329000Y-37138200D02*
X160329000Y-39008200D01*
X164414000Y-37138200D02*
X160329000Y-37138200D01*
X173034200Y-76948501D02*
X173034200Y-79748501D01*
X173034200Y-79748501D02*
X171034200Y-79748501D01*
X171034200Y-79748501D02*
X171034200Y-76948501D01*
X171034200Y-76948501D02*
X173034200Y-76948501D01*
X177961800Y-76901001D02*
X177961800Y-79701001D01*
X177961800Y-79701001D02*
X175961800Y-79701001D01*
X175961800Y-79701001D02*
X175961800Y-76901001D01*
X175961800Y-76901001D02*
X177961800Y-76901001D01*
X175911000Y-64163400D02*
X175911000Y-61363400D01*
X175911000Y-61363400D02*
X177911000Y-61363400D01*
X177911000Y-61363400D02*
X177911000Y-64163400D01*
X177911000Y-64163400D02*
X175911000Y-64163400D01*
D15*
X104870000Y-110302800D02*
G75*
G03X104870000Y-110302800I-2000000J0D01*
G01*
X182784000Y-40140000D02*
G75*
G03X182784000Y-40140000I-1000000J0D01*
G01*
X133206000Y-40140000D02*
G75*
G03X133206000Y-40140000I-1000000J0D01*
G01*
D14*
X151744000Y-36997600D02*
X151744000Y-37787600D01*
X158644000Y-37787600D02*
X158644000Y-36997600D01*
X156794000Y-38837600D02*
X155094000Y-38837600D01*
X158044000Y-35987600D02*
X152344000Y-35987600D01*
X155294000Y-34697600D02*
X155294000Y-35987600D01*
X156394000Y-34487600D02*
X155494000Y-34487600D01*
X156594000Y-35987600D02*
X156594000Y-34697600D01*
X155294000Y-34697600D02*
X155494000Y-34487600D01*
X156594000Y-34697600D02*
X156394000Y-34487600D01*
X153794000Y-38837600D02*
X153594000Y-38837600D01*
D15*
X165388800Y-110302800D02*
G75*
G03X165388800Y-110302800I-2000000J0D01*
G01*
X165388800Y-70866000D02*
G75*
G03X165388800Y-70866000I-2000000J0D01*
G01*
X104870000Y-70866000D02*
G75*
G03X104870000Y-70866000I-2000000J0D01*
G01*
D13*
X122976000Y-39874000D02*
X122976000Y-39624000D01*
X128976000Y-39874000D02*
X122976000Y-39874000D01*
X128976000Y-39874000D02*
X128976000Y-39624000D01*
X128976000Y-36374000D02*
X128976000Y-36624000D01*
X122976000Y-36374000D02*
X122976000Y-36624000D01*
X128976000Y-36374000D02*
X122976000Y-36374000D01*
D14*
X174300000Y-89600000D02*
X174300000Y-90600000D01*
X174800000Y-90100000D02*
X173800000Y-90100000D01*
X170800000Y-96200000D02*
X168400000Y-96200000D01*
X175600000Y-96200000D02*
X173000000Y-96200000D01*
X180200000Y-96200000D02*
X177800000Y-96200000D01*
X178400000Y-82900000D02*
X178100000Y-82600000D01*
X178400000Y-82300000D02*
X178400000Y-82900000D01*
X178100000Y-82600000D02*
X178400000Y-82300000D01*
X180200000Y-84000000D02*
X168400000Y-84000000D01*
X180200000Y-88100000D02*
X180200000Y-84000000D01*
X168400000Y-88100000D02*
X168400000Y-84000000D01*
X168400000Y-96200000D02*
X168400000Y-92100000D01*
X180200000Y-92100000D02*
X180200000Y-96200000D01*
X177300000Y-90100000D02*
G75*
G03X177300000Y-90100000I-3000000J0D01*
G01*
D13*
D16*
X91411285Y-55910738D02*
X91054142Y-56077404D01*
X91411285Y-56196452D02*
X90661285Y-56196452D01*
X90661285Y-56005976D01*
X90697000Y-55958357D01*
X90732714Y-55934547D01*
X90804142Y-55910738D01*
X90911285Y-55910738D01*
X90982714Y-55934547D01*
X91018428Y-55958357D01*
X91054142Y-56005976D01*
X91054142Y-56196452D01*
X91197000Y-55720261D02*
X91197000Y-55482166D01*
X91411285Y-55767880D02*
X90661285Y-55601214D01*
X91411285Y-55434547D01*
X90661285Y-55315500D02*
X91411285Y-55196452D01*
X90875571Y-55101214D01*
X91411285Y-55005976D01*
X90661285Y-54886928D01*
X93237000Y-55946452D02*
X93201285Y-55994071D01*
X93201285Y-56065500D01*
X93237000Y-56136928D01*
X93308428Y-56184547D01*
X93379857Y-56208357D01*
X93522714Y-56232166D01*
X93629857Y-56232166D01*
X93772714Y-56208357D01*
X93844142Y-56184547D01*
X93915571Y-56136928D01*
X93951285Y-56065500D01*
X93951285Y-56017880D01*
X93915571Y-55946452D01*
X93879857Y-55922642D01*
X93629857Y-55922642D01*
X93629857Y-56017880D01*
X93951285Y-55708357D02*
X93201285Y-55708357D01*
X93951285Y-55422642D01*
X93201285Y-55422642D01*
X93951285Y-55184547D02*
X93201285Y-55184547D01*
X93201285Y-55065500D01*
X93237000Y-54994071D01*
X93308428Y-54946452D01*
X93379857Y-54922642D01*
X93522714Y-54898833D01*
X93629857Y-54898833D01*
X93772714Y-54922642D01*
X93844142Y-54946452D01*
X93915571Y-54994071D01*
X93951285Y-55065500D01*
X93951285Y-55184547D01*
X96554785Y-55839309D02*
X96197642Y-56005976D01*
X96554785Y-56125023D02*
X95804785Y-56125023D01*
X95804785Y-55934547D01*
X95840500Y-55886928D01*
X95876214Y-55863119D01*
X95947642Y-55839309D01*
X96054785Y-55839309D01*
X96126214Y-55863119D01*
X96161928Y-55886928D01*
X96197642Y-55934547D01*
X96197642Y-56125023D01*
X96519071Y-55648833D02*
X96554785Y-55577404D01*
X96554785Y-55458357D01*
X96519071Y-55410738D01*
X96483357Y-55386928D01*
X96411928Y-55363119D01*
X96340500Y-55363119D01*
X96269071Y-55386928D01*
X96233357Y-55410738D01*
X96197642Y-55458357D01*
X96161928Y-55553595D01*
X96126214Y-55601214D01*
X96090500Y-55625023D01*
X96019071Y-55648833D01*
X95947642Y-55648833D01*
X95876214Y-55625023D01*
X95840500Y-55601214D01*
X95804785Y-55553595D01*
X95804785Y-55434547D01*
X95840500Y-55363119D01*
X95804785Y-55220261D02*
X95804785Y-54934547D01*
X96554785Y-55077404D02*
X95804785Y-55077404D01*
X95840500Y-40706452D02*
X95804785Y-40754071D01*
X95804785Y-40825500D01*
X95840500Y-40896928D01*
X95911928Y-40944547D01*
X95983357Y-40968357D01*
X96126214Y-40992166D01*
X96233357Y-40992166D01*
X96376214Y-40968357D01*
X96447642Y-40944547D01*
X96519071Y-40896928D01*
X96554785Y-40825500D01*
X96554785Y-40777880D01*
X96519071Y-40706452D01*
X96483357Y-40682642D01*
X96233357Y-40682642D01*
X96233357Y-40777880D01*
X96554785Y-40468357D02*
X95804785Y-40468357D01*
X96554785Y-40182642D01*
X95804785Y-40182642D01*
X96554785Y-39944547D02*
X95804785Y-39944547D01*
X95804785Y-39825500D01*
X95840500Y-39754071D01*
X95911928Y-39706452D01*
X95983357Y-39682642D01*
X96126214Y-39658833D01*
X96233357Y-39658833D01*
X96376214Y-39682642D01*
X96447642Y-39706452D01*
X96519071Y-39754071D01*
X96554785Y-39825500D01*
X96554785Y-39944547D01*
X98281285Y-56232166D02*
X99031285Y-56065500D01*
X98281285Y-55898833D01*
X98959857Y-55446452D02*
X98995571Y-55470261D01*
X99031285Y-55541690D01*
X99031285Y-55589309D01*
X98995571Y-55660738D01*
X98924142Y-55708357D01*
X98852714Y-55732166D01*
X98709857Y-55755976D01*
X98602714Y-55755976D01*
X98459857Y-55732166D01*
X98388428Y-55708357D01*
X98317000Y-55660738D01*
X98281285Y-55589309D01*
X98281285Y-55541690D01*
X98317000Y-55470261D01*
X98352714Y-55446452D01*
X98959857Y-54946452D02*
X98995571Y-54970261D01*
X99031285Y-55041690D01*
X99031285Y-55089309D01*
X98995571Y-55160738D01*
X98924142Y-55208357D01*
X98852714Y-55232166D01*
X98709857Y-55255976D01*
X98602714Y-55255976D01*
X98459857Y-55232166D01*
X98388428Y-55208357D01*
X98317000Y-55160738D01*
X98281285Y-55089309D01*
X98281285Y-55041690D01*
X98317000Y-54970261D01*
X98352714Y-54946452D01*
X98380500Y-40769952D02*
X98344785Y-40817571D01*
X98344785Y-40889000D01*
X98380500Y-40960428D01*
X98451928Y-41008047D01*
X98523357Y-41031857D01*
X98666214Y-41055666D01*
X98773357Y-41055666D01*
X98916214Y-41031857D01*
X98987642Y-41008047D01*
X99059071Y-40960428D01*
X99094785Y-40889000D01*
X99094785Y-40841380D01*
X99059071Y-40769952D01*
X99023357Y-40746142D01*
X98773357Y-40746142D01*
X98773357Y-40841380D01*
X99094785Y-40531857D02*
X98344785Y-40531857D01*
X99094785Y-40246142D01*
X98344785Y-40246142D01*
X99094785Y-40008047D02*
X98344785Y-40008047D01*
X98344785Y-39889000D01*
X98380500Y-39817571D01*
X98451928Y-39769952D01*
X98523357Y-39746142D01*
X98666214Y-39722333D01*
X98773357Y-39722333D01*
X98916214Y-39746142D01*
X98987642Y-39769952D01*
X99059071Y-39817571D01*
X99094785Y-39889000D01*
X99094785Y-40008047D01*
X108846428Y-56445238D02*
X108846428Y-56278571D01*
X109239285Y-56207142D02*
X109239285Y-56445238D01*
X108489285Y-56445238D01*
X108489285Y-56207142D01*
X108846428Y-55826190D02*
X108882142Y-55754761D01*
X108917857Y-55730952D01*
X108989285Y-55707142D01*
X109096428Y-55707142D01*
X109167857Y-55730952D01*
X109203571Y-55754761D01*
X109239285Y-55802380D01*
X109239285Y-55992857D01*
X108489285Y-55992857D01*
X108489285Y-55826190D01*
X108525000Y-55778571D01*
X108560714Y-55754761D01*
X108632142Y-55730952D01*
X108703571Y-55730952D01*
X108775000Y-55754761D01*
X108810714Y-55778571D01*
X108846428Y-55826190D01*
X108846428Y-55992857D01*
X108560714Y-55516666D02*
X108525000Y-55492857D01*
X108489285Y-55445238D01*
X108489285Y-55326190D01*
X108525000Y-55278571D01*
X108560714Y-55254761D01*
X108632142Y-55230952D01*
X108703571Y-55230952D01*
X108810714Y-55254761D01*
X109239285Y-55540476D01*
X109239285Y-55230952D01*
X106258428Y-56309523D02*
X106258428Y-56142857D01*
X106651285Y-56071428D02*
X106651285Y-56309523D01*
X105901285Y-56309523D01*
X105901285Y-56071428D01*
X106437000Y-55880952D02*
X106437000Y-55642857D01*
X106651285Y-55928571D02*
X105901285Y-55761904D01*
X106651285Y-55595238D01*
X105972714Y-55452380D02*
X105937000Y-55428571D01*
X105901285Y-55380952D01*
X105901285Y-55261904D01*
X105937000Y-55214285D01*
X105972714Y-55190476D01*
X106044142Y-55166666D01*
X106115571Y-55166666D01*
X106222714Y-55190476D01*
X106651285Y-55476190D01*
X106651285Y-55166666D01*
X104075571Y-40984238D02*
X104111285Y-40912809D01*
X104111285Y-40793761D01*
X104075571Y-40746142D01*
X104039857Y-40722333D01*
X103968428Y-40698523D01*
X103897000Y-40698523D01*
X103825571Y-40722333D01*
X103789857Y-40746142D01*
X103754142Y-40793761D01*
X103718428Y-40889000D01*
X103682714Y-40936619D01*
X103647000Y-40960428D01*
X103575571Y-40984238D01*
X103504142Y-40984238D01*
X103432714Y-40960428D01*
X103397000Y-40936619D01*
X103361285Y-40889000D01*
X103361285Y-40769952D01*
X103397000Y-40698523D01*
X104039857Y-40198523D02*
X104075571Y-40222333D01*
X104111285Y-40293761D01*
X104111285Y-40341380D01*
X104075571Y-40412809D01*
X104004142Y-40460428D01*
X103932714Y-40484238D01*
X103789857Y-40508047D01*
X103682714Y-40508047D01*
X103539857Y-40484238D01*
X103468428Y-40460428D01*
X103397000Y-40412809D01*
X103361285Y-40341380D01*
X103361285Y-40293761D01*
X103397000Y-40222333D01*
X103432714Y-40198523D01*
X104111285Y-39746142D02*
X104111285Y-39984238D01*
X103361285Y-39984238D01*
X103718428Y-56295238D02*
X103718428Y-56128571D01*
X104111285Y-56057142D02*
X104111285Y-56295238D01*
X103361285Y-56295238D01*
X103361285Y-56057142D01*
X103718428Y-55676190D02*
X103754142Y-55604761D01*
X103789857Y-55580952D01*
X103861285Y-55557142D01*
X103968428Y-55557142D01*
X104039857Y-55580952D01*
X104075571Y-55604761D01*
X104111285Y-55652380D01*
X104111285Y-55842857D01*
X103361285Y-55842857D01*
X103361285Y-55676190D01*
X103397000Y-55628571D01*
X103432714Y-55604761D01*
X103504142Y-55580952D01*
X103575571Y-55580952D01*
X103647000Y-55604761D01*
X103682714Y-55628571D01*
X103718428Y-55676190D01*
X103718428Y-55842857D01*
X104111285Y-55080952D02*
X104111285Y-55366666D01*
X104111285Y-55223809D02*
X103361285Y-55223809D01*
X103468428Y-55271428D01*
X103539857Y-55319047D01*
X103575571Y-55366666D01*
X101535571Y-40996142D02*
X101571285Y-40924714D01*
X101571285Y-40805666D01*
X101535571Y-40758047D01*
X101499857Y-40734238D01*
X101428428Y-40710428D01*
X101357000Y-40710428D01*
X101285571Y-40734238D01*
X101249857Y-40758047D01*
X101214142Y-40805666D01*
X101178428Y-40900904D01*
X101142714Y-40948523D01*
X101107000Y-40972333D01*
X101035571Y-40996142D01*
X100964142Y-40996142D01*
X100892714Y-40972333D01*
X100857000Y-40948523D01*
X100821285Y-40900904D01*
X100821285Y-40781857D01*
X100857000Y-40710428D01*
X101571285Y-40496142D02*
X100821285Y-40496142D01*
X100821285Y-40377095D01*
X100857000Y-40305666D01*
X100928428Y-40258047D01*
X100999857Y-40234238D01*
X101142714Y-40210428D01*
X101249857Y-40210428D01*
X101392714Y-40234238D01*
X101464142Y-40258047D01*
X101535571Y-40305666D01*
X101571285Y-40377095D01*
X101571285Y-40496142D01*
X101357000Y-40019952D02*
X101357000Y-39781857D01*
X101571285Y-40067571D02*
X100821285Y-39900904D01*
X101571285Y-39734238D01*
X101196428Y-56309523D02*
X101196428Y-56142857D01*
X101589285Y-56071428D02*
X101589285Y-56309523D01*
X100839285Y-56309523D01*
X100839285Y-56071428D01*
X101375000Y-55880952D02*
X101375000Y-55642857D01*
X101589285Y-55928571D02*
X100839285Y-55761904D01*
X101589285Y-55595238D01*
X101589285Y-55166666D02*
X101589285Y-55452380D01*
X101589285Y-55309523D02*
X100839285Y-55309523D01*
X100946428Y-55357142D01*
X101017857Y-55404761D01*
X101053571Y-55452380D01*
X119389285Y-55983333D02*
X119032142Y-56150000D01*
X119389285Y-56269047D02*
X118639285Y-56269047D01*
X118639285Y-56078571D01*
X118675000Y-56030952D01*
X118710714Y-56007142D01*
X118782142Y-55983333D01*
X118889285Y-55983333D01*
X118960714Y-56007142D01*
X118996428Y-56030952D01*
X119032142Y-56078571D01*
X119032142Y-56269047D01*
X118639285Y-55673809D02*
X118639285Y-55626190D01*
X118675000Y-55578571D01*
X118710714Y-55554761D01*
X118782142Y-55530952D01*
X118925000Y-55507142D01*
X119103571Y-55507142D01*
X119246428Y-55530952D01*
X119317857Y-55554761D01*
X119353571Y-55578571D01*
X119389285Y-55626190D01*
X119389285Y-55673809D01*
X119353571Y-55721428D01*
X119317857Y-55745238D01*
X119246428Y-55769047D01*
X119103571Y-55792857D01*
X118925000Y-55792857D01*
X118782142Y-55769047D01*
X118710714Y-55745238D01*
X118675000Y-55721428D01*
X118639285Y-55673809D01*
X119343357Y-40733333D02*
X119379071Y-40757142D01*
X119414785Y-40828571D01*
X119414785Y-40876190D01*
X119379071Y-40947619D01*
X119307642Y-40995238D01*
X119236214Y-41019047D01*
X119093357Y-41042857D01*
X118986214Y-41042857D01*
X118843357Y-41019047D01*
X118771928Y-40995238D01*
X118700500Y-40947619D01*
X118664785Y-40876190D01*
X118664785Y-40828571D01*
X118700500Y-40757142D01*
X118736214Y-40733333D01*
X118914785Y-40304761D02*
X119414785Y-40304761D01*
X118629071Y-40423809D02*
X119164785Y-40542857D01*
X119164785Y-40233333D01*
X116739857Y-40733333D02*
X116775571Y-40757142D01*
X116811285Y-40828571D01*
X116811285Y-40876190D01*
X116775571Y-40947619D01*
X116704142Y-40995238D01*
X116632714Y-41019047D01*
X116489857Y-41042857D01*
X116382714Y-41042857D01*
X116239857Y-41019047D01*
X116168428Y-40995238D01*
X116097000Y-40947619D01*
X116061285Y-40876190D01*
X116061285Y-40828571D01*
X116097000Y-40757142D01*
X116132714Y-40733333D01*
X116061285Y-40566666D02*
X116061285Y-40257142D01*
X116347000Y-40423809D01*
X116347000Y-40352380D01*
X116382714Y-40304761D01*
X116418428Y-40280952D01*
X116489857Y-40257142D01*
X116668428Y-40257142D01*
X116739857Y-40280952D01*
X116775571Y-40304761D01*
X116811285Y-40352380D01*
X116811285Y-40495238D01*
X116775571Y-40542857D01*
X116739857Y-40566666D01*
X116839285Y-55883333D02*
X116482142Y-56050000D01*
X116839285Y-56169047D02*
X116089285Y-56169047D01*
X116089285Y-55978571D01*
X116125000Y-55930952D01*
X116160714Y-55907142D01*
X116232142Y-55883333D01*
X116339285Y-55883333D01*
X116410714Y-55907142D01*
X116446428Y-55930952D01*
X116482142Y-55978571D01*
X116482142Y-56169047D01*
X116839285Y-55407142D02*
X116839285Y-55692857D01*
X116839285Y-55550000D02*
X116089285Y-55550000D01*
X116196428Y-55597619D01*
X116267857Y-55645238D01*
X116303571Y-55692857D01*
X114263357Y-40733333D02*
X114299071Y-40757142D01*
X114334785Y-40828571D01*
X114334785Y-40876190D01*
X114299071Y-40947619D01*
X114227642Y-40995238D01*
X114156214Y-41019047D01*
X114013357Y-41042857D01*
X113906214Y-41042857D01*
X113763357Y-41019047D01*
X113691928Y-40995238D01*
X113620500Y-40947619D01*
X113584785Y-40876190D01*
X113584785Y-40828571D01*
X113620500Y-40757142D01*
X113656214Y-40733333D01*
X113656214Y-40542857D02*
X113620500Y-40519047D01*
X113584785Y-40471428D01*
X113584785Y-40352380D01*
X113620500Y-40304761D01*
X113656214Y-40280952D01*
X113727642Y-40257142D01*
X113799071Y-40257142D01*
X113906214Y-40280952D01*
X114334785Y-40566666D01*
X114334785Y-40257142D01*
X114334785Y-55883333D02*
X113977642Y-56050000D01*
X114334785Y-56169047D02*
X113584785Y-56169047D01*
X113584785Y-55978571D01*
X113620500Y-55930952D01*
X113656214Y-55907142D01*
X113727642Y-55883333D01*
X113834785Y-55883333D01*
X113906214Y-55907142D01*
X113941928Y-55930952D01*
X113977642Y-55978571D01*
X113977642Y-56169047D01*
X113656214Y-55692857D02*
X113620500Y-55669047D01*
X113584785Y-55621428D01*
X113584785Y-55502380D01*
X113620500Y-55454761D01*
X113656214Y-55430952D01*
X113727642Y-55407142D01*
X113799071Y-55407142D01*
X113906214Y-55430952D01*
X114334785Y-55716666D01*
X114334785Y-55407142D01*
X111667857Y-40733333D02*
X111703571Y-40757142D01*
X111739285Y-40828571D01*
X111739285Y-40876190D01*
X111703571Y-40947619D01*
X111632142Y-40995238D01*
X111560714Y-41019047D01*
X111417857Y-41042857D01*
X111310714Y-41042857D01*
X111167857Y-41019047D01*
X111096428Y-40995238D01*
X111025000Y-40947619D01*
X110989285Y-40876190D01*
X110989285Y-40828571D01*
X111025000Y-40757142D01*
X111060714Y-40733333D01*
X111739285Y-40257142D02*
X111739285Y-40542857D01*
X111739285Y-40400000D02*
X110989285Y-40400000D01*
X111096428Y-40447619D01*
X111167857Y-40495238D01*
X111203571Y-40542857D01*
X111739285Y-55883333D02*
X111382142Y-56050000D01*
X111739285Y-56169047D02*
X110989285Y-56169047D01*
X110989285Y-55978571D01*
X111025000Y-55930952D01*
X111060714Y-55907142D01*
X111132142Y-55883333D01*
X111239285Y-55883333D01*
X111310714Y-55907142D01*
X111346428Y-55930952D01*
X111382142Y-55978571D01*
X111382142Y-56169047D01*
X111739285Y-55407142D02*
X111739285Y-55692857D01*
X111739285Y-55550000D02*
X110989285Y-55550000D01*
X111096428Y-55597619D01*
X111167857Y-55645238D01*
X111203571Y-55692857D01*
X109119857Y-40683333D02*
X109155571Y-40707142D01*
X109191285Y-40778571D01*
X109191285Y-40826190D01*
X109155571Y-40897619D01*
X109084142Y-40945238D01*
X109012714Y-40969047D01*
X108869857Y-40992857D01*
X108762714Y-40992857D01*
X108619857Y-40969047D01*
X108548428Y-40945238D01*
X108477000Y-40897619D01*
X108441285Y-40826190D01*
X108441285Y-40778571D01*
X108477000Y-40707142D01*
X108512714Y-40683333D01*
X108441285Y-40373809D02*
X108441285Y-40326190D01*
X108477000Y-40278571D01*
X108512714Y-40254761D01*
X108584142Y-40230952D01*
X108727000Y-40207142D01*
X108905571Y-40207142D01*
X109048428Y-40230952D01*
X109119857Y-40254761D01*
X109155571Y-40278571D01*
X109191285Y-40326190D01*
X109191285Y-40373809D01*
X109155571Y-40421428D01*
X109119857Y-40445238D01*
X109048428Y-40469047D01*
X108905571Y-40492857D01*
X108727000Y-40492857D01*
X108584142Y-40469047D01*
X108512714Y-40445238D01*
X108477000Y-40421428D01*
X108441285Y-40373809D01*
D13*
X128357380Y-46272533D02*
X129071666Y-46272533D01*
X129214523Y-46320152D01*
X129309761Y-46415390D01*
X129357380Y-46558247D01*
X129357380Y-46653485D01*
X128690714Y-45367771D02*
X129357380Y-45367771D01*
X128309761Y-45605866D02*
X129024047Y-45843961D01*
X129024047Y-45224914D01*
X96499609Y-48093380D02*
X96499609Y-48807666D01*
X96451990Y-48950523D01*
X96356752Y-49045761D01*
X96213895Y-49093380D01*
X96118657Y-49093380D01*
X96975800Y-49093380D02*
X96975800Y-48093380D01*
X97356752Y-48093380D01*
X97451990Y-48141000D01*
X97499609Y-48188619D01*
X97547228Y-48283857D01*
X97547228Y-48426714D01*
X97499609Y-48521952D01*
X97451990Y-48569571D01*
X97356752Y-48617190D01*
X96975800Y-48617190D01*
X97928181Y-48188619D02*
X97975800Y-48141000D01*
X98071038Y-48093380D01*
X98309133Y-48093380D01*
X98404371Y-48141000D01*
X98451990Y-48188619D01*
X98499609Y-48283857D01*
X98499609Y-48379095D01*
X98451990Y-48521952D01*
X97880562Y-49093380D01*
X98499609Y-49093380D01*
X98880562Y-48188619D02*
X98928181Y-48141000D01*
X99023419Y-48093380D01*
X99261514Y-48093380D01*
X99356752Y-48141000D01*
X99404371Y-48188619D01*
X99451990Y-48283857D01*
X99451990Y-48379095D01*
X99404371Y-48521952D01*
X98832943Y-49093380D01*
X99451990Y-49093380D01*
X100404371Y-49093380D02*
X99832943Y-49093380D01*
X100118657Y-49093380D02*
X100118657Y-48093380D01*
X100023419Y-48236238D01*
X99928181Y-48331476D01*
X99832943Y-48379095D01*
X96690085Y-44892980D02*
X96690085Y-45607266D01*
X96642466Y-45750123D01*
X96547228Y-45845361D01*
X96404371Y-45892980D01*
X96309133Y-45892980D01*
X97166276Y-45892980D02*
X97166276Y-44892980D01*
X97547228Y-44892980D01*
X97642466Y-44940600D01*
X97690085Y-44988219D01*
X97737704Y-45083457D01*
X97737704Y-45226314D01*
X97690085Y-45321552D01*
X97642466Y-45369171D01*
X97547228Y-45416790D01*
X97166276Y-45416790D01*
X98118657Y-44988219D02*
X98166276Y-44940600D01*
X98261514Y-44892980D01*
X98499609Y-44892980D01*
X98594847Y-44940600D01*
X98642466Y-44988219D01*
X98690085Y-45083457D01*
X98690085Y-45178695D01*
X98642466Y-45321552D01*
X98071038Y-45892980D01*
X98690085Y-45892980D01*
X99071038Y-44988219D02*
X99118657Y-44940600D01*
X99213895Y-44892980D01*
X99451990Y-44892980D01*
X99547228Y-44940600D01*
X99594847Y-44988219D01*
X99642466Y-45083457D01*
X99642466Y-45178695D01*
X99594847Y-45321552D01*
X99023419Y-45892980D01*
X99642466Y-45892980D01*
X100261514Y-44892980D02*
X100356752Y-44892980D01*
X100451990Y-44940600D01*
X100499609Y-44988219D01*
X100547228Y-45083457D01*
X100594847Y-45273933D01*
X100594847Y-45512028D01*
X100547228Y-45702504D01*
X100499609Y-45797742D01*
X100451990Y-45845361D01*
X100356752Y-45892980D01*
X100261514Y-45892980D01*
X100166276Y-45845361D01*
X100118657Y-45797742D01*
X100071038Y-45702504D01*
X100023419Y-45512028D01*
X100023419Y-45273933D01*
X100071038Y-45083457D01*
X100118657Y-44988219D01*
X100166276Y-44940600D01*
X100261514Y-44892980D01*
X117045356Y-49585980D02*
X117045356Y-50300266D01*
X116997737Y-50443123D01*
X116902499Y-50538361D01*
X116759642Y-50585980D01*
X116664404Y-50585980D01*
X117521547Y-50585980D02*
X117521547Y-49585980D01*
X117902499Y-49585980D01*
X117997737Y-49633600D01*
X118045356Y-49681219D01*
X118092975Y-49776457D01*
X118092975Y-49919314D01*
X118045356Y-50014552D01*
X117997737Y-50062171D01*
X117902499Y-50109790D01*
X117521547Y-50109790D01*
X118473928Y-49681219D02*
X118521547Y-49633600D01*
X118616785Y-49585980D01*
X118854880Y-49585980D01*
X118950118Y-49633600D01*
X118997737Y-49681219D01*
X119045356Y-49776457D01*
X119045356Y-49871695D01*
X118997737Y-50014552D01*
X118426309Y-50585980D01*
X119045356Y-50585980D01*
X119997737Y-50585980D02*
X119426309Y-50585980D01*
X119712023Y-50585980D02*
X119712023Y-49585980D01*
X119616785Y-49728838D01*
X119521547Y-49824076D01*
X119426309Y-49871695D01*
X120331071Y-49585980D02*
X120950118Y-49585980D01*
X120616785Y-49966933D01*
X120759642Y-49966933D01*
X120854880Y-50014552D01*
X120902499Y-50062171D01*
X120950118Y-50157409D01*
X120950118Y-50395504D01*
X120902499Y-50490742D01*
X120854880Y-50538361D01*
X120759642Y-50585980D01*
X120473928Y-50585980D01*
X120378690Y-50538361D01*
X120331071Y-50490742D01*
X116854880Y-47045980D02*
X116854880Y-47760266D01*
X116807261Y-47903123D01*
X116712023Y-47998361D01*
X116569166Y-48045980D01*
X116473928Y-48045980D01*
X117331071Y-48045980D02*
X117331071Y-47045980D01*
X117712023Y-47045980D01*
X117807261Y-47093600D01*
X117854880Y-47141219D01*
X117902499Y-47236457D01*
X117902499Y-47379314D01*
X117854880Y-47474552D01*
X117807261Y-47522171D01*
X117712023Y-47569790D01*
X117331071Y-47569790D01*
X118283452Y-47141219D02*
X118331071Y-47093600D01*
X118426309Y-47045980D01*
X118664404Y-47045980D01*
X118759642Y-47093600D01*
X118807261Y-47141219D01*
X118854880Y-47236457D01*
X118854880Y-47331695D01*
X118807261Y-47474552D01*
X118235833Y-48045980D01*
X118854880Y-48045980D01*
X119807261Y-48045980D02*
X119235833Y-48045980D01*
X119521547Y-48045980D02*
X119521547Y-47045980D01*
X119426309Y-47188838D01*
X119331071Y-47284076D01*
X119235833Y-47331695D01*
X120188214Y-47141219D02*
X120235833Y-47093600D01*
X120331071Y-47045980D01*
X120569166Y-47045980D01*
X120664404Y-47093600D01*
X120712023Y-47141219D01*
X120759642Y-47236457D01*
X120759642Y-47331695D01*
X120712023Y-47474552D01*
X120140595Y-48045980D01*
X120759642Y-48045980D01*
X116759642Y-44505980D02*
X116759642Y-45220266D01*
X116712023Y-45363123D01*
X116616785Y-45458361D01*
X116473928Y-45505980D01*
X116378690Y-45505980D01*
X117235833Y-45505980D02*
X117235833Y-44505980D01*
X117616785Y-44505980D01*
X117712023Y-44553600D01*
X117759642Y-44601219D01*
X117807261Y-44696457D01*
X117807261Y-44839314D01*
X117759642Y-44934552D01*
X117712023Y-44982171D01*
X117616785Y-45029790D01*
X117235833Y-45029790D01*
X118188214Y-44601219D02*
X118235833Y-44553600D01*
X118331071Y-44505980D01*
X118569166Y-44505980D01*
X118664404Y-44553600D01*
X118712023Y-44601219D01*
X118759642Y-44696457D01*
X118759642Y-44791695D01*
X118712023Y-44934552D01*
X118140595Y-45505980D01*
X118759642Y-45505980D01*
X119712023Y-45505980D02*
X119140595Y-45505980D01*
X119426309Y-45505980D02*
X119426309Y-44505980D01*
X119331071Y-44648838D01*
X119235833Y-44744076D01*
X119140595Y-44791695D01*
X120664404Y-45505980D02*
X120092976Y-45505980D01*
X120378690Y-45505980D02*
X120378690Y-44505980D01*
X120283452Y-44648838D01*
X120188214Y-44744076D01*
X120092976Y-44791695D01*
X116807261Y-41965980D02*
X116807261Y-42680266D01*
X116759642Y-42823123D01*
X116664404Y-42918361D01*
X116521547Y-42965980D01*
X116426309Y-42965980D01*
X117283452Y-42965980D02*
X117283452Y-41965980D01*
X117664404Y-41965980D01*
X117759642Y-42013600D01*
X117807261Y-42061219D01*
X117854880Y-42156457D01*
X117854880Y-42299314D01*
X117807261Y-42394552D01*
X117759642Y-42442171D01*
X117664404Y-42489790D01*
X117283452Y-42489790D01*
X118235833Y-42061219D02*
X118283452Y-42013600D01*
X118378690Y-41965980D01*
X118616785Y-41965980D01*
X118712023Y-42013600D01*
X118759642Y-42061219D01*
X118807261Y-42156457D01*
X118807261Y-42251695D01*
X118759642Y-42394552D01*
X118188214Y-42965980D01*
X118807261Y-42965980D01*
X119759642Y-42965980D02*
X119188214Y-42965980D01*
X119473928Y-42965980D02*
X119473928Y-41965980D01*
X119378690Y-42108838D01*
X119283452Y-42204076D01*
X119188214Y-42251695D01*
X120378690Y-41965980D02*
X120473928Y-41965980D01*
X120569166Y-42013600D01*
X120616785Y-42061219D01*
X120664404Y-42156457D01*
X120712023Y-42346933D01*
X120712023Y-42585028D01*
X120664404Y-42775504D01*
X120616785Y-42870742D01*
X120569166Y-42918361D01*
X120473928Y-42965980D01*
X120378690Y-42965980D01*
X120283452Y-42918361D01*
X120235833Y-42870742D01*
X120188214Y-42775504D01*
X120140595Y-42585028D01*
X120140595Y-42346933D01*
X120188214Y-42156457D01*
X120235833Y-42061219D01*
X120283452Y-42013600D01*
X120378690Y-41965980D01*
X180365495Y-45709057D02*
X181889304Y-45709057D01*
X181127400Y-46470961D02*
X181127400Y-44947152D01*
X173297904Y-64750771D02*
X173869333Y-64750771D01*
X173983619Y-64788866D01*
X174059809Y-64865057D01*
X174097904Y-64979342D01*
X174097904Y-65055533D01*
X174097904Y-64369819D02*
X173297904Y-64369819D01*
X173297904Y-64065057D01*
X173336000Y-63988866D01*
X173374095Y-63950771D01*
X173450285Y-63912676D01*
X173564571Y-63912676D01*
X173640761Y-63950771D01*
X173678857Y-63988866D01*
X173716952Y-64065057D01*
X173716952Y-64369819D01*
X174097904Y-63150771D02*
X174097904Y-63607914D01*
X174097904Y-63379342D02*
X173297904Y-63379342D01*
X173412190Y-63455533D01*
X173488380Y-63531723D01*
X173526476Y-63607914D01*
X174097904Y-62388866D02*
X174097904Y-62846009D01*
X174097904Y-62617438D02*
X173297904Y-62617438D01*
X173412190Y-62693628D01*
X173488380Y-62769819D01*
X173526476Y-62846009D01*
X174097904Y-61626961D02*
X174097904Y-62084104D01*
X174097904Y-61855533D02*
X173297904Y-61855533D01*
X173412190Y-61931723D01*
X173488380Y-62007914D01*
X173526476Y-62084104D01*
X151765095Y-45709057D02*
X153288904Y-45709057D01*
X152527000Y-46470961D02*
X152527000Y-44947152D01*
X166301000Y-37942200D02*
X166267666Y-37975533D01*
X166167666Y-38008866D01*
X166101000Y-38008866D01*
X166001000Y-37975533D01*
X165934333Y-37908866D01*
X165901000Y-37842200D01*
X165867666Y-37708866D01*
X165867666Y-37608866D01*
X165901000Y-37475533D01*
X165934333Y-37408866D01*
X166001000Y-37342200D01*
X166101000Y-37308866D01*
X166167666Y-37308866D01*
X166267666Y-37342200D01*
X166301000Y-37375533D01*
X166967666Y-38008866D02*
X166567666Y-38008866D01*
X166767666Y-38008866D02*
X166767666Y-37308866D01*
X166701000Y-37408866D01*
X166634333Y-37475533D01*
X166567666Y-37508866D01*
X167634333Y-38008866D02*
X167234333Y-38008866D01*
X167434333Y-38008866D02*
X167434333Y-37308866D01*
X167367666Y-37408866D01*
X167301000Y-37475533D01*
X167234333Y-37508866D01*
X169741904Y-79990771D02*
X170313333Y-79990771D01*
X170427619Y-80028866D01*
X170503809Y-80105057D01*
X170541904Y-80219342D01*
X170541904Y-80295533D01*
X170541904Y-79609819D02*
X169741904Y-79609819D01*
X169741904Y-79305057D01*
X169780000Y-79228866D01*
X169818095Y-79190771D01*
X169894285Y-79152676D01*
X170008571Y-79152676D01*
X170084761Y-79190771D01*
X170122857Y-79228866D01*
X170160952Y-79305057D01*
X170160952Y-79609819D01*
X170541904Y-78390771D02*
X170541904Y-78847914D01*
X170541904Y-78619342D02*
X169741904Y-78619342D01*
X169856190Y-78695533D01*
X169932380Y-78771723D01*
X169970476Y-78847914D01*
X169741904Y-78124104D02*
X169741904Y-77628866D01*
X170046666Y-77895533D01*
X170046666Y-77781247D01*
X170084761Y-77705057D01*
X170122857Y-77666961D01*
X170199047Y-77628866D01*
X170389523Y-77628866D01*
X170465714Y-77666961D01*
X170503809Y-77705057D01*
X170541904Y-77781247D01*
X170541904Y-78009819D01*
X170503809Y-78086009D01*
X170465714Y-78124104D01*
X170541904Y-76866961D02*
X170541904Y-77324104D01*
X170541904Y-77095533D02*
X169741904Y-77095533D01*
X169856190Y-77171723D01*
X169932380Y-77247914D01*
X169970476Y-77324104D01*
X178323704Y-79729572D02*
X178895133Y-79729572D01*
X179009419Y-79767667D01*
X179085609Y-79843858D01*
X179123704Y-79958143D01*
X179123704Y-80034334D01*
X179123704Y-79348620D02*
X178323704Y-79348620D01*
X178323704Y-79043858D01*
X178361800Y-78967667D01*
X178399895Y-78929572D01*
X178476085Y-78891477D01*
X178590371Y-78891477D01*
X178666561Y-78929572D01*
X178704657Y-78967667D01*
X178742752Y-79043858D01*
X178742752Y-79348620D01*
X179123704Y-78129572D02*
X179123704Y-78586715D01*
X179123704Y-78358143D02*
X178323704Y-78358143D01*
X178437990Y-78434334D01*
X178514180Y-78510524D01*
X178552276Y-78586715D01*
X178323704Y-77862905D02*
X178323704Y-77367667D01*
X178628466Y-77634334D01*
X178628466Y-77520048D01*
X178666561Y-77443858D01*
X178704657Y-77405762D01*
X178780847Y-77367667D01*
X178971323Y-77367667D01*
X179047514Y-77405762D01*
X179085609Y-77443858D01*
X179123704Y-77520048D01*
X179123704Y-77748620D01*
X179085609Y-77824810D01*
X179047514Y-77862905D01*
X178323704Y-76872429D02*
X178323704Y-76796239D01*
X178361800Y-76720048D01*
X178399895Y-76681953D01*
X178476085Y-76643858D01*
X178628466Y-76605762D01*
X178818942Y-76605762D01*
X178971323Y-76643858D01*
X179047514Y-76681953D01*
X179085609Y-76720048D01*
X179123704Y-76796239D01*
X179123704Y-76872429D01*
X179085609Y-76948620D01*
X179047514Y-76986715D01*
X178971323Y-77024810D01*
X178818942Y-77062905D01*
X178628466Y-77062905D01*
X178476085Y-77024810D01*
X178399895Y-76986715D01*
X178361800Y-76948620D01*
X178323704Y-76872429D01*
X174672904Y-64750771D02*
X175244333Y-64750771D01*
X175358619Y-64788866D01*
X175434809Y-64865057D01*
X175472904Y-64979342D01*
X175472904Y-65055533D01*
X175472904Y-64369819D02*
X174672904Y-64369819D01*
X174672904Y-64065057D01*
X174711000Y-63988866D01*
X174749095Y-63950771D01*
X174825285Y-63912676D01*
X174939571Y-63912676D01*
X175015761Y-63950771D01*
X175053857Y-63988866D01*
X175091952Y-64065057D01*
X175091952Y-64369819D01*
X175472904Y-63150771D02*
X175472904Y-63607914D01*
X175472904Y-63379342D02*
X174672904Y-63379342D01*
X174787190Y-63455533D01*
X174863380Y-63531723D01*
X174901476Y-63607914D01*
X175472904Y-62388866D02*
X175472904Y-62846009D01*
X175472904Y-62617438D02*
X174672904Y-62617438D01*
X174787190Y-62693628D01*
X174863380Y-62769819D01*
X174901476Y-62846009D01*
X174672904Y-61893628D02*
X174672904Y-61817438D01*
X174711000Y-61741247D01*
X174749095Y-61703152D01*
X174825285Y-61665057D01*
X174977666Y-61626961D01*
X175168142Y-61626961D01*
X175320523Y-61665057D01*
X175396714Y-61703152D01*
X175434809Y-61741247D01*
X175472904Y-61817438D01*
X175472904Y-61893628D01*
X175434809Y-61969819D01*
X175396714Y-62007914D01*
X175320523Y-62046009D01*
X175168142Y-62084104D01*
X174977666Y-62084104D01*
X174825285Y-62046009D01*
X174749095Y-62007914D01*
X174711000Y-61969819D01*
X174672904Y-61893628D01*
X153384476Y-41322361D02*
X153527333Y-41369980D01*
X153765428Y-41369980D01*
X153860666Y-41322361D01*
X153908285Y-41274742D01*
X153955904Y-41179504D01*
X153955904Y-41084266D01*
X153908285Y-40989028D01*
X153860666Y-40941409D01*
X153765428Y-40893790D01*
X153574952Y-40846171D01*
X153479714Y-40798552D01*
X153432095Y-40750933D01*
X153384476Y-40655695D01*
X153384476Y-40560457D01*
X153432095Y-40465219D01*
X153479714Y-40417600D01*
X153574952Y-40369980D01*
X153813047Y-40369980D01*
X153955904Y-40417600D01*
X154289238Y-40369980D02*
X154527333Y-41369980D01*
X154717809Y-40655695D01*
X154908285Y-41369980D01*
X155146380Y-40369980D01*
X155479714Y-40465219D02*
X155527333Y-40417600D01*
X155622571Y-40369980D01*
X155860666Y-40369980D01*
X155955904Y-40417600D01*
X156003523Y-40465219D01*
X156051142Y-40560457D01*
X156051142Y-40655695D01*
X156003523Y-40798552D01*
X155432095Y-41369980D01*
X156051142Y-41369980D01*
X157003523Y-41369980D02*
X156432095Y-41369980D01*
X156717809Y-41369980D02*
X156717809Y-40369980D01*
X156622571Y-40512838D01*
X156527333Y-40608076D01*
X156432095Y-40655695D01*
X131635619Y-37814380D02*
X131302285Y-37338190D01*
X131064190Y-37814380D02*
X131064190Y-36814380D01*
X131445142Y-36814380D01*
X131540380Y-36862000D01*
X131588000Y-36909619D01*
X131635619Y-37004857D01*
X131635619Y-37147714D01*
X131588000Y-37242952D01*
X131540380Y-37290571D01*
X131445142Y-37338190D01*
X131064190Y-37338190D01*
X132064190Y-37290571D02*
X132397523Y-37290571D01*
X132540380Y-37814380D02*
X132064190Y-37814380D01*
X132064190Y-36814380D01*
X132540380Y-36814380D01*
X132921333Y-37766761D02*
X133064190Y-37814380D01*
X133302285Y-37814380D01*
X133397523Y-37766761D01*
X133445142Y-37719142D01*
X133492761Y-37623904D01*
X133492761Y-37528666D01*
X133445142Y-37433428D01*
X133397523Y-37385809D01*
X133302285Y-37338190D01*
X133111809Y-37290571D01*
X133016571Y-37242952D01*
X132968952Y-37195333D01*
X132921333Y-37100095D01*
X132921333Y-37004857D01*
X132968952Y-36909619D01*
X133016571Y-36862000D01*
X133111809Y-36814380D01*
X133349904Y-36814380D01*
X133492761Y-36862000D01*
X133921333Y-37290571D02*
X134254666Y-37290571D01*
X134397523Y-37814380D02*
X133921333Y-37814380D01*
X133921333Y-36814380D01*
X134397523Y-36814380D01*
X134683238Y-36814380D02*
X135254666Y-36814380D01*
X134968952Y-37814380D02*
X134968952Y-36814380D01*
%LPC*%
D17*
X110940000Y-88460000D03*
D18*
X109670000Y-91000000D03*
X119830000Y-91000000D03*
D19*
X120250000Y-91000000D03*
X109250000Y-91000000D03*
D20*
X114750000Y-91000000D03*
D17*
X117290000Y-85920000D03*
X114750000Y-96900000D03*
X109750000Y-94700000D03*
D21*
X122850000Y-94700000D03*
D22*
X111950000Y-96900000D03*
D17*
X119750000Y-94700000D03*
D21*
X121650000Y-88460000D03*
D17*
X112210000Y-85920000D03*
X118560000Y-88460000D03*
D21*
X109150000Y-85920000D03*
D17*
X110990000Y-69560000D03*
D18*
X109720000Y-72100000D03*
X119880000Y-72100000D03*
D19*
X120300000Y-72100000D03*
X109300000Y-72100000D03*
D20*
X114800000Y-72100000D03*
D17*
X117340000Y-67020000D03*
X114800000Y-78000000D03*
X109800000Y-75800000D03*
D21*
X122900000Y-75800000D03*
D22*
X112000000Y-78000000D03*
D17*
X119800000Y-75800000D03*
D21*
X121700000Y-69560000D03*
D17*
X112260000Y-67020000D03*
X118610000Y-69560000D03*
D21*
X109200000Y-67020000D03*
D17*
X148940000Y-93010000D03*
D18*
X147670000Y-95550000D03*
X157830000Y-95550000D03*
D19*
X158250000Y-95550000D03*
X147250000Y-95550000D03*
D20*
X152750000Y-95550000D03*
D17*
X155290000Y-90470000D03*
X152750000Y-101450000D03*
X147750000Y-99250000D03*
D21*
X160850000Y-99250000D03*
D22*
X149950000Y-101450000D03*
D17*
X157750000Y-99250000D03*
D21*
X159650000Y-93010000D03*
D17*
X150210000Y-90470000D03*
X156560000Y-93010000D03*
D21*
X147150000Y-90470000D03*
D17*
X129890000Y-64510000D03*
D18*
X128620000Y-67050000D03*
X138780000Y-67050000D03*
D19*
X139200000Y-67050000D03*
X128200000Y-67050000D03*
D20*
X133700000Y-67050000D03*
D17*
X136240000Y-61970000D03*
X133700000Y-72950000D03*
X128700000Y-70750000D03*
D21*
X141800000Y-70750000D03*
D22*
X130900000Y-72950000D03*
D17*
X138700000Y-70750000D03*
D21*
X140600000Y-64510000D03*
D17*
X131160000Y-61970000D03*
X137510000Y-64510000D03*
D21*
X128100000Y-61970000D03*
D17*
X148940000Y-112160000D03*
D18*
X147670000Y-114700000D03*
X157830000Y-114700000D03*
D19*
X158250000Y-114700000D03*
X147250000Y-114700000D03*
D20*
X152750000Y-114700000D03*
D17*
X155290000Y-109620000D03*
X152750000Y-120600000D03*
X147750000Y-118400000D03*
D21*
X160850000Y-118400000D03*
D22*
X149950000Y-120600000D03*
D17*
X157750000Y-118400000D03*
D21*
X159650000Y-112160000D03*
D17*
X150210000Y-109620000D03*
X156560000Y-112160000D03*
D21*
X147150000Y-109620000D03*
D17*
X129940000Y-112160000D03*
D18*
X128670000Y-114700000D03*
X138830000Y-114700000D03*
D19*
X139250000Y-114700000D03*
X128250000Y-114700000D03*
D20*
X133750000Y-114700000D03*
D17*
X136290000Y-109620000D03*
X133750000Y-120600000D03*
X128750000Y-118400000D03*
D21*
X141850000Y-118400000D03*
D22*
X130950000Y-120600000D03*
D17*
X138750000Y-118400000D03*
D21*
X140650000Y-112160000D03*
D17*
X131210000Y-109620000D03*
X137560000Y-112160000D03*
D21*
X128150000Y-109620000D03*
D17*
X148940000Y-74010000D03*
D18*
X147670000Y-76550000D03*
X157830000Y-76550000D03*
D19*
X158250000Y-76550000D03*
X147250000Y-76550000D03*
D20*
X152750000Y-76550000D03*
D17*
X155290000Y-71470000D03*
X152750000Y-82450000D03*
X147750000Y-80250000D03*
D21*
X160850000Y-80250000D03*
D22*
X149950000Y-82450000D03*
D17*
X157750000Y-80250000D03*
D21*
X159650000Y-74010000D03*
D17*
X150210000Y-71470000D03*
X156560000Y-74010000D03*
D21*
X147150000Y-71470000D03*
D17*
X91790000Y-79060000D03*
D18*
X90520000Y-81600000D03*
X100680000Y-81600000D03*
D19*
X101100000Y-81600000D03*
X90100000Y-81600000D03*
D20*
X95600000Y-81600000D03*
D17*
X98140000Y-76520000D03*
X95600000Y-87500000D03*
X90600000Y-85300000D03*
D21*
X103700000Y-85300000D03*
D22*
X92800000Y-87500000D03*
D17*
X100600000Y-85300000D03*
D21*
X102500000Y-79060000D03*
D17*
X93060000Y-76520000D03*
X99410000Y-79060000D03*
D21*
X90000000Y-76520000D03*
D17*
X129940000Y-83510000D03*
D18*
X128670000Y-86050000D03*
X138830000Y-86050000D03*
D19*
X139250000Y-86050000D03*
X128250000Y-86050000D03*
D20*
X133750000Y-86050000D03*
D17*
X136290000Y-80970000D03*
X133750000Y-91950000D03*
X128750000Y-89750000D03*
D21*
X141850000Y-89750000D03*
D22*
X130950000Y-91950000D03*
D17*
X138750000Y-89750000D03*
D21*
X140650000Y-83510000D03*
D17*
X131210000Y-80970000D03*
X137560000Y-83510000D03*
D21*
X128150000Y-80970000D03*
D17*
X110890000Y-112160000D03*
D18*
X109620000Y-114700000D03*
X119780000Y-114700000D03*
D19*
X120200000Y-114700000D03*
X109200000Y-114700000D03*
D20*
X114700000Y-114700000D03*
D17*
X117240000Y-109620000D03*
X114700000Y-120600000D03*
X109700000Y-118400000D03*
D21*
X122800000Y-118400000D03*
D22*
X111900000Y-120600000D03*
D17*
X119700000Y-118400000D03*
D21*
X121600000Y-112160000D03*
D17*
X112160000Y-109620000D03*
X118510000Y-112160000D03*
D21*
X109100000Y-109620000D03*
D17*
X171227223Y-109160448D03*
D18*
X169343097Y-111285199D03*
X179156903Y-113914801D03*
D19*
X179562592Y-114023505D03*
X168937408Y-111176495D03*
D20*
X174250000Y-112600000D03*
D17*
X178018252Y-108350497D03*
X172722968Y-118298962D03*
X168462740Y-114879830D03*
D23*
X181116369Y-118270360D03*
D12*
G36*
X182403576Y-117527191D02*
G01*
X181859538Y-119557567D01*
X179829162Y-119013529D01*
X180373200Y-116983153D01*
X182403576Y-117527191D01*
X182403576Y-117527191D01*
G37*
D24*
X170018375Y-117574269D03*
D12*
G36*
X171208989Y-116805218D02*
G01*
X170664952Y-118835594D01*
X168827761Y-118343320D01*
X169371798Y-116312944D01*
X171208989Y-116805218D01*
X171208989Y-116805218D01*
G37*
D17*
X178121999Y-117468021D03*
D23*
X181572289Y-111932400D03*
D12*
G36*
X182859496Y-111189231D02*
G01*
X182315458Y-113219607D01*
X180285082Y-112675569D01*
X180829120Y-110645193D01*
X182859496Y-111189231D01*
X182859496Y-111189231D01*
G37*
D17*
X173111349Y-107035696D03*
X178587578Y-111132649D03*
D23*
X170155616Y-106243710D03*
D12*
G36*
X171442823Y-105500541D02*
G01*
X170898785Y-107530917D01*
X168868409Y-106986879D01*
X169412447Y-104956503D01*
X171442823Y-105500541D01*
X171442823Y-105500541D01*
G37*
D17*
X91750000Y-98140000D03*
D18*
X90480000Y-100680000D03*
X100640000Y-100680000D03*
D19*
X101060000Y-100680000D03*
X90060000Y-100680000D03*
D20*
X95560000Y-100680000D03*
D17*
X98100000Y-95600000D03*
X95560000Y-106580000D03*
X90560000Y-104380000D03*
D21*
X103660000Y-104380000D03*
D22*
X92760000Y-106580000D03*
D17*
X100560000Y-104380000D03*
D21*
X102460000Y-98140000D03*
D17*
X93020000Y-95600000D03*
X99370000Y-98140000D03*
D21*
X89960000Y-95600000D03*
D25*
X92342000Y-39500000D03*
X94882000Y-39500000D03*
X97422000Y-39500000D03*
X99962000Y-39500000D03*
X102502000Y-39500000D03*
X105042000Y-39500000D03*
X107582000Y-39500000D03*
X110122000Y-39500000D03*
X112662000Y-39500000D03*
X115202000Y-39500000D03*
X117742000Y-39500000D03*
X120282000Y-39500000D03*
X120282000Y-54740000D03*
X117742000Y-54740000D03*
X115202000Y-54740000D03*
X112662000Y-54740000D03*
X110122000Y-54740000D03*
X107582000Y-54740000D03*
X105042000Y-54740000D03*
X102502000Y-54740000D03*
X99962000Y-54740000D03*
X97422000Y-54740000D03*
X94882000Y-54740000D03*
X92342000Y-54740000D03*
X91072000Y-38193600D03*
X93612000Y-38193600D03*
X96152000Y-38193600D03*
X98692000Y-38193600D03*
X101232000Y-38193600D03*
X103772000Y-38193600D03*
X106312000Y-38193600D03*
X108852000Y-38193600D03*
X111392000Y-38193600D03*
X113932000Y-38193600D03*
X116472000Y-38193600D03*
X119012000Y-38193600D03*
X119012000Y-53413600D03*
X116472000Y-53413600D03*
X113932000Y-53413600D03*
X111392000Y-53413600D03*
X108852000Y-53413600D03*
X106312000Y-53413600D03*
X103772000Y-53413600D03*
X101232000Y-53413600D03*
X98692000Y-53413600D03*
X96152000Y-53413600D03*
X93612000Y-53413600D03*
X91072000Y-53413600D03*
D26*
X126974600Y-50092100D03*
D27*
X126974600Y-47552100D03*
X126974600Y-45012100D03*
X126974600Y-42472100D03*
D28*
X95123000Y-49466200D03*
D12*
G36*
X94322980Y-48956250D02*
G01*
X94325882Y-48946683D01*
X94330595Y-48937866D01*
X94336938Y-48930138D01*
X94344710Y-48923765D01*
X95094710Y-48423765D01*
X95103532Y-48419062D01*
X95113103Y-48416170D01*
X95123053Y-48415200D01*
X95133002Y-48416190D01*
X95142566Y-48419103D01*
X95151290Y-48423765D01*
X95901290Y-48923765D01*
X95909025Y-48930100D01*
X95915375Y-48937822D01*
X95920097Y-48946634D01*
X95923010Y-48956198D01*
X95924000Y-48966200D01*
X95924000Y-49966200D01*
X95923020Y-49976150D01*
X95920118Y-49985717D01*
X95915405Y-49994534D01*
X95909062Y-50002262D01*
X95901334Y-50008605D01*
X95892517Y-50013318D01*
X95882950Y-50016220D01*
X95873000Y-50017200D01*
X94373000Y-50017200D01*
X94363050Y-50016220D01*
X94353483Y-50013318D01*
X94344666Y-50008605D01*
X94336938Y-50002262D01*
X94330595Y-49994534D01*
X94325882Y-49985717D01*
X94322980Y-49976150D01*
X94322000Y-49966200D01*
X94322000Y-48966200D01*
X94322980Y-48956250D01*
X94322980Y-48956250D01*
G37*
D28*
X95123000Y-48016200D03*
D12*
G36*
X94322980Y-47506250D02*
G01*
X94325882Y-47496683D01*
X94330595Y-47487866D01*
X94336938Y-47480138D01*
X94344666Y-47473795D01*
X94353483Y-47469082D01*
X94363050Y-47466180D01*
X94373000Y-47465200D01*
X95873000Y-47465200D01*
X95882950Y-47466180D01*
X95892517Y-47469082D01*
X95901334Y-47473795D01*
X95909062Y-47480138D01*
X95915405Y-47487866D01*
X95920118Y-47496683D01*
X95923020Y-47506250D01*
X95924000Y-47516200D01*
X95924000Y-48666200D01*
X95923020Y-48676150D01*
X95920118Y-48685717D01*
X95915405Y-48694534D01*
X95909062Y-48702262D01*
X95901334Y-48708605D01*
X95892517Y-48713318D01*
X95882950Y-48716220D01*
X95873000Y-48717200D01*
X95863050Y-48716220D01*
X95853483Y-48713318D01*
X95844710Y-48708635D01*
X95123000Y-48227495D01*
X94401290Y-48708635D01*
X94392468Y-48713338D01*
X94382897Y-48716230D01*
X94372947Y-48717200D01*
X94362998Y-48716210D01*
X94353434Y-48713297D01*
X94344622Y-48708575D01*
X94336900Y-48702225D01*
X94330565Y-48694490D01*
X94325862Y-48685668D01*
X94322970Y-48676097D01*
X94322000Y-48666200D01*
X94322000Y-47516200D01*
X94322980Y-47506250D01*
X94322980Y-47506250D01*
G37*
D28*
X95123000Y-44714200D03*
D12*
G36*
X95923020Y-45224150D02*
G01*
X95920118Y-45233717D01*
X95915405Y-45242534D01*
X95909062Y-45250262D01*
X95901290Y-45256635D01*
X95151290Y-45756635D01*
X95142468Y-45761338D01*
X95132897Y-45764230D01*
X95122947Y-45765200D01*
X95112998Y-45764210D01*
X95103434Y-45761297D01*
X95094710Y-45756635D01*
X94344710Y-45256635D01*
X94336975Y-45250300D01*
X94330625Y-45242578D01*
X94325903Y-45233766D01*
X94322990Y-45224202D01*
X94322000Y-45214200D01*
X94322000Y-44214200D01*
X94322980Y-44204250D01*
X94325882Y-44194683D01*
X94330595Y-44185866D01*
X94336938Y-44178138D01*
X94344666Y-44171795D01*
X94353483Y-44167082D01*
X94363050Y-44164180D01*
X94373000Y-44163200D01*
X95873000Y-44163200D01*
X95882950Y-44164180D01*
X95892517Y-44167082D01*
X95901334Y-44171795D01*
X95909062Y-44178138D01*
X95915405Y-44185866D01*
X95920118Y-44194683D01*
X95923020Y-44204250D01*
X95924000Y-44214200D01*
X95924000Y-45214200D01*
X95923020Y-45224150D01*
X95923020Y-45224150D01*
G37*
D28*
X95123000Y-46164200D03*
D12*
G36*
X95923020Y-46674150D02*
G01*
X95920118Y-46683717D01*
X95915405Y-46692534D01*
X95909062Y-46700262D01*
X95901334Y-46706605D01*
X95892517Y-46711318D01*
X95882950Y-46714220D01*
X95873000Y-46715200D01*
X94373000Y-46715200D01*
X94363050Y-46714220D01*
X94353483Y-46711318D01*
X94344666Y-46706605D01*
X94336938Y-46700262D01*
X94330595Y-46692534D01*
X94325882Y-46683717D01*
X94322980Y-46674150D01*
X94322000Y-46664200D01*
X94322000Y-45514200D01*
X94322980Y-45504250D01*
X94325882Y-45494683D01*
X94330595Y-45485866D01*
X94336938Y-45478138D01*
X94344666Y-45471795D01*
X94353483Y-45467082D01*
X94363050Y-45464180D01*
X94373000Y-45463200D01*
X94382950Y-45464180D01*
X94392517Y-45467082D01*
X94401290Y-45471765D01*
X95123000Y-45952905D01*
X95844710Y-45471765D01*
X95853532Y-45467062D01*
X95863103Y-45464170D01*
X95873053Y-45463200D01*
X95883002Y-45464190D01*
X95892566Y-45467103D01*
X95901378Y-45471825D01*
X95909100Y-45478175D01*
X95915435Y-45485910D01*
X95920138Y-45494732D01*
X95923030Y-45504303D01*
X95924000Y-45514200D01*
X95924000Y-46664200D01*
X95923020Y-46674150D01*
X95923020Y-46674150D01*
G37*
D28*
X122846000Y-50130200D03*
D12*
G36*
X123355950Y-49330180D02*
G01*
X123365517Y-49333082D01*
X123374334Y-49337795D01*
X123382062Y-49344138D01*
X123388435Y-49351910D01*
X123888435Y-50101910D01*
X123893138Y-50110732D01*
X123896030Y-50120303D01*
X123897000Y-50130253D01*
X123896010Y-50140202D01*
X123893097Y-50149766D01*
X123888435Y-50158490D01*
X123388435Y-50908490D01*
X123382100Y-50916225D01*
X123374378Y-50922575D01*
X123365566Y-50927297D01*
X123356002Y-50930210D01*
X123346000Y-50931200D01*
X122346000Y-50931200D01*
X122336050Y-50930220D01*
X122326483Y-50927318D01*
X122317666Y-50922605D01*
X122309938Y-50916262D01*
X122303595Y-50908534D01*
X122298882Y-50899717D01*
X122295980Y-50890150D01*
X122295000Y-50880200D01*
X122295000Y-49380200D01*
X122295980Y-49370250D01*
X122298882Y-49360683D01*
X122303595Y-49351866D01*
X122309938Y-49344138D01*
X122317666Y-49337795D01*
X122326483Y-49333082D01*
X122336050Y-49330180D01*
X122346000Y-49329200D01*
X123346000Y-49329200D01*
X123355950Y-49330180D01*
X123355950Y-49330180D01*
G37*
D28*
X124296000Y-50130200D03*
D12*
G36*
X124805950Y-49330180D02*
G01*
X124815517Y-49333082D01*
X124824334Y-49337795D01*
X124832062Y-49344138D01*
X124838405Y-49351866D01*
X124843118Y-49360683D01*
X124846020Y-49370250D01*
X124847000Y-49380200D01*
X124847000Y-50880200D01*
X124846020Y-50890150D01*
X124843118Y-50899717D01*
X124838405Y-50908534D01*
X124832062Y-50916262D01*
X124824334Y-50922605D01*
X124815517Y-50927318D01*
X124805950Y-50930220D01*
X124796000Y-50931200D01*
X123646000Y-50931200D01*
X123636050Y-50930220D01*
X123626483Y-50927318D01*
X123617666Y-50922605D01*
X123609938Y-50916262D01*
X123603595Y-50908534D01*
X123598882Y-50899717D01*
X123595980Y-50890150D01*
X123595000Y-50880200D01*
X123595980Y-50870250D01*
X123598882Y-50860683D01*
X123603565Y-50851910D01*
X124084705Y-50130200D01*
X123603565Y-49408490D01*
X123598862Y-49399668D01*
X123595970Y-49390097D01*
X123595000Y-49380147D01*
X123595990Y-49370198D01*
X123598903Y-49360634D01*
X123603625Y-49351822D01*
X123609975Y-49344100D01*
X123617710Y-49337765D01*
X123626532Y-49333062D01*
X123636103Y-49330170D01*
X123646000Y-49329200D01*
X124796000Y-49329200D01*
X124805950Y-49330180D01*
X124805950Y-49330180D01*
G37*
D28*
X122846000Y-47590200D03*
D12*
G36*
X123355950Y-46790180D02*
G01*
X123365517Y-46793082D01*
X123374334Y-46797795D01*
X123382062Y-46804138D01*
X123388435Y-46811910D01*
X123888435Y-47561910D01*
X123893138Y-47570732D01*
X123896030Y-47580303D01*
X123897000Y-47590253D01*
X123896010Y-47600202D01*
X123893097Y-47609766D01*
X123888435Y-47618490D01*
X123388435Y-48368490D01*
X123382100Y-48376225D01*
X123374378Y-48382575D01*
X123365566Y-48387297D01*
X123356002Y-48390210D01*
X123346000Y-48391200D01*
X122346000Y-48391200D01*
X122336050Y-48390220D01*
X122326483Y-48387318D01*
X122317666Y-48382605D01*
X122309938Y-48376262D01*
X122303595Y-48368534D01*
X122298882Y-48359717D01*
X122295980Y-48350150D01*
X122295000Y-48340200D01*
X122295000Y-46840200D01*
X122295980Y-46830250D01*
X122298882Y-46820683D01*
X122303595Y-46811866D01*
X122309938Y-46804138D01*
X122317666Y-46797795D01*
X122326483Y-46793082D01*
X122336050Y-46790180D01*
X122346000Y-46789200D01*
X123346000Y-46789200D01*
X123355950Y-46790180D01*
X123355950Y-46790180D01*
G37*
D28*
X124296000Y-47590200D03*
D12*
G36*
X124805950Y-46790180D02*
G01*
X124815517Y-46793082D01*
X124824334Y-46797795D01*
X124832062Y-46804138D01*
X124838405Y-46811866D01*
X124843118Y-46820683D01*
X124846020Y-46830250D01*
X124847000Y-46840200D01*
X124847000Y-48340200D01*
X124846020Y-48350150D01*
X124843118Y-48359717D01*
X124838405Y-48368534D01*
X124832062Y-48376262D01*
X124824334Y-48382605D01*
X124815517Y-48387318D01*
X124805950Y-48390220D01*
X124796000Y-48391200D01*
X123646000Y-48391200D01*
X123636050Y-48390220D01*
X123626483Y-48387318D01*
X123617666Y-48382605D01*
X123609938Y-48376262D01*
X123603595Y-48368534D01*
X123598882Y-48359717D01*
X123595980Y-48350150D01*
X123595000Y-48340200D01*
X123595980Y-48330250D01*
X123598882Y-48320683D01*
X123603565Y-48311910D01*
X124084705Y-47590200D01*
X123603565Y-46868490D01*
X123598862Y-46859668D01*
X123595970Y-46850097D01*
X123595000Y-46840147D01*
X123595990Y-46830198D01*
X123598903Y-46820634D01*
X123603625Y-46811822D01*
X123609975Y-46804100D01*
X123617710Y-46797765D01*
X123626532Y-46793062D01*
X123636103Y-46790170D01*
X123646000Y-46789200D01*
X124796000Y-46789200D01*
X124805950Y-46790180D01*
X124805950Y-46790180D01*
G37*
D28*
X122846000Y-45050200D03*
D12*
G36*
X123355950Y-44250180D02*
G01*
X123365517Y-44253082D01*
X123374334Y-44257795D01*
X123382062Y-44264138D01*
X123388435Y-44271910D01*
X123888435Y-45021910D01*
X123893138Y-45030732D01*
X123896030Y-45040303D01*
X123897000Y-45050253D01*
X123896010Y-45060202D01*
X123893097Y-45069766D01*
X123888435Y-45078490D01*
X123388435Y-45828490D01*
X123382100Y-45836225D01*
X123374378Y-45842575D01*
X123365566Y-45847297D01*
X123356002Y-45850210D01*
X123346000Y-45851200D01*
X122346000Y-45851200D01*
X122336050Y-45850220D01*
X122326483Y-45847318D01*
X122317666Y-45842605D01*
X122309938Y-45836262D01*
X122303595Y-45828534D01*
X122298882Y-45819717D01*
X122295980Y-45810150D01*
X122295000Y-45800200D01*
X122295000Y-44300200D01*
X122295980Y-44290250D01*
X122298882Y-44280683D01*
X122303595Y-44271866D01*
X122309938Y-44264138D01*
X122317666Y-44257795D01*
X122326483Y-44253082D01*
X122336050Y-44250180D01*
X122346000Y-44249200D01*
X123346000Y-44249200D01*
X123355950Y-44250180D01*
X123355950Y-44250180D01*
G37*
D28*
X124296000Y-45050200D03*
D12*
G36*
X124805950Y-44250180D02*
G01*
X124815517Y-44253082D01*
X124824334Y-44257795D01*
X124832062Y-44264138D01*
X124838405Y-44271866D01*
X124843118Y-44280683D01*
X124846020Y-44290250D01*
X124847000Y-44300200D01*
X124847000Y-45800200D01*
X124846020Y-45810150D01*
X124843118Y-45819717D01*
X124838405Y-45828534D01*
X124832062Y-45836262D01*
X124824334Y-45842605D01*
X124815517Y-45847318D01*
X124805950Y-45850220D01*
X124796000Y-45851200D01*
X123646000Y-45851200D01*
X123636050Y-45850220D01*
X123626483Y-45847318D01*
X123617666Y-45842605D01*
X123609938Y-45836262D01*
X123603595Y-45828534D01*
X123598882Y-45819717D01*
X123595980Y-45810150D01*
X123595000Y-45800200D01*
X123595980Y-45790250D01*
X123598882Y-45780683D01*
X123603565Y-45771910D01*
X124084705Y-45050200D01*
X123603565Y-44328490D01*
X123598862Y-44319668D01*
X123595970Y-44310097D01*
X123595000Y-44300147D01*
X123595990Y-44290198D01*
X123598903Y-44280634D01*
X123603625Y-44271822D01*
X123609975Y-44264100D01*
X123617710Y-44257765D01*
X123626532Y-44253062D01*
X123636103Y-44250170D01*
X123646000Y-44249200D01*
X124796000Y-44249200D01*
X124805950Y-44250180D01*
X124805950Y-44250180D01*
G37*
D28*
X122846000Y-42510200D03*
D12*
G36*
X123355950Y-41710180D02*
G01*
X123365517Y-41713082D01*
X123374334Y-41717795D01*
X123382062Y-41724138D01*
X123388435Y-41731910D01*
X123888435Y-42481910D01*
X123893138Y-42490732D01*
X123896030Y-42500303D01*
X123897000Y-42510253D01*
X123896010Y-42520202D01*
X123893097Y-42529766D01*
X123888435Y-42538490D01*
X123388435Y-43288490D01*
X123382100Y-43296225D01*
X123374378Y-43302575D01*
X123365566Y-43307297D01*
X123356002Y-43310210D01*
X123346000Y-43311200D01*
X122346000Y-43311200D01*
X122336050Y-43310220D01*
X122326483Y-43307318D01*
X122317666Y-43302605D01*
X122309938Y-43296262D01*
X122303595Y-43288534D01*
X122298882Y-43279717D01*
X122295980Y-43270150D01*
X122295000Y-43260200D01*
X122295000Y-41760200D01*
X122295980Y-41750250D01*
X122298882Y-41740683D01*
X122303595Y-41731866D01*
X122309938Y-41724138D01*
X122317666Y-41717795D01*
X122326483Y-41713082D01*
X122336050Y-41710180D01*
X122346000Y-41709200D01*
X123346000Y-41709200D01*
X123355950Y-41710180D01*
X123355950Y-41710180D01*
G37*
D28*
X124296000Y-42510200D03*
D12*
G36*
X124805950Y-41710180D02*
G01*
X124815517Y-41713082D01*
X124824334Y-41717795D01*
X124832062Y-41724138D01*
X124838405Y-41731866D01*
X124843118Y-41740683D01*
X124846020Y-41750250D01*
X124847000Y-41760200D01*
X124847000Y-43260200D01*
X124846020Y-43270150D01*
X124843118Y-43279717D01*
X124838405Y-43288534D01*
X124832062Y-43296262D01*
X124824334Y-43302605D01*
X124815517Y-43307318D01*
X124805950Y-43310220D01*
X124796000Y-43311200D01*
X123646000Y-43311200D01*
X123636050Y-43310220D01*
X123626483Y-43307318D01*
X123617666Y-43302605D01*
X123609938Y-43296262D01*
X123603595Y-43288534D01*
X123598882Y-43279717D01*
X123595980Y-43270150D01*
X123595000Y-43260200D01*
X123595980Y-43250250D01*
X123598882Y-43240683D01*
X123603565Y-43231910D01*
X124084705Y-42510200D01*
X123603565Y-41788490D01*
X123598862Y-41779668D01*
X123595970Y-41770097D01*
X123595000Y-41760147D01*
X123595990Y-41750198D01*
X123598903Y-41740634D01*
X123603625Y-41731822D01*
X123609975Y-41724100D01*
X123617710Y-41717765D01*
X123626532Y-41713062D01*
X123636103Y-41710170D01*
X123646000Y-41709200D01*
X124796000Y-41709200D01*
X124805950Y-41710180D01*
X124805950Y-41710180D01*
G37*
D29*
X159128000Y-50900200D03*
X155578000Y-50900200D03*
X159128000Y-53186200D03*
X155578000Y-53186200D03*
D30*
X183688000Y-45760000D03*
X159688000Y-45760000D03*
D24*
X183041800Y-47060000D03*
X183041800Y-44460000D03*
X160388000Y-45710000D03*
D23*
X171900000Y-73600000D03*
X176900000Y-73600000D03*
D31*
X168800000Y-66600000D03*
X180000000Y-66600000D03*
D23*
X171900000Y-59100000D03*
X174400000Y-59100000D03*
D21*
X176900000Y-59100000D03*
D28*
X171958000Y-63513800D03*
D12*
G36*
X171157980Y-63003850D02*
G01*
X171160882Y-62994283D01*
X171165595Y-62985466D01*
X171171938Y-62977738D01*
X171179710Y-62971365D01*
X171929710Y-62471365D01*
X171938532Y-62466662D01*
X171948103Y-62463770D01*
X171958053Y-62462800D01*
X171968002Y-62463790D01*
X171977566Y-62466703D01*
X171986290Y-62471365D01*
X172736290Y-62971365D01*
X172744025Y-62977700D01*
X172750375Y-62985422D01*
X172755097Y-62994234D01*
X172758010Y-63003798D01*
X172759000Y-63013800D01*
X172759000Y-64013800D01*
X172758020Y-64023750D01*
X172755118Y-64033317D01*
X172750405Y-64042134D01*
X172744062Y-64049862D01*
X172736334Y-64056205D01*
X172727517Y-64060918D01*
X172717950Y-64063820D01*
X172708000Y-64064800D01*
X171208000Y-64064800D01*
X171198050Y-64063820D01*
X171188483Y-64060918D01*
X171179666Y-64056205D01*
X171171938Y-64049862D01*
X171165595Y-64042134D01*
X171160882Y-64033317D01*
X171157980Y-64023750D01*
X171157000Y-64013800D01*
X171157000Y-63013800D01*
X171157980Y-63003850D01*
X171157980Y-63003850D01*
G37*
D28*
X171958000Y-62063800D03*
D12*
G36*
X171157980Y-61553850D02*
G01*
X171160882Y-61544283D01*
X171165595Y-61535466D01*
X171171938Y-61527738D01*
X171179666Y-61521395D01*
X171188483Y-61516682D01*
X171198050Y-61513780D01*
X171208000Y-61512800D01*
X172708000Y-61512800D01*
X172717950Y-61513780D01*
X172727517Y-61516682D01*
X172736334Y-61521395D01*
X172744062Y-61527738D01*
X172750405Y-61535466D01*
X172755118Y-61544283D01*
X172758020Y-61553850D01*
X172759000Y-61563800D01*
X172759000Y-62713800D01*
X172758020Y-62723750D01*
X172755118Y-62733317D01*
X172750405Y-62742134D01*
X172744062Y-62749862D01*
X172736334Y-62756205D01*
X172727517Y-62760918D01*
X172717950Y-62763820D01*
X172708000Y-62764800D01*
X172698050Y-62763820D01*
X172688483Y-62760918D01*
X172679710Y-62756235D01*
X171958000Y-62275095D01*
X171236290Y-62756235D01*
X171227468Y-62760938D01*
X171217897Y-62763830D01*
X171207947Y-62764800D01*
X171197998Y-62763810D01*
X171188434Y-62760897D01*
X171179622Y-62756175D01*
X171171900Y-62749825D01*
X171165565Y-62742090D01*
X171160862Y-62733268D01*
X171157970Y-62723697D01*
X171157000Y-62713800D01*
X171157000Y-61563800D01*
X171157980Y-61553850D01*
X171157980Y-61553850D01*
G37*
D30*
X155240000Y-45760000D03*
X131240000Y-45760000D03*
D24*
X154593800Y-47060000D03*
X154593800Y-44460000D03*
X131940000Y-45710000D03*
D32*
X89797000Y-54710200D03*
X89797000Y-39470200D03*
D33*
X156694000Y-37387600D03*
X153694000Y-37387600D03*
D34*
X166141400Y-91109800D03*
D35*
X166141400Y-98729800D03*
D36*
X166141400Y-96694800D03*
X166141400Y-93144800D03*
D34*
X166141400Y-78384400D03*
D35*
X166141400Y-86004400D03*
D36*
X166141400Y-83969400D03*
X166141400Y-80419400D03*
D34*
X163550600Y-91109800D03*
D35*
X163550600Y-98729800D03*
D36*
X163550600Y-96694800D03*
X163550600Y-93144800D03*
D34*
X153035000Y-105232200D03*
D35*
X160655000Y-105232200D03*
D29*
X158620000Y-105232200D03*
X155070000Y-105232200D03*
D34*
X134239000Y-99212400D03*
D35*
X141859000Y-99212400D03*
D29*
X139824000Y-99212400D03*
X136274000Y-99212400D03*
D34*
X153238200Y-86029800D03*
D35*
X160858200Y-86029800D03*
D29*
X158823200Y-86029800D03*
X155273200Y-86029800D03*
D34*
X134239000Y-105410000D03*
D35*
X141859000Y-105410000D03*
D29*
X139824000Y-105410000D03*
X136274000Y-105410000D03*
D34*
X134239000Y-95961200D03*
D35*
X141859000Y-95961200D03*
D29*
X139824000Y-95961200D03*
X136274000Y-95961200D03*
D34*
X134239000Y-76758800D03*
D35*
X141859000Y-76758800D03*
D29*
X139824000Y-76758800D03*
X136274000Y-76758800D03*
D34*
X115239800Y-105892600D03*
D35*
X122859800Y-105892600D03*
D29*
X120824800Y-105892600D03*
X117274800Y-105892600D03*
D34*
X115239800Y-100939600D03*
D35*
X122859800Y-100939600D03*
D29*
X120824800Y-100939600D03*
X117274800Y-100939600D03*
D34*
X115239800Y-81686400D03*
D35*
X122859800Y-81686400D03*
D29*
X120824800Y-81686400D03*
X117274800Y-81686400D03*
D34*
X90906600Y-110566200D03*
D35*
X98526600Y-110566200D03*
D29*
X96491600Y-110566200D03*
X92941600Y-110566200D03*
D34*
X96088200Y-91338400D03*
D35*
X103708200Y-91338400D03*
D29*
X101673200Y-91338400D03*
X98123200Y-91338400D03*
D12*
G36*
X164847468Y-37348495D02*
G01*
X164873569Y-37352367D01*
X164899166Y-37358778D01*
X164924011Y-37367668D01*
X164947865Y-37378950D01*
X164970498Y-37392516D01*
X164991693Y-37408235D01*
X165011245Y-37425955D01*
X165028965Y-37445507D01*
X165044684Y-37466702D01*
X165058250Y-37489335D01*
X165069532Y-37513189D01*
X165078422Y-37538034D01*
X165084833Y-37563631D01*
X165088705Y-37589732D01*
X165090000Y-37616088D01*
X165090000Y-38530312D01*
X165088705Y-38556668D01*
X165084833Y-38582769D01*
X165078422Y-38608366D01*
X165069532Y-38633211D01*
X165058250Y-38657065D01*
X165044684Y-38679698D01*
X165028965Y-38700893D01*
X165011245Y-38720445D01*
X164991693Y-38738165D01*
X164970498Y-38753884D01*
X164947865Y-38767450D01*
X164924011Y-38778732D01*
X164899166Y-38787622D01*
X164873569Y-38794033D01*
X164847468Y-38797905D01*
X164821112Y-38799200D01*
X163681888Y-38799200D01*
X163655532Y-38797905D01*
X163629431Y-38794033D01*
X163603834Y-38787622D01*
X163578989Y-38778732D01*
X163555135Y-38767450D01*
X163532502Y-38753884D01*
X163511307Y-38738165D01*
X163491755Y-38720445D01*
X163474035Y-38700893D01*
X163458316Y-38679698D01*
X163444750Y-38657065D01*
X163433468Y-38633211D01*
X163424578Y-38608366D01*
X163418167Y-38582769D01*
X163414295Y-38556668D01*
X163413000Y-38530312D01*
X163413000Y-37616088D01*
X163414295Y-37589732D01*
X163418167Y-37563631D01*
X163424578Y-37538034D01*
X163433468Y-37513189D01*
X163444750Y-37489335D01*
X163458316Y-37466702D01*
X163474035Y-37445507D01*
X163491755Y-37425955D01*
X163511307Y-37408235D01*
X163532502Y-37392516D01*
X163555135Y-37378950D01*
X163578989Y-37367668D01*
X163603834Y-37358778D01*
X163629431Y-37352367D01*
X163655532Y-37348495D01*
X163681888Y-37347200D01*
X164821112Y-37347200D01*
X164847468Y-37348495D01*
X164847468Y-37348495D01*
G37*
D37*
X164251500Y-38073200D03*
D12*
G36*
X161972468Y-37348495D02*
G01*
X161998569Y-37352367D01*
X162024166Y-37358778D01*
X162049011Y-37367668D01*
X162072865Y-37378950D01*
X162095498Y-37392516D01*
X162116693Y-37408235D01*
X162136245Y-37425955D01*
X162153965Y-37445507D01*
X162169684Y-37466702D01*
X162183250Y-37489335D01*
X162194532Y-37513189D01*
X162203422Y-37538034D01*
X162209833Y-37563631D01*
X162213705Y-37589732D01*
X162215000Y-37616088D01*
X162215000Y-38530312D01*
X162213705Y-38556668D01*
X162209833Y-38582769D01*
X162203422Y-38608366D01*
X162194532Y-38633211D01*
X162183250Y-38657065D01*
X162169684Y-38679698D01*
X162153965Y-38700893D01*
X162136245Y-38720445D01*
X162116693Y-38738165D01*
X162095498Y-38753884D01*
X162072865Y-38767450D01*
X162049011Y-38778732D01*
X162024166Y-38787622D01*
X161998569Y-38794033D01*
X161972468Y-38797905D01*
X161946112Y-38799200D01*
X160806888Y-38799200D01*
X160780532Y-38797905D01*
X160754431Y-38794033D01*
X160728834Y-38787622D01*
X160703989Y-38778732D01*
X160680135Y-38767450D01*
X160657502Y-38753884D01*
X160636307Y-38738165D01*
X160616755Y-38720445D01*
X160599035Y-38700893D01*
X160583316Y-38679698D01*
X160569750Y-38657065D01*
X160558468Y-38633211D01*
X160549578Y-38608366D01*
X160543167Y-38582769D01*
X160539295Y-38556668D01*
X160538000Y-38530312D01*
X160538000Y-37616088D01*
X160539295Y-37589732D01*
X160543167Y-37563631D01*
X160549578Y-37538034D01*
X160558468Y-37513189D01*
X160569750Y-37489335D01*
X160583316Y-37466702D01*
X160599035Y-37445507D01*
X160616755Y-37425955D01*
X160636307Y-37408235D01*
X160657502Y-37392516D01*
X160680135Y-37378950D01*
X160703989Y-37367668D01*
X160728834Y-37358778D01*
X160754431Y-37352367D01*
X160780532Y-37348495D01*
X160806888Y-37347200D01*
X161946112Y-37347200D01*
X161972468Y-37348495D01*
X161972468Y-37348495D01*
G37*
D37*
X161376500Y-38073200D03*
D28*
X172034200Y-77623501D03*
D12*
G36*
X172834220Y-78133451D02*
G01*
X172831318Y-78143018D01*
X172826605Y-78151835D01*
X172820262Y-78159563D01*
X172812490Y-78165936D01*
X172062490Y-78665936D01*
X172053668Y-78670639D01*
X172044097Y-78673531D01*
X172034147Y-78674501D01*
X172024198Y-78673511D01*
X172014634Y-78670598D01*
X172005910Y-78665936D01*
X171255910Y-78165936D01*
X171248175Y-78159601D01*
X171241825Y-78151879D01*
X171237103Y-78143067D01*
X171234190Y-78133503D01*
X171233200Y-78123501D01*
X171233200Y-77123501D01*
X171234180Y-77113551D01*
X171237082Y-77103984D01*
X171241795Y-77095167D01*
X171248138Y-77087439D01*
X171255866Y-77081096D01*
X171264683Y-77076383D01*
X171274250Y-77073481D01*
X171284200Y-77072501D01*
X172784200Y-77072501D01*
X172794150Y-77073481D01*
X172803717Y-77076383D01*
X172812534Y-77081096D01*
X172820262Y-77087439D01*
X172826605Y-77095167D01*
X172831318Y-77103984D01*
X172834220Y-77113551D01*
X172835200Y-77123501D01*
X172835200Y-78123501D01*
X172834220Y-78133451D01*
X172834220Y-78133451D01*
G37*
D28*
X172034200Y-79073501D03*
D12*
G36*
X172834220Y-79583451D02*
G01*
X172831318Y-79593018D01*
X172826605Y-79601835D01*
X172820262Y-79609563D01*
X172812534Y-79615906D01*
X172803717Y-79620619D01*
X172794150Y-79623521D01*
X172784200Y-79624501D01*
X171284200Y-79624501D01*
X171274250Y-79623521D01*
X171264683Y-79620619D01*
X171255866Y-79615906D01*
X171248138Y-79609563D01*
X171241795Y-79601835D01*
X171237082Y-79593018D01*
X171234180Y-79583451D01*
X171233200Y-79573501D01*
X171233200Y-78423501D01*
X171234180Y-78413551D01*
X171237082Y-78403984D01*
X171241795Y-78395167D01*
X171248138Y-78387439D01*
X171255866Y-78381096D01*
X171264683Y-78376383D01*
X171274250Y-78373481D01*
X171284200Y-78372501D01*
X171294150Y-78373481D01*
X171303717Y-78376383D01*
X171312490Y-78381066D01*
X172034200Y-78862206D01*
X172755910Y-78381066D01*
X172764732Y-78376363D01*
X172774303Y-78373471D01*
X172784253Y-78372501D01*
X172794202Y-78373491D01*
X172803766Y-78376404D01*
X172812578Y-78381126D01*
X172820300Y-78387476D01*
X172826635Y-78395211D01*
X172831338Y-78404033D01*
X172834230Y-78413604D01*
X172835200Y-78423501D01*
X172835200Y-79573501D01*
X172834220Y-79583451D01*
X172834220Y-79583451D01*
G37*
D28*
X176961800Y-77576001D03*
D12*
G36*
X177761820Y-78085951D02*
G01*
X177758918Y-78095518D01*
X177754205Y-78104335D01*
X177747862Y-78112063D01*
X177740090Y-78118436D01*
X176990090Y-78618436D01*
X176981268Y-78623139D01*
X176971697Y-78626031D01*
X176961747Y-78627001D01*
X176951798Y-78626011D01*
X176942234Y-78623098D01*
X176933510Y-78618436D01*
X176183510Y-78118436D01*
X176175775Y-78112101D01*
X176169425Y-78104379D01*
X176164703Y-78095567D01*
X176161790Y-78086003D01*
X176160800Y-78076001D01*
X176160800Y-77076001D01*
X176161780Y-77066051D01*
X176164682Y-77056484D01*
X176169395Y-77047667D01*
X176175738Y-77039939D01*
X176183466Y-77033596D01*
X176192283Y-77028883D01*
X176201850Y-77025981D01*
X176211800Y-77025001D01*
X177711800Y-77025001D01*
X177721750Y-77025981D01*
X177731317Y-77028883D01*
X177740134Y-77033596D01*
X177747862Y-77039939D01*
X177754205Y-77047667D01*
X177758918Y-77056484D01*
X177761820Y-77066051D01*
X177762800Y-77076001D01*
X177762800Y-78076001D01*
X177761820Y-78085951D01*
X177761820Y-78085951D01*
G37*
D28*
X176961800Y-79026001D03*
D12*
G36*
X177761820Y-79535951D02*
G01*
X177758918Y-79545518D01*
X177754205Y-79554335D01*
X177747862Y-79562063D01*
X177740134Y-79568406D01*
X177731317Y-79573119D01*
X177721750Y-79576021D01*
X177711800Y-79577001D01*
X176211800Y-79577001D01*
X176201850Y-79576021D01*
X176192283Y-79573119D01*
X176183466Y-79568406D01*
X176175738Y-79562063D01*
X176169395Y-79554335D01*
X176164682Y-79545518D01*
X176161780Y-79535951D01*
X176160800Y-79526001D01*
X176160800Y-78376001D01*
X176161780Y-78366051D01*
X176164682Y-78356484D01*
X176169395Y-78347667D01*
X176175738Y-78339939D01*
X176183466Y-78333596D01*
X176192283Y-78328883D01*
X176201850Y-78325981D01*
X176211800Y-78325001D01*
X176221750Y-78325981D01*
X176231317Y-78328883D01*
X176240090Y-78333566D01*
X176961800Y-78814706D01*
X177683510Y-78333566D01*
X177692332Y-78328863D01*
X177701903Y-78325971D01*
X177711853Y-78325001D01*
X177721802Y-78325991D01*
X177731366Y-78328904D01*
X177740178Y-78333626D01*
X177747900Y-78339976D01*
X177754235Y-78347711D01*
X177758938Y-78356533D01*
X177761830Y-78366104D01*
X177762800Y-78376001D01*
X177762800Y-79526001D01*
X177761820Y-79535951D01*
X177761820Y-79535951D01*
G37*
D28*
X176911000Y-63488400D03*
D12*
G36*
X176110980Y-62978450D02*
G01*
X176113882Y-62968883D01*
X176118595Y-62960066D01*
X176124938Y-62952338D01*
X176132710Y-62945965D01*
X176882710Y-62445965D01*
X176891532Y-62441262D01*
X176901103Y-62438370D01*
X176911053Y-62437400D01*
X176921002Y-62438390D01*
X176930566Y-62441303D01*
X176939290Y-62445965D01*
X177689290Y-62945965D01*
X177697025Y-62952300D01*
X177703375Y-62960022D01*
X177708097Y-62968834D01*
X177711010Y-62978398D01*
X177712000Y-62988400D01*
X177712000Y-63988400D01*
X177711020Y-63998350D01*
X177708118Y-64007917D01*
X177703405Y-64016734D01*
X177697062Y-64024462D01*
X177689334Y-64030805D01*
X177680517Y-64035518D01*
X177670950Y-64038420D01*
X177661000Y-64039400D01*
X176161000Y-64039400D01*
X176151050Y-64038420D01*
X176141483Y-64035518D01*
X176132666Y-64030805D01*
X176124938Y-64024462D01*
X176118595Y-64016734D01*
X176113882Y-64007917D01*
X176110980Y-63998350D01*
X176110000Y-63988400D01*
X176110000Y-62988400D01*
X176110980Y-62978450D01*
X176110980Y-62978450D01*
G37*
D28*
X176911000Y-62038400D03*
D12*
G36*
X176110980Y-61528450D02*
G01*
X176113882Y-61518883D01*
X176118595Y-61510066D01*
X176124938Y-61502338D01*
X176132666Y-61495995D01*
X176141483Y-61491282D01*
X176151050Y-61488380D01*
X176161000Y-61487400D01*
X177661000Y-61487400D01*
X177670950Y-61488380D01*
X177680517Y-61491282D01*
X177689334Y-61495995D01*
X177697062Y-61502338D01*
X177703405Y-61510066D01*
X177708118Y-61518883D01*
X177711020Y-61528450D01*
X177712000Y-61538400D01*
X177712000Y-62688400D01*
X177711020Y-62698350D01*
X177708118Y-62707917D01*
X177703405Y-62716734D01*
X177697062Y-62724462D01*
X177689334Y-62730805D01*
X177680517Y-62735518D01*
X177670950Y-62738420D01*
X177661000Y-62739400D01*
X177651050Y-62738420D01*
X177641483Y-62735518D01*
X177632710Y-62730835D01*
X176911000Y-62249695D01*
X176189290Y-62730835D01*
X176180468Y-62735538D01*
X176170897Y-62738430D01*
X176160947Y-62739400D01*
X176150998Y-62738410D01*
X176141434Y-62735497D01*
X176132622Y-62730775D01*
X176124900Y-62724425D01*
X176118565Y-62716690D01*
X176113862Y-62707868D01*
X176110970Y-62698297D01*
X176110000Y-62688400D01*
X176110000Y-61538400D01*
X176110980Y-61528450D01*
X176110980Y-61528450D01*
G37*
D38*
X102870000Y-110302800D03*
D39*
X181784000Y-40140000D03*
X132206000Y-40140000D03*
D32*
X88650000Y-38250000D03*
X88550000Y-53450000D03*
D40*
X158844000Y-38497600D03*
X151544000Y-38497600D03*
X151544000Y-36287600D03*
X158844000Y-36287600D03*
D41*
X152944000Y-39147600D03*
X154444000Y-39147600D03*
X157444000Y-39147600D03*
D33*
X153694000Y-37387600D03*
X156694000Y-37387600D03*
D38*
X163388800Y-110302800D03*
X163388800Y-70866000D03*
X102870000Y-70866000D03*
D23*
X171800000Y-97100000D03*
X176800000Y-97100000D03*
D31*
X168700000Y-90100000D03*
X179900000Y-90100000D03*
D23*
X171800000Y-82600000D03*
X174300000Y-82600000D03*
D21*
X176800000Y-82600000D03*
M02*
