G04 #@! TF.GenerationSoftware,KiCad,Pcbnew,(6.0.9-0)*
G04 #@! TF.CreationDate,2022-12-14T14:32:43+09:00*
G04 #@! TF.ProjectId,palette1202-PM,70616c65-7474-4653-9132-30322d504d2e,rev?*
G04 #@! TF.SameCoordinates,Original*
G04 #@! TF.FileFunction,Soldermask,Top*
G04 #@! TF.FilePolarity,Negative*
%FSLAX46Y46*%
G04 Gerber Fmt 4.6, Leading zero omitted, Abs format (unit mm)*
G04 Created by KiCad (PCBNEW (6.0.9-0)) date 2022-12-14 14:32:43*
%MOMM*%
%LPD*%
G01*
G04 APERTURE LIST*
G04 Aperture macros list*
%AMRoundRect*
0 Rectangle with rounded corners*
0 $1 Rounding radius*
0 $2 $3 $4 $5 $6 $7 $8 $9 X,Y pos of 4 corners*
0 Add a 4 corners polygon primitive as box body*
4,1,4,$2,$3,$4,$5,$6,$7,$8,$9,$2,$3,0*
0 Add four circle primitives for the rounded corners*
1,1,$1+$1,$2,$3*
1,1,$1+$1,$4,$5*
1,1,$1+$1,$6,$7*
1,1,$1+$1,$8,$9*
0 Add four rect primitives between the rounded corners*
20,1,$1+$1,$2,$3,$4,$5,0*
20,1,$1+$1,$4,$5,$6,$7,0*
20,1,$1+$1,$6,$7,$8,$9,0*
20,1,$1+$1,$8,$9,$2,$3,0*%
%AMFreePoly0*
4,1,16,0.536062,0.786062,0.542435,0.778290,1.042435,0.028290,1.050010,-0.010002,1.042435,-0.028290,0.542435,-0.778290,0.510002,-0.800010,0.500000,-0.801000,-0.500000,-0.801000,-0.536062,-0.786062,-0.551000,-0.750000,-0.551000,0.750000,-0.536062,0.786062,-0.500000,0.801000,0.500000,0.801000,0.536062,0.786062,0.536062,0.786062,$1*%
%AMFreePoly1*
4,1,16,0.536062,0.786062,0.551000,0.750000,0.551000,-0.750000,0.536062,-0.786062,0.500000,-0.801000,-0.650000,-0.801000,-0.686062,-0.786062,-0.701000,-0.750000,-0.692435,-0.721710,-0.211295,0.000000,-0.692435,0.721710,-0.700010,0.760002,-0.678290,0.792435,-0.650000,0.801000,0.500000,0.801000,0.536062,0.786062,0.536062,0.786062,$1*%
G04 Aperture macros list end*
%ADD10RoundRect,0.051000X-1.000000X1.000000X-1.000000X-1.000000X1.000000X-1.000000X1.000000X1.000000X0*%
%ADD11C,2.102000*%
%ADD12RoundRect,0.051000X-1.000000X1.600000X-1.000000X-1.600000X1.000000X-1.600000X1.000000X1.600000X0*%
%ADD13C,3.102000*%
%ADD14C,1.802000*%
%ADD15C,2.002000*%
%ADD16C,4.102000*%
%ADD17RoundRect,0.051000X1.000000X1.000000X-1.000000X1.000000X-1.000000X-1.000000X1.000000X-1.000000X0*%
%ADD18RoundRect,0.051000X0.900000X1.000000X-0.900000X1.000000X-0.900000X-1.000000X0.900000X-1.000000X0*%
%ADD19RoundRect,0.051000X1.128152X0.732989X-0.610514X1.198863X-1.128152X-0.732989X0.610514X-1.198863X0*%
%ADD20RoundRect,0.051000X1.224745X0.707107X-0.707107X1.224745X-1.224745X-0.707107X0.707107X-1.224745X0*%
%ADD21C,1.702200*%
%ADD22C,1.002000*%
%ADD23RoundRect,0.051000X0.500000X0.400000X-0.500000X0.400000X-0.500000X-0.400000X0.500000X-0.400000X0*%
%ADD24RoundRect,0.051000X0.350000X0.750000X-0.350000X0.750000X-0.350000X-0.750000X0.350000X-0.750000X0*%
%ADD25C,2.202000*%
%ADD26C,1.626000*%
%ADD27C,4.202000*%
%ADD28RoundRect,0.051000X0.850000X0.850000X-0.850000X0.850000X-0.850000X-0.850000X0.850000X-0.850000X0*%
%ADD29O,1.802000X1.802000*%
%ADD30C,1.902000*%
%ADD31RoundRect,0.051000X1.500000X2.000000X-1.500000X2.000000X-1.500000X-2.000000X1.500000X-2.000000X0*%
%ADD32FreePoly0,90.000000*%
%ADD33FreePoly1,90.000000*%
%ADD34FreePoly0,270.000000*%
%ADD35FreePoly1,270.000000*%
%ADD36FreePoly0,0.000000*%
%ADD37FreePoly1,0.000000*%
%ADD38RoundRect,0.300999X-0.537501X-0.425001X0.537501X-0.425001X0.537501X0.425001X-0.537501X0.425001X0*%
%ADD39C,1.302000*%
%ADD40O,1.802000X2.602000*%
%ADD41RoundRect,0.051000X0.475000X-0.650000X0.475000X0.650000X-0.475000X0.650000X-0.475000X-0.650000X0*%
%ADD42RoundRect,0.051000X0.698500X-0.698500X0.698500X0.698500X-0.698500X0.698500X-0.698500X-0.698500X0*%
%ADD43C,1.499000*%
%ADD44RoundRect,0.051000X0.698500X0.698500X-0.698500X0.698500X-0.698500X-0.698500X0.698500X-0.698500X0*%
%ADD45RoundRect,0.051000X0.650000X0.475000X-0.650000X0.475000X-0.650000X-0.475000X0.650000X-0.475000X0*%
G04 APERTURE END LIST*
D10*
X176800000Y-82600000D03*
D11*
X171800000Y-82600000D03*
X174300000Y-82600000D03*
D12*
X179900000Y-90100000D03*
X168700000Y-90100000D03*
D11*
X171800000Y-97100000D03*
X176800000Y-97100000D03*
D13*
X152750000Y-101450000D03*
X147750000Y-99250000D03*
X157750000Y-99250000D03*
D14*
X147670000Y-95550000D03*
D15*
X158250000Y-95550000D03*
D14*
X157830000Y-95550000D03*
D15*
X147250000Y-95550000D03*
D16*
X152750000Y-95550000D03*
D13*
X148940000Y-93010000D03*
X150210000Y-90470000D03*
X155290000Y-90470000D03*
X156560000Y-93010000D03*
D17*
X147150000Y-90470000D03*
D18*
X149950000Y-101450000D03*
D17*
X160850000Y-99250000D03*
X159650000Y-93010000D03*
D13*
X90560000Y-104380000D03*
X91750000Y-98140000D03*
D14*
X100640000Y-100680000D03*
D15*
X101060000Y-100680000D03*
D14*
X90480000Y-100680000D03*
D13*
X93020000Y-95600000D03*
D16*
X95560000Y-100680000D03*
D15*
X90060000Y-100680000D03*
D13*
X95560000Y-106580000D03*
X100560000Y-104380000D03*
X99370000Y-98140000D03*
X98100000Y-95600000D03*
D17*
X89960000Y-95600000D03*
D18*
X92760000Y-106580000D03*
D17*
X103660000Y-104380000D03*
X102460000Y-98140000D03*
D13*
X112210000Y-85920000D03*
X119750000Y-94700000D03*
X117290000Y-85920000D03*
D14*
X119830000Y-91000000D03*
D13*
X110940000Y-88460000D03*
X109750000Y-94700000D03*
D14*
X109670000Y-91000000D03*
D13*
X118560000Y-88460000D03*
D15*
X120250000Y-91000000D03*
D13*
X114750000Y-96900000D03*
D15*
X109250000Y-91000000D03*
D16*
X114750000Y-91000000D03*
D18*
X111950000Y-96900000D03*
D17*
X109150000Y-85920000D03*
X121650000Y-88460000D03*
X122850000Y-94700000D03*
D16*
X133750000Y-86050000D03*
D13*
X129940000Y-83510000D03*
D15*
X128250000Y-86050000D03*
D13*
X136290000Y-80970000D03*
X138750000Y-89750000D03*
X128750000Y-89750000D03*
D14*
X128670000Y-86050000D03*
D13*
X137560000Y-83510000D03*
X131210000Y-80970000D03*
D15*
X139250000Y-86050000D03*
D14*
X138830000Y-86050000D03*
D13*
X133750000Y-91950000D03*
D17*
X128150000Y-80970000D03*
D18*
X130950000Y-91950000D03*
D17*
X141850000Y-89750000D03*
X140650000Y-83510000D03*
D15*
X147250000Y-76550000D03*
D13*
X156560000Y-74010000D03*
D14*
X157830000Y-76550000D03*
D13*
X152750000Y-82450000D03*
D15*
X158250000Y-76550000D03*
D14*
X147670000Y-76550000D03*
D13*
X147750000Y-80250000D03*
X155290000Y-71470000D03*
X150210000Y-71470000D03*
D16*
X152750000Y-76550000D03*
D13*
X157750000Y-80250000D03*
X148940000Y-74010000D03*
D18*
X149950000Y-82450000D03*
D17*
X147150000Y-71470000D03*
X159650000Y-74010000D03*
X160850000Y-80250000D03*
D15*
X101100000Y-81600000D03*
D14*
X100680000Y-81600000D03*
D13*
X91790000Y-79060000D03*
X99410000Y-79060000D03*
X98140000Y-76520000D03*
X90600000Y-85300000D03*
D16*
X95600000Y-81600000D03*
D13*
X95600000Y-87500000D03*
D15*
X90100000Y-81600000D03*
D13*
X93060000Y-76520000D03*
D14*
X90520000Y-81600000D03*
D13*
X100600000Y-85300000D03*
D17*
X90000000Y-76520000D03*
D18*
X92800000Y-87500000D03*
D17*
X103700000Y-85300000D03*
X102500000Y-79060000D03*
D13*
X147750000Y-118400000D03*
D15*
X147250000Y-114700000D03*
D13*
X152750000Y-120600000D03*
X148940000Y-112160000D03*
D14*
X147670000Y-114700000D03*
D13*
X156560000Y-112160000D03*
D15*
X158250000Y-114700000D03*
D13*
X150210000Y-109620000D03*
D16*
X152750000Y-114700000D03*
D13*
X157750000Y-118400000D03*
D14*
X157830000Y-114700000D03*
D13*
X155290000Y-109620000D03*
D18*
X149950000Y-120600000D03*
D17*
X147150000Y-109620000D03*
X160850000Y-118400000D03*
X159650000Y-112160000D03*
D13*
X178587578Y-111132649D03*
D14*
X169343097Y-111285199D03*
D13*
X178121999Y-117468021D03*
D16*
X174250000Y-112600000D03*
D13*
X168462740Y-114879830D03*
X173111349Y-107035696D03*
X172722968Y-118298962D03*
D15*
X168937408Y-111176495D03*
D14*
X179156903Y-113914801D03*
D15*
X179562592Y-114023505D03*
D13*
X171227223Y-109160448D03*
X178018252Y-108350497D03*
D19*
X170018375Y-117574269D03*
D20*
X170155616Y-106243710D03*
X181116369Y-118270360D03*
X181572289Y-111932400D03*
D21*
X88650000Y-38250000D03*
X88550000Y-53450000D03*
D13*
X128700000Y-70750000D03*
D15*
X139200000Y-67050000D03*
X128200000Y-67050000D03*
D13*
X129890000Y-64510000D03*
D16*
X133700000Y-67050000D03*
D13*
X138700000Y-70750000D03*
X136240000Y-61970000D03*
D14*
X128620000Y-67050000D03*
D13*
X137510000Y-64510000D03*
D14*
X138780000Y-67050000D03*
D13*
X133700000Y-72950000D03*
X131160000Y-61970000D03*
D18*
X130900000Y-72950000D03*
D17*
X128100000Y-61970000D03*
X141800000Y-70750000D03*
X140600000Y-64510000D03*
D16*
X114700000Y-114700000D03*
D15*
X120200000Y-114700000D03*
D13*
X109700000Y-118400000D03*
X118510000Y-112160000D03*
D14*
X119780000Y-114700000D03*
X109620000Y-114700000D03*
D13*
X112160000Y-109620000D03*
X117240000Y-109620000D03*
X110890000Y-112160000D03*
D15*
X109200000Y-114700000D03*
D13*
X119700000Y-118400000D03*
X114700000Y-120600000D03*
D18*
X111900000Y-120600000D03*
D17*
X109100000Y-109620000D03*
X121600000Y-112160000D03*
X122800000Y-118400000D03*
D22*
X156694000Y-37387600D03*
D23*
X158844000Y-38497600D03*
X151544000Y-36287600D03*
D22*
X153694000Y-37387600D03*
D23*
X151544000Y-38497600D03*
X158844000Y-36287600D03*
D24*
X157444000Y-39147600D03*
X154444000Y-39147600D03*
X152944000Y-39147600D03*
D25*
X181784000Y-40140000D03*
X132206000Y-40140000D03*
D13*
X118610000Y-69560000D03*
D14*
X109720000Y-72100000D03*
D13*
X110990000Y-69560000D03*
D15*
X109300000Y-72100000D03*
X120300000Y-72100000D03*
D13*
X117340000Y-67020000D03*
X109800000Y-75800000D03*
D16*
X114800000Y-72100000D03*
D13*
X112260000Y-67020000D03*
X114800000Y-78000000D03*
D14*
X119880000Y-72100000D03*
D13*
X119800000Y-75800000D03*
D18*
X112000000Y-78000000D03*
D17*
X109200000Y-67020000D03*
X121700000Y-69560000D03*
X122900000Y-75800000D03*
D16*
X133750000Y-114700000D03*
D13*
X129940000Y-112160000D03*
D14*
X138830000Y-114700000D03*
D15*
X128250000Y-114700000D03*
X139250000Y-114700000D03*
D13*
X136290000Y-109620000D03*
X138750000Y-118400000D03*
D14*
X128670000Y-114700000D03*
D13*
X131210000Y-109620000D03*
X137560000Y-112160000D03*
X133750000Y-120600000D03*
X128750000Y-118400000D03*
D17*
X128150000Y-109620000D03*
D18*
X130950000Y-120600000D03*
D17*
X140650000Y-112160000D03*
X141850000Y-118400000D03*
D26*
X91072000Y-38193600D03*
X92342000Y-54740000D03*
X94882000Y-54740000D03*
X93612000Y-38193600D03*
X96152000Y-38193600D03*
X97422000Y-54740000D03*
X99962000Y-54740000D03*
X98692000Y-38193600D03*
X101232000Y-38193600D03*
X102502000Y-54740000D03*
X105042000Y-54740000D03*
X103772000Y-38193600D03*
X107582000Y-54740000D03*
X106312000Y-38193600D03*
X110122000Y-54740000D03*
X108852000Y-38193600D03*
X111392000Y-38193600D03*
X112662000Y-54740000D03*
X113932000Y-38193600D03*
X115202000Y-54740000D03*
X116472000Y-38193600D03*
X117742000Y-54740000D03*
X120282000Y-54740000D03*
X119012000Y-38193600D03*
X120282000Y-39500000D03*
X119012000Y-53413600D03*
X117742000Y-39500000D03*
X116472000Y-53413600D03*
X115202000Y-39500000D03*
X113932000Y-53413600D03*
X112662000Y-39500000D03*
X111392000Y-53413600D03*
X110122000Y-39500000D03*
X108852000Y-53413600D03*
X106312000Y-53413600D03*
X107582000Y-39500000D03*
X105042000Y-39500000D03*
X103772000Y-53413600D03*
X101232000Y-53413600D03*
X102502000Y-39500000D03*
X98692000Y-53413600D03*
X99962000Y-39500000D03*
X97422000Y-39500000D03*
X96152000Y-53413600D03*
X93612000Y-53413600D03*
X94882000Y-39500000D03*
X92342000Y-39500000D03*
X91072000Y-53413600D03*
D27*
X102870000Y-70866000D03*
X102870000Y-110302800D03*
X163388800Y-110302800D03*
X163388800Y-70866000D03*
D28*
X126974600Y-50092100D03*
D29*
X126974600Y-47552100D03*
X126974600Y-45012100D03*
X126974600Y-42472100D03*
D30*
X183041800Y-44460000D03*
D31*
X183688000Y-45760000D03*
D30*
X183041800Y-47060000D03*
D31*
X159688000Y-45760000D03*
D30*
X160388000Y-45710000D03*
D31*
X155240000Y-45760000D03*
D30*
X154593800Y-47060000D03*
X154593800Y-44460000D03*
X131940000Y-45710000D03*
D31*
X131240000Y-45760000D03*
D32*
X176911000Y-63488400D03*
D33*
X176911000Y-62038400D03*
D34*
X176961800Y-77576001D03*
D35*
X176961800Y-79026001D03*
D34*
X172034200Y-77623501D03*
D35*
X172034200Y-79073501D03*
D36*
X122846000Y-42510200D03*
D37*
X124296000Y-42510200D03*
D36*
X122846000Y-45050200D03*
D37*
X124296000Y-45050200D03*
D36*
X122846000Y-47590200D03*
D37*
X124296000Y-47590200D03*
D36*
X122846000Y-50130200D03*
D37*
X124296000Y-50130200D03*
D38*
X161376500Y-38073200D03*
X164251500Y-38073200D03*
D21*
X89797000Y-39470200D03*
X89797000Y-54710200D03*
D32*
X95123000Y-49466200D03*
D33*
X95123000Y-48016200D03*
D32*
X171958000Y-63513800D03*
D33*
X171958000Y-62063800D03*
D10*
X176900000Y-59100000D03*
D11*
X171900000Y-59100000D03*
X174400000Y-59100000D03*
D12*
X168800000Y-66600000D03*
X180000000Y-66600000D03*
D11*
X171900000Y-73600000D03*
X176900000Y-73600000D03*
D34*
X95123000Y-44714200D03*
D35*
X95123000Y-46164200D03*
D39*
X139460000Y-44010000D03*
X141210000Y-44010000D03*
X139460000Y-37010000D03*
X141210000Y-37010000D03*
D40*
X139110000Y-47310000D03*
X141560000Y-47310000D03*
X137360000Y-38810000D03*
X143310000Y-38810000D03*
X137360000Y-41810000D03*
X143310000Y-41810000D03*
X137360000Y-45810000D03*
X143310000Y-45810000D03*
D41*
X166141400Y-96694800D03*
D42*
X166141400Y-98729800D03*
D41*
X166141400Y-93144800D03*
D43*
X166141400Y-91109800D03*
D44*
X103708200Y-91338400D03*
D45*
X101673200Y-91338400D03*
D43*
X96088200Y-91338400D03*
D45*
X98123200Y-91338400D03*
X120824800Y-105892600D03*
D44*
X122859800Y-105892600D03*
D45*
X117274800Y-105892600D03*
D43*
X115239800Y-105892600D03*
D41*
X166141400Y-83969400D03*
D42*
X166141400Y-86004400D03*
D43*
X166141400Y-78384400D03*
D41*
X166141400Y-80419400D03*
D45*
X120824800Y-100939600D03*
D44*
X122859800Y-100939600D03*
D45*
X117274800Y-100939600D03*
D43*
X115239800Y-100939600D03*
D44*
X141859000Y-105410000D03*
D45*
X139824000Y-105410000D03*
X136274000Y-105410000D03*
D43*
X134239000Y-105410000D03*
D45*
X139824000Y-76758800D03*
D44*
X141859000Y-76758800D03*
D45*
X136274000Y-76758800D03*
D43*
X134239000Y-76758800D03*
D44*
X141859000Y-95961200D03*
D45*
X139824000Y-95961200D03*
D43*
X134239000Y-95961200D03*
D45*
X136274000Y-95961200D03*
X158620000Y-105232200D03*
D44*
X160655000Y-105232200D03*
D45*
X155070000Y-105232200D03*
D43*
X153035000Y-105232200D03*
D45*
X158823200Y-86029800D03*
D44*
X160858200Y-86029800D03*
D43*
X153238200Y-86029800D03*
D45*
X155273200Y-86029800D03*
X139824000Y-99212400D03*
D44*
X141859000Y-99212400D03*
D43*
X134239000Y-99212400D03*
D45*
X136274000Y-99212400D03*
D42*
X163550600Y-98729800D03*
D41*
X163550600Y-96694800D03*
D43*
X163550600Y-91109800D03*
D41*
X163550600Y-93144800D03*
D45*
X159128000Y-50900200D03*
X155578000Y-50900200D03*
X96491600Y-110566200D03*
D44*
X98526600Y-110566200D03*
D43*
X90906600Y-110566200D03*
D45*
X92941600Y-110566200D03*
X120824800Y-81686400D03*
D44*
X122859800Y-81686400D03*
D43*
X115239800Y-81686400D03*
D45*
X117274800Y-81686400D03*
X159128000Y-53186200D03*
X155578000Y-53186200D03*
D22*
X156694000Y-37387600D03*
X153694000Y-37387600D03*
G36*
X110946485Y-119322913D02*
G01*
X110946282Y-119324663D01*
X110940089Y-119334290D01*
X110939911Y-119334527D01*
X110932753Y-119342689D01*
X110903483Y-119405787D01*
X110912932Y-119474397D01*
X110957974Y-119527005D01*
X111025607Y-119547083D01*
X111026983Y-119548534D01*
X111026414Y-119550452D01*
X111025038Y-119551000D01*
X111000199Y-119551000D01*
X110981262Y-119554767D01*
X110965380Y-119565380D01*
X110954767Y-119581262D01*
X110951000Y-119600199D01*
X110951000Y-119638346D01*
X110950000Y-119640078D01*
X110948000Y-119640078D01*
X110947081Y-119638909D01*
X110927404Y-119571894D01*
X110875061Y-119526539D01*
X110806501Y-119516682D01*
X110744312Y-119544652D01*
X110672851Y-119605148D01*
X110670883Y-119605504D01*
X110669591Y-119603978D01*
X110670260Y-119602101D01*
X110795304Y-119495304D01*
X110943079Y-119322282D01*
X110944964Y-119321614D01*
X110946485Y-119322913D01*
G37*
G36*
X129996485Y-119322913D02*
G01*
X129996282Y-119324663D01*
X129990089Y-119334290D01*
X129989911Y-119334527D01*
X129982753Y-119342689D01*
X129953483Y-119405787D01*
X129962932Y-119474397D01*
X130007974Y-119527005D01*
X130075607Y-119547083D01*
X130076983Y-119548534D01*
X130076414Y-119550452D01*
X130075038Y-119551000D01*
X130050199Y-119551000D01*
X130031262Y-119554767D01*
X130015380Y-119565380D01*
X130004767Y-119581262D01*
X130001000Y-119600199D01*
X130001000Y-119638346D01*
X130000000Y-119640078D01*
X129998000Y-119640078D01*
X129997081Y-119638909D01*
X129977404Y-119571894D01*
X129925061Y-119526539D01*
X129856501Y-119516682D01*
X129794312Y-119544652D01*
X129722851Y-119605148D01*
X129720883Y-119605504D01*
X129719591Y-119603978D01*
X129720260Y-119602101D01*
X129845304Y-119495304D01*
X129993079Y-119322282D01*
X129994964Y-119321614D01*
X129996485Y-119322913D01*
G37*
G36*
X148996485Y-119322913D02*
G01*
X148996282Y-119324663D01*
X148990089Y-119334290D01*
X148989911Y-119334527D01*
X148982753Y-119342689D01*
X148953483Y-119405787D01*
X148962932Y-119474397D01*
X149007974Y-119527005D01*
X149075607Y-119547083D01*
X149076983Y-119548534D01*
X149076414Y-119550452D01*
X149075038Y-119551000D01*
X149050199Y-119551000D01*
X149031262Y-119554767D01*
X149015380Y-119565380D01*
X149004767Y-119581262D01*
X149001000Y-119600199D01*
X149001000Y-119638346D01*
X149000000Y-119640078D01*
X148998000Y-119640078D01*
X148997081Y-119638909D01*
X148977404Y-119571894D01*
X148925061Y-119526539D01*
X148856501Y-119516682D01*
X148794312Y-119544652D01*
X148722851Y-119605148D01*
X148720883Y-119605504D01*
X148719591Y-119603978D01*
X148720260Y-119602101D01*
X148845304Y-119495304D01*
X148993079Y-119322282D01*
X148994964Y-119321614D01*
X148996485Y-119322913D01*
G37*
G36*
X169397184Y-116116467D02*
G01*
X169396887Y-116117932D01*
X169358890Y-116175587D01*
X169358094Y-116244840D01*
X169394896Y-116303580D01*
X169445011Y-116330546D01*
X169446062Y-116332247D01*
X169445114Y-116334008D01*
X169443545Y-116334239D01*
X169420734Y-116328127D01*
X169401470Y-116326864D01*
X169383381Y-116333005D01*
X169369018Y-116345601D01*
X169360480Y-116362915D01*
X169349607Y-116403493D01*
X169348193Y-116404907D01*
X169346261Y-116404389D01*
X169345676Y-116403023D01*
X169344014Y-116333198D01*
X169305195Y-116275843D01*
X169241503Y-116248569D01*
X169178141Y-116257717D01*
X169175324Y-116258927D01*
X169173338Y-116258691D01*
X169172549Y-116256854D01*
X169173490Y-116255384D01*
X169373213Y-116132994D01*
X169393918Y-116115310D01*
X169395885Y-116114946D01*
X169397184Y-116116467D01*
G37*
G36*
X117240000Y-111168994D02*
G01*
X117326973Y-111162149D01*
X117328778Y-111163010D01*
X117328935Y-111165004D01*
X117328651Y-111165442D01*
X117256836Y-111249527D01*
X117170824Y-111389886D01*
X117169067Y-111390840D01*
X117167361Y-111389795D01*
X117167409Y-111387803D01*
X117189959Y-111350641D01*
X117207828Y-111283419D01*
X117186610Y-111217491D01*
X117133030Y-111173430D01*
X117089603Y-111163676D01*
X117064378Y-111162685D01*
X117064083Y-111162652D01*
X117032574Y-111156670D01*
X117031059Y-111155364D01*
X117031432Y-111153399D01*
X117033104Y-111152711D01*
X117240000Y-111168994D01*
G37*
G36*
X136290000Y-111168994D02*
G01*
X136376973Y-111162149D01*
X136378778Y-111163010D01*
X136378935Y-111165004D01*
X136378651Y-111165442D01*
X136306836Y-111249527D01*
X136220824Y-111389886D01*
X136219067Y-111390840D01*
X136217361Y-111389795D01*
X136217409Y-111387803D01*
X136239959Y-111350641D01*
X136257828Y-111283419D01*
X136236610Y-111217491D01*
X136183030Y-111173430D01*
X136139603Y-111163676D01*
X136114378Y-111162685D01*
X136114083Y-111162652D01*
X136082574Y-111156670D01*
X136081059Y-111155364D01*
X136081432Y-111153399D01*
X136083104Y-111152711D01*
X136290000Y-111168994D01*
G37*
G36*
X155290000Y-111168994D02*
G01*
X155376973Y-111162149D01*
X155378778Y-111163010D01*
X155378935Y-111165004D01*
X155378651Y-111165442D01*
X155306836Y-111249527D01*
X155220824Y-111389886D01*
X155219067Y-111390840D01*
X155217361Y-111389795D01*
X155217409Y-111387803D01*
X155239959Y-111350641D01*
X155257828Y-111283419D01*
X155236610Y-111217491D01*
X155183030Y-111173430D01*
X155139603Y-111163676D01*
X155114378Y-111162685D01*
X155114083Y-111162652D01*
X155082574Y-111156670D01*
X155081059Y-111155364D01*
X155081432Y-111153399D01*
X155083104Y-111152711D01*
X155290000Y-111168994D01*
G37*
G36*
X150362119Y-111158025D02*
G01*
X150362276Y-111160019D01*
X150360689Y-111161146D01*
X150351596Y-111162142D01*
X150287386Y-111188887D01*
X150248000Y-111245856D01*
X150245659Y-111315237D01*
X150257981Y-111345593D01*
X150275405Y-111376080D01*
X150275397Y-111378080D01*
X150273660Y-111379072D01*
X150271964Y-111378117D01*
X150193164Y-111249527D01*
X150121349Y-111165442D01*
X150120985Y-111163475D01*
X150122506Y-111162176D01*
X150123027Y-111162149D01*
X150210000Y-111168994D01*
X150360314Y-111157164D01*
X150362119Y-111158025D01*
G37*
G36*
X131362119Y-111158025D02*
G01*
X131362276Y-111160019D01*
X131360689Y-111161146D01*
X131351596Y-111162142D01*
X131287386Y-111188887D01*
X131248000Y-111245856D01*
X131245659Y-111315237D01*
X131257981Y-111345593D01*
X131275405Y-111376080D01*
X131275397Y-111378080D01*
X131273660Y-111379072D01*
X131271964Y-111378117D01*
X131193164Y-111249527D01*
X131121349Y-111165442D01*
X131120985Y-111163475D01*
X131122506Y-111162176D01*
X131123027Y-111162149D01*
X131210000Y-111168994D01*
X131360314Y-111157164D01*
X131362119Y-111158025D01*
G37*
G36*
X112312119Y-111158025D02*
G01*
X112312276Y-111160019D01*
X112310689Y-111161146D01*
X112301596Y-111162142D01*
X112237386Y-111188887D01*
X112198000Y-111245856D01*
X112195659Y-111315237D01*
X112207981Y-111345593D01*
X112225405Y-111376080D01*
X112225397Y-111378080D01*
X112223660Y-111379072D01*
X112221964Y-111378117D01*
X112143164Y-111249527D01*
X112071349Y-111165442D01*
X112070985Y-111163475D01*
X112072506Y-111162176D01*
X112073027Y-111162149D01*
X112160000Y-111168994D01*
X112310314Y-111157164D01*
X112312119Y-111158025D01*
G37*
G36*
X110152919Y-110602047D02*
G01*
X110172596Y-110669062D01*
X110224939Y-110714417D01*
X110293641Y-110724295D01*
X110327628Y-110714249D01*
X110346114Y-110705727D01*
X110346391Y-110705623D01*
X110377187Y-110696647D01*
X110379130Y-110697122D01*
X110379690Y-110699042D01*
X110378512Y-110700415D01*
X110186770Y-110779837D01*
X109996741Y-110896287D01*
X109994742Y-110896340D01*
X109993697Y-110894634D01*
X109994173Y-110893286D01*
X110034366Y-110846037D01*
X110043597Y-110777397D01*
X110014252Y-110714662D01*
X109955518Y-110677668D01*
X109921829Y-110672981D01*
X109920252Y-110671752D01*
X109920527Y-110669771D01*
X109922105Y-110669000D01*
X110099801Y-110669000D01*
X110118738Y-110665233D01*
X110134620Y-110654620D01*
X110145233Y-110638738D01*
X110149000Y-110619801D01*
X110149000Y-110602610D01*
X110150000Y-110600878D01*
X110152000Y-110600878D01*
X110152919Y-110602047D01*
G37*
G36*
X148202919Y-110602047D02*
G01*
X148222596Y-110669062D01*
X148274939Y-110714417D01*
X148343641Y-110724295D01*
X148377628Y-110714249D01*
X148396114Y-110705727D01*
X148396391Y-110705623D01*
X148427187Y-110696647D01*
X148429130Y-110697122D01*
X148429690Y-110699042D01*
X148428512Y-110700415D01*
X148236770Y-110779837D01*
X148046741Y-110896287D01*
X148044742Y-110896340D01*
X148043697Y-110894634D01*
X148044173Y-110893286D01*
X148084366Y-110846037D01*
X148093597Y-110777397D01*
X148064252Y-110714662D01*
X148005518Y-110677668D01*
X147971829Y-110672981D01*
X147970252Y-110671752D01*
X147970527Y-110669771D01*
X147972105Y-110669000D01*
X148149801Y-110669000D01*
X148168738Y-110665233D01*
X148184620Y-110654620D01*
X148195233Y-110638738D01*
X148199000Y-110619801D01*
X148199000Y-110602610D01*
X148200000Y-110600878D01*
X148202000Y-110600878D01*
X148202919Y-110602047D01*
G37*
G36*
X129202919Y-110602047D02*
G01*
X129222596Y-110669062D01*
X129274939Y-110714417D01*
X129343641Y-110724295D01*
X129377628Y-110714249D01*
X129396114Y-110705727D01*
X129396391Y-110705623D01*
X129427187Y-110696647D01*
X129429130Y-110697122D01*
X129429690Y-110699042D01*
X129428512Y-110700415D01*
X129236770Y-110779837D01*
X129046741Y-110896287D01*
X129044742Y-110896340D01*
X129043697Y-110894634D01*
X129044173Y-110893286D01*
X129084366Y-110846037D01*
X129093597Y-110777397D01*
X129064252Y-110714662D01*
X129005518Y-110677668D01*
X128971829Y-110672981D01*
X128970252Y-110671752D01*
X128970527Y-110669771D01*
X128972105Y-110669000D01*
X129149801Y-110669000D01*
X129168738Y-110665233D01*
X129184620Y-110654620D01*
X129195233Y-110638738D01*
X129199000Y-110619801D01*
X129199000Y-110602610D01*
X129200000Y-110600878D01*
X129202000Y-110600878D01*
X129202919Y-110602047D01*
G37*
G36*
X118612028Y-110342246D02*
G01*
X118612094Y-110344021D01*
X118604568Y-110360729D01*
X118604426Y-110360990D01*
X118563077Y-110425274D01*
X118543453Y-110492008D01*
X118562940Y-110558468D01*
X118615384Y-110603948D01*
X118646734Y-110613478D01*
X118697630Y-110621767D01*
X118699179Y-110623032D01*
X118698858Y-110625006D01*
X118697152Y-110625735D01*
X118510000Y-110611006D01*
X118423027Y-110617851D01*
X118421222Y-110616990D01*
X118421065Y-110614996D01*
X118421349Y-110614558D01*
X118493164Y-110530473D01*
X118608565Y-110342155D01*
X118610322Y-110341201D01*
X118612028Y-110342246D01*
G37*
G36*
X156662028Y-110342246D02*
G01*
X156662094Y-110344021D01*
X156654568Y-110360729D01*
X156654426Y-110360990D01*
X156613077Y-110425274D01*
X156593453Y-110492008D01*
X156612940Y-110558468D01*
X156665384Y-110603948D01*
X156696734Y-110613478D01*
X156747630Y-110621767D01*
X156749179Y-110623032D01*
X156748858Y-110625006D01*
X156747152Y-110625735D01*
X156560000Y-110611006D01*
X156473027Y-110617851D01*
X156471222Y-110616990D01*
X156471065Y-110614996D01*
X156471349Y-110614558D01*
X156543164Y-110530473D01*
X156658565Y-110342155D01*
X156660322Y-110341201D01*
X156662028Y-110342246D01*
G37*
G36*
X137662028Y-110342246D02*
G01*
X137662094Y-110344021D01*
X137654568Y-110360729D01*
X137654426Y-110360990D01*
X137613077Y-110425274D01*
X137593453Y-110492008D01*
X137612940Y-110558468D01*
X137665384Y-110603948D01*
X137696734Y-110613478D01*
X137747630Y-110621767D01*
X137749179Y-110623032D01*
X137748858Y-110625006D01*
X137747152Y-110625735D01*
X137560000Y-110611006D01*
X137473027Y-110617851D01*
X137471222Y-110616990D01*
X137471065Y-110614996D01*
X137471349Y-110614558D01*
X137543164Y-110530473D01*
X137658565Y-110342155D01*
X137660322Y-110341201D01*
X137662028Y-110342246D01*
G37*
G36*
X148868828Y-110386857D02*
G01*
X148956836Y-110530473D01*
X149028651Y-110614558D01*
X149029015Y-110616525D01*
X149027494Y-110617824D01*
X149026973Y-110617851D01*
X148940000Y-110611006D01*
X148772080Y-110624222D01*
X148770275Y-110623361D01*
X148770118Y-110621367D01*
X148771653Y-110620246D01*
X148798872Y-110616541D01*
X148862358Y-110588125D01*
X148900239Y-110530145D01*
X148900763Y-110460698D01*
X148890869Y-110436321D01*
X148865361Y-110388849D01*
X148865422Y-110386850D01*
X148867184Y-110385903D01*
X148868828Y-110386857D01*
G37*
G36*
X129868828Y-110386857D02*
G01*
X129956836Y-110530473D01*
X130028651Y-110614558D01*
X130029015Y-110616525D01*
X130027494Y-110617824D01*
X130026973Y-110617851D01*
X129940000Y-110611006D01*
X129772080Y-110624222D01*
X129770275Y-110623361D01*
X129770118Y-110621367D01*
X129771653Y-110620246D01*
X129798872Y-110616541D01*
X129862358Y-110588125D01*
X129900239Y-110530145D01*
X129900763Y-110460698D01*
X129890869Y-110436321D01*
X129865361Y-110388849D01*
X129865422Y-110386850D01*
X129867184Y-110385903D01*
X129868828Y-110386857D01*
G37*
G36*
X110818828Y-110386857D02*
G01*
X110906836Y-110530473D01*
X110978651Y-110614558D01*
X110979015Y-110616525D01*
X110977494Y-110617824D01*
X110976973Y-110617851D01*
X110890000Y-110611006D01*
X110722080Y-110624222D01*
X110720275Y-110623361D01*
X110720118Y-110621367D01*
X110721653Y-110620246D01*
X110748872Y-110616541D01*
X110812358Y-110588125D01*
X110850239Y-110530145D01*
X110850763Y-110460698D01*
X110840869Y-110436321D01*
X110815361Y-110388849D01*
X110815422Y-110386850D01*
X110817184Y-110385903D01*
X110818828Y-110386857D01*
G37*
G36*
X177539586Y-109823677D02*
G01*
X177699134Y-109861982D01*
X177700585Y-109863359D01*
X177700118Y-109865304D01*
X177699712Y-109865632D01*
X177677104Y-109879485D01*
X177524861Y-110009513D01*
X177522894Y-110009877D01*
X177521595Y-110008356D01*
X177521864Y-110006936D01*
X177556553Y-109951175D01*
X177555537Y-109881923D01*
X177517182Y-109824124D01*
X177482303Y-109804263D01*
X177481293Y-109802537D01*
X177482283Y-109800799D01*
X177484058Y-109800677D01*
X177539586Y-109823677D01*
G37*
G36*
X179110119Y-109452683D02*
G01*
X179109656Y-109454366D01*
X179106629Y-109457818D01*
X179106417Y-109458026D01*
X179091779Y-109470417D01*
X179053501Y-109528496D01*
X179052703Y-109597749D01*
X179089518Y-109656510D01*
X179133730Y-109681687D01*
X179169074Y-109693001D01*
X179169349Y-109693112D01*
X179229388Y-109722720D01*
X179230499Y-109724383D01*
X179229614Y-109726177D01*
X179227738Y-109726362D01*
X179066244Y-109659469D01*
X178906696Y-109621164D01*
X178905245Y-109619787D01*
X178905712Y-109617842D01*
X178906118Y-109617514D01*
X178928726Y-109603661D01*
X179106853Y-109451526D01*
X179108820Y-109451162D01*
X179110119Y-109452683D01*
G37*
G36*
X172632437Y-108508775D02*
G01*
X172632680Y-108508876D01*
X172847006Y-108560331D01*
X172848457Y-108561708D01*
X172847990Y-108563653D01*
X172846735Y-108564266D01*
X172787085Y-108570129D01*
X172732763Y-108613094D01*
X172710241Y-108678758D01*
X172713147Y-108711385D01*
X172738107Y-108821692D01*
X172737514Y-108823602D01*
X172735563Y-108824043D01*
X172734211Y-108822600D01*
X172700403Y-108681782D01*
X172629823Y-108511387D01*
X172630084Y-108509404D01*
X172631932Y-108508639D01*
X172632437Y-108508775D01*
G37*
G36*
X170917261Y-107465829D02*
G01*
X170917846Y-107467195D01*
X170919508Y-107537021D01*
X170958327Y-107594376D01*
X171022150Y-107621707D01*
X171048785Y-107621490D01*
X171050525Y-107622476D01*
X171050541Y-107624476D01*
X171048958Y-107625484D01*
X170984908Y-107630525D01*
X170748557Y-107687268D01*
X170604155Y-107747081D01*
X170602172Y-107746820D01*
X170601407Y-107744972D01*
X170602553Y-107743417D01*
X170690861Y-107702706D01*
X170743268Y-107656967D01*
X170762543Y-107590445D01*
X170742793Y-107524062D01*
X170690126Y-107478754D01*
X170671317Y-107472030D01*
X170670022Y-107470506D01*
X170670696Y-107468622D01*
X170672508Y-107468215D01*
X170849850Y-107515734D01*
X170869114Y-107516997D01*
X170887202Y-107510856D01*
X170901566Y-107498260D01*
X170910104Y-107480946D01*
X170913915Y-107466725D01*
X170915329Y-107465311D01*
X170917261Y-107465829D01*
G37*
G36*
X171601681Y-107362382D02*
G01*
X171638169Y-107514362D01*
X171708749Y-107684757D01*
X171708488Y-107686740D01*
X171706640Y-107687505D01*
X171706135Y-107687369D01*
X171705892Y-107687268D01*
X171495357Y-107636723D01*
X171493906Y-107635346D01*
X171494373Y-107633401D01*
X171495576Y-107632793D01*
X171555673Y-107625293D01*
X171608851Y-107580922D01*
X171629632Y-107514739D01*
X171622408Y-107470821D01*
X171615208Y-107450769D01*
X171615128Y-107450483D01*
X171597774Y-107363239D01*
X171598417Y-107361345D01*
X171600379Y-107360955D01*
X171601681Y-107362382D01*
G37*
G36*
X91806485Y-105302913D02*
G01*
X91806282Y-105304663D01*
X91800089Y-105314290D01*
X91799911Y-105314527D01*
X91792753Y-105322689D01*
X91763483Y-105385787D01*
X91772932Y-105454397D01*
X91817974Y-105507005D01*
X91885607Y-105527083D01*
X91886983Y-105528534D01*
X91886414Y-105530452D01*
X91885038Y-105531000D01*
X91860199Y-105531000D01*
X91841262Y-105534767D01*
X91825380Y-105545380D01*
X91814767Y-105561262D01*
X91811000Y-105580199D01*
X91811000Y-105618346D01*
X91810000Y-105620078D01*
X91808000Y-105620078D01*
X91807081Y-105618909D01*
X91787404Y-105551894D01*
X91735061Y-105506539D01*
X91666501Y-105496682D01*
X91604312Y-105524652D01*
X91532851Y-105585148D01*
X91530883Y-105585504D01*
X91529591Y-105583978D01*
X91530260Y-105582101D01*
X91655304Y-105475304D01*
X91803079Y-105302282D01*
X91804964Y-105301614D01*
X91806485Y-105302913D01*
G37*
G36*
X148996485Y-100172913D02*
G01*
X148996282Y-100174663D01*
X148990089Y-100184290D01*
X148989911Y-100184527D01*
X148982753Y-100192689D01*
X148953483Y-100255787D01*
X148962932Y-100324397D01*
X149007974Y-100377005D01*
X149075607Y-100397083D01*
X149076983Y-100398534D01*
X149076414Y-100400452D01*
X149075038Y-100401000D01*
X149050199Y-100401000D01*
X149031262Y-100404767D01*
X149015380Y-100415380D01*
X149004767Y-100431262D01*
X149001000Y-100450199D01*
X149001000Y-100488346D01*
X149000000Y-100490078D01*
X148998000Y-100490078D01*
X148997081Y-100488909D01*
X148977404Y-100421894D01*
X148925061Y-100376539D01*
X148856501Y-100366682D01*
X148794312Y-100394652D01*
X148722851Y-100455148D01*
X148720883Y-100455504D01*
X148719591Y-100453978D01*
X148720260Y-100452101D01*
X148845304Y-100345304D01*
X148993079Y-100172282D01*
X148994964Y-100171614D01*
X148996485Y-100172913D01*
G37*
G36*
X98100000Y-97148994D02*
G01*
X98186973Y-97142149D01*
X98188778Y-97143010D01*
X98188935Y-97145004D01*
X98188651Y-97145442D01*
X98116836Y-97229527D01*
X98030824Y-97369886D01*
X98029067Y-97370840D01*
X98027361Y-97369795D01*
X98027409Y-97367803D01*
X98049959Y-97330641D01*
X98067828Y-97263419D01*
X98046610Y-97197491D01*
X97993030Y-97153430D01*
X97949603Y-97143676D01*
X97924378Y-97142685D01*
X97924083Y-97142652D01*
X97892574Y-97136670D01*
X97891059Y-97135364D01*
X97891432Y-97133399D01*
X97893104Y-97132711D01*
X98100000Y-97148994D01*
G37*
G36*
X93172119Y-97138025D02*
G01*
X93172276Y-97140019D01*
X93170689Y-97141146D01*
X93161596Y-97142142D01*
X93097386Y-97168887D01*
X93058000Y-97225856D01*
X93055659Y-97295237D01*
X93067981Y-97325593D01*
X93085405Y-97356080D01*
X93085397Y-97358080D01*
X93083660Y-97359072D01*
X93081964Y-97358117D01*
X93003164Y-97229527D01*
X92931349Y-97145442D01*
X92930985Y-97143475D01*
X92932506Y-97142176D01*
X92933027Y-97142149D01*
X93020000Y-97148994D01*
X93170314Y-97137164D01*
X93172119Y-97138025D01*
G37*
G36*
X91012919Y-96582047D02*
G01*
X91032596Y-96649062D01*
X91084939Y-96694417D01*
X91153641Y-96704295D01*
X91187628Y-96694249D01*
X91206114Y-96685727D01*
X91206391Y-96685623D01*
X91237187Y-96676647D01*
X91239130Y-96677122D01*
X91239690Y-96679042D01*
X91238512Y-96680415D01*
X91046770Y-96759837D01*
X90856741Y-96876287D01*
X90854742Y-96876340D01*
X90853697Y-96874634D01*
X90854173Y-96873286D01*
X90894366Y-96826037D01*
X90903597Y-96757397D01*
X90874252Y-96694662D01*
X90815518Y-96657668D01*
X90781829Y-96652981D01*
X90780252Y-96651752D01*
X90780527Y-96649771D01*
X90782105Y-96649000D01*
X90959801Y-96649000D01*
X90978738Y-96645233D01*
X90994620Y-96634620D01*
X91005233Y-96618738D01*
X91009000Y-96599801D01*
X91009000Y-96582610D01*
X91010000Y-96580878D01*
X91012000Y-96580878D01*
X91012919Y-96582047D01*
G37*
G36*
X99472028Y-96322246D02*
G01*
X99472094Y-96324021D01*
X99464568Y-96340729D01*
X99464426Y-96340990D01*
X99423077Y-96405274D01*
X99403453Y-96472008D01*
X99422940Y-96538468D01*
X99475384Y-96583948D01*
X99506734Y-96593478D01*
X99557630Y-96601767D01*
X99559179Y-96603032D01*
X99558858Y-96605006D01*
X99557152Y-96605735D01*
X99370000Y-96591006D01*
X99283027Y-96597851D01*
X99281222Y-96596990D01*
X99281065Y-96594996D01*
X99281349Y-96594558D01*
X99353164Y-96510473D01*
X99468565Y-96322155D01*
X99470322Y-96321201D01*
X99472028Y-96322246D01*
G37*
G36*
X91678828Y-96366857D02*
G01*
X91766836Y-96510473D01*
X91838651Y-96594558D01*
X91839015Y-96596525D01*
X91837494Y-96597824D01*
X91836973Y-96597851D01*
X91750000Y-96591006D01*
X91582080Y-96604222D01*
X91580275Y-96603361D01*
X91580118Y-96601367D01*
X91581653Y-96600246D01*
X91608872Y-96596541D01*
X91672358Y-96568125D01*
X91710239Y-96510145D01*
X91710763Y-96440698D01*
X91700869Y-96416321D01*
X91675361Y-96368849D01*
X91675422Y-96366850D01*
X91677184Y-96365903D01*
X91678828Y-96366857D01*
G37*
G36*
X110996485Y-95622913D02*
G01*
X110996282Y-95624663D01*
X110990089Y-95634290D01*
X110989911Y-95634527D01*
X110982753Y-95642689D01*
X110953483Y-95705787D01*
X110962932Y-95774397D01*
X111007974Y-95827005D01*
X111075607Y-95847083D01*
X111076983Y-95848534D01*
X111076414Y-95850452D01*
X111075038Y-95851000D01*
X111050199Y-95851000D01*
X111031262Y-95854767D01*
X111015380Y-95865380D01*
X111004767Y-95881262D01*
X111001000Y-95900199D01*
X111001000Y-95938346D01*
X111000000Y-95940078D01*
X110998000Y-95940078D01*
X110997081Y-95938909D01*
X110977404Y-95871894D01*
X110925061Y-95826539D01*
X110856501Y-95816682D01*
X110794312Y-95844652D01*
X110722851Y-95905148D01*
X110720883Y-95905504D01*
X110719591Y-95903978D01*
X110720260Y-95902101D01*
X110845304Y-95795304D01*
X110993079Y-95622282D01*
X110994964Y-95621614D01*
X110996485Y-95622913D01*
G37*
G36*
X155290000Y-92018994D02*
G01*
X155376973Y-92012149D01*
X155378778Y-92013010D01*
X155378935Y-92015004D01*
X155378651Y-92015442D01*
X155306836Y-92099527D01*
X155220824Y-92239886D01*
X155219067Y-92240840D01*
X155217361Y-92239795D01*
X155217409Y-92237803D01*
X155239959Y-92200641D01*
X155257828Y-92133419D01*
X155236610Y-92067491D01*
X155183030Y-92023430D01*
X155139603Y-92013676D01*
X155114378Y-92012685D01*
X155114083Y-92012652D01*
X155082574Y-92006670D01*
X155081059Y-92005364D01*
X155081432Y-92003399D01*
X155083104Y-92002711D01*
X155290000Y-92018994D01*
G37*
G36*
X150362119Y-92008025D02*
G01*
X150362276Y-92010019D01*
X150360689Y-92011146D01*
X150351596Y-92012142D01*
X150287386Y-92038887D01*
X150248000Y-92095856D01*
X150245659Y-92165237D01*
X150257981Y-92195593D01*
X150275405Y-92226080D01*
X150275397Y-92228080D01*
X150273660Y-92229072D01*
X150271964Y-92228117D01*
X150193164Y-92099527D01*
X150121349Y-92015442D01*
X150120985Y-92013475D01*
X150122506Y-92012176D01*
X150123027Y-92012149D01*
X150210000Y-92018994D01*
X150360314Y-92007164D01*
X150362119Y-92008025D01*
G37*
G36*
X148202919Y-91452047D02*
G01*
X148222596Y-91519062D01*
X148274939Y-91564417D01*
X148343641Y-91574295D01*
X148377628Y-91564249D01*
X148396114Y-91555727D01*
X148396391Y-91555623D01*
X148427187Y-91546647D01*
X148429130Y-91547122D01*
X148429690Y-91549042D01*
X148428512Y-91550415D01*
X148236770Y-91629837D01*
X148046741Y-91746287D01*
X148044742Y-91746340D01*
X148043697Y-91744634D01*
X148044173Y-91743286D01*
X148084366Y-91696037D01*
X148093597Y-91627397D01*
X148064252Y-91564662D01*
X148005518Y-91527668D01*
X147971829Y-91522981D01*
X147970252Y-91521752D01*
X147970527Y-91519771D01*
X147972105Y-91519000D01*
X148149801Y-91519000D01*
X148168738Y-91515233D01*
X148184620Y-91504620D01*
X148195233Y-91488738D01*
X148199000Y-91469801D01*
X148199000Y-91452610D01*
X148200000Y-91450878D01*
X148202000Y-91450878D01*
X148202919Y-91452047D01*
G37*
G36*
X156662028Y-91192246D02*
G01*
X156662094Y-91194021D01*
X156654568Y-91210729D01*
X156654426Y-91210990D01*
X156613077Y-91275274D01*
X156593453Y-91342008D01*
X156612940Y-91408468D01*
X156665384Y-91453948D01*
X156696734Y-91463478D01*
X156747630Y-91471767D01*
X156749179Y-91473032D01*
X156748858Y-91475006D01*
X156747152Y-91475735D01*
X156560000Y-91461006D01*
X156473027Y-91467851D01*
X156471222Y-91466990D01*
X156471065Y-91464996D01*
X156471349Y-91464558D01*
X156543164Y-91380473D01*
X156658565Y-91192155D01*
X156660322Y-91191201D01*
X156662028Y-91192246D01*
G37*
G36*
X148868828Y-91236857D02*
G01*
X148956836Y-91380473D01*
X149028651Y-91464558D01*
X149029015Y-91466525D01*
X149027494Y-91467824D01*
X149026973Y-91467851D01*
X148940000Y-91461006D01*
X148772080Y-91474222D01*
X148770275Y-91473361D01*
X148770118Y-91471367D01*
X148771653Y-91470246D01*
X148798872Y-91466541D01*
X148862358Y-91438125D01*
X148900239Y-91380145D01*
X148900763Y-91310698D01*
X148890869Y-91286321D01*
X148865361Y-91238849D01*
X148865422Y-91236850D01*
X148867184Y-91235903D01*
X148868828Y-91236857D01*
G37*
G36*
X129996485Y-90672913D02*
G01*
X129996282Y-90674663D01*
X129990089Y-90684290D01*
X129989911Y-90684527D01*
X129982753Y-90692689D01*
X129953483Y-90755787D01*
X129962932Y-90824397D01*
X130007974Y-90877005D01*
X130075607Y-90897083D01*
X130076983Y-90898534D01*
X130076414Y-90900452D01*
X130075038Y-90901000D01*
X130050199Y-90901000D01*
X130031262Y-90904767D01*
X130015380Y-90915380D01*
X130004767Y-90931262D01*
X130001000Y-90950199D01*
X130001000Y-90988346D01*
X130000000Y-90990078D01*
X129998000Y-90990078D01*
X129997081Y-90988909D01*
X129977404Y-90921894D01*
X129925061Y-90876539D01*
X129856501Y-90866682D01*
X129794312Y-90894652D01*
X129722851Y-90955148D01*
X129720883Y-90955504D01*
X129719591Y-90953978D01*
X129720260Y-90952101D01*
X129845304Y-90845304D01*
X129993079Y-90672282D01*
X129994964Y-90671614D01*
X129996485Y-90672913D01*
G37*
G36*
X117290000Y-87468994D02*
G01*
X117376973Y-87462149D01*
X117378778Y-87463010D01*
X117378935Y-87465004D01*
X117378651Y-87465442D01*
X117306836Y-87549527D01*
X117220824Y-87689886D01*
X117219067Y-87690840D01*
X117217361Y-87689795D01*
X117217409Y-87687803D01*
X117239959Y-87650641D01*
X117257828Y-87583419D01*
X117236610Y-87517491D01*
X117183030Y-87473430D01*
X117139603Y-87463676D01*
X117114378Y-87462685D01*
X117114083Y-87462652D01*
X117082574Y-87456670D01*
X117081059Y-87455364D01*
X117081432Y-87453399D01*
X117083104Y-87452711D01*
X117290000Y-87468994D01*
G37*
G36*
X112362119Y-87458025D02*
G01*
X112362276Y-87460019D01*
X112360689Y-87461146D01*
X112351596Y-87462142D01*
X112287386Y-87488887D01*
X112248000Y-87545856D01*
X112245659Y-87615237D01*
X112257981Y-87645593D01*
X112275405Y-87676080D01*
X112275397Y-87678080D01*
X112273660Y-87679072D01*
X112271964Y-87678117D01*
X112193164Y-87549527D01*
X112121349Y-87465442D01*
X112120985Y-87463475D01*
X112122506Y-87462176D01*
X112123027Y-87462149D01*
X112210000Y-87468994D01*
X112360314Y-87457164D01*
X112362119Y-87458025D01*
G37*
G36*
X110202919Y-86902047D02*
G01*
X110222596Y-86969062D01*
X110274939Y-87014417D01*
X110343641Y-87024295D01*
X110377628Y-87014249D01*
X110396114Y-87005727D01*
X110396391Y-87005623D01*
X110427187Y-86996647D01*
X110429130Y-86997122D01*
X110429690Y-86999042D01*
X110428512Y-87000415D01*
X110236770Y-87079837D01*
X110046741Y-87196287D01*
X110044742Y-87196340D01*
X110043697Y-87194634D01*
X110044173Y-87193286D01*
X110084366Y-87146037D01*
X110093597Y-87077397D01*
X110064252Y-87014662D01*
X110005518Y-86977668D01*
X109971829Y-86972981D01*
X109970252Y-86971752D01*
X109970527Y-86969771D01*
X109972105Y-86969000D01*
X110149801Y-86969000D01*
X110168738Y-86965233D01*
X110184620Y-86954620D01*
X110195233Y-86938738D01*
X110199000Y-86919801D01*
X110199000Y-86902610D01*
X110200000Y-86900878D01*
X110202000Y-86900878D01*
X110202919Y-86902047D01*
G37*
G36*
X118662028Y-86642246D02*
G01*
X118662094Y-86644021D01*
X118654568Y-86660729D01*
X118654426Y-86660990D01*
X118613077Y-86725274D01*
X118593453Y-86792008D01*
X118612940Y-86858468D01*
X118665384Y-86903948D01*
X118696734Y-86913478D01*
X118747630Y-86921767D01*
X118749179Y-86923032D01*
X118748858Y-86925006D01*
X118747152Y-86925735D01*
X118560000Y-86911006D01*
X118473027Y-86917851D01*
X118471222Y-86916990D01*
X118471065Y-86914996D01*
X118471349Y-86914558D01*
X118543164Y-86830473D01*
X118658565Y-86642155D01*
X118660322Y-86641201D01*
X118662028Y-86642246D01*
G37*
G36*
X110868828Y-86686857D02*
G01*
X110956836Y-86830473D01*
X111028651Y-86914558D01*
X111029015Y-86916525D01*
X111027494Y-86917824D01*
X111026973Y-86917851D01*
X110940000Y-86911006D01*
X110772080Y-86924222D01*
X110770275Y-86923361D01*
X110770118Y-86921367D01*
X110771653Y-86920246D01*
X110798872Y-86916541D01*
X110862358Y-86888125D01*
X110900239Y-86830145D01*
X110900763Y-86760698D01*
X110890869Y-86736321D01*
X110865361Y-86688849D01*
X110865422Y-86686850D01*
X110867184Y-86685903D01*
X110868828Y-86686857D01*
G37*
G36*
X91846485Y-86222913D02*
G01*
X91846282Y-86224663D01*
X91840089Y-86234290D01*
X91839911Y-86234527D01*
X91832753Y-86242689D01*
X91803483Y-86305787D01*
X91812932Y-86374397D01*
X91857974Y-86427005D01*
X91925607Y-86447083D01*
X91926983Y-86448534D01*
X91926414Y-86450452D01*
X91925038Y-86451000D01*
X91900199Y-86451000D01*
X91881262Y-86454767D01*
X91865380Y-86465380D01*
X91854767Y-86481262D01*
X91851000Y-86500199D01*
X91851000Y-86538346D01*
X91850000Y-86540078D01*
X91848000Y-86540078D01*
X91847081Y-86538909D01*
X91827404Y-86471894D01*
X91775061Y-86426539D01*
X91706501Y-86416682D01*
X91644312Y-86444652D01*
X91572851Y-86505148D01*
X91570883Y-86505504D01*
X91569591Y-86503978D01*
X91570260Y-86502101D01*
X91695304Y-86395304D01*
X91843079Y-86222282D01*
X91844964Y-86221614D01*
X91846485Y-86222913D01*
G37*
G36*
X136290000Y-82518994D02*
G01*
X136376973Y-82512149D01*
X136378778Y-82513010D01*
X136378935Y-82515004D01*
X136378651Y-82515442D01*
X136306836Y-82599527D01*
X136220824Y-82739886D01*
X136219067Y-82740840D01*
X136217361Y-82739795D01*
X136217409Y-82737803D01*
X136239959Y-82700641D01*
X136257828Y-82633419D01*
X136236610Y-82567491D01*
X136183030Y-82523430D01*
X136139603Y-82513676D01*
X136114378Y-82512685D01*
X136114083Y-82512652D01*
X136082574Y-82506670D01*
X136081059Y-82505364D01*
X136081432Y-82503399D01*
X136083104Y-82502711D01*
X136290000Y-82518994D01*
G37*
G36*
X131362119Y-82508025D02*
G01*
X131362276Y-82510019D01*
X131360689Y-82511146D01*
X131351596Y-82512142D01*
X131287386Y-82538887D01*
X131248000Y-82595856D01*
X131245659Y-82665237D01*
X131257981Y-82695593D01*
X131275405Y-82726080D01*
X131275397Y-82728080D01*
X131273660Y-82729072D01*
X131271964Y-82728117D01*
X131193164Y-82599527D01*
X131121349Y-82515442D01*
X131120985Y-82513475D01*
X131122506Y-82512176D01*
X131123027Y-82512149D01*
X131210000Y-82518994D01*
X131360314Y-82507164D01*
X131362119Y-82508025D01*
G37*
G36*
X129202919Y-81952047D02*
G01*
X129222596Y-82019062D01*
X129274939Y-82064417D01*
X129343641Y-82074295D01*
X129377628Y-82064249D01*
X129396114Y-82055727D01*
X129396391Y-82055623D01*
X129427187Y-82046647D01*
X129429130Y-82047122D01*
X129429690Y-82049042D01*
X129428512Y-82050415D01*
X129236770Y-82129837D01*
X129046741Y-82246287D01*
X129044742Y-82246340D01*
X129043697Y-82244634D01*
X129044173Y-82243286D01*
X129084366Y-82196037D01*
X129093597Y-82127397D01*
X129064252Y-82064662D01*
X129005518Y-82027668D01*
X128971829Y-82022981D01*
X128970252Y-82021752D01*
X128970527Y-82019771D01*
X128972105Y-82019000D01*
X129149801Y-82019000D01*
X129168738Y-82015233D01*
X129184620Y-82004620D01*
X129195233Y-81988738D01*
X129199000Y-81969801D01*
X129199000Y-81952610D01*
X129200000Y-81950878D01*
X129202000Y-81950878D01*
X129202919Y-81952047D01*
G37*
G36*
X137662028Y-81692246D02*
G01*
X137662094Y-81694021D01*
X137654568Y-81710729D01*
X137654426Y-81710990D01*
X137613077Y-81775274D01*
X137593453Y-81842008D01*
X137612940Y-81908468D01*
X137665384Y-81953948D01*
X137696734Y-81963478D01*
X137747630Y-81971767D01*
X137749179Y-81973032D01*
X137748858Y-81975006D01*
X137747152Y-81975735D01*
X137560000Y-81961006D01*
X137473027Y-81967851D01*
X137471222Y-81966990D01*
X137471065Y-81964996D01*
X137471349Y-81964558D01*
X137543164Y-81880473D01*
X137658565Y-81692155D01*
X137660322Y-81691201D01*
X137662028Y-81692246D01*
G37*
G36*
X129868828Y-81736857D02*
G01*
X129956836Y-81880473D01*
X130028651Y-81964558D01*
X130029015Y-81966525D01*
X130027494Y-81967824D01*
X130026973Y-81967851D01*
X129940000Y-81961006D01*
X129772080Y-81974222D01*
X129770275Y-81973361D01*
X129770118Y-81971367D01*
X129771653Y-81970246D01*
X129798872Y-81966541D01*
X129862358Y-81938125D01*
X129900239Y-81880145D01*
X129900763Y-81810698D01*
X129890869Y-81786321D01*
X129865361Y-81738849D01*
X129865422Y-81736850D01*
X129867184Y-81735903D01*
X129868828Y-81736857D01*
G37*
G36*
X148996485Y-81172913D02*
G01*
X148996282Y-81174663D01*
X148990089Y-81184290D01*
X148989911Y-81184527D01*
X148982753Y-81192689D01*
X148953483Y-81255787D01*
X148962932Y-81324397D01*
X149007974Y-81377005D01*
X149075607Y-81397083D01*
X149076983Y-81398534D01*
X149076414Y-81400452D01*
X149075038Y-81401000D01*
X149050199Y-81401000D01*
X149031262Y-81404767D01*
X149015380Y-81415380D01*
X149004767Y-81431262D01*
X149001000Y-81450199D01*
X149001000Y-81488346D01*
X149000000Y-81490078D01*
X148998000Y-81490078D01*
X148997081Y-81488909D01*
X148977404Y-81421894D01*
X148925061Y-81376539D01*
X148856501Y-81366682D01*
X148794312Y-81394652D01*
X148722851Y-81455148D01*
X148720883Y-81455504D01*
X148719591Y-81453978D01*
X148720260Y-81452101D01*
X148845304Y-81345304D01*
X148993079Y-81172282D01*
X148994964Y-81171614D01*
X148996485Y-81172913D01*
G37*
G36*
X172807839Y-78170238D02*
G01*
X172807377Y-78171651D01*
X172806760Y-78172388D01*
X172806494Y-78172651D01*
X172804789Y-78174049D01*
X172804860Y-78174480D01*
X172804521Y-78175059D01*
X172762529Y-78225192D01*
X172753821Y-78293901D01*
X172783671Y-78356471D01*
X172796315Y-78365439D01*
X172796574Y-78365657D01*
X172808198Y-78377305D01*
X172808713Y-78379238D01*
X172807298Y-78380650D01*
X172806015Y-78380565D01*
X172793802Y-78375491D01*
X172774699Y-78375471D01*
X172756853Y-78382841D01*
X172035309Y-78863870D01*
X172033314Y-78863999D01*
X172033091Y-78863870D01*
X171311463Y-78382784D01*
X171303038Y-78378288D01*
X171284200Y-78374541D01*
X171267819Y-78377799D01*
X171265925Y-78377156D01*
X171265535Y-78375194D01*
X171265894Y-78374554D01*
X171307655Y-78324582D01*
X171316286Y-78255866D01*
X171286321Y-78193236D01*
X171267655Y-78177080D01*
X171267551Y-78176983D01*
X171264746Y-78174183D01*
X171264227Y-78172252D01*
X171265640Y-78170837D01*
X171267268Y-78171104D01*
X172006855Y-78664162D01*
X172024597Y-78671511D01*
X172043701Y-78671531D01*
X172061547Y-78664161D01*
X172804734Y-78168703D01*
X172806729Y-78168574D01*
X172807839Y-78170238D01*
G37*
G36*
X177735439Y-78122738D02*
G01*
X177734977Y-78124151D01*
X177734360Y-78124888D01*
X177734094Y-78125151D01*
X177732389Y-78126549D01*
X177732460Y-78126980D01*
X177732121Y-78127559D01*
X177690129Y-78177692D01*
X177681421Y-78246401D01*
X177711271Y-78308971D01*
X177723915Y-78317939D01*
X177724174Y-78318157D01*
X177735798Y-78329805D01*
X177736313Y-78331738D01*
X177734898Y-78333150D01*
X177733615Y-78333065D01*
X177721402Y-78327991D01*
X177702299Y-78327971D01*
X177684453Y-78335341D01*
X176962909Y-78816370D01*
X176960914Y-78816499D01*
X176960691Y-78816370D01*
X176239063Y-78335284D01*
X176230638Y-78330788D01*
X176211800Y-78327041D01*
X176195419Y-78330299D01*
X176193525Y-78329656D01*
X176193135Y-78327694D01*
X176193494Y-78327054D01*
X176235255Y-78277082D01*
X176243886Y-78208366D01*
X176213921Y-78145736D01*
X176195255Y-78129580D01*
X176195151Y-78129483D01*
X176192346Y-78126683D01*
X176191827Y-78124752D01*
X176193240Y-78123337D01*
X176194868Y-78123604D01*
X176934455Y-78616662D01*
X176952197Y-78624011D01*
X176971301Y-78624031D01*
X176989147Y-78616661D01*
X177732334Y-78121203D01*
X177734329Y-78121074D01*
X177735439Y-78122738D01*
G37*
G36*
X98140000Y-78068994D02*
G01*
X98226973Y-78062149D01*
X98228778Y-78063010D01*
X98228935Y-78065004D01*
X98228651Y-78065442D01*
X98156836Y-78149527D01*
X98070824Y-78289886D01*
X98069067Y-78290840D01*
X98067361Y-78289795D01*
X98067409Y-78287803D01*
X98089959Y-78250641D01*
X98107828Y-78183419D01*
X98086610Y-78117491D01*
X98033030Y-78073430D01*
X97989603Y-78063676D01*
X97964378Y-78062685D01*
X97964083Y-78062652D01*
X97932574Y-78056670D01*
X97931059Y-78055364D01*
X97931432Y-78053399D01*
X97933104Y-78052711D01*
X98140000Y-78068994D01*
G37*
G36*
X93212119Y-78058025D02*
G01*
X93212276Y-78060019D01*
X93210689Y-78061146D01*
X93201596Y-78062142D01*
X93137386Y-78088887D01*
X93098000Y-78145856D01*
X93095659Y-78215237D01*
X93107981Y-78245593D01*
X93125405Y-78276080D01*
X93125397Y-78278080D01*
X93123660Y-78279072D01*
X93121964Y-78278117D01*
X93043164Y-78149527D01*
X92971349Y-78065442D01*
X92970985Y-78063475D01*
X92972506Y-78062176D01*
X92973027Y-78062149D01*
X93060000Y-78068994D01*
X93210314Y-78057164D01*
X93212119Y-78058025D01*
G37*
G36*
X91052919Y-77502047D02*
G01*
X91072596Y-77569062D01*
X91124939Y-77614417D01*
X91193641Y-77624295D01*
X91227628Y-77614249D01*
X91246114Y-77605727D01*
X91246391Y-77605623D01*
X91277187Y-77596647D01*
X91279130Y-77597122D01*
X91279690Y-77599042D01*
X91278512Y-77600415D01*
X91086770Y-77679837D01*
X90896741Y-77796287D01*
X90894742Y-77796340D01*
X90893697Y-77794634D01*
X90894173Y-77793286D01*
X90934366Y-77746037D01*
X90943597Y-77677397D01*
X90914252Y-77614662D01*
X90855518Y-77577668D01*
X90821829Y-77572981D01*
X90820252Y-77571752D01*
X90820527Y-77569771D01*
X90822105Y-77569000D01*
X90999801Y-77569000D01*
X91018738Y-77565233D01*
X91034620Y-77554620D01*
X91045233Y-77538738D01*
X91049000Y-77519801D01*
X91049000Y-77502610D01*
X91050000Y-77500878D01*
X91052000Y-77500878D01*
X91052919Y-77502047D01*
G37*
G36*
X99512028Y-77242246D02*
G01*
X99512094Y-77244021D01*
X99504568Y-77260729D01*
X99504426Y-77260990D01*
X99463077Y-77325274D01*
X99443453Y-77392008D01*
X99462940Y-77458468D01*
X99515384Y-77503948D01*
X99546734Y-77513478D01*
X99597630Y-77521767D01*
X99599179Y-77523032D01*
X99598858Y-77525006D01*
X99597152Y-77525735D01*
X99410000Y-77511006D01*
X99323027Y-77517851D01*
X99321222Y-77516990D01*
X99321065Y-77514996D01*
X99321349Y-77514558D01*
X99393164Y-77430473D01*
X99508565Y-77242155D01*
X99510322Y-77241201D01*
X99512028Y-77242246D01*
G37*
G36*
X91718828Y-77286857D02*
G01*
X91806836Y-77430473D01*
X91878651Y-77514558D01*
X91879015Y-77516525D01*
X91877494Y-77517824D01*
X91876973Y-77517851D01*
X91790000Y-77511006D01*
X91622080Y-77524222D01*
X91620275Y-77523361D01*
X91620118Y-77521367D01*
X91621653Y-77520246D01*
X91648872Y-77516541D01*
X91712358Y-77488125D01*
X91750239Y-77430145D01*
X91750763Y-77360698D01*
X91740869Y-77336321D01*
X91715361Y-77288849D01*
X91715422Y-77286850D01*
X91717184Y-77285903D01*
X91718828Y-77286857D01*
G37*
G36*
X111046485Y-76722913D02*
G01*
X111046282Y-76724663D01*
X111040089Y-76734290D01*
X111039911Y-76734527D01*
X111032753Y-76742689D01*
X111003483Y-76805787D01*
X111012932Y-76874397D01*
X111057974Y-76927005D01*
X111125607Y-76947083D01*
X111126983Y-76948534D01*
X111126414Y-76950452D01*
X111125038Y-76951000D01*
X111100199Y-76951000D01*
X111081262Y-76954767D01*
X111065380Y-76965380D01*
X111054767Y-76981262D01*
X111051000Y-77000199D01*
X111051000Y-77038346D01*
X111050000Y-77040078D01*
X111048000Y-77040078D01*
X111047081Y-77038909D01*
X111027404Y-76971894D01*
X110975061Y-76926539D01*
X110906501Y-76916682D01*
X110844312Y-76944652D01*
X110772851Y-77005148D01*
X110770883Y-77005504D01*
X110769591Y-77003978D01*
X110770260Y-77002101D01*
X110895304Y-76895304D01*
X111043079Y-76722282D01*
X111044964Y-76721614D01*
X111046485Y-76722913D01*
G37*
G36*
X155290000Y-73018994D02*
G01*
X155376973Y-73012149D01*
X155378778Y-73013010D01*
X155378935Y-73015004D01*
X155378651Y-73015442D01*
X155306836Y-73099527D01*
X155220824Y-73239886D01*
X155219067Y-73240840D01*
X155217361Y-73239795D01*
X155217409Y-73237803D01*
X155239959Y-73200641D01*
X155257828Y-73133419D01*
X155236610Y-73067491D01*
X155183030Y-73023430D01*
X155139603Y-73013676D01*
X155114378Y-73012685D01*
X155114083Y-73012652D01*
X155082574Y-73006670D01*
X155081059Y-73005364D01*
X155081432Y-73003399D01*
X155083104Y-73002711D01*
X155290000Y-73018994D01*
G37*
G36*
X150362119Y-73008025D02*
G01*
X150362276Y-73010019D01*
X150360689Y-73011146D01*
X150351596Y-73012142D01*
X150287386Y-73038887D01*
X150248000Y-73095856D01*
X150245659Y-73165237D01*
X150257981Y-73195593D01*
X150275405Y-73226080D01*
X150275397Y-73228080D01*
X150273660Y-73229072D01*
X150271964Y-73228117D01*
X150193164Y-73099527D01*
X150121349Y-73015442D01*
X150120985Y-73013475D01*
X150122506Y-73012176D01*
X150123027Y-73012149D01*
X150210000Y-73018994D01*
X150360314Y-73007164D01*
X150362119Y-73008025D01*
G37*
G36*
X148202919Y-72452047D02*
G01*
X148222596Y-72519062D01*
X148274939Y-72564417D01*
X148343641Y-72574295D01*
X148377628Y-72564249D01*
X148396114Y-72555727D01*
X148396391Y-72555623D01*
X148427187Y-72546647D01*
X148429130Y-72547122D01*
X148429690Y-72549042D01*
X148428512Y-72550415D01*
X148236770Y-72629837D01*
X148046741Y-72746287D01*
X148044742Y-72746340D01*
X148043697Y-72744634D01*
X148044173Y-72743286D01*
X148084366Y-72696037D01*
X148093597Y-72627397D01*
X148064252Y-72564662D01*
X148005518Y-72527668D01*
X147971829Y-72522981D01*
X147970252Y-72521752D01*
X147970527Y-72519771D01*
X147972105Y-72519000D01*
X148149801Y-72519000D01*
X148168738Y-72515233D01*
X148184620Y-72504620D01*
X148195233Y-72488738D01*
X148199000Y-72469801D01*
X148199000Y-72452610D01*
X148200000Y-72450878D01*
X148202000Y-72450878D01*
X148202919Y-72452047D01*
G37*
G36*
X156662028Y-72192246D02*
G01*
X156662094Y-72194021D01*
X156654568Y-72210729D01*
X156654426Y-72210990D01*
X156613077Y-72275274D01*
X156593453Y-72342008D01*
X156612940Y-72408468D01*
X156665384Y-72453948D01*
X156696734Y-72463478D01*
X156747630Y-72471767D01*
X156749179Y-72473032D01*
X156748858Y-72475006D01*
X156747152Y-72475735D01*
X156560000Y-72461006D01*
X156473027Y-72467851D01*
X156471222Y-72466990D01*
X156471065Y-72464996D01*
X156471349Y-72464558D01*
X156543164Y-72380473D01*
X156658565Y-72192155D01*
X156660322Y-72191201D01*
X156662028Y-72192246D01*
G37*
G36*
X148868828Y-72236857D02*
G01*
X148956836Y-72380473D01*
X149028651Y-72464558D01*
X149029015Y-72466525D01*
X149027494Y-72467824D01*
X149026973Y-72467851D01*
X148940000Y-72461006D01*
X148772080Y-72474222D01*
X148770275Y-72473361D01*
X148770118Y-72471367D01*
X148771653Y-72470246D01*
X148798872Y-72466541D01*
X148862358Y-72438125D01*
X148900239Y-72380145D01*
X148900763Y-72310698D01*
X148890869Y-72286321D01*
X148865361Y-72238849D01*
X148865422Y-72236850D01*
X148867184Y-72235903D01*
X148868828Y-72236857D01*
G37*
G36*
X129946485Y-71672913D02*
G01*
X129946282Y-71674663D01*
X129940089Y-71684290D01*
X129939911Y-71684527D01*
X129932753Y-71692689D01*
X129903483Y-71755787D01*
X129912932Y-71824397D01*
X129957974Y-71877005D01*
X130025607Y-71897083D01*
X130026983Y-71898534D01*
X130026414Y-71900452D01*
X130025038Y-71901000D01*
X130000199Y-71901000D01*
X129981262Y-71904767D01*
X129965380Y-71915380D01*
X129954767Y-71931262D01*
X129951000Y-71950199D01*
X129951000Y-71988346D01*
X129950000Y-71990078D01*
X129948000Y-71990078D01*
X129947081Y-71988909D01*
X129927404Y-71921894D01*
X129875061Y-71876539D01*
X129806501Y-71866682D01*
X129744312Y-71894652D01*
X129672851Y-71955148D01*
X129670883Y-71955504D01*
X129669591Y-71953978D01*
X129670260Y-71952101D01*
X129795304Y-71845304D01*
X129943079Y-71672282D01*
X129944964Y-71671614D01*
X129946485Y-71672913D01*
G37*
G36*
X117340000Y-68568994D02*
G01*
X117426973Y-68562149D01*
X117428778Y-68563010D01*
X117428935Y-68565004D01*
X117428651Y-68565442D01*
X117356836Y-68649527D01*
X117270824Y-68789886D01*
X117269067Y-68790840D01*
X117267361Y-68789795D01*
X117267409Y-68787803D01*
X117289959Y-68750641D01*
X117307828Y-68683419D01*
X117286610Y-68617491D01*
X117233030Y-68573430D01*
X117189603Y-68563676D01*
X117164378Y-68562685D01*
X117164083Y-68562652D01*
X117132574Y-68556670D01*
X117131059Y-68555364D01*
X117131432Y-68553399D01*
X117133104Y-68552711D01*
X117340000Y-68568994D01*
G37*
G36*
X112412119Y-68558025D02*
G01*
X112412276Y-68560019D01*
X112410689Y-68561146D01*
X112401596Y-68562142D01*
X112337386Y-68588887D01*
X112298000Y-68645856D01*
X112295659Y-68715237D01*
X112307981Y-68745593D01*
X112325405Y-68776080D01*
X112325397Y-68778080D01*
X112323660Y-68779072D01*
X112321964Y-68778117D01*
X112243164Y-68649527D01*
X112171349Y-68565442D01*
X112170985Y-68563475D01*
X112172506Y-68562176D01*
X112173027Y-68562149D01*
X112260000Y-68568994D01*
X112410314Y-68557164D01*
X112412119Y-68558025D01*
G37*
G36*
X110252919Y-68002047D02*
G01*
X110272596Y-68069062D01*
X110324939Y-68114417D01*
X110393641Y-68124295D01*
X110427628Y-68114249D01*
X110446114Y-68105727D01*
X110446391Y-68105623D01*
X110477187Y-68096647D01*
X110479130Y-68097122D01*
X110479690Y-68099042D01*
X110478512Y-68100415D01*
X110286770Y-68179837D01*
X110096741Y-68296287D01*
X110094742Y-68296340D01*
X110093697Y-68294634D01*
X110094173Y-68293286D01*
X110134366Y-68246037D01*
X110143597Y-68177397D01*
X110114252Y-68114662D01*
X110055518Y-68077668D01*
X110021829Y-68072981D01*
X110020252Y-68071752D01*
X110020527Y-68069771D01*
X110022105Y-68069000D01*
X110199801Y-68069000D01*
X110218738Y-68065233D01*
X110234620Y-68054620D01*
X110245233Y-68038738D01*
X110249000Y-68019801D01*
X110249000Y-68002610D01*
X110250000Y-68000878D01*
X110252000Y-68000878D01*
X110252919Y-68002047D01*
G37*
G36*
X118712028Y-67742246D02*
G01*
X118712094Y-67744021D01*
X118704568Y-67760729D01*
X118704426Y-67760990D01*
X118663077Y-67825274D01*
X118643453Y-67892008D01*
X118662940Y-67958468D01*
X118715384Y-68003948D01*
X118746734Y-68013478D01*
X118797630Y-68021767D01*
X118799179Y-68023032D01*
X118798858Y-68025006D01*
X118797152Y-68025735D01*
X118610000Y-68011006D01*
X118523027Y-68017851D01*
X118521222Y-68016990D01*
X118521065Y-68014996D01*
X118521349Y-68014558D01*
X118593164Y-67930473D01*
X118708565Y-67742155D01*
X118710322Y-67741201D01*
X118712028Y-67742246D01*
G37*
G36*
X110918828Y-67786857D02*
G01*
X111006836Y-67930473D01*
X111078651Y-68014558D01*
X111079015Y-68016525D01*
X111077494Y-68017824D01*
X111076973Y-68017851D01*
X110990000Y-68011006D01*
X110822080Y-68024222D01*
X110820275Y-68023361D01*
X110820118Y-68021367D01*
X110821653Y-68020246D01*
X110848872Y-68016541D01*
X110912358Y-67988125D01*
X110950239Y-67930145D01*
X110950763Y-67860698D01*
X110940869Y-67836321D01*
X110915361Y-67788849D01*
X110915422Y-67786850D01*
X110917184Y-67785903D01*
X110918828Y-67786857D01*
G37*
G36*
X136240000Y-63518994D02*
G01*
X136326973Y-63512149D01*
X136328778Y-63513010D01*
X136328935Y-63515004D01*
X136328651Y-63515442D01*
X136256836Y-63599527D01*
X136170824Y-63739886D01*
X136169067Y-63740840D01*
X136167361Y-63739795D01*
X136167409Y-63737803D01*
X136189959Y-63700641D01*
X136207828Y-63633419D01*
X136186610Y-63567491D01*
X136133030Y-63523430D01*
X136089603Y-63513676D01*
X136064378Y-63512685D01*
X136064083Y-63512652D01*
X136032574Y-63506670D01*
X136031059Y-63505364D01*
X136031432Y-63503399D01*
X136033104Y-63502711D01*
X136240000Y-63518994D01*
G37*
G36*
X131312119Y-63508025D02*
G01*
X131312276Y-63510019D01*
X131310689Y-63511146D01*
X131301596Y-63512142D01*
X131237386Y-63538887D01*
X131198000Y-63595856D01*
X131195659Y-63665237D01*
X131207981Y-63695593D01*
X131225405Y-63726080D01*
X131225397Y-63728080D01*
X131223660Y-63729072D01*
X131221964Y-63728117D01*
X131143164Y-63599527D01*
X131071349Y-63515442D01*
X131070985Y-63513475D01*
X131072506Y-63512176D01*
X131073027Y-63512149D01*
X131160000Y-63518994D01*
X131310314Y-63507164D01*
X131312119Y-63508025D01*
G37*
G36*
X129152919Y-62952047D02*
G01*
X129172596Y-63019062D01*
X129224939Y-63064417D01*
X129293641Y-63074295D01*
X129327628Y-63064249D01*
X129346114Y-63055727D01*
X129346391Y-63055623D01*
X129377187Y-63046647D01*
X129379130Y-63047122D01*
X129379690Y-63049042D01*
X129378512Y-63050415D01*
X129186770Y-63129837D01*
X128996741Y-63246287D01*
X128994742Y-63246340D01*
X128993697Y-63244634D01*
X128994173Y-63243286D01*
X129034366Y-63196037D01*
X129043597Y-63127397D01*
X129014252Y-63064662D01*
X128955518Y-63027668D01*
X128921829Y-63022981D01*
X128920252Y-63021752D01*
X128920527Y-63019771D01*
X128922105Y-63019000D01*
X129099801Y-63019000D01*
X129118738Y-63015233D01*
X129134620Y-63004620D01*
X129145233Y-62988738D01*
X129149000Y-62969801D01*
X129149000Y-62952610D01*
X129150000Y-62950878D01*
X129152000Y-62950878D01*
X129152919Y-62952047D01*
G37*
G36*
X137612028Y-62692246D02*
G01*
X137612094Y-62694021D01*
X137604568Y-62710729D01*
X137604426Y-62710990D01*
X137563077Y-62775274D01*
X137543453Y-62842008D01*
X137562940Y-62908468D01*
X137615384Y-62953948D01*
X137646734Y-62963478D01*
X137697630Y-62971767D01*
X137699179Y-62973032D01*
X137698858Y-62975006D01*
X137697152Y-62975735D01*
X137510000Y-62961006D01*
X137423027Y-62967851D01*
X137421222Y-62966990D01*
X137421065Y-62964996D01*
X137421349Y-62964558D01*
X137493164Y-62880473D01*
X137608565Y-62692155D01*
X137610322Y-62691201D01*
X137612028Y-62692246D01*
G37*
G36*
X129818828Y-62736857D02*
G01*
X129906836Y-62880473D01*
X129978651Y-62964558D01*
X129979015Y-62966525D01*
X129977494Y-62967824D01*
X129976973Y-62967851D01*
X129890000Y-62961006D01*
X129722080Y-62974222D01*
X129720275Y-62973361D01*
X129720118Y-62971367D01*
X129721653Y-62970246D01*
X129748872Y-62966541D01*
X129812358Y-62938125D01*
X129850239Y-62880145D01*
X129850763Y-62810698D01*
X129840869Y-62786321D01*
X129815361Y-62738849D01*
X129815422Y-62736850D01*
X129817184Y-62735903D01*
X129818828Y-62736857D01*
G37*
G36*
X171959109Y-62273431D02*
G01*
X172680737Y-62754517D01*
X172689162Y-62759013D01*
X172708000Y-62762760D01*
X172724381Y-62759502D01*
X172726275Y-62760145D01*
X172726665Y-62762107D01*
X172726306Y-62762747D01*
X172684545Y-62812719D01*
X172675914Y-62881435D01*
X172705879Y-62944065D01*
X172724545Y-62960221D01*
X172724649Y-62960318D01*
X172727454Y-62963118D01*
X172727973Y-62965049D01*
X172726560Y-62966464D01*
X172724932Y-62966197D01*
X171985345Y-62473139D01*
X171967603Y-62465790D01*
X171948499Y-62465770D01*
X171930653Y-62473140D01*
X171187466Y-62968598D01*
X171185471Y-62968727D01*
X171184361Y-62967063D01*
X171184823Y-62965650D01*
X171185440Y-62964913D01*
X171185706Y-62964650D01*
X171187411Y-62963252D01*
X171187340Y-62962821D01*
X171187679Y-62962242D01*
X171229671Y-62912109D01*
X171238379Y-62843400D01*
X171208529Y-62780830D01*
X171195885Y-62771862D01*
X171195626Y-62771644D01*
X171184002Y-62759996D01*
X171183487Y-62758063D01*
X171184902Y-62756651D01*
X171186185Y-62756736D01*
X171198398Y-62761810D01*
X171217501Y-62761830D01*
X171235347Y-62754460D01*
X171956891Y-62273431D01*
X171958886Y-62273302D01*
X171959109Y-62273431D01*
G37*
G36*
X176912109Y-62248031D02*
G01*
X177633737Y-62729117D01*
X177642162Y-62733613D01*
X177661000Y-62737360D01*
X177677381Y-62734102D01*
X177679275Y-62734745D01*
X177679665Y-62736707D01*
X177679306Y-62737347D01*
X177637545Y-62787319D01*
X177628914Y-62856035D01*
X177658879Y-62918665D01*
X177677545Y-62934821D01*
X177677649Y-62934918D01*
X177680454Y-62937718D01*
X177680973Y-62939649D01*
X177679560Y-62941064D01*
X177677932Y-62940797D01*
X176938345Y-62447739D01*
X176920603Y-62440390D01*
X176901499Y-62440370D01*
X176883653Y-62447740D01*
X176140466Y-62943198D01*
X176138471Y-62943327D01*
X176137361Y-62941663D01*
X176137823Y-62940250D01*
X176138440Y-62939513D01*
X176138706Y-62939250D01*
X176140411Y-62937852D01*
X176140340Y-62937421D01*
X176140679Y-62936842D01*
X176182671Y-62886709D01*
X176191379Y-62818000D01*
X176161529Y-62755430D01*
X176148885Y-62746462D01*
X176148626Y-62746244D01*
X176137002Y-62734596D01*
X176136487Y-62732663D01*
X176137902Y-62731251D01*
X176139185Y-62731336D01*
X176151398Y-62736410D01*
X176170501Y-62736430D01*
X176188347Y-62729060D01*
X176909891Y-62248031D01*
X176911886Y-62247902D01*
X176912109Y-62248031D01*
G37*
G36*
X89341100Y-53757610D02*
G01*
X89341613Y-53759019D01*
X89339173Y-53827672D01*
X89374522Y-53887229D01*
X89436512Y-53918246D01*
X89493214Y-53915184D01*
X89503546Y-53912143D01*
X89505490Y-53912614D01*
X89506055Y-53914532D01*
X89504924Y-53915889D01*
X89372458Y-53974866D01*
X89228846Y-54079205D01*
X89110074Y-54211117D01*
X89021318Y-54364844D01*
X88992823Y-54452543D01*
X88991337Y-54453881D01*
X88989435Y-54453263D01*
X88989015Y-54451320D01*
X89004720Y-54401812D01*
X89006221Y-54332267D01*
X88970044Y-54273210D01*
X88907614Y-54243055D01*
X88854277Y-54245935D01*
X88838005Y-54250479D01*
X88836068Y-54249982D01*
X88835530Y-54248056D01*
X88836654Y-54246726D01*
X88974542Y-54185334D01*
X89118154Y-54080995D01*
X89236926Y-53949083D01*
X89325682Y-53795356D01*
X89337712Y-53758330D01*
X89339198Y-53756992D01*
X89341100Y-53757610D01*
G37*
G36*
X92920019Y-53826778D02*
G01*
X92969464Y-53908421D01*
X93095056Y-54038475D01*
X93224723Y-54123327D01*
X93225625Y-54125113D01*
X93224530Y-54126786D01*
X93222814Y-54126828D01*
X93205033Y-54118911D01*
X93204671Y-54118702D01*
X93180006Y-54100781D01*
X93114492Y-54077406D01*
X93047035Y-54093092D01*
X92998765Y-54142759D01*
X92984996Y-54210706D01*
X93001065Y-54261811D01*
X93035281Y-54321075D01*
X93035281Y-54323075D01*
X93033549Y-54324075D01*
X93031853Y-54323135D01*
X92977565Y-54236256D01*
X92850171Y-54107969D01*
X92724161Y-54028000D01*
X92723235Y-54026227D01*
X92724306Y-54024539D01*
X92726046Y-54024484D01*
X92748966Y-54034689D01*
X92749329Y-54034898D01*
X92773994Y-54052819D01*
X92839508Y-54076194D01*
X92906965Y-54060508D01*
X92955235Y-54010841D01*
X92969004Y-53942894D01*
X92952935Y-53891789D01*
X92916576Y-53828814D01*
X92916576Y-53826814D01*
X92918308Y-53825814D01*
X92920019Y-53826778D01*
G37*
G36*
X110700019Y-53826778D02*
G01*
X110749464Y-53908421D01*
X110875056Y-54038475D01*
X111004723Y-54123327D01*
X111005625Y-54125113D01*
X111004530Y-54126786D01*
X111002814Y-54126828D01*
X110985033Y-54118911D01*
X110984671Y-54118702D01*
X110960006Y-54100781D01*
X110894492Y-54077406D01*
X110827035Y-54093092D01*
X110778765Y-54142759D01*
X110764996Y-54210706D01*
X110781065Y-54261811D01*
X110815281Y-54321075D01*
X110815281Y-54323075D01*
X110813549Y-54324075D01*
X110811853Y-54323135D01*
X110757565Y-54236256D01*
X110630171Y-54107969D01*
X110504161Y-54028000D01*
X110503235Y-54026227D01*
X110504306Y-54024539D01*
X110506046Y-54024484D01*
X110528966Y-54034689D01*
X110529329Y-54034898D01*
X110553994Y-54052819D01*
X110619508Y-54076194D01*
X110686965Y-54060508D01*
X110735235Y-54010841D01*
X110749004Y-53942894D01*
X110732935Y-53891789D01*
X110696576Y-53828814D01*
X110696576Y-53826814D01*
X110698308Y-53825814D01*
X110700019Y-53826778D01*
G37*
G36*
X113240019Y-53826778D02*
G01*
X113289464Y-53908421D01*
X113415056Y-54038475D01*
X113544723Y-54123327D01*
X113545625Y-54125113D01*
X113544530Y-54126786D01*
X113542814Y-54126828D01*
X113525033Y-54118911D01*
X113524671Y-54118702D01*
X113500006Y-54100781D01*
X113434492Y-54077406D01*
X113367035Y-54093092D01*
X113318765Y-54142759D01*
X113304996Y-54210706D01*
X113321065Y-54261811D01*
X113355281Y-54321075D01*
X113355281Y-54323075D01*
X113353549Y-54324075D01*
X113351853Y-54323135D01*
X113297565Y-54236256D01*
X113170171Y-54107969D01*
X113044161Y-54028000D01*
X113043235Y-54026227D01*
X113044306Y-54024539D01*
X113046046Y-54024484D01*
X113068966Y-54034689D01*
X113069329Y-54034898D01*
X113093994Y-54052819D01*
X113159508Y-54076194D01*
X113226965Y-54060508D01*
X113275235Y-54010841D01*
X113289004Y-53942894D01*
X113272935Y-53891789D01*
X113236576Y-53828814D01*
X113236576Y-53826814D01*
X113238308Y-53825814D01*
X113240019Y-53826778D01*
G37*
G36*
X115780019Y-53826778D02*
G01*
X115829464Y-53908421D01*
X115955056Y-54038475D01*
X116084723Y-54123327D01*
X116085625Y-54125113D01*
X116084530Y-54126786D01*
X116082814Y-54126828D01*
X116065033Y-54118911D01*
X116064671Y-54118702D01*
X116040006Y-54100781D01*
X115974492Y-54077406D01*
X115907035Y-54093092D01*
X115858765Y-54142759D01*
X115844996Y-54210706D01*
X115861065Y-54261811D01*
X115895281Y-54321075D01*
X115895281Y-54323075D01*
X115893549Y-54324075D01*
X115891853Y-54323135D01*
X115837565Y-54236256D01*
X115710171Y-54107969D01*
X115584161Y-54028000D01*
X115583235Y-54026227D01*
X115584306Y-54024539D01*
X115586046Y-54024484D01*
X115608966Y-54034689D01*
X115609329Y-54034898D01*
X115633994Y-54052819D01*
X115699508Y-54076194D01*
X115766965Y-54060508D01*
X115815235Y-54010841D01*
X115829004Y-53942894D01*
X115812935Y-53891789D01*
X115776576Y-53828814D01*
X115776576Y-53826814D01*
X115778308Y-53825814D01*
X115780019Y-53826778D01*
G37*
G36*
X108160019Y-53826778D02*
G01*
X108209464Y-53908421D01*
X108335056Y-54038475D01*
X108464723Y-54123327D01*
X108465625Y-54125113D01*
X108464530Y-54126786D01*
X108462814Y-54126828D01*
X108445033Y-54118911D01*
X108444671Y-54118702D01*
X108420006Y-54100781D01*
X108354492Y-54077406D01*
X108287035Y-54093092D01*
X108238765Y-54142759D01*
X108224996Y-54210706D01*
X108241065Y-54261811D01*
X108275281Y-54321075D01*
X108275281Y-54323075D01*
X108273549Y-54324075D01*
X108271853Y-54323135D01*
X108217565Y-54236256D01*
X108090171Y-54107969D01*
X107964161Y-54028000D01*
X107963235Y-54026227D01*
X107964306Y-54024539D01*
X107966046Y-54024484D01*
X107988966Y-54034689D01*
X107989329Y-54034898D01*
X108013994Y-54052819D01*
X108079508Y-54076194D01*
X108146965Y-54060508D01*
X108195235Y-54010841D01*
X108209004Y-53942894D01*
X108192935Y-53891789D01*
X108156576Y-53828814D01*
X108156576Y-53826814D01*
X108158308Y-53825814D01*
X108160019Y-53826778D01*
G37*
G36*
X100540019Y-53826778D02*
G01*
X100589464Y-53908421D01*
X100715056Y-54038475D01*
X100844723Y-54123327D01*
X100845625Y-54125113D01*
X100844530Y-54126786D01*
X100842814Y-54126828D01*
X100825033Y-54118911D01*
X100824671Y-54118702D01*
X100800006Y-54100781D01*
X100734492Y-54077406D01*
X100667035Y-54093092D01*
X100618765Y-54142759D01*
X100604996Y-54210706D01*
X100621065Y-54261811D01*
X100655281Y-54321075D01*
X100655281Y-54323075D01*
X100653549Y-54324075D01*
X100651853Y-54323135D01*
X100597565Y-54236256D01*
X100470171Y-54107969D01*
X100344161Y-54028000D01*
X100343235Y-54026227D01*
X100344306Y-54024539D01*
X100346046Y-54024484D01*
X100368966Y-54034689D01*
X100369329Y-54034898D01*
X100393994Y-54052819D01*
X100459508Y-54076194D01*
X100526965Y-54060508D01*
X100575235Y-54010841D01*
X100589004Y-53942894D01*
X100572935Y-53891789D01*
X100536576Y-53828814D01*
X100536576Y-53826814D01*
X100538308Y-53825814D01*
X100540019Y-53826778D01*
G37*
G36*
X98000019Y-53826778D02*
G01*
X98049464Y-53908421D01*
X98175056Y-54038475D01*
X98304723Y-54123327D01*
X98305625Y-54125113D01*
X98304530Y-54126786D01*
X98302814Y-54126828D01*
X98285033Y-54118911D01*
X98284671Y-54118702D01*
X98260006Y-54100781D01*
X98194492Y-54077406D01*
X98127035Y-54093092D01*
X98078765Y-54142759D01*
X98064996Y-54210706D01*
X98081065Y-54261811D01*
X98115281Y-54321075D01*
X98115281Y-54323075D01*
X98113549Y-54324075D01*
X98111853Y-54323135D01*
X98057565Y-54236256D01*
X97930171Y-54107969D01*
X97804161Y-54028000D01*
X97803235Y-54026227D01*
X97804306Y-54024539D01*
X97806046Y-54024484D01*
X97828966Y-54034689D01*
X97829329Y-54034898D01*
X97853994Y-54052819D01*
X97919508Y-54076194D01*
X97986965Y-54060508D01*
X98035235Y-54010841D01*
X98049004Y-53942894D01*
X98032935Y-53891789D01*
X97996576Y-53828814D01*
X97996576Y-53826814D01*
X97998308Y-53825814D01*
X98000019Y-53826778D01*
G37*
G36*
X118320019Y-53826778D02*
G01*
X118369464Y-53908421D01*
X118495056Y-54038475D01*
X118624723Y-54123327D01*
X118625625Y-54125113D01*
X118624530Y-54126786D01*
X118622814Y-54126828D01*
X118605033Y-54118911D01*
X118604671Y-54118702D01*
X118580006Y-54100781D01*
X118514492Y-54077406D01*
X118447035Y-54093092D01*
X118398765Y-54142759D01*
X118384996Y-54210706D01*
X118401065Y-54261811D01*
X118435281Y-54321075D01*
X118435281Y-54323075D01*
X118433549Y-54324075D01*
X118431853Y-54323135D01*
X118377565Y-54236256D01*
X118250171Y-54107969D01*
X118124161Y-54028000D01*
X118123235Y-54026227D01*
X118124306Y-54024539D01*
X118126046Y-54024484D01*
X118148966Y-54034689D01*
X118149329Y-54034898D01*
X118173994Y-54052819D01*
X118239508Y-54076194D01*
X118306965Y-54060508D01*
X118355235Y-54010841D01*
X118369004Y-53942894D01*
X118352935Y-53891789D01*
X118316576Y-53828814D01*
X118316576Y-53826814D01*
X118318308Y-53825814D01*
X118320019Y-53826778D01*
G37*
G36*
X103080019Y-53826778D02*
G01*
X103129464Y-53908421D01*
X103255056Y-54038475D01*
X103384723Y-54123327D01*
X103385625Y-54125113D01*
X103384530Y-54126786D01*
X103382814Y-54126828D01*
X103365033Y-54118911D01*
X103364671Y-54118702D01*
X103340006Y-54100781D01*
X103274492Y-54077406D01*
X103207035Y-54093092D01*
X103158765Y-54142759D01*
X103144996Y-54210706D01*
X103161065Y-54261811D01*
X103195281Y-54321075D01*
X103195281Y-54323075D01*
X103193549Y-54324075D01*
X103191853Y-54323135D01*
X103137565Y-54236256D01*
X103010171Y-54107969D01*
X102884161Y-54028000D01*
X102883235Y-54026227D01*
X102884306Y-54024539D01*
X102886046Y-54024484D01*
X102908966Y-54034689D01*
X102909329Y-54034898D01*
X102933994Y-54052819D01*
X102999508Y-54076194D01*
X103066965Y-54060508D01*
X103115235Y-54010841D01*
X103129004Y-53942894D01*
X103112935Y-53891789D01*
X103076576Y-53828814D01*
X103076576Y-53826814D01*
X103078308Y-53825814D01*
X103080019Y-53826778D01*
G37*
G36*
X95460019Y-53826778D02*
G01*
X95509464Y-53908421D01*
X95635056Y-54038475D01*
X95764723Y-54123327D01*
X95765625Y-54125113D01*
X95764530Y-54126786D01*
X95762814Y-54126828D01*
X95745033Y-54118911D01*
X95744671Y-54118702D01*
X95720006Y-54100781D01*
X95654492Y-54077406D01*
X95587035Y-54093092D01*
X95538765Y-54142759D01*
X95524996Y-54210706D01*
X95541065Y-54261811D01*
X95575281Y-54321075D01*
X95575281Y-54323075D01*
X95573549Y-54324075D01*
X95571853Y-54323135D01*
X95517565Y-54236256D01*
X95390171Y-54107969D01*
X95264161Y-54028000D01*
X95263235Y-54026227D01*
X95264306Y-54024539D01*
X95266046Y-54024484D01*
X95288966Y-54034689D01*
X95289329Y-54034898D01*
X95313994Y-54052819D01*
X95379508Y-54076194D01*
X95446965Y-54060508D01*
X95495235Y-54010841D01*
X95509004Y-53942894D01*
X95492935Y-53891789D01*
X95456576Y-53828814D01*
X95456576Y-53826814D01*
X95458308Y-53825814D01*
X95460019Y-53826778D01*
G37*
G36*
X105620019Y-53826778D02*
G01*
X105669464Y-53908421D01*
X105795056Y-54038475D01*
X105924723Y-54123327D01*
X105925625Y-54125113D01*
X105924530Y-54126786D01*
X105922814Y-54126828D01*
X105905033Y-54118911D01*
X105904671Y-54118702D01*
X105880006Y-54100781D01*
X105814492Y-54077406D01*
X105747035Y-54093092D01*
X105698765Y-54142759D01*
X105684996Y-54210706D01*
X105701065Y-54261811D01*
X105735281Y-54321075D01*
X105735281Y-54323075D01*
X105733549Y-54324075D01*
X105731853Y-54323135D01*
X105677565Y-54236256D01*
X105550171Y-54107969D01*
X105424161Y-54028000D01*
X105423235Y-54026227D01*
X105424306Y-54024539D01*
X105426046Y-54024484D01*
X105448966Y-54034689D01*
X105449329Y-54034898D01*
X105473994Y-54052819D01*
X105539508Y-54076194D01*
X105606965Y-54060508D01*
X105655235Y-54010841D01*
X105669004Y-53942894D01*
X105652935Y-53891789D01*
X105616576Y-53828814D01*
X105616576Y-53826814D01*
X105618308Y-53825814D01*
X105620019Y-53826778D01*
G37*
G36*
X96840151Y-53839623D02*
G01*
X96840092Y-53841512D01*
X96811099Y-53891730D01*
X96794699Y-53959330D01*
X96817351Y-54024778D01*
X96871790Y-54067591D01*
X96940807Y-54074181D01*
X96989949Y-54052860D01*
X97014669Y-54034899D01*
X97015032Y-54034690D01*
X97043087Y-54022199D01*
X97045076Y-54022408D01*
X97045889Y-54024235D01*
X97044948Y-54025729D01*
X96922707Y-54100932D01*
X96793529Y-54227432D01*
X96734658Y-54318782D01*
X96732879Y-54319697D01*
X96731198Y-54318613D01*
X96731245Y-54316699D01*
X96762900Y-54261871D01*
X96779300Y-54194270D01*
X96756648Y-54128823D01*
X96702209Y-54086010D01*
X96633192Y-54079420D01*
X96584049Y-54100741D01*
X96559329Y-54118702D01*
X96558966Y-54118911D01*
X96525799Y-54133678D01*
X96523810Y-54133469D01*
X96522997Y-54131642D01*
X96523962Y-54130133D01*
X96642324Y-54059575D01*
X96773250Y-53934895D01*
X96836694Y-53839405D01*
X96838486Y-53838516D01*
X96840151Y-53839623D01*
G37*
G36*
X99380151Y-53839623D02*
G01*
X99380092Y-53841512D01*
X99351099Y-53891730D01*
X99334699Y-53959330D01*
X99357351Y-54024778D01*
X99411790Y-54067591D01*
X99480807Y-54074181D01*
X99529949Y-54052860D01*
X99554669Y-54034899D01*
X99555032Y-54034690D01*
X99583087Y-54022199D01*
X99585076Y-54022408D01*
X99585889Y-54024235D01*
X99584948Y-54025729D01*
X99462707Y-54100932D01*
X99333529Y-54227432D01*
X99274658Y-54318782D01*
X99272879Y-54319697D01*
X99271198Y-54318613D01*
X99271245Y-54316699D01*
X99302900Y-54261871D01*
X99319300Y-54194270D01*
X99296648Y-54128823D01*
X99242209Y-54086010D01*
X99173192Y-54079420D01*
X99124049Y-54100741D01*
X99099329Y-54118702D01*
X99098966Y-54118911D01*
X99065799Y-54133678D01*
X99063810Y-54133469D01*
X99062997Y-54131642D01*
X99063962Y-54130133D01*
X99182324Y-54059575D01*
X99313250Y-53934895D01*
X99376694Y-53839405D01*
X99378486Y-53838516D01*
X99380151Y-53839623D01*
G37*
G36*
X94300151Y-53839623D02*
G01*
X94300092Y-53841512D01*
X94271099Y-53891730D01*
X94254699Y-53959330D01*
X94277351Y-54024778D01*
X94331790Y-54067591D01*
X94400807Y-54074181D01*
X94449949Y-54052860D01*
X94474669Y-54034899D01*
X94475032Y-54034690D01*
X94503087Y-54022199D01*
X94505076Y-54022408D01*
X94505889Y-54024235D01*
X94504948Y-54025729D01*
X94382707Y-54100932D01*
X94253529Y-54227432D01*
X94194658Y-54318782D01*
X94192879Y-54319697D01*
X94191198Y-54318613D01*
X94191245Y-54316699D01*
X94222900Y-54261871D01*
X94239300Y-54194270D01*
X94216648Y-54128823D01*
X94162209Y-54086010D01*
X94093192Y-54079420D01*
X94044049Y-54100741D01*
X94019329Y-54118702D01*
X94018966Y-54118911D01*
X93985799Y-54133678D01*
X93983810Y-54133469D01*
X93982997Y-54131642D01*
X93983962Y-54130133D01*
X94102324Y-54059575D01*
X94233250Y-53934895D01*
X94296694Y-53839405D01*
X94298486Y-53838516D01*
X94300151Y-53839623D01*
G37*
G36*
X101920151Y-53839623D02*
G01*
X101920092Y-53841512D01*
X101891099Y-53891730D01*
X101874699Y-53959330D01*
X101897351Y-54024778D01*
X101951790Y-54067591D01*
X102020807Y-54074181D01*
X102069949Y-54052860D01*
X102094669Y-54034899D01*
X102095032Y-54034690D01*
X102123087Y-54022199D01*
X102125076Y-54022408D01*
X102125889Y-54024235D01*
X102124948Y-54025729D01*
X102002707Y-54100932D01*
X101873529Y-54227432D01*
X101814658Y-54318782D01*
X101812879Y-54319697D01*
X101811198Y-54318613D01*
X101811245Y-54316699D01*
X101842900Y-54261871D01*
X101859300Y-54194270D01*
X101836648Y-54128823D01*
X101782209Y-54086010D01*
X101713192Y-54079420D01*
X101664049Y-54100741D01*
X101639329Y-54118702D01*
X101638966Y-54118911D01*
X101605799Y-54133678D01*
X101603810Y-54133469D01*
X101602997Y-54131642D01*
X101603962Y-54130133D01*
X101722324Y-54059575D01*
X101853250Y-53934895D01*
X101916694Y-53839405D01*
X101918486Y-53838516D01*
X101920151Y-53839623D01*
G37*
G36*
X104460151Y-53839623D02*
G01*
X104460092Y-53841512D01*
X104431099Y-53891730D01*
X104414699Y-53959330D01*
X104437351Y-54024778D01*
X104491790Y-54067591D01*
X104560807Y-54074181D01*
X104609949Y-54052860D01*
X104634669Y-54034899D01*
X104635032Y-54034690D01*
X104663087Y-54022199D01*
X104665076Y-54022408D01*
X104665889Y-54024235D01*
X104664948Y-54025729D01*
X104542707Y-54100932D01*
X104413529Y-54227432D01*
X104354658Y-54318782D01*
X104352879Y-54319697D01*
X104351198Y-54318613D01*
X104351245Y-54316699D01*
X104382900Y-54261871D01*
X104399300Y-54194270D01*
X104376648Y-54128823D01*
X104322209Y-54086010D01*
X104253192Y-54079420D01*
X104204049Y-54100741D01*
X104179329Y-54118702D01*
X104178966Y-54118911D01*
X104145799Y-54133678D01*
X104143810Y-54133469D01*
X104142997Y-54131642D01*
X104143962Y-54130133D01*
X104262324Y-54059575D01*
X104393250Y-53934895D01*
X104456694Y-53839405D01*
X104458486Y-53838516D01*
X104460151Y-53839623D01*
G37*
G36*
X91760151Y-53839623D02*
G01*
X91760092Y-53841512D01*
X91731099Y-53891730D01*
X91714699Y-53959330D01*
X91737351Y-54024778D01*
X91791790Y-54067591D01*
X91860807Y-54074181D01*
X91909949Y-54052860D01*
X91934669Y-54034899D01*
X91935032Y-54034690D01*
X91963087Y-54022199D01*
X91965076Y-54022408D01*
X91965889Y-54024235D01*
X91964948Y-54025729D01*
X91842707Y-54100932D01*
X91713529Y-54227432D01*
X91654658Y-54318782D01*
X91652879Y-54319697D01*
X91651198Y-54318613D01*
X91651245Y-54316699D01*
X91682900Y-54261871D01*
X91699300Y-54194270D01*
X91676648Y-54128823D01*
X91622209Y-54086010D01*
X91553192Y-54079420D01*
X91504049Y-54100741D01*
X91479329Y-54118702D01*
X91478966Y-54118911D01*
X91445799Y-54133678D01*
X91443810Y-54133469D01*
X91442997Y-54131642D01*
X91443962Y-54130133D01*
X91562324Y-54059575D01*
X91693250Y-53934895D01*
X91756694Y-53839405D01*
X91758486Y-53838516D01*
X91760151Y-53839623D01*
G37*
G36*
X107000151Y-53839623D02*
G01*
X107000092Y-53841512D01*
X106971099Y-53891730D01*
X106954699Y-53959330D01*
X106977351Y-54024778D01*
X107031790Y-54067591D01*
X107100807Y-54074181D01*
X107149949Y-54052860D01*
X107174669Y-54034899D01*
X107175032Y-54034690D01*
X107203087Y-54022199D01*
X107205076Y-54022408D01*
X107205889Y-54024235D01*
X107204948Y-54025729D01*
X107082707Y-54100932D01*
X106953529Y-54227432D01*
X106894658Y-54318782D01*
X106892879Y-54319697D01*
X106891198Y-54318613D01*
X106891245Y-54316699D01*
X106922900Y-54261871D01*
X106939300Y-54194270D01*
X106916648Y-54128823D01*
X106862209Y-54086010D01*
X106793192Y-54079420D01*
X106744049Y-54100741D01*
X106719329Y-54118702D01*
X106718966Y-54118911D01*
X106685799Y-54133678D01*
X106683810Y-54133469D01*
X106682997Y-54131642D01*
X106683962Y-54130133D01*
X106802324Y-54059575D01*
X106933250Y-53934895D01*
X106996694Y-53839405D01*
X106998486Y-53838516D01*
X107000151Y-53839623D01*
G37*
G36*
X119700151Y-53839623D02*
G01*
X119700092Y-53841512D01*
X119671099Y-53891730D01*
X119654699Y-53959330D01*
X119677351Y-54024778D01*
X119731790Y-54067591D01*
X119800807Y-54074181D01*
X119849949Y-54052860D01*
X119874669Y-54034899D01*
X119875032Y-54034690D01*
X119903087Y-54022199D01*
X119905076Y-54022408D01*
X119905889Y-54024235D01*
X119904948Y-54025729D01*
X119782707Y-54100932D01*
X119653529Y-54227432D01*
X119594658Y-54318782D01*
X119592879Y-54319697D01*
X119591198Y-54318613D01*
X119591245Y-54316699D01*
X119622900Y-54261871D01*
X119639300Y-54194270D01*
X119616648Y-54128823D01*
X119562209Y-54086010D01*
X119493192Y-54079420D01*
X119444049Y-54100741D01*
X119419329Y-54118702D01*
X119418966Y-54118911D01*
X119385799Y-54133678D01*
X119383810Y-54133469D01*
X119382997Y-54131642D01*
X119383962Y-54130133D01*
X119502324Y-54059575D01*
X119633250Y-53934895D01*
X119696694Y-53839405D01*
X119698486Y-53838516D01*
X119700151Y-53839623D01*
G37*
G36*
X109540151Y-53839623D02*
G01*
X109540092Y-53841512D01*
X109511099Y-53891730D01*
X109494699Y-53959330D01*
X109517351Y-54024778D01*
X109571790Y-54067591D01*
X109640807Y-54074181D01*
X109689949Y-54052860D01*
X109714669Y-54034899D01*
X109715032Y-54034690D01*
X109743087Y-54022199D01*
X109745076Y-54022408D01*
X109745889Y-54024235D01*
X109744948Y-54025729D01*
X109622707Y-54100932D01*
X109493529Y-54227432D01*
X109434658Y-54318782D01*
X109432879Y-54319697D01*
X109431198Y-54318613D01*
X109431245Y-54316699D01*
X109462900Y-54261871D01*
X109479300Y-54194270D01*
X109456648Y-54128823D01*
X109402209Y-54086010D01*
X109333192Y-54079420D01*
X109284049Y-54100741D01*
X109259329Y-54118702D01*
X109258966Y-54118911D01*
X109225799Y-54133678D01*
X109223810Y-54133469D01*
X109222997Y-54131642D01*
X109223962Y-54130133D01*
X109342324Y-54059575D01*
X109473250Y-53934895D01*
X109536694Y-53839405D01*
X109538486Y-53838516D01*
X109540151Y-53839623D01*
G37*
G36*
X117160151Y-53839623D02*
G01*
X117160092Y-53841512D01*
X117131099Y-53891730D01*
X117114699Y-53959330D01*
X117137351Y-54024778D01*
X117191790Y-54067591D01*
X117260807Y-54074181D01*
X117309949Y-54052860D01*
X117334669Y-54034899D01*
X117335032Y-54034690D01*
X117363087Y-54022199D01*
X117365076Y-54022408D01*
X117365889Y-54024235D01*
X117364948Y-54025729D01*
X117242707Y-54100932D01*
X117113529Y-54227432D01*
X117054658Y-54318782D01*
X117052879Y-54319697D01*
X117051198Y-54318613D01*
X117051245Y-54316699D01*
X117082900Y-54261871D01*
X117099300Y-54194270D01*
X117076648Y-54128823D01*
X117022209Y-54086010D01*
X116953192Y-54079420D01*
X116904049Y-54100741D01*
X116879329Y-54118702D01*
X116878966Y-54118911D01*
X116845799Y-54133678D01*
X116843810Y-54133469D01*
X116842997Y-54131642D01*
X116843962Y-54130133D01*
X116962324Y-54059575D01*
X117093250Y-53934895D01*
X117156694Y-53839405D01*
X117158486Y-53838516D01*
X117160151Y-53839623D01*
G37*
G36*
X114620151Y-53839623D02*
G01*
X114620092Y-53841512D01*
X114591099Y-53891730D01*
X114574699Y-53959330D01*
X114597351Y-54024778D01*
X114651790Y-54067591D01*
X114720807Y-54074181D01*
X114769949Y-54052860D01*
X114794669Y-54034899D01*
X114795032Y-54034690D01*
X114823087Y-54022199D01*
X114825076Y-54022408D01*
X114825889Y-54024235D01*
X114824948Y-54025729D01*
X114702707Y-54100932D01*
X114573529Y-54227432D01*
X114514658Y-54318782D01*
X114512879Y-54319697D01*
X114511198Y-54318613D01*
X114511245Y-54316699D01*
X114542900Y-54261871D01*
X114559300Y-54194270D01*
X114536648Y-54128823D01*
X114482209Y-54086010D01*
X114413192Y-54079420D01*
X114364049Y-54100741D01*
X114339329Y-54118702D01*
X114338966Y-54118911D01*
X114305799Y-54133678D01*
X114303810Y-54133469D01*
X114302997Y-54131642D01*
X114303962Y-54130133D01*
X114422324Y-54059575D01*
X114553250Y-53934895D01*
X114616694Y-53839405D01*
X114618486Y-53838516D01*
X114620151Y-53839623D01*
G37*
G36*
X112080151Y-53839623D02*
G01*
X112080092Y-53841512D01*
X112051099Y-53891730D01*
X112034699Y-53959330D01*
X112057351Y-54024778D01*
X112111790Y-54067591D01*
X112180807Y-54074181D01*
X112229949Y-54052860D01*
X112254669Y-54034899D01*
X112255032Y-54034690D01*
X112283087Y-54022199D01*
X112285076Y-54022408D01*
X112285889Y-54024235D01*
X112284948Y-54025729D01*
X112162707Y-54100932D01*
X112033529Y-54227432D01*
X111974658Y-54318782D01*
X111972879Y-54319697D01*
X111971198Y-54318613D01*
X111971245Y-54316699D01*
X112002900Y-54261871D01*
X112019300Y-54194270D01*
X111996648Y-54128823D01*
X111942209Y-54086010D01*
X111873192Y-54079420D01*
X111824049Y-54100741D01*
X111799329Y-54118702D01*
X111798966Y-54118911D01*
X111765799Y-54133678D01*
X111763810Y-54133469D01*
X111762997Y-54131642D01*
X111763962Y-54130133D01*
X111882324Y-54059575D01*
X112013250Y-53934895D01*
X112076694Y-53839405D01*
X112078486Y-53838516D01*
X112080151Y-53839623D01*
G37*
G36*
X90358059Y-53790518D02*
G01*
X90429464Y-53908421D01*
X90555056Y-54038475D01*
X90695692Y-54130505D01*
X90696594Y-54132291D01*
X90695499Y-54133964D01*
X90694331Y-54134161D01*
X90632476Y-54125867D01*
X90569754Y-54155237D01*
X90532867Y-54213855D01*
X90533528Y-54283311D01*
X90541895Y-54303556D01*
X90541633Y-54305539D01*
X90539784Y-54306303D01*
X90538315Y-54305320D01*
X90483926Y-54211117D01*
X90365154Y-54079205D01*
X90221542Y-53974866D01*
X90192088Y-53961752D01*
X90190912Y-53960134D01*
X90191725Y-53958307D01*
X90193318Y-53957969D01*
X90255252Y-53971175D01*
X90320044Y-53946704D01*
X90361321Y-53891089D01*
X90365986Y-53821848D01*
X90354484Y-53792279D01*
X90354788Y-53790302D01*
X90356652Y-53789577D01*
X90358059Y-53790518D01*
G37*
G36*
X123603149Y-49357102D02*
G01*
X123603064Y-49358385D01*
X123597990Y-49370598D01*
X123597970Y-49389701D01*
X123605340Y-49407547D01*
X124086369Y-50129091D01*
X124086498Y-50131086D01*
X124086369Y-50131309D01*
X123605283Y-50852937D01*
X123600787Y-50861362D01*
X123597040Y-50880200D01*
X123600298Y-50896581D01*
X123599655Y-50898475D01*
X123597693Y-50898865D01*
X123597053Y-50898506D01*
X123547081Y-50856745D01*
X123478365Y-50848114D01*
X123415735Y-50878079D01*
X123399579Y-50896745D01*
X123399482Y-50896849D01*
X123396682Y-50899654D01*
X123394751Y-50900173D01*
X123393336Y-50898760D01*
X123393603Y-50897132D01*
X123886661Y-50157545D01*
X123894010Y-50139803D01*
X123894030Y-50120699D01*
X123886660Y-50102853D01*
X123391202Y-49359666D01*
X123391073Y-49357671D01*
X123392737Y-49356561D01*
X123394150Y-49357023D01*
X123394887Y-49357640D01*
X123395150Y-49357906D01*
X123396548Y-49359611D01*
X123396979Y-49359540D01*
X123397558Y-49359879D01*
X123447691Y-49401871D01*
X123516400Y-49410579D01*
X123578970Y-49380729D01*
X123587938Y-49368085D01*
X123588156Y-49367826D01*
X123599804Y-49356202D01*
X123601737Y-49355687D01*
X123603149Y-49357102D01*
G37*
G36*
X95124109Y-48225831D02*
G01*
X95845737Y-48706917D01*
X95854162Y-48711413D01*
X95873000Y-48715160D01*
X95889381Y-48711902D01*
X95891275Y-48712545D01*
X95891665Y-48714507D01*
X95891306Y-48715147D01*
X95849545Y-48765119D01*
X95840914Y-48833835D01*
X95870879Y-48896465D01*
X95889545Y-48912621D01*
X95889649Y-48912718D01*
X95892454Y-48915518D01*
X95892973Y-48917449D01*
X95891560Y-48918864D01*
X95889932Y-48918597D01*
X95150345Y-48425539D01*
X95132603Y-48418190D01*
X95113499Y-48418170D01*
X95095653Y-48425540D01*
X94352466Y-48920998D01*
X94350471Y-48921127D01*
X94349361Y-48919463D01*
X94349823Y-48918050D01*
X94350440Y-48917313D01*
X94350706Y-48917050D01*
X94352411Y-48915652D01*
X94352340Y-48915221D01*
X94352679Y-48914642D01*
X94394671Y-48864509D01*
X94403379Y-48795800D01*
X94373529Y-48733230D01*
X94360885Y-48724262D01*
X94360626Y-48724044D01*
X94349002Y-48712396D01*
X94348487Y-48710463D01*
X94349902Y-48709051D01*
X94351185Y-48709136D01*
X94363398Y-48714210D01*
X94382501Y-48714230D01*
X94400347Y-48706860D01*
X95121891Y-48225831D01*
X95123886Y-48225702D01*
X95124109Y-48225831D01*
G37*
G36*
X123603149Y-46817102D02*
G01*
X123603064Y-46818385D01*
X123597990Y-46830598D01*
X123597970Y-46849701D01*
X123605340Y-46867547D01*
X124086369Y-47589091D01*
X124086498Y-47591086D01*
X124086369Y-47591309D01*
X123605283Y-48312937D01*
X123600787Y-48321362D01*
X123597040Y-48340200D01*
X123600298Y-48356581D01*
X123599655Y-48358475D01*
X123597693Y-48358865D01*
X123597053Y-48358506D01*
X123547081Y-48316745D01*
X123478365Y-48308114D01*
X123415735Y-48338079D01*
X123399579Y-48356745D01*
X123399482Y-48356849D01*
X123396682Y-48359654D01*
X123394751Y-48360173D01*
X123393336Y-48358760D01*
X123393603Y-48357132D01*
X123886661Y-47617545D01*
X123894010Y-47599803D01*
X123894030Y-47580699D01*
X123886660Y-47562853D01*
X123391202Y-46819666D01*
X123391073Y-46817671D01*
X123392737Y-46816561D01*
X123394150Y-46817023D01*
X123394887Y-46817640D01*
X123395150Y-46817906D01*
X123396548Y-46819611D01*
X123396979Y-46819540D01*
X123397558Y-46819879D01*
X123447691Y-46861871D01*
X123516400Y-46870579D01*
X123578970Y-46840729D01*
X123587938Y-46828085D01*
X123588156Y-46827826D01*
X123599804Y-46816202D01*
X123601737Y-46815687D01*
X123603149Y-46817102D01*
G37*
G36*
X142410432Y-46182325D02*
G01*
X142411000Y-46183722D01*
X142411000Y-46209896D01*
X142430656Y-46396910D01*
X142488733Y-46575652D01*
X142582704Y-46738414D01*
X142689794Y-46857350D01*
X142690210Y-46859306D01*
X142688724Y-46860644D01*
X142687033Y-46860229D01*
X142664623Y-46841690D01*
X142600708Y-46814247D01*
X142532396Y-46825667D01*
X142481096Y-46872214D01*
X142462925Y-46936820D01*
X142461494Y-46938216D01*
X142459568Y-46937675D01*
X142459000Y-46936278D01*
X142459000Y-46910104D01*
X142439344Y-46723090D01*
X142381267Y-46544348D01*
X142287296Y-46381586D01*
X142180206Y-46262650D01*
X142179790Y-46260694D01*
X142181276Y-46259356D01*
X142182967Y-46259771D01*
X142205377Y-46278310D01*
X142269292Y-46305753D01*
X142337604Y-46294333D01*
X142388904Y-46247786D01*
X142407075Y-46183180D01*
X142408506Y-46181784D01*
X142410432Y-46182325D01*
G37*
G36*
X138262919Y-46183715D02*
G01*
X138282596Y-46250730D01*
X138334939Y-46296085D01*
X138403492Y-46305942D01*
X138466690Y-46277080D01*
X138477158Y-46266443D01*
X138477330Y-46266287D01*
X138491246Y-46255098D01*
X138493222Y-46254792D01*
X138494475Y-46256351D01*
X138493985Y-46257995D01*
X138382704Y-46381586D01*
X138288733Y-46544348D01*
X138230656Y-46723090D01*
X138211000Y-46910104D01*
X138211000Y-46935722D01*
X138210000Y-46937454D01*
X138208000Y-46937454D01*
X138207081Y-46936285D01*
X138187404Y-46869270D01*
X138135061Y-46823915D01*
X138066508Y-46814058D01*
X138003310Y-46842920D01*
X137992842Y-46853557D01*
X137992670Y-46853713D01*
X137978754Y-46864902D01*
X137976778Y-46865208D01*
X137975525Y-46863649D01*
X137976015Y-46862005D01*
X138087296Y-46738414D01*
X138181267Y-46575652D01*
X138239344Y-46396910D01*
X138259000Y-46209896D01*
X138259000Y-46184278D01*
X138260000Y-46182546D01*
X138262000Y-46182546D01*
X138262919Y-46183715D01*
G37*
G36*
X95896639Y-45260937D02*
G01*
X95896177Y-45262350D01*
X95895560Y-45263087D01*
X95895294Y-45263350D01*
X95893589Y-45264748D01*
X95893660Y-45265179D01*
X95893321Y-45265758D01*
X95851329Y-45315891D01*
X95842621Y-45384600D01*
X95872471Y-45447170D01*
X95885115Y-45456138D01*
X95885374Y-45456356D01*
X95896998Y-45468004D01*
X95897513Y-45469937D01*
X95896098Y-45471349D01*
X95894815Y-45471264D01*
X95882602Y-45466190D01*
X95863499Y-45466170D01*
X95845653Y-45473540D01*
X95124109Y-45954569D01*
X95122114Y-45954698D01*
X95121891Y-45954569D01*
X94400263Y-45473483D01*
X94391838Y-45468987D01*
X94373000Y-45465240D01*
X94356619Y-45468498D01*
X94354725Y-45467855D01*
X94354335Y-45465893D01*
X94354694Y-45465253D01*
X94396455Y-45415281D01*
X94405086Y-45346565D01*
X94375121Y-45283935D01*
X94356455Y-45267779D01*
X94356351Y-45267682D01*
X94353546Y-45264882D01*
X94353027Y-45262951D01*
X94354440Y-45261536D01*
X94356068Y-45261803D01*
X95095655Y-45754861D01*
X95113397Y-45762210D01*
X95132501Y-45762230D01*
X95150347Y-45754860D01*
X95893534Y-45259402D01*
X95895529Y-45259273D01*
X95896639Y-45260937D01*
G37*
G36*
X123603149Y-44277102D02*
G01*
X123603064Y-44278385D01*
X123597990Y-44290598D01*
X123597970Y-44309701D01*
X123605340Y-44327547D01*
X124086369Y-45049091D01*
X124086498Y-45051086D01*
X124086369Y-45051309D01*
X123605283Y-45772937D01*
X123600787Y-45781362D01*
X123597040Y-45800200D01*
X123600298Y-45816581D01*
X123599655Y-45818475D01*
X123597693Y-45818865D01*
X123597053Y-45818506D01*
X123547081Y-45776745D01*
X123478365Y-45768114D01*
X123415735Y-45798079D01*
X123399579Y-45816745D01*
X123399482Y-45816849D01*
X123396682Y-45819654D01*
X123394751Y-45820173D01*
X123393336Y-45818760D01*
X123393603Y-45817132D01*
X123886661Y-45077545D01*
X123894010Y-45059803D01*
X123894030Y-45040699D01*
X123886660Y-45022853D01*
X123391202Y-44279666D01*
X123391073Y-44277671D01*
X123392737Y-44276561D01*
X123394150Y-44277023D01*
X123394887Y-44277640D01*
X123395150Y-44277906D01*
X123396548Y-44279611D01*
X123396979Y-44279540D01*
X123397558Y-44279879D01*
X123447691Y-44321871D01*
X123516400Y-44330579D01*
X123578970Y-44300729D01*
X123587938Y-44288085D01*
X123588156Y-44287826D01*
X123599804Y-44276202D01*
X123601737Y-44275687D01*
X123603149Y-44277102D01*
G37*
G36*
X123603149Y-41737102D02*
G01*
X123603064Y-41738385D01*
X123597990Y-41750598D01*
X123597970Y-41769701D01*
X123605340Y-41787547D01*
X124086369Y-42509091D01*
X124086498Y-42511086D01*
X124086369Y-42511309D01*
X123605283Y-43232937D01*
X123600787Y-43241362D01*
X123597040Y-43260200D01*
X123600298Y-43276581D01*
X123599655Y-43278475D01*
X123597693Y-43278865D01*
X123597053Y-43278506D01*
X123547081Y-43236745D01*
X123478365Y-43228114D01*
X123415735Y-43258079D01*
X123399579Y-43276745D01*
X123399482Y-43276849D01*
X123396682Y-43279654D01*
X123394751Y-43280173D01*
X123393336Y-43278760D01*
X123393603Y-43277132D01*
X123886661Y-42537545D01*
X123894010Y-42519803D01*
X123894030Y-42500699D01*
X123886660Y-42482853D01*
X123391202Y-41739666D01*
X123391073Y-41737671D01*
X123392737Y-41736561D01*
X123394150Y-41737023D01*
X123394887Y-41737640D01*
X123395150Y-41737906D01*
X123396548Y-41739611D01*
X123396979Y-41739540D01*
X123397558Y-41739879D01*
X123447691Y-41781871D01*
X123516400Y-41790579D01*
X123578970Y-41760729D01*
X123587938Y-41748085D01*
X123588156Y-41747826D01*
X123599804Y-41736202D01*
X123601737Y-41735687D01*
X123603149Y-41737102D01*
G37*
G36*
X89128041Y-38950173D02*
G01*
X89127538Y-38951720D01*
X89110074Y-38971117D01*
X89021318Y-39124844D01*
X88984991Y-39236650D01*
X88983505Y-39237988D01*
X88981603Y-39237370D01*
X88981089Y-39235989D01*
X88982582Y-39166788D01*
X88946406Y-39107732D01*
X88883975Y-39077576D01*
X88830638Y-39080456D01*
X88798229Y-39089505D01*
X88797844Y-39089573D01*
X88771121Y-39091629D01*
X88769318Y-39090765D01*
X88769164Y-39088771D01*
X88770552Y-39087679D01*
X88912383Y-39057532D01*
X89074542Y-38985334D01*
X89124876Y-38948764D01*
X89126865Y-38948555D01*
X89128041Y-38950173D01*
G37*
G36*
X90342746Y-38545232D02*
G01*
X90429464Y-38688421D01*
X90555056Y-38818475D01*
X90704022Y-38915956D01*
X90704924Y-38917742D01*
X90703829Y-38919415D01*
X90702661Y-38919612D01*
X90646408Y-38912070D01*
X90583686Y-38941440D01*
X90546799Y-39000058D01*
X90547460Y-39069514D01*
X90552815Y-39082469D01*
X90552553Y-39084452D01*
X90550704Y-39085216D01*
X90549235Y-39084233D01*
X90483926Y-38971117D01*
X90365154Y-38839205D01*
X90221542Y-38734866D01*
X90094492Y-38678300D01*
X90093316Y-38676682D01*
X90094129Y-38674855D01*
X90095896Y-38674562D01*
X90127174Y-38684244D01*
X90127534Y-38684396D01*
X90170435Y-38707593D01*
X90238464Y-38722098D01*
X90303256Y-38697627D01*
X90344533Y-38642013D01*
X90349198Y-38572772D01*
X90339171Y-38546993D01*
X90339475Y-38545016D01*
X90341339Y-38544291D01*
X90342746Y-38545232D01*
G37*
G36*
X108160016Y-38606773D02*
G01*
X108209464Y-38688421D01*
X108335056Y-38818475D01*
X108464723Y-38903327D01*
X108465625Y-38905113D01*
X108464530Y-38906786D01*
X108462814Y-38906828D01*
X108445033Y-38898911D01*
X108444671Y-38898702D01*
X108439897Y-38895233D01*
X108374383Y-38871858D01*
X108306926Y-38887544D01*
X108258656Y-38937211D01*
X108244887Y-39005159D01*
X108260956Y-39056263D01*
X108275283Y-39081078D01*
X108275283Y-39083078D01*
X108273551Y-39084078D01*
X108271855Y-39083138D01*
X108217565Y-38996256D01*
X108090171Y-38867969D01*
X107964161Y-38788000D01*
X107963235Y-38786227D01*
X107964306Y-38784539D01*
X107966046Y-38784484D01*
X107988966Y-38794689D01*
X107989329Y-38794898D01*
X107994103Y-38798367D01*
X108059617Y-38821742D01*
X108127074Y-38806056D01*
X108175344Y-38756389D01*
X108189113Y-38688441D01*
X108173044Y-38637337D01*
X108156573Y-38608809D01*
X108156573Y-38606809D01*
X108158305Y-38605809D01*
X108160016Y-38606773D01*
G37*
G36*
X110700016Y-38606773D02*
G01*
X110749464Y-38688421D01*
X110875056Y-38818475D01*
X111004723Y-38903327D01*
X111005625Y-38905113D01*
X111004530Y-38906786D01*
X111002814Y-38906828D01*
X110985033Y-38898911D01*
X110984671Y-38898702D01*
X110979897Y-38895233D01*
X110914383Y-38871858D01*
X110846926Y-38887544D01*
X110798656Y-38937211D01*
X110784887Y-39005159D01*
X110800956Y-39056263D01*
X110815283Y-39081078D01*
X110815283Y-39083078D01*
X110813551Y-39084078D01*
X110811855Y-39083138D01*
X110757565Y-38996256D01*
X110630171Y-38867969D01*
X110504161Y-38788000D01*
X110503235Y-38786227D01*
X110504306Y-38784539D01*
X110506046Y-38784484D01*
X110528966Y-38794689D01*
X110529329Y-38794898D01*
X110534103Y-38798367D01*
X110599617Y-38821742D01*
X110667074Y-38806056D01*
X110715344Y-38756389D01*
X110729113Y-38688441D01*
X110713044Y-38637337D01*
X110696573Y-38608809D01*
X110696573Y-38606809D01*
X110698305Y-38605809D01*
X110700016Y-38606773D01*
G37*
G36*
X100540016Y-38606773D02*
G01*
X100589464Y-38688421D01*
X100715056Y-38818475D01*
X100844723Y-38903327D01*
X100845625Y-38905113D01*
X100844530Y-38906786D01*
X100842814Y-38906828D01*
X100825033Y-38898911D01*
X100824671Y-38898702D01*
X100819897Y-38895233D01*
X100754383Y-38871858D01*
X100686926Y-38887544D01*
X100638656Y-38937211D01*
X100624887Y-39005159D01*
X100640956Y-39056263D01*
X100655283Y-39081078D01*
X100655283Y-39083078D01*
X100653551Y-39084078D01*
X100651855Y-39083138D01*
X100597565Y-38996256D01*
X100470171Y-38867969D01*
X100344161Y-38788000D01*
X100343235Y-38786227D01*
X100344306Y-38784539D01*
X100346046Y-38784484D01*
X100368966Y-38794689D01*
X100369329Y-38794898D01*
X100374103Y-38798367D01*
X100439617Y-38821742D01*
X100507074Y-38806056D01*
X100555344Y-38756389D01*
X100569113Y-38688441D01*
X100553044Y-38637337D01*
X100536573Y-38608809D01*
X100536573Y-38606809D01*
X100538305Y-38605809D01*
X100540016Y-38606773D01*
G37*
G36*
X105620016Y-38606773D02*
G01*
X105669464Y-38688421D01*
X105795056Y-38818475D01*
X105924723Y-38903327D01*
X105925625Y-38905113D01*
X105924530Y-38906786D01*
X105922814Y-38906828D01*
X105905033Y-38898911D01*
X105904671Y-38898702D01*
X105899897Y-38895233D01*
X105834383Y-38871858D01*
X105766926Y-38887544D01*
X105718656Y-38937211D01*
X105704887Y-39005159D01*
X105720956Y-39056263D01*
X105735283Y-39081078D01*
X105735283Y-39083078D01*
X105733551Y-39084078D01*
X105731855Y-39083138D01*
X105677565Y-38996256D01*
X105550171Y-38867969D01*
X105424161Y-38788000D01*
X105423235Y-38786227D01*
X105424306Y-38784539D01*
X105426046Y-38784484D01*
X105448966Y-38794689D01*
X105449329Y-38794898D01*
X105454103Y-38798367D01*
X105519617Y-38821742D01*
X105587074Y-38806056D01*
X105635344Y-38756389D01*
X105649113Y-38688441D01*
X105633044Y-38637337D01*
X105616573Y-38608809D01*
X105616573Y-38606809D01*
X105618305Y-38605809D01*
X105620016Y-38606773D01*
G37*
G36*
X113240016Y-38606773D02*
G01*
X113289464Y-38688421D01*
X113415056Y-38818475D01*
X113544723Y-38903327D01*
X113545625Y-38905113D01*
X113544530Y-38906786D01*
X113542814Y-38906828D01*
X113525033Y-38898911D01*
X113524671Y-38898702D01*
X113519897Y-38895233D01*
X113454383Y-38871858D01*
X113386926Y-38887544D01*
X113338656Y-38937211D01*
X113324887Y-39005159D01*
X113340956Y-39056263D01*
X113355283Y-39081078D01*
X113355283Y-39083078D01*
X113353551Y-39084078D01*
X113351855Y-39083138D01*
X113297565Y-38996256D01*
X113170171Y-38867969D01*
X113044161Y-38788000D01*
X113043235Y-38786227D01*
X113044306Y-38784539D01*
X113046046Y-38784484D01*
X113068966Y-38794689D01*
X113069329Y-38794898D01*
X113074103Y-38798367D01*
X113139617Y-38821742D01*
X113207074Y-38806056D01*
X113255344Y-38756389D01*
X113269113Y-38688441D01*
X113253044Y-38637337D01*
X113236573Y-38608809D01*
X113236573Y-38606809D01*
X113238305Y-38605809D01*
X113240016Y-38606773D01*
G37*
G36*
X92920016Y-38606773D02*
G01*
X92969464Y-38688421D01*
X93095056Y-38818475D01*
X93224723Y-38903327D01*
X93225625Y-38905113D01*
X93224530Y-38906786D01*
X93222814Y-38906828D01*
X93205033Y-38898911D01*
X93204671Y-38898702D01*
X93199897Y-38895233D01*
X93134383Y-38871858D01*
X93066926Y-38887544D01*
X93018656Y-38937211D01*
X93004887Y-39005159D01*
X93020956Y-39056263D01*
X93035283Y-39081078D01*
X93035283Y-39083078D01*
X93033551Y-39084078D01*
X93031855Y-39083138D01*
X92977565Y-38996256D01*
X92850171Y-38867969D01*
X92724161Y-38788000D01*
X92723235Y-38786227D01*
X92724306Y-38784539D01*
X92726046Y-38784484D01*
X92748966Y-38794689D01*
X92749329Y-38794898D01*
X92754103Y-38798367D01*
X92819617Y-38821742D01*
X92887074Y-38806056D01*
X92935344Y-38756389D01*
X92949113Y-38688441D01*
X92933044Y-38637337D01*
X92916573Y-38608809D01*
X92916573Y-38606809D01*
X92918305Y-38605809D01*
X92920016Y-38606773D01*
G37*
G36*
X115780016Y-38606773D02*
G01*
X115829464Y-38688421D01*
X115955056Y-38818475D01*
X116084723Y-38903327D01*
X116085625Y-38905113D01*
X116084530Y-38906786D01*
X116082814Y-38906828D01*
X116065033Y-38898911D01*
X116064671Y-38898702D01*
X116059897Y-38895233D01*
X115994383Y-38871858D01*
X115926926Y-38887544D01*
X115878656Y-38937211D01*
X115864887Y-39005159D01*
X115880956Y-39056263D01*
X115895283Y-39081078D01*
X115895283Y-39083078D01*
X115893551Y-39084078D01*
X115891855Y-39083138D01*
X115837565Y-38996256D01*
X115710171Y-38867969D01*
X115584161Y-38788000D01*
X115583235Y-38786227D01*
X115584306Y-38784539D01*
X115586046Y-38784484D01*
X115608966Y-38794689D01*
X115609329Y-38794898D01*
X115614103Y-38798367D01*
X115679617Y-38821742D01*
X115747074Y-38806056D01*
X115795344Y-38756389D01*
X115809113Y-38688441D01*
X115793044Y-38637337D01*
X115776573Y-38608809D01*
X115776573Y-38606809D01*
X115778305Y-38605809D01*
X115780016Y-38606773D01*
G37*
G36*
X95460016Y-38606773D02*
G01*
X95509464Y-38688421D01*
X95635056Y-38818475D01*
X95764723Y-38903327D01*
X95765625Y-38905113D01*
X95764530Y-38906786D01*
X95762814Y-38906828D01*
X95745033Y-38898911D01*
X95744671Y-38898702D01*
X95739897Y-38895233D01*
X95674383Y-38871858D01*
X95606926Y-38887544D01*
X95558656Y-38937211D01*
X95544887Y-39005159D01*
X95560956Y-39056263D01*
X95575283Y-39081078D01*
X95575283Y-39083078D01*
X95573551Y-39084078D01*
X95571855Y-39083138D01*
X95517565Y-38996256D01*
X95390171Y-38867969D01*
X95264161Y-38788000D01*
X95263235Y-38786227D01*
X95264306Y-38784539D01*
X95266046Y-38784484D01*
X95288966Y-38794689D01*
X95289329Y-38794898D01*
X95294103Y-38798367D01*
X95359617Y-38821742D01*
X95427074Y-38806056D01*
X95475344Y-38756389D01*
X95489113Y-38688441D01*
X95473044Y-38637337D01*
X95456573Y-38608809D01*
X95456573Y-38606809D01*
X95458305Y-38605809D01*
X95460016Y-38606773D01*
G37*
G36*
X103080016Y-38606773D02*
G01*
X103129464Y-38688421D01*
X103255056Y-38818475D01*
X103384723Y-38903327D01*
X103385625Y-38905113D01*
X103384530Y-38906786D01*
X103382814Y-38906828D01*
X103365033Y-38898911D01*
X103364671Y-38898702D01*
X103359897Y-38895233D01*
X103294383Y-38871858D01*
X103226926Y-38887544D01*
X103178656Y-38937211D01*
X103164887Y-39005159D01*
X103180956Y-39056263D01*
X103195283Y-39081078D01*
X103195283Y-39083078D01*
X103193551Y-39084078D01*
X103191855Y-39083138D01*
X103137565Y-38996256D01*
X103010171Y-38867969D01*
X102884161Y-38788000D01*
X102883235Y-38786227D01*
X102884306Y-38784539D01*
X102886046Y-38784484D01*
X102908966Y-38794689D01*
X102909329Y-38794898D01*
X102914103Y-38798367D01*
X102979617Y-38821742D01*
X103047074Y-38806056D01*
X103095344Y-38756389D01*
X103109113Y-38688441D01*
X103093044Y-38637337D01*
X103076573Y-38608809D01*
X103076573Y-38606809D01*
X103078305Y-38605809D01*
X103080016Y-38606773D01*
G37*
G36*
X118320016Y-38606773D02*
G01*
X118369464Y-38688421D01*
X118495056Y-38818475D01*
X118624723Y-38903327D01*
X118625625Y-38905113D01*
X118624530Y-38906786D01*
X118622814Y-38906828D01*
X118605033Y-38898911D01*
X118604671Y-38898702D01*
X118599897Y-38895233D01*
X118534383Y-38871858D01*
X118466926Y-38887544D01*
X118418656Y-38937211D01*
X118404887Y-39005159D01*
X118420956Y-39056263D01*
X118435283Y-39081078D01*
X118435283Y-39083078D01*
X118433551Y-39084078D01*
X118431855Y-39083138D01*
X118377565Y-38996256D01*
X118250171Y-38867969D01*
X118124161Y-38788000D01*
X118123235Y-38786227D01*
X118124306Y-38784539D01*
X118126046Y-38784484D01*
X118148966Y-38794689D01*
X118149329Y-38794898D01*
X118154103Y-38798367D01*
X118219617Y-38821742D01*
X118287074Y-38806056D01*
X118335344Y-38756389D01*
X118349113Y-38688441D01*
X118333044Y-38637337D01*
X118316573Y-38608809D01*
X118316573Y-38606809D01*
X118318305Y-38605809D01*
X118320016Y-38606773D01*
G37*
G36*
X98000016Y-38606773D02*
G01*
X98049464Y-38688421D01*
X98175056Y-38818475D01*
X98304723Y-38903327D01*
X98305625Y-38905113D01*
X98304530Y-38906786D01*
X98302814Y-38906828D01*
X98285033Y-38898911D01*
X98284671Y-38898702D01*
X98279897Y-38895233D01*
X98214383Y-38871858D01*
X98146926Y-38887544D01*
X98098656Y-38937211D01*
X98084887Y-39005159D01*
X98100956Y-39056263D01*
X98115283Y-39081078D01*
X98115283Y-39083078D01*
X98113551Y-39084078D01*
X98111855Y-39083138D01*
X98057565Y-38996256D01*
X97930171Y-38867969D01*
X97804161Y-38788000D01*
X97803235Y-38786227D01*
X97804306Y-38784539D01*
X97806046Y-38784484D01*
X97828966Y-38794689D01*
X97829329Y-38794898D01*
X97834103Y-38798367D01*
X97899617Y-38821742D01*
X97967074Y-38806056D01*
X98015344Y-38756389D01*
X98029113Y-38688441D01*
X98013044Y-38637337D01*
X97996573Y-38608809D01*
X97996573Y-38606809D01*
X97998305Y-38605809D01*
X98000016Y-38606773D01*
G37*
G36*
X96840152Y-38619622D02*
G01*
X96840093Y-38621511D01*
X96830990Y-38637278D01*
X96814590Y-38704878D01*
X96837242Y-38770326D01*
X96891681Y-38813139D01*
X96960698Y-38819729D01*
X97009839Y-38798409D01*
X97014670Y-38794899D01*
X97015033Y-38794690D01*
X97043085Y-38782200D01*
X97045074Y-38782409D01*
X97045887Y-38784236D01*
X97044946Y-38785730D01*
X96922707Y-38860932D01*
X96793529Y-38987432D01*
X96734657Y-39078785D01*
X96732878Y-39079700D01*
X96731197Y-39078616D01*
X96731244Y-39076702D01*
X96743009Y-39056323D01*
X96759409Y-38988722D01*
X96736757Y-38923275D01*
X96682318Y-38880462D01*
X96613301Y-38873872D01*
X96564158Y-38895193D01*
X96559329Y-38898702D01*
X96558966Y-38898911D01*
X96525799Y-38913678D01*
X96523810Y-38913469D01*
X96522997Y-38911642D01*
X96523962Y-38910133D01*
X96642324Y-38839575D01*
X96773250Y-38714895D01*
X96836695Y-38619404D01*
X96838487Y-38618515D01*
X96840152Y-38619622D01*
G37*
G36*
X119700152Y-38619622D02*
G01*
X119700093Y-38621511D01*
X119690990Y-38637278D01*
X119674590Y-38704878D01*
X119697242Y-38770326D01*
X119751681Y-38813139D01*
X119820698Y-38819729D01*
X119869839Y-38798409D01*
X119874670Y-38794899D01*
X119875033Y-38794690D01*
X119903085Y-38782200D01*
X119905074Y-38782409D01*
X119905887Y-38784236D01*
X119904946Y-38785730D01*
X119782707Y-38860932D01*
X119653529Y-38987432D01*
X119594657Y-39078785D01*
X119592878Y-39079700D01*
X119591197Y-39078616D01*
X119591244Y-39076702D01*
X119603009Y-39056323D01*
X119619409Y-38988722D01*
X119596757Y-38923275D01*
X119542318Y-38880462D01*
X119473301Y-38873872D01*
X119424158Y-38895193D01*
X119419329Y-38898702D01*
X119418966Y-38898911D01*
X119385799Y-38913678D01*
X119383810Y-38913469D01*
X119382997Y-38911642D01*
X119383962Y-38910133D01*
X119502324Y-38839575D01*
X119633250Y-38714895D01*
X119696695Y-38619404D01*
X119698487Y-38618515D01*
X119700152Y-38619622D01*
G37*
G36*
X99380152Y-38619622D02*
G01*
X99380093Y-38621511D01*
X99370990Y-38637278D01*
X99354590Y-38704878D01*
X99377242Y-38770326D01*
X99431681Y-38813139D01*
X99500698Y-38819729D01*
X99549839Y-38798409D01*
X99554670Y-38794899D01*
X99555033Y-38794690D01*
X99583085Y-38782200D01*
X99585074Y-38782409D01*
X99585887Y-38784236D01*
X99584946Y-38785730D01*
X99462707Y-38860932D01*
X99333529Y-38987432D01*
X99274657Y-39078785D01*
X99272878Y-39079700D01*
X99271197Y-39078616D01*
X99271244Y-39076702D01*
X99283009Y-39056323D01*
X99299409Y-38988722D01*
X99276757Y-38923275D01*
X99222318Y-38880462D01*
X99153301Y-38873872D01*
X99104158Y-38895193D01*
X99099329Y-38898702D01*
X99098966Y-38898911D01*
X99065799Y-38913678D01*
X99063810Y-38913469D01*
X99062997Y-38911642D01*
X99063962Y-38910133D01*
X99182324Y-38839575D01*
X99313250Y-38714895D01*
X99376695Y-38619404D01*
X99378487Y-38618515D01*
X99380152Y-38619622D01*
G37*
G36*
X101920152Y-38619622D02*
G01*
X101920093Y-38621511D01*
X101910990Y-38637278D01*
X101894590Y-38704878D01*
X101917242Y-38770326D01*
X101971681Y-38813139D01*
X102040698Y-38819729D01*
X102089839Y-38798409D01*
X102094670Y-38794899D01*
X102095033Y-38794690D01*
X102123085Y-38782200D01*
X102125074Y-38782409D01*
X102125887Y-38784236D01*
X102124946Y-38785730D01*
X102002707Y-38860932D01*
X101873529Y-38987432D01*
X101814657Y-39078785D01*
X101812878Y-39079700D01*
X101811197Y-39078616D01*
X101811244Y-39076702D01*
X101823009Y-39056323D01*
X101839409Y-38988722D01*
X101816757Y-38923275D01*
X101762318Y-38880462D01*
X101693301Y-38873872D01*
X101644158Y-38895193D01*
X101639329Y-38898702D01*
X101638966Y-38898911D01*
X101605799Y-38913678D01*
X101603810Y-38913469D01*
X101602997Y-38911642D01*
X101603962Y-38910133D01*
X101722324Y-38839575D01*
X101853250Y-38714895D01*
X101916695Y-38619404D01*
X101918487Y-38618515D01*
X101920152Y-38619622D01*
G37*
G36*
X107000152Y-38619622D02*
G01*
X107000093Y-38621511D01*
X106990990Y-38637278D01*
X106974590Y-38704878D01*
X106997242Y-38770326D01*
X107051681Y-38813139D01*
X107120698Y-38819729D01*
X107169839Y-38798409D01*
X107174670Y-38794899D01*
X107175033Y-38794690D01*
X107203085Y-38782200D01*
X107205074Y-38782409D01*
X107205887Y-38784236D01*
X107204946Y-38785730D01*
X107082707Y-38860932D01*
X106953529Y-38987432D01*
X106894657Y-39078785D01*
X106892878Y-39079700D01*
X106891197Y-39078616D01*
X106891244Y-39076702D01*
X106903009Y-39056323D01*
X106919409Y-38988722D01*
X106896757Y-38923275D01*
X106842318Y-38880462D01*
X106773301Y-38873872D01*
X106724158Y-38895193D01*
X106719329Y-38898702D01*
X106718966Y-38898911D01*
X106685799Y-38913678D01*
X106683810Y-38913469D01*
X106682997Y-38911642D01*
X106683962Y-38910133D01*
X106802324Y-38839575D01*
X106933250Y-38714895D01*
X106996695Y-38619404D01*
X106998487Y-38618515D01*
X107000152Y-38619622D01*
G37*
G36*
X109540152Y-38619622D02*
G01*
X109540093Y-38621511D01*
X109530990Y-38637278D01*
X109514590Y-38704878D01*
X109537242Y-38770326D01*
X109591681Y-38813139D01*
X109660698Y-38819729D01*
X109709839Y-38798409D01*
X109714670Y-38794899D01*
X109715033Y-38794690D01*
X109743085Y-38782200D01*
X109745074Y-38782409D01*
X109745887Y-38784236D01*
X109744946Y-38785730D01*
X109622707Y-38860932D01*
X109493529Y-38987432D01*
X109434657Y-39078785D01*
X109432878Y-39079700D01*
X109431197Y-39078616D01*
X109431244Y-39076702D01*
X109443009Y-39056323D01*
X109459409Y-38988722D01*
X109436757Y-38923275D01*
X109382318Y-38880462D01*
X109313301Y-38873872D01*
X109264158Y-38895193D01*
X109259329Y-38898702D01*
X109258966Y-38898911D01*
X109225799Y-38913678D01*
X109223810Y-38913469D01*
X109222997Y-38911642D01*
X109223962Y-38910133D01*
X109342324Y-38839575D01*
X109473250Y-38714895D01*
X109536695Y-38619404D01*
X109538487Y-38618515D01*
X109540152Y-38619622D01*
G37*
G36*
X112080152Y-38619622D02*
G01*
X112080093Y-38621511D01*
X112070990Y-38637278D01*
X112054590Y-38704878D01*
X112077242Y-38770326D01*
X112131681Y-38813139D01*
X112200698Y-38819729D01*
X112249839Y-38798409D01*
X112254670Y-38794899D01*
X112255033Y-38794690D01*
X112283085Y-38782200D01*
X112285074Y-38782409D01*
X112285887Y-38784236D01*
X112284946Y-38785730D01*
X112162707Y-38860932D01*
X112033529Y-38987432D01*
X111974657Y-39078785D01*
X111972878Y-39079700D01*
X111971197Y-39078616D01*
X111971244Y-39076702D01*
X111983009Y-39056323D01*
X111999409Y-38988722D01*
X111976757Y-38923275D01*
X111922318Y-38880462D01*
X111853301Y-38873872D01*
X111804158Y-38895193D01*
X111799329Y-38898702D01*
X111798966Y-38898911D01*
X111765799Y-38913678D01*
X111763810Y-38913469D01*
X111762997Y-38911642D01*
X111763962Y-38910133D01*
X111882324Y-38839575D01*
X112013250Y-38714895D01*
X112076695Y-38619404D01*
X112078487Y-38618515D01*
X112080152Y-38619622D01*
G37*
G36*
X94300152Y-38619622D02*
G01*
X94300093Y-38621511D01*
X94290990Y-38637278D01*
X94274590Y-38704878D01*
X94297242Y-38770326D01*
X94351681Y-38813139D01*
X94420698Y-38819729D01*
X94469839Y-38798409D01*
X94474670Y-38794899D01*
X94475033Y-38794690D01*
X94503085Y-38782200D01*
X94505074Y-38782409D01*
X94505887Y-38784236D01*
X94504946Y-38785730D01*
X94382707Y-38860932D01*
X94253529Y-38987432D01*
X94194657Y-39078785D01*
X94192878Y-39079700D01*
X94191197Y-39078616D01*
X94191244Y-39076702D01*
X94203009Y-39056323D01*
X94219409Y-38988722D01*
X94196757Y-38923275D01*
X94142318Y-38880462D01*
X94073301Y-38873872D01*
X94024158Y-38895193D01*
X94019329Y-38898702D01*
X94018966Y-38898911D01*
X93985799Y-38913678D01*
X93983810Y-38913469D01*
X93982997Y-38911642D01*
X93983962Y-38910133D01*
X94102324Y-38839575D01*
X94233250Y-38714895D01*
X94296695Y-38619404D01*
X94298487Y-38618515D01*
X94300152Y-38619622D01*
G37*
G36*
X114620152Y-38619622D02*
G01*
X114620093Y-38621511D01*
X114610990Y-38637278D01*
X114594590Y-38704878D01*
X114617242Y-38770326D01*
X114671681Y-38813139D01*
X114740698Y-38819729D01*
X114789839Y-38798409D01*
X114794670Y-38794899D01*
X114795033Y-38794690D01*
X114823085Y-38782200D01*
X114825074Y-38782409D01*
X114825887Y-38784236D01*
X114824946Y-38785730D01*
X114702707Y-38860932D01*
X114573529Y-38987432D01*
X114514657Y-39078785D01*
X114512878Y-39079700D01*
X114511197Y-39078616D01*
X114511244Y-39076702D01*
X114523009Y-39056323D01*
X114539409Y-38988722D01*
X114516757Y-38923275D01*
X114462318Y-38880462D01*
X114393301Y-38873872D01*
X114344158Y-38895193D01*
X114339329Y-38898702D01*
X114338966Y-38898911D01*
X114305799Y-38913678D01*
X114303810Y-38913469D01*
X114302997Y-38911642D01*
X114303962Y-38910133D01*
X114422324Y-38839575D01*
X114553250Y-38714895D01*
X114616695Y-38619404D01*
X114618487Y-38618515D01*
X114620152Y-38619622D01*
G37*
G36*
X104460152Y-38619622D02*
G01*
X104460093Y-38621511D01*
X104450990Y-38637278D01*
X104434590Y-38704878D01*
X104457242Y-38770326D01*
X104511681Y-38813139D01*
X104580698Y-38819729D01*
X104629839Y-38798409D01*
X104634670Y-38794899D01*
X104635033Y-38794690D01*
X104663085Y-38782200D01*
X104665074Y-38782409D01*
X104665887Y-38784236D01*
X104664946Y-38785730D01*
X104542707Y-38860932D01*
X104413529Y-38987432D01*
X104354657Y-39078785D01*
X104352878Y-39079700D01*
X104351197Y-39078616D01*
X104351244Y-39076702D01*
X104363009Y-39056323D01*
X104379409Y-38988722D01*
X104356757Y-38923275D01*
X104302318Y-38880462D01*
X104233301Y-38873872D01*
X104184158Y-38895193D01*
X104179329Y-38898702D01*
X104178966Y-38898911D01*
X104145799Y-38913678D01*
X104143810Y-38913469D01*
X104142997Y-38911642D01*
X104143962Y-38910133D01*
X104262324Y-38839575D01*
X104393250Y-38714895D01*
X104456695Y-38619404D01*
X104458487Y-38618515D01*
X104460152Y-38619622D01*
G37*
G36*
X117160152Y-38619622D02*
G01*
X117160093Y-38621511D01*
X117150990Y-38637278D01*
X117134590Y-38704878D01*
X117157242Y-38770326D01*
X117211681Y-38813139D01*
X117280698Y-38819729D01*
X117329839Y-38798409D01*
X117334670Y-38794899D01*
X117335033Y-38794690D01*
X117363085Y-38782200D01*
X117365074Y-38782409D01*
X117365887Y-38784236D01*
X117364946Y-38785730D01*
X117242707Y-38860932D01*
X117113529Y-38987432D01*
X117054657Y-39078785D01*
X117052878Y-39079700D01*
X117051197Y-39078616D01*
X117051244Y-39076702D01*
X117063009Y-39056323D01*
X117079409Y-38988722D01*
X117056757Y-38923275D01*
X117002318Y-38880462D01*
X116933301Y-38873872D01*
X116884158Y-38895193D01*
X116879329Y-38898702D01*
X116878966Y-38898911D01*
X116845799Y-38913678D01*
X116843810Y-38913469D01*
X116842997Y-38911642D01*
X116843962Y-38910133D01*
X116962324Y-38839575D01*
X117093250Y-38714895D01*
X117156695Y-38619404D01*
X117158487Y-38618515D01*
X117160152Y-38619622D01*
G37*
G36*
X91760152Y-38619622D02*
G01*
X91760093Y-38621511D01*
X91750990Y-38637278D01*
X91734590Y-38704878D01*
X91757242Y-38770326D01*
X91811681Y-38813139D01*
X91880698Y-38819729D01*
X91929839Y-38798409D01*
X91934670Y-38794899D01*
X91935033Y-38794690D01*
X91963085Y-38782200D01*
X91965074Y-38782409D01*
X91965887Y-38784236D01*
X91964946Y-38785730D01*
X91842707Y-38860932D01*
X91713529Y-38987432D01*
X91654657Y-39078785D01*
X91652878Y-39079700D01*
X91651197Y-39078616D01*
X91651244Y-39076702D01*
X91663009Y-39056323D01*
X91679409Y-38988722D01*
X91656757Y-38923275D01*
X91602318Y-38880462D01*
X91533301Y-38873872D01*
X91484158Y-38895193D01*
X91479329Y-38898702D01*
X91478966Y-38898911D01*
X91445799Y-38913678D01*
X91443810Y-38913469D01*
X91442997Y-38911642D01*
X91443962Y-38910133D01*
X91562324Y-38839575D01*
X91693250Y-38714895D01*
X91756695Y-38619404D01*
X91758487Y-38618515D01*
X91760152Y-38619622D01*
G37*
G36*
X89481227Y-38434109D02*
G01*
X89481725Y-38435697D01*
X89481349Y-38438677D01*
X89481263Y-38439058D01*
X89467248Y-38481189D01*
X89464776Y-38550703D01*
X89500125Y-38610260D01*
X89562114Y-38641277D01*
X89618816Y-38638216D01*
X89637062Y-38632846D01*
X89637446Y-38632773D01*
X89670051Y-38629806D01*
X89671866Y-38630645D01*
X89672048Y-38632637D01*
X89670648Y-38633754D01*
X89534617Y-38662668D01*
X89372458Y-38734866D01*
X89322124Y-38771436D01*
X89320135Y-38771645D01*
X89318959Y-38770027D01*
X89319462Y-38768480D01*
X89336926Y-38749083D01*
X89425682Y-38595356D01*
X89477839Y-38434829D01*
X89479325Y-38433491D01*
X89481227Y-38434109D01*
G37*
M02*
