G04 #@! TF.GenerationSoftware,KiCad,Pcbnew,(5.1.4-0-10_14)*
G04 #@! TF.CreationDate,2019-11-24T20:29:24+09:00*
G04 #@! TF.ProjectId,palette1202-PM,70616c65-7474-4653-9132-30322d504d2e,rev?*
G04 #@! TF.SameCoordinates,Original*
G04 #@! TF.FileFunction,Legend,Top*
G04 #@! TF.FilePolarity,Positive*
%FSLAX46Y46*%
G04 Gerber Fmt 4.6, Leading zero omitted, Abs format (unit mm)*
G04 Created by KiCad (PCBNEW (5.1.4-0-10_14)) date 2019-11-24 20:29:24*
%MOMM*%
%LPD*%
G04 APERTURE LIST*
%ADD10C,0.100000*%
%ADD11C,0.150000*%
%ADD12C,0.200000*%
%ADD13C,0.120000*%
%ADD14C,0.400000*%
%ADD15C,0.125000*%
%ADD16R,1.499000X1.499000*%
%ADD17C,1.499000*%
%ADD18R,3.102000X4.102000*%
%ADD19C,1.902000*%
%ADD20C,3.102000*%
%ADD21C,1.802000*%
%ADD22C,2.002000*%
%ADD23C,4.102000*%
%ADD24R,1.802000X1.802000*%
%ADD25O,1.802000X1.802000*%
%ADD26C,4.202000*%
%ADD27C,2.202000*%
%ADD28C,1.702200*%
%ADD29R,1.102000X0.902000*%
%ADD30R,0.802000X1.602000*%
%ADD31C,1.002000*%
%ADD32C,2.102000*%
%ADD33R,2.102000X3.302000*%
%ADD34R,2.102000X2.102000*%
G04 APERTURE END LIST*
D10*
G36*
X171104456Y-48087925D02*
G01*
X171127476Y-48089232D01*
X171149651Y-48091415D01*
X171170993Y-48094477D01*
X171191513Y-48098424D01*
X171211223Y-48103257D01*
X171230134Y-48108982D01*
X171248259Y-48115603D01*
X171265609Y-48123122D01*
X171282195Y-48131545D01*
X171298029Y-48140875D01*
X171313124Y-48151115D01*
X171327489Y-48162270D01*
X171341137Y-48174344D01*
X171354080Y-48187340D01*
X171366330Y-48201262D01*
X171377710Y-48216022D01*
X171388039Y-48231534D01*
X171397322Y-48247806D01*
X171405563Y-48264845D01*
X171412764Y-48282659D01*
X171418931Y-48301256D01*
X171424067Y-48320644D01*
X171428176Y-48340830D01*
X171431262Y-48361822D01*
X171433328Y-48383628D01*
X171434379Y-48406256D01*
X171434419Y-48429713D01*
X171433450Y-48454007D01*
X171431478Y-48479147D01*
X171428506Y-48505138D01*
X171424538Y-48531991D01*
X171263142Y-49674991D01*
X171258033Y-49674636D01*
X171133497Y-50550760D01*
X170860977Y-50550760D01*
X170868913Y-50455510D01*
X170845101Y-50455510D01*
X170838031Y-50462331D01*
X170830714Y-50468905D01*
X170823148Y-50475230D01*
X170815335Y-50481307D01*
X170807273Y-50487136D01*
X170798964Y-50492717D01*
X170790406Y-50498050D01*
X170781601Y-50503135D01*
X170772666Y-50508850D01*
X170763700Y-50514132D01*
X170754672Y-50519041D01*
X170745551Y-50523640D01*
X170736306Y-50527991D01*
X170726906Y-50532156D01*
X170717320Y-50536197D01*
X170707517Y-50540176D01*
X170697466Y-50543023D01*
X170687136Y-50545592D01*
X170676496Y-50547850D01*
X170665515Y-50549767D01*
X170654162Y-50551313D01*
X170642405Y-50552455D01*
X170630215Y-50553163D01*
X170617559Y-50553405D01*
X170602801Y-50552941D01*
X170588295Y-50551550D01*
X170574045Y-50549237D01*
X170560054Y-50546005D01*
X170546327Y-50541859D01*
X170532867Y-50536802D01*
X170519678Y-50530838D01*
X170506765Y-50523971D01*
X170494131Y-50516205D01*
X170481779Y-50507543D01*
X170469715Y-50497990D01*
X170457941Y-50487549D01*
X170446461Y-50476225D01*
X170435280Y-50464021D01*
X170424402Y-50450941D01*
X170413829Y-50436990D01*
X170403846Y-50422169D01*
X170394735Y-50406485D01*
X170386500Y-50389940D01*
X170379144Y-50372539D01*
X170372673Y-50354285D01*
X170367088Y-50335182D01*
X170362395Y-50315234D01*
X170358598Y-50294446D01*
X170355699Y-50272820D01*
X170353704Y-50250360D01*
X170352616Y-50227072D01*
X170352438Y-50202958D01*
X170352672Y-50195009D01*
X170660063Y-50195009D01*
X170660211Y-50204090D01*
X170660592Y-50212761D01*
X170661214Y-50221025D01*
X170662083Y-50228885D01*
X170663208Y-50236347D01*
X170664597Y-50243413D01*
X170666257Y-50250088D01*
X170668196Y-50256375D01*
X170670422Y-50262278D01*
X170672943Y-50267801D01*
X170675766Y-50272949D01*
X170678338Y-50277755D01*
X170681089Y-50282251D01*
X170684010Y-50286437D01*
X170687094Y-50290312D01*
X170690332Y-50293878D01*
X170693719Y-50297134D01*
X170697244Y-50300079D01*
X170700902Y-50302715D01*
X170704683Y-50305040D01*
X170708581Y-50307056D01*
X170712587Y-50308761D01*
X170716694Y-50310157D01*
X170720894Y-50311242D01*
X170725179Y-50312017D01*
X170729542Y-50312482D01*
X170733974Y-50312637D01*
X170738408Y-50312545D01*
X170742780Y-50312270D01*
X170747090Y-50311817D01*
X170751338Y-50311190D01*
X170755524Y-50310392D01*
X170759648Y-50309428D01*
X170763709Y-50308300D01*
X170767709Y-50307014D01*
X170771647Y-50305573D01*
X170775523Y-50303981D01*
X170779336Y-50302241D01*
X170783088Y-50300358D01*
X170786778Y-50298335D01*
X170790405Y-50296177D01*
X170793971Y-50293887D01*
X170797474Y-50291469D01*
X170800917Y-50288928D01*
X170804301Y-50286271D01*
X170807631Y-50283505D01*
X170810910Y-50280638D01*
X170814143Y-50277679D01*
X170817334Y-50274634D01*
X170823602Y-50268319D01*
X170829746Y-50261756D01*
X170835798Y-50255007D01*
X170847746Y-50241199D01*
X170852707Y-50233138D01*
X170857668Y-50224828D01*
X170862629Y-50216270D01*
X170867590Y-50207464D01*
X170872551Y-50198411D01*
X170877512Y-50189109D01*
X170882473Y-50179559D01*
X170887434Y-50169761D01*
X170974746Y-49489782D01*
X170980038Y-49489782D01*
X171001204Y-49325741D01*
X170887434Y-49325741D01*
X170880573Y-49325911D01*
X170873883Y-49326421D01*
X170867363Y-49327271D01*
X170861011Y-49328459D01*
X170854829Y-49329984D01*
X170848814Y-49331845D01*
X170842967Y-49334041D01*
X170837287Y-49336572D01*
X170831773Y-49339436D01*
X170826426Y-49342632D01*
X170821245Y-49346160D01*
X170816228Y-49350018D01*
X170811377Y-49354206D01*
X170806690Y-49358722D01*
X170802166Y-49363565D01*
X170797806Y-49368735D01*
X170789573Y-49380051D01*
X170781987Y-49392661D01*
X170775045Y-49406558D01*
X170768743Y-49421734D01*
X170763076Y-49438182D01*
X170758040Y-49455892D01*
X170753633Y-49474859D01*
X170749850Y-49495073D01*
X170662537Y-50143303D01*
X170661639Y-50154497D01*
X170660935Y-50165260D01*
X170660433Y-50175598D01*
X170660139Y-50185512D01*
X170660063Y-50195009D01*
X170352672Y-50195009D01*
X170353175Y-50178022D01*
X170354831Y-50152268D01*
X170357409Y-50125700D01*
X170360913Y-50098323D01*
X170448226Y-49484490D01*
X170453032Y-49457113D01*
X170458520Y-49430545D01*
X170464690Y-49404792D01*
X170471542Y-49379856D01*
X170479077Y-49355742D01*
X170487293Y-49332453D01*
X170496192Y-49309994D01*
X170505773Y-49288368D01*
X170516035Y-49267579D01*
X170526980Y-49247631D01*
X170538608Y-49228528D01*
X170550917Y-49210274D01*
X170563908Y-49192873D01*
X170577582Y-49176328D01*
X170591937Y-49160643D01*
X170606975Y-49145823D01*
X170622632Y-49131871D01*
X170638844Y-49118792D01*
X170655606Y-49106588D01*
X170672914Y-49095264D01*
X170690765Y-49084823D01*
X170709155Y-49075270D01*
X170728080Y-49066609D01*
X170747535Y-49058842D01*
X170767518Y-49051975D01*
X170788024Y-49046011D01*
X170809049Y-49040954D01*
X170830590Y-49036807D01*
X170852642Y-49033576D01*
X170875202Y-49031262D01*
X170898266Y-49029872D01*
X170921830Y-49029407D01*
X171038245Y-49029407D01*
X171125558Y-48516116D01*
X171127357Y-48507341D01*
X171128787Y-48498876D01*
X171129854Y-48490722D01*
X171130560Y-48482877D01*
X171130910Y-48475343D01*
X171130906Y-48468119D01*
X171130554Y-48461204D01*
X171129857Y-48454600D01*
X171128819Y-48448306D01*
X171127444Y-48442322D01*
X171125736Y-48436648D01*
X171123698Y-48431284D01*
X171121334Y-48426230D01*
X171118649Y-48421486D01*
X171115646Y-48417052D01*
X171112329Y-48412928D01*
X171108793Y-48409084D01*
X171105125Y-48405487D01*
X171101318Y-48402139D01*
X171097363Y-48399038D01*
X171093254Y-48396186D01*
X171088981Y-48393581D01*
X171084538Y-48391225D01*
X171079917Y-48389116D01*
X171075110Y-48387256D01*
X171070109Y-48385644D01*
X171064907Y-48384279D01*
X171059495Y-48383163D01*
X171053866Y-48382295D01*
X171048012Y-48381675D01*
X171041926Y-48381303D01*
X171035599Y-48381179D01*
X171031135Y-48381303D01*
X171026675Y-48381675D01*
X171022222Y-48382295D01*
X171017781Y-48383163D01*
X171013356Y-48384279D01*
X171008950Y-48385643D01*
X171004567Y-48387256D01*
X171000212Y-48389116D01*
X170995887Y-48391224D01*
X170991597Y-48393581D01*
X170987346Y-48396185D01*
X170983138Y-48399038D01*
X170978976Y-48402138D01*
X170974864Y-48405487D01*
X170970807Y-48409084D01*
X170966808Y-48412928D01*
X170962902Y-48417052D01*
X170959124Y-48421486D01*
X170955478Y-48426229D01*
X170951967Y-48431283D01*
X170948596Y-48436647D01*
X170945368Y-48442321D01*
X170942287Y-48448305D01*
X170939358Y-48454600D01*
X170936583Y-48461204D01*
X170933968Y-48468118D01*
X170931515Y-48475343D01*
X170929229Y-48482877D01*
X170927114Y-48490722D01*
X170925173Y-48498876D01*
X170923410Y-48507341D01*
X170921830Y-48516116D01*
X170871559Y-48820387D01*
X170575225Y-48820387D01*
X170625496Y-48494950D01*
X170630302Y-48470052D01*
X170635790Y-48445955D01*
X170641960Y-48422658D01*
X170648813Y-48400154D01*
X170656347Y-48378442D01*
X170664563Y-48357516D01*
X170673462Y-48337373D01*
X170683043Y-48318009D01*
X170693306Y-48299420D01*
X170704251Y-48281603D01*
X170715878Y-48264553D01*
X170728187Y-48248266D01*
X170741179Y-48232740D01*
X170754852Y-48217969D01*
X170769208Y-48203949D01*
X170784246Y-48190678D01*
X170799811Y-48178183D01*
X170815753Y-48166494D01*
X170832074Y-48155611D01*
X170848779Y-48145534D01*
X170865872Y-48136263D01*
X170883356Y-48127799D01*
X170901235Y-48120140D01*
X170919514Y-48113288D01*
X170938196Y-48107242D01*
X170957284Y-48102002D01*
X170976784Y-48097568D01*
X170996698Y-48093940D01*
X171017031Y-48091118D01*
X171037786Y-48089103D01*
X171058968Y-48087894D01*
X171080579Y-48087491D01*
X171104456Y-48087925D01*
G37*
G36*
X170047008Y-47365707D02*
G01*
X170073664Y-47367298D01*
X170099560Y-47369958D01*
X170124689Y-47373695D01*
X170149043Y-47378518D01*
X170172614Y-47384433D01*
X170195394Y-47391450D01*
X170217376Y-47399575D01*
X170238552Y-47408816D01*
X170258914Y-47419181D01*
X170278454Y-47430677D01*
X170297165Y-47443314D01*
X170315038Y-47457097D01*
X170332067Y-47472035D01*
X170348243Y-47488136D01*
X170363558Y-47505408D01*
X170378287Y-47523640D01*
X170391722Y-47542620D01*
X170403870Y-47562352D01*
X170414739Y-47582840D01*
X170424336Y-47604087D01*
X170432670Y-47626098D01*
X170439749Y-47648877D01*
X170445579Y-47672426D01*
X170450169Y-47696751D01*
X170453527Y-47721855D01*
X170455660Y-47747741D01*
X170456576Y-47774415D01*
X170456283Y-47801879D01*
X170454788Y-47830138D01*
X170452099Y-47859195D01*
X170448225Y-47889054D01*
X170350329Y-48579616D01*
X170348895Y-48579361D01*
X170278892Y-49074386D01*
X170273961Y-49104246D01*
X170268097Y-49133303D01*
X170261294Y-49161561D01*
X170253550Y-49189025D01*
X170244860Y-49215699D01*
X170235220Y-49241586D01*
X170224627Y-49266689D01*
X170213077Y-49291014D01*
X170200565Y-49314564D01*
X170187089Y-49337342D01*
X170172643Y-49359353D01*
X170157225Y-49380600D01*
X170140830Y-49401088D01*
X170123455Y-49420820D01*
X170105095Y-49439800D01*
X170085746Y-49458032D01*
X170065655Y-49474868D01*
X170045067Y-49490645D01*
X170023983Y-49505361D01*
X170002403Y-49519011D01*
X169980327Y-49531591D01*
X169957754Y-49543097D01*
X169934686Y-49553526D01*
X169911122Y-49562874D01*
X169887061Y-49571136D01*
X169862505Y-49578309D01*
X169837452Y-49584390D01*
X169811903Y-49589373D01*
X169785858Y-49593256D01*
X169759317Y-49596034D01*
X169732280Y-49597704D01*
X169704747Y-49598262D01*
X169522184Y-49598262D01*
X169389893Y-50553407D01*
X169072392Y-50553407D01*
X169250879Y-49280762D01*
X169567163Y-49280762D01*
X169749725Y-49280762D01*
X169771926Y-49279986D01*
X169782562Y-49279014D01*
X169792890Y-49277651D01*
X169802910Y-49275898D01*
X169812622Y-49273751D01*
X169822027Y-49271211D01*
X169831126Y-49268277D01*
X169839918Y-49264948D01*
X169848404Y-49261222D01*
X169856586Y-49257099D01*
X169864462Y-49252578D01*
X169872034Y-49247658D01*
X169879303Y-49242337D01*
X169886268Y-49236615D01*
X169892931Y-49230491D01*
X169899291Y-49223965D01*
X169905349Y-49217034D01*
X169911106Y-49209698D01*
X169916563Y-49201956D01*
X169921718Y-49193807D01*
X169926574Y-49185250D01*
X169931131Y-49176284D01*
X169935388Y-49166909D01*
X169939348Y-49157122D01*
X169943009Y-49146924D01*
X169949439Y-49125288D01*
X169954684Y-49101994D01*
X169958747Y-49077033D01*
X170043413Y-48484366D01*
X170043757Y-48484439D01*
X170128079Y-47891700D01*
X170129373Y-47879243D01*
X170130279Y-47867175D01*
X170130796Y-47855495D01*
X170130921Y-47844204D01*
X170130656Y-47833302D01*
X170129998Y-47822791D01*
X170128946Y-47812670D01*
X170127501Y-47802940D01*
X170125659Y-47793602D01*
X170123422Y-47784655D01*
X170120787Y-47776101D01*
X170117754Y-47767940D01*
X170114322Y-47760172D01*
X170110490Y-47752798D01*
X170106256Y-47745818D01*
X170101621Y-47739234D01*
X170096582Y-47733044D01*
X170091140Y-47727251D01*
X170085292Y-47721853D01*
X170079038Y-47716853D01*
X170072378Y-47712249D01*
X170065309Y-47708044D01*
X170057832Y-47704237D01*
X170049944Y-47700828D01*
X170041646Y-47697818D01*
X170032936Y-47695209D01*
X170023814Y-47692999D01*
X170014277Y-47691190D01*
X170004326Y-47689782D01*
X169993959Y-47688776D01*
X169983176Y-47688172D01*
X169971975Y-47687971D01*
X169789413Y-47687971D01*
X169567163Y-49280762D01*
X169250879Y-49280762D01*
X169519538Y-47365179D01*
X170019600Y-47365179D01*
X170047008Y-47365707D01*
G37*
G36*
X175903997Y-48090541D02*
G01*
X175927017Y-48091755D01*
X175949192Y-48093782D01*
X175970534Y-48096628D01*
X175991054Y-48100295D01*
X176010764Y-48104788D01*
X176029676Y-48110110D01*
X176047801Y-48116265D01*
X176065150Y-48123258D01*
X176081736Y-48131091D01*
X176097571Y-48139770D01*
X176112665Y-48149297D01*
X176127030Y-48159677D01*
X176140678Y-48170913D01*
X176153621Y-48183010D01*
X176165870Y-48195971D01*
X176177250Y-48209272D01*
X176187580Y-48223375D01*
X176196863Y-48238277D01*
X176205104Y-48253973D01*
X176212306Y-48270460D01*
X176218473Y-48287733D01*
X176223609Y-48305790D01*
X176227717Y-48324625D01*
X176230803Y-48344236D01*
X176232870Y-48364617D01*
X176233920Y-48385767D01*
X176233960Y-48407679D01*
X176232991Y-48430352D01*
X176231019Y-48453780D01*
X176228047Y-48477960D01*
X176224079Y-48502887D01*
X176152641Y-48973846D01*
X176151070Y-48973832D01*
X176094432Y-49354847D01*
X175570558Y-49354847D01*
X175462079Y-50106263D01*
X175460970Y-50116030D01*
X175460125Y-50125486D01*
X175459544Y-50134633D01*
X175459226Y-50143470D01*
X175459172Y-50151996D01*
X175459381Y-50160213D01*
X175459854Y-50168119D01*
X175460591Y-50175716D01*
X175461591Y-50183002D01*
X175462854Y-50189978D01*
X175464381Y-50196645D01*
X175466172Y-50203001D01*
X175468226Y-50209047D01*
X175470544Y-50214783D01*
X175473125Y-50220209D01*
X175475970Y-50225325D01*
X175479078Y-50230131D01*
X175482450Y-50234627D01*
X175486085Y-50238813D01*
X175489984Y-50242688D01*
X175494147Y-50246254D01*
X175498573Y-50249510D01*
X175503263Y-50252455D01*
X175508216Y-50255091D01*
X175513432Y-50257416D01*
X175518913Y-50259431D01*
X175524657Y-50261137D01*
X175530664Y-50262532D01*
X175536935Y-50263617D01*
X175543469Y-50264392D01*
X175550267Y-50264857D01*
X175557329Y-50265012D01*
X175564422Y-50264857D01*
X175571314Y-50264392D01*
X175578007Y-50263617D01*
X175584501Y-50262532D01*
X175590797Y-50261137D01*
X175596897Y-50259432D01*
X175602801Y-50257416D01*
X175608510Y-50255091D01*
X175614025Y-50252455D01*
X175619348Y-50249510D01*
X175624478Y-50246254D01*
X175629418Y-50242689D01*
X175634168Y-50238813D01*
X175638729Y-50234627D01*
X175643102Y-50230131D01*
X175647288Y-50225325D01*
X175651288Y-50220209D01*
X175655102Y-50214783D01*
X175662181Y-50203001D01*
X175668530Y-50189979D01*
X175674159Y-50175716D01*
X175679075Y-50160213D01*
X175683285Y-50143470D01*
X175686798Y-50125487D01*
X175689621Y-50106263D01*
X175766349Y-49582389D01*
X176062683Y-49582389D01*
X175985954Y-50106263D01*
X175981643Y-50133640D01*
X175976641Y-50160208D01*
X175970943Y-50185961D01*
X175964539Y-50210897D01*
X175957421Y-50235011D01*
X175949583Y-50258300D01*
X175941017Y-50280759D01*
X175931714Y-50302385D01*
X175921666Y-50323174D01*
X175910867Y-50343122D01*
X175899309Y-50362225D01*
X175886983Y-50380479D01*
X175873881Y-50397880D01*
X175859997Y-50414425D01*
X175845322Y-50430110D01*
X175829849Y-50444930D01*
X175813726Y-50458882D01*
X175797107Y-50471961D01*
X175779992Y-50484165D01*
X175762381Y-50495489D01*
X175744273Y-50505930D01*
X175725670Y-50515483D01*
X175706570Y-50524144D01*
X175686974Y-50531911D01*
X175666883Y-50538778D01*
X175646295Y-50544742D01*
X175625211Y-50549799D01*
X175603631Y-50553946D01*
X175581554Y-50557177D01*
X175558982Y-50559491D01*
X175535914Y-50560881D01*
X175512350Y-50561346D01*
X175488473Y-50560912D01*
X175465453Y-50559609D01*
X175443278Y-50557439D01*
X175421936Y-50554400D01*
X175401416Y-50550494D01*
X175381706Y-50545719D01*
X175362795Y-50540076D01*
X175344670Y-50533565D01*
X175327320Y-50526185D01*
X175310734Y-50517938D01*
X175294900Y-50508822D01*
X175279806Y-50498838D01*
X175265440Y-50487986D01*
X175251792Y-50476266D01*
X175238849Y-50463677D01*
X175226599Y-50450221D01*
X175215655Y-50435928D01*
X175205645Y-50420832D01*
X175196572Y-50404939D01*
X175188441Y-50388250D01*
X175181256Y-50370771D01*
X175175021Y-50352506D01*
X175169739Y-50333457D01*
X175165414Y-50313630D01*
X175162051Y-50293027D01*
X175159652Y-50271653D01*
X175158223Y-50249511D01*
X175157766Y-50226607D01*
X175158286Y-50202942D01*
X175159787Y-50178522D01*
X175162272Y-50153350D01*
X175165745Y-50127430D01*
X175323119Y-49055867D01*
X175612892Y-49055867D01*
X175840433Y-49055867D01*
X175856310Y-48952679D01*
X175859235Y-48952783D01*
X175927745Y-48521409D01*
X175929545Y-48512634D01*
X175930975Y-48504169D01*
X175932042Y-48496015D01*
X175932748Y-48488170D01*
X175933098Y-48480636D01*
X175933095Y-48473411D01*
X175932743Y-48466497D01*
X175932046Y-48459893D01*
X175931008Y-48453599D01*
X175929633Y-48447615D01*
X175927924Y-48441941D01*
X175925886Y-48436577D01*
X175923523Y-48431523D01*
X175920838Y-48426779D01*
X175917835Y-48422345D01*
X175914518Y-48418221D01*
X175910982Y-48414377D01*
X175907314Y-48410780D01*
X175903506Y-48407431D01*
X175899552Y-48404331D01*
X175895442Y-48401478D01*
X175891170Y-48398874D01*
X175886727Y-48396518D01*
X175882106Y-48394409D01*
X175877298Y-48392549D01*
X175872297Y-48390936D01*
X175867095Y-48389572D01*
X175861683Y-48388456D01*
X175856054Y-48387588D01*
X175850200Y-48386968D01*
X175844114Y-48386595D01*
X175837787Y-48386471D01*
X175830927Y-48386603D01*
X175824237Y-48386999D01*
X175817717Y-48387657D01*
X175811366Y-48388580D01*
X175805183Y-48389766D01*
X175799168Y-48391215D01*
X175793321Y-48392928D01*
X175787641Y-48394905D01*
X175782128Y-48397145D01*
X175776781Y-48399649D01*
X175771599Y-48402416D01*
X175766583Y-48405447D01*
X175761732Y-48408741D01*
X175757044Y-48412299D01*
X175752521Y-48416121D01*
X175748160Y-48420206D01*
X175743963Y-48424554D01*
X175739928Y-48429166D01*
X175736054Y-48434042D01*
X175732342Y-48439181D01*
X175728791Y-48444584D01*
X175725400Y-48450250D01*
X175719097Y-48462374D01*
X175713430Y-48475551D01*
X175708395Y-48489783D01*
X175703988Y-48505069D01*
X175700204Y-48521409D01*
X175612892Y-49055867D01*
X175323119Y-49055867D01*
X175401224Y-48524054D01*
X175406030Y-48497698D01*
X175411523Y-48472202D01*
X175417706Y-48447559D01*
X175424582Y-48423760D01*
X175432156Y-48400799D01*
X175440431Y-48378667D01*
X175449412Y-48357357D01*
X175459102Y-48336861D01*
X175469505Y-48317171D01*
X175480625Y-48298279D01*
X175492466Y-48280178D01*
X175505032Y-48262860D01*
X175518326Y-48246317D01*
X175532353Y-48230542D01*
X175547116Y-48215526D01*
X175562620Y-48201262D01*
X175578743Y-48187806D01*
X175595362Y-48175217D01*
X175612477Y-48163497D01*
X175630089Y-48152645D01*
X175648196Y-48142661D01*
X175666800Y-48133545D01*
X175685899Y-48125298D01*
X175705495Y-48117918D01*
X175725587Y-48111407D01*
X175746175Y-48105764D01*
X175767259Y-48100989D01*
X175788839Y-48097083D01*
X175810915Y-48094044D01*
X175833488Y-48091874D01*
X175856556Y-48090571D01*
X175880121Y-48090137D01*
X175903997Y-48090541D01*
G37*
G36*
X178941351Y-50569283D02*
G01*
X176372245Y-50569283D01*
X176396059Y-50402595D01*
X178962516Y-50402595D01*
X178941351Y-50569283D01*
G37*
G36*
X178993057Y-48503166D02*
G01*
X179007289Y-48504008D01*
X179021087Y-48505415D01*
X179034450Y-48507393D01*
X179047380Y-48509944D01*
X179059875Y-48513072D01*
X179071936Y-48516782D01*
X179083563Y-48521077D01*
X179094757Y-48525961D01*
X179105516Y-48531438D01*
X179115841Y-48537512D01*
X179125731Y-48544187D01*
X179135188Y-48551466D01*
X179144211Y-48559354D01*
X179152800Y-48567854D01*
X179160955Y-48576970D01*
X179168552Y-48586582D01*
X179175470Y-48596571D01*
X179181715Y-48606939D01*
X179187288Y-48617691D01*
X179192196Y-48628831D01*
X179196440Y-48640362D01*
X179200026Y-48652288D01*
X179202956Y-48664613D01*
X179205236Y-48677342D01*
X179206868Y-48690477D01*
X179207857Y-48704024D01*
X179208206Y-48717985D01*
X179207920Y-48732365D01*
X179207002Y-48747167D01*
X179205457Y-48762395D01*
X179203287Y-48778054D01*
X179197080Y-48814264D01*
X179190347Y-48849450D01*
X179183056Y-48883582D01*
X179175175Y-48916629D01*
X179166675Y-48948560D01*
X179157523Y-48979344D01*
X179147689Y-49008949D01*
X179137142Y-49037346D01*
X179126098Y-49065747D01*
X179114776Y-49093404D01*
X179103143Y-49120317D01*
X179091170Y-49146486D01*
X179078824Y-49171910D01*
X179066075Y-49196591D01*
X179052893Y-49220527D01*
X179039245Y-49243720D01*
X179025349Y-49267289D01*
X179011422Y-49290394D01*
X178997433Y-49313064D01*
X178983352Y-49335332D01*
X178969146Y-49357227D01*
X178954785Y-49378781D01*
X178940238Y-49400025D01*
X178925474Y-49420991D01*
X178910710Y-49441950D01*
X178896163Y-49463158D01*
X178881802Y-49484614D01*
X178867596Y-49506318D01*
X178839525Y-49550471D01*
X178811702Y-49595615D01*
X178786030Y-49641834D01*
X178773426Y-49665471D01*
X178761101Y-49689542D01*
X178749148Y-49714109D01*
X178737661Y-49739235D01*
X178726731Y-49764980D01*
X178716453Y-49791407D01*
X178705911Y-49818574D01*
X178696113Y-49846515D01*
X178687059Y-49875263D01*
X178678750Y-49904847D01*
X178671184Y-49935300D01*
X178664363Y-49966652D01*
X178658286Y-49998934D01*
X178652954Y-50032178D01*
X179015434Y-50032178D01*
X178994266Y-50201511D01*
X178462453Y-50198866D01*
X178483619Y-50032178D01*
X178489826Y-49995095D01*
X178496559Y-49959252D01*
X178503851Y-49924650D01*
X178511732Y-49891287D01*
X178520233Y-49859165D01*
X178529385Y-49828283D01*
X178539219Y-49798642D01*
X178549766Y-49770241D01*
X178560809Y-49742707D01*
X178572132Y-49715670D01*
X178583764Y-49689129D01*
X178595738Y-49663084D01*
X178608083Y-49637535D01*
X178620832Y-49612482D01*
X178634015Y-49587926D01*
X178647663Y-49563865D01*
X178661558Y-49540296D01*
X178675485Y-49517191D01*
X178689474Y-49494521D01*
X178703556Y-49472254D01*
X178717762Y-49450358D01*
X178732123Y-49428804D01*
X178746670Y-49407560D01*
X178761434Y-49386595D01*
X178776198Y-49365635D01*
X178790744Y-49344427D01*
X178805105Y-49322971D01*
X178819311Y-49301267D01*
X178847382Y-49257114D01*
X178875204Y-49211970D01*
X178900876Y-49165792D01*
X178913480Y-49142253D01*
X178925805Y-49118374D01*
X178937758Y-49094122D01*
X178949246Y-49069467D01*
X178960176Y-49044378D01*
X178970455Y-49018824D01*
X178980997Y-48992418D01*
X178990795Y-48964833D01*
X178999849Y-48936132D01*
X179008158Y-48906377D01*
X179015724Y-48875629D01*
X179022545Y-48843952D01*
X179028622Y-48811406D01*
X179033954Y-48778054D01*
X179035475Y-48765093D01*
X179035889Y-48758937D01*
X179036073Y-48752996D01*
X179036029Y-48747270D01*
X179035757Y-48741759D01*
X179035258Y-48736463D01*
X179034533Y-48731380D01*
X179033584Y-48726510D01*
X179032411Y-48721852D01*
X179031015Y-48717407D01*
X179029397Y-48713174D01*
X179027558Y-48709152D01*
X179025499Y-48705340D01*
X179023221Y-48701739D01*
X179020726Y-48698348D01*
X179018013Y-48695166D01*
X179015084Y-48692192D01*
X179011940Y-48689427D01*
X179008582Y-48686870D01*
X179005010Y-48684521D01*
X179001227Y-48682378D01*
X178997232Y-48680441D01*
X178993027Y-48678711D01*
X178988613Y-48677185D01*
X178983990Y-48675865D01*
X178979160Y-48674749D01*
X178974124Y-48673837D01*
X178968882Y-48673129D01*
X178963436Y-48672624D01*
X178951934Y-48672220D01*
X178946059Y-48672321D01*
X178940338Y-48672624D01*
X178934773Y-48673129D01*
X178929362Y-48673837D01*
X178924107Y-48674749D01*
X178919006Y-48675865D01*
X178914061Y-48677185D01*
X178909271Y-48678711D01*
X178904635Y-48680441D01*
X178900155Y-48682378D01*
X178895829Y-48684521D01*
X178891659Y-48686870D01*
X178887644Y-48689427D01*
X178883784Y-48692192D01*
X178880078Y-48695166D01*
X178876528Y-48698348D01*
X178873133Y-48701739D01*
X178869893Y-48705340D01*
X178866808Y-48709152D01*
X178863878Y-48713174D01*
X178861102Y-48717407D01*
X178858482Y-48721852D01*
X178856017Y-48726510D01*
X178853707Y-48731380D01*
X178851552Y-48736463D01*
X178849552Y-48741759D01*
X178847708Y-48747270D01*
X178846018Y-48752996D01*
X178844483Y-48758937D01*
X178843103Y-48765093D01*
X178840808Y-48778054D01*
X178798475Y-49061158D01*
X178629142Y-49061158D01*
X178671476Y-48775408D01*
X178674205Y-48759749D01*
X178677429Y-48744525D01*
X178681150Y-48729736D01*
X178685367Y-48715380D01*
X178690080Y-48701458D01*
X178695288Y-48687971D01*
X178700994Y-48674917D01*
X178707195Y-48662298D01*
X178713892Y-48650112D01*
X178721085Y-48638361D01*
X178728775Y-48627044D01*
X178736960Y-48616161D01*
X178745642Y-48605712D01*
X178754820Y-48595697D01*
X178764494Y-48586116D01*
X178774664Y-48576970D01*
X178785236Y-48567854D01*
X178796115Y-48559354D01*
X178807295Y-48551466D01*
X178818775Y-48544187D01*
X178830548Y-48537512D01*
X178842613Y-48531438D01*
X178854964Y-48525961D01*
X178867598Y-48521077D01*
X178880511Y-48516782D01*
X178893700Y-48513072D01*
X178907159Y-48509944D01*
X178920886Y-48507393D01*
X178934877Y-48505415D01*
X178949127Y-48504008D01*
X178963633Y-48503166D01*
X178978391Y-48502886D01*
X178993057Y-48503166D01*
G37*
G36*
X178265453Y-48500986D02*
G01*
X178279685Y-48502230D01*
X178293483Y-48503979D01*
X178306846Y-48506235D01*
X178319776Y-48509003D01*
X178332271Y-48512287D01*
X178344332Y-48516090D01*
X178355960Y-48520416D01*
X178367153Y-48525269D01*
X178377912Y-48530653D01*
X178388237Y-48536572D01*
X178398128Y-48543029D01*
X178407584Y-48550029D01*
X178416607Y-48557576D01*
X178425196Y-48565673D01*
X178433351Y-48574324D01*
X178440978Y-48583471D01*
X178447980Y-48593047D01*
X178454355Y-48603050D01*
X178460098Y-48613475D01*
X178465206Y-48624318D01*
X178469674Y-48635577D01*
X178473499Y-48647246D01*
X178476676Y-48659322D01*
X178479203Y-48671801D01*
X178481074Y-48684680D01*
X178482286Y-48697954D01*
X178482836Y-48711619D01*
X178482719Y-48725672D01*
X178481932Y-48740108D01*
X178480470Y-48754924D01*
X178478330Y-48770117D01*
X178372495Y-49479200D01*
X178370507Y-49479045D01*
X178303705Y-49934284D01*
X178300947Y-49949476D01*
X178297638Y-49964292D01*
X178293787Y-49978729D01*
X178289401Y-49992782D01*
X178284488Y-50006447D01*
X178279055Y-50019721D01*
X178273111Y-50032599D01*
X178266663Y-50045078D01*
X178259719Y-50057154D01*
X178252287Y-50068823D01*
X178244374Y-50080082D01*
X178235988Y-50090925D01*
X178227138Y-50101350D01*
X178217829Y-50111353D01*
X178208071Y-50120929D01*
X178197872Y-50130075D01*
X178187299Y-50138726D01*
X178176421Y-50146819D01*
X178165240Y-50154353D01*
X178153761Y-50161329D01*
X178141987Y-50167748D01*
X178129923Y-50173608D01*
X178117571Y-50178910D01*
X178104937Y-50183654D01*
X178092024Y-50187839D01*
X178078836Y-50191467D01*
X178065376Y-50194537D01*
X178051649Y-50197048D01*
X178037658Y-50199002D01*
X178023408Y-50200397D01*
X178008902Y-50201234D01*
X177994144Y-50201513D01*
X177979478Y-50200768D01*
X177965246Y-50199524D01*
X177951448Y-50197775D01*
X177938085Y-50195519D01*
X177925155Y-50192751D01*
X177912660Y-50189468D01*
X177900598Y-50185665D01*
X177888971Y-50181339D01*
X177877778Y-50176486D01*
X177867019Y-50171102D01*
X177856694Y-50165183D01*
X177846803Y-50158726D01*
X177837346Y-50151725D01*
X177828324Y-50144179D01*
X177819735Y-50136082D01*
X177811580Y-50127431D01*
X177803983Y-50118284D01*
X177797064Y-50108708D01*
X177790820Y-50098705D01*
X177785246Y-50088280D01*
X177780338Y-50077437D01*
X177776093Y-50066178D01*
X177772507Y-50054509D01*
X177769577Y-50042433D01*
X177767297Y-50029954D01*
X177765665Y-50017075D01*
X177764676Y-50003801D01*
X177764326Y-49990136D01*
X177764612Y-49976083D01*
X177765531Y-49961647D01*
X177765914Y-49957973D01*
X177934852Y-49957973D01*
X177934952Y-49963554D01*
X177935314Y-49968887D01*
X177935933Y-49973972D01*
X177936800Y-49978809D01*
X177937907Y-49983398D01*
X177939247Y-49987739D01*
X177940811Y-49991831D01*
X177942593Y-49995676D01*
X177944584Y-49999273D01*
X177946777Y-50002621D01*
X177949163Y-50005722D01*
X177952203Y-50009071D01*
X177955375Y-50012176D01*
X177958686Y-50015041D01*
X177962145Y-50017670D01*
X177965758Y-50020066D01*
X177969534Y-50022233D01*
X177973481Y-50024175D01*
X177977606Y-50025897D01*
X177981917Y-50027401D01*
X177986422Y-50028692D01*
X177991128Y-50029774D01*
X177996044Y-50030651D01*
X178001177Y-50031326D01*
X178006534Y-50031803D01*
X178012125Y-50032087D01*
X178017955Y-50032181D01*
X178029581Y-50031777D01*
X178035182Y-50031274D01*
X178040641Y-50030568D01*
X178045957Y-50029661D01*
X178051128Y-50028553D01*
X178056153Y-50027243D01*
X178061033Y-50025731D01*
X178065765Y-50024018D01*
X178070349Y-50022104D01*
X178074783Y-50019987D01*
X178079068Y-50017670D01*
X178083201Y-50015150D01*
X178087182Y-50012430D01*
X178091010Y-50009507D01*
X178094684Y-50006383D01*
X178098203Y-50003058D01*
X178101566Y-49999531D01*
X178104772Y-49995803D01*
X178107820Y-49991873D01*
X178110709Y-49987741D01*
X178113439Y-49983408D01*
X178116007Y-49978874D01*
X178118414Y-49974137D01*
X178120658Y-49969200D01*
X178122738Y-49964060D01*
X178124653Y-49958720D01*
X178126403Y-49953177D01*
X178127986Y-49947434D01*
X178129401Y-49941488D01*
X178131725Y-49928993D01*
X178205808Y-49444805D01*
X178206313Y-49444813D01*
X178306350Y-48772764D01*
X178307226Y-48766416D01*
X178307871Y-48760269D01*
X178308285Y-48754323D01*
X178308469Y-48748579D01*
X178308425Y-48743037D01*
X178308153Y-48737696D01*
X178307654Y-48732557D01*
X178306929Y-48727620D01*
X178305980Y-48722883D01*
X178304807Y-48718349D01*
X178303411Y-48714016D01*
X178301793Y-48709884D01*
X178299954Y-48705954D01*
X178297895Y-48702226D01*
X178295617Y-48698699D01*
X178293122Y-48695373D01*
X178290409Y-48692250D01*
X178287480Y-48689327D01*
X178284336Y-48686606D01*
X178280978Y-48684087D01*
X178277407Y-48681770D01*
X178273623Y-48679653D01*
X178269628Y-48677739D01*
X178265423Y-48676026D01*
X178261009Y-48674514D01*
X178256386Y-48673204D01*
X178251557Y-48672096D01*
X178246520Y-48671189D01*
X178241278Y-48670483D01*
X178235832Y-48669979D01*
X178230183Y-48669677D01*
X178224331Y-48669576D01*
X178218455Y-48669677D01*
X178212734Y-48669979D01*
X178207169Y-48670483D01*
X178201758Y-48671189D01*
X178196503Y-48672096D01*
X178191402Y-48673204D01*
X178186457Y-48674514D01*
X178181667Y-48676026D01*
X178177031Y-48677739D01*
X178172551Y-48679653D01*
X178168226Y-48681770D01*
X178164055Y-48684087D01*
X178160040Y-48686606D01*
X178156180Y-48689327D01*
X178152474Y-48692250D01*
X178148924Y-48695373D01*
X178145529Y-48698699D01*
X178142289Y-48702226D01*
X178139204Y-48705954D01*
X178136274Y-48709884D01*
X178133499Y-48714016D01*
X178130878Y-48718349D01*
X178128413Y-48722883D01*
X178126103Y-48727620D01*
X178123949Y-48732557D01*
X178121949Y-48737696D01*
X178120104Y-48743037D01*
X178118414Y-48748579D01*
X178115499Y-48760269D01*
X178113205Y-48772764D01*
X177938579Y-49926347D01*
X177937245Y-49933169D01*
X177936213Y-49939742D01*
X177935475Y-49946067D01*
X177935024Y-49952144D01*
X177934852Y-49957973D01*
X177765914Y-49957973D01*
X177767077Y-49946831D01*
X177769247Y-49931638D01*
X177943872Y-48767471D01*
X177946601Y-48752279D01*
X177949825Y-48737463D01*
X177953546Y-48723026D01*
X177957763Y-48708973D01*
X177962476Y-48695308D01*
X177967685Y-48682034D01*
X177973390Y-48669156D01*
X177979591Y-48656677D01*
X177986288Y-48644601D01*
X177993481Y-48632931D01*
X178001171Y-48621673D01*
X178009356Y-48610829D01*
X178018038Y-48600404D01*
X178027216Y-48590401D01*
X178036890Y-48580825D01*
X178047060Y-48571679D01*
X178058068Y-48563028D01*
X178069270Y-48554936D01*
X178080673Y-48547401D01*
X178092286Y-48540425D01*
X178104116Y-48534007D01*
X178116170Y-48528147D01*
X178128457Y-48522845D01*
X178140985Y-48518101D01*
X178153760Y-48513915D01*
X178166792Y-48510287D01*
X178180087Y-48507217D01*
X178193653Y-48504706D01*
X178207499Y-48502753D01*
X178221631Y-48501357D01*
X178236058Y-48500520D01*
X178250787Y-48500241D01*
X178265453Y-48500986D01*
G37*
G36*
X177540495Y-48497874D02*
G01*
X177554727Y-48498716D01*
X177568525Y-48500124D01*
X177581888Y-48502101D01*
X177594818Y-48504652D01*
X177607313Y-48507780D01*
X177619375Y-48511490D01*
X177631002Y-48515785D01*
X177642195Y-48520669D01*
X177652954Y-48526146D01*
X177663279Y-48532220D01*
X177673170Y-48538895D01*
X177682627Y-48546174D01*
X177691649Y-48554062D01*
X177700238Y-48562562D01*
X177708393Y-48571678D01*
X177715990Y-48581291D01*
X177722908Y-48591279D01*
X177729152Y-48601648D01*
X177734726Y-48612400D01*
X177739634Y-48623539D01*
X177743878Y-48635070D01*
X177747464Y-48646997D01*
X177750395Y-48659322D01*
X177752674Y-48672051D01*
X177754307Y-48685186D01*
X177755296Y-48698733D01*
X177755645Y-48712694D01*
X177755359Y-48727073D01*
X177754441Y-48741875D01*
X177752895Y-48757103D01*
X177750724Y-48772762D01*
X177744519Y-48808972D01*
X177737786Y-48844158D01*
X177730494Y-48878290D01*
X177722614Y-48911337D01*
X177714113Y-48943268D01*
X177704961Y-48974052D01*
X177695127Y-49003657D01*
X177684579Y-49032054D01*
X177673536Y-49060455D01*
X177662214Y-49088112D01*
X177650581Y-49115025D01*
X177638607Y-49141194D01*
X177626262Y-49166619D01*
X177613513Y-49191299D01*
X177600330Y-49215236D01*
X177586683Y-49238428D01*
X177572787Y-49261998D01*
X177558861Y-49285102D01*
X177544872Y-49307773D01*
X177530790Y-49330040D01*
X177516584Y-49351935D01*
X177502223Y-49373489D01*
X177487676Y-49394733D01*
X177472911Y-49415699D01*
X177458147Y-49436659D01*
X177443600Y-49457866D01*
X177429240Y-49479322D01*
X177415034Y-49501026D01*
X177386964Y-49545179D01*
X177359142Y-49590323D01*
X177345499Y-49613278D01*
X177332352Y-49636543D01*
X177319702Y-49660179D01*
X177307547Y-49684250D01*
X177295889Y-49708817D01*
X177284727Y-49733943D01*
X177274061Y-49759688D01*
X177263891Y-49786115D01*
X177253349Y-49813282D01*
X177243551Y-49841223D01*
X177234497Y-49869971D01*
X177226187Y-49899556D01*
X177218622Y-49930008D01*
X177211801Y-49961361D01*
X177205724Y-49993643D01*
X177200391Y-50026887D01*
X177562872Y-50026887D01*
X177541704Y-50196219D01*
X177009891Y-50193574D01*
X177031059Y-50026887D01*
X177037265Y-49989804D01*
X177043998Y-49953961D01*
X177051289Y-49919358D01*
X177059170Y-49885996D01*
X177067670Y-49853873D01*
X177076822Y-49822992D01*
X177086657Y-49793350D01*
X177097204Y-49764949D01*
X177108247Y-49737415D01*
X177119570Y-49710378D01*
X177131202Y-49683837D01*
X177143176Y-49657792D01*
X177155522Y-49632243D01*
X177168270Y-49607190D01*
X177181453Y-49582634D01*
X177195100Y-49558573D01*
X177208996Y-49535004D01*
X177222923Y-49511899D01*
X177236912Y-49489229D01*
X177250994Y-49466962D01*
X177265200Y-49445066D01*
X177279561Y-49423512D01*
X177294108Y-49402268D01*
X177308872Y-49381304D01*
X177323636Y-49360344D01*
X177338183Y-49339136D01*
X177352544Y-49317680D01*
X177366750Y-49295975D01*
X177394820Y-49251823D01*
X177422643Y-49206678D01*
X177448316Y-49160500D01*
X177460920Y-49136961D01*
X177473245Y-49113082D01*
X177485198Y-49088830D01*
X177496685Y-49064175D01*
X177507614Y-49039086D01*
X177517892Y-49013532D01*
X177528435Y-48987126D01*
X177538232Y-48959541D01*
X177547286Y-48930840D01*
X177555596Y-48901085D01*
X177563161Y-48870338D01*
X177569983Y-48838660D01*
X177576059Y-48806114D01*
X177581392Y-48772762D01*
X177582913Y-48759801D01*
X177583327Y-48753645D01*
X177583511Y-48747704D01*
X177583466Y-48741978D01*
X177583194Y-48736468D01*
X177582696Y-48731171D01*
X177581971Y-48726088D01*
X177581022Y-48721218D01*
X177579848Y-48716560D01*
X177578452Y-48712115D01*
X177576834Y-48707882D01*
X177574996Y-48703860D01*
X177572937Y-48700048D01*
X177570659Y-48696447D01*
X177568163Y-48693056D01*
X177565450Y-48689874D01*
X177562522Y-48686900D01*
X177559378Y-48684136D01*
X177556019Y-48681578D01*
X177552448Y-48679229D01*
X177548665Y-48677086D01*
X177544670Y-48675149D01*
X177540465Y-48673419D01*
X177536051Y-48671893D01*
X177531428Y-48670573D01*
X177526598Y-48669457D01*
X177521562Y-48668545D01*
X177516320Y-48667837D01*
X177510874Y-48667332D01*
X177499372Y-48666928D01*
X177493497Y-48667029D01*
X177487776Y-48667332D01*
X177482210Y-48667837D01*
X177476800Y-48668545D01*
X177471545Y-48669457D01*
X177466444Y-48670573D01*
X177461499Y-48671893D01*
X177456708Y-48673419D01*
X177452073Y-48675149D01*
X177447593Y-48677086D01*
X177443267Y-48679229D01*
X177439097Y-48681578D01*
X177435082Y-48684136D01*
X177431221Y-48686900D01*
X177427516Y-48689874D01*
X177423966Y-48693056D01*
X177420571Y-48696447D01*
X177417331Y-48700048D01*
X177414246Y-48703860D01*
X177411316Y-48707882D01*
X177408541Y-48712115D01*
X177405921Y-48716560D01*
X177403456Y-48721218D01*
X177401146Y-48726088D01*
X177398991Y-48731171D01*
X177396991Y-48736468D01*
X177395146Y-48741978D01*
X177393457Y-48747704D01*
X177391922Y-48753645D01*
X177390542Y-48759801D01*
X177388248Y-48772762D01*
X177345913Y-49055866D01*
X177176580Y-49055866D01*
X177218914Y-48770116D01*
X177221643Y-48754458D01*
X177224867Y-48739234D01*
X177228588Y-48724444D01*
X177232805Y-48710088D01*
X177237518Y-48696167D01*
X177242727Y-48682679D01*
X177248433Y-48669626D01*
X177254634Y-48657006D01*
X177261331Y-48644821D01*
X177268524Y-48633070D01*
X177276214Y-48621753D01*
X177284399Y-48610870D01*
X177293080Y-48600421D01*
X177302258Y-48590406D01*
X177311932Y-48580825D01*
X177322101Y-48571678D01*
X177332674Y-48562562D01*
X177343552Y-48554062D01*
X177354733Y-48546174D01*
X177366213Y-48538895D01*
X177377986Y-48532220D01*
X177390051Y-48526146D01*
X177402402Y-48520669D01*
X177415037Y-48515785D01*
X177427950Y-48511490D01*
X177441138Y-48507780D01*
X177454598Y-48504652D01*
X177468325Y-48502101D01*
X177482315Y-48500124D01*
X177496565Y-48498716D01*
X177511071Y-48497874D01*
X177525829Y-48497595D01*
X177540495Y-48497874D01*
G37*
G36*
X176750599Y-50021595D02*
G01*
X176882890Y-50021595D01*
X176861723Y-50190927D01*
X176427808Y-50193574D01*
X176448976Y-50024241D01*
X176581268Y-50024241D01*
X176758537Y-48801866D01*
X176745308Y-48801866D01*
X176743262Y-48803820D01*
X176741101Y-48805711D01*
X176738831Y-48807540D01*
X176736461Y-48809308D01*
X176733997Y-48811013D01*
X176731448Y-48812656D01*
X176728822Y-48814238D01*
X176726126Y-48815757D01*
X176723367Y-48817214D01*
X176720555Y-48818609D01*
X176717696Y-48819942D01*
X176714798Y-48821214D01*
X176711869Y-48822423D01*
X176708917Y-48823570D01*
X176705949Y-48824655D01*
X176702974Y-48825679D01*
X176697016Y-48827772D01*
X176691026Y-48830020D01*
X176678830Y-48834609D01*
X176672561Y-48836764D01*
X176669371Y-48837765D01*
X176666138Y-48838701D01*
X176662858Y-48839560D01*
X176659528Y-48840329D01*
X176656144Y-48840998D01*
X176652702Y-48841554D01*
X176649167Y-48842516D01*
X176645509Y-48843415D01*
X176641726Y-48844252D01*
X176637819Y-48845027D01*
X176629634Y-48846391D01*
X176620952Y-48847507D01*
X176611775Y-48848375D01*
X176602101Y-48848995D01*
X176591931Y-48849367D01*
X176581266Y-48849491D01*
X176599786Y-48727783D01*
X176610143Y-48727535D01*
X176620380Y-48726791D01*
X176630500Y-48725550D01*
X176640508Y-48723814D01*
X176650407Y-48721582D01*
X176660201Y-48718853D01*
X176669895Y-48715629D01*
X176679492Y-48711908D01*
X176688996Y-48707691D01*
X176698411Y-48702978D01*
X176707740Y-48697769D01*
X176716988Y-48692064D01*
X176726159Y-48685863D01*
X176735256Y-48679165D01*
X176744283Y-48671972D01*
X176753244Y-48664283D01*
X176761956Y-48656190D01*
X176770231Y-48647788D01*
X176778063Y-48639075D01*
X176785450Y-48630052D01*
X176792387Y-48620720D01*
X176798870Y-48611077D01*
X176804896Y-48601124D01*
X176810461Y-48590861D01*
X176815561Y-48580288D01*
X176820192Y-48569405D01*
X176824350Y-48558212D01*
X176828031Y-48546708D01*
X176831232Y-48534895D01*
X176833948Y-48522772D01*
X176836176Y-48510338D01*
X176837911Y-48497595D01*
X176970203Y-48497595D01*
X176750599Y-50021595D01*
G37*
G36*
X174911746Y-48095429D02*
G01*
X175208079Y-48095429D01*
X175168392Y-48391762D01*
X174872058Y-48391762D01*
X174636579Y-50098324D01*
X174633758Y-50117548D01*
X174632244Y-50135532D01*
X174631977Y-50144058D01*
X174632039Y-50152275D01*
X174632429Y-50160181D01*
X174633148Y-50167778D01*
X174634197Y-50175064D01*
X174635575Y-50182041D01*
X174637284Y-50188707D01*
X174639324Y-50195063D01*
X174641695Y-50201109D01*
X174644398Y-50206845D01*
X174647433Y-50212271D01*
X174650801Y-50217387D01*
X174654502Y-50222193D01*
X174658538Y-50226689D01*
X174662907Y-50230874D01*
X174667611Y-50234750D01*
X174672651Y-50238316D01*
X174678026Y-50241571D01*
X174683738Y-50244517D01*
X174689786Y-50247152D01*
X174696171Y-50249478D01*
X174702894Y-50251493D01*
X174709955Y-50253198D01*
X174717355Y-50254594D01*
X174725094Y-50255679D01*
X174733173Y-50256454D01*
X174741591Y-50256919D01*
X174750351Y-50257074D01*
X174909100Y-50257074D01*
X174869412Y-50553407D01*
X174710662Y-50553407D01*
X174685299Y-50552943D01*
X174660800Y-50551552D01*
X174637161Y-50549239D01*
X174614379Y-50546007D01*
X174592449Y-50541861D01*
X174571368Y-50536804D01*
X174551132Y-50530840D01*
X174531737Y-50523972D01*
X174513180Y-50516206D01*
X174495455Y-50507544D01*
X174478560Y-50497991D01*
X174462491Y-50487551D01*
X174447243Y-50476227D01*
X174432813Y-50464023D01*
X174419197Y-50450943D01*
X174406391Y-50436991D01*
X174394516Y-50422171D01*
X174383695Y-50406487D01*
X174373928Y-50389942D01*
X174365215Y-50372540D01*
X174357557Y-50354286D01*
X174350953Y-50335183D01*
X174345403Y-50315236D01*
X174340907Y-50294447D01*
X174337465Y-50272821D01*
X174335077Y-50250362D01*
X174333744Y-50227073D01*
X174333465Y-50202959D01*
X174334240Y-50178023D01*
X174336069Y-50152270D01*
X174338953Y-50125702D01*
X174342890Y-50098324D01*
X174581016Y-48391762D01*
X174393162Y-48391762D01*
X174432850Y-48095429D01*
X174615412Y-48095429D01*
X174803266Y-47595367D01*
X174985828Y-47595367D01*
X174911746Y-48095429D01*
G37*
G36*
X176942884Y-41238643D02*
G01*
X177093464Y-41250098D01*
X177241844Y-41268962D01*
X177387838Y-41295048D01*
X177531261Y-41328168D01*
X177671926Y-41368135D01*
X177809649Y-41414763D01*
X177944243Y-41467864D01*
X178075524Y-41527252D01*
X178203306Y-41592739D01*
X178327402Y-41664139D01*
X178447629Y-41741263D01*
X178563799Y-41823927D01*
X178675728Y-41911942D01*
X178783230Y-42005121D01*
X178886119Y-42103278D01*
X178984210Y-42206225D01*
X179077317Y-42313775D01*
X179165255Y-42425742D01*
X179247838Y-42541938D01*
X179324881Y-42662177D01*
X179396198Y-42786271D01*
X179461604Y-42914033D01*
X179520912Y-43045277D01*
X179573938Y-43179815D01*
X179620496Y-43317460D01*
X179660400Y-43458026D01*
X179693465Y-43601326D01*
X179719505Y-43747171D01*
X179738335Y-43895376D01*
X179749769Y-44045753D01*
X179753622Y-44198116D01*
X179749762Y-44350711D01*
X179738306Y-44501292D01*
X179719442Y-44649672D01*
X179693357Y-44795666D01*
X179660237Y-44939089D01*
X179620269Y-45079754D01*
X179573641Y-45217477D01*
X179520540Y-45352071D01*
X179461153Y-45483352D01*
X179395665Y-45611134D01*
X179324266Y-45735230D01*
X179247141Y-45855457D01*
X179164477Y-45971627D01*
X179076463Y-46083556D01*
X178983283Y-46191057D01*
X178885127Y-46293947D01*
X178782180Y-46392038D01*
X178674629Y-46485145D01*
X178562662Y-46573083D01*
X178446466Y-46655666D01*
X178326227Y-46732709D01*
X178202133Y-46804026D01*
X178074371Y-46869431D01*
X177943127Y-46928740D01*
X177808589Y-46981766D01*
X177670944Y-47028324D01*
X177530378Y-47068228D01*
X177387079Y-47101293D01*
X177241233Y-47127333D01*
X177093028Y-47146163D01*
X176942651Y-47157597D01*
X176790289Y-47161449D01*
X176790289Y-46526449D01*
X176909869Y-46523412D01*
X177027907Y-46514399D01*
X177144253Y-46499557D01*
X177258761Y-46479036D01*
X177371283Y-46452982D01*
X177481671Y-46421543D01*
X177589777Y-46384866D01*
X177695453Y-46343101D01*
X177798552Y-46296394D01*
X177898926Y-46244893D01*
X177996427Y-46188746D01*
X178090908Y-46128101D01*
X178182220Y-46063106D01*
X178270215Y-45993907D01*
X178354747Y-45920654D01*
X178435667Y-45843493D01*
X178512828Y-45762573D01*
X178586081Y-45678042D01*
X178655280Y-45590046D01*
X178720275Y-45498734D01*
X178780920Y-45404254D01*
X178837067Y-45306753D01*
X178888568Y-45206379D01*
X178935275Y-45103280D01*
X178977041Y-44997604D01*
X179013717Y-44889498D01*
X179045156Y-44779110D01*
X179071210Y-44666589D01*
X179091732Y-44552081D01*
X179106573Y-44435734D01*
X179115586Y-44317696D01*
X179118623Y-44198116D01*
X179115586Y-44078536D01*
X179106573Y-43960498D01*
X179091732Y-43844152D01*
X179071210Y-43729643D01*
X179045156Y-43617122D01*
X179013717Y-43506734D01*
X178977041Y-43398628D01*
X178935275Y-43292952D01*
X178888568Y-43189853D01*
X178837067Y-43089479D01*
X178780920Y-42991978D01*
X178720275Y-42897498D01*
X178655279Y-42806186D01*
X178586081Y-42718191D01*
X178512827Y-42633659D01*
X178435666Y-42552739D01*
X178354746Y-42475578D01*
X178270214Y-42402325D01*
X178182219Y-42333126D01*
X178090907Y-42268131D01*
X177996426Y-42207486D01*
X177898925Y-42151339D01*
X177798552Y-42099838D01*
X177695453Y-42053131D01*
X177589776Y-42011366D01*
X177481670Y-41974689D01*
X177371283Y-41943250D01*
X177258761Y-41917196D01*
X177144253Y-41896675D01*
X177027906Y-41881833D01*
X176909869Y-41872820D01*
X176790289Y-41869783D01*
X176670708Y-41872820D01*
X176552671Y-41881833D01*
X176436324Y-41896675D01*
X176321816Y-41917196D01*
X176209294Y-41943250D01*
X176098906Y-41974689D01*
X175990801Y-42011366D01*
X175885124Y-42053131D01*
X175782025Y-42099838D01*
X175681652Y-42151339D01*
X175584151Y-42207486D01*
X175489671Y-42268131D01*
X175398359Y-42333126D01*
X175310363Y-42402325D01*
X175225831Y-42475578D01*
X175144911Y-42552739D01*
X175067751Y-42633659D01*
X174994497Y-42718190D01*
X174925299Y-42806186D01*
X174860303Y-42897498D01*
X174799658Y-42991978D01*
X174743511Y-43089479D01*
X174692011Y-43189853D01*
X174645304Y-43292952D01*
X174603538Y-43398628D01*
X174566862Y-43506734D01*
X174535423Y-43617121D01*
X174509369Y-43729643D01*
X174488847Y-43844151D01*
X174474006Y-43960498D01*
X174464993Y-44078536D01*
X174461956Y-44198116D01*
X173826955Y-44198116D01*
X173830815Y-44045521D01*
X173842271Y-43894940D01*
X173861135Y-43746560D01*
X173887220Y-43600566D01*
X173920340Y-43457143D01*
X173960308Y-43316478D01*
X174006936Y-43178755D01*
X174060037Y-43044161D01*
X174119424Y-42912880D01*
X174184912Y-42785098D01*
X174256311Y-42661002D01*
X174333436Y-42540775D01*
X174416099Y-42424605D01*
X174504114Y-42312676D01*
X174597293Y-42205175D01*
X174695450Y-42102285D01*
X174798397Y-42004194D01*
X174905948Y-41911087D01*
X175017914Y-41823149D01*
X175134111Y-41740566D01*
X175254349Y-41663523D01*
X175378443Y-41592206D01*
X175506206Y-41526801D01*
X175637449Y-41467492D01*
X175771987Y-41414466D01*
X175909633Y-41367908D01*
X176050199Y-41328004D01*
X176193498Y-41294939D01*
X176339344Y-41268899D01*
X176487549Y-41250069D01*
X176637926Y-41238635D01*
X176790289Y-41234783D01*
X176942884Y-41238643D01*
G37*
G36*
X168445330Y-46756637D02*
G01*
X168445330Y-50566637D01*
X163547892Y-50566637D01*
X163521760Y-50565975D01*
X163495969Y-50564013D01*
X163470553Y-50560781D01*
X163445542Y-50556312D01*
X163420970Y-50550637D01*
X163396867Y-50543789D01*
X163373266Y-50535800D01*
X163350199Y-50526701D01*
X163327698Y-50516525D01*
X163305795Y-50505303D01*
X163284521Y-50493068D01*
X163263910Y-50479852D01*
X163243992Y-50465685D01*
X163224800Y-50450601D01*
X163206365Y-50434632D01*
X163188721Y-50417809D01*
X163171898Y-50400164D01*
X163155928Y-50381730D01*
X163140844Y-50362538D01*
X163126678Y-50342620D01*
X163113461Y-50322008D01*
X163101226Y-50300735D01*
X163090004Y-50278832D01*
X163079828Y-50256331D01*
X163070729Y-50233264D01*
X163062740Y-50209663D01*
X163055892Y-50185560D01*
X163050217Y-50160988D01*
X163045748Y-50135977D01*
X163042516Y-50110561D01*
X163040554Y-50084770D01*
X163039893Y-50058637D01*
X163039893Y-45896742D01*
X163674893Y-45896742D01*
X163674893Y-49704096D01*
X163675185Y-49715689D01*
X163676053Y-49727144D01*
X163677482Y-49738445D01*
X163679461Y-49749576D01*
X163681974Y-49760523D01*
X163685008Y-49771272D01*
X163688550Y-49781806D01*
X163692587Y-49792111D01*
X163697103Y-49802172D01*
X163702087Y-49811973D01*
X163707525Y-49821501D01*
X163713402Y-49830739D01*
X163719705Y-49839673D01*
X163726422Y-49848288D01*
X163733537Y-49856568D01*
X163741039Y-49864499D01*
X163748912Y-49872066D01*
X163757144Y-49879254D01*
X163765720Y-49886047D01*
X163774628Y-49892431D01*
X163783854Y-49898390D01*
X163793384Y-49903910D01*
X163803205Y-49908975D01*
X163813303Y-49913571D01*
X163823664Y-49917683D01*
X163834276Y-49921295D01*
X163845124Y-49924393D01*
X163856194Y-49926961D01*
X163867474Y-49928984D01*
X163878950Y-49930448D01*
X163890608Y-49931338D01*
X163902434Y-49931637D01*
X167812976Y-49931637D01*
X167812976Y-45896742D01*
X163674893Y-45896742D01*
X163039893Y-45896742D01*
X163039893Y-45261741D01*
X167810330Y-45261741D01*
X167810330Y-42118491D01*
X168442684Y-42118491D01*
X168442684Y-46116345D01*
X172580767Y-46116345D01*
X172580767Y-42118491D01*
X168442684Y-42118491D01*
X167810330Y-42118491D01*
X167810330Y-41486138D01*
X173215767Y-41486138D01*
X173215767Y-46756637D01*
X168445330Y-46756637D01*
G37*
G36*
X179264143Y-48288575D02*
G01*
X176695037Y-48288575D01*
X176718851Y-48119241D01*
X179285308Y-48119241D01*
X179264143Y-48288575D01*
G37*
G36*
X176790287Y-41869783D02*
G01*
X176670706Y-41872820D01*
X176552669Y-41881833D01*
X176436322Y-41896675D01*
X176321814Y-41917196D01*
X176209292Y-41943250D01*
X176098905Y-41974689D01*
X175990799Y-42011366D01*
X175885122Y-42053131D01*
X175782024Y-42099838D01*
X175681650Y-42151339D01*
X175584149Y-42207486D01*
X175489669Y-42268131D01*
X175398357Y-42333126D01*
X175310361Y-42402325D01*
X175225829Y-42475578D01*
X175144909Y-42552739D01*
X175067749Y-42633659D01*
X174994495Y-42718191D01*
X174925297Y-42806186D01*
X174860301Y-42897498D01*
X174799656Y-42991978D01*
X174743510Y-43089479D01*
X174692009Y-43189853D01*
X174645302Y-43292952D01*
X174603536Y-43398628D01*
X174566860Y-43506734D01*
X174535421Y-43617122D01*
X174509367Y-43729643D01*
X174488845Y-43844152D01*
X174474004Y-43960498D01*
X174464991Y-44078536D01*
X174461954Y-44198116D01*
X174464991Y-44317696D01*
X174474004Y-44435734D01*
X174488845Y-44552081D01*
X174509367Y-44666589D01*
X174535421Y-44779110D01*
X174566860Y-44889498D01*
X174603536Y-44997604D01*
X174645301Y-45103280D01*
X174692008Y-45206379D01*
X174743509Y-45306753D01*
X174799656Y-45404254D01*
X174860301Y-45498734D01*
X174925297Y-45590046D01*
X174994495Y-45678042D01*
X175067748Y-45762573D01*
X175144909Y-45843493D01*
X175225829Y-45920654D01*
X175310360Y-45993907D01*
X175398356Y-46063106D01*
X175489668Y-46128101D01*
X175584148Y-46188746D01*
X175681649Y-46244893D01*
X175782023Y-46296394D01*
X175885122Y-46343101D01*
X175990798Y-46384866D01*
X176098904Y-46421543D01*
X176209292Y-46452982D01*
X176321813Y-46479036D01*
X176436322Y-46499557D01*
X176552668Y-46514399D01*
X176670706Y-46523412D01*
X176790287Y-46526449D01*
X176909867Y-46523412D01*
X177027905Y-46514399D01*
X177144251Y-46499557D01*
X177258760Y-46479036D01*
X177371281Y-46452982D01*
X177481669Y-46421543D01*
X177589775Y-46384866D01*
X177695451Y-46343101D01*
X177798550Y-46296394D01*
X177898924Y-46244893D01*
X177996425Y-46188746D01*
X178090905Y-46128101D01*
X178182217Y-46063106D01*
X178270213Y-45993907D01*
X178354744Y-45920654D01*
X178435664Y-45843493D01*
X178512825Y-45762573D01*
X178586078Y-45678042D01*
X178655276Y-45590046D01*
X178720272Y-45498734D01*
X178780917Y-45404254D01*
X178837064Y-45306753D01*
X178888565Y-45206379D01*
X178935272Y-45103280D01*
X178977037Y-44997604D01*
X179013713Y-44889498D01*
X179045152Y-44779110D01*
X179071206Y-44666589D01*
X179091728Y-44552081D01*
X179106569Y-44435734D01*
X179115582Y-44317696D01*
X179118620Y-44198116D01*
X179753620Y-44198116D01*
X179749760Y-44350711D01*
X179738304Y-44501292D01*
X179719440Y-44649672D01*
X179693355Y-44795666D01*
X179660235Y-44939089D01*
X179620267Y-45079754D01*
X179573640Y-45217477D01*
X179520538Y-45352071D01*
X179461151Y-45483352D01*
X179395663Y-45611134D01*
X179324264Y-45735230D01*
X179247139Y-45855457D01*
X179164475Y-45971627D01*
X179076461Y-46083556D01*
X178983281Y-46191057D01*
X178885125Y-46293947D01*
X178782178Y-46392038D01*
X178674627Y-46485145D01*
X178562660Y-46573083D01*
X178446464Y-46655666D01*
X178326226Y-46732709D01*
X178202132Y-46804026D01*
X178074369Y-46869431D01*
X177943125Y-46928740D01*
X177808587Y-46981766D01*
X177670942Y-47028324D01*
X177530376Y-47068228D01*
X177387077Y-47101293D01*
X177241231Y-47127333D01*
X177093026Y-47146163D01*
X176942649Y-47157597D01*
X176790287Y-47161449D01*
X176637691Y-47157589D01*
X176487111Y-47146134D01*
X176338730Y-47127270D01*
X176192736Y-47101184D01*
X176049314Y-47068064D01*
X175908648Y-47028097D01*
X175770926Y-46981469D01*
X175636331Y-46928368D01*
X175505050Y-46868980D01*
X175377269Y-46803493D01*
X175253172Y-46732094D01*
X175132946Y-46654969D01*
X175016775Y-46572305D01*
X174904847Y-46484290D01*
X174797345Y-46391111D01*
X174694456Y-46292955D01*
X174596365Y-46190007D01*
X174503258Y-46082457D01*
X174415320Y-45970490D01*
X174332736Y-45854294D01*
X174255693Y-45734055D01*
X174184377Y-45609961D01*
X174118971Y-45482199D01*
X174059663Y-45350955D01*
X174006637Y-45216417D01*
X173960079Y-45078772D01*
X173920175Y-44938206D01*
X173887110Y-44794907D01*
X173861070Y-44649061D01*
X173842240Y-44500856D01*
X173830806Y-44350479D01*
X173826954Y-44198116D01*
X173830814Y-44045521D01*
X173842269Y-43894940D01*
X173861133Y-43746560D01*
X173887219Y-43600566D01*
X173920338Y-43457144D01*
X173960306Y-43316478D01*
X174006934Y-43178756D01*
X174060035Y-43044161D01*
X174119423Y-42912880D01*
X174184910Y-42785099D01*
X174256309Y-42661002D01*
X174333434Y-42540776D01*
X174416097Y-42424606D01*
X174504112Y-42312677D01*
X174597292Y-42205175D01*
X174695448Y-42102286D01*
X174798395Y-42004195D01*
X174905946Y-41911088D01*
X175017912Y-41823150D01*
X175134109Y-41740566D01*
X175254347Y-41663524D01*
X175378441Y-41592207D01*
X175506204Y-41526801D01*
X175637447Y-41467493D01*
X175771986Y-41414467D01*
X175909631Y-41367909D01*
X176050197Y-41328005D01*
X176193496Y-41294940D01*
X176339342Y-41268900D01*
X176487547Y-41250070D01*
X176637924Y-41238636D01*
X176790287Y-41234783D01*
X176790287Y-41869783D01*
G37*
G36*
X173977767Y-48095429D02*
G01*
X174274100Y-48095429D01*
X174234412Y-48391762D01*
X173938079Y-48391762D01*
X173702601Y-50098324D01*
X173699780Y-50117548D01*
X173698265Y-50135532D01*
X173697999Y-50144058D01*
X173698060Y-50152275D01*
X173698450Y-50160181D01*
X173699169Y-50167778D01*
X173700218Y-50175064D01*
X173701596Y-50182041D01*
X173703305Y-50188707D01*
X173705345Y-50195063D01*
X173707716Y-50201109D01*
X173710419Y-50206845D01*
X173713454Y-50212271D01*
X173716822Y-50217387D01*
X173720523Y-50222193D01*
X173724559Y-50226689D01*
X173728928Y-50230874D01*
X173733632Y-50234750D01*
X173738672Y-50238316D01*
X173744047Y-50241571D01*
X173749759Y-50244517D01*
X173755807Y-50247152D01*
X173762192Y-50249478D01*
X173768915Y-50251493D01*
X173775976Y-50253198D01*
X173783376Y-50254594D01*
X173791115Y-50255679D01*
X173799194Y-50256454D01*
X173807612Y-50256919D01*
X173816372Y-50257074D01*
X173975121Y-50257074D01*
X173935433Y-50553407D01*
X173776683Y-50553407D01*
X173751320Y-50552943D01*
X173726821Y-50551552D01*
X173703182Y-50549239D01*
X173680400Y-50546007D01*
X173658471Y-50541861D01*
X173637390Y-50536804D01*
X173617154Y-50530840D01*
X173597759Y-50523972D01*
X173579202Y-50516206D01*
X173561477Y-50507544D01*
X173544582Y-50497991D01*
X173528513Y-50487551D01*
X173513265Y-50476227D01*
X173498835Y-50464023D01*
X173485219Y-50450943D01*
X173472413Y-50436991D01*
X173460537Y-50422171D01*
X173449716Y-50406487D01*
X173439949Y-50389942D01*
X173431237Y-50372540D01*
X173423578Y-50354286D01*
X173416974Y-50335183D01*
X173411424Y-50315236D01*
X173406928Y-50294447D01*
X173403486Y-50272821D01*
X173401099Y-50250362D01*
X173399765Y-50227073D01*
X173399486Y-50202959D01*
X173400261Y-50178023D01*
X173402091Y-50152270D01*
X173404974Y-50125702D01*
X173408912Y-50098324D01*
X173647037Y-48391762D01*
X173459183Y-48391762D01*
X173498871Y-48095429D01*
X173681433Y-48095429D01*
X173869287Y-47595367D01*
X174051850Y-47595367D01*
X173977767Y-48095429D01*
G37*
G36*
X172898330Y-48090541D02*
G01*
X172921350Y-48091755D01*
X172943525Y-48093782D01*
X172964866Y-48096628D01*
X172985387Y-48100295D01*
X173005097Y-48104788D01*
X173024008Y-48110110D01*
X173042133Y-48116265D01*
X173059483Y-48123258D01*
X173076069Y-48131091D01*
X173091903Y-48139770D01*
X173106997Y-48149297D01*
X173121363Y-48159677D01*
X173135011Y-48170913D01*
X173147954Y-48183010D01*
X173160204Y-48195971D01*
X173171584Y-48209272D01*
X173181913Y-48223375D01*
X173191196Y-48238277D01*
X173199437Y-48253973D01*
X173206639Y-48270460D01*
X173212806Y-48287733D01*
X173217942Y-48305790D01*
X173222051Y-48324625D01*
X173225137Y-48344236D01*
X173227203Y-48364617D01*
X173228254Y-48385767D01*
X173228293Y-48407679D01*
X173227325Y-48430352D01*
X173225353Y-48453780D01*
X173222381Y-48477960D01*
X173218413Y-48502887D01*
X173148586Y-48963226D01*
X173149622Y-48963263D01*
X173091413Y-49354847D01*
X172564891Y-49354847D01*
X172456413Y-50106263D01*
X172455304Y-50116030D01*
X172454459Y-50125486D01*
X172453878Y-50134633D01*
X172453560Y-50143470D01*
X172453506Y-50151996D01*
X172453715Y-50160213D01*
X172454188Y-50168119D01*
X172454924Y-50175716D01*
X172455924Y-50183002D01*
X172457188Y-50189978D01*
X172458715Y-50196645D01*
X172460505Y-50203001D01*
X172462560Y-50209047D01*
X172464877Y-50214783D01*
X172467458Y-50220209D01*
X172470303Y-50225325D01*
X172473412Y-50230131D01*
X172476783Y-50234627D01*
X172480419Y-50238813D01*
X172484318Y-50242688D01*
X172488480Y-50246254D01*
X172492907Y-50249510D01*
X172497596Y-50252455D01*
X172502549Y-50255091D01*
X172507766Y-50257416D01*
X172513247Y-50259431D01*
X172518990Y-50261137D01*
X172524998Y-50262532D01*
X172531269Y-50263617D01*
X172537803Y-50264392D01*
X172544601Y-50264857D01*
X172551663Y-50265012D01*
X172558756Y-50264857D01*
X172565648Y-50264392D01*
X172572340Y-50263617D01*
X172578834Y-50262532D01*
X172585131Y-50261137D01*
X172591230Y-50259432D01*
X172597134Y-50257416D01*
X172602843Y-50255091D01*
X172608359Y-50252455D01*
X172613681Y-50249510D01*
X172618812Y-50246254D01*
X172623751Y-50242689D01*
X172628501Y-50238813D01*
X172633062Y-50234627D01*
X172637435Y-50230131D01*
X172641621Y-50225325D01*
X172645621Y-50220209D01*
X172649436Y-50214783D01*
X172656514Y-50203001D01*
X172662864Y-50189979D01*
X172668493Y-50175716D01*
X172673408Y-50160213D01*
X172677619Y-50143470D01*
X172681131Y-50125487D01*
X172683954Y-50106263D01*
X172760684Y-49582389D01*
X173057017Y-49582389D01*
X172980287Y-50106263D01*
X172975976Y-50133640D01*
X172970975Y-50160208D01*
X172965276Y-50185961D01*
X172958872Y-50210897D01*
X172951755Y-50235011D01*
X172943917Y-50258300D01*
X172935350Y-50280759D01*
X172926047Y-50302385D01*
X172916000Y-50323174D01*
X172905201Y-50343122D01*
X172893642Y-50362225D01*
X172881316Y-50380479D01*
X172868215Y-50397880D01*
X172854331Y-50414425D01*
X172839656Y-50430110D01*
X172824183Y-50444930D01*
X172808060Y-50458882D01*
X172791441Y-50471961D01*
X172774326Y-50484165D01*
X172756714Y-50495489D01*
X172738607Y-50505930D01*
X172720004Y-50515483D01*
X172700904Y-50524144D01*
X172681308Y-50531911D01*
X172661216Y-50538778D01*
X172640628Y-50544742D01*
X172619544Y-50549799D01*
X172597964Y-50553946D01*
X172575888Y-50557177D01*
X172553316Y-50559491D01*
X172530247Y-50560881D01*
X172506683Y-50561346D01*
X172482806Y-50560912D01*
X172459786Y-50559609D01*
X172437611Y-50557439D01*
X172416270Y-50554400D01*
X172395750Y-50550494D01*
X172376040Y-50545719D01*
X172357128Y-50540076D01*
X172339003Y-50533565D01*
X172321653Y-50526185D01*
X172305067Y-50517938D01*
X172289233Y-50508822D01*
X172274139Y-50498838D01*
X172259773Y-50487986D01*
X172246125Y-50476266D01*
X172233182Y-50463677D01*
X172220933Y-50450221D01*
X172209988Y-50435928D01*
X172199978Y-50420832D01*
X172190905Y-50404939D01*
X172182775Y-50388250D01*
X172175590Y-50370771D01*
X172169354Y-50352506D01*
X172164072Y-50333457D01*
X172159747Y-50313630D01*
X172156384Y-50293027D01*
X172153985Y-50271653D01*
X172152556Y-50249511D01*
X172152099Y-50226607D01*
X172152619Y-50202942D01*
X172154120Y-50178522D01*
X172156605Y-50153350D01*
X172160079Y-50127430D01*
X172317452Y-49055867D01*
X172609871Y-49055867D01*
X172837413Y-49055867D01*
X172853288Y-48952679D01*
X172856213Y-48952783D01*
X172924726Y-48521409D01*
X172926525Y-48512634D01*
X172927956Y-48504169D01*
X172929023Y-48496015D01*
X172929729Y-48488170D01*
X172930078Y-48480636D01*
X172930075Y-48473411D01*
X172929723Y-48466497D01*
X172929026Y-48459893D01*
X172927988Y-48453599D01*
X172926613Y-48447615D01*
X172924904Y-48441941D01*
X172922866Y-48436577D01*
X172920502Y-48431523D01*
X172917817Y-48426779D01*
X172914814Y-48422345D01*
X172911497Y-48418221D01*
X172907961Y-48414377D01*
X172904293Y-48410780D01*
X172900486Y-48407431D01*
X172896532Y-48404331D01*
X172892422Y-48401478D01*
X172888150Y-48398874D01*
X172883707Y-48396518D01*
X172879086Y-48394409D01*
X172874279Y-48392549D01*
X172869278Y-48390936D01*
X172864075Y-48389572D01*
X172858663Y-48388456D01*
X172853034Y-48387588D01*
X172847181Y-48386968D01*
X172841094Y-48386595D01*
X172834768Y-48386471D01*
X172827908Y-48386603D01*
X172821218Y-48386999D01*
X172814697Y-48387657D01*
X172808346Y-48388580D01*
X172802163Y-48389766D01*
X172796148Y-48391215D01*
X172790301Y-48392928D01*
X172784621Y-48394905D01*
X172779108Y-48397145D01*
X172773760Y-48399649D01*
X172768579Y-48402416D01*
X172763563Y-48405447D01*
X172758711Y-48408741D01*
X172754024Y-48412299D01*
X172749500Y-48416121D01*
X172745140Y-48420206D01*
X172740942Y-48424554D01*
X172736907Y-48429166D01*
X172733034Y-48434042D01*
X172729322Y-48439181D01*
X172725770Y-48444584D01*
X172722380Y-48450250D01*
X172716077Y-48462374D01*
X172710410Y-48475551D01*
X172705375Y-48489783D01*
X172700967Y-48505069D01*
X172697184Y-48521409D01*
X172609871Y-49055867D01*
X172317452Y-49055867D01*
X172395557Y-48524054D01*
X172400364Y-48497698D01*
X172405856Y-48472202D01*
X172412039Y-48447559D01*
X172418915Y-48423760D01*
X172426489Y-48400799D01*
X172434764Y-48378667D01*
X172443745Y-48357357D01*
X172453435Y-48336861D01*
X172463838Y-48317171D01*
X172474958Y-48298279D01*
X172486799Y-48280178D01*
X172499365Y-48262860D01*
X172512659Y-48246317D01*
X172526686Y-48230542D01*
X172541450Y-48215526D01*
X172556953Y-48201262D01*
X172573076Y-48187806D01*
X172589695Y-48175217D01*
X172606811Y-48163497D01*
X172624422Y-48152645D01*
X172642530Y-48142661D01*
X172661133Y-48133545D01*
X172680233Y-48125298D01*
X172699828Y-48117918D01*
X172719920Y-48111407D01*
X172740508Y-48105764D01*
X172761592Y-48100989D01*
X172783172Y-48097083D01*
X172805248Y-48094044D01*
X172827820Y-48091874D01*
X172850889Y-48090571D01*
X172874453Y-48090137D01*
X172898330Y-48090541D01*
G37*
G36*
X171771142Y-50553408D02*
G01*
X171474808Y-50553408D01*
X171924600Y-47320200D01*
X172220934Y-47320200D01*
X171771142Y-50553408D01*
G37*
D11*
X88681766Y-52964633D02*
X88848433Y-52964633D01*
X88781766Y-53131300D02*
X88848433Y-52964633D01*
X88781766Y-52797966D01*
X88981766Y-53064633D02*
X88848433Y-52964633D01*
X88981766Y-52864633D01*
X89015100Y-52297966D02*
X89015100Y-52531300D01*
X89381766Y-52531300D02*
X88681766Y-52531300D01*
X88681766Y-52197966D01*
X88681766Y-51797966D02*
X88681766Y-51664633D01*
X88715100Y-51597966D01*
X88781766Y-51531300D01*
X88915100Y-51497966D01*
X89148433Y-51497966D01*
X89281766Y-51531300D01*
X89348433Y-51597966D01*
X89381766Y-51664633D01*
X89381766Y-51797966D01*
X89348433Y-51864633D01*
X89281766Y-51931300D01*
X89148433Y-51964633D01*
X88915100Y-51964633D01*
X88781766Y-51931300D01*
X88715100Y-51864633D01*
X88681766Y-51797966D01*
X89381766Y-50797966D02*
X89048433Y-51031300D01*
X89381766Y-51197966D02*
X88681766Y-51197966D01*
X88681766Y-50931300D01*
X88715100Y-50864633D01*
X88748433Y-50831300D01*
X88815100Y-50797966D01*
X88915100Y-50797966D01*
X88981766Y-50831300D01*
X89015100Y-50864633D01*
X89048433Y-50931300D01*
X89048433Y-51197966D01*
X89015100Y-49731300D02*
X89048433Y-49631300D01*
X89081766Y-49597966D01*
X89148433Y-49564633D01*
X89248433Y-49564633D01*
X89315100Y-49597966D01*
X89348433Y-49631300D01*
X89381766Y-49697966D01*
X89381766Y-49964633D01*
X88681766Y-49964633D01*
X88681766Y-49731300D01*
X88715100Y-49664633D01*
X88748433Y-49631300D01*
X88815100Y-49597966D01*
X88881766Y-49597966D01*
X88948433Y-49631300D01*
X88981766Y-49664633D01*
X89015100Y-49731300D01*
X89015100Y-49964633D01*
X89381766Y-48931300D02*
X89381766Y-49264633D01*
X88681766Y-49264633D01*
X89015100Y-48697966D02*
X89015100Y-48464633D01*
X89381766Y-48364633D02*
X89381766Y-48697966D01*
X88681766Y-48697966D01*
X88681766Y-48364633D01*
X89381766Y-47531300D02*
X88681766Y-47531300D01*
X89181766Y-47297966D01*
X88681766Y-47064633D01*
X89381766Y-47064633D01*
X89381766Y-46731300D02*
X88681766Y-46731300D01*
X89315100Y-45997966D02*
X89348433Y-46031300D01*
X89381766Y-46131300D01*
X89381766Y-46197966D01*
X89348433Y-46297966D01*
X89281766Y-46364633D01*
X89215100Y-46397966D01*
X89081766Y-46431300D01*
X88981766Y-46431300D01*
X88848433Y-46397966D01*
X88781766Y-46364633D01*
X88715100Y-46297966D01*
X88681766Y-46197966D01*
X88681766Y-46131300D01*
X88715100Y-46031300D01*
X88748433Y-45997966D01*
X89381766Y-45297966D02*
X89048433Y-45531300D01*
X89381766Y-45697966D02*
X88681766Y-45697966D01*
X88681766Y-45431300D01*
X88715100Y-45364633D01*
X88748433Y-45331300D01*
X88815100Y-45297966D01*
X88915100Y-45297966D01*
X88981766Y-45331300D01*
X89015100Y-45364633D01*
X89048433Y-45431300D01*
X89048433Y-45697966D01*
X88681766Y-44864633D02*
X88681766Y-44731300D01*
X88715100Y-44664633D01*
X88781766Y-44597966D01*
X88915100Y-44564633D01*
X89148433Y-44564633D01*
X89281766Y-44597966D01*
X89348433Y-44664633D01*
X89381766Y-44731300D01*
X89381766Y-44864633D01*
X89348433Y-44931300D01*
X89281766Y-44997966D01*
X89148433Y-45031300D01*
X88915100Y-45031300D01*
X88781766Y-44997966D01*
X88715100Y-44931300D01*
X88681766Y-44864633D01*
X89381766Y-43731300D02*
X88681766Y-43731300D01*
X88681766Y-43464633D01*
X88715100Y-43397966D01*
X88748433Y-43364633D01*
X88815100Y-43331300D01*
X88915100Y-43331300D01*
X88981766Y-43364633D01*
X89015100Y-43397966D01*
X89048433Y-43464633D01*
X89048433Y-43731300D01*
X89381766Y-42631300D02*
X89048433Y-42864633D01*
X89381766Y-43031300D02*
X88681766Y-43031300D01*
X88681766Y-42764633D01*
X88715100Y-42697966D01*
X88748433Y-42664633D01*
X88815100Y-42631300D01*
X88915100Y-42631300D01*
X88981766Y-42664633D01*
X89015100Y-42697966D01*
X89048433Y-42764633D01*
X89048433Y-43031300D01*
X88681766Y-42197966D02*
X88681766Y-42064633D01*
X88715100Y-41997966D01*
X88781766Y-41931300D01*
X88915100Y-41897966D01*
X89148433Y-41897966D01*
X89281766Y-41931300D01*
X89348433Y-41997966D01*
X89381766Y-42064633D01*
X89381766Y-42197966D01*
X89348433Y-42264633D01*
X89281766Y-42331300D01*
X89148433Y-42364633D01*
X88915100Y-42364633D01*
X88781766Y-42331300D01*
X88715100Y-42264633D01*
X88681766Y-42197966D01*
X88681766Y-41497966D02*
X88848433Y-41497966D01*
X88781766Y-41664633D02*
X88848433Y-41497966D01*
X88781766Y-41331300D01*
X88981766Y-41597966D02*
X88848433Y-41497966D01*
X88981766Y-41397966D01*
D12*
X90297000Y-41148000D02*
X90297000Y-53721000D01*
X87884000Y-41021000D02*
X90297000Y-41021000D01*
X90424000Y-56261000D02*
X87750000Y-56250000D01*
X87884000Y-41148000D02*
X87884000Y-53721000D01*
X90424000Y-38354000D02*
X90424000Y-56261000D01*
X87757000Y-38354000D02*
X90424000Y-38354000D01*
X87884000Y-53721000D02*
X90297000Y-53721000D01*
X87750000Y-56250000D02*
X87757000Y-38354000D01*
D11*
X123100000Y-71750000D02*
X123600000Y-70850000D01*
X123600000Y-70850000D02*
X122600000Y-70850000D01*
X122600000Y-70850000D02*
X123100000Y-71750000D01*
X123600000Y-71850000D02*
X122600000Y-71850000D01*
X123850000Y-68650000D02*
X123850000Y-74300000D01*
X123850000Y-74050000D02*
X122350000Y-74050000D01*
X122350000Y-74300000D02*
X122350000Y-68650000D01*
X122350000Y-68650000D02*
X123850000Y-68650000D01*
X123850000Y-74160000D02*
X122350000Y-74160000D01*
X123840000Y-74300000D02*
X122350000Y-74300000D01*
X163000000Y-119025000D02*
X163500000Y-118125000D01*
X163500000Y-118125000D02*
X162500000Y-118125000D01*
X162500000Y-118125000D02*
X163000000Y-119025000D01*
X163500000Y-119125000D02*
X162500000Y-119125000D01*
X163750000Y-115925000D02*
X163750000Y-121575000D01*
X163750000Y-121325000D02*
X162250000Y-121325000D01*
X162250000Y-121575000D02*
X162250000Y-115925000D01*
X162250000Y-115925000D02*
X163750000Y-115925000D01*
X163750000Y-121435000D02*
X162250000Y-121435000D01*
X163740000Y-121575000D02*
X162250000Y-121575000D01*
X160750000Y-91550000D02*
X161250000Y-90650000D01*
X161250000Y-90650000D02*
X160250000Y-90650000D01*
X160250000Y-90650000D02*
X160750000Y-91550000D01*
X161250000Y-91650000D02*
X160250000Y-91650000D01*
X161500000Y-88450000D02*
X161500000Y-94100000D01*
X161500000Y-93850000D02*
X160000000Y-93850000D01*
X160000000Y-94100000D02*
X160000000Y-88450000D01*
X160000000Y-88450000D02*
X161500000Y-88450000D01*
X161500000Y-93960000D02*
X160000000Y-93960000D01*
X161490000Y-94100000D02*
X160000000Y-94100000D01*
X160950000Y-81250000D02*
X161450000Y-80350000D01*
X161450000Y-80350000D02*
X160450000Y-80350000D01*
X160450000Y-80350000D02*
X160950000Y-81250000D01*
X161450000Y-81350000D02*
X160450000Y-81350000D01*
X161700000Y-78150000D02*
X161700000Y-83800000D01*
X161700000Y-83550000D02*
X160200000Y-83550000D01*
X160200000Y-83800000D02*
X160200000Y-78150000D01*
X160200000Y-78150000D02*
X161700000Y-78150000D01*
X161700000Y-83660000D02*
X160200000Y-83660000D01*
X161690000Y-83800000D02*
X160200000Y-83800000D01*
X160750000Y-119025000D02*
X161250000Y-118125000D01*
X161250000Y-118125000D02*
X160250000Y-118125000D01*
X160250000Y-118125000D02*
X160750000Y-119025000D01*
X161250000Y-119125000D02*
X160250000Y-119125000D01*
X161500000Y-115925000D02*
X161500000Y-121575000D01*
X161500000Y-121325000D02*
X160000000Y-121325000D01*
X160000000Y-121575000D02*
X160000000Y-115925000D01*
X160000000Y-115925000D02*
X161500000Y-115925000D01*
X161500000Y-121435000D02*
X160000000Y-121435000D01*
X161490000Y-121575000D02*
X160000000Y-121575000D01*
X141859000Y-90468400D02*
X142359000Y-89568400D01*
X142359000Y-89568400D02*
X141359000Y-89568400D01*
X141359000Y-89568400D02*
X141859000Y-90468400D01*
X142359000Y-90568400D02*
X141359000Y-90568400D01*
X142609000Y-87368400D02*
X142609000Y-93018400D01*
X142609000Y-92768400D02*
X141109000Y-92768400D01*
X141109000Y-93018400D02*
X141109000Y-87368400D01*
X141109000Y-87368400D02*
X142609000Y-87368400D01*
X142609000Y-92878400D02*
X141109000Y-92878400D01*
X142599000Y-93018400D02*
X141109000Y-93018400D01*
X141950000Y-71850000D02*
X142450000Y-70950000D01*
X142450000Y-70950000D02*
X141450000Y-70950000D01*
X141450000Y-70950000D02*
X141950000Y-71850000D01*
X142450000Y-71950000D02*
X141450000Y-71950000D01*
X142700000Y-68750000D02*
X142700000Y-74400000D01*
X142700000Y-74150000D02*
X141200000Y-74150000D01*
X141200000Y-74400000D02*
X141200000Y-68750000D01*
X141200000Y-68750000D02*
X142700000Y-68750000D01*
X142700000Y-74260000D02*
X141200000Y-74260000D01*
X142690000Y-74400000D02*
X141200000Y-74400000D01*
X163450000Y-91550000D02*
X163950000Y-90650000D01*
X163950000Y-90650000D02*
X162950000Y-90650000D01*
X162950000Y-90650000D02*
X163450000Y-91550000D01*
X163950000Y-91650000D02*
X162950000Y-91650000D01*
X164200000Y-88450000D02*
X164200000Y-94100000D01*
X164200000Y-93850000D02*
X162700000Y-93850000D01*
X162700000Y-94100000D02*
X162700000Y-88450000D01*
X162700000Y-88450000D02*
X164200000Y-88450000D01*
X164200000Y-93960000D02*
X162700000Y-93960000D01*
X164190000Y-94100000D02*
X162700000Y-94100000D01*
X141950000Y-119025000D02*
X142450000Y-118125000D01*
X142450000Y-118125000D02*
X141450000Y-118125000D01*
X141450000Y-118125000D02*
X141950000Y-119025000D01*
X142450000Y-119125000D02*
X141450000Y-119125000D01*
X142700000Y-115925000D02*
X142700000Y-121575000D01*
X142700000Y-121325000D02*
X141200000Y-121325000D01*
X141200000Y-121575000D02*
X141200000Y-115925000D01*
X141200000Y-115925000D02*
X142700000Y-115925000D01*
X142700000Y-121435000D02*
X141200000Y-121435000D01*
X142690000Y-121575000D02*
X141200000Y-121575000D01*
X123037600Y-95599200D02*
X123537600Y-94699200D01*
X123537600Y-94699200D02*
X122537600Y-94699200D01*
X122537600Y-94699200D02*
X123037600Y-95599200D01*
X123537600Y-95699200D02*
X122537600Y-95699200D01*
X123787600Y-92499200D02*
X123787600Y-98149200D01*
X123787600Y-97899200D02*
X122287600Y-97899200D01*
X122287600Y-98149200D02*
X122287600Y-92499200D01*
X122287600Y-92499200D02*
X123787600Y-92499200D01*
X123787600Y-98009200D02*
X122287600Y-98009200D01*
X123777600Y-98149200D02*
X122287600Y-98149200D01*
X163500000Y-81250000D02*
X164000000Y-80350000D01*
X164000000Y-80350000D02*
X163000000Y-80350000D01*
X163000000Y-80350000D02*
X163500000Y-81250000D01*
X164000000Y-81350000D02*
X163000000Y-81350000D01*
X164250000Y-78150000D02*
X164250000Y-83800000D01*
X164250000Y-83550000D02*
X162750000Y-83550000D01*
X162750000Y-83800000D02*
X162750000Y-78150000D01*
X162750000Y-78150000D02*
X164250000Y-78150000D01*
X164250000Y-83660000D02*
X162750000Y-83660000D01*
X164240000Y-83800000D02*
X162750000Y-83800000D01*
X122631200Y-119170400D02*
X123131200Y-118270400D01*
X123131200Y-118270400D02*
X122131200Y-118270400D01*
X122131200Y-118270400D02*
X122631200Y-119170400D01*
X123131200Y-119270400D02*
X122131200Y-119270400D01*
X123381200Y-116070400D02*
X123381200Y-121720400D01*
X123381200Y-121470400D02*
X121881200Y-121470400D01*
X121881200Y-121720400D02*
X121881200Y-116070400D01*
X121881200Y-116070400D02*
X123381200Y-116070400D01*
X123381200Y-121580400D02*
X121881200Y-121580400D01*
X123371200Y-121720400D02*
X121881200Y-121720400D01*
X103900000Y-96625000D02*
X104400000Y-95725000D01*
X104400000Y-95725000D02*
X103400000Y-95725000D01*
X103400000Y-95725000D02*
X103900000Y-96625000D01*
X104400000Y-96725000D02*
X103400000Y-96725000D01*
X104650000Y-93525000D02*
X104650000Y-99175000D01*
X104650000Y-98925000D02*
X103150000Y-98925000D01*
X103150000Y-99175000D02*
X103150000Y-93525000D01*
X103150000Y-93525000D02*
X104650000Y-93525000D01*
X104650000Y-99035000D02*
X103150000Y-99035000D01*
X104640000Y-99175000D02*
X103150000Y-99175000D01*
X104050000Y-83900000D02*
X104550000Y-83000000D01*
X104550000Y-83000000D02*
X103550000Y-83000000D01*
X103550000Y-83000000D02*
X104050000Y-83900000D01*
X104550000Y-84000000D02*
X103550000Y-84000000D01*
X104800000Y-80800000D02*
X104800000Y-86450000D01*
X104800000Y-86200000D02*
X103300000Y-86200000D01*
X103300000Y-86450000D02*
X103300000Y-80800000D01*
X103300000Y-80800000D02*
X104800000Y-80800000D01*
X104800000Y-86310000D02*
X103300000Y-86310000D01*
X104790000Y-86450000D02*
X103300000Y-86450000D01*
D13*
X128304600Y-42142100D02*
X125644600Y-42142100D01*
X128304600Y-49822100D02*
X128304600Y-42142100D01*
X125644600Y-49822100D02*
X125644600Y-42142100D01*
X128304600Y-49822100D02*
X125644600Y-49822100D01*
X128304600Y-51092100D02*
X128304600Y-52422100D01*
X128304600Y-52422100D02*
X126974600Y-52422100D01*
D14*
X104870000Y-111302800D02*
G75*
G03X104870000Y-111302800I-2000000J0D01*
G01*
X182784000Y-41640000D02*
G75*
G03X182784000Y-41640000I-1000000J0D01*
G01*
X133206000Y-41640000D02*
G75*
G03X133206000Y-41640000I-1000000J0D01*
G01*
D11*
X85650000Y-47500000D02*
X85650000Y-47200000D01*
X85500000Y-47600000D02*
X85500000Y-47100000D01*
X85350000Y-47700000D02*
X85350000Y-47000000D01*
X85850000Y-47350000D02*
X85200000Y-47850000D01*
X85200000Y-46850000D02*
X85850000Y-47350000D01*
X85200000Y-47850000D02*
X85200000Y-46850000D01*
X84850000Y-43600000D02*
X84850000Y-51100000D01*
X86150000Y-43600000D02*
X84850000Y-43600000D01*
X86150000Y-51100000D02*
X86150000Y-43600000D01*
X84850000Y-51100000D02*
X86150000Y-51100000D01*
X87750000Y-56250000D02*
X88750000Y-56250000D01*
X87750000Y-38450000D02*
X88750000Y-38450000D01*
X87750000Y-56250000D02*
X87750000Y-55250000D01*
X87750000Y-38450000D02*
X87750000Y-39400000D01*
X119750000Y-56250000D02*
X120800000Y-56250000D01*
X119800000Y-38450000D02*
X120800000Y-38450000D01*
X120800000Y-56250000D02*
X120800000Y-55250000D01*
X120800000Y-38450000D02*
X120800000Y-39460000D01*
D13*
X154080800Y-38497600D02*
X154080800Y-39287600D01*
X160980800Y-39287600D02*
X160980800Y-38497600D01*
X159130800Y-40337600D02*
X157430800Y-40337600D01*
X160380800Y-37487600D02*
X154680800Y-37487600D01*
X157630800Y-36197600D02*
X157630800Y-37487600D01*
X158730800Y-35987600D02*
X157830800Y-35987600D01*
X158930800Y-37487600D02*
X158930800Y-36197600D01*
X157630800Y-36197600D02*
X157830800Y-35987600D01*
X158930800Y-36197600D02*
X158730800Y-35987600D01*
X156130800Y-40337600D02*
X155930800Y-40337600D01*
D14*
X164388800Y-111302800D02*
G75*
G03X164388800Y-111302800I-2000000J0D01*
G01*
X164388800Y-70866000D02*
G75*
G03X164388800Y-70866000I-2000000J0D01*
G01*
X104870000Y-70866000D02*
G75*
G03X104870000Y-70866000I-2000000J0D01*
G01*
D11*
X128976000Y-37874000D02*
X122976000Y-37874000D01*
X122976000Y-37874000D02*
X122976000Y-38124000D01*
X128976000Y-37874000D02*
X128976000Y-38124000D01*
X128976000Y-41374000D02*
X128976000Y-41124000D01*
X128976000Y-41374000D02*
X122976000Y-41374000D01*
X122976000Y-41374000D02*
X122976000Y-41124000D01*
D13*
X174400000Y-66100000D02*
X174400000Y-67100000D01*
X174900000Y-66600000D02*
X173900000Y-66600000D01*
X170900000Y-72700000D02*
X168500000Y-72700000D01*
X175700000Y-72700000D02*
X173100000Y-72700000D01*
X180300000Y-72700000D02*
X177900000Y-72700000D01*
X178500000Y-59400000D02*
X178200000Y-59100000D01*
X178500000Y-58800000D02*
X178500000Y-59400000D01*
X178200000Y-59100000D02*
X178500000Y-58800000D01*
X180300000Y-60500000D02*
X168500000Y-60500000D01*
X180300000Y-64600000D02*
X180300000Y-60500000D01*
X168500000Y-64600000D02*
X168500000Y-60500000D01*
X168500000Y-72700000D02*
X168500000Y-68600000D01*
X180300000Y-68600000D02*
X180300000Y-72700000D01*
X177400000Y-66600000D02*
G75*
G03X177400000Y-66600000I-3000000J0D01*
G01*
X174300000Y-89600000D02*
X174300000Y-90600000D01*
X174800000Y-90100000D02*
X173800000Y-90100000D01*
X170800000Y-96200000D02*
X168400000Y-96200000D01*
X175600000Y-96200000D02*
X173000000Y-96200000D01*
X180200000Y-96200000D02*
X177800000Y-96200000D01*
X178400000Y-82900000D02*
X178100000Y-82600000D01*
X178400000Y-82300000D02*
X178400000Y-82900000D01*
X178100000Y-82600000D02*
X178400000Y-82300000D01*
X180200000Y-84000000D02*
X168400000Y-84000000D01*
X180200000Y-88100000D02*
X180200000Y-84000000D01*
X168400000Y-88100000D02*
X168400000Y-84000000D01*
X168400000Y-96200000D02*
X168400000Y-92100000D01*
X180200000Y-92100000D02*
X180200000Y-96200000D01*
X177300000Y-90100000D02*
G75*
G03X177300000Y-90100000I-3000000J0D01*
G01*
D11*
X154444795Y-51374657D02*
X155968604Y-51374657D01*
X155206700Y-52136561D02*
X155206700Y-50612752D01*
X182867395Y-51374657D02*
X184391204Y-51374657D01*
X183629300Y-52136561D02*
X183629300Y-50612752D01*
X123937780Y-47399533D02*
X124652066Y-47399533D01*
X124794923Y-47447152D01*
X124890161Y-47542390D01*
X124937780Y-47685247D01*
X124937780Y-47780485D01*
X124271114Y-46494771D02*
X124937780Y-46494771D01*
X123890161Y-46732866D02*
X124604447Y-46970961D01*
X124604447Y-46351914D01*
D15*
X93696100Y-52862276D02*
X93660385Y-52926085D01*
X93660385Y-53021800D01*
X93696100Y-53117514D01*
X93767528Y-53181323D01*
X93838957Y-53213228D01*
X93981814Y-53245133D01*
X94088957Y-53245133D01*
X94231814Y-53213228D01*
X94303242Y-53181323D01*
X94374671Y-53117514D01*
X94410385Y-53021800D01*
X94410385Y-52957990D01*
X94374671Y-52862276D01*
X94338957Y-52830371D01*
X94088957Y-52830371D01*
X94088957Y-52957990D01*
X94410385Y-52543228D02*
X93660385Y-52543228D01*
X94410385Y-52160371D01*
X93660385Y-52160371D01*
X94410385Y-51841323D02*
X93660385Y-51841323D01*
X93660385Y-51681800D01*
X93696100Y-51586085D01*
X93767528Y-51522276D01*
X93838957Y-51490371D01*
X93981814Y-51458466D01*
X94088957Y-51458466D01*
X94231814Y-51490371D01*
X94303242Y-51522276D01*
X94374671Y-51586085D01*
X94410385Y-51681800D01*
X94410385Y-51841323D01*
X116796428Y-43586190D02*
X116832142Y-43490476D01*
X116867857Y-43458571D01*
X116939285Y-43426666D01*
X117046428Y-43426666D01*
X117117857Y-43458571D01*
X117153571Y-43490476D01*
X117189285Y-43554285D01*
X117189285Y-43809523D01*
X116439285Y-43809523D01*
X116439285Y-43586190D01*
X116475000Y-43522380D01*
X116510714Y-43490476D01*
X116582142Y-43458571D01*
X116653571Y-43458571D01*
X116725000Y-43490476D01*
X116760714Y-43522380D01*
X116796428Y-43586190D01*
X116796428Y-43809523D01*
X116689285Y-42852380D02*
X117189285Y-42852380D01*
X116403571Y-43011904D02*
X116939285Y-43171428D01*
X116939285Y-42756666D01*
X116403571Y-42022857D02*
X117367857Y-42597142D01*
X116760714Y-41703809D02*
X116725000Y-41767619D01*
X116689285Y-41799523D01*
X116617857Y-41831428D01*
X116582142Y-41831428D01*
X116510714Y-41799523D01*
X116475000Y-41767619D01*
X116439285Y-41703809D01*
X116439285Y-41576190D01*
X116475000Y-41512380D01*
X116510714Y-41480476D01*
X116582142Y-41448571D01*
X116617857Y-41448571D01*
X116689285Y-41480476D01*
X116725000Y-41512380D01*
X116760714Y-41576190D01*
X116760714Y-41703809D01*
X116796428Y-41767619D01*
X116832142Y-41799523D01*
X116903571Y-41831428D01*
X117046428Y-41831428D01*
X117117857Y-41799523D01*
X117153571Y-41767619D01*
X117189285Y-41703809D01*
X117189285Y-41576190D01*
X117153571Y-41512380D01*
X117117857Y-41480476D01*
X117046428Y-41448571D01*
X116903571Y-41448571D01*
X116832142Y-41480476D01*
X116796428Y-41512380D01*
X116760714Y-41576190D01*
X94489285Y-45013571D02*
X93739285Y-45013571D01*
X93739285Y-44854047D01*
X93775000Y-44758333D01*
X93846428Y-44694523D01*
X93917857Y-44662619D01*
X94060714Y-44630714D01*
X94167857Y-44630714D01*
X94310714Y-44662619D01*
X94382142Y-44694523D01*
X94453571Y-44758333D01*
X94489285Y-44854047D01*
X94489285Y-45013571D01*
X93810714Y-44375476D02*
X93775000Y-44343571D01*
X93739285Y-44279761D01*
X93739285Y-44120238D01*
X93775000Y-44056428D01*
X93810714Y-44024523D01*
X93882142Y-43992619D01*
X93953571Y-43992619D01*
X94060714Y-44024523D01*
X94489285Y-44407380D01*
X94489285Y-43992619D01*
X93703571Y-43226904D02*
X94667857Y-43801190D01*
X94489285Y-42620714D02*
X94132142Y-42844047D01*
X94489285Y-43003571D02*
X93739285Y-43003571D01*
X93739285Y-42748333D01*
X93775000Y-42684523D01*
X93810714Y-42652619D01*
X93882142Y-42620714D01*
X93989285Y-42620714D01*
X94060714Y-42652619D01*
X94096428Y-42684523D01*
X94132142Y-42748333D01*
X94132142Y-43003571D01*
X93739285Y-42397380D02*
X94489285Y-41950714D01*
X93739285Y-41950714D02*
X94489285Y-42397380D01*
X94489285Y-41344523D02*
X94489285Y-41727380D01*
X94489285Y-41535952D02*
X93739285Y-41535952D01*
X93846428Y-41599761D01*
X93917857Y-41663571D01*
X93953571Y-41727380D01*
X119296428Y-43586190D02*
X119332142Y-43490476D01*
X119367857Y-43458571D01*
X119439285Y-43426666D01*
X119546428Y-43426666D01*
X119617857Y-43458571D01*
X119653571Y-43490476D01*
X119689285Y-43554285D01*
X119689285Y-43809523D01*
X118939285Y-43809523D01*
X118939285Y-43586190D01*
X118975000Y-43522380D01*
X119010714Y-43490476D01*
X119082142Y-43458571D01*
X119153571Y-43458571D01*
X119225000Y-43490476D01*
X119260714Y-43522380D01*
X119296428Y-43586190D01*
X119296428Y-43809523D01*
X118939285Y-42820476D02*
X118939285Y-43139523D01*
X119296428Y-43171428D01*
X119260714Y-43139523D01*
X119225000Y-43075714D01*
X119225000Y-42916190D01*
X119260714Y-42852380D01*
X119296428Y-42820476D01*
X119367857Y-42788571D01*
X119546428Y-42788571D01*
X119617857Y-42820476D01*
X119653571Y-42852380D01*
X119689285Y-42916190D01*
X119689285Y-43075714D01*
X119653571Y-43139523D01*
X119617857Y-43171428D01*
X118903571Y-42022857D02*
X119867857Y-42597142D01*
X119689285Y-41767619D02*
X119689285Y-41640000D01*
X119653571Y-41576190D01*
X119617857Y-41544285D01*
X119510714Y-41480476D01*
X119367857Y-41448571D01*
X119082142Y-41448571D01*
X119010714Y-41480476D01*
X118975000Y-41512380D01*
X118939285Y-41576190D01*
X118939285Y-41703809D01*
X118975000Y-41767619D01*
X119010714Y-41799523D01*
X119082142Y-41831428D01*
X119260714Y-41831428D01*
X119332142Y-41799523D01*
X119367857Y-41767619D01*
X119403571Y-41703809D01*
X119403571Y-41576190D01*
X119367857Y-41512380D01*
X119332142Y-41480476D01*
X119260714Y-41448571D01*
X109467857Y-43426666D02*
X109503571Y-43458571D01*
X109539285Y-43554285D01*
X109539285Y-43618095D01*
X109503571Y-43713809D01*
X109432142Y-43777619D01*
X109360714Y-43809523D01*
X109217857Y-43841428D01*
X109110714Y-43841428D01*
X108967857Y-43809523D01*
X108896428Y-43777619D01*
X108825000Y-43713809D01*
X108789285Y-43618095D01*
X108789285Y-43554285D01*
X108825000Y-43458571D01*
X108860714Y-43426666D01*
X108789285Y-42852380D02*
X108789285Y-42980000D01*
X108825000Y-43043809D01*
X108860714Y-43075714D01*
X108967857Y-43139523D01*
X109110714Y-43171428D01*
X109396428Y-43171428D01*
X109467857Y-43139523D01*
X109503571Y-43107619D01*
X109539285Y-43043809D01*
X109539285Y-42916190D01*
X109503571Y-42852380D01*
X109467857Y-42820476D01*
X109396428Y-42788571D01*
X109217857Y-42788571D01*
X109146428Y-42820476D01*
X109110714Y-42852380D01*
X109075000Y-42916190D01*
X109075000Y-43043809D01*
X109110714Y-43107619D01*
X109146428Y-43139523D01*
X109217857Y-43171428D01*
X108753571Y-42022857D02*
X109717857Y-42597142D01*
X108789285Y-41480476D02*
X108789285Y-41799523D01*
X109146428Y-41831428D01*
X109110714Y-41799523D01*
X109075000Y-41735714D01*
X109075000Y-41576190D01*
X109110714Y-41512380D01*
X109146428Y-41480476D01*
X109217857Y-41448571D01*
X109396428Y-41448571D01*
X109467857Y-41480476D01*
X109503571Y-41512380D01*
X109539285Y-41576190D01*
X109539285Y-41735714D01*
X109503571Y-41799523D01*
X109467857Y-41831428D01*
X104453571Y-46367619D02*
X104489285Y-46271904D01*
X104489285Y-46112380D01*
X104453571Y-46048571D01*
X104417857Y-46016666D01*
X104346428Y-45984761D01*
X104275000Y-45984761D01*
X104203571Y-46016666D01*
X104167857Y-46048571D01*
X104132142Y-46112380D01*
X104096428Y-46240000D01*
X104060714Y-46303809D01*
X104025000Y-46335714D01*
X103953571Y-46367619D01*
X103882142Y-46367619D01*
X103810714Y-46335714D01*
X103775000Y-46303809D01*
X103739285Y-46240000D01*
X103739285Y-46080476D01*
X103775000Y-45984761D01*
X104417857Y-45314761D02*
X104453571Y-45346666D01*
X104489285Y-45442380D01*
X104489285Y-45506190D01*
X104453571Y-45601904D01*
X104382142Y-45665714D01*
X104310714Y-45697619D01*
X104167857Y-45729523D01*
X104060714Y-45729523D01*
X103917857Y-45697619D01*
X103846428Y-45665714D01*
X103775000Y-45601904D01*
X103739285Y-45506190D01*
X103739285Y-45442380D01*
X103775000Y-45346666D01*
X103810714Y-45314761D01*
X104489285Y-44708571D02*
X104489285Y-45027619D01*
X103739285Y-45027619D01*
X103703571Y-44006666D02*
X104667857Y-44580952D01*
X104489285Y-43783333D02*
X103739285Y-43783333D01*
X103739285Y-43623809D01*
X103775000Y-43528095D01*
X103846428Y-43464285D01*
X103917857Y-43432380D01*
X104060714Y-43400476D01*
X104167857Y-43400476D01*
X104310714Y-43432380D01*
X104382142Y-43464285D01*
X104453571Y-43528095D01*
X104489285Y-43623809D01*
X104489285Y-43783333D01*
X103739285Y-42985714D02*
X103739285Y-42921904D01*
X103775000Y-42858095D01*
X103810714Y-42826190D01*
X103882142Y-42794285D01*
X104025000Y-42762380D01*
X104203571Y-42762380D01*
X104346428Y-42794285D01*
X104417857Y-42826190D01*
X104453571Y-42858095D01*
X104489285Y-42921904D01*
X104489285Y-42985714D01*
X104453571Y-43049523D01*
X104417857Y-43081428D01*
X104346428Y-43113333D01*
X104203571Y-43145238D01*
X104025000Y-43145238D01*
X103882142Y-43113333D01*
X103810714Y-43081428D01*
X103775000Y-43049523D01*
X103739285Y-42985714D01*
X103703571Y-41996666D02*
X104667857Y-42570952D01*
X103739285Y-41837142D02*
X103739285Y-41422380D01*
X104025000Y-41645714D01*
X104025000Y-41550000D01*
X104060714Y-41486190D01*
X104096428Y-41454285D01*
X104167857Y-41422380D01*
X104346428Y-41422380D01*
X104417857Y-41454285D01*
X104453571Y-41486190D01*
X104489285Y-41550000D01*
X104489285Y-41741428D01*
X104453571Y-41805238D01*
X104417857Y-41837142D01*
X101953571Y-46383571D02*
X101989285Y-46287857D01*
X101989285Y-46128333D01*
X101953571Y-46064523D01*
X101917857Y-46032619D01*
X101846428Y-46000714D01*
X101775000Y-46000714D01*
X101703571Y-46032619D01*
X101667857Y-46064523D01*
X101632142Y-46128333D01*
X101596428Y-46255952D01*
X101560714Y-46319761D01*
X101525000Y-46351666D01*
X101453571Y-46383571D01*
X101382142Y-46383571D01*
X101310714Y-46351666D01*
X101275000Y-46319761D01*
X101239285Y-46255952D01*
X101239285Y-46096428D01*
X101275000Y-46000714D01*
X101989285Y-45713571D02*
X101239285Y-45713571D01*
X101239285Y-45554047D01*
X101275000Y-45458333D01*
X101346428Y-45394523D01*
X101417857Y-45362619D01*
X101560714Y-45330714D01*
X101667857Y-45330714D01*
X101810714Y-45362619D01*
X101882142Y-45394523D01*
X101953571Y-45458333D01*
X101989285Y-45554047D01*
X101989285Y-45713571D01*
X101775000Y-45075476D02*
X101775000Y-44756428D01*
X101989285Y-45139285D02*
X101239285Y-44915952D01*
X101989285Y-44692619D01*
X101203571Y-43990714D02*
X102167857Y-44565000D01*
X101989285Y-43767380D02*
X101239285Y-43767380D01*
X101239285Y-43607857D01*
X101275000Y-43512142D01*
X101346428Y-43448333D01*
X101417857Y-43416428D01*
X101560714Y-43384523D01*
X101667857Y-43384523D01*
X101810714Y-43416428D01*
X101882142Y-43448333D01*
X101953571Y-43512142D01*
X101989285Y-43607857D01*
X101989285Y-43767380D01*
X101989285Y-42746428D02*
X101989285Y-43129285D01*
X101989285Y-42937857D02*
X101239285Y-42937857D01*
X101346428Y-43001666D01*
X101417857Y-43065476D01*
X101453571Y-43129285D01*
X101203571Y-41980714D02*
X102167857Y-42555000D01*
X101310714Y-41789285D02*
X101275000Y-41757380D01*
X101239285Y-41693571D01*
X101239285Y-41534047D01*
X101275000Y-41470238D01*
X101310714Y-41438333D01*
X101382142Y-41406428D01*
X101453571Y-41406428D01*
X101560714Y-41438333D01*
X101989285Y-41821190D01*
X101989285Y-41406428D01*
X106989285Y-43809523D02*
X106239285Y-43809523D01*
X106239285Y-43650000D01*
X106275000Y-43554285D01*
X106346428Y-43490476D01*
X106417857Y-43458571D01*
X106560714Y-43426666D01*
X106667857Y-43426666D01*
X106810714Y-43458571D01*
X106882142Y-43490476D01*
X106953571Y-43554285D01*
X106989285Y-43650000D01*
X106989285Y-43809523D01*
X106489285Y-42852380D02*
X106989285Y-42852380D01*
X106203571Y-43011904D02*
X106739285Y-43171428D01*
X106739285Y-42756666D01*
X106203571Y-42022857D02*
X107167857Y-42597142D01*
X106489285Y-41512380D02*
X106989285Y-41512380D01*
X106203571Y-41671904D02*
X106739285Y-41831428D01*
X106739285Y-41416666D01*
X91939285Y-44933809D02*
X91189285Y-44933809D01*
X91189285Y-44774285D01*
X91225000Y-44678571D01*
X91296428Y-44614761D01*
X91367857Y-44582857D01*
X91510714Y-44550952D01*
X91617857Y-44550952D01*
X91760714Y-44582857D01*
X91832142Y-44614761D01*
X91903571Y-44678571D01*
X91939285Y-44774285D01*
X91939285Y-44933809D01*
X91189285Y-44327619D02*
X91189285Y-43912857D01*
X91475000Y-44136190D01*
X91475000Y-44040476D01*
X91510714Y-43976666D01*
X91546428Y-43944761D01*
X91617857Y-43912857D01*
X91796428Y-43912857D01*
X91867857Y-43944761D01*
X91903571Y-43976666D01*
X91939285Y-44040476D01*
X91939285Y-44231904D01*
X91903571Y-44295714D01*
X91867857Y-44327619D01*
X91153571Y-43147142D02*
X92117857Y-43721428D01*
X91189285Y-43019523D02*
X91189285Y-42636666D01*
X91939285Y-42828095D02*
X91189285Y-42828095D01*
X91189285Y-42477142D02*
X91939285Y-42030476D01*
X91189285Y-42030476D02*
X91939285Y-42477142D01*
X91189285Y-41647619D02*
X91189285Y-41583809D01*
X91225000Y-41520000D01*
X91260714Y-41488095D01*
X91332142Y-41456190D01*
X91475000Y-41424285D01*
X91653571Y-41424285D01*
X91796428Y-41456190D01*
X91867857Y-41488095D01*
X91903571Y-41520000D01*
X91939285Y-41583809D01*
X91939285Y-41647619D01*
X91903571Y-41711428D01*
X91867857Y-41743333D01*
X91796428Y-41775238D01*
X91653571Y-41807142D01*
X91475000Y-41807142D01*
X91332142Y-41775238D01*
X91260714Y-41743333D01*
X91225000Y-41711428D01*
X91189285Y-41647619D01*
X98775000Y-42905476D02*
X98739285Y-42969285D01*
X98739285Y-43065000D01*
X98775000Y-43160714D01*
X98846428Y-43224523D01*
X98917857Y-43256428D01*
X99060714Y-43288333D01*
X99167857Y-43288333D01*
X99310714Y-43256428D01*
X99382142Y-43224523D01*
X99453571Y-43160714D01*
X99489285Y-43065000D01*
X99489285Y-43001190D01*
X99453571Y-42905476D01*
X99417857Y-42873571D01*
X99167857Y-42873571D01*
X99167857Y-43001190D01*
X99489285Y-42586428D02*
X98739285Y-42586428D01*
X99489285Y-42203571D01*
X98739285Y-42203571D01*
X99489285Y-41884523D02*
X98739285Y-41884523D01*
X98739285Y-41725000D01*
X98775000Y-41629285D01*
X98846428Y-41565476D01*
X98917857Y-41533571D01*
X99060714Y-41501666D01*
X99167857Y-41501666D01*
X99310714Y-41533571D01*
X99382142Y-41565476D01*
X99453571Y-41629285D01*
X99489285Y-41725000D01*
X99489285Y-41884523D01*
X96325000Y-42905476D02*
X96289285Y-42969285D01*
X96289285Y-43065000D01*
X96325000Y-43160714D01*
X96396428Y-43224523D01*
X96467857Y-43256428D01*
X96610714Y-43288333D01*
X96717857Y-43288333D01*
X96860714Y-43256428D01*
X96932142Y-43224523D01*
X97003571Y-43160714D01*
X97039285Y-43065000D01*
X97039285Y-43001190D01*
X97003571Y-42905476D01*
X96967857Y-42873571D01*
X96717857Y-42873571D01*
X96717857Y-43001190D01*
X97039285Y-42586428D02*
X96289285Y-42586428D01*
X97039285Y-42203571D01*
X96289285Y-42203571D01*
X97039285Y-41884523D02*
X96289285Y-41884523D01*
X96289285Y-41725000D01*
X96325000Y-41629285D01*
X96396428Y-41565476D01*
X96467857Y-41533571D01*
X96610714Y-41501666D01*
X96717857Y-41501666D01*
X96860714Y-41533571D01*
X96932142Y-41565476D01*
X97003571Y-41629285D01*
X97039285Y-41725000D01*
X97039285Y-41884523D01*
X112089285Y-43809523D02*
X111339285Y-43809523D01*
X111339285Y-43650000D01*
X111375000Y-43554285D01*
X111446428Y-43490476D01*
X111517857Y-43458571D01*
X111660714Y-43426666D01*
X111767857Y-43426666D01*
X111910714Y-43458571D01*
X111982142Y-43490476D01*
X112053571Y-43554285D01*
X112089285Y-43650000D01*
X112089285Y-43809523D01*
X111339285Y-43203333D02*
X111339285Y-42756666D01*
X112089285Y-43043809D01*
X111303571Y-42022857D02*
X112267857Y-42597142D01*
X111339285Y-41512380D02*
X111339285Y-41640000D01*
X111375000Y-41703809D01*
X111410714Y-41735714D01*
X111517857Y-41799523D01*
X111660714Y-41831428D01*
X111946428Y-41831428D01*
X112017857Y-41799523D01*
X112053571Y-41767619D01*
X112089285Y-41703809D01*
X112089285Y-41576190D01*
X112053571Y-41512380D01*
X112017857Y-41480476D01*
X111946428Y-41448571D01*
X111767857Y-41448571D01*
X111696428Y-41480476D01*
X111660714Y-41512380D01*
X111625000Y-41576190D01*
X111625000Y-41703809D01*
X111660714Y-41767619D01*
X111696428Y-41799523D01*
X111767857Y-41831428D01*
X114246428Y-43777619D02*
X114246428Y-43554285D01*
X114639285Y-43458571D02*
X114639285Y-43777619D01*
X113889285Y-43777619D01*
X113889285Y-43458571D01*
X113889285Y-42884285D02*
X113889285Y-43011904D01*
X113925000Y-43075714D01*
X113960714Y-43107619D01*
X114067857Y-43171428D01*
X114210714Y-43203333D01*
X114496428Y-43203333D01*
X114567857Y-43171428D01*
X114603571Y-43139523D01*
X114639285Y-43075714D01*
X114639285Y-42948095D01*
X114603571Y-42884285D01*
X114567857Y-42852380D01*
X114496428Y-42820476D01*
X114317857Y-42820476D01*
X114246428Y-42852380D01*
X114210714Y-42884285D01*
X114175000Y-42948095D01*
X114175000Y-43075714D01*
X114210714Y-43139523D01*
X114246428Y-43171428D01*
X114317857Y-43203333D01*
X113853571Y-42054761D02*
X114817857Y-42629047D01*
X113889285Y-41895238D02*
X113889285Y-41448571D01*
X114639285Y-41735714D01*
X117339285Y-52877619D02*
X117339285Y-53260476D01*
X117339285Y-53069047D02*
X116589285Y-53069047D01*
X116696428Y-53132857D01*
X116767857Y-53196666D01*
X116803571Y-53260476D01*
X116589285Y-52303333D02*
X116589285Y-52430952D01*
X116625000Y-52494761D01*
X116660714Y-52526666D01*
X116767857Y-52590476D01*
X116910714Y-52622380D01*
X117196428Y-52622380D01*
X117267857Y-52590476D01*
X117303571Y-52558571D01*
X117339285Y-52494761D01*
X117339285Y-52367142D01*
X117303571Y-52303333D01*
X117267857Y-52271428D01*
X117196428Y-52239523D01*
X117017857Y-52239523D01*
X116946428Y-52271428D01*
X116910714Y-52303333D01*
X116875000Y-52367142D01*
X116875000Y-52494761D01*
X116910714Y-52558571D01*
X116946428Y-52590476D01*
X117017857Y-52622380D01*
X116553571Y-51473809D02*
X117517857Y-52048095D01*
X116946428Y-51027142D02*
X116982142Y-50931428D01*
X117017857Y-50899523D01*
X117089285Y-50867619D01*
X117196428Y-50867619D01*
X117267857Y-50899523D01*
X117303571Y-50931428D01*
X117339285Y-50995238D01*
X117339285Y-51250476D01*
X116589285Y-51250476D01*
X116589285Y-51027142D01*
X116625000Y-50963333D01*
X116660714Y-50931428D01*
X116732142Y-50899523D01*
X116803571Y-50899523D01*
X116875000Y-50931428D01*
X116910714Y-50963333D01*
X116946428Y-51027142D01*
X116946428Y-51250476D01*
X116660714Y-50612380D02*
X116625000Y-50580476D01*
X116589285Y-50516666D01*
X116589285Y-50357142D01*
X116625000Y-50293333D01*
X116660714Y-50261428D01*
X116732142Y-50229523D01*
X116803571Y-50229523D01*
X116910714Y-50261428D01*
X117339285Y-50644285D01*
X117339285Y-50229523D01*
X119839285Y-52877619D02*
X119839285Y-53260476D01*
X119839285Y-53069047D02*
X119089285Y-53069047D01*
X119196428Y-53132857D01*
X119267857Y-53196666D01*
X119303571Y-53260476D01*
X119089285Y-52462857D02*
X119089285Y-52399047D01*
X119125000Y-52335238D01*
X119160714Y-52303333D01*
X119232142Y-52271428D01*
X119375000Y-52239523D01*
X119553571Y-52239523D01*
X119696428Y-52271428D01*
X119767857Y-52303333D01*
X119803571Y-52335238D01*
X119839285Y-52399047D01*
X119839285Y-52462857D01*
X119803571Y-52526666D01*
X119767857Y-52558571D01*
X119696428Y-52590476D01*
X119553571Y-52622380D01*
X119375000Y-52622380D01*
X119232142Y-52590476D01*
X119160714Y-52558571D01*
X119125000Y-52526666D01*
X119089285Y-52462857D01*
X119053571Y-51473809D02*
X120017857Y-52048095D01*
X119446428Y-51027142D02*
X119482142Y-50931428D01*
X119517857Y-50899523D01*
X119589285Y-50867619D01*
X119696428Y-50867619D01*
X119767857Y-50899523D01*
X119803571Y-50931428D01*
X119839285Y-50995238D01*
X119839285Y-51250476D01*
X119089285Y-51250476D01*
X119089285Y-51027142D01*
X119125000Y-50963333D01*
X119160714Y-50931428D01*
X119232142Y-50899523D01*
X119303571Y-50899523D01*
X119375000Y-50931428D01*
X119410714Y-50963333D01*
X119446428Y-51027142D01*
X119446428Y-51250476D01*
X119089285Y-50293333D02*
X119089285Y-50420952D01*
X119125000Y-50484761D01*
X119160714Y-50516666D01*
X119267857Y-50580476D01*
X119410714Y-50612380D01*
X119696428Y-50612380D01*
X119767857Y-50580476D01*
X119803571Y-50548571D01*
X119839285Y-50484761D01*
X119839285Y-50357142D01*
X119803571Y-50293333D01*
X119767857Y-50261428D01*
X119696428Y-50229523D01*
X119517857Y-50229523D01*
X119446428Y-50261428D01*
X119410714Y-50293333D01*
X119375000Y-50357142D01*
X119375000Y-50484761D01*
X119410714Y-50548571D01*
X119446428Y-50580476D01*
X119517857Y-50612380D01*
X114789285Y-52877619D02*
X114789285Y-53260476D01*
X114789285Y-53069047D02*
X114039285Y-53069047D01*
X114146428Y-53132857D01*
X114217857Y-53196666D01*
X114253571Y-53260476D01*
X114289285Y-52303333D02*
X114789285Y-52303333D01*
X114003571Y-52462857D02*
X114539285Y-52622380D01*
X114539285Y-52207619D01*
X114003571Y-51473809D02*
X114967857Y-52048095D01*
X114396428Y-51027142D02*
X114432142Y-50931428D01*
X114467857Y-50899523D01*
X114539285Y-50867619D01*
X114646428Y-50867619D01*
X114717857Y-50899523D01*
X114753571Y-50931428D01*
X114789285Y-50995238D01*
X114789285Y-51250476D01*
X114039285Y-51250476D01*
X114039285Y-51027142D01*
X114075000Y-50963333D01*
X114110714Y-50931428D01*
X114182142Y-50899523D01*
X114253571Y-50899523D01*
X114325000Y-50931428D01*
X114360714Y-50963333D01*
X114396428Y-51027142D01*
X114396428Y-51250476D01*
X114039285Y-50644285D02*
X114039285Y-50229523D01*
X114325000Y-50452857D01*
X114325000Y-50357142D01*
X114360714Y-50293333D01*
X114396428Y-50261428D01*
X114467857Y-50229523D01*
X114646428Y-50229523D01*
X114717857Y-50261428D01*
X114753571Y-50293333D01*
X114789285Y-50357142D01*
X114789285Y-50548571D01*
X114753571Y-50612380D01*
X114717857Y-50644285D01*
X112239285Y-52877619D02*
X112239285Y-53260476D01*
X112239285Y-53069047D02*
X111489285Y-53069047D01*
X111596428Y-53132857D01*
X111667857Y-53196666D01*
X111703571Y-53260476D01*
X111489285Y-52271428D02*
X111489285Y-52590476D01*
X111846428Y-52622380D01*
X111810714Y-52590476D01*
X111775000Y-52526666D01*
X111775000Y-52367142D01*
X111810714Y-52303333D01*
X111846428Y-52271428D01*
X111917857Y-52239523D01*
X112096428Y-52239523D01*
X112167857Y-52271428D01*
X112203571Y-52303333D01*
X112239285Y-52367142D01*
X112239285Y-52526666D01*
X112203571Y-52590476D01*
X112167857Y-52622380D01*
X111453571Y-51473809D02*
X112417857Y-52048095D01*
X111846428Y-51027142D02*
X111882142Y-50931428D01*
X111917857Y-50899523D01*
X111989285Y-50867619D01*
X112096428Y-50867619D01*
X112167857Y-50899523D01*
X112203571Y-50931428D01*
X112239285Y-50995238D01*
X112239285Y-51250476D01*
X111489285Y-51250476D01*
X111489285Y-51027142D01*
X111525000Y-50963333D01*
X111560714Y-50931428D01*
X111632142Y-50899523D01*
X111703571Y-50899523D01*
X111775000Y-50931428D01*
X111810714Y-50963333D01*
X111846428Y-51027142D01*
X111846428Y-51250476D01*
X112239285Y-50229523D02*
X112239285Y-50612380D01*
X112239285Y-50420952D02*
X111489285Y-50420952D01*
X111596428Y-50484761D01*
X111667857Y-50548571D01*
X111703571Y-50612380D01*
X109296428Y-53292380D02*
X109296428Y-53069047D01*
X109689285Y-52973333D02*
X109689285Y-53292380D01*
X108939285Y-53292380D01*
X108939285Y-52973333D01*
X109617857Y-52303333D02*
X109653571Y-52335238D01*
X109689285Y-52430952D01*
X109689285Y-52494761D01*
X109653571Y-52590476D01*
X109582142Y-52654285D01*
X109510714Y-52686190D01*
X109367857Y-52718095D01*
X109260714Y-52718095D01*
X109117857Y-52686190D01*
X109046428Y-52654285D01*
X108975000Y-52590476D01*
X108939285Y-52494761D01*
X108939285Y-52430952D01*
X108975000Y-52335238D01*
X109010714Y-52303333D01*
X109010714Y-52048095D02*
X108975000Y-52016190D01*
X108939285Y-51952380D01*
X108939285Y-51792857D01*
X108975000Y-51729047D01*
X109010714Y-51697142D01*
X109082142Y-51665238D01*
X109153571Y-51665238D01*
X109260714Y-51697142D01*
X109689285Y-52080000D01*
X109689285Y-51665238D01*
X109403571Y-51378095D02*
X109403571Y-50867619D01*
X109296428Y-50325238D02*
X109332142Y-50229523D01*
X109367857Y-50197619D01*
X109439285Y-50165714D01*
X109546428Y-50165714D01*
X109617857Y-50197619D01*
X109653571Y-50229523D01*
X109689285Y-50293333D01*
X109689285Y-50548571D01*
X108939285Y-50548571D01*
X108939285Y-50325238D01*
X108975000Y-50261428D01*
X109010714Y-50229523D01*
X109082142Y-50197619D01*
X109153571Y-50197619D01*
X109225000Y-50229523D01*
X109260714Y-50261428D01*
X109296428Y-50325238D01*
X109296428Y-50548571D01*
X106746428Y-53244523D02*
X106746428Y-53021190D01*
X107139285Y-52925476D02*
X107139285Y-53244523D01*
X106389285Y-53244523D01*
X106389285Y-52925476D01*
X107067857Y-52255476D02*
X107103571Y-52287380D01*
X107139285Y-52383095D01*
X107139285Y-52446904D01*
X107103571Y-52542619D01*
X107032142Y-52606428D01*
X106960714Y-52638333D01*
X106817857Y-52670238D01*
X106710714Y-52670238D01*
X106567857Y-52638333D01*
X106496428Y-52606428D01*
X106425000Y-52542619D01*
X106389285Y-52446904D01*
X106389285Y-52383095D01*
X106425000Y-52287380D01*
X106460714Y-52255476D01*
X106460714Y-52000238D02*
X106425000Y-51968333D01*
X106389285Y-51904523D01*
X106389285Y-51745000D01*
X106425000Y-51681190D01*
X106460714Y-51649285D01*
X106532142Y-51617380D01*
X106603571Y-51617380D01*
X106710714Y-51649285D01*
X107139285Y-52032142D01*
X107139285Y-51617380D01*
X106853571Y-51330238D02*
X106853571Y-50819761D01*
X106925000Y-50532619D02*
X106925000Y-50213571D01*
X107139285Y-50596428D02*
X106389285Y-50373095D01*
X107139285Y-50149761D01*
X104246428Y-53292380D02*
X104246428Y-53069047D01*
X104639285Y-52973333D02*
X104639285Y-53292380D01*
X103889285Y-53292380D01*
X103889285Y-52973333D01*
X104567857Y-52303333D02*
X104603571Y-52335238D01*
X104639285Y-52430952D01*
X104639285Y-52494761D01*
X104603571Y-52590476D01*
X104532142Y-52654285D01*
X104460714Y-52686190D01*
X104317857Y-52718095D01*
X104210714Y-52718095D01*
X104067857Y-52686190D01*
X103996428Y-52654285D01*
X103925000Y-52590476D01*
X103889285Y-52494761D01*
X103889285Y-52430952D01*
X103925000Y-52335238D01*
X103960714Y-52303333D01*
X104639285Y-51665238D02*
X104639285Y-52048095D01*
X104639285Y-51856666D02*
X103889285Y-51856666D01*
X103996428Y-51920476D01*
X104067857Y-51984285D01*
X104103571Y-52048095D01*
X104353571Y-51378095D02*
X104353571Y-50867619D01*
X104246428Y-50325238D02*
X104282142Y-50229523D01*
X104317857Y-50197619D01*
X104389285Y-50165714D01*
X104496428Y-50165714D01*
X104567857Y-50197619D01*
X104603571Y-50229523D01*
X104639285Y-50293333D01*
X104639285Y-50548571D01*
X103889285Y-50548571D01*
X103889285Y-50325238D01*
X103925000Y-50261428D01*
X103960714Y-50229523D01*
X104032142Y-50197619D01*
X104103571Y-50197619D01*
X104175000Y-50229523D01*
X104210714Y-50261428D01*
X104246428Y-50325238D01*
X104246428Y-50548571D01*
X101746428Y-53244523D02*
X101746428Y-53021190D01*
X102139285Y-52925476D02*
X102139285Y-53244523D01*
X101389285Y-53244523D01*
X101389285Y-52925476D01*
X102067857Y-52255476D02*
X102103571Y-52287380D01*
X102139285Y-52383095D01*
X102139285Y-52446904D01*
X102103571Y-52542619D01*
X102032142Y-52606428D01*
X101960714Y-52638333D01*
X101817857Y-52670238D01*
X101710714Y-52670238D01*
X101567857Y-52638333D01*
X101496428Y-52606428D01*
X101425000Y-52542619D01*
X101389285Y-52446904D01*
X101389285Y-52383095D01*
X101425000Y-52287380D01*
X101460714Y-52255476D01*
X102139285Y-51617380D02*
X102139285Y-52000238D01*
X102139285Y-51808809D02*
X101389285Y-51808809D01*
X101496428Y-51872619D01*
X101567857Y-51936428D01*
X101603571Y-52000238D01*
X101853571Y-51330238D02*
X101853571Y-50819761D01*
X101925000Y-50532619D02*
X101925000Y-50213571D01*
X102139285Y-50596428D02*
X101389285Y-50373095D01*
X102139285Y-50149761D01*
X98689285Y-53238333D02*
X99439285Y-53015000D01*
X98689285Y-52791666D01*
X99367857Y-52185476D02*
X99403571Y-52217380D01*
X99439285Y-52313095D01*
X99439285Y-52376904D01*
X99403571Y-52472619D01*
X99332142Y-52536428D01*
X99260714Y-52568333D01*
X99117857Y-52600238D01*
X99010714Y-52600238D01*
X98867857Y-52568333D01*
X98796428Y-52536428D01*
X98725000Y-52472619D01*
X98689285Y-52376904D01*
X98689285Y-52313095D01*
X98725000Y-52217380D01*
X98760714Y-52185476D01*
X99367857Y-51515476D02*
X99403571Y-51547380D01*
X99439285Y-51643095D01*
X99439285Y-51706904D01*
X99403571Y-51802619D01*
X99332142Y-51866428D01*
X99260714Y-51898333D01*
X99117857Y-51930238D01*
X99010714Y-51930238D01*
X98867857Y-51898333D01*
X98796428Y-51866428D01*
X98725000Y-51802619D01*
X98689285Y-51706904D01*
X98689285Y-51643095D01*
X98725000Y-51547380D01*
X98760714Y-51515476D01*
X96989285Y-52711904D02*
X96632142Y-52935238D01*
X96989285Y-53094761D02*
X96239285Y-53094761D01*
X96239285Y-52839523D01*
X96275000Y-52775714D01*
X96310714Y-52743809D01*
X96382142Y-52711904D01*
X96489285Y-52711904D01*
X96560714Y-52743809D01*
X96596428Y-52775714D01*
X96632142Y-52839523D01*
X96632142Y-53094761D01*
X96953571Y-52456666D02*
X96989285Y-52360952D01*
X96989285Y-52201428D01*
X96953571Y-52137619D01*
X96917857Y-52105714D01*
X96846428Y-52073809D01*
X96775000Y-52073809D01*
X96703571Y-52105714D01*
X96667857Y-52137619D01*
X96632142Y-52201428D01*
X96596428Y-52329047D01*
X96560714Y-52392857D01*
X96525000Y-52424761D01*
X96453571Y-52456666D01*
X96382142Y-52456666D01*
X96310714Y-52424761D01*
X96275000Y-52392857D01*
X96239285Y-52329047D01*
X96239285Y-52169523D01*
X96275000Y-52073809D01*
X96239285Y-51882380D02*
X96239285Y-51499523D01*
X96989285Y-51690952D02*
X96239285Y-51690952D01*
X98775000Y-42905476D02*
X98739285Y-42969285D01*
X98739285Y-43065000D01*
X98775000Y-43160714D01*
X98846428Y-43224523D01*
X98917857Y-43256428D01*
X99060714Y-43288333D01*
X99167857Y-43288333D01*
X99310714Y-43256428D01*
X99382142Y-43224523D01*
X99453571Y-43160714D01*
X99489285Y-43065000D01*
X99489285Y-43001190D01*
X99453571Y-42905476D01*
X99417857Y-42873571D01*
X99167857Y-42873571D01*
X99167857Y-43001190D01*
X99489285Y-42586428D02*
X98739285Y-42586428D01*
X99489285Y-42203571D01*
X98739285Y-42203571D01*
X99489285Y-41884523D02*
X98739285Y-41884523D01*
X98739285Y-41725000D01*
X98775000Y-41629285D01*
X98846428Y-41565476D01*
X98917857Y-41533571D01*
X99060714Y-41501666D01*
X99167857Y-41501666D01*
X99310714Y-41533571D01*
X99382142Y-41565476D01*
X99453571Y-41629285D01*
X99489285Y-41725000D01*
X99489285Y-41884523D01*
X91889285Y-52807619D02*
X91532142Y-53030952D01*
X91889285Y-53190476D02*
X91139285Y-53190476D01*
X91139285Y-52935238D01*
X91175000Y-52871428D01*
X91210714Y-52839523D01*
X91282142Y-52807619D01*
X91389285Y-52807619D01*
X91460714Y-52839523D01*
X91496428Y-52871428D01*
X91532142Y-52935238D01*
X91532142Y-53190476D01*
X91675000Y-52552380D02*
X91675000Y-52233333D01*
X91889285Y-52616190D02*
X91139285Y-52392857D01*
X91889285Y-52169523D01*
X91139285Y-52010000D02*
X91889285Y-51850476D01*
X91353571Y-51722857D01*
X91889285Y-51595238D01*
X91139285Y-51435714D01*
D11*
X155721276Y-42822361D02*
X155864133Y-42869980D01*
X156102228Y-42869980D01*
X156197466Y-42822361D01*
X156245085Y-42774742D01*
X156292704Y-42679504D01*
X156292704Y-42584266D01*
X156245085Y-42489028D01*
X156197466Y-42441409D01*
X156102228Y-42393790D01*
X155911752Y-42346171D01*
X155816514Y-42298552D01*
X155768895Y-42250933D01*
X155721276Y-42155695D01*
X155721276Y-42060457D01*
X155768895Y-41965219D01*
X155816514Y-41917600D01*
X155911752Y-41869980D01*
X156149847Y-41869980D01*
X156292704Y-41917600D01*
X156626038Y-41869980D02*
X156864133Y-42869980D01*
X157054609Y-42155695D01*
X157245085Y-42869980D01*
X157483180Y-41869980D01*
X157816514Y-41965219D02*
X157864133Y-41917600D01*
X157959371Y-41869980D01*
X158197466Y-41869980D01*
X158292704Y-41917600D01*
X158340323Y-41965219D01*
X158387942Y-42060457D01*
X158387942Y-42155695D01*
X158340323Y-42298552D01*
X157768895Y-42869980D01*
X158387942Y-42869980D01*
X159340323Y-42869980D02*
X158768895Y-42869980D01*
X159054609Y-42869980D02*
X159054609Y-41869980D01*
X158959371Y-42012838D01*
X158864133Y-42108076D01*
X158768895Y-42155695D01*
X131635619Y-39314380D02*
X131302285Y-38838190D01*
X131064190Y-39314380D02*
X131064190Y-38314380D01*
X131445142Y-38314380D01*
X131540380Y-38362000D01*
X131588000Y-38409619D01*
X131635619Y-38504857D01*
X131635619Y-38647714D01*
X131588000Y-38742952D01*
X131540380Y-38790571D01*
X131445142Y-38838190D01*
X131064190Y-38838190D01*
X132064190Y-38790571D02*
X132397523Y-38790571D01*
X132540380Y-39314380D02*
X132064190Y-39314380D01*
X132064190Y-38314380D01*
X132540380Y-38314380D01*
X132921333Y-39266761D02*
X133064190Y-39314380D01*
X133302285Y-39314380D01*
X133397523Y-39266761D01*
X133445142Y-39219142D01*
X133492761Y-39123904D01*
X133492761Y-39028666D01*
X133445142Y-38933428D01*
X133397523Y-38885809D01*
X133302285Y-38838190D01*
X133111809Y-38790571D01*
X133016571Y-38742952D01*
X132968952Y-38695333D01*
X132921333Y-38600095D01*
X132921333Y-38504857D01*
X132968952Y-38409619D01*
X133016571Y-38362000D01*
X133111809Y-38314380D01*
X133349904Y-38314380D01*
X133492761Y-38362000D01*
X133921333Y-38790571D02*
X134254666Y-38790571D01*
X134397523Y-39314380D02*
X133921333Y-39314380D01*
X133921333Y-38314380D01*
X134397523Y-38314380D01*
X134683238Y-38314380D02*
X135254666Y-38314380D01*
X134968952Y-39314380D02*
X134968952Y-38314380D01*
%LPC*%
X168053533Y-40105766D02*
X168053533Y-39405766D01*
X168320200Y-39405766D01*
X168386866Y-39439100D01*
X168420200Y-39472433D01*
X168453533Y-39539100D01*
X168453533Y-39639100D01*
X168420200Y-39705766D01*
X168386866Y-39739100D01*
X168320200Y-39772433D01*
X168053533Y-39772433D01*
X168753533Y-40105766D02*
X168753533Y-39405766D01*
X168986866Y-39905766D01*
X169220200Y-39405766D01*
X169220200Y-40105766D01*
X169553533Y-39739100D02*
X169786866Y-39739100D01*
X169886866Y-40105766D02*
X169553533Y-40105766D01*
X169553533Y-39405766D01*
X169886866Y-39405766D01*
X171220200Y-39372433D02*
X170620200Y-40272433D01*
X171920200Y-39639100D02*
X172086866Y-40105766D01*
X172253533Y-39639100D01*
X172653533Y-39405766D02*
X172720200Y-39405766D01*
X172786866Y-39439100D01*
X172820200Y-39472433D01*
X172853533Y-39539100D01*
X172886866Y-39672433D01*
X172886866Y-39839100D01*
X172853533Y-39972433D01*
X172820200Y-40039100D01*
X172786866Y-40072433D01*
X172720200Y-40105766D01*
X172653533Y-40105766D01*
X172586866Y-40072433D01*
X172553533Y-40039100D01*
X172520200Y-39972433D01*
X172486866Y-39839100D01*
X172486866Y-39672433D01*
X172520200Y-39539100D01*
X172553533Y-39472433D01*
X172586866Y-39439100D01*
X172653533Y-39405766D01*
X173186866Y-40039100D02*
X173220200Y-40072433D01*
X173186866Y-40105766D01*
X173153533Y-40072433D01*
X173186866Y-40039100D01*
X173186866Y-40105766D01*
X173553533Y-40105766D02*
X173686866Y-40105766D01*
X173753533Y-40072433D01*
X173786866Y-40039100D01*
X173853533Y-39939100D01*
X173886866Y-39805766D01*
X173886866Y-39539100D01*
X173853533Y-39472433D01*
X173820200Y-39439100D01*
X173753533Y-39405766D01*
X173620200Y-39405766D01*
X173553533Y-39439100D01*
X173520200Y-39472433D01*
X173486866Y-39539100D01*
X173486866Y-39705766D01*
X173520200Y-39772433D01*
X173553533Y-39805766D01*
X173620200Y-39839100D01*
X173753533Y-39839100D01*
X173820200Y-39805766D01*
X173853533Y-39772433D01*
X173886866Y-39705766D01*
X174320200Y-39405766D02*
X174386866Y-39405766D01*
X174453533Y-39439100D01*
X174486866Y-39472433D01*
X174520200Y-39539100D01*
X174553533Y-39672433D01*
X174553533Y-39839100D01*
X174520200Y-39972433D01*
X174486866Y-40039100D01*
X174453533Y-40072433D01*
X174386866Y-40105766D01*
X174320200Y-40105766D01*
X174253533Y-40072433D01*
X174220200Y-40039100D01*
X174186866Y-39972433D01*
X174153533Y-39839100D01*
X174153533Y-39672433D01*
X174186866Y-39539100D01*
X174220200Y-39472433D01*
X174253533Y-39439100D01*
X174320200Y-39405766D01*
X175053533Y-40372433D02*
X175020200Y-40339100D01*
X174953533Y-40239100D01*
X174920200Y-40172433D01*
X174886866Y-40072433D01*
X174853533Y-39905766D01*
X174853533Y-39772433D01*
X174886866Y-39605766D01*
X174920200Y-39505766D01*
X174953533Y-39439100D01*
X175020200Y-39339100D01*
X175053533Y-39305766D01*
X175686866Y-40105766D02*
X175286866Y-40105766D01*
X175486866Y-40105766D02*
X175486866Y-39405766D01*
X175420200Y-39505766D01*
X175353533Y-39572433D01*
X175286866Y-39605766D01*
X176020200Y-40105766D02*
X176153533Y-40105766D01*
X176220200Y-40072433D01*
X176253533Y-40039100D01*
X176320200Y-39939100D01*
X176353533Y-39805766D01*
X176353533Y-39539100D01*
X176320200Y-39472433D01*
X176286866Y-39439100D01*
X176220200Y-39405766D01*
X176086866Y-39405766D01*
X176020200Y-39439100D01*
X175986866Y-39472433D01*
X175953533Y-39539100D01*
X175953533Y-39705766D01*
X175986866Y-39772433D01*
X176020200Y-39805766D01*
X176086866Y-39839100D01*
X176220200Y-39839100D01*
X176286866Y-39805766D01*
X176320200Y-39772433D01*
X176353533Y-39705766D01*
X177020200Y-40105766D02*
X176620200Y-40105766D01*
X176820200Y-40105766D02*
X176820200Y-39405766D01*
X176753533Y-39505766D01*
X176686866Y-39572433D01*
X176620200Y-39605766D01*
X177686866Y-40105766D02*
X177286866Y-40105766D01*
X177486866Y-40105766D02*
X177486866Y-39405766D01*
X177420200Y-39505766D01*
X177353533Y-39572433D01*
X177286866Y-39605766D01*
X177953533Y-39472433D02*
X177986866Y-39439100D01*
X178053533Y-39405766D01*
X178220200Y-39405766D01*
X178286866Y-39439100D01*
X178320200Y-39472433D01*
X178353533Y-39539100D01*
X178353533Y-39605766D01*
X178320200Y-39705766D01*
X177920200Y-40105766D01*
X178353533Y-40105766D01*
X178953533Y-39639100D02*
X178953533Y-40105766D01*
X178786866Y-39372433D02*
X178620200Y-39872433D01*
X179053533Y-39872433D01*
X179253533Y-40372433D02*
X179286866Y-40339100D01*
X179353533Y-40239100D01*
X179386866Y-40172433D01*
X179420200Y-40072433D01*
X179453533Y-39905766D01*
X179453533Y-39772433D01*
X179420200Y-39605766D01*
X179386866Y-39505766D01*
X179353533Y-39439100D01*
X179286866Y-39339100D01*
X179253533Y-39305766D01*
D16*
X123100000Y-75160000D03*
D17*
X123100000Y-67540000D03*
D16*
X163000000Y-122435000D03*
D17*
X163000000Y-114815000D03*
D16*
X160750000Y-94960000D03*
D17*
X160750000Y-87340000D03*
D16*
X160950000Y-84660000D03*
D17*
X160950000Y-77040000D03*
D16*
X160750000Y-122435000D03*
D17*
X160750000Y-114815000D03*
D16*
X141859000Y-93878400D03*
D17*
X141859000Y-86258400D03*
D16*
X141950000Y-75260000D03*
D17*
X141950000Y-67640000D03*
D16*
X163450000Y-94960000D03*
D17*
X163450000Y-87340000D03*
D16*
X141950000Y-122435000D03*
D17*
X141950000Y-114815000D03*
D16*
X123037600Y-99009200D03*
D17*
X123037600Y-91389200D03*
D16*
X163500000Y-84660000D03*
D17*
X163500000Y-77040000D03*
D16*
X122631200Y-122580400D03*
D17*
X122631200Y-114960400D03*
D16*
X103900000Y-100035000D03*
D17*
X103900000Y-92415000D03*
D16*
X104050000Y-87310000D03*
D17*
X104050000Y-79690000D03*
D18*
X155240000Y-47260000D03*
X131240000Y-47260000D03*
D19*
X154593800Y-48560000D03*
X154593800Y-45960000D03*
X131940000Y-47210000D03*
D18*
X183688000Y-47260000D03*
X159688000Y-47260000D03*
D19*
X183041800Y-48560000D03*
X183041800Y-45960000D03*
X160388000Y-47210000D03*
D20*
X110890000Y-112160000D03*
D21*
X109620000Y-114700000D03*
X119780000Y-114700000D03*
D22*
X120200000Y-114700000D03*
X109200000Y-114700000D03*
D23*
X114700000Y-114700000D03*
D20*
X117240000Y-109620000D03*
X114700000Y-120600000D03*
X109700000Y-118400000D03*
X129940000Y-83510000D03*
D21*
X128670000Y-86050000D03*
X138830000Y-86050000D03*
D22*
X139250000Y-86050000D03*
X128250000Y-86050000D03*
D23*
X133750000Y-86050000D03*
D20*
X136290000Y-80970000D03*
X133750000Y-91950000D03*
X128750000Y-89750000D03*
X129940000Y-112160000D03*
D21*
X128670000Y-114700000D03*
X138830000Y-114700000D03*
D22*
X139250000Y-114700000D03*
X128250000Y-114700000D03*
D23*
X133750000Y-114700000D03*
D20*
X136290000Y-109620000D03*
X133750000Y-120600000D03*
X128750000Y-118400000D03*
X171227223Y-109160448D03*
D21*
X169343097Y-111285199D03*
X179156903Y-113914801D03*
D22*
X179562592Y-114023505D03*
X168937408Y-111176495D03*
D23*
X174250000Y-112600000D03*
D20*
X178018252Y-108350497D03*
X172722968Y-118298962D03*
X168462740Y-114879830D03*
X148940000Y-112160000D03*
D21*
X147670000Y-114700000D03*
X157830000Y-114700000D03*
D22*
X158250000Y-114700000D03*
X147250000Y-114700000D03*
D23*
X152750000Y-114700000D03*
D20*
X155290000Y-109620000D03*
X152750000Y-120600000D03*
X147750000Y-118400000D03*
X148940000Y-93010000D03*
D21*
X147670000Y-95550000D03*
X157830000Y-95550000D03*
D22*
X158250000Y-95550000D03*
X147250000Y-95550000D03*
D23*
X152750000Y-95550000D03*
D20*
X155290000Y-90470000D03*
X152750000Y-101450000D03*
X147750000Y-99250000D03*
X148940000Y-74010000D03*
D21*
X147670000Y-76550000D03*
X157830000Y-76550000D03*
D22*
X158250000Y-76550000D03*
X147250000Y-76550000D03*
D23*
X152750000Y-76550000D03*
D20*
X155290000Y-71470000D03*
X152750000Y-82450000D03*
X147750000Y-80250000D03*
X129890000Y-64510000D03*
D21*
X128620000Y-67050000D03*
X138780000Y-67050000D03*
D22*
X139200000Y-67050000D03*
X128200000Y-67050000D03*
D23*
X133700000Y-67050000D03*
D20*
X136240000Y-61970000D03*
X133700000Y-72950000D03*
X128700000Y-70750000D03*
X110940000Y-88460000D03*
D21*
X109670000Y-91000000D03*
X119830000Y-91000000D03*
D22*
X120250000Y-91000000D03*
X109250000Y-91000000D03*
D23*
X114750000Y-91000000D03*
D20*
X117290000Y-85920000D03*
X114750000Y-96900000D03*
X109750000Y-94700000D03*
X110990000Y-69560000D03*
D21*
X109720000Y-72100000D03*
X119880000Y-72100000D03*
D22*
X120300000Y-72100000D03*
X109300000Y-72100000D03*
D23*
X114800000Y-72100000D03*
D20*
X117340000Y-67020000D03*
X114800000Y-78000000D03*
X109800000Y-75800000D03*
X91750000Y-98140000D03*
D21*
X90480000Y-100680000D03*
X100640000Y-100680000D03*
D22*
X101060000Y-100680000D03*
X90060000Y-100680000D03*
D23*
X95560000Y-100680000D03*
D20*
X98100000Y-95600000D03*
X95560000Y-106580000D03*
X90560000Y-104380000D03*
X91790000Y-79060000D03*
D21*
X90520000Y-81600000D03*
X100680000Y-81600000D03*
D22*
X101100000Y-81600000D03*
X90100000Y-81600000D03*
D23*
X95600000Y-81600000D03*
D20*
X98140000Y-76520000D03*
X95600000Y-87500000D03*
X90600000Y-85300000D03*
D24*
X126974600Y-51092100D03*
D25*
X126974600Y-48552100D03*
X126974600Y-46012100D03*
X126974600Y-43472100D03*
D26*
X102870000Y-111302800D03*
D27*
X181784000Y-41640000D03*
X132206000Y-41640000D03*
D28*
X89150000Y-39750000D03*
X89050000Y-54950000D03*
D29*
X161180800Y-39997600D03*
X153880800Y-39997600D03*
X153880800Y-37787600D03*
X161180800Y-37787600D03*
D30*
X155280800Y-40647600D03*
X156780800Y-40647600D03*
X159780800Y-40647600D03*
D31*
X156030800Y-38887600D03*
X159030800Y-38887600D03*
D26*
X162388800Y-111302800D03*
X162388800Y-70866000D03*
X102870000Y-70866000D03*
D32*
X171900000Y-73600000D03*
X176900000Y-73600000D03*
D33*
X168800000Y-66600000D03*
X180000000Y-66600000D03*
D32*
X171900000Y-59100000D03*
X174400000Y-59100000D03*
D34*
X176900000Y-59100000D03*
D32*
X171800000Y-97100000D03*
X176800000Y-97100000D03*
D33*
X168700000Y-90100000D03*
X179900000Y-90100000D03*
D32*
X171800000Y-82600000D03*
X174300000Y-82600000D03*
D34*
X176800000Y-82600000D03*
M02*
