M48
; DRILL file {KiCad (5.1.4-0-10_14)} date 2020 March 30, Monday 03:15:35
; FORMAT={3:3/ absolute / metric / suppress trailing zeros}
; #@! TF.CreationDate,2020-03-30T03:15:35+09:00
; #@! TF.GenerationSoftware,Kicad,Pcbnew,(5.1.4-0-10_14)
; #@! TF.FileFunction,Plated,1,2,PTH
FMAT,2
METRIC,LZ
T1C0.400
T2C0.813
T3C0.900
T4C1.000
T5C1.300
T6C1.500
%
G90
G05
T1
X088265Y-09558
X088773Y-076911
X091072Y-051667
X091948Y-074498
X093848Y-051675
X096152Y-051805
X098692Y-051805
X099957Y-044931
X101227Y-04251
X101232Y-051805
X102972Y-096088
X102997Y-081864
X103772Y-051805
X106312Y-051821
X10665Y-110312
X107315Y-086563
X107975Y-073253
X108852Y-051821
X111445Y-051858
X113985Y-051858
X115164Y-058115
X116467Y-051916
X119012Y-051921
X120539Y-04251
X121056Y-047015
X121133Y-048412
X121641Y-073736
X121691Y-087046
X121748Y-114619
X121906Y-046277
X125603Y-06637
X126873Y-080975
X126873Y-10701
X140575Y-087568
X140894Y-06256
X1409Y-061036
X141097Y-114884
X144704Y-089891
X145745Y-057379
X14585Y-068888
X145923Y-109042
X153158Y-040814
X154305Y-053186
X15487Y-040621
X156718Y-0509
X157099Y-101422
X157978Y-0509
X159575Y-07832
X160147Y-094818
X160394Y-114154
X160655Y-039851
X164211Y-039851
X171712Y-104615
X17211Y-064795
X173225Y-075933
X173965Y-076733
X174371Y-063449
X179959Y-107264
T2
X090907Y-110566
X098527Y-110566
X096088Y-091338
X103708Y-091338
X08865Y-03825
X166141Y-09111
X166141Y-09873
X08855Y-05345
X166141Y-078384
X166141Y-086004
X163551Y-09111
X163551Y-09873
X153035Y-105232
X160655Y-105232
X091072Y-038194
X091072Y-053414
X092342Y-0395
X092342Y-05474
X093612Y-038194
X093612Y-053414
X094882Y-0395
X094882Y-05474
X096152Y-038194
X096152Y-053414
X097422Y-0395
X097422Y-05474
X098692Y-038194
X098692Y-053414
X099962Y-0395
X099962Y-05474
X101232Y-038194
X101232Y-053414
X102502Y-0395
X102502Y-05474
X103772Y-038194
X103772Y-053414
X105042Y-0395
X105042Y-05474
X106312Y-038194
X106312Y-053414
X107582Y-0395
X107582Y-05474
X108852Y-038194
X108852Y-053414
X110122Y-0395
X110122Y-05474
X111392Y-038194
X111392Y-053414
X112662Y-0395
X112662Y-05474
X115202Y-0395
X115202Y-05474
X134239Y-099212
X141859Y-099212
X113932Y-038194
X113932Y-053414
X116472Y-038194
X116472Y-053414
X117742Y-0395
X117742Y-05474
X119012Y-038194
X119012Y-053414
X120282Y-0395
X120282Y-05474
X089797Y-05471
X089797Y-03947
X153238Y-08603
X160858Y-08603
X134239Y-10541
X141859Y-10541
X134239Y-095961
X141859Y-095961
X141859Y-076759
X11524Y-105893
X134239Y-076759
X12286Y-105893
X11524Y-10094
X12286Y-10094
X11524Y-081686
X12286Y-081686
T3
X13194Y-04571
X154594Y-04446
X154594Y-04706
X160388Y-04571
X183042Y-04446
X183042Y-04706
T4
X126975Y-042472
X126975Y-045012
X126975Y-047552
X126975Y-050092
X1718Y-0826
X1718Y-0971
X1743Y-0826
X1768Y-0826
X1768Y-0971
X1719Y-0591
X1719Y-0736
X1744Y-0591
X1769Y-0591
X1769Y-0736
T5
X122726Y-038124
X129226Y-038124
T6
G00X1687Y-08945
M15
G01X1687Y-09075
M16
G05
G00X1799Y-08945
M15
G01X1799Y-09075
M16
G05
G00X1688Y-06595
M15
G01X1688Y-06725
M16
G05
G00X18Y-06595
M15
G01X18Y-06725
M16
G05
T0
M30
