G04 #@! TF.GenerationSoftware,KiCad,Pcbnew,(5.1.4-0-10_14)*
G04 #@! TF.CreationDate,2020-03-30T03:15:34+09:00*
G04 #@! TF.ProjectId,palette1202-PM,70616c65-7474-4653-9132-30322d504d2e,rev?*
G04 #@! TF.SameCoordinates,Original*
G04 #@! TF.FileFunction,Profile,NP*
%FSLAX46Y46*%
G04 Gerber Fmt 4.6, Leading zero omitted, Abs format (unit mm)*
G04 Created by KiCad (PCBNEW (5.1.4-0-10_14)) date 2020-03-30 03:15:34*
%MOMM*%
%LPD*%
G04 APERTURE LIST*
%ADD10C,0.050000*%
G04 APERTURE END LIST*
D10*
X186000000Y-38944240D02*
X186001282Y-38887287D01*
X186001282Y-38887287D02*
X186001504Y-38836615D01*
X186001504Y-38836615D02*
X186000754Y-38781364D01*
X186000754Y-38781364D02*
X185999192Y-38731746D01*
X185999192Y-38731746D02*
X185996730Y-38681161D01*
X185996730Y-38681161D02*
X185993092Y-38626684D01*
X185993092Y-38626684D02*
X185988891Y-38577196D01*
X185988891Y-38577196D02*
X185983927Y-38528543D01*
X185983927Y-38528543D02*
X185977787Y-38477231D01*
X185977787Y-38477231D02*
X185971679Y-38432568D01*
X185971679Y-38432568D02*
X185964611Y-38386404D01*
X185964611Y-38386404D02*
X185957225Y-38342781D01*
X185957225Y-38342781D02*
X185949294Y-38299953D01*
X185949294Y-38299953D02*
X185940617Y-38256789D01*
X185940617Y-38256789D02*
X185931675Y-38215554D01*
X185931675Y-38215554D02*
X185921745Y-38172863D01*
X185921745Y-38172863D02*
X185911611Y-38132092D01*
X185911611Y-38132092D02*
X185899388Y-38086022D01*
X185899388Y-38086022D02*
X185888344Y-38046857D01*
X185888344Y-38046857D02*
X185875926Y-38005187D01*
X185875926Y-38005187D02*
X185862724Y-37963247D01*
X185862724Y-37963247D02*
X185849815Y-37924279D01*
X185849815Y-37924279D02*
X185836368Y-37885564D01*
X185836368Y-37885564D02*
X185822388Y-37847102D01*
X185822388Y-37847102D02*
X185807878Y-37808897D01*
X185807878Y-37808897D02*
X185793690Y-37773057D01*
X185793690Y-37773057D02*
X185778160Y-37735365D01*
X185778160Y-37735365D02*
X185763020Y-37700017D01*
X185763020Y-37700017D02*
X185746489Y-37662854D01*
X185746489Y-37662854D02*
X185730650Y-37628524D01*
X185730650Y-37628524D02*
X185712895Y-37591396D01*
X185712895Y-37591396D02*
X185695895Y-37557077D01*
X185695895Y-37557077D02*
X185676374Y-37519028D01*
X185676374Y-37519028D02*
X185658441Y-37485261D01*
X185658441Y-37485261D02*
X185639255Y-37450289D01*
X185639255Y-37450289D02*
X185620160Y-37416583D01*
X185620160Y-37416583D02*
X185600912Y-37383644D01*
X185600912Y-37383644D02*
X185580364Y-37349545D01*
X185580364Y-37349545D02*
X185559956Y-37316701D01*
X185559956Y-37316701D02*
X185539427Y-37284620D01*
X185539427Y-37284620D02*
X185518488Y-37252826D01*
X185518488Y-37252826D02*
X185495869Y-37219478D01*
X185495869Y-37219478D02*
X185470211Y-37182815D01*
X185470211Y-37182815D02*
X185447966Y-37151977D01*
X185447966Y-37151977D02*
X185426667Y-37123230D01*
X185426667Y-37123230D02*
X185403998Y-37093425D01*
X185403998Y-37093425D02*
X185381647Y-37064798D01*
X185381647Y-37064798D02*
X185359296Y-37036891D01*
X185359296Y-37036891D02*
X185336249Y-37008832D01*
X185336249Y-37008832D02*
X185307773Y-36975123D01*
X185307773Y-36975123D02*
X185284334Y-36948138D01*
X185284334Y-36948138D02*
X185259073Y-36919782D01*
X185259073Y-36919782D02*
X185231926Y-36890115D01*
X185231926Y-36890115D02*
X185204761Y-36861231D01*
X185204761Y-36861231D02*
X185177984Y-36833512D01*
X185177984Y-36833512D02*
X185152823Y-36808116D01*
X185152823Y-36808116D02*
X185125746Y-36781466D01*
X185125746Y-36781466D02*
X185099946Y-36756702D01*
X185099946Y-36756702D02*
X185073842Y-36732251D01*
X185073842Y-36732251D02*
X185045775Y-36706615D01*
X185045775Y-36706615D02*
X185019052Y-36682816D01*
X185019052Y-36682816D02*
X184990762Y-36658242D01*
X184990762Y-36658242D02*
X184963010Y-36634743D01*
X184963010Y-36634743D02*
X184935393Y-36611932D01*
X184935393Y-36611932D02*
X184907493Y-36589450D01*
X184907493Y-36589450D02*
X184879309Y-36567301D01*
X184879309Y-36567301D02*
X184850847Y-36545489D01*
X184850847Y-36545489D02*
X184818495Y-36521352D01*
X184818495Y-36521352D02*
X184789450Y-36500261D01*
X184789450Y-36500261D02*
X184759674Y-36479192D01*
X184759674Y-36479192D02*
X184728697Y-36457852D01*
X184728697Y-36457852D02*
X184695083Y-36435344D01*
X184695083Y-36435344D02*
X184664455Y-36415408D01*
X184664455Y-36415408D02*
X184632609Y-36395246D01*
X184632609Y-36395246D02*
X184600006Y-36375186D01*
X184600006Y-36375186D02*
X184567119Y-36355535D01*
X184567119Y-36355535D02*
X184532483Y-36335458D01*
X184532483Y-36335458D02*
X184497057Y-36315564D01*
X184497057Y-36315564D02*
X184462821Y-36296940D01*
X184462821Y-36296940D02*
X184427303Y-36278231D01*
X184427303Y-36278231D02*
X184392515Y-36260496D01*
X184392515Y-36260496D02*
X184356441Y-36242712D01*
X184356441Y-36242712D02*
X184317001Y-36223959D01*
X184317001Y-36223959D02*
X184281903Y-36207867D01*
X184281903Y-36207867D02*
X184244473Y-36191311D01*
X184244473Y-36191311D02*
X184204668Y-36174377D01*
X184204668Y-36174377D02*
X184168798Y-36159700D01*
X184168798Y-36159700D02*
X184128429Y-36143835D01*
X184128429Y-36143835D02*
X184091530Y-36129926D01*
X184091530Y-36129926D02*
X184046834Y-36113823D01*
X184046834Y-36113823D02*
X184009424Y-36100964D01*
X184009424Y-36100964D02*
X183970694Y-36088238D01*
X183970694Y-36088238D02*
X183931180Y-36075858D01*
X183931180Y-36075858D02*
X183891427Y-36064011D01*
X183891427Y-36064011D02*
X183851443Y-36052703D01*
X183851443Y-36052703D02*
X183811233Y-36041937D01*
X183811233Y-36041937D02*
X183770797Y-36031717D01*
X183770797Y-36031717D02*
X183729578Y-36021919D01*
X183729578Y-36021919D02*
X183685291Y-36012078D01*
X183685291Y-36012078D02*
X183643619Y-36003463D01*
X183643619Y-36003463D02*
X183598285Y-35994792D01*
X183598285Y-35994792D02*
X183552130Y-35986709D01*
X183552130Y-35986709D02*
X183507479Y-35979599D01*
X183507479Y-35979599D02*
X183463194Y-35973225D01*
X183463194Y-35973225D02*
X183418702Y-35967501D01*
X183418702Y-35967501D02*
X183372239Y-35962243D01*
X183372239Y-35962243D02*
X183317271Y-35956965D01*
X183317271Y-35956965D02*
X183269757Y-35953220D01*
X183269757Y-35953220D02*
X183217854Y-35949989D01*
X183217854Y-35949989D02*
X183169321Y-35947777D01*
X183169321Y-35947777D02*
X183119384Y-35946309D01*
X183119384Y-35946309D02*
X183068037Y-35945656D01*
X183068037Y-35945656D02*
X183054716Y-35945629D01*
X89000000Y-35902269D02*
X88949105Y-35902711D01*
X88949105Y-35902711D02*
X88894873Y-35904161D01*
X88894873Y-35904161D02*
X88845557Y-35906359D01*
X88845557Y-35906359D02*
X88796436Y-35909384D01*
X88796436Y-35909384D02*
X88749844Y-35913029D01*
X88749844Y-35913029D02*
X88701126Y-35917656D01*
X88701126Y-35917656D02*
X88654928Y-35922810D01*
X88654928Y-35922810D02*
X88609503Y-35928618D01*
X88609503Y-35928618D02*
X88564852Y-35935042D01*
X88564852Y-35935042D02*
X88519838Y-35942245D01*
X88519838Y-35942245D02*
X88477297Y-35949725D01*
X88477297Y-35949725D02*
X88433828Y-35958051D01*
X88433828Y-35958051D02*
X88391130Y-35966906D01*
X88391130Y-35966906D02*
X88349201Y-35976260D01*
X88349201Y-35976260D02*
X88306373Y-35986495D01*
X88306373Y-35986495D02*
X88265983Y-35996787D01*
X88265983Y-35996787D02*
X88224700Y-36007949D01*
X88224700Y-36007949D02*
X88185282Y-36019224D01*
X88185282Y-36019224D02*
X88146075Y-36031042D01*
X88146075Y-36031042D02*
X88104922Y-36044101D01*
X88104922Y-36044101D02*
X88061868Y-36058490D01*
X88061868Y-36058490D02*
X88021226Y-36072768D01*
X88021226Y-36072768D02*
X87982956Y-36086834D01*
X87982956Y-36086834D02*
X87946499Y-36100803D01*
X87946499Y-36100803D02*
X87905029Y-36117381D01*
X87905029Y-36117381D02*
X87869044Y-36132369D01*
X87869044Y-36132369D02*
X87830189Y-36149190D01*
X87830189Y-36149190D02*
X87795192Y-36164915D01*
X87795192Y-36164915D02*
X87760930Y-36180845D01*
X87760930Y-36180845D02*
X87723858Y-36198696D01*
X87723858Y-36198696D02*
X87689565Y-36215778D01*
X87689565Y-36215778D02*
X87655510Y-36233300D01*
X87655510Y-36233300D02*
X87621695Y-36251254D01*
X87621695Y-36251254D02*
X87588127Y-36269637D01*
X87588127Y-36269637D02*
X87554804Y-36288449D01*
X87554804Y-36288449D02*
X87521733Y-36307684D01*
X87521733Y-36307684D02*
X87488917Y-36327341D01*
X87488917Y-36327341D02*
X87456359Y-36347415D01*
X87456359Y-36347415D02*
X87424063Y-36367900D01*
X87424063Y-36367900D02*
X87392502Y-36388485D01*
X87392502Y-36388485D02*
X87362133Y-36408835D01*
X87362133Y-36408835D02*
X87328782Y-36431805D01*
X87328782Y-36431805D02*
X87299397Y-36452599D01*
X87299397Y-36452599D02*
X87270260Y-36473744D01*
X87270260Y-36473744D02*
X87241372Y-36495239D01*
X87241372Y-36495239D02*
X87212737Y-36517079D01*
X87212737Y-36517079D02*
X87184358Y-36539263D01*
X87184358Y-36539263D02*
X87152742Y-36564624D01*
X87152742Y-36564624D02*
X87124485Y-36587887D01*
X87124485Y-36587887D02*
X87097357Y-36610762D01*
X87097357Y-36610762D02*
X87068369Y-36635814D01*
X87068369Y-36635814D02*
X87041365Y-36659731D01*
X87041365Y-36659731D02*
X87014637Y-36683972D01*
X87014637Y-36683972D02*
X86986540Y-36710083D01*
X86986540Y-36710083D02*
X86957135Y-36738121D01*
X86957135Y-36738121D02*
X86931701Y-36762982D01*
X86931701Y-36762982D02*
X86905751Y-36788954D01*
X86905751Y-36788954D02*
X86877352Y-36818093D01*
X86877352Y-36818093D02*
X86833914Y-36864195D01*
X86833914Y-36864195D02*
X86806471Y-36894322D01*
X86806471Y-36894322D02*
X86770472Y-36935079D01*
X86770472Y-36935079D02*
X86745389Y-36964351D01*
X86745389Y-36964351D02*
X86719210Y-36995706D01*
X86719210Y-36995706D02*
X86694848Y-37025652D01*
X86694848Y-37025652D02*
X86670841Y-37055922D01*
X86670841Y-37055922D02*
X86648918Y-37084250D01*
X86648918Y-37084250D02*
X86615775Y-37128399D01*
X86615775Y-37128399D02*
X86594315Y-37157874D01*
X86594315Y-37157874D02*
X86573184Y-37187623D01*
X86573184Y-37187623D02*
X86552384Y-37217643D01*
X86552384Y-37217643D02*
X86531919Y-37247929D01*
X86531919Y-37247929D02*
X86509608Y-37281837D01*
X86509608Y-37281837D02*
X86488632Y-37314613D01*
X86488632Y-37314613D02*
X86464452Y-37353548D01*
X86464452Y-37353548D02*
X86445203Y-37385473D01*
X86445203Y-37385473D02*
X86426605Y-37417163D01*
X86426605Y-37417163D02*
X86408359Y-37449102D01*
X86408359Y-37449102D02*
X86388260Y-37485330D01*
X86388260Y-37485330D02*
X86369962Y-37519314D01*
X86369962Y-37519314D02*
X86352590Y-37552537D01*
X86352590Y-37552537D02*
X86334817Y-37587554D01*
X86334817Y-37587554D02*
X86317716Y-37622316D01*
X86317716Y-37622316D02*
X86301512Y-37656281D01*
X86301512Y-37656281D02*
X86284976Y-37692068D01*
X86284976Y-37692068D02*
X86267930Y-37730235D01*
X86267930Y-37730235D02*
X86252272Y-37766541D01*
X86252272Y-37766541D02*
X86237049Y-37803094D01*
X86237049Y-37803094D02*
X86222261Y-37839890D01*
X86222261Y-37839890D02*
X86207913Y-37876926D01*
X86207913Y-37876926D02*
X86194010Y-37914202D01*
X86194010Y-37914202D02*
X86179001Y-37956138D01*
X86179001Y-37956138D02*
X86166047Y-37993902D01*
X86166047Y-37993902D02*
X86153552Y-38031896D01*
X86153552Y-38031896D02*
X86140816Y-38072364D01*
X86140816Y-38072364D02*
X86128601Y-38113080D01*
X86128601Y-38113080D02*
X86116908Y-38154038D01*
X86116908Y-38154038D02*
X86105891Y-38194660D01*
X86105891Y-38194660D02*
X86095103Y-38236664D01*
X86095103Y-38236664D02*
X86085000Y-38278325D01*
X86085000Y-38278325D02*
X86075437Y-38320212D01*
X86075437Y-38320212D02*
X86066416Y-38362320D01*
X86066416Y-38362320D02*
X86057940Y-38404645D01*
X86057940Y-38404645D02*
X86050016Y-38447185D01*
X86050016Y-38447185D02*
X86042649Y-38489934D01*
X86042649Y-38489934D02*
X86035478Y-38535281D01*
X86035478Y-38535281D02*
X86028935Y-38580853D01*
X86028935Y-38580853D02*
X86023028Y-38626645D01*
X86023028Y-38626645D02*
X86017755Y-38672652D01*
X86017755Y-38672652D02*
X86012901Y-38721307D01*
X86012901Y-38721307D02*
X86008812Y-38769577D01*
X86008812Y-38769577D02*
X86005506Y-38816836D01*
X86005506Y-38816836D02*
X86002788Y-38866147D01*
X86002788Y-38866147D02*
X86000803Y-38915669D01*
X86000803Y-38915669D02*
X86000000Y-38944240D01*
X186000000Y-38944240D02*
X186000000Y-121210692D01*
X86000000Y-121210692D02*
X86000000Y-38944240D01*
X89000000Y-35902269D02*
X183054716Y-35945629D01*
X89145183Y-124209303D02*
X183150000Y-124209303D01*
X86000000Y-121210692D02*
X86005008Y-121262802D01*
X86005008Y-121262802D02*
X86010374Y-121311083D01*
X86010374Y-121311083D02*
X86016099Y-121356773D01*
X86016099Y-121356773D02*
X86022340Y-121401684D01*
X86022340Y-121401684D02*
X86028977Y-121445226D01*
X86028977Y-121445226D02*
X86036470Y-121490372D01*
X86036470Y-121490372D02*
X86044116Y-121532963D01*
X86044116Y-121532963D02*
X86053705Y-121582426D01*
X86053705Y-121582426D02*
X86062490Y-121624625D01*
X86062490Y-121624625D02*
X86071798Y-121666639D01*
X86071798Y-121666639D02*
X86082744Y-121713092D01*
X86082744Y-121713092D02*
X86093136Y-121754695D01*
X86093136Y-121754695D02*
X86104038Y-121796100D01*
X86104038Y-121796100D02*
X86116093Y-121839579D01*
X86116093Y-121839579D02*
X86127859Y-121879990D01*
X86127859Y-121879990D02*
X86139582Y-121918497D01*
X86139582Y-121918497D02*
X86152662Y-121959624D01*
X86152662Y-121959624D02*
X86165485Y-121998284D01*
X86165485Y-121998284D02*
X86178560Y-122036183D01*
X86178560Y-122036183D02*
X86193483Y-122077748D01*
X86193483Y-122077748D02*
X86207465Y-122115213D01*
X86207465Y-122115213D02*
X86221870Y-122152468D01*
X86221870Y-122152468D02*
X86236477Y-122188963D01*
X86236477Y-122188963D02*
X86251719Y-122225787D01*
X86251719Y-122225787D02*
X86267610Y-122262925D01*
X86267610Y-122262925D02*
X86283688Y-122299297D01*
X86283688Y-122299297D02*
X86300175Y-122335440D01*
X86300175Y-122335440D02*
X86317070Y-122371352D01*
X86317070Y-122371352D02*
X86334368Y-122407025D01*
X86334368Y-122407025D02*
X86351014Y-122440381D01*
X86351014Y-122440381D02*
X86368012Y-122473522D01*
X86368012Y-122473522D02*
X86386459Y-122508496D01*
X86386459Y-122508496D02*
X86404177Y-122541184D01*
X86404177Y-122541184D02*
X86424524Y-122577689D01*
X86424524Y-122577689D02*
X86442973Y-122609896D01*
X86442973Y-122609896D02*
X86461762Y-122641874D01*
X86461762Y-122641874D02*
X86480584Y-122673123D01*
X86480584Y-122673123D02*
X86500040Y-122704635D01*
X86500040Y-122704635D02*
X86519825Y-122735906D01*
X86519825Y-122735906D02*
X86540259Y-122767419D01*
X86540259Y-122767419D02*
X86561670Y-122799634D01*
X86561670Y-122799634D02*
X86582459Y-122830157D01*
X86582459Y-122830157D02*
X86606229Y-122864192D01*
X86606229Y-122864192D02*
X86628035Y-122894644D01*
X86628035Y-122894644D02*
X86649822Y-122924364D01*
X86649822Y-122924364D02*
X86671925Y-122953827D01*
X86671925Y-122953827D02*
X86694337Y-122983025D01*
X86694337Y-122983025D02*
X86717060Y-123011959D01*
X86717060Y-123011959D02*
X86740087Y-123040621D01*
X86740087Y-123040621D02*
X86763418Y-123069012D01*
X86763418Y-123069012D02*
X86787051Y-123097129D01*
X86787051Y-123097129D02*
X86810983Y-123124968D01*
X86810983Y-123124968D02*
X86835209Y-123152526D01*
X86835209Y-123152526D02*
X86859729Y-123179800D01*
X86859729Y-123179800D02*
X86884538Y-123206787D01*
X86884538Y-123206787D02*
X86909639Y-123233484D01*
X86909639Y-123233484D02*
X86935022Y-123259889D01*
X86935022Y-123259889D02*
X86965129Y-123290456D01*
X86965129Y-123290456D02*
X86991126Y-123316217D01*
X86991126Y-123316217D02*
X87017813Y-123342070D01*
X87017813Y-123342070D02*
X87044367Y-123367218D01*
X87044367Y-123367218D02*
X87071192Y-123392058D01*
X87071192Y-123392058D02*
X87101268Y-123419251D01*
X87101268Y-123419251D02*
X87132533Y-123446808D01*
X87132533Y-123446808D02*
X87159792Y-123470259D01*
X87159792Y-123470259D02*
X87189938Y-123495587D01*
X87189938Y-123495587D02*
X87218170Y-123518745D01*
X87218170Y-123518745D02*
X87247999Y-123542637D01*
X87247999Y-123542637D02*
X87276752Y-123565123D01*
X87276752Y-123565123D02*
X87305757Y-123587276D01*
X87305757Y-123587276D02*
X87335472Y-123609433D01*
X87335472Y-123609433D02*
X87364974Y-123630908D01*
X87364974Y-123630908D02*
X87394723Y-123652044D01*
X87394723Y-123652044D02*
X87428477Y-123675409D01*
X87428477Y-123675409D02*
X87464434Y-123699596D01*
X87464434Y-123699596D02*
X87494969Y-123719578D01*
X87494969Y-123719578D02*
X87527187Y-123740120D01*
X87527187Y-123740120D02*
X87558683Y-123759675D01*
X87558683Y-123759675D02*
X87589924Y-123778567D01*
X87589924Y-123778567D02*
X87623364Y-123798241D01*
X87623364Y-123798241D02*
X87660538Y-123819462D01*
X87660538Y-123819462D02*
X87696510Y-123839359D01*
X87696510Y-123839359D02*
X87729217Y-123856917D01*
X87729217Y-123856917D02*
X87767739Y-123876951D01*
X87767739Y-123876951D02*
X87804509Y-123895440D01*
X87804509Y-123895440D02*
X87839479Y-123912459D01*
X87839479Y-123912459D02*
X87874679Y-123929043D01*
X87874679Y-123929043D02*
X87909587Y-123944955D01*
X87909587Y-123944955D02*
X87947869Y-123961799D01*
X87947869Y-123961799D02*
X87983762Y-123977031D01*
X87983762Y-123977031D02*
X88022000Y-123992666D01*
X88022000Y-123992666D02*
X88058338Y-124006969D01*
X88058338Y-124006969D02*
X88094890Y-124020816D01*
X88094890Y-124020816D02*
X88132195Y-124034392D01*
X88132195Y-124034392D02*
X88172984Y-124048612D01*
X88172984Y-124048612D02*
X88212376Y-124061727D01*
X88212376Y-124061727D02*
X88251995Y-124074316D01*
X88251995Y-124074316D02*
X88291274Y-124086205D01*
X88291274Y-124086205D02*
X88330210Y-124097418D01*
X88330210Y-124097418D02*
X88369910Y-124108269D01*
X88369910Y-124108269D02*
X88409813Y-124118589D01*
X88409813Y-124118589D02*
X88453317Y-124129179D01*
X88453317Y-124129179D02*
X88496483Y-124139013D01*
X88496483Y-124139013D02*
X88539300Y-124148109D01*
X88539300Y-124148109D02*
X88581750Y-124156482D01*
X88581750Y-124156482D02*
X88624984Y-124164362D01*
X88624984Y-124164362D02*
X88669001Y-124171714D01*
X88669001Y-124171714D02*
X88713223Y-124178424D01*
X88713223Y-124178424D02*
X88759990Y-124184793D01*
X88759990Y-124184793D02*
X88811685Y-124190964D01*
X88811685Y-124190964D02*
X88863637Y-124196255D01*
X88863637Y-124196255D02*
X88911083Y-124200295D01*
X88911083Y-124200295D02*
X88958731Y-124203595D01*
X88958731Y-124203595D02*
X89006576Y-124206152D01*
X89006576Y-124206152D02*
X89057018Y-124208028D01*
X89057018Y-124208028D02*
X89107668Y-124209071D01*
X89107668Y-124209071D02*
X89145183Y-124209303D01*
X183146336Y-124209303D02*
X183195985Y-124208909D01*
X183195985Y-124208909D02*
X183250757Y-124207570D01*
X183250757Y-124207570D02*
X183299218Y-124205582D01*
X183299218Y-124205582D02*
X183346800Y-124202883D01*
X183346800Y-124202883D02*
X183393514Y-124199510D01*
X183393514Y-124199510D02*
X183441126Y-124195329D01*
X183441126Y-124195329D02*
X183487858Y-124190481D01*
X183487858Y-124190481D02*
X183536611Y-124184628D01*
X183536611Y-124184628D02*
X183587340Y-124177667D01*
X183587340Y-124177667D02*
X183635419Y-124170238D01*
X183635419Y-124170238D02*
X183678631Y-124162858D01*
X183678631Y-124162858D02*
X183721562Y-124154859D01*
X183721562Y-124154859D02*
X183766449Y-124145775D01*
X183766449Y-124145775D02*
X183811017Y-124136015D01*
X183811017Y-124136015D02*
X183855262Y-124125582D01*
X183855262Y-124125582D02*
X183896995Y-124115055D01*
X183896995Y-124115055D02*
X183940060Y-124103478D01*
X183940060Y-124103478D02*
X183979564Y-124092211D01*
X183979564Y-124092211D02*
X184022000Y-124079407D01*
X184022000Y-124079407D02*
X184060385Y-124067188D01*
X184060385Y-124067188D02*
X184099015Y-124054265D01*
X184099015Y-124054265D02*
X184136831Y-124041002D01*
X184136831Y-124041002D02*
X184176440Y-124026444D01*
X184176440Y-124026444D02*
X184215725Y-124011317D01*
X184215725Y-124011317D02*
X184252642Y-123996468D01*
X184252642Y-123996468D02*
X184289265Y-123981119D01*
X184289265Y-123981119D02*
X184329603Y-123963477D01*
X184329603Y-123963477D02*
X184365591Y-123947077D01*
X184365591Y-123947077D02*
X184399793Y-123930901D01*
X184399793Y-123930901D02*
X184434692Y-123913789D01*
X184434692Y-123913789D02*
X184468317Y-123896707D01*
X184468317Y-123896707D02*
X184504540Y-123877644D01*
X184504540Y-123877644D02*
X184538991Y-123858857D01*
X184538991Y-123858857D02*
X184571232Y-123840676D01*
X184571232Y-123840676D02*
X184603188Y-123822080D01*
X184603188Y-123822080D02*
X184635313Y-123802784D01*
X184635313Y-123802784D02*
X184666223Y-123783642D01*
X184666223Y-123783642D02*
X184699117Y-123762629D01*
X184699117Y-123762629D02*
X184729427Y-123742668D01*
X184729427Y-123742668D02*
X184760334Y-123721701D01*
X184760334Y-123721701D02*
X184792256Y-123699384D01*
X184792256Y-123699384D02*
X184821649Y-123678217D01*
X184821649Y-123678217D02*
X184851607Y-123656019D01*
X184851607Y-123656019D02*
X184882526Y-123632429D01*
X184882526Y-123632429D02*
X184911404Y-123609749D01*
X184911404Y-123609749D02*
X184939967Y-123586687D01*
X184939967Y-123586687D02*
X184969861Y-123561853D01*
X184969861Y-123561853D02*
X184997357Y-123538364D01*
X184997357Y-123538364D02*
X185026952Y-123512354D01*
X185026952Y-123512354D02*
X185057366Y-123484823D01*
X185057366Y-123484823D02*
X185085799Y-123458318D01*
X185085799Y-123458318D02*
X185113858Y-123431403D01*
X185113858Y-123431403D02*
X185139631Y-123405993D01*
X185139631Y-123405993D02*
X185168469Y-123376751D01*
X185168469Y-123376751D02*
X185194285Y-123349820D01*
X185194285Y-123349820D02*
X185219378Y-123322922D01*
X185219378Y-123322922D02*
X185244126Y-123295676D01*
X185244126Y-123295676D02*
X185268523Y-123268083D01*
X185268523Y-123268083D02*
X185292220Y-123240562D01*
X185292220Y-123240562D02*
X185315919Y-123212290D01*
X185315919Y-123212290D02*
X185340965Y-123181571D01*
X185340965Y-123181571D02*
X185365264Y-123150894D01*
X185365264Y-123150894D02*
X185387509Y-123122017D01*
X185387509Y-123122017D02*
X185413931Y-123086682D01*
X185413931Y-123086682D02*
X185435710Y-123056662D01*
X185435710Y-123056662D02*
X185458370Y-123024531D01*
X185458370Y-123024531D02*
X185480608Y-122992042D01*
X185480608Y-122992042D02*
X185501226Y-122961036D01*
X185501226Y-122961036D02*
X185522647Y-122927868D01*
X185522647Y-122927868D02*
X185542196Y-122896694D01*
X185542196Y-122896694D02*
X185561656Y-122864752D01*
X185561656Y-122864752D02*
X185580730Y-122832510D01*
X185580730Y-122832510D02*
X185599691Y-122799490D01*
X185599691Y-122799490D02*
X185617981Y-122766651D01*
X185617981Y-122766651D02*
X185635877Y-122733519D01*
X185635877Y-122733519D02*
X185653126Y-122700593D01*
X185653126Y-122700593D02*
X185671230Y-122664902D01*
X185671230Y-122664902D02*
X185688157Y-122630401D01*
X185688157Y-122630401D02*
X185707263Y-122590039D01*
X185707263Y-122590039D02*
X185724891Y-122551342D01*
X185724891Y-122551342D02*
X185741121Y-122514367D01*
X185741121Y-122514367D02*
X185757751Y-122475013D01*
X185757751Y-122475013D02*
X185773862Y-122435326D01*
X185773862Y-122435326D02*
X185790259Y-122393199D01*
X185790259Y-122393199D02*
X185806845Y-122348577D01*
X185806845Y-122348577D02*
X185822041Y-122305720D01*
X185822041Y-122305720D02*
X185835213Y-122266852D01*
X185835213Y-122266852D02*
X185848593Y-122225524D01*
X185848593Y-122225524D02*
X185860770Y-122186090D01*
X185860770Y-122186090D02*
X185872460Y-122146385D01*
X185872460Y-122146385D02*
X185883659Y-122106414D01*
X185883659Y-122106414D02*
X185894798Y-122064498D01*
X185894798Y-122064498D02*
X185905122Y-122023427D01*
X185905122Y-122023427D02*
X185915325Y-121980394D01*
X185915325Y-121980394D02*
X185924473Y-121939367D01*
X185924473Y-121939367D02*
X185933579Y-121895789D01*
X185933579Y-121895789D02*
X185942116Y-121851941D01*
X185942116Y-121851941D02*
X185949780Y-121809573D01*
X185949780Y-121809573D02*
X185957473Y-121763447D01*
X185957473Y-121763447D02*
X185964629Y-121716451D01*
X185964629Y-121716451D02*
X185971138Y-121669176D01*
X185971138Y-121669176D02*
X185976719Y-121624005D01*
X185976719Y-121624005D02*
X185981773Y-121577991D01*
X185981773Y-121577991D02*
X185986164Y-121532333D01*
X185986164Y-121532333D02*
X185990097Y-121484622D01*
X185990097Y-121484622D02*
X185993416Y-121436049D01*
X185993416Y-121436049D02*
X185996405Y-121379880D01*
X185996405Y-121379880D02*
X185998356Y-121328310D01*
X185998356Y-121328310D02*
X185999516Y-121278947D01*
X185999516Y-121278947D02*
X186000007Y-121221890D01*
X186000007Y-121221890D02*
X186000000Y-121210692D01*
M02*
