M48
; DRILL file {KiCad (6.0.9-0)} date 
; FORMAT={-:-/ absolute / inch / decimal}
; #@! TF.CreationDate,2022-12-01T20:24:57+09:00
; #@! TF.GenerationSoftware,Kicad,Pcbnew,(6.0.9-0)
; #@! TF.FileFunction,NonPlated,1,2,NPTH
FMAT,2
INCH
; #@! TA.AperFunction,NonPlated,NPTH,ComponentDrill
T1C0.0354
; #@! TA.AperFunction,NonPlated,NPTH,ComponentDrill
T2C0.0472
; #@! TA.AperFunction,NonPlated,NPTH,ComponentDrill
T3C0.0669
; #@! TA.AperFunction,NonPlated,NPTH,ComponentDrill
T4C0.0748
; #@! TA.AperFunction,NonPlated,NPTH,ComponentDrill
T5C0.0827
; #@! TA.AperFunction,NonPlated,NPTH,ComponentDrill
T6C0.1181
; #@! TA.AperFunction,NonPlated,NPTH,ComponentDrill
T7C0.1575
; #@! TA.AperFunction,NonPlated,NPTH,ComponentDrill
T8C0.1614
%
G90
G05
T1
X6.0509Y-1.472
X6.0509Y-1.472
X6.1691Y-1.472
X6.1691Y-1.472
T2
X5.4906Y-1.4571
X5.4906Y-1.7327
X5.5594Y-1.4571
X5.5594Y-1.7327
T3
X3.5622Y-3.9638
X3.5638Y-3.2126
X3.9622Y-3.9638
X3.9638Y-3.2126
X4.3157Y-4.5157
X4.3177Y-3.5827
X4.3197Y-2.8386
X4.7157Y-4.5157
X4.7177Y-3.5827
X4.7197Y-2.8386
X5.0638Y-2.6398
X5.0657Y-3.3878
X5.0657Y-4.5157
X5.4638Y-2.6398
X5.4657Y-3.3878
X5.4657Y-4.5157
X5.8138Y-3.0138
X5.8138Y-3.7618
X5.8138Y-4.5157
X6.2138Y-3.0138
X6.2138Y-3.7618
X6.2138Y-4.5157
X6.6671Y-4.3813
X7.0534Y-4.4848
T4
X3.5457Y-3.9638
X3.5472Y-3.2126
X3.9787Y-3.9638
X3.9803Y-3.2126
X4.2992Y-4.5157
X4.3012Y-3.5827
X4.3031Y-2.8386
X4.7323Y-4.5157
X4.7343Y-3.5827
X4.7362Y-2.8386
X5.0472Y-2.6398
X5.0492Y-3.3878
X5.0492Y-4.5157
X5.4803Y-2.6398
X5.4823Y-3.3878
X5.4823Y-4.5157
X5.7972Y-3.0138
X5.7972Y-3.7618
X5.7972Y-4.5157
X6.2303Y-3.0138
X6.2303Y-3.7618
X6.2303Y-4.5157
X6.6511Y-4.377
X7.0694Y-4.4891
T5
X5.205Y-1.5803
X7.1569Y-1.5803
T6
X3.5654Y-4.1094
X3.5669Y-3.3583
X3.6122Y-3.8638
X3.6138Y-3.1126
X3.6622Y-3.7638
X3.6638Y-3.0126
X3.7622Y-4.1961
X3.7638Y-3.4449
X3.8622Y-3.7638
X3.8638Y-3.0126
X3.9122Y-3.8638
X3.9138Y-3.1126
X3.9591Y-4.1094
X3.9606Y-3.3583
X4.3189Y-4.6614
X4.3209Y-3.7283
X4.3228Y-2.9843
X4.3657Y-4.4157
X4.3677Y-3.4827
X4.3697Y-2.7386
X4.4157Y-4.3157
X4.4177Y-3.3827
X4.4197Y-2.6386
X4.5157Y-4.748
X4.5177Y-3.815
X4.5197Y-3.0709
X4.6157Y-4.3157
X4.6177Y-3.3827
X4.6197Y-2.6386
X4.6657Y-4.4157
X4.6677Y-3.4827
X4.6697Y-2.7386
X4.7126Y-4.6614
X4.7146Y-3.7283
X4.7165Y-2.9843
X5.0669Y-2.7854
X5.0689Y-3.5335
X5.0689Y-4.6614
X5.1138Y-2.5398
X5.1157Y-3.2878
X5.1157Y-4.4157
X5.1638Y-2.4398
X5.1657Y-3.1878
X5.1657Y-4.3157
X5.2638Y-2.872
X5.2657Y-3.6201
X5.2657Y-4.748
X5.3638Y-2.4398
X5.3657Y-3.1878
X5.3657Y-4.3157
X5.4138Y-2.5398
X5.4157Y-3.2878
X5.4157Y-4.4157
X5.4606Y-2.7854
X5.4626Y-3.5335
X5.4626Y-4.6614
X5.8169Y-3.1594
X5.8169Y-3.9075
X5.8169Y-4.6614
X5.8638Y-2.9138
X5.8638Y-3.6618
X5.8638Y-4.4157
X5.9138Y-2.8138
X5.9138Y-3.5618
X5.9138Y-4.3157
X6.0138Y-3.2461
X6.0138Y-3.9941
X6.0138Y-4.748
X6.1138Y-2.8138
X6.1138Y-3.5618
X6.1138Y-4.3157
X6.1638Y-2.9138
X6.1638Y-3.6618
X6.1638Y-4.4157
X6.2106Y-3.1594
X6.2106Y-3.9075
X6.2106Y-4.6614
X6.6324Y-4.5228
X6.7412Y-4.2977
X6.8001Y-4.6574
X6.8154Y-4.214
X7.0086Y-4.2658
X7.0127Y-4.6247
X7.031Y-4.3753
T7
X3.7622Y-3.9638
X3.7638Y-3.2126
X4.5157Y-4.5157
X4.5177Y-3.5827
X4.5197Y-2.8386
X5.2638Y-2.6398
X5.2657Y-3.3878
X5.2657Y-4.5157
X6.0138Y-3.0138
X6.0138Y-3.7618
X6.0138Y-4.5157
X6.8602Y-4.4331
T8
X4.05Y-2.79
X4.05Y-4.3426
X6.4326Y-2.79
X6.4326Y-4.3426
T0
M30
