M48
; DRILL file {KiCad (5.1.4-0-10_14)} date 2019 November 24, Sunday 20:29:19
; FORMAT={3:3/ absolute / metric / suppress trailing zeros}
; #@! TF.CreationDate,2019-11-24T20:29:19+09:00
; #@! TF.GenerationSoftware,Kicad,Pcbnew,(5.1.4-0-10_14)
; #@! TF.FileFunction,Plated,1,2,PTH
FMAT,2
METRIC,LZ
T1C0.400
T2C0.813
T3C0.900
T4C1.000
T5C1.300
T6C1.500
%
G90
G05
T1
X106172Y-049085
X106655Y-04793
X151232Y-043485
X159817Y-04257
T2
X123038Y-091389
X123038Y-099009
X16075Y-08734
X16075Y-09496
X091572Y-039739
X091572Y-054959
X094112Y-039739
X094112Y-054959
X096652Y-039739
X096652Y-054959
X099192Y-039739
X099192Y-054959
X101732Y-039739
X101732Y-054959
X104272Y-039739
X104272Y-054959
X106812Y-039739
X106812Y-054959
X109352Y-039739
X109352Y-054959
X111892Y-039739
X111892Y-054959
X114432Y-039739
X114432Y-054959
X116972Y-039739
X116972Y-054959
X119512Y-039739
X119512Y-054959
X163Y-114815
X163Y-122435
X1039Y-092415
X1039Y-100035
X10405Y-07969
X10405Y-08731
X141859Y-086258
X141859Y-093878
X08915Y-03975
X122631Y-11496
X122631Y-12258
X08905Y-05495
X1635Y-07704
X1635Y-08466
X16345Y-08734
X16345Y-09496
X16095Y-07704
X16095Y-08466
X16075Y-114815
X14195Y-114815
X14195Y-122435
X14195Y-06764
X14195Y-07526
X16075Y-122435
X1231Y-06754
X1231Y-07516
T3
X160388Y-04721
X183042Y-04596
X183042Y-04856
X13194Y-04721
X154594Y-04596
X154594Y-04856
T4
X1718Y-0826
X1718Y-0971
X1743Y-0826
X126975Y-046012
X126975Y-048552
X126975Y-051092
X1768Y-0826
X1768Y-0971
X1719Y-0591
X1719Y-0736
X1744Y-0591
X1769Y-0591
X1769Y-0736
X126975Y-043472
T5
X122726Y-039624
X129226Y-039624
T6
G00X1687Y-08945
M15
G01X1687Y-09075
M16
G05
G00X1799Y-08945
M15
G01X1799Y-09075
M16
G05
G00X1688Y-06595
M15
G01X1688Y-06725
M16
G05
G00X18Y-06595
M15
G01X18Y-06725
M16
G05
T0
M30
