M48
; DRILL file {KiCad (5.1.4-0-10_14)} date 2020 March 30, Monday 03:15:35
; FORMAT={3:3/ absolute / metric / suppress trailing zeros}
; #@! TF.CreationDate,2020-03-30T03:15:35+09:00
; #@! TF.GenerationSoftware,Kicad,Pcbnew,(5.1.4-0-10_14)
; #@! TF.FileFunction,NonPlated,1,2,NPTH
FMAT,2
METRIC,LZ
T1C0.900
T2C1.700
T3C1.900
T4C2.100
T5C3.000
T6C4.000
T7C4.100
%
G90
G05
T1
X156694Y-037388
X156694Y-037388
X153694Y-037388
X153694Y-037388
T2
X14767Y-07655
X15783Y-07655
X10967Y-091
X11983Y-091
X12867Y-1147
X13883Y-1147
X10962Y-1147
X11978Y-1147
X12862Y-06705
X09052Y-0816
X09048Y-10068
X10064Y-10068
X10068Y-0816
X14767Y-09555
X15783Y-09555
X14767Y-1147
X15783Y-1147
X13878Y-06705
X12867Y-08605
X13883Y-08605
X10972Y-0721
X11988Y-0721
X169343Y-111285
X179157Y-113915
T3
X168937Y-111176
X179563Y-114024
X1092Y-1147
X1202Y-1147
X12825Y-1147
X13925Y-1147
X09006Y-10068
X10106Y-10068
X14725Y-1147
X1282Y-06705
X1392Y-06705
X12825Y-08605
X13925Y-08605
X0901Y-0816
X1011Y-0816
X15825Y-1147
X14725Y-09555
X15825Y-09555
X14725Y-07655
X15825Y-07655
X10925Y-091
X12025Y-091
X1093Y-0721
X1203Y-0721
T4
X132206Y-04014
X181784Y-04014
T5
X1097Y-1184
X11089Y-11216
X11216Y-10962
X1147Y-1206
X12875Y-08975
X12994Y-08351
X13121Y-08097
X13375Y-09195
X13629Y-08097
X13756Y-08351
X13875Y-08975
X14775Y-08025
X11724Y-10962
X11851Y-11216
X1197Y-1184
X09056Y-10438
X09175Y-09814
X09302Y-0956
X09556Y-10658
X0981Y-0956
X09937Y-09814
X10056Y-10438
X14775Y-1184
X14894Y-11216
X14894Y-09301
X15275Y-1206
X15529Y-10962
X15529Y-09047
X12989Y-06451
X15275Y-10145
X09179Y-07906
X15656Y-11216
X15775Y-1184
X14775Y-09925
X15021Y-10962
X1287Y-07075
X13116Y-06197
X1337Y-07295
X13624Y-06197
X13751Y-06451
X1387Y-07075
X0906Y-0853
X09306Y-07652
X0956Y-0875
X09814Y-07652
X09941Y-07906
X1006Y-0853
X15021Y-09047
X15656Y-09301
X15775Y-09925
X14894Y-07401
X15021Y-07147
X15275Y-08245
X15529Y-07147
X15656Y-07401
X15775Y-08025
X10975Y-0947
X11094Y-08846
X168463Y-11488
X11475Y-0969
X11729Y-08592
X171227Y-10916
X11226Y-06702
X11221Y-08592
X11975Y-0947
X11861Y-06956
X11856Y-08846
X172723Y-118299
X178018Y-10835
X11099Y-06956
X173111Y-107036
X178122Y-117468
X178588Y-111133
X1098Y-0758
X1148Y-078
X11734Y-06702
X1198Y-0758
X12875Y-1184
X12994Y-11216
X13121Y-10962
X13375Y-1206
X13629Y-10962
X13756Y-11216
X13875Y-1184
T6
X1147Y-1147
X09556Y-10068
X15275Y-09555
X1337Y-06705
X15275Y-1147
X13375Y-08605
X0956Y-0816
X17425Y-1126
X15275Y-07655
X1148Y-0721
X11475Y-091
X13375Y-1147
T7
X163389Y-110303
X10287Y-070866
X10287Y-110303
X163389Y-070866
T0
M30
