M48
; DRILL file {KiCad (6.0.9-0)} date 
; FORMAT={-:-/ absolute / inch / decimal}
; #@! TF.CreationDate,2022-12-01T20:24:57+09:00
; #@! TF.GenerationSoftware,Kicad,Pcbnew,(6.0.9-0)
; #@! TF.FileFunction,Plated,1,2,PTH
FMAT,2
INCH
; #@! TA.AperFunction,Plated,PTH,ViaDrill
T1C0.0157
; #@! TA.AperFunction,Plated,PTH,ComponentDrill
T2C0.0320
; #@! TA.AperFunction,Plated,PTH,ComponentDrill
T3C0.0354
; #@! TA.AperFunction,Plated,PTH,ComponentDrill
T4C0.0394
; #@! TA.AperFunction,Plated,PTH,ComponentDrill
T5C0.0512
; #@! TA.AperFunction,Plated,PTH,ComponentDrill
T6C0.0591
%
G90
G05
T1
X3.475Y-3.763
X3.495Y-3.028
X3.5855Y-2.0341
X3.62Y-2.933
X3.7855Y-2.0396
X3.799Y-1.851
X3.8855Y-2.0396
X3.9353Y-1.7689
X3.9853Y-1.6736
X3.9855Y-2.0396
X4.054Y-3.783
X4.055Y-3.223
X4.0855Y-2.0396
X4.1855Y-2.0402
X4.1988Y-4.343
X4.251Y-2.884
X4.2855Y-2.041
X4.3Y-3.325
X4.3876Y-2.0417
X4.4876Y-2.0417
X4.534Y-2.288
X4.5715Y-2.0439
X4.65Y-1.8
X4.65Y-1.9525
X4.6855Y-2.0441
X4.7456Y-1.6736
X4.766Y-1.851
X4.7743Y-1.9857
X4.7889Y-1.6348
X4.789Y-2.903
X4.791Y-3.427
X4.7932Y-4.5126
X4.7961Y-1.9239
X4.7995Y-1.8219
X4.945Y-2.613
X4.995Y-3.188
X4.995Y-4.213
X5.5344Y-3.4476
X5.547Y-2.463
X5.5472Y-2.403
X5.555Y-4.523
X5.697Y-3.539
X5.738Y-2.259
X5.7421Y-2.7121
X5.745Y-4.293
X6.0298Y-1.6068
X6.075Y-2.0939
X6.0973Y-1.5993
X6.17Y-2.0039
X6.185Y-3.993
X6.2196Y-2.0039
X6.2825Y-3.0835
X6.305Y-3.733
X6.3147Y-4.4943
X6.325Y-1.5689
X6.465Y-1.5689
X6.7603Y-4.1187
X6.776Y-2.551
X6.8199Y-2.9895
X6.849Y-3.021
X6.865Y-2.498
X7.085Y-4.223
T2
X3.4862Y-2.1043
X3.4902Y-1.5059
X3.5353Y-1.5539
X3.5353Y-2.1539
X3.579Y-4.353
X3.5855Y-1.5037
X3.5855Y-2.1029
X3.6355Y-1.5551
X3.6355Y-2.1551
X3.6855Y-1.5037
X3.6855Y-2.1029
X3.7355Y-1.5551
X3.7355Y-2.1551
X3.783Y-3.596
X3.7855Y-1.5037
X3.7855Y-2.1029
X3.8355Y-1.5551
X3.8355Y-2.1551
X3.879Y-4.353
X3.8855Y-1.5037
X3.8855Y-2.1029
X3.9355Y-1.5551
X3.9355Y-2.1551
X3.9855Y-1.5037
X3.9855Y-2.1029
X4.0355Y-1.5551
X4.0355Y-2.1551
X4.083Y-3.596
X4.0855Y-1.5037
X4.0855Y-2.1029
X4.1355Y-1.5551
X4.1355Y-2.1551
X4.1855Y-1.5037
X4.1855Y-2.1029
X4.2355Y-1.5551
X4.2355Y-2.1551
X4.2855Y-1.5037
X4.2855Y-2.1029
X4.3355Y-1.5551
X4.3355Y-2.1551
X4.3855Y-1.5037
X4.3855Y-2.1029
X4.4355Y-1.5551
X4.4355Y-2.1551
X4.4855Y-1.5037
X4.4855Y-2.1029
X4.5355Y-1.5551
X4.5355Y-2.1551
X4.537Y-3.216
X4.537Y-3.974
X4.537Y-4.169
X4.5855Y-1.5037
X4.5855Y-2.1029
X4.6355Y-1.5551
X4.6355Y-2.1551
X4.6855Y-1.5037
X4.6855Y-2.1029
X4.7355Y-1.5551
X4.7355Y-2.1551
X4.837Y-3.216
X4.837Y-3.974
X4.837Y-4.169
X5.285Y-3.022
X5.285Y-3.778
X5.285Y-3.906
X5.285Y-4.15
X5.585Y-3.022
X5.585Y-3.778
X5.585Y-3.906
X5.585Y-4.15
X6.025Y-4.143
X6.033Y-3.387
X6.325Y-4.143
X6.333Y-3.387
X6.439Y-3.587
X6.439Y-3.887
X6.541Y-3.086
X6.541Y-3.386
X6.541Y-3.587
X6.541Y-3.887
T3
X5.1945Y-1.7996
X6.0864Y-1.7504
X6.0864Y-1.8528
X6.3145Y-1.7996
X7.2064Y-1.7504
X7.2064Y-1.8528
T4
X4.999Y-1.6721
X4.999Y-1.7721
X4.999Y-1.8721
X4.999Y-1.9721
X6.7638Y-3.252
X6.7638Y-3.8228
X6.7677Y-2.3268
X6.7677Y-2.8976
X6.8622Y-3.252
X6.8661Y-2.3268
X6.9606Y-3.252
X6.9606Y-3.8228
X6.9646Y-2.3268
X6.9646Y-2.8976
T5
X4.8317Y-1.5009
X5.0876Y-1.5009
T4
G00X5.4079Y-1.5181
M15
G01X5.4079Y-1.5378
M16
G05
G00X5.4079Y-1.6362
M15
G01X5.4079Y-1.6559
M16
G05
G00X5.4079Y-1.7937
M15
G01X5.4079Y-1.8134
M16
G05
G00X5.4768Y-1.8528
M15
G01X5.4768Y-1.8724
M16
G05
G00X5.5732Y-1.8528
M15
G01X5.5732Y-1.8724
M16
G05
G00X5.6421Y-1.5181
M15
G01X5.6421Y-1.5378
M16
G05
G00X5.6421Y-1.6362
M15
G01X5.6421Y-1.6559
M16
G05
G00X5.6421Y-1.7937
M15
G01X5.6421Y-1.8134
M16
G05
T6
G00X6.6417Y-3.5217
M15
G01X6.6417Y-3.5728
M16
G05
G00X6.6457Y-2.5965
M15
G01X6.6457Y-2.6476
M16
G05
G00X7.0827Y-3.5217
M15
G01X7.0827Y-3.5728
M16
G05
G00X7.0866Y-2.5965
M15
G01X7.0866Y-2.6476
M16
G05
T0
M30
