M48
; DRILL file {KiCad (5.1.4-0-10_14)} date 2019 November 24, Sunday 20:29:19
; FORMAT={3:3/ absolute / metric / suppress trailing zeros}
; #@! TF.CreationDate,2019-11-24T20:29:19+09:00
; #@! TF.GenerationSoftware,Kicad,Pcbnew,(5.1.4-0-10_14)
; #@! TF.FileFunction,NonPlated,1,2,NPTH
FMAT,2
METRIC,LZ
T1C0.900
T2C1.700
T3C1.900
T4C2.100
T5C3.000
T6C4.000
T7C4.100
%
G90
G05
T1
X156031Y-038888
X159031Y-038888
T2
X10967Y-091
X11983Y-091
X179157Y-113915
X12867Y-08605
X13883Y-08605
X169343Y-111285
X14767Y-07655
X15783Y-07655
X14767Y-09555
X15783Y-09555
X10962Y-1147
X11978Y-1147
X09052Y-0816
X10068Y-0816
X14767Y-1147
X15783Y-1147
X09048Y-10068
X10064Y-10068
X12862Y-06705
X13878Y-06705
X12867Y-1147
X13883Y-1147
X10972Y-0721
X11988Y-0721
T3
X14725Y-1147
X15825Y-1147
X09006Y-10068
X10106Y-10068
X1282Y-06705
X1392Y-06705
X12825Y-1147
X13925Y-1147
X1093Y-0721
X1203Y-0721
X14725Y-07655
X15825Y-07655
X12825Y-08605
X13925Y-08605
X168937Y-111176
X179563Y-114024
X10925Y-091
X12025Y-091
X14725Y-09555
X15825Y-09555
X1092Y-1147
X1202Y-1147
X0901Y-0816
X1011Y-0816
T4
X181784Y-04164
X132206Y-04164
T5
X1098Y-0758
X11099Y-06956
X1148Y-078
X11734Y-06702
X14894Y-07401
X12875Y-08975
X13375Y-09195
X13629Y-08097
X171227Y-10916
X14775Y-08025
X15275Y-08245
X15529Y-07147
X168463Y-11488
X178018Y-10835
X12994Y-08351
X14775Y-09925
X14894Y-09301
X15275Y-10145
X15529Y-09047
X10975Y-0947
X11094Y-08846
X11475Y-0969
X11729Y-08592
X172723Y-118299
X1097Y-1184
X11089Y-11216
X1147Y-1206
X11724Y-10962
X0906Y-0853
X09179Y-07906
X0956Y-0875
X09814Y-07652
X14775Y-1184
X14894Y-11216
X15275Y-1206
X15529Y-10962
X09056Y-10438
X09175Y-09814
X09556Y-10658
X0981Y-0956
X1287Y-07075
X12989Y-06451
X1337Y-07295
X13624Y-06197
X12875Y-1184
X12994Y-11216
X13375Y-1206
X13629Y-10962
T6
X17425Y-1126
X15275Y-1147
X09556Y-10068
X1148Y-0721
X13375Y-1147
X15275Y-07655
X15275Y-09555
X11475Y-091
X0956Y-0816
X1337Y-06705
X13375Y-08605
X1147Y-1147
T7
X10287Y-111303
X162389Y-070866
X162389Y-111303
X10287Y-070866
T0
M30
