G04 #@! TF.GenerationSoftware,KiCad,Pcbnew,(5.1.4-0-10_14)*
G04 #@! TF.CreationDate,2019-11-24T20:29:24+09:00*
G04 #@! TF.ProjectId,palette1202-PM,70616c65-7474-4653-9132-30322d504d2e,rev?*
G04 #@! TF.SameCoordinates,Original*
G04 #@! TF.FileFunction,Soldermask,Bot*
G04 #@! TF.FilePolarity,Negative*
%FSLAX46Y46*%
G04 Gerber Fmt 4.6, Leading zero omitted, Abs format (unit mm)*
G04 Created by KiCad (PCBNEW (5.1.4-0-10_14)) date 2019-11-24 20:29:24*
%MOMM*%
%LPD*%
G04 APERTURE LIST*
%ADD10C,0.100000*%
G04 APERTURE END LIST*
D10*
G36*
X123380700Y-123329900D02*
G01*
X121881700Y-123329900D01*
X121881700Y-121830900D01*
X123380700Y-121830900D01*
X123380700Y-123329900D01*
X123380700Y-123329900D01*
G37*
G36*
X161499500Y-123184500D02*
G01*
X160000500Y-123184500D01*
X160000500Y-121685500D01*
X161499500Y-121685500D01*
X161499500Y-123184500D01*
X161499500Y-123184500D01*
G37*
G36*
X142699500Y-123184500D02*
G01*
X141200500Y-123184500D01*
X141200500Y-121685500D01*
X142699500Y-121685500D01*
X142699500Y-123184500D01*
X142699500Y-123184500D01*
G37*
G36*
X163749500Y-123184500D02*
G01*
X162250500Y-123184500D01*
X162250500Y-121685500D01*
X163749500Y-121685500D01*
X163749500Y-123184500D01*
X163749500Y-123184500D01*
G37*
G36*
X153052585Y-119078802D02*
G01*
X153202410Y-119108604D01*
X153484674Y-119225521D01*
X153738705Y-119395259D01*
X153954741Y-119611295D01*
X154124479Y-119865326D01*
X154241396Y-120147590D01*
X154241396Y-120147591D01*
X154301404Y-120449270D01*
X154308517Y-120472719D01*
X154320068Y-120494330D01*
X154335613Y-120513272D01*
X154354555Y-120528817D01*
X154376166Y-120540368D01*
X154399615Y-120547481D01*
X154424001Y-120549883D01*
X154448387Y-120547481D01*
X154471836Y-120540368D01*
X154493447Y-120528817D01*
X154512389Y-120513272D01*
X154527934Y-120494330D01*
X154539485Y-120472719D01*
X154546598Y-120449270D01*
X154549000Y-120424884D01*
X154549000Y-119549000D01*
X156551000Y-119549000D01*
X156551000Y-121651000D01*
X154549000Y-121651000D01*
X154549000Y-120775116D01*
X154546598Y-120750730D01*
X154539485Y-120727281D01*
X154527934Y-120705670D01*
X154512389Y-120686728D01*
X154493447Y-120671183D01*
X154471836Y-120659632D01*
X154448387Y-120652519D01*
X154424001Y-120650117D01*
X154399615Y-120652519D01*
X154376166Y-120659632D01*
X154354555Y-120671183D01*
X154335613Y-120686728D01*
X154320068Y-120705670D01*
X154308517Y-120727281D01*
X154301404Y-120750730D01*
X154301000Y-120752760D01*
X154241396Y-121052410D01*
X154124479Y-121334674D01*
X153954741Y-121588705D01*
X153738705Y-121804741D01*
X153484674Y-121974479D01*
X153202410Y-122091396D01*
X153052585Y-122121198D01*
X152902761Y-122151000D01*
X152597239Y-122151000D01*
X152447415Y-122121198D01*
X152297590Y-122091396D01*
X152015326Y-121974479D01*
X151761295Y-121804741D01*
X151545259Y-121588705D01*
X151375521Y-121334674D01*
X151258604Y-121052410D01*
X151199000Y-120752760D01*
X151199000Y-120447240D01*
X151258604Y-120147590D01*
X151375521Y-119865326D01*
X151545259Y-119611295D01*
X151761295Y-119395259D01*
X152015326Y-119225521D01*
X152297590Y-119108604D01*
X152447415Y-119078802D01*
X152597239Y-119049000D01*
X152902761Y-119049000D01*
X153052585Y-119078802D01*
X153052585Y-119078802D01*
G37*
G36*
X134052585Y-119078802D02*
G01*
X134202410Y-119108604D01*
X134484674Y-119225521D01*
X134738705Y-119395259D01*
X134954741Y-119611295D01*
X135124479Y-119865326D01*
X135241396Y-120147590D01*
X135241396Y-120147591D01*
X135301404Y-120449270D01*
X135308517Y-120472719D01*
X135320068Y-120494330D01*
X135335613Y-120513272D01*
X135354555Y-120528817D01*
X135376166Y-120540368D01*
X135399615Y-120547481D01*
X135424001Y-120549883D01*
X135448387Y-120547481D01*
X135471836Y-120540368D01*
X135493447Y-120528817D01*
X135512389Y-120513272D01*
X135527934Y-120494330D01*
X135539485Y-120472719D01*
X135546598Y-120449270D01*
X135549000Y-120424884D01*
X135549000Y-119549000D01*
X137551000Y-119549000D01*
X137551000Y-121651000D01*
X135549000Y-121651000D01*
X135549000Y-120775116D01*
X135546598Y-120750730D01*
X135539485Y-120727281D01*
X135527934Y-120705670D01*
X135512389Y-120686728D01*
X135493447Y-120671183D01*
X135471836Y-120659632D01*
X135448387Y-120652519D01*
X135424001Y-120650117D01*
X135399615Y-120652519D01*
X135376166Y-120659632D01*
X135354555Y-120671183D01*
X135335613Y-120686728D01*
X135320068Y-120705670D01*
X135308517Y-120727281D01*
X135301404Y-120750730D01*
X135301000Y-120752760D01*
X135241396Y-121052410D01*
X135124479Y-121334674D01*
X134954741Y-121588705D01*
X134738705Y-121804741D01*
X134484674Y-121974479D01*
X134202410Y-122091396D01*
X134052585Y-122121198D01*
X133902761Y-122151000D01*
X133597239Y-122151000D01*
X133447415Y-122121198D01*
X133297590Y-122091396D01*
X133015326Y-121974479D01*
X132761295Y-121804741D01*
X132545259Y-121588705D01*
X132375521Y-121334674D01*
X132258604Y-121052410D01*
X132199000Y-120752760D01*
X132199000Y-120447240D01*
X132258604Y-120147590D01*
X132375521Y-119865326D01*
X132545259Y-119611295D01*
X132761295Y-119395259D01*
X133015326Y-119225521D01*
X133297590Y-119108604D01*
X133447415Y-119078802D01*
X133597239Y-119049000D01*
X133902761Y-119049000D01*
X134052585Y-119078802D01*
X134052585Y-119078802D01*
G37*
G36*
X115002585Y-119078802D02*
G01*
X115152410Y-119108604D01*
X115434674Y-119225521D01*
X115688705Y-119395259D01*
X115904741Y-119611295D01*
X116074479Y-119865326D01*
X116191396Y-120147590D01*
X116191396Y-120147591D01*
X116251404Y-120449270D01*
X116258517Y-120472719D01*
X116270068Y-120494330D01*
X116285613Y-120513272D01*
X116304555Y-120528817D01*
X116326166Y-120540368D01*
X116349615Y-120547481D01*
X116374001Y-120549883D01*
X116398387Y-120547481D01*
X116421836Y-120540368D01*
X116443447Y-120528817D01*
X116462389Y-120513272D01*
X116477934Y-120494330D01*
X116489485Y-120472719D01*
X116496598Y-120449270D01*
X116499000Y-120424884D01*
X116499000Y-119549000D01*
X118501000Y-119549000D01*
X118501000Y-121651000D01*
X116499000Y-121651000D01*
X116499000Y-120775116D01*
X116496598Y-120750730D01*
X116489485Y-120727281D01*
X116477934Y-120705670D01*
X116462389Y-120686728D01*
X116443447Y-120671183D01*
X116421836Y-120659632D01*
X116398387Y-120652519D01*
X116374001Y-120650117D01*
X116349615Y-120652519D01*
X116326166Y-120659632D01*
X116304555Y-120671183D01*
X116285613Y-120686728D01*
X116270068Y-120705670D01*
X116258517Y-120727281D01*
X116251404Y-120750730D01*
X116251000Y-120752760D01*
X116191396Y-121052410D01*
X116074479Y-121334674D01*
X115904741Y-121588705D01*
X115688705Y-121804741D01*
X115434674Y-121974479D01*
X115152410Y-122091396D01*
X115002585Y-122121198D01*
X114852761Y-122151000D01*
X114547239Y-122151000D01*
X114397415Y-122121198D01*
X114247590Y-122091396D01*
X113965326Y-121974479D01*
X113711295Y-121804741D01*
X113495259Y-121588705D01*
X113325521Y-121334674D01*
X113208604Y-121052410D01*
X113149000Y-120752760D01*
X113149000Y-120447240D01*
X113208604Y-120147590D01*
X113325521Y-119865326D01*
X113495259Y-119611295D01*
X113711295Y-119395259D01*
X113965326Y-119225521D01*
X114247590Y-119108604D01*
X114397415Y-119078802D01*
X114547239Y-119049000D01*
X114852761Y-119049000D01*
X115002585Y-119078802D01*
X115002585Y-119078802D01*
G37*
G36*
X123157200Y-121246400D02*
G01*
X122105200Y-121246400D01*
X122105200Y-119844400D01*
X123157200Y-119844400D01*
X123157200Y-121246400D01*
X123157200Y-121246400D01*
G37*
G36*
X163526000Y-121101000D02*
G01*
X162474000Y-121101000D01*
X162474000Y-119699000D01*
X163526000Y-119699000D01*
X163526000Y-121101000D01*
X163526000Y-121101000D01*
G37*
G36*
X142476000Y-121101000D02*
G01*
X141424000Y-121101000D01*
X141424000Y-119699000D01*
X142476000Y-119699000D01*
X142476000Y-121101000D01*
X142476000Y-121101000D01*
G37*
G36*
X161276000Y-121101000D02*
G01*
X160224000Y-121101000D01*
X160224000Y-119699000D01*
X161276000Y-119699000D01*
X161276000Y-121101000D01*
X161276000Y-121101000D01*
G37*
G36*
X176666471Y-118267546D02*
G01*
X176122433Y-120297922D01*
X174188649Y-119779766D01*
X174428311Y-118885334D01*
X174432301Y-118861166D01*
X174431500Y-118836675D01*
X174425935Y-118812811D01*
X174415822Y-118790491D01*
X174401549Y-118770573D01*
X174399302Y-118768469D01*
X174409854Y-118765268D01*
X174431465Y-118753717D01*
X174450407Y-118738172D01*
X174465952Y-118719230D01*
X174477503Y-118697619D01*
X174482756Y-118682146D01*
X174732687Y-117749390D01*
X176666471Y-118267546D01*
X176666471Y-118267546D01*
G37*
G36*
X148052585Y-116878802D02*
G01*
X148202410Y-116908604D01*
X148484674Y-117025521D01*
X148738705Y-117195259D01*
X148954741Y-117411295D01*
X149124479Y-117665326D01*
X149199545Y-117846553D01*
X149241396Y-117947591D01*
X149301000Y-118247239D01*
X149301000Y-118552761D01*
X149281701Y-118649784D01*
X149241396Y-118852410D01*
X149124479Y-119134674D01*
X148954741Y-119388705D01*
X148738705Y-119604741D01*
X148484674Y-119774479D01*
X148202410Y-119891396D01*
X148052585Y-119921198D01*
X147902761Y-119951000D01*
X147597239Y-119951000D01*
X147447415Y-119921198D01*
X147297590Y-119891396D01*
X147015326Y-119774479D01*
X146761295Y-119604741D01*
X146545259Y-119388705D01*
X146375521Y-119134674D01*
X146258604Y-118852410D01*
X146218299Y-118649784D01*
X146199000Y-118552761D01*
X146199000Y-118247239D01*
X146258604Y-117947591D01*
X146300455Y-117846553D01*
X146375521Y-117665326D01*
X146545259Y-117411295D01*
X146761295Y-117195259D01*
X147015326Y-117025521D01*
X147297590Y-116908604D01*
X147447415Y-116878802D01*
X147597239Y-116849000D01*
X147902761Y-116849000D01*
X148052585Y-116878802D01*
X148052585Y-116878802D01*
G37*
G36*
X110002585Y-116878802D02*
G01*
X110152410Y-116908604D01*
X110434674Y-117025521D01*
X110688705Y-117195259D01*
X110904741Y-117411295D01*
X111074479Y-117665326D01*
X111149545Y-117846553D01*
X111191396Y-117947591D01*
X111251000Y-118247239D01*
X111251000Y-118552761D01*
X111231701Y-118649784D01*
X111191396Y-118852410D01*
X111074479Y-119134674D01*
X110904741Y-119388705D01*
X110688705Y-119604741D01*
X110434674Y-119774479D01*
X110152410Y-119891396D01*
X110002585Y-119921198D01*
X109852761Y-119951000D01*
X109547239Y-119951000D01*
X109397415Y-119921198D01*
X109247590Y-119891396D01*
X108965326Y-119774479D01*
X108711295Y-119604741D01*
X108495259Y-119388705D01*
X108325521Y-119134674D01*
X108208604Y-118852410D01*
X108168299Y-118649784D01*
X108149000Y-118552761D01*
X108149000Y-118247239D01*
X108208604Y-117947591D01*
X108250455Y-117846553D01*
X108325521Y-117665326D01*
X108495259Y-117411295D01*
X108711295Y-117195259D01*
X108965326Y-117025521D01*
X109247590Y-116908604D01*
X109397415Y-116878802D01*
X109547239Y-116849000D01*
X109852761Y-116849000D01*
X110002585Y-116878802D01*
X110002585Y-116878802D01*
G37*
G36*
X129052585Y-116878802D02*
G01*
X129202410Y-116908604D01*
X129484674Y-117025521D01*
X129738705Y-117195259D01*
X129954741Y-117411295D01*
X130124479Y-117665326D01*
X130199545Y-117846553D01*
X130241396Y-117947591D01*
X130301000Y-118247239D01*
X130301000Y-118552761D01*
X130281701Y-118649784D01*
X130241396Y-118852410D01*
X130124479Y-119134674D01*
X129954741Y-119388705D01*
X129738705Y-119604741D01*
X129484674Y-119774479D01*
X129202410Y-119891396D01*
X129052585Y-119921198D01*
X128902761Y-119951000D01*
X128597239Y-119951000D01*
X128447415Y-119921198D01*
X128297590Y-119891396D01*
X128015326Y-119774479D01*
X127761295Y-119604741D01*
X127545259Y-119388705D01*
X127375521Y-119134674D01*
X127258604Y-118852410D01*
X127218299Y-118649784D01*
X127199000Y-118552761D01*
X127199000Y-118247239D01*
X127258604Y-117947591D01*
X127300455Y-117846553D01*
X127375521Y-117665326D01*
X127545259Y-117411295D01*
X127761295Y-117195259D01*
X128015326Y-117025521D01*
X128297590Y-116908604D01*
X128447415Y-116878802D01*
X128597239Y-116849000D01*
X128902761Y-116849000D01*
X129052585Y-116878802D01*
X129052585Y-116878802D01*
G37*
G36*
X173025553Y-116777764D02*
G01*
X173175378Y-116807566D01*
X173457642Y-116924483D01*
X173711673Y-117094221D01*
X173927709Y-117310257D01*
X174097447Y-117564288D01*
X174152169Y-117696400D01*
X174214364Y-117846553D01*
X174273968Y-118146201D01*
X174273968Y-118451723D01*
X174239422Y-118625398D01*
X174237020Y-118649784D01*
X174239422Y-118674170D01*
X174246535Y-118697619D01*
X174258086Y-118719230D01*
X174270186Y-118733974D01*
X174267390Y-118734626D01*
X174245070Y-118744739D01*
X174225152Y-118759012D01*
X174208402Y-118776896D01*
X174192086Y-118805156D01*
X174097447Y-119033636D01*
X173927709Y-119287667D01*
X173711673Y-119503703D01*
X173457642Y-119673441D01*
X173175378Y-119790358D01*
X173025553Y-119820160D01*
X172875729Y-119849962D01*
X172570207Y-119849962D01*
X172420383Y-119820160D01*
X172270558Y-119790358D01*
X171988294Y-119673441D01*
X171734263Y-119503703D01*
X171518227Y-119287667D01*
X171348489Y-119033636D01*
X171231572Y-118751372D01*
X171171968Y-118451722D01*
X171171968Y-118146202D01*
X171231572Y-117846552D01*
X171348489Y-117564288D01*
X171518227Y-117310257D01*
X171734263Y-117094221D01*
X171988294Y-116924483D01*
X172270558Y-116807566D01*
X172420383Y-116777764D01*
X172570207Y-116747962D01*
X172875729Y-116747962D01*
X173025553Y-116777764D01*
X173025553Y-116777764D01*
G37*
G36*
X126701000Y-119451000D02*
G01*
X124599000Y-119451000D01*
X124599000Y-117349000D01*
X126701000Y-117349000D01*
X126701000Y-119451000D01*
X126701000Y-119451000D01*
G37*
G36*
X107651000Y-119451000D02*
G01*
X105549000Y-119451000D01*
X105549000Y-117349000D01*
X107651000Y-117349000D01*
X107651000Y-119451000D01*
X107651000Y-119451000D01*
G37*
G36*
X145701000Y-119451000D02*
G01*
X143599000Y-119451000D01*
X143599000Y-117349000D01*
X145701000Y-117349000D01*
X145701000Y-119451000D01*
X145701000Y-119451000D01*
G37*
G36*
X123157200Y-117696400D02*
G01*
X122105200Y-117696400D01*
X122105200Y-116294400D01*
X123157200Y-116294400D01*
X123157200Y-117696400D01*
X123157200Y-117696400D01*
G37*
G36*
X163526000Y-117551000D02*
G01*
X162474000Y-117551000D01*
X162474000Y-116149000D01*
X163526000Y-116149000D01*
X163526000Y-117551000D01*
X163526000Y-117551000D01*
G37*
G36*
X161276000Y-117551000D02*
G01*
X160224000Y-117551000D01*
X160224000Y-116149000D01*
X161276000Y-116149000D01*
X161276000Y-117551000D01*
X161276000Y-117551000D01*
G37*
G36*
X142476000Y-117551000D02*
G01*
X141424000Y-117551000D01*
X141424000Y-116149000D01*
X142476000Y-116149000D01*
X142476000Y-117551000D01*
X142476000Y-117551000D01*
G37*
G36*
X153348254Y-112727818D02*
G01*
X153721511Y-112882426D01*
X153721513Y-112882427D01*
X154057436Y-113106884D01*
X154343116Y-113392564D01*
X154555889Y-113711000D01*
X154567574Y-113728489D01*
X154722182Y-114101746D01*
X154801000Y-114497993D01*
X154801000Y-114902007D01*
X154722182Y-115298254D01*
X154571293Y-115662532D01*
X154567573Y-115671513D01*
X154343116Y-116007436D01*
X154057436Y-116293116D01*
X153721513Y-116517573D01*
X153721512Y-116517574D01*
X153721511Y-116517574D01*
X153348254Y-116672182D01*
X152952007Y-116751000D01*
X152547993Y-116751000D01*
X152151746Y-116672182D01*
X151778489Y-116517574D01*
X151778488Y-116517574D01*
X151778487Y-116517573D01*
X151442564Y-116293116D01*
X151156884Y-116007436D01*
X150932427Y-115671513D01*
X150928707Y-115662532D01*
X150777818Y-115298254D01*
X150699000Y-114902007D01*
X150699000Y-114497993D01*
X150777818Y-114101746D01*
X150932426Y-113728489D01*
X150944112Y-113711000D01*
X151156884Y-113392564D01*
X151442564Y-113106884D01*
X151778487Y-112882427D01*
X151778489Y-112882426D01*
X152151746Y-112727818D01*
X152547993Y-112649000D01*
X152952007Y-112649000D01*
X153348254Y-112727818D01*
X153348254Y-112727818D01*
G37*
G36*
X134348254Y-112727818D02*
G01*
X134721511Y-112882426D01*
X134721513Y-112882427D01*
X135057436Y-113106884D01*
X135343116Y-113392564D01*
X135555889Y-113711000D01*
X135567574Y-113728489D01*
X135722182Y-114101746D01*
X135801000Y-114497993D01*
X135801000Y-114902007D01*
X135722182Y-115298254D01*
X135571293Y-115662532D01*
X135567573Y-115671513D01*
X135343116Y-116007436D01*
X135057436Y-116293116D01*
X134721513Y-116517573D01*
X134721512Y-116517574D01*
X134721511Y-116517574D01*
X134348254Y-116672182D01*
X133952007Y-116751000D01*
X133547993Y-116751000D01*
X133151746Y-116672182D01*
X132778489Y-116517574D01*
X132778488Y-116517574D01*
X132778487Y-116517573D01*
X132442564Y-116293116D01*
X132156884Y-116007436D01*
X131932427Y-115671513D01*
X131928707Y-115662532D01*
X131777818Y-115298254D01*
X131699000Y-114902007D01*
X131699000Y-114497993D01*
X131777818Y-114101746D01*
X131932426Y-113728489D01*
X131944112Y-113711000D01*
X132156884Y-113392564D01*
X132442564Y-113106884D01*
X132778487Y-112882427D01*
X132778489Y-112882426D01*
X133151746Y-112727818D01*
X133547993Y-112649000D01*
X133952007Y-112649000D01*
X134348254Y-112727818D01*
X134348254Y-112727818D01*
G37*
G36*
X115298254Y-112727818D02*
G01*
X115671511Y-112882426D01*
X115671513Y-112882427D01*
X116007436Y-113106884D01*
X116293116Y-113392564D01*
X116505889Y-113711000D01*
X116517574Y-113728489D01*
X116672182Y-114101746D01*
X116751000Y-114497993D01*
X116751000Y-114902007D01*
X116672182Y-115298254D01*
X116521293Y-115662532D01*
X116517573Y-115671513D01*
X116293116Y-116007436D01*
X116007436Y-116293116D01*
X115671513Y-116517573D01*
X115671512Y-116517574D01*
X115671511Y-116517574D01*
X115298254Y-116672182D01*
X114902007Y-116751000D01*
X114497993Y-116751000D01*
X114101746Y-116672182D01*
X113728489Y-116517574D01*
X113728488Y-116517574D01*
X113728487Y-116517573D01*
X113392564Y-116293116D01*
X113106884Y-116007436D01*
X112882427Y-115671513D01*
X112878707Y-115662532D01*
X112727818Y-115298254D01*
X112649000Y-114902007D01*
X112649000Y-114497993D01*
X112727818Y-114101746D01*
X112882426Y-113728489D01*
X112894112Y-113711000D01*
X113106884Y-113392564D01*
X113392564Y-113106884D01*
X113728487Y-112882427D01*
X113728489Y-112882426D01*
X114101746Y-112727818D01*
X114497993Y-112649000D01*
X114902007Y-112649000D01*
X115298254Y-112727818D01*
X115298254Y-112727818D01*
G37*
G36*
X168673903Y-113340447D02*
G01*
X168915150Y-113388434D01*
X169197414Y-113505351D01*
X169451445Y-113675089D01*
X169667481Y-113891125D01*
X169837219Y-114145156D01*
X169954136Y-114427420D01*
X169954136Y-114427421D01*
X170010993Y-114713257D01*
X170013740Y-114727070D01*
X170013740Y-115032590D01*
X169954136Y-115332240D01*
X169837219Y-115614504D01*
X169667481Y-115868535D01*
X169451445Y-116084571D01*
X169197414Y-116254309D01*
X168915150Y-116371226D01*
X168765325Y-116401028D01*
X168615501Y-116430830D01*
X168309979Y-116430830D01*
X168160155Y-116401028D01*
X168010330Y-116371226D01*
X167728066Y-116254309D01*
X167474035Y-116084571D01*
X167257999Y-115868535D01*
X167088261Y-115614504D01*
X166971344Y-115332240D01*
X166911740Y-115032590D01*
X166911740Y-114727070D01*
X166914488Y-114713257D01*
X166971344Y-114427421D01*
X166971344Y-114427420D01*
X167088261Y-114145156D01*
X167257999Y-113891125D01*
X167474035Y-113675089D01*
X167728066Y-113505351D01*
X168010330Y-113388434D01*
X168251577Y-113340447D01*
X168309979Y-113328830D01*
X168615501Y-113328830D01*
X168673903Y-113340447D01*
X168673903Y-113340447D01*
G37*
G36*
X122725625Y-114214999D02*
G01*
X122849821Y-114239702D01*
X122986222Y-114296201D01*
X123108979Y-114378225D01*
X123213375Y-114482621D01*
X123295399Y-114605378D01*
X123351898Y-114741779D01*
X123380700Y-114886581D01*
X123380700Y-115034219D01*
X123351898Y-115179021D01*
X123295399Y-115315422D01*
X123213375Y-115438179D01*
X123108979Y-115542575D01*
X122986222Y-115624599D01*
X122849821Y-115681098D01*
X122725625Y-115705801D01*
X122705020Y-115709900D01*
X122557380Y-115709900D01*
X122536775Y-115705801D01*
X122412579Y-115681098D01*
X122276178Y-115624599D01*
X122153421Y-115542575D01*
X122049025Y-115438179D01*
X121967001Y-115315422D01*
X121910502Y-115179021D01*
X121881700Y-115034219D01*
X121881700Y-114886581D01*
X121910502Y-114741779D01*
X121967001Y-114605378D01*
X122049025Y-114482621D01*
X122153421Y-114378225D01*
X122276178Y-114296201D01*
X122412579Y-114239702D01*
X122536775Y-114214999D01*
X122557380Y-114210900D01*
X122705020Y-114210900D01*
X122725625Y-114214999D01*
X122725625Y-114214999D01*
G37*
G36*
X147408918Y-113711000D02*
G01*
X147541981Y-113737468D01*
X147662310Y-113787311D01*
X147667560Y-113789485D01*
X147691009Y-113796598D01*
X147715395Y-113799000D01*
X147758742Y-113799000D01*
X147783512Y-113803927D01*
X147932812Y-113833624D01*
X148096784Y-113901544D01*
X148244354Y-114000147D01*
X148369853Y-114125646D01*
X148468456Y-114273216D01*
X148536376Y-114437188D01*
X148563227Y-114572181D01*
X148568041Y-114596380D01*
X148571000Y-114611259D01*
X148571000Y-114788741D01*
X148536376Y-114962812D01*
X148468456Y-115126784D01*
X148369853Y-115274354D01*
X148244354Y-115399853D01*
X148096784Y-115498456D01*
X147932812Y-115566376D01*
X147783512Y-115596073D01*
X147758742Y-115601000D01*
X147715395Y-115601000D01*
X147691009Y-115603402D01*
X147667560Y-115610515D01*
X147541981Y-115662532D01*
X147448649Y-115681097D01*
X147348591Y-115701000D01*
X147151409Y-115701000D01*
X147051351Y-115681097D01*
X146958019Y-115662532D01*
X146775849Y-115587074D01*
X146611900Y-115477527D01*
X146472473Y-115338100D01*
X146362926Y-115174151D01*
X146287468Y-114991981D01*
X146249000Y-114798590D01*
X146249000Y-114601410D01*
X146250001Y-114596380D01*
X146283609Y-114427420D01*
X146287468Y-114408019D01*
X146362926Y-114225849D01*
X146472473Y-114061900D01*
X146611900Y-113922473D01*
X146775849Y-113812926D01*
X146958019Y-113737468D01*
X147091082Y-113711000D01*
X147151409Y-113699000D01*
X147348591Y-113699000D01*
X147408918Y-113711000D01*
X147408918Y-113711000D01*
G37*
G36*
X158408918Y-113711000D02*
G01*
X158541981Y-113737468D01*
X158724151Y-113812926D01*
X158888100Y-113922473D01*
X159027527Y-114061900D01*
X159137074Y-114225849D01*
X159212532Y-114408019D01*
X159216391Y-114427420D01*
X159250000Y-114596380D01*
X159251000Y-114601410D01*
X159251000Y-114798590D01*
X159212532Y-114991981D01*
X159137074Y-115174151D01*
X159027527Y-115338100D01*
X158888100Y-115477527D01*
X158724151Y-115587074D01*
X158541981Y-115662532D01*
X158448649Y-115681097D01*
X158348591Y-115701000D01*
X158151409Y-115701000D01*
X158051351Y-115681097D01*
X157958019Y-115662532D01*
X157832440Y-115610515D01*
X157808991Y-115603402D01*
X157784605Y-115601000D01*
X157741258Y-115601000D01*
X157716488Y-115596073D01*
X157567188Y-115566376D01*
X157403216Y-115498456D01*
X157255646Y-115399853D01*
X157130147Y-115274354D01*
X157031544Y-115126784D01*
X156963624Y-114962812D01*
X156929000Y-114788741D01*
X156929000Y-114611259D01*
X156931960Y-114596380D01*
X156936773Y-114572181D01*
X156963624Y-114437188D01*
X157031544Y-114273216D01*
X157130147Y-114125646D01*
X157255646Y-114000147D01*
X157403216Y-113901544D01*
X157567188Y-113833624D01*
X157716488Y-113803927D01*
X157741258Y-113799000D01*
X157784605Y-113799000D01*
X157808991Y-113796598D01*
X157832440Y-113789485D01*
X157837690Y-113787311D01*
X157958019Y-113737468D01*
X158091082Y-113711000D01*
X158151409Y-113699000D01*
X158348591Y-113699000D01*
X158408918Y-113711000D01*
X158408918Y-113711000D01*
G37*
G36*
X120358918Y-113711000D02*
G01*
X120491981Y-113737468D01*
X120674151Y-113812926D01*
X120838100Y-113922473D01*
X120977527Y-114061900D01*
X121087074Y-114225849D01*
X121162532Y-114408019D01*
X121166391Y-114427420D01*
X121200000Y-114596380D01*
X121201000Y-114601410D01*
X121201000Y-114798590D01*
X121162532Y-114991981D01*
X121087074Y-115174151D01*
X120977527Y-115338100D01*
X120838100Y-115477527D01*
X120674151Y-115587074D01*
X120491981Y-115662532D01*
X120398649Y-115681097D01*
X120298591Y-115701000D01*
X120101409Y-115701000D01*
X120001351Y-115681097D01*
X119908019Y-115662532D01*
X119782440Y-115610515D01*
X119758991Y-115603402D01*
X119734605Y-115601000D01*
X119691258Y-115601000D01*
X119666488Y-115596073D01*
X119517188Y-115566376D01*
X119353216Y-115498456D01*
X119205646Y-115399853D01*
X119080147Y-115274354D01*
X118981544Y-115126784D01*
X118913624Y-114962812D01*
X118879000Y-114788741D01*
X118879000Y-114611259D01*
X118881960Y-114596380D01*
X118886773Y-114572181D01*
X118913624Y-114437188D01*
X118981544Y-114273216D01*
X119080147Y-114125646D01*
X119205646Y-114000147D01*
X119353216Y-113901544D01*
X119517188Y-113833624D01*
X119666488Y-113803927D01*
X119691258Y-113799000D01*
X119734605Y-113799000D01*
X119758991Y-113796598D01*
X119782440Y-113789485D01*
X119787690Y-113787311D01*
X119908019Y-113737468D01*
X120041082Y-113711000D01*
X120101409Y-113699000D01*
X120298591Y-113699000D01*
X120358918Y-113711000D01*
X120358918Y-113711000D01*
G37*
G36*
X109358918Y-113711000D02*
G01*
X109491981Y-113737468D01*
X109612310Y-113787311D01*
X109617560Y-113789485D01*
X109641009Y-113796598D01*
X109665395Y-113799000D01*
X109708742Y-113799000D01*
X109733512Y-113803927D01*
X109882812Y-113833624D01*
X110046784Y-113901544D01*
X110194354Y-114000147D01*
X110319853Y-114125646D01*
X110418456Y-114273216D01*
X110486376Y-114437188D01*
X110513227Y-114572181D01*
X110518041Y-114596380D01*
X110521000Y-114611259D01*
X110521000Y-114788741D01*
X110486376Y-114962812D01*
X110418456Y-115126784D01*
X110319853Y-115274354D01*
X110194354Y-115399853D01*
X110046784Y-115498456D01*
X109882812Y-115566376D01*
X109733512Y-115596073D01*
X109708742Y-115601000D01*
X109665395Y-115601000D01*
X109641009Y-115603402D01*
X109617560Y-115610515D01*
X109491981Y-115662532D01*
X109398649Y-115681097D01*
X109298591Y-115701000D01*
X109101409Y-115701000D01*
X109001351Y-115681097D01*
X108908019Y-115662532D01*
X108725849Y-115587074D01*
X108561900Y-115477527D01*
X108422473Y-115338100D01*
X108312926Y-115174151D01*
X108237468Y-114991981D01*
X108199000Y-114798590D01*
X108199000Y-114601410D01*
X108200001Y-114596380D01*
X108233609Y-114427420D01*
X108237468Y-114408019D01*
X108312926Y-114225849D01*
X108422473Y-114061900D01*
X108561900Y-113922473D01*
X108725849Y-113812926D01*
X108908019Y-113737468D01*
X109041082Y-113711000D01*
X109101409Y-113699000D01*
X109298591Y-113699000D01*
X109358918Y-113711000D01*
X109358918Y-113711000D01*
G37*
G36*
X128408918Y-113711000D02*
G01*
X128541981Y-113737468D01*
X128662310Y-113787311D01*
X128667560Y-113789485D01*
X128691009Y-113796598D01*
X128715395Y-113799000D01*
X128758742Y-113799000D01*
X128783512Y-113803927D01*
X128932812Y-113833624D01*
X129096784Y-113901544D01*
X129244354Y-114000147D01*
X129369853Y-114125646D01*
X129468456Y-114273216D01*
X129536376Y-114437188D01*
X129563227Y-114572181D01*
X129568041Y-114596380D01*
X129571000Y-114611259D01*
X129571000Y-114788741D01*
X129536376Y-114962812D01*
X129468456Y-115126784D01*
X129369853Y-115274354D01*
X129244354Y-115399853D01*
X129096784Y-115498456D01*
X128932812Y-115566376D01*
X128783512Y-115596073D01*
X128758742Y-115601000D01*
X128715395Y-115601000D01*
X128691009Y-115603402D01*
X128667560Y-115610515D01*
X128541981Y-115662532D01*
X128448649Y-115681097D01*
X128348591Y-115701000D01*
X128151409Y-115701000D01*
X128051351Y-115681097D01*
X127958019Y-115662532D01*
X127775849Y-115587074D01*
X127611900Y-115477527D01*
X127472473Y-115338100D01*
X127362926Y-115174151D01*
X127287468Y-114991981D01*
X127249000Y-114798590D01*
X127249000Y-114601410D01*
X127250001Y-114596380D01*
X127283609Y-114427420D01*
X127287468Y-114408019D01*
X127362926Y-114225849D01*
X127472473Y-114061900D01*
X127611900Y-113922473D01*
X127775849Y-113812926D01*
X127958019Y-113737468D01*
X128091082Y-113711000D01*
X128151409Y-113699000D01*
X128348591Y-113699000D01*
X128408918Y-113711000D01*
X128408918Y-113711000D01*
G37*
G36*
X139408918Y-113711000D02*
G01*
X139541981Y-113737468D01*
X139724151Y-113812926D01*
X139888100Y-113922473D01*
X140027527Y-114061900D01*
X140137074Y-114225849D01*
X140212532Y-114408019D01*
X140216391Y-114427420D01*
X140250000Y-114596380D01*
X140251000Y-114601410D01*
X140251000Y-114798590D01*
X140212532Y-114991981D01*
X140137074Y-115174151D01*
X140027527Y-115338100D01*
X139888100Y-115477527D01*
X139724151Y-115587074D01*
X139541981Y-115662532D01*
X139448649Y-115681097D01*
X139348591Y-115701000D01*
X139151409Y-115701000D01*
X139051351Y-115681097D01*
X138958019Y-115662532D01*
X138832440Y-115610515D01*
X138808991Y-115603402D01*
X138784605Y-115601000D01*
X138741258Y-115601000D01*
X138716488Y-115596073D01*
X138567188Y-115566376D01*
X138403216Y-115498456D01*
X138255646Y-115399853D01*
X138130147Y-115274354D01*
X138031544Y-115126784D01*
X137963624Y-114962812D01*
X137929000Y-114788741D01*
X137929000Y-114611259D01*
X137931960Y-114596380D01*
X137936773Y-114572181D01*
X137963624Y-114437188D01*
X138031544Y-114273216D01*
X138130147Y-114125646D01*
X138255646Y-114000147D01*
X138403216Y-113901544D01*
X138567188Y-113833624D01*
X138716488Y-113803927D01*
X138741258Y-113799000D01*
X138784605Y-113799000D01*
X138808991Y-113796598D01*
X138832440Y-113789485D01*
X138837690Y-113787311D01*
X138958019Y-113737468D01*
X139091082Y-113711000D01*
X139151409Y-113699000D01*
X139348591Y-113699000D01*
X139408918Y-113711000D01*
X139408918Y-113711000D01*
G37*
G36*
X163094425Y-114069599D02*
G01*
X163218621Y-114094302D01*
X163355022Y-114150801D01*
X163477779Y-114232825D01*
X163582175Y-114337221D01*
X163664199Y-114459978D01*
X163720698Y-114596379D01*
X163749500Y-114741181D01*
X163749500Y-114888819D01*
X163720698Y-115033621D01*
X163664199Y-115170022D01*
X163582175Y-115292779D01*
X163477779Y-115397175D01*
X163355022Y-115479199D01*
X163218621Y-115535698D01*
X163094425Y-115560401D01*
X163073820Y-115564500D01*
X162926180Y-115564500D01*
X162905575Y-115560401D01*
X162781379Y-115535698D01*
X162644978Y-115479199D01*
X162522221Y-115397175D01*
X162417825Y-115292779D01*
X162335801Y-115170022D01*
X162279302Y-115033621D01*
X162250500Y-114888819D01*
X162250500Y-114741181D01*
X162279302Y-114596379D01*
X162335801Y-114459978D01*
X162417825Y-114337221D01*
X162522221Y-114232825D01*
X162644978Y-114150801D01*
X162781379Y-114094302D01*
X162905575Y-114069599D01*
X162926180Y-114065500D01*
X163073820Y-114065500D01*
X163094425Y-114069599D01*
X163094425Y-114069599D01*
G37*
G36*
X160844425Y-114069599D02*
G01*
X160968621Y-114094302D01*
X161105022Y-114150801D01*
X161227779Y-114232825D01*
X161332175Y-114337221D01*
X161414199Y-114459978D01*
X161470698Y-114596379D01*
X161499500Y-114741181D01*
X161499500Y-114888819D01*
X161470698Y-115033621D01*
X161414199Y-115170022D01*
X161332175Y-115292779D01*
X161227779Y-115397175D01*
X161105022Y-115479199D01*
X160968621Y-115535698D01*
X160844425Y-115560401D01*
X160823820Y-115564500D01*
X160676180Y-115564500D01*
X160655575Y-115560401D01*
X160531379Y-115535698D01*
X160394978Y-115479199D01*
X160272221Y-115397175D01*
X160167825Y-115292779D01*
X160085801Y-115170022D01*
X160029302Y-115033621D01*
X160000500Y-114888819D01*
X160000500Y-114741181D01*
X160029302Y-114596379D01*
X160085801Y-114459978D01*
X160167825Y-114337221D01*
X160272221Y-114232825D01*
X160394978Y-114150801D01*
X160531379Y-114094302D01*
X160655575Y-114069599D01*
X160676180Y-114065500D01*
X160823820Y-114065500D01*
X160844425Y-114069599D01*
X160844425Y-114069599D01*
G37*
G36*
X142044425Y-114069599D02*
G01*
X142168621Y-114094302D01*
X142305022Y-114150801D01*
X142427779Y-114232825D01*
X142532175Y-114337221D01*
X142614199Y-114459978D01*
X142670698Y-114596379D01*
X142699500Y-114741181D01*
X142699500Y-114888819D01*
X142670698Y-115033621D01*
X142614199Y-115170022D01*
X142532175Y-115292779D01*
X142427779Y-115397175D01*
X142305022Y-115479199D01*
X142168621Y-115535698D01*
X142044425Y-115560401D01*
X142023820Y-115564500D01*
X141876180Y-115564500D01*
X141855575Y-115560401D01*
X141731379Y-115535698D01*
X141594978Y-115479199D01*
X141472221Y-115397175D01*
X141367825Y-115292779D01*
X141285801Y-115170022D01*
X141229302Y-115033621D01*
X141200500Y-114888819D01*
X141200500Y-114741181D01*
X141229302Y-114596379D01*
X141285801Y-114459978D01*
X141367825Y-114337221D01*
X141472221Y-114232825D01*
X141594978Y-114150801D01*
X141731379Y-114094302D01*
X141855575Y-114069599D01*
X141876180Y-114065500D01*
X142023820Y-114065500D01*
X142044425Y-114069599D01*
X142044425Y-114069599D01*
G37*
G36*
X166755577Y-113334322D02*
G01*
X166211539Y-115364698D01*
X164181163Y-114820660D01*
X164725201Y-112790284D01*
X166755577Y-113334322D01*
X166755577Y-113334322D01*
G37*
G36*
X179289403Y-113022505D02*
G01*
X179352318Y-113035019D01*
X179376702Y-113037421D01*
X179401088Y-113035019D01*
X179464001Y-113022505D01*
X179661183Y-113022505D01*
X179724094Y-113035019D01*
X179854573Y-113060973D01*
X180036743Y-113136431D01*
X180200692Y-113245978D01*
X180340119Y-113385405D01*
X180449666Y-113549354D01*
X180523867Y-113728489D01*
X180525124Y-113731525D01*
X180563592Y-113924914D01*
X180563592Y-114122096D01*
X180557882Y-114150801D01*
X180525124Y-114315486D01*
X180449666Y-114497656D01*
X180340119Y-114661605D01*
X180200692Y-114801032D01*
X180036743Y-114910579D01*
X179854573Y-114986037D01*
X179661183Y-115024505D01*
X179464001Y-115024505D01*
X179270611Y-114986037D01*
X179088441Y-114910579D01*
X178924492Y-114801032D01*
X178924489Y-114801029D01*
X178918401Y-114796961D01*
X178910732Y-114790668D01*
X178889132Y-114779123D01*
X178730119Y-114713257D01*
X178582549Y-114614654D01*
X178457050Y-114489155D01*
X178358447Y-114341585D01*
X178290527Y-114177613D01*
X178255903Y-114003542D01*
X178255903Y-113826060D01*
X178290527Y-113651989D01*
X178358447Y-113488017D01*
X178457050Y-113340447D01*
X178582549Y-113214948D01*
X178730119Y-113116345D01*
X178894091Y-113048425D01*
X179043391Y-113018728D01*
X179068161Y-113013801D01*
X179245645Y-113013801D01*
X179289403Y-113022505D01*
X179289403Y-113022505D01*
G37*
G36*
X174848254Y-110627818D02*
G01*
X175221511Y-110782426D01*
X175221513Y-110782427D01*
X175557436Y-111006884D01*
X175843116Y-111292564D01*
X176013801Y-111548011D01*
X176067574Y-111628489D01*
X176222182Y-112001746D01*
X176301000Y-112397993D01*
X176301000Y-112802007D01*
X176222182Y-113198254D01*
X176144661Y-113385406D01*
X176067573Y-113571513D01*
X175843116Y-113907436D01*
X175557436Y-114193116D01*
X175221513Y-114417573D01*
X175221512Y-114417574D01*
X175221511Y-114417574D01*
X174848254Y-114572182D01*
X174452007Y-114651000D01*
X174047993Y-114651000D01*
X173651746Y-114572182D01*
X173278489Y-114417574D01*
X173278488Y-114417574D01*
X173278487Y-114417573D01*
X172942564Y-114193116D01*
X172656884Y-113907436D01*
X172432427Y-113571513D01*
X172355339Y-113385406D01*
X172277818Y-113198254D01*
X172199000Y-112802007D01*
X172199000Y-112397993D01*
X172277818Y-112001746D01*
X172432426Y-111628489D01*
X172486200Y-111548011D01*
X172656884Y-111292564D01*
X172942564Y-111006884D01*
X173278487Y-110782427D01*
X173278489Y-110782426D01*
X173651746Y-110627818D01*
X174047993Y-110549000D01*
X174452007Y-110549000D01*
X174848254Y-110627818D01*
X174848254Y-110627818D01*
G37*
G36*
X130187365Y-110627818D02*
G01*
X130392410Y-110668604D01*
X130674674Y-110785521D01*
X130928705Y-110955259D01*
X131144741Y-111171295D01*
X131314479Y-111425326D01*
X131398631Y-111628489D01*
X131431396Y-111707591D01*
X131486587Y-111985051D01*
X131491000Y-112007240D01*
X131491000Y-112312760D01*
X131431396Y-112612410D01*
X131314479Y-112894674D01*
X131144741Y-113148705D01*
X130928705Y-113364741D01*
X130674674Y-113534479D01*
X130392410Y-113651396D01*
X130273297Y-113675089D01*
X130092761Y-113711000D01*
X129787239Y-113711000D01*
X129606703Y-113675089D01*
X129487590Y-113651396D01*
X129205326Y-113534479D01*
X128951295Y-113364741D01*
X128735259Y-113148705D01*
X128565521Y-112894674D01*
X128448604Y-112612410D01*
X128389000Y-112312760D01*
X128389000Y-112007240D01*
X128393414Y-111985051D01*
X128448604Y-111707591D01*
X128481369Y-111628489D01*
X128565521Y-111425326D01*
X128735259Y-111171295D01*
X128951295Y-110955259D01*
X129205326Y-110785521D01*
X129487590Y-110668604D01*
X129692635Y-110627818D01*
X129787239Y-110609000D01*
X130092761Y-110609000D01*
X130187365Y-110627818D01*
X130187365Y-110627818D01*
G37*
G36*
X111137365Y-110627818D02*
G01*
X111342410Y-110668604D01*
X111624674Y-110785521D01*
X111878705Y-110955259D01*
X112094741Y-111171295D01*
X112264479Y-111425326D01*
X112348631Y-111628489D01*
X112381396Y-111707591D01*
X112436587Y-111985051D01*
X112441000Y-112007240D01*
X112441000Y-112312760D01*
X112381396Y-112612410D01*
X112264479Y-112894674D01*
X112094741Y-113148705D01*
X111878705Y-113364741D01*
X111624674Y-113534479D01*
X111342410Y-113651396D01*
X111223297Y-113675089D01*
X111042761Y-113711000D01*
X110737239Y-113711000D01*
X110556703Y-113675089D01*
X110437590Y-113651396D01*
X110155326Y-113534479D01*
X109901295Y-113364741D01*
X109685259Y-113148705D01*
X109515521Y-112894674D01*
X109398604Y-112612410D01*
X109339000Y-112312760D01*
X109339000Y-112007240D01*
X109343414Y-111985051D01*
X109398604Y-111707591D01*
X109431369Y-111628489D01*
X109515521Y-111425326D01*
X109685259Y-111171295D01*
X109901295Y-110955259D01*
X110155326Y-110785521D01*
X110437590Y-110668604D01*
X110642635Y-110627818D01*
X110737239Y-110609000D01*
X111042761Y-110609000D01*
X111137365Y-110627818D01*
X111137365Y-110627818D01*
G37*
G36*
X149187365Y-110627818D02*
G01*
X149392410Y-110668604D01*
X149674674Y-110785521D01*
X149928705Y-110955259D01*
X150144741Y-111171295D01*
X150314479Y-111425326D01*
X150398631Y-111628489D01*
X150431396Y-111707591D01*
X150486587Y-111985051D01*
X150491000Y-112007240D01*
X150491000Y-112312760D01*
X150431396Y-112612410D01*
X150314479Y-112894674D01*
X150144741Y-113148705D01*
X149928705Y-113364741D01*
X149674674Y-113534479D01*
X149392410Y-113651396D01*
X149273297Y-113675089D01*
X149092761Y-113711000D01*
X148787239Y-113711000D01*
X148606703Y-113675089D01*
X148487590Y-113651396D01*
X148205326Y-113534479D01*
X147951295Y-113364741D01*
X147735259Y-113148705D01*
X147565521Y-112894674D01*
X147448604Y-112612410D01*
X147389000Y-112312760D01*
X147389000Y-112007240D01*
X147393414Y-111985051D01*
X147448604Y-111707591D01*
X147481369Y-111628489D01*
X147565521Y-111425326D01*
X147735259Y-111171295D01*
X147951295Y-110955259D01*
X148205326Y-110785521D01*
X148487590Y-110668604D01*
X148692635Y-110627818D01*
X148787239Y-110609000D01*
X149092761Y-110609000D01*
X149187365Y-110627818D01*
X149187365Y-110627818D01*
G37*
G36*
X162866336Y-109255627D02*
G01*
X163001639Y-109282540D01*
X163383997Y-109440918D01*
X163555087Y-109555237D01*
X163693774Y-109647904D01*
X163728110Y-109670847D01*
X164020753Y-109963490D01*
X164238533Y-110289420D01*
X164250683Y-110307605D01*
X164274535Y-110365188D01*
X164409060Y-110689961D01*
X164428068Y-110785521D01*
X164489800Y-111095868D01*
X164489800Y-111509732D01*
X164461771Y-111650644D01*
X164409060Y-111915639D01*
X164250682Y-112297997D01*
X164020753Y-112642110D01*
X163728110Y-112934753D01*
X163383997Y-113164682D01*
X163001639Y-113323060D01*
X162914228Y-113340447D01*
X162595732Y-113403800D01*
X162181868Y-113403800D01*
X161863372Y-113340447D01*
X161775961Y-113323060D01*
X161393603Y-113164682D01*
X161049490Y-112934753D01*
X160756847Y-112642110D01*
X160526918Y-112297997D01*
X160368540Y-111915639D01*
X160315829Y-111650644D01*
X160287800Y-111509732D01*
X160287800Y-111095868D01*
X160349532Y-110785521D01*
X160368540Y-110689961D01*
X160503065Y-110365188D01*
X160526917Y-110307605D01*
X160539068Y-110289420D01*
X160756847Y-109963490D01*
X161049490Y-109670847D01*
X161083827Y-109647904D01*
X161222513Y-109555237D01*
X161393603Y-109440918D01*
X161775961Y-109282540D01*
X161911264Y-109255627D01*
X162181868Y-109201800D01*
X162595732Y-109201800D01*
X162866336Y-109255627D01*
X162866336Y-109255627D01*
G37*
G36*
X103347536Y-109255627D02*
G01*
X103482839Y-109282540D01*
X103865197Y-109440918D01*
X104036287Y-109555237D01*
X104174974Y-109647904D01*
X104209310Y-109670847D01*
X104501953Y-109963490D01*
X104719733Y-110289420D01*
X104731883Y-110307605D01*
X104755735Y-110365188D01*
X104890260Y-110689961D01*
X104909268Y-110785521D01*
X104971000Y-111095868D01*
X104971000Y-111509732D01*
X104942971Y-111650644D01*
X104890260Y-111915639D01*
X104731882Y-112297997D01*
X104501953Y-112642110D01*
X104209310Y-112934753D01*
X103865197Y-113164682D01*
X103482839Y-113323060D01*
X103395428Y-113340447D01*
X103076932Y-113403800D01*
X102663068Y-113403800D01*
X102344572Y-113340447D01*
X102257161Y-113323060D01*
X101874803Y-113164682D01*
X101530690Y-112934753D01*
X101238047Y-112642110D01*
X101008118Y-112297997D01*
X100849740Y-111915639D01*
X100797029Y-111650644D01*
X100769000Y-111509732D01*
X100769000Y-111095868D01*
X100830732Y-110785521D01*
X100849740Y-110689961D01*
X100984265Y-110365188D01*
X101008117Y-110307605D01*
X101020268Y-110289420D01*
X101238047Y-109963490D01*
X101530690Y-109670847D01*
X101565027Y-109647904D01*
X101703713Y-109555237D01*
X101874803Y-109440918D01*
X102257161Y-109282540D01*
X102392464Y-109255627D01*
X102663068Y-109201800D01*
X103076932Y-109201800D01*
X103347536Y-109255627D01*
X103347536Y-109255627D01*
G37*
G36*
X108851000Y-113211000D02*
G01*
X106749000Y-113211000D01*
X106749000Y-111109000D01*
X108851000Y-111109000D01*
X108851000Y-113211000D01*
X108851000Y-113211000D01*
G37*
G36*
X146901000Y-113211000D02*
G01*
X144799000Y-113211000D01*
X144799000Y-111109000D01*
X146901000Y-111109000D01*
X146901000Y-113211000D01*
X146901000Y-113211000D01*
G37*
G36*
X127901000Y-113211000D02*
G01*
X125799000Y-113211000D01*
X125799000Y-111109000D01*
X127901000Y-111109000D01*
X127901000Y-113211000D01*
X127901000Y-113211000D01*
G37*
G36*
X169229389Y-110213963D02*
G01*
X169411559Y-110289421D01*
X169575508Y-110398968D01*
X169575511Y-110398971D01*
X169581599Y-110403039D01*
X169589268Y-110409332D01*
X169610868Y-110420877D01*
X169769881Y-110486743D01*
X169917451Y-110585346D01*
X170042950Y-110710845D01*
X170141553Y-110858415D01*
X170209473Y-111022387D01*
X170244097Y-111196458D01*
X170244097Y-111373940D01*
X170209473Y-111548011D01*
X170141553Y-111711983D01*
X170042950Y-111859553D01*
X169917451Y-111985052D01*
X169769881Y-112083655D01*
X169605909Y-112151575D01*
X169456609Y-112181272D01*
X169431839Y-112186199D01*
X169254355Y-112186199D01*
X169194566Y-112174306D01*
X169147682Y-112164981D01*
X169123298Y-112162579D01*
X169098912Y-112164981D01*
X169035999Y-112177495D01*
X168838817Y-112177495D01*
X168708505Y-112151574D01*
X168645427Y-112139027D01*
X168463257Y-112063569D01*
X168299308Y-111954022D01*
X168159881Y-111814595D01*
X168050334Y-111650646D01*
X167974876Y-111468476D01*
X167936408Y-111275085D01*
X167936408Y-111077905D01*
X167953003Y-110994479D01*
X167974876Y-110884515D01*
X167999636Y-110824740D01*
X168050334Y-110702344D01*
X168159881Y-110538395D01*
X168299308Y-110398968D01*
X168463257Y-110289421D01*
X168645427Y-110213963D01*
X168838817Y-110175495D01*
X169035999Y-110175495D01*
X169229389Y-110213963D01*
X169229389Y-110213963D01*
G37*
G36*
X136454806Y-108071396D02*
G01*
X136742410Y-108128604D01*
X137024674Y-108245521D01*
X137278705Y-108415259D01*
X137494741Y-108631295D01*
X137664479Y-108885326D01*
X137781396Y-109167590D01*
X137781396Y-109167591D01*
X137815532Y-109339201D01*
X137841000Y-109467240D01*
X137841000Y-109772760D01*
X137781396Y-110072410D01*
X137664479Y-110354674D01*
X137494741Y-110608705D01*
X137278705Y-110824741D01*
X137024674Y-110994479D01*
X136742410Y-111111396D01*
X136592585Y-111141198D01*
X136442761Y-111171000D01*
X136137239Y-111171000D01*
X135987415Y-111141198D01*
X135837590Y-111111396D01*
X135555326Y-110994479D01*
X135301295Y-110824741D01*
X135085259Y-110608705D01*
X134915521Y-110354674D01*
X134798604Y-110072410D01*
X134739000Y-109772760D01*
X134739000Y-109467240D01*
X134764469Y-109339201D01*
X134798604Y-109167591D01*
X134798604Y-109167590D01*
X134915521Y-108885326D01*
X135085259Y-108631295D01*
X135301295Y-108415259D01*
X135555326Y-108245521D01*
X135837590Y-108128604D01*
X136125194Y-108071396D01*
X136137239Y-108069000D01*
X136442761Y-108069000D01*
X136454806Y-108071396D01*
X136454806Y-108071396D01*
G37*
G36*
X155454806Y-108071396D02*
G01*
X155742410Y-108128604D01*
X156024674Y-108245521D01*
X156278705Y-108415259D01*
X156494741Y-108631295D01*
X156664479Y-108885326D01*
X156781396Y-109167590D01*
X156781396Y-109167591D01*
X156815532Y-109339201D01*
X156841000Y-109467240D01*
X156841000Y-109772760D01*
X156781396Y-110072410D01*
X156664479Y-110354674D01*
X156494741Y-110608705D01*
X156278705Y-110824741D01*
X156024674Y-110994479D01*
X155742410Y-111111396D01*
X155592585Y-111141198D01*
X155442761Y-111171000D01*
X155137239Y-111171000D01*
X154987415Y-111141198D01*
X154837590Y-111111396D01*
X154555326Y-110994479D01*
X154301295Y-110824741D01*
X154085259Y-110608705D01*
X153915521Y-110354674D01*
X153798604Y-110072410D01*
X153739000Y-109772760D01*
X153739000Y-109467240D01*
X153764469Y-109339201D01*
X153798604Y-109167591D01*
X153798604Y-109167590D01*
X153915521Y-108885326D01*
X154085259Y-108631295D01*
X154301295Y-108415259D01*
X154555326Y-108245521D01*
X154837590Y-108128604D01*
X155125194Y-108071396D01*
X155137239Y-108069000D01*
X155442761Y-108069000D01*
X155454806Y-108071396D01*
X155454806Y-108071396D01*
G37*
G36*
X117404806Y-108071396D02*
G01*
X117692410Y-108128604D01*
X117974674Y-108245521D01*
X118228705Y-108415259D01*
X118444741Y-108631295D01*
X118614479Y-108885326D01*
X118731396Y-109167590D01*
X118731396Y-109167591D01*
X118765532Y-109339201D01*
X118791000Y-109467240D01*
X118791000Y-109772760D01*
X118731396Y-110072410D01*
X118614479Y-110354674D01*
X118444741Y-110608705D01*
X118228705Y-110824741D01*
X117974674Y-110994479D01*
X117692410Y-111111396D01*
X117542585Y-111141198D01*
X117392761Y-111171000D01*
X117087239Y-111171000D01*
X116937415Y-111141198D01*
X116787590Y-111111396D01*
X116505326Y-110994479D01*
X116251295Y-110824741D01*
X116035259Y-110608705D01*
X115865521Y-110354674D01*
X115748604Y-110072410D01*
X115689000Y-109772760D01*
X115689000Y-109467240D01*
X115714469Y-109339201D01*
X115748604Y-109167591D01*
X115748604Y-109167590D01*
X115865521Y-108885326D01*
X116035259Y-108631295D01*
X116251295Y-108415259D01*
X116505326Y-108245521D01*
X116787590Y-108128604D01*
X117075194Y-108071396D01*
X117087239Y-108069000D01*
X117392761Y-108069000D01*
X117404806Y-108071396D01*
X117404806Y-108071396D01*
G37*
G36*
X171529808Y-107639250D02*
G01*
X171679633Y-107669052D01*
X171961897Y-107785969D01*
X172215928Y-107955707D01*
X172431964Y-108171743D01*
X172601702Y-108425774D01*
X172718619Y-108708038D01*
X172718619Y-108708039D01*
X172778223Y-109007687D01*
X172778223Y-109313209D01*
X172752820Y-109440917D01*
X172718619Y-109612858D01*
X172601702Y-109895122D01*
X172431964Y-110149153D01*
X172215928Y-110365189D01*
X171961897Y-110534927D01*
X171679633Y-110651844D01*
X171583329Y-110671000D01*
X171379984Y-110711448D01*
X171074462Y-110711448D01*
X170871117Y-110671000D01*
X170774813Y-110651844D01*
X170492549Y-110534927D01*
X170238518Y-110365189D01*
X170022482Y-110149153D01*
X169852744Y-109895122D01*
X169735827Y-109612858D01*
X169701626Y-109440917D01*
X169676223Y-109313209D01*
X169676223Y-109007687D01*
X169735827Y-108708039D01*
X169735827Y-108708038D01*
X169852744Y-108425774D01*
X170022482Y-108171743D01*
X170238518Y-107955707D01*
X170492549Y-107785969D01*
X170774813Y-107669052D01*
X170924638Y-107639250D01*
X171074462Y-107609448D01*
X171379984Y-107609448D01*
X171529808Y-107639250D01*
X171529808Y-107639250D01*
G37*
G36*
X140401000Y-110671000D02*
G01*
X138299000Y-110671000D01*
X138299000Y-108569000D01*
X140401000Y-108569000D01*
X140401000Y-110671000D01*
X140401000Y-110671000D01*
G37*
G36*
X121351000Y-110671000D02*
G01*
X119249000Y-110671000D01*
X119249000Y-108569000D01*
X121351000Y-108569000D01*
X121351000Y-110671000D01*
X121351000Y-110671000D01*
G37*
G36*
X159401000Y-110671000D02*
G01*
X157299000Y-110671000D01*
X157299000Y-108569000D01*
X159401000Y-108569000D01*
X159401000Y-110671000D01*
X159401000Y-110671000D01*
G37*
G36*
X182261192Y-108399314D02*
G01*
X181717154Y-110429690D01*
X179686778Y-109885652D01*
X180230816Y-107855276D01*
X182261192Y-108399314D01*
X182261192Y-108399314D01*
G37*
G36*
X178320837Y-106829299D02*
G01*
X178470662Y-106859101D01*
X178752926Y-106976018D01*
X179006957Y-107145756D01*
X179222993Y-107361792D01*
X179392731Y-107615823D01*
X179509648Y-107898087D01*
X179539450Y-108047912D01*
X179569252Y-108197736D01*
X179569252Y-108503258D01*
X179539450Y-108653082D01*
X179509648Y-108802907D01*
X179392731Y-109085171D01*
X179222993Y-109339202D01*
X179006957Y-109555238D01*
X178752926Y-109724976D01*
X178470662Y-109841893D01*
X178320837Y-109871695D01*
X178171013Y-109901497D01*
X177865491Y-109901497D01*
X177715667Y-109871695D01*
X177565842Y-109841893D01*
X177283578Y-109724976D01*
X177029547Y-109555238D01*
X176813511Y-109339202D01*
X176643773Y-109085171D01*
X176526856Y-108802907D01*
X176497054Y-108653082D01*
X176467252Y-108503258D01*
X176467252Y-108197736D01*
X176497054Y-108047912D01*
X176526856Y-107898087D01*
X176643773Y-107615823D01*
X176813511Y-107361792D01*
X177029547Y-107145756D01*
X177283578Y-106976018D01*
X177565842Y-106859101D01*
X177715667Y-106829299D01*
X177865491Y-106799497D01*
X178171013Y-106799497D01*
X178320837Y-106829299D01*
X178320837Y-106829299D01*
G37*
G36*
X169529719Y-107617528D02*
G01*
X168985681Y-109647904D01*
X166955305Y-109103866D01*
X167499343Y-107073490D01*
X169529719Y-107617528D01*
X169529719Y-107617528D01*
G37*
G36*
X95862585Y-105058802D02*
G01*
X96012410Y-105088604D01*
X96294674Y-105205521D01*
X96548705Y-105375259D01*
X96764741Y-105591295D01*
X96934479Y-105845326D01*
X97051396Y-106127590D01*
X97051396Y-106127591D01*
X97111404Y-106429270D01*
X97118517Y-106452719D01*
X97130068Y-106474330D01*
X97145613Y-106493272D01*
X97164555Y-106508817D01*
X97186166Y-106520368D01*
X97209615Y-106527481D01*
X97234001Y-106529883D01*
X97258387Y-106527481D01*
X97281836Y-106520368D01*
X97303447Y-106508817D01*
X97322389Y-106493272D01*
X97337934Y-106474330D01*
X97349485Y-106452719D01*
X97356598Y-106429270D01*
X97359000Y-106404884D01*
X97359000Y-105529000D01*
X99361000Y-105529000D01*
X99361000Y-107631000D01*
X97359000Y-107631000D01*
X97359000Y-106755116D01*
X97356598Y-106730730D01*
X97349485Y-106707281D01*
X97337934Y-106685670D01*
X97322389Y-106666728D01*
X97303447Y-106651183D01*
X97281836Y-106639632D01*
X97258387Y-106632519D01*
X97234001Y-106630117D01*
X97209615Y-106632519D01*
X97186166Y-106639632D01*
X97164555Y-106651183D01*
X97145613Y-106666728D01*
X97130068Y-106685670D01*
X97118517Y-106707281D01*
X97111404Y-106730730D01*
X97111000Y-106732760D01*
X97051396Y-107032410D01*
X96934479Y-107314674D01*
X96764741Y-107568705D01*
X96548705Y-107784741D01*
X96294674Y-107954479D01*
X96012410Y-108071396D01*
X95862585Y-108101198D01*
X95712761Y-108131000D01*
X95407239Y-108131000D01*
X95257415Y-108101198D01*
X95107590Y-108071396D01*
X94825326Y-107954479D01*
X94571295Y-107784741D01*
X94355259Y-107568705D01*
X94185521Y-107314674D01*
X94068604Y-107032410D01*
X94009000Y-106732760D01*
X94009000Y-106427240D01*
X94068604Y-106127590D01*
X94185521Y-105845326D01*
X94355259Y-105591295D01*
X94571295Y-105375259D01*
X94825326Y-105205521D01*
X95107590Y-105088604D01*
X95257415Y-105058802D01*
X95407239Y-105029000D01*
X95712761Y-105029000D01*
X95862585Y-105058802D01*
X95862585Y-105058802D01*
G37*
G36*
X90862585Y-102858802D02*
G01*
X91012410Y-102888604D01*
X91294674Y-103005521D01*
X91548705Y-103175259D01*
X91764741Y-103391295D01*
X91934479Y-103645326D01*
X92051396Y-103927590D01*
X92111000Y-104227240D01*
X92111000Y-104532760D01*
X92051396Y-104832410D01*
X91934479Y-105114674D01*
X91764741Y-105368705D01*
X91548705Y-105584741D01*
X91294674Y-105754479D01*
X91012410Y-105871396D01*
X90862585Y-105901198D01*
X90712761Y-105931000D01*
X90407239Y-105931000D01*
X90257415Y-105901198D01*
X90107590Y-105871396D01*
X89825326Y-105754479D01*
X89571295Y-105584741D01*
X89355259Y-105368705D01*
X89185521Y-105114674D01*
X89068604Y-104832410D01*
X89009000Y-104532760D01*
X89009000Y-104227240D01*
X89068604Y-103927590D01*
X89185521Y-103645326D01*
X89355259Y-103391295D01*
X89571295Y-103175259D01*
X89825326Y-103005521D01*
X90107590Y-102888604D01*
X90257415Y-102858802D01*
X90407239Y-102829000D01*
X90712761Y-102829000D01*
X90862585Y-102858802D01*
X90862585Y-102858802D01*
G37*
G36*
X88511000Y-105431000D02*
G01*
X86409000Y-105431000D01*
X86409000Y-103329000D01*
X88511000Y-103329000D01*
X88511000Y-105431000D01*
X88511000Y-105431000D01*
G37*
G36*
X153052585Y-99928802D02*
G01*
X153202410Y-99958604D01*
X153484674Y-100075521D01*
X153738705Y-100245259D01*
X153954741Y-100461295D01*
X154124479Y-100715326D01*
X154218706Y-100942812D01*
X154241396Y-100997591D01*
X154301404Y-101299270D01*
X154308517Y-101322719D01*
X154320068Y-101344330D01*
X154335613Y-101363272D01*
X154354555Y-101378817D01*
X154376166Y-101390368D01*
X154399615Y-101397481D01*
X154424001Y-101399883D01*
X154448387Y-101397481D01*
X154471836Y-101390368D01*
X154493447Y-101378817D01*
X154512389Y-101363272D01*
X154527934Y-101344330D01*
X154539485Y-101322719D01*
X154546598Y-101299270D01*
X154549000Y-101274884D01*
X154549000Y-100399000D01*
X156551000Y-100399000D01*
X156551000Y-102501000D01*
X154549000Y-102501000D01*
X154549000Y-101625116D01*
X154546598Y-101600730D01*
X154539485Y-101577281D01*
X154527934Y-101555670D01*
X154512389Y-101536728D01*
X154493447Y-101521183D01*
X154471836Y-101509632D01*
X154448387Y-101502519D01*
X154424001Y-101500117D01*
X154399615Y-101502519D01*
X154376166Y-101509632D01*
X154354555Y-101521183D01*
X154335613Y-101536728D01*
X154320068Y-101555670D01*
X154308517Y-101577281D01*
X154301404Y-101600730D01*
X154285437Y-101681000D01*
X154241396Y-101902410D01*
X154124479Y-102184674D01*
X153954741Y-102438705D01*
X153738705Y-102654741D01*
X153484674Y-102824479D01*
X153202410Y-102941396D01*
X153052585Y-102971198D01*
X152902761Y-103001000D01*
X152597239Y-103001000D01*
X152447415Y-102971198D01*
X152297590Y-102941396D01*
X152015326Y-102824479D01*
X151761295Y-102654741D01*
X151545259Y-102438705D01*
X151375521Y-102184674D01*
X151258604Y-101902410D01*
X151214563Y-101681000D01*
X151199000Y-101602761D01*
X151199000Y-101297239D01*
X151258604Y-100997591D01*
X151281294Y-100942812D01*
X151375521Y-100715326D01*
X151545259Y-100461295D01*
X151761295Y-100245259D01*
X152015326Y-100075521D01*
X152297590Y-99958604D01*
X152447415Y-99928802D01*
X152597239Y-99899000D01*
X152902761Y-99899000D01*
X153052585Y-99928802D01*
X153052585Y-99928802D01*
G37*
G36*
X96158254Y-98707818D02*
G01*
X96374985Y-98797591D01*
X96531513Y-98862427D01*
X96867436Y-99086884D01*
X97153116Y-99372564D01*
X97373512Y-99702409D01*
X97377574Y-99708489D01*
X97532182Y-100081746D01*
X97611000Y-100477993D01*
X97611000Y-100882007D01*
X97532182Y-101278254D01*
X97402839Y-101590515D01*
X97377573Y-101651513D01*
X97153116Y-101987436D01*
X96867436Y-102273116D01*
X96531513Y-102497573D01*
X96531512Y-102497574D01*
X96531511Y-102497574D01*
X96158254Y-102652182D01*
X95762007Y-102731000D01*
X95357993Y-102731000D01*
X94961746Y-102652182D01*
X94588489Y-102497574D01*
X94588488Y-102497574D01*
X94588487Y-102497573D01*
X94252564Y-102273116D01*
X93966884Y-101987436D01*
X93742427Y-101651513D01*
X93717161Y-101590515D01*
X93587818Y-101278254D01*
X93509000Y-100882007D01*
X93509000Y-100477993D01*
X93587818Y-100081746D01*
X93742426Y-99708489D01*
X93746489Y-99702409D01*
X93966884Y-99372564D01*
X94252564Y-99086884D01*
X94588487Y-98862427D01*
X94745015Y-98797591D01*
X94961746Y-98707818D01*
X95357993Y-98629000D01*
X95762007Y-98629000D01*
X96158254Y-98707818D01*
X96158254Y-98707818D01*
G37*
G36*
X90218918Y-99691000D02*
G01*
X90351981Y-99717468D01*
X90451523Y-99758700D01*
X90477560Y-99769485D01*
X90501009Y-99776598D01*
X90525395Y-99779000D01*
X90568742Y-99779000D01*
X90593512Y-99783927D01*
X90742812Y-99813624D01*
X90906784Y-99881544D01*
X91054354Y-99980147D01*
X91179853Y-100105646D01*
X91278456Y-100253216D01*
X91346376Y-100417188D01*
X91381000Y-100591259D01*
X91381000Y-100768741D01*
X91346376Y-100942812D01*
X91278456Y-101106784D01*
X91179853Y-101254354D01*
X91054354Y-101379853D01*
X90906784Y-101478456D01*
X90742812Y-101546376D01*
X90593512Y-101576073D01*
X90568742Y-101581000D01*
X90525395Y-101581000D01*
X90501009Y-101583402D01*
X90477560Y-101590515D01*
X90351981Y-101642532D01*
X90158591Y-101681000D01*
X89961409Y-101681000D01*
X89864715Y-101661766D01*
X89768019Y-101642532D01*
X89619469Y-101581000D01*
X89585851Y-101567075D01*
X89585850Y-101567075D01*
X89585849Y-101567074D01*
X89421900Y-101457527D01*
X89282473Y-101318100D01*
X89172926Y-101154151D01*
X89097468Y-100971981D01*
X89059000Y-100778591D01*
X89059000Y-100581409D01*
X89097468Y-100388020D01*
X89172925Y-100205851D01*
X89239879Y-100105647D01*
X89282473Y-100041900D01*
X89421900Y-99902473D01*
X89585849Y-99792926D01*
X89768019Y-99717468D01*
X89901082Y-99691000D01*
X89961409Y-99679000D01*
X90158591Y-99679000D01*
X90218918Y-99691000D01*
X90218918Y-99691000D01*
G37*
G36*
X101218918Y-99691000D02*
G01*
X101351981Y-99717468D01*
X101534151Y-99792926D01*
X101698100Y-99902473D01*
X101837527Y-100041900D01*
X101880121Y-100105647D01*
X101947075Y-100205851D01*
X102022532Y-100388020D01*
X102061000Y-100581409D01*
X102061000Y-100778591D01*
X102022532Y-100971981D01*
X101947074Y-101154151D01*
X101837527Y-101318100D01*
X101698100Y-101457527D01*
X101534151Y-101567074D01*
X101534150Y-101567075D01*
X101534149Y-101567075D01*
X101500531Y-101581000D01*
X101351981Y-101642532D01*
X101158591Y-101681000D01*
X100961409Y-101681000D01*
X100864715Y-101661766D01*
X100768019Y-101642532D01*
X100642440Y-101590515D01*
X100618991Y-101583402D01*
X100594605Y-101581000D01*
X100551258Y-101581000D01*
X100526488Y-101576073D01*
X100377188Y-101546376D01*
X100213216Y-101478456D01*
X100065646Y-101379853D01*
X99940147Y-101254354D01*
X99841544Y-101106784D01*
X99773624Y-100942812D01*
X99739000Y-100768741D01*
X99739000Y-100591259D01*
X99773624Y-100417188D01*
X99841544Y-100253216D01*
X99940147Y-100105646D01*
X100065646Y-99980147D01*
X100213216Y-99881544D01*
X100377188Y-99813624D01*
X100526488Y-99783927D01*
X100551258Y-99779000D01*
X100594605Y-99779000D01*
X100618991Y-99776598D01*
X100642440Y-99769485D01*
X100668477Y-99758700D01*
X100768019Y-99717468D01*
X100901082Y-99691000D01*
X100961409Y-99679000D01*
X101158591Y-99679000D01*
X101218918Y-99691000D01*
X101218918Y-99691000D01*
G37*
G36*
X148052585Y-97728802D02*
G01*
X148202410Y-97758604D01*
X148484674Y-97875521D01*
X148738705Y-98045259D01*
X148954741Y-98261295D01*
X149124479Y-98515326D01*
X149241396Y-98797590D01*
X149301000Y-99097240D01*
X149301000Y-99402760D01*
X149241396Y-99702410D01*
X149124479Y-99984674D01*
X148954741Y-100238705D01*
X148738705Y-100454741D01*
X148484674Y-100624479D01*
X148202410Y-100741396D01*
X148064937Y-100768741D01*
X147902761Y-100801000D01*
X147597239Y-100801000D01*
X147435063Y-100768741D01*
X147297590Y-100741396D01*
X147015326Y-100624479D01*
X146761295Y-100454741D01*
X146545259Y-100238705D01*
X146375521Y-99984674D01*
X146258604Y-99702410D01*
X146199000Y-99402760D01*
X146199000Y-99097240D01*
X146258604Y-98797590D01*
X146375521Y-98515326D01*
X146545259Y-98261295D01*
X146761295Y-98045259D01*
X147015326Y-97875521D01*
X147297590Y-97758604D01*
X147447415Y-97728802D01*
X147597239Y-97699000D01*
X147902761Y-97699000D01*
X148052585Y-97728802D01*
X148052585Y-97728802D01*
G37*
G36*
X104649500Y-100784500D02*
G01*
X103150500Y-100784500D01*
X103150500Y-99285500D01*
X104649500Y-99285500D01*
X104649500Y-100784500D01*
X104649500Y-100784500D01*
G37*
G36*
X145701000Y-100301000D02*
G01*
X143599000Y-100301000D01*
X143599000Y-98199000D01*
X145701000Y-98199000D01*
X145701000Y-100301000D01*
X145701000Y-100301000D01*
G37*
G36*
X123787100Y-99758700D02*
G01*
X122288100Y-99758700D01*
X122288100Y-98259700D01*
X123787100Y-98259700D01*
X123787100Y-99758700D01*
X123787100Y-99758700D01*
G37*
G36*
X92052585Y-96618802D02*
G01*
X92202410Y-96648604D01*
X92484674Y-96765521D01*
X92738705Y-96935259D01*
X92954741Y-97151295D01*
X93124479Y-97405326D01*
X93241396Y-97687590D01*
X93257783Y-97769973D01*
X93293792Y-97951000D01*
X93301000Y-97987240D01*
X93301000Y-98292760D01*
X93241396Y-98592410D01*
X93124479Y-98874674D01*
X92954741Y-99128705D01*
X92738705Y-99344741D01*
X92484674Y-99514479D01*
X92202410Y-99631396D01*
X92052585Y-99661198D01*
X91902761Y-99691000D01*
X91597239Y-99691000D01*
X91447415Y-99661198D01*
X91297590Y-99631396D01*
X91015326Y-99514479D01*
X90761295Y-99344741D01*
X90545259Y-99128705D01*
X90375521Y-98874674D01*
X90258604Y-98592410D01*
X90199000Y-98292760D01*
X90199000Y-97987240D01*
X90206209Y-97951000D01*
X90242217Y-97769973D01*
X90258604Y-97687590D01*
X90375521Y-97405326D01*
X90545259Y-97151295D01*
X90761295Y-96935259D01*
X91015326Y-96765521D01*
X91297590Y-96648604D01*
X91447415Y-96618802D01*
X91597239Y-96589000D01*
X91902761Y-96589000D01*
X92052585Y-96618802D01*
X92052585Y-96618802D01*
G37*
G36*
X89711000Y-99191000D02*
G01*
X87609000Y-99191000D01*
X87609000Y-97089000D01*
X89711000Y-97089000D01*
X89711000Y-99191000D01*
X89711000Y-99191000D01*
G37*
G36*
X104426000Y-98701000D02*
G01*
X103374000Y-98701000D01*
X103374000Y-97299000D01*
X104426000Y-97299000D01*
X104426000Y-98701000D01*
X104426000Y-98701000D01*
G37*
G36*
X115052585Y-95378802D02*
G01*
X115202410Y-95408604D01*
X115484674Y-95525521D01*
X115738705Y-95695259D01*
X115954741Y-95911295D01*
X116124479Y-96165326D01*
X116241396Y-96447590D01*
X116241396Y-96447591D01*
X116301404Y-96749270D01*
X116308517Y-96772719D01*
X116320068Y-96794330D01*
X116335613Y-96813272D01*
X116354555Y-96828817D01*
X116376166Y-96840368D01*
X116399615Y-96847481D01*
X116424001Y-96849883D01*
X116448387Y-96847481D01*
X116471836Y-96840368D01*
X116493447Y-96828817D01*
X116512389Y-96813272D01*
X116527934Y-96794330D01*
X116539485Y-96772719D01*
X116546598Y-96749270D01*
X116549000Y-96724884D01*
X116549000Y-95849000D01*
X118551000Y-95849000D01*
X118551000Y-97951000D01*
X116549000Y-97951000D01*
X116549000Y-97075116D01*
X116546598Y-97050730D01*
X116539485Y-97027281D01*
X116527934Y-97005670D01*
X116512389Y-96986728D01*
X116493447Y-96971183D01*
X116471836Y-96959632D01*
X116448387Y-96952519D01*
X116424001Y-96950117D01*
X116399615Y-96952519D01*
X116376166Y-96959632D01*
X116354555Y-96971183D01*
X116335613Y-96986728D01*
X116320068Y-97005670D01*
X116308517Y-97027281D01*
X116301404Y-97050730D01*
X116293315Y-97091396D01*
X116241396Y-97352410D01*
X116124479Y-97634674D01*
X115954741Y-97888705D01*
X115738705Y-98104741D01*
X115484674Y-98274479D01*
X115202410Y-98391396D01*
X115052585Y-98421198D01*
X114902761Y-98451000D01*
X114597239Y-98451000D01*
X114447415Y-98421198D01*
X114297590Y-98391396D01*
X114015326Y-98274479D01*
X113761295Y-98104741D01*
X113545259Y-97888705D01*
X113375521Y-97634674D01*
X113258604Y-97352410D01*
X113206685Y-97091396D01*
X113199000Y-97052761D01*
X113199000Y-96747239D01*
X113258604Y-96447591D01*
X113258604Y-96447590D01*
X113375521Y-96165326D01*
X113545259Y-95911295D01*
X113761295Y-95695259D01*
X114015326Y-95525521D01*
X114297590Y-95408604D01*
X114447415Y-95378802D01*
X114597239Y-95349000D01*
X114902761Y-95349000D01*
X115052585Y-95378802D01*
X115052585Y-95378802D01*
G37*
G36*
X177106564Y-96089389D02*
G01*
X177289897Y-96165328D01*
X177297835Y-96168616D01*
X177469973Y-96283635D01*
X177616365Y-96430027D01*
X177722390Y-96588704D01*
X177731385Y-96602167D01*
X177810611Y-96793436D01*
X177851000Y-96996484D01*
X177851000Y-97203516D01*
X177810611Y-97406564D01*
X177731385Y-97597833D01*
X177731384Y-97597835D01*
X177616365Y-97769973D01*
X177469973Y-97916365D01*
X177297835Y-98031384D01*
X177297834Y-98031385D01*
X177297833Y-98031385D01*
X177106564Y-98110611D01*
X176903516Y-98151000D01*
X176696484Y-98151000D01*
X176493436Y-98110611D01*
X176302167Y-98031385D01*
X176302166Y-98031385D01*
X176302165Y-98031384D01*
X176130027Y-97916365D01*
X175983635Y-97769973D01*
X175868616Y-97597835D01*
X175868615Y-97597833D01*
X175789389Y-97406564D01*
X175749000Y-97203516D01*
X175749000Y-96996484D01*
X175789389Y-96793436D01*
X175868615Y-96602167D01*
X175877611Y-96588704D01*
X175983635Y-96430027D01*
X176130027Y-96283635D01*
X176302165Y-96168616D01*
X176310103Y-96165328D01*
X176493436Y-96089389D01*
X176696484Y-96049000D01*
X176903516Y-96049000D01*
X177106564Y-96089389D01*
X177106564Y-96089389D01*
G37*
G36*
X172106564Y-96089389D02*
G01*
X172289897Y-96165328D01*
X172297835Y-96168616D01*
X172469973Y-96283635D01*
X172616365Y-96430027D01*
X172722390Y-96588704D01*
X172731385Y-96602167D01*
X172810611Y-96793436D01*
X172851000Y-96996484D01*
X172851000Y-97203516D01*
X172810611Y-97406564D01*
X172731385Y-97597833D01*
X172731384Y-97597835D01*
X172616365Y-97769973D01*
X172469973Y-97916365D01*
X172297835Y-98031384D01*
X172297834Y-98031385D01*
X172297833Y-98031385D01*
X172106564Y-98110611D01*
X171903516Y-98151000D01*
X171696484Y-98151000D01*
X171493436Y-98110611D01*
X171302167Y-98031385D01*
X171302166Y-98031385D01*
X171302165Y-98031384D01*
X171130027Y-97916365D01*
X170983635Y-97769973D01*
X170868616Y-97597835D01*
X170868615Y-97597833D01*
X170789389Y-97406564D01*
X170749000Y-97203516D01*
X170749000Y-96996484D01*
X170789389Y-96793436D01*
X170868615Y-96602167D01*
X170877611Y-96588704D01*
X170983635Y-96430027D01*
X171130027Y-96283635D01*
X171302165Y-96168616D01*
X171310103Y-96165328D01*
X171493436Y-96089389D01*
X171696484Y-96049000D01*
X171903516Y-96049000D01*
X172106564Y-96089389D01*
X172106564Y-96089389D01*
G37*
G36*
X123563600Y-97675200D02*
G01*
X122511600Y-97675200D01*
X122511600Y-96273200D01*
X123563600Y-96273200D01*
X123563600Y-97675200D01*
X123563600Y-97675200D01*
G37*
G36*
X153348254Y-93577818D02*
G01*
X153721511Y-93732426D01*
X153721513Y-93732427D01*
X154057436Y-93956884D01*
X154343116Y-94242564D01*
X154555889Y-94561000D01*
X154567574Y-94578489D01*
X154722182Y-94951746D01*
X154801000Y-95347993D01*
X154801000Y-95752007D01*
X154722182Y-96148254D01*
X154592839Y-96460515D01*
X154567573Y-96521513D01*
X154343116Y-96857436D01*
X154057436Y-97143116D01*
X153721513Y-97367573D01*
X153721512Y-97367574D01*
X153721511Y-97367574D01*
X153348254Y-97522182D01*
X152952007Y-97601000D01*
X152547993Y-97601000D01*
X152151746Y-97522182D01*
X151778489Y-97367574D01*
X151778488Y-97367574D01*
X151778487Y-97367573D01*
X151442564Y-97143116D01*
X151156884Y-96857436D01*
X150932427Y-96521513D01*
X150907161Y-96460515D01*
X150777818Y-96148254D01*
X150699000Y-95752007D01*
X150699000Y-95347993D01*
X150777818Y-94951746D01*
X150932426Y-94578489D01*
X150944112Y-94561000D01*
X151156884Y-94242564D01*
X151442564Y-93956884D01*
X151778487Y-93732427D01*
X151778489Y-93732426D01*
X152151746Y-93577818D01*
X152547993Y-93499000D01*
X152952007Y-93499000D01*
X153348254Y-93577818D01*
X153348254Y-93577818D01*
G37*
G36*
X98402585Y-94078802D02*
G01*
X98552410Y-94108604D01*
X98834674Y-94225521D01*
X99088705Y-94395259D01*
X99304741Y-94611295D01*
X99474479Y-94865326D01*
X99591396Y-95147590D01*
X99592355Y-95152410D01*
X99648501Y-95434674D01*
X99651000Y-95447240D01*
X99651000Y-95752760D01*
X99591396Y-96052410D01*
X99474479Y-96334674D01*
X99304741Y-96588705D01*
X99088705Y-96804741D01*
X98834674Y-96974479D01*
X98552410Y-97091396D01*
X98402585Y-97121198D01*
X98252761Y-97151000D01*
X97947239Y-97151000D01*
X97797415Y-97121198D01*
X97647590Y-97091396D01*
X97365326Y-96974479D01*
X97111295Y-96804741D01*
X96895259Y-96588705D01*
X96725521Y-96334674D01*
X96608604Y-96052410D01*
X96549000Y-95752760D01*
X96549000Y-95447240D01*
X96551500Y-95434674D01*
X96607645Y-95152410D01*
X96608604Y-95147590D01*
X96725521Y-94865326D01*
X96895259Y-94611295D01*
X97111295Y-94395259D01*
X97365326Y-94225521D01*
X97647590Y-94108604D01*
X97797415Y-94078802D01*
X97947239Y-94049000D01*
X98252761Y-94049000D01*
X98402585Y-94078802D01*
X98402585Y-94078802D01*
G37*
G36*
X102211000Y-96651000D02*
G01*
X100109000Y-96651000D01*
X100109000Y-94549000D01*
X102211000Y-94549000D01*
X102211000Y-96651000D01*
X102211000Y-96651000D01*
G37*
G36*
X158408918Y-94561000D02*
G01*
X158541981Y-94587468D01*
X158724151Y-94662926D01*
X158888100Y-94772473D01*
X159027527Y-94911900D01*
X159070121Y-94975647D01*
X159137075Y-95075851D01*
X159212532Y-95258020D01*
X159250171Y-95447239D01*
X159251000Y-95451410D01*
X159251000Y-95648590D01*
X159212532Y-95841981D01*
X159137074Y-96024151D01*
X159027527Y-96188100D01*
X158888100Y-96327527D01*
X158724151Y-96437074D01*
X158724150Y-96437075D01*
X158724149Y-96437075D01*
X158698761Y-96447591D01*
X158541981Y-96512532D01*
X158348591Y-96551000D01*
X158151409Y-96551000D01*
X157958019Y-96512532D01*
X157832440Y-96460515D01*
X157808991Y-96453402D01*
X157784605Y-96451000D01*
X157741258Y-96451000D01*
X157716488Y-96446073D01*
X157567188Y-96416376D01*
X157403216Y-96348456D01*
X157255646Y-96249853D01*
X157130147Y-96124354D01*
X157031544Y-95976784D01*
X156963624Y-95812812D01*
X156929000Y-95638741D01*
X156929000Y-95461259D01*
X156963624Y-95287188D01*
X157031544Y-95123216D01*
X157130147Y-94975646D01*
X157255646Y-94850147D01*
X157403216Y-94751544D01*
X157567188Y-94683624D01*
X157716488Y-94653927D01*
X157741258Y-94649000D01*
X157784605Y-94649000D01*
X157808991Y-94646598D01*
X157832440Y-94639485D01*
X157837690Y-94637311D01*
X157958019Y-94587468D01*
X158091082Y-94561000D01*
X158151409Y-94549000D01*
X158348591Y-94549000D01*
X158408918Y-94561000D01*
X158408918Y-94561000D01*
G37*
G36*
X147408918Y-94561000D02*
G01*
X147541981Y-94587468D01*
X147662310Y-94637311D01*
X147667560Y-94639485D01*
X147691009Y-94646598D01*
X147715395Y-94649000D01*
X147758742Y-94649000D01*
X147783512Y-94653927D01*
X147932812Y-94683624D01*
X148096784Y-94751544D01*
X148244354Y-94850147D01*
X148369853Y-94975646D01*
X148468456Y-95123216D01*
X148536376Y-95287188D01*
X148571000Y-95461259D01*
X148571000Y-95638741D01*
X148536376Y-95812812D01*
X148468456Y-95976784D01*
X148369853Y-96124354D01*
X148244354Y-96249853D01*
X148096784Y-96348456D01*
X147932812Y-96416376D01*
X147783512Y-96446073D01*
X147758742Y-96451000D01*
X147715395Y-96451000D01*
X147691009Y-96453402D01*
X147667560Y-96460515D01*
X147541981Y-96512532D01*
X147348591Y-96551000D01*
X147151409Y-96551000D01*
X146958019Y-96512532D01*
X146801239Y-96447591D01*
X146775851Y-96437075D01*
X146775850Y-96437075D01*
X146775849Y-96437074D01*
X146611900Y-96327527D01*
X146472473Y-96188100D01*
X146362926Y-96024151D01*
X146287468Y-95841981D01*
X146249000Y-95648590D01*
X146249000Y-95451410D01*
X146249830Y-95447239D01*
X146287468Y-95258020D01*
X146362925Y-95075851D01*
X146429879Y-94975647D01*
X146472473Y-94911900D01*
X146611900Y-94772473D01*
X146775849Y-94662926D01*
X146958019Y-94587468D01*
X147091082Y-94561000D01*
X147151409Y-94549000D01*
X147348591Y-94549000D01*
X147408918Y-94561000D01*
X147408918Y-94561000D01*
G37*
G36*
X109980684Y-93164500D02*
G01*
X110202410Y-93208604D01*
X110484674Y-93325521D01*
X110738705Y-93495259D01*
X110954741Y-93711295D01*
X111124479Y-93965326D01*
X111239314Y-94242564D01*
X111241396Y-94247591D01*
X111301000Y-94547239D01*
X111301000Y-94852761D01*
X111276556Y-94975647D01*
X111241396Y-95152410D01*
X111124479Y-95434674D01*
X110954741Y-95688705D01*
X110738705Y-95904741D01*
X110484674Y-96074479D01*
X110202410Y-96191396D01*
X110052585Y-96221198D01*
X109902761Y-96251000D01*
X109597239Y-96251000D01*
X109447415Y-96221198D01*
X109297590Y-96191396D01*
X109015326Y-96074479D01*
X108761295Y-95904741D01*
X108545259Y-95688705D01*
X108375521Y-95434674D01*
X108258604Y-95152410D01*
X108223444Y-94975647D01*
X108199000Y-94852761D01*
X108199000Y-94547239D01*
X108258604Y-94247591D01*
X108260686Y-94242564D01*
X108375521Y-93965326D01*
X108545259Y-93711295D01*
X108761295Y-93495259D01*
X109015326Y-93325521D01*
X109297590Y-93208604D01*
X109519316Y-93164500D01*
X109597239Y-93149000D01*
X109902761Y-93149000D01*
X109980684Y-93164500D01*
X109980684Y-93164500D01*
G37*
G36*
X107701000Y-95751000D02*
G01*
X105599000Y-95751000D01*
X105599000Y-93649000D01*
X107701000Y-93649000D01*
X107701000Y-95751000D01*
X107701000Y-95751000D01*
G37*
G36*
X164199500Y-95709500D02*
G01*
X162700500Y-95709500D01*
X162700500Y-94210500D01*
X164199500Y-94210500D01*
X164199500Y-95709500D01*
X164199500Y-95709500D01*
G37*
G36*
X161499500Y-95709500D02*
G01*
X160000500Y-95709500D01*
X160000500Y-94210500D01*
X161499500Y-94210500D01*
X161499500Y-95709500D01*
X161499500Y-95709500D01*
G37*
G36*
X104426000Y-95151000D02*
G01*
X103374000Y-95151000D01*
X103374000Y-93749000D01*
X104426000Y-93749000D01*
X104426000Y-95151000D01*
X104426000Y-95151000D01*
G37*
G36*
X142608500Y-94627900D02*
G01*
X141109500Y-94627900D01*
X141109500Y-93128900D01*
X142608500Y-93128900D01*
X142608500Y-94627900D01*
X142608500Y-94627900D01*
G37*
G36*
X149242585Y-91488802D02*
G01*
X149392410Y-91518604D01*
X149674674Y-91635521D01*
X149928705Y-91805259D01*
X150144741Y-92021295D01*
X150314479Y-92275326D01*
X150431396Y-92557590D01*
X150491000Y-92857240D01*
X150491000Y-93162760D01*
X150431396Y-93462410D01*
X150314479Y-93744674D01*
X150144741Y-93998705D01*
X149928705Y-94214741D01*
X149674674Y-94384479D01*
X149392410Y-94501396D01*
X149242585Y-94531198D01*
X149092761Y-94561000D01*
X148787239Y-94561000D01*
X148637415Y-94531198D01*
X148487590Y-94501396D01*
X148205326Y-94384479D01*
X147951295Y-94214741D01*
X147735259Y-93998705D01*
X147565521Y-93744674D01*
X147448604Y-93462410D01*
X147389000Y-93162760D01*
X147389000Y-92857240D01*
X147448604Y-92557590D01*
X147565521Y-92275326D01*
X147735259Y-92021295D01*
X147951295Y-91805259D01*
X148205326Y-91635521D01*
X148487590Y-91518604D01*
X148637415Y-91488802D01*
X148787239Y-91459000D01*
X149092761Y-91459000D01*
X149242585Y-91488802D01*
X149242585Y-91488802D01*
G37*
G36*
X123563600Y-94125200D02*
G01*
X122511600Y-94125200D01*
X122511600Y-92723200D01*
X123563600Y-92723200D01*
X123563600Y-94125200D01*
X123563600Y-94125200D01*
G37*
G36*
X146901000Y-94061000D02*
G01*
X144799000Y-94061000D01*
X144799000Y-91959000D01*
X146901000Y-91959000D01*
X146901000Y-94061000D01*
X146901000Y-94061000D01*
G37*
G36*
X163976000Y-93626000D02*
G01*
X162924000Y-93626000D01*
X162924000Y-92224000D01*
X163976000Y-92224000D01*
X163976000Y-93626000D01*
X163976000Y-93626000D01*
G37*
G36*
X161276000Y-93626000D02*
G01*
X160224000Y-93626000D01*
X160224000Y-92224000D01*
X161276000Y-92224000D01*
X161276000Y-93626000D01*
X161276000Y-93626000D01*
G37*
G36*
X134036719Y-90425646D02*
G01*
X134202410Y-90458604D01*
X134484674Y-90575521D01*
X134738705Y-90745259D01*
X134954741Y-90961295D01*
X135124479Y-91215326D01*
X135241396Y-91497590D01*
X135256665Y-91574353D01*
X135301404Y-91799270D01*
X135308517Y-91822719D01*
X135320068Y-91844330D01*
X135335613Y-91863272D01*
X135354555Y-91878817D01*
X135376166Y-91890368D01*
X135399615Y-91897481D01*
X135424001Y-91899883D01*
X135448387Y-91897481D01*
X135471836Y-91890368D01*
X135493447Y-91878817D01*
X135512389Y-91863272D01*
X135527934Y-91844330D01*
X135539485Y-91822719D01*
X135546598Y-91799270D01*
X135549000Y-91774884D01*
X135549000Y-90899000D01*
X137551000Y-90899000D01*
X137551000Y-93001000D01*
X135549000Y-93001000D01*
X135549000Y-92125116D01*
X135546598Y-92100730D01*
X135539485Y-92077281D01*
X135527934Y-92055670D01*
X135512389Y-92036728D01*
X135493447Y-92021183D01*
X135471836Y-92009632D01*
X135448387Y-92002519D01*
X135424001Y-92000117D01*
X135399615Y-92002519D01*
X135376166Y-92009632D01*
X135354555Y-92021183D01*
X135335613Y-92036728D01*
X135320068Y-92055670D01*
X135308517Y-92077281D01*
X135301404Y-92100730D01*
X135299580Y-92109898D01*
X135241396Y-92402410D01*
X135124479Y-92684674D01*
X134954741Y-92938705D01*
X134738705Y-93154741D01*
X134484674Y-93324479D01*
X134202410Y-93441396D01*
X134096770Y-93462409D01*
X133902761Y-93501000D01*
X133597239Y-93501000D01*
X133403230Y-93462409D01*
X133297590Y-93441396D01*
X133015326Y-93324479D01*
X132761295Y-93154741D01*
X132545259Y-92938705D01*
X132375521Y-92684674D01*
X132258604Y-92402410D01*
X132200420Y-92109898D01*
X132199000Y-92102761D01*
X132199000Y-91797239D01*
X132243335Y-91574353D01*
X132258604Y-91497590D01*
X132375521Y-91215326D01*
X132545259Y-90961295D01*
X132761295Y-90745259D01*
X133015326Y-90575521D01*
X133297590Y-90458604D01*
X133463281Y-90425646D01*
X133597239Y-90399000D01*
X133902761Y-90399000D01*
X134036719Y-90425646D01*
X134036719Y-90425646D01*
G37*
G36*
X103994425Y-91669599D02*
G01*
X104118621Y-91694302D01*
X104255022Y-91750801D01*
X104377779Y-91832825D01*
X104482175Y-91937221D01*
X104564199Y-92059978D01*
X104620698Y-92196379D01*
X104649500Y-92341181D01*
X104649500Y-92488819D01*
X104620698Y-92633621D01*
X104564199Y-92770022D01*
X104482175Y-92892779D01*
X104377779Y-92997175D01*
X104255022Y-93079199D01*
X104118621Y-93135698D01*
X103994425Y-93160401D01*
X103973820Y-93164500D01*
X103826180Y-93164500D01*
X103805575Y-93160401D01*
X103681379Y-93135698D01*
X103544978Y-93079199D01*
X103422221Y-92997175D01*
X103317825Y-92892779D01*
X103235801Y-92770022D01*
X103179302Y-92633621D01*
X103150500Y-92488819D01*
X103150500Y-92341181D01*
X103179302Y-92196379D01*
X103235801Y-92059978D01*
X103317825Y-91937221D01*
X103422221Y-91832825D01*
X103544978Y-91750801D01*
X103681379Y-91694302D01*
X103805575Y-91669599D01*
X103826180Y-91665500D01*
X103973820Y-91665500D01*
X103994425Y-91669599D01*
X103994425Y-91669599D01*
G37*
G36*
X115348254Y-89027818D02*
G01*
X115721511Y-89182426D01*
X115721513Y-89182427D01*
X116057436Y-89406884D01*
X116343116Y-89692564D01*
X116560293Y-90017591D01*
X116567574Y-90028489D01*
X116722182Y-90401746D01*
X116801000Y-90797993D01*
X116801000Y-91202007D01*
X116722182Y-91598254D01*
X116592839Y-91910515D01*
X116567573Y-91971513D01*
X116343116Y-92307436D01*
X116057436Y-92593116D01*
X115721513Y-92817573D01*
X115721512Y-92817574D01*
X115721511Y-92817574D01*
X115348254Y-92972182D01*
X114952007Y-93051000D01*
X114547993Y-93051000D01*
X114151746Y-92972182D01*
X113778489Y-92817574D01*
X113778488Y-92817574D01*
X113778487Y-92817573D01*
X113442564Y-92593116D01*
X113156884Y-92307436D01*
X112932427Y-91971513D01*
X112907161Y-91910515D01*
X112777818Y-91598254D01*
X112699000Y-91202007D01*
X112699000Y-90797993D01*
X112777818Y-90401746D01*
X112932426Y-90028489D01*
X112939708Y-90017591D01*
X113156884Y-89692564D01*
X113442564Y-89406884D01*
X113778487Y-89182427D01*
X113778489Y-89182426D01*
X114151746Y-89027818D01*
X114547993Y-88949000D01*
X114952007Y-88949000D01*
X115348254Y-89027818D01*
X115348254Y-89027818D01*
G37*
G36*
X142385000Y-92544400D02*
G01*
X141333000Y-92544400D01*
X141333000Y-91142400D01*
X142385000Y-91142400D01*
X142385000Y-92544400D01*
X142385000Y-92544400D01*
G37*
G36*
X123132025Y-90643799D02*
G01*
X123256221Y-90668502D01*
X123392622Y-90725001D01*
X123515379Y-90807025D01*
X123619775Y-90911421D01*
X123701799Y-91034178D01*
X123758298Y-91170579D01*
X123787100Y-91315381D01*
X123787100Y-91463019D01*
X123758298Y-91607821D01*
X123701799Y-91744222D01*
X123619775Y-91866979D01*
X123515379Y-91971375D01*
X123392622Y-92053399D01*
X123256221Y-92109898D01*
X123132025Y-92134601D01*
X123111420Y-92138700D01*
X122963780Y-92138700D01*
X122943175Y-92134601D01*
X122818979Y-92109898D01*
X122682578Y-92053399D01*
X122559821Y-91971375D01*
X122455425Y-91866979D01*
X122373401Y-91744222D01*
X122316902Y-91607821D01*
X122288100Y-91463019D01*
X122288100Y-91315381D01*
X122316902Y-91170579D01*
X122373401Y-91034178D01*
X122455425Y-90911421D01*
X122559821Y-90807025D01*
X122682578Y-90725001D01*
X122818979Y-90668502D01*
X122943175Y-90643799D01*
X122963780Y-90639700D01*
X123111420Y-90639700D01*
X123132025Y-90643799D01*
X123132025Y-90643799D01*
G37*
G36*
X155592585Y-88948802D02*
G01*
X155742410Y-88978604D01*
X156024674Y-89095521D01*
X156278705Y-89265259D01*
X156494741Y-89481295D01*
X156664479Y-89735326D01*
X156781396Y-90017590D01*
X156783564Y-90028489D01*
X156841000Y-90317239D01*
X156841000Y-90622761D01*
X156816633Y-90745260D01*
X156781396Y-90922410D01*
X156664479Y-91204674D01*
X156494741Y-91458705D01*
X156278705Y-91674741D01*
X156024674Y-91844479D01*
X155742410Y-91961396D01*
X155691558Y-91971511D01*
X155442761Y-92021000D01*
X155137239Y-92021000D01*
X154888442Y-91971511D01*
X154837590Y-91961396D01*
X154555326Y-91844479D01*
X154301295Y-91674741D01*
X154085259Y-91458705D01*
X153915521Y-91204674D01*
X153798604Y-90922410D01*
X153763367Y-90745260D01*
X153739000Y-90622761D01*
X153739000Y-90317239D01*
X153796436Y-90028489D01*
X153798604Y-90017590D01*
X153915521Y-89735326D01*
X154085259Y-89481295D01*
X154301295Y-89265259D01*
X154555326Y-89095521D01*
X154837590Y-88978604D01*
X154987415Y-88948802D01*
X155137239Y-88919000D01*
X155442761Y-88919000D01*
X155592585Y-88948802D01*
X155592585Y-88948802D01*
G37*
G36*
X109408918Y-90011000D02*
G01*
X109541981Y-90037468D01*
X109662310Y-90087311D01*
X109667560Y-90089485D01*
X109691009Y-90096598D01*
X109715395Y-90099000D01*
X109758742Y-90099000D01*
X109783512Y-90103927D01*
X109932812Y-90133624D01*
X110096784Y-90201544D01*
X110244354Y-90300147D01*
X110369853Y-90425646D01*
X110468456Y-90573216D01*
X110536376Y-90737188D01*
X110571000Y-90911259D01*
X110571000Y-91088741D01*
X110536376Y-91262812D01*
X110468456Y-91426784D01*
X110369853Y-91574354D01*
X110244354Y-91699853D01*
X110096784Y-91798456D01*
X109932812Y-91866376D01*
X109783512Y-91896073D01*
X109758742Y-91901000D01*
X109715395Y-91901000D01*
X109691009Y-91903402D01*
X109667560Y-91910515D01*
X109541981Y-91962532D01*
X109445285Y-91981766D01*
X109348591Y-92001000D01*
X109151409Y-92001000D01*
X108958019Y-91962532D01*
X108775849Y-91887074D01*
X108611900Y-91777527D01*
X108472473Y-91638100D01*
X108362926Y-91474151D01*
X108356528Y-91458704D01*
X108297161Y-91315381D01*
X108287468Y-91291981D01*
X108249000Y-91098590D01*
X108249000Y-90901410D01*
X108287468Y-90708019D01*
X108362926Y-90525849D01*
X108472473Y-90361900D01*
X108611900Y-90222473D01*
X108775849Y-90112926D01*
X108958019Y-90037468D01*
X109091082Y-90011000D01*
X109151409Y-89999000D01*
X109348591Y-89999000D01*
X109408918Y-90011000D01*
X109408918Y-90011000D01*
G37*
G36*
X120408918Y-90011000D02*
G01*
X120541981Y-90037468D01*
X120724151Y-90112926D01*
X120888100Y-90222473D01*
X121027527Y-90361900D01*
X121137074Y-90525849D01*
X121212532Y-90708019D01*
X121251000Y-90901410D01*
X121251000Y-91098590D01*
X121212532Y-91291981D01*
X121202839Y-91315381D01*
X121143473Y-91458704D01*
X121137074Y-91474151D01*
X121027527Y-91638100D01*
X120888100Y-91777527D01*
X120724151Y-91887074D01*
X120541981Y-91962532D01*
X120445285Y-91981766D01*
X120348591Y-92001000D01*
X120151409Y-92001000D01*
X119958019Y-91962532D01*
X119832440Y-91910515D01*
X119808991Y-91903402D01*
X119784605Y-91901000D01*
X119741258Y-91901000D01*
X119716488Y-91896073D01*
X119567188Y-91866376D01*
X119403216Y-91798456D01*
X119255646Y-91699853D01*
X119130147Y-91574354D01*
X119031544Y-91426784D01*
X118963624Y-91262812D01*
X118929000Y-91088741D01*
X118929000Y-90911259D01*
X118963624Y-90737188D01*
X119031544Y-90573216D01*
X119130147Y-90425646D01*
X119255646Y-90300147D01*
X119403216Y-90201544D01*
X119567188Y-90133624D01*
X119716488Y-90103927D01*
X119741258Y-90099000D01*
X119784605Y-90099000D01*
X119808991Y-90096598D01*
X119832440Y-90089485D01*
X119837690Y-90087311D01*
X119958019Y-90037468D01*
X120091082Y-90011000D01*
X120151409Y-89999000D01*
X120348591Y-89999000D01*
X120408918Y-90011000D01*
X120408918Y-90011000D01*
G37*
G36*
X180951000Y-91751000D02*
G01*
X178849000Y-91751000D01*
X178849000Y-88449000D01*
X180951000Y-88449000D01*
X180951000Y-91751000D01*
X180951000Y-91751000D01*
G37*
G36*
X169751000Y-91751000D02*
G01*
X167649000Y-91751000D01*
X167649000Y-88449000D01*
X169751000Y-88449000D01*
X169751000Y-91751000D01*
X169751000Y-91751000D01*
G37*
G36*
X159401000Y-91521000D02*
G01*
X157299000Y-91521000D01*
X157299000Y-89419000D01*
X159401000Y-89419000D01*
X159401000Y-91521000D01*
X159401000Y-91521000D01*
G37*
G36*
X129052585Y-88228802D02*
G01*
X129202410Y-88258604D01*
X129484674Y-88375521D01*
X129738705Y-88545259D01*
X129954741Y-88761295D01*
X130124479Y-89015326D01*
X130241396Y-89297590D01*
X130301000Y-89597240D01*
X130301000Y-89902760D01*
X130241396Y-90202410D01*
X130124479Y-90484674D01*
X129954741Y-90738705D01*
X129738705Y-90954741D01*
X129484674Y-91124479D01*
X129202410Y-91241396D01*
X129094749Y-91262811D01*
X128902761Y-91301000D01*
X128597239Y-91301000D01*
X128405251Y-91262811D01*
X128297590Y-91241396D01*
X128015326Y-91124479D01*
X127761295Y-90954741D01*
X127545259Y-90738705D01*
X127375521Y-90484674D01*
X127258604Y-90202410D01*
X127199000Y-89902760D01*
X127199000Y-89597240D01*
X127258604Y-89297590D01*
X127375521Y-89015326D01*
X127545259Y-88761295D01*
X127761295Y-88545259D01*
X128015326Y-88375521D01*
X128297590Y-88258604D01*
X128447415Y-88228802D01*
X128597239Y-88199000D01*
X128902761Y-88199000D01*
X129052585Y-88228802D01*
X129052585Y-88228802D01*
G37*
G36*
X126701000Y-90801000D02*
G01*
X124599000Y-90801000D01*
X124599000Y-88699000D01*
X126701000Y-88699000D01*
X126701000Y-90801000D01*
X126701000Y-90801000D01*
G37*
G36*
X163976000Y-90076000D02*
G01*
X162924000Y-90076000D01*
X162924000Y-88674000D01*
X163976000Y-88674000D01*
X163976000Y-90076000D01*
X163976000Y-90076000D01*
G37*
G36*
X161276000Y-90076000D02*
G01*
X160224000Y-90076000D01*
X160224000Y-88674000D01*
X161276000Y-88674000D01*
X161276000Y-90076000D01*
X161276000Y-90076000D01*
G37*
G36*
X111129837Y-86916375D02*
G01*
X111392410Y-86968604D01*
X111674674Y-87085521D01*
X111928705Y-87255259D01*
X112144741Y-87471295D01*
X112314479Y-87725326D01*
X112431396Y-88007590D01*
X112491000Y-88307240D01*
X112491000Y-88612760D01*
X112431396Y-88912410D01*
X112314479Y-89194674D01*
X112144741Y-89448705D01*
X111928705Y-89664741D01*
X111674674Y-89834479D01*
X111392410Y-89951396D01*
X111242585Y-89981198D01*
X111092761Y-90011000D01*
X110787239Y-90011000D01*
X110637415Y-89981198D01*
X110487590Y-89951396D01*
X110205326Y-89834479D01*
X109951295Y-89664741D01*
X109735259Y-89448705D01*
X109565521Y-89194674D01*
X109448604Y-88912410D01*
X109389000Y-88612760D01*
X109389000Y-88307240D01*
X109448604Y-88007590D01*
X109565521Y-87725326D01*
X109735259Y-87471295D01*
X109951295Y-87255259D01*
X110205326Y-87085521D01*
X110487590Y-86968604D01*
X110750163Y-86916375D01*
X110787239Y-86909000D01*
X111092761Y-86909000D01*
X111129837Y-86916375D01*
X111129837Y-86916375D01*
G37*
G36*
X108901000Y-89511000D02*
G01*
X106799000Y-89511000D01*
X106799000Y-87409000D01*
X108901000Y-87409000D01*
X108901000Y-89511000D01*
X108901000Y-89511000D01*
G37*
G36*
X95888498Y-85976000D02*
G01*
X96052410Y-86008604D01*
X96334674Y-86125521D01*
X96588705Y-86295259D01*
X96804741Y-86511295D01*
X96974479Y-86765326D01*
X97091396Y-87047590D01*
X97106074Y-87121380D01*
X97151404Y-87349270D01*
X97158517Y-87372719D01*
X97170068Y-87394330D01*
X97185613Y-87413272D01*
X97204555Y-87428817D01*
X97226166Y-87440368D01*
X97249615Y-87447481D01*
X97274001Y-87449883D01*
X97298387Y-87447481D01*
X97321836Y-87440368D01*
X97343447Y-87428817D01*
X97362389Y-87413272D01*
X97377934Y-87394330D01*
X97389485Y-87372719D01*
X97396598Y-87349270D01*
X97399000Y-87324884D01*
X97399000Y-86449000D01*
X99401000Y-86449000D01*
X99401000Y-88551000D01*
X97399000Y-88551000D01*
X97399000Y-87675116D01*
X97396598Y-87650730D01*
X97389485Y-87627281D01*
X97377934Y-87605670D01*
X97362389Y-87586728D01*
X97343447Y-87571183D01*
X97321836Y-87559632D01*
X97298387Y-87552519D01*
X97274001Y-87550117D01*
X97249615Y-87552519D01*
X97226166Y-87559632D01*
X97204555Y-87571183D01*
X97185613Y-87586728D01*
X97170068Y-87605670D01*
X97158517Y-87627281D01*
X97151404Y-87650730D01*
X97151000Y-87652760D01*
X97091396Y-87952410D01*
X96974479Y-88234674D01*
X96804741Y-88488705D01*
X96588705Y-88704741D01*
X96334674Y-88874479D01*
X96052410Y-88991396D01*
X95902585Y-89021198D01*
X95752761Y-89051000D01*
X95447239Y-89051000D01*
X95297415Y-89021198D01*
X95147590Y-88991396D01*
X94865326Y-88874479D01*
X94611295Y-88704741D01*
X94395259Y-88488705D01*
X94225521Y-88234674D01*
X94108604Y-87952410D01*
X94049000Y-87652760D01*
X94049000Y-87347240D01*
X94108604Y-87047590D01*
X94225521Y-86765326D01*
X94395259Y-86511295D01*
X94611295Y-86295259D01*
X94865326Y-86125521D01*
X95147590Y-86008604D01*
X95311502Y-85976000D01*
X95447239Y-85949000D01*
X95752761Y-85949000D01*
X95888498Y-85976000D01*
X95888498Y-85976000D01*
G37*
G36*
X142385000Y-88994400D02*
G01*
X141333000Y-88994400D01*
X141333000Y-87592400D01*
X142385000Y-87592400D01*
X142385000Y-88994400D01*
X142385000Y-88994400D01*
G37*
G36*
X134348254Y-84077818D02*
G01*
X134721511Y-84232426D01*
X134721513Y-84232427D01*
X135057436Y-84456884D01*
X135343116Y-84742564D01*
X135555889Y-85061000D01*
X135567574Y-85078489D01*
X135722182Y-85451746D01*
X135801000Y-85847993D01*
X135801000Y-86252007D01*
X135722182Y-86648254D01*
X135592839Y-86960515D01*
X135567573Y-87021513D01*
X135343116Y-87357436D01*
X135057436Y-87643116D01*
X134721513Y-87867573D01*
X134721512Y-87867574D01*
X134721511Y-87867574D01*
X134348254Y-88022182D01*
X133952007Y-88101000D01*
X133547993Y-88101000D01*
X133151746Y-88022182D01*
X132778489Y-87867574D01*
X132778488Y-87867574D01*
X132778487Y-87867573D01*
X132442564Y-87643116D01*
X132156884Y-87357436D01*
X131932427Y-87021513D01*
X131907161Y-86960515D01*
X131777818Y-86648254D01*
X131699000Y-86252007D01*
X131699000Y-85847993D01*
X131777818Y-85451746D01*
X131932426Y-85078489D01*
X131944112Y-85061000D01*
X132156884Y-84742564D01*
X132442564Y-84456884D01*
X132778487Y-84232427D01*
X132778489Y-84232426D01*
X133151746Y-84077818D01*
X133547993Y-83999000D01*
X133952007Y-83999000D01*
X134348254Y-84077818D01*
X134348254Y-84077818D01*
G37*
G36*
X160844425Y-86594599D02*
G01*
X160968621Y-86619302D01*
X161105022Y-86675801D01*
X161227779Y-86757825D01*
X161332175Y-86862221D01*
X161414199Y-86984978D01*
X161470698Y-87121379D01*
X161499500Y-87266181D01*
X161499500Y-87413819D01*
X161470698Y-87558621D01*
X161414199Y-87695022D01*
X161332175Y-87817779D01*
X161227779Y-87922175D01*
X161105022Y-88004199D01*
X160968621Y-88060698D01*
X160844425Y-88085401D01*
X160823820Y-88089500D01*
X160676180Y-88089500D01*
X160655575Y-88085401D01*
X160531379Y-88060698D01*
X160394978Y-88004199D01*
X160272221Y-87922175D01*
X160167825Y-87817779D01*
X160085801Y-87695022D01*
X160029302Y-87558621D01*
X160000500Y-87413819D01*
X160000500Y-87266181D01*
X160029302Y-87121379D01*
X160085801Y-86984978D01*
X160167825Y-86862221D01*
X160272221Y-86757825D01*
X160394978Y-86675801D01*
X160531379Y-86619302D01*
X160655575Y-86594599D01*
X160676180Y-86590500D01*
X160823820Y-86590500D01*
X160844425Y-86594599D01*
X160844425Y-86594599D01*
G37*
G36*
X163544425Y-86594599D02*
G01*
X163668621Y-86619302D01*
X163805022Y-86675801D01*
X163927779Y-86757825D01*
X164032175Y-86862221D01*
X164114199Y-86984978D01*
X164170698Y-87121379D01*
X164199500Y-87266181D01*
X164199500Y-87413819D01*
X164170698Y-87558621D01*
X164114199Y-87695022D01*
X164032175Y-87817779D01*
X163927779Y-87922175D01*
X163805022Y-88004199D01*
X163668621Y-88060698D01*
X163544425Y-88085401D01*
X163523820Y-88089500D01*
X163376180Y-88089500D01*
X163355575Y-88085401D01*
X163231379Y-88060698D01*
X163094978Y-88004199D01*
X162972221Y-87922175D01*
X162867825Y-87817779D01*
X162785801Y-87695022D01*
X162729302Y-87558621D01*
X162700500Y-87413819D01*
X162700500Y-87266181D01*
X162729302Y-87121379D01*
X162785801Y-86984978D01*
X162867825Y-86862221D01*
X162972221Y-86757825D01*
X163094978Y-86675801D01*
X163231379Y-86619302D01*
X163355575Y-86594599D01*
X163376180Y-86590500D01*
X163523820Y-86590500D01*
X163544425Y-86594599D01*
X163544425Y-86594599D01*
G37*
G36*
X104799500Y-88059500D02*
G01*
X103300500Y-88059500D01*
X103300500Y-86560500D01*
X104799500Y-86560500D01*
X104799500Y-88059500D01*
X104799500Y-88059500D01*
G37*
G36*
X117592585Y-84398802D02*
G01*
X117742410Y-84428604D01*
X118024674Y-84545521D01*
X118278705Y-84715259D01*
X118494741Y-84931295D01*
X118664479Y-85185326D01*
X118781396Y-85467590D01*
X118789613Y-85508900D01*
X118841000Y-85767239D01*
X118841000Y-86072761D01*
X118811198Y-86222585D01*
X118781396Y-86372410D01*
X118664479Y-86654674D01*
X118494741Y-86908705D01*
X118278705Y-87124741D01*
X118024674Y-87294479D01*
X117742410Y-87411396D01*
X117596758Y-87440368D01*
X117442761Y-87471000D01*
X117137239Y-87471000D01*
X116983242Y-87440368D01*
X116837590Y-87411396D01*
X116555326Y-87294479D01*
X116301295Y-87124741D01*
X116085259Y-86908705D01*
X115915521Y-86654674D01*
X115798604Y-86372410D01*
X115768802Y-86222585D01*
X115739000Y-86072761D01*
X115739000Y-85767239D01*
X115790387Y-85508900D01*
X115798604Y-85467590D01*
X115915521Y-85185326D01*
X116085259Y-84931295D01*
X116301295Y-84715259D01*
X116555326Y-84545521D01*
X116837590Y-84428604D01*
X116987415Y-84398802D01*
X117137239Y-84369000D01*
X117442761Y-84369000D01*
X117592585Y-84398802D01*
X117592585Y-84398802D01*
G37*
G36*
X139408918Y-85061000D02*
G01*
X139541981Y-85087468D01*
X139724151Y-85162926D01*
X139888100Y-85272473D01*
X140027527Y-85411900D01*
X140137074Y-85575849D01*
X140210209Y-85752410D01*
X140212532Y-85758020D01*
X140241447Y-85903381D01*
X140251000Y-85951410D01*
X140251000Y-86148590D01*
X140212532Y-86341981D01*
X140168203Y-86449000D01*
X140156597Y-86477020D01*
X140137074Y-86524151D01*
X140027527Y-86688100D01*
X139888100Y-86827527D01*
X139724151Y-86937074D01*
X139541981Y-87012532D01*
X139445285Y-87031766D01*
X139348591Y-87051000D01*
X139151409Y-87051000D01*
X139054715Y-87031766D01*
X138958019Y-87012532D01*
X138832440Y-86960515D01*
X138808991Y-86953402D01*
X138784605Y-86951000D01*
X138741258Y-86951000D01*
X138716488Y-86946073D01*
X138567188Y-86916376D01*
X138403216Y-86848456D01*
X138255646Y-86749853D01*
X138130147Y-86624354D01*
X138031544Y-86476784D01*
X137963624Y-86312812D01*
X137929000Y-86138741D01*
X137929000Y-85961259D01*
X137963624Y-85787188D01*
X138031544Y-85623216D01*
X138130147Y-85475646D01*
X138255646Y-85350147D01*
X138403216Y-85251544D01*
X138567188Y-85183624D01*
X138716488Y-85153927D01*
X138741258Y-85149000D01*
X138784605Y-85149000D01*
X138808991Y-85146598D01*
X138832440Y-85139485D01*
X138837690Y-85137311D01*
X138958019Y-85087468D01*
X139091082Y-85061000D01*
X139151409Y-85049000D01*
X139348591Y-85049000D01*
X139408918Y-85061000D01*
X139408918Y-85061000D01*
G37*
G36*
X128408918Y-85061000D02*
G01*
X128541981Y-85087468D01*
X128662310Y-85137311D01*
X128667560Y-85139485D01*
X128691009Y-85146598D01*
X128715395Y-85149000D01*
X128758742Y-85149000D01*
X128783512Y-85153927D01*
X128932812Y-85183624D01*
X129096784Y-85251544D01*
X129244354Y-85350147D01*
X129369853Y-85475646D01*
X129468456Y-85623216D01*
X129536376Y-85787188D01*
X129571000Y-85961259D01*
X129571000Y-86138741D01*
X129536376Y-86312812D01*
X129468456Y-86476784D01*
X129369853Y-86624354D01*
X129244354Y-86749853D01*
X129096784Y-86848456D01*
X128932812Y-86916376D01*
X128783512Y-86946073D01*
X128758742Y-86951000D01*
X128715395Y-86951000D01*
X128691009Y-86953402D01*
X128667560Y-86960515D01*
X128541981Y-87012532D01*
X128445285Y-87031766D01*
X128348591Y-87051000D01*
X128151409Y-87051000D01*
X128054715Y-87031766D01*
X127958019Y-87012532D01*
X127775849Y-86937074D01*
X127611900Y-86827527D01*
X127472473Y-86688100D01*
X127362926Y-86524151D01*
X127343404Y-86477020D01*
X127331797Y-86449000D01*
X127287468Y-86341981D01*
X127249000Y-86148590D01*
X127249000Y-85951410D01*
X127258554Y-85903381D01*
X127287468Y-85758020D01*
X127289792Y-85752410D01*
X127362926Y-85575849D01*
X127472473Y-85411900D01*
X127611900Y-85272473D01*
X127775849Y-85162926D01*
X127958019Y-85087468D01*
X128091082Y-85061000D01*
X128151409Y-85049000D01*
X128348591Y-85049000D01*
X128408918Y-85061000D01*
X128408918Y-85061000D01*
G37*
G36*
X141953425Y-85512999D02*
G01*
X142077621Y-85537702D01*
X142214022Y-85594201D01*
X142336779Y-85676225D01*
X142441175Y-85780621D01*
X142523199Y-85903378D01*
X142579698Y-86039779D01*
X142599382Y-86138741D01*
X142608500Y-86184580D01*
X142608500Y-86332220D01*
X142606558Y-86341981D01*
X142579698Y-86477021D01*
X142523199Y-86613422D01*
X142441175Y-86736179D01*
X142336779Y-86840575D01*
X142214022Y-86922599D01*
X142077621Y-86979098D01*
X141953425Y-87003801D01*
X141932820Y-87007900D01*
X141785180Y-87007900D01*
X141764575Y-87003801D01*
X141640379Y-86979098D01*
X141503978Y-86922599D01*
X141381221Y-86840575D01*
X141276825Y-86736179D01*
X141194801Y-86613422D01*
X141138302Y-86477021D01*
X141111442Y-86341981D01*
X141109500Y-86332220D01*
X141109500Y-86184580D01*
X141118618Y-86138741D01*
X141138302Y-86039779D01*
X141194801Y-85903378D01*
X141276825Y-85780621D01*
X141381221Y-85676225D01*
X141503978Y-85594201D01*
X141640379Y-85537702D01*
X141764575Y-85512999D01*
X141785180Y-85508900D01*
X141932820Y-85508900D01*
X141953425Y-85512999D01*
X141953425Y-85512999D01*
G37*
G36*
X121401000Y-86971000D02*
G01*
X119299000Y-86971000D01*
X119299000Y-84869000D01*
X121401000Y-84869000D01*
X121401000Y-86971000D01*
X121401000Y-86971000D01*
G37*
G36*
X90902585Y-83778802D02*
G01*
X91052410Y-83808604D01*
X91334674Y-83925521D01*
X91588705Y-84095259D01*
X91804741Y-84311295D01*
X91974479Y-84565326D01*
X92091396Y-84847590D01*
X92091396Y-84847591D01*
X92151000Y-85147239D01*
X92151000Y-85452761D01*
X92139833Y-85508900D01*
X92091396Y-85752410D01*
X91974479Y-86034674D01*
X91804741Y-86288705D01*
X91588705Y-86504741D01*
X91334674Y-86674479D01*
X91052410Y-86791396D01*
X90902585Y-86821198D01*
X90752761Y-86851000D01*
X90447239Y-86851000D01*
X90297415Y-86821198D01*
X90147590Y-86791396D01*
X89865326Y-86674479D01*
X89611295Y-86504741D01*
X89395259Y-86288705D01*
X89225521Y-86034674D01*
X89108604Y-85752410D01*
X89060167Y-85508900D01*
X89049000Y-85452761D01*
X89049000Y-85147239D01*
X89108604Y-84847591D01*
X89108604Y-84847590D01*
X89225521Y-84565326D01*
X89395259Y-84311295D01*
X89611295Y-84095259D01*
X89865326Y-83925521D01*
X90147590Y-83808604D01*
X90297415Y-83778802D01*
X90447239Y-83749000D01*
X90752761Y-83749000D01*
X90902585Y-83778802D01*
X90902585Y-83778802D01*
G37*
G36*
X88551000Y-86351000D02*
G01*
X86449000Y-86351000D01*
X86449000Y-84249000D01*
X88551000Y-84249000D01*
X88551000Y-86351000D01*
X88551000Y-86351000D01*
G37*
G36*
X104576000Y-85976000D02*
G01*
X103524000Y-85976000D01*
X103524000Y-84574000D01*
X104576000Y-84574000D01*
X104576000Y-85976000D01*
X104576000Y-85976000D01*
G37*
G36*
X161699500Y-85409500D02*
G01*
X160200500Y-85409500D01*
X160200500Y-83910500D01*
X161699500Y-83910500D01*
X161699500Y-85409500D01*
X161699500Y-85409500D01*
G37*
G36*
X164249500Y-85409500D02*
G01*
X162750500Y-85409500D01*
X162750500Y-83910500D01*
X164249500Y-83910500D01*
X164249500Y-85409500D01*
X164249500Y-85409500D01*
G37*
G36*
X130242585Y-81988802D02*
G01*
X130392410Y-82018604D01*
X130674674Y-82135521D01*
X130928705Y-82305259D01*
X131144741Y-82521295D01*
X131314479Y-82775326D01*
X131431396Y-83057590D01*
X131491000Y-83357240D01*
X131491000Y-83662760D01*
X131431396Y-83962410D01*
X131314479Y-84244674D01*
X131144741Y-84498705D01*
X130928705Y-84714741D01*
X130674674Y-84884479D01*
X130392410Y-85001396D01*
X130242585Y-85031198D01*
X130092761Y-85061000D01*
X129787239Y-85061000D01*
X129637415Y-85031198D01*
X129487590Y-85001396D01*
X129205326Y-84884479D01*
X128951295Y-84714741D01*
X128735259Y-84498705D01*
X128565521Y-84244674D01*
X128448604Y-83962410D01*
X128389000Y-83662760D01*
X128389000Y-83357240D01*
X128448604Y-83057590D01*
X128565521Y-82775326D01*
X128735259Y-82521295D01*
X128951295Y-82305259D01*
X129205326Y-82135521D01*
X129487590Y-82018604D01*
X129637415Y-81988802D01*
X129787239Y-81959000D01*
X130092761Y-81959000D01*
X130242585Y-81988802D01*
X130242585Y-81988802D01*
G37*
G36*
X127901000Y-84561000D02*
G01*
X125799000Y-84561000D01*
X125799000Y-82459000D01*
X127901000Y-82459000D01*
X127901000Y-84561000D01*
X127901000Y-84561000D01*
G37*
G36*
X153052585Y-80928802D02*
G01*
X153202410Y-80958604D01*
X153484674Y-81075521D01*
X153738705Y-81245259D01*
X153954741Y-81461295D01*
X154124479Y-81715326D01*
X154241396Y-81997590D01*
X154256625Y-82074151D01*
X154301404Y-82299270D01*
X154308517Y-82322719D01*
X154320068Y-82344330D01*
X154335613Y-82363272D01*
X154354555Y-82378817D01*
X154376166Y-82390368D01*
X154399615Y-82397481D01*
X154424001Y-82399883D01*
X154448387Y-82397481D01*
X154471836Y-82390368D01*
X154493447Y-82378817D01*
X154512389Y-82363272D01*
X154527934Y-82344330D01*
X154539485Y-82322719D01*
X154546598Y-82299270D01*
X154549000Y-82274884D01*
X154549000Y-81399000D01*
X156551000Y-81399000D01*
X156551000Y-83501000D01*
X154549000Y-83501000D01*
X154549000Y-82625116D01*
X154546598Y-82600730D01*
X154539485Y-82577281D01*
X154527934Y-82555670D01*
X154512389Y-82536728D01*
X154493447Y-82521183D01*
X154471836Y-82509632D01*
X154448387Y-82502519D01*
X154424001Y-82500117D01*
X154399615Y-82502519D01*
X154376166Y-82509632D01*
X154354555Y-82521183D01*
X154335613Y-82536728D01*
X154320068Y-82555670D01*
X154308517Y-82577281D01*
X154301404Y-82600730D01*
X154301000Y-82602760D01*
X154241396Y-82902410D01*
X154124479Y-83184674D01*
X153954741Y-83438705D01*
X153738705Y-83654741D01*
X153484674Y-83824479D01*
X153202410Y-83941396D01*
X153096770Y-83962409D01*
X152902761Y-84001000D01*
X152597239Y-84001000D01*
X152403230Y-83962409D01*
X152297590Y-83941396D01*
X152015326Y-83824479D01*
X151761295Y-83654741D01*
X151545259Y-83438705D01*
X151375521Y-83184674D01*
X151258604Y-82902410D01*
X151199000Y-82602760D01*
X151199000Y-82297240D01*
X151199757Y-82293436D01*
X151243375Y-82074151D01*
X151258604Y-81997590D01*
X151375521Y-81715326D01*
X151545259Y-81461295D01*
X151761295Y-81245259D01*
X152015326Y-81075521D01*
X152297590Y-80958604D01*
X152447415Y-80928802D01*
X152597239Y-80899000D01*
X152902761Y-80899000D01*
X153052585Y-80928802D01*
X153052585Y-80928802D01*
G37*
G36*
X177851000Y-83651000D02*
G01*
X175749000Y-83651000D01*
X175749000Y-81549000D01*
X177851000Y-81549000D01*
X177851000Y-83651000D01*
X177851000Y-83651000D01*
G37*
G36*
X174606564Y-81589389D02*
G01*
X174797833Y-81668615D01*
X174797835Y-81668616D01*
X174969973Y-81783635D01*
X175116365Y-81930027D01*
X175212666Y-82074151D01*
X175231385Y-82102167D01*
X175310611Y-82293436D01*
X175351000Y-82496484D01*
X175351000Y-82703516D01*
X175310611Y-82906564D01*
X175231385Y-83097833D01*
X175231384Y-83097835D01*
X175116365Y-83269973D01*
X174969973Y-83416365D01*
X174797835Y-83531384D01*
X174797834Y-83531385D01*
X174797833Y-83531385D01*
X174606564Y-83610611D01*
X174403516Y-83651000D01*
X174196484Y-83651000D01*
X173993436Y-83610611D01*
X173802167Y-83531385D01*
X173802166Y-83531385D01*
X173802165Y-83531384D01*
X173630027Y-83416365D01*
X173483635Y-83269973D01*
X173368616Y-83097835D01*
X173368615Y-83097833D01*
X173289389Y-82906564D01*
X173249000Y-82703516D01*
X173249000Y-82496484D01*
X173289389Y-82293436D01*
X173368615Y-82102167D01*
X173387335Y-82074151D01*
X173483635Y-81930027D01*
X173630027Y-81783635D01*
X173802165Y-81668616D01*
X173802167Y-81668615D01*
X173993436Y-81589389D01*
X174196484Y-81549000D01*
X174403516Y-81549000D01*
X174606564Y-81589389D01*
X174606564Y-81589389D01*
G37*
G36*
X172106564Y-81589389D02*
G01*
X172297833Y-81668615D01*
X172297835Y-81668616D01*
X172469973Y-81783635D01*
X172616365Y-81930027D01*
X172712666Y-82074151D01*
X172731385Y-82102167D01*
X172810611Y-82293436D01*
X172851000Y-82496484D01*
X172851000Y-82703516D01*
X172810611Y-82906564D01*
X172731385Y-83097833D01*
X172731384Y-83097835D01*
X172616365Y-83269973D01*
X172469973Y-83416365D01*
X172297835Y-83531384D01*
X172297834Y-83531385D01*
X172297833Y-83531385D01*
X172106564Y-83610611D01*
X171903516Y-83651000D01*
X171696484Y-83651000D01*
X171493436Y-83610611D01*
X171302167Y-83531385D01*
X171302166Y-83531385D01*
X171302165Y-83531384D01*
X171130027Y-83416365D01*
X170983635Y-83269973D01*
X170868616Y-83097835D01*
X170868615Y-83097833D01*
X170789389Y-82906564D01*
X170749000Y-82703516D01*
X170749000Y-82496484D01*
X170789389Y-82293436D01*
X170868615Y-82102167D01*
X170887335Y-82074151D01*
X170983635Y-81930027D01*
X171130027Y-81783635D01*
X171302165Y-81668616D01*
X171302167Y-81668615D01*
X171493436Y-81589389D01*
X171696484Y-81549000D01*
X171903516Y-81549000D01*
X172106564Y-81589389D01*
X172106564Y-81589389D01*
G37*
G36*
X96198254Y-79627818D02*
G01*
X96555997Y-79776000D01*
X96571513Y-79782427D01*
X96907436Y-80006884D01*
X97193116Y-80292564D01*
X97405889Y-80611000D01*
X97417574Y-80628489D01*
X97572182Y-81001746D01*
X97651000Y-81397993D01*
X97651000Y-81802007D01*
X97572182Y-82198254D01*
X97421293Y-82562532D01*
X97417573Y-82571513D01*
X97193116Y-82907436D01*
X96907436Y-83193116D01*
X96571513Y-83417573D01*
X96571512Y-83417574D01*
X96571511Y-83417574D01*
X96198254Y-83572182D01*
X95802007Y-83651000D01*
X95397993Y-83651000D01*
X95001746Y-83572182D01*
X94628489Y-83417574D01*
X94628488Y-83417574D01*
X94628487Y-83417573D01*
X94292564Y-83193116D01*
X94006884Y-82907436D01*
X93782427Y-82571513D01*
X93778707Y-82562532D01*
X93627818Y-82198254D01*
X93549000Y-81802007D01*
X93549000Y-81397993D01*
X93627818Y-81001746D01*
X93782426Y-80628489D01*
X93794112Y-80611000D01*
X94006884Y-80292564D01*
X94292564Y-80006884D01*
X94628487Y-79782427D01*
X94644003Y-79776000D01*
X95001746Y-79627818D01*
X95397993Y-79549000D01*
X95802007Y-79549000D01*
X96198254Y-79627818D01*
X96198254Y-79627818D01*
G37*
G36*
X164026000Y-83326000D02*
G01*
X162974000Y-83326000D01*
X162974000Y-81924000D01*
X164026000Y-81924000D01*
X164026000Y-83326000D01*
X164026000Y-83326000D01*
G37*
G36*
X161476000Y-83326000D02*
G01*
X160424000Y-83326000D01*
X160424000Y-81924000D01*
X161476000Y-81924000D01*
X161476000Y-83326000D01*
X161476000Y-83326000D01*
G37*
G36*
X101258918Y-80611000D02*
G01*
X101391981Y-80637468D01*
X101517560Y-80689485D01*
X101548764Y-80702410D01*
X101574151Y-80712926D01*
X101738100Y-80822473D01*
X101877527Y-80961900D01*
X101987074Y-81125849D01*
X102062532Y-81308019D01*
X102101000Y-81501410D01*
X102101000Y-81698590D01*
X102062532Y-81891981D01*
X101987074Y-82074151D01*
X101877527Y-82238100D01*
X101738100Y-82377527D01*
X101574151Y-82487074D01*
X101574150Y-82487075D01*
X101574149Y-82487075D01*
X101551429Y-82496486D01*
X101391981Y-82562532D01*
X101317833Y-82577281D01*
X101198591Y-82601000D01*
X101001409Y-82601000D01*
X100882167Y-82577281D01*
X100808019Y-82562532D01*
X100682440Y-82510515D01*
X100658991Y-82503402D01*
X100634605Y-82501000D01*
X100591258Y-82501000D01*
X100566488Y-82496073D01*
X100417188Y-82466376D01*
X100253216Y-82398456D01*
X100105646Y-82299853D01*
X99980147Y-82174354D01*
X99881544Y-82026784D01*
X99813624Y-81862812D01*
X99779000Y-81688741D01*
X99779000Y-81511259D01*
X99813624Y-81337188D01*
X99881544Y-81173216D01*
X99980147Y-81025646D01*
X100105646Y-80900147D01*
X100253216Y-80801544D01*
X100417188Y-80733624D01*
X100574120Y-80702409D01*
X100591258Y-80699000D01*
X100634605Y-80699000D01*
X100658991Y-80696598D01*
X100682440Y-80689485D01*
X100687690Y-80687311D01*
X100808019Y-80637468D01*
X100941082Y-80611000D01*
X101001409Y-80599000D01*
X101198591Y-80599000D01*
X101258918Y-80611000D01*
X101258918Y-80611000D01*
G37*
G36*
X90258918Y-80611000D02*
G01*
X90391981Y-80637468D01*
X90512310Y-80687311D01*
X90517560Y-80689485D01*
X90541009Y-80696598D01*
X90565395Y-80699000D01*
X90608742Y-80699000D01*
X90625880Y-80702409D01*
X90782812Y-80733624D01*
X90946784Y-80801544D01*
X91094354Y-80900147D01*
X91219853Y-81025646D01*
X91318456Y-81173216D01*
X91386376Y-81337188D01*
X91421000Y-81511259D01*
X91421000Y-81688741D01*
X91386376Y-81862812D01*
X91318456Y-82026784D01*
X91219853Y-82174354D01*
X91094354Y-82299853D01*
X90946784Y-82398456D01*
X90782812Y-82466376D01*
X90633512Y-82496073D01*
X90608742Y-82501000D01*
X90565395Y-82501000D01*
X90541009Y-82503402D01*
X90517560Y-82510515D01*
X90391981Y-82562532D01*
X90317833Y-82577281D01*
X90198591Y-82601000D01*
X90001409Y-82601000D01*
X89882167Y-82577281D01*
X89808019Y-82562532D01*
X89648571Y-82496486D01*
X89625851Y-82487075D01*
X89625850Y-82487075D01*
X89625849Y-82487074D01*
X89461900Y-82377527D01*
X89322473Y-82238100D01*
X89212926Y-82074151D01*
X89137468Y-81891981D01*
X89099000Y-81698590D01*
X89099000Y-81501410D01*
X89137468Y-81308019D01*
X89212926Y-81125849D01*
X89322473Y-80961900D01*
X89461900Y-80822473D01*
X89625849Y-80712926D01*
X89651237Y-80702410D01*
X89682440Y-80689485D01*
X89808019Y-80637468D01*
X89941082Y-80611000D01*
X90001409Y-80599000D01*
X90198591Y-80599000D01*
X90258918Y-80611000D01*
X90258918Y-80611000D01*
G37*
G36*
X136592585Y-79448802D02*
G01*
X136742410Y-79478604D01*
X137024674Y-79595521D01*
X137278705Y-79765259D01*
X137494741Y-79981295D01*
X137664479Y-80235326D01*
X137737120Y-80410698D01*
X137781396Y-80517591D01*
X137841000Y-80817239D01*
X137841000Y-81122761D01*
X137816633Y-81245260D01*
X137781396Y-81422410D01*
X137664479Y-81704674D01*
X137494741Y-81958705D01*
X137278705Y-82174741D01*
X137024674Y-82344479D01*
X136742410Y-82461396D01*
X136613318Y-82487074D01*
X136442761Y-82521000D01*
X136137239Y-82521000D01*
X135966682Y-82487074D01*
X135837590Y-82461396D01*
X135555326Y-82344479D01*
X135301295Y-82174741D01*
X135085259Y-81958705D01*
X134915521Y-81704674D01*
X134798604Y-81422410D01*
X134763367Y-81245260D01*
X134739000Y-81122761D01*
X134739000Y-80817239D01*
X134798604Y-80517591D01*
X134842880Y-80410698D01*
X134915521Y-80235326D01*
X135085259Y-79981295D01*
X135301295Y-79765259D01*
X135555326Y-79595521D01*
X135837590Y-79478604D01*
X135987415Y-79448802D01*
X136137239Y-79419000D01*
X136442761Y-79419000D01*
X136592585Y-79448802D01*
X136592585Y-79448802D01*
G37*
G36*
X104576000Y-82426000D02*
G01*
X103524000Y-82426000D01*
X103524000Y-81024000D01*
X104576000Y-81024000D01*
X104576000Y-82426000D01*
X104576000Y-82426000D01*
G37*
G36*
X140401000Y-82021000D02*
G01*
X138299000Y-82021000D01*
X138299000Y-79919000D01*
X140401000Y-79919000D01*
X140401000Y-82021000D01*
X140401000Y-82021000D01*
G37*
G36*
X148052585Y-78728802D02*
G01*
X148202410Y-78758604D01*
X148484674Y-78875521D01*
X148738705Y-79045259D01*
X148954741Y-79261295D01*
X149124479Y-79515326D01*
X149241396Y-79797590D01*
X149301000Y-80097240D01*
X149301000Y-80402760D01*
X149241396Y-80702410D01*
X149124479Y-80984674D01*
X148954741Y-81238705D01*
X148738705Y-81454741D01*
X148484674Y-81624479D01*
X148202410Y-81741396D01*
X148052585Y-81771198D01*
X147902761Y-81801000D01*
X147597239Y-81801000D01*
X147447415Y-81771198D01*
X147297590Y-81741396D01*
X147015326Y-81624479D01*
X146761295Y-81454741D01*
X146545259Y-81238705D01*
X146375521Y-80984674D01*
X146258604Y-80702410D01*
X146199000Y-80402760D01*
X146199000Y-80097240D01*
X146258604Y-79797590D01*
X146375521Y-79515326D01*
X146545259Y-79261295D01*
X146761295Y-79045259D01*
X147015326Y-78875521D01*
X147297590Y-78758604D01*
X147447415Y-78728802D01*
X147597239Y-78699000D01*
X147902761Y-78699000D01*
X148052585Y-78728802D01*
X148052585Y-78728802D01*
G37*
G36*
X145701000Y-81301000D02*
G01*
X143599000Y-81301000D01*
X143599000Y-79199000D01*
X145701000Y-79199000D01*
X145701000Y-81301000D01*
X145701000Y-81301000D01*
G37*
G36*
X92092585Y-77538802D02*
G01*
X92242410Y-77568604D01*
X92524674Y-77685521D01*
X92778705Y-77855259D01*
X92994741Y-78071295D01*
X93164479Y-78325326D01*
X93281396Y-78607590D01*
X93341000Y-78907240D01*
X93341000Y-79212760D01*
X93281396Y-79512410D01*
X93164479Y-79794674D01*
X92994741Y-80048705D01*
X92778705Y-80264741D01*
X92524674Y-80434479D01*
X92242410Y-80551396D01*
X92092585Y-80581198D01*
X91942761Y-80611000D01*
X91637239Y-80611000D01*
X91487415Y-80581198D01*
X91337590Y-80551396D01*
X91055326Y-80434479D01*
X90801295Y-80264741D01*
X90585259Y-80048705D01*
X90415521Y-79794674D01*
X90298604Y-79512410D01*
X90239000Y-79212760D01*
X90239000Y-78907240D01*
X90298604Y-78607590D01*
X90415521Y-78325326D01*
X90585259Y-78071295D01*
X90801295Y-77855259D01*
X91055326Y-77685521D01*
X91337590Y-77568604D01*
X91487415Y-77538802D01*
X91637239Y-77509000D01*
X91942761Y-77509000D01*
X92092585Y-77538802D01*
X92092585Y-77538802D01*
G37*
G36*
X104144425Y-78944599D02*
G01*
X104268621Y-78969302D01*
X104405022Y-79025801D01*
X104527779Y-79107825D01*
X104632175Y-79212221D01*
X104714199Y-79334978D01*
X104770698Y-79471379D01*
X104786137Y-79549000D01*
X104799500Y-79616180D01*
X104799500Y-79763820D01*
X104797077Y-79776000D01*
X104770698Y-79908621D01*
X104714199Y-80045022D01*
X104632175Y-80167779D01*
X104527779Y-80272175D01*
X104405022Y-80354199D01*
X104268621Y-80410698D01*
X104149062Y-80434479D01*
X104123820Y-80439500D01*
X103976180Y-80439500D01*
X103950938Y-80434479D01*
X103831379Y-80410698D01*
X103694978Y-80354199D01*
X103572221Y-80272175D01*
X103467825Y-80167779D01*
X103385801Y-80045022D01*
X103329302Y-79908621D01*
X103302923Y-79776000D01*
X103300500Y-79763820D01*
X103300500Y-79616180D01*
X103313863Y-79549000D01*
X103329302Y-79471379D01*
X103385801Y-79334978D01*
X103467825Y-79212221D01*
X103572221Y-79107825D01*
X103694978Y-79025801D01*
X103831379Y-78969302D01*
X103955575Y-78944599D01*
X103976180Y-78940500D01*
X104123820Y-78940500D01*
X104144425Y-78944599D01*
X104144425Y-78944599D01*
G37*
G36*
X89751000Y-80111000D02*
G01*
X87649000Y-80111000D01*
X87649000Y-78009000D01*
X89751000Y-78009000D01*
X89751000Y-80111000D01*
X89751000Y-80111000D01*
G37*
G36*
X164026000Y-79776000D02*
G01*
X162974000Y-79776000D01*
X162974000Y-78374000D01*
X164026000Y-78374000D01*
X164026000Y-79776000D01*
X164026000Y-79776000D01*
G37*
G36*
X161476000Y-79776000D02*
G01*
X160424000Y-79776000D01*
X160424000Y-78374000D01*
X161476000Y-78374000D01*
X161476000Y-79776000D01*
X161476000Y-79776000D01*
G37*
G36*
X115102585Y-76478802D02*
G01*
X115252410Y-76508604D01*
X115534674Y-76625521D01*
X115788705Y-76795259D01*
X116004741Y-77011295D01*
X116174479Y-77265326D01*
X116291396Y-77547590D01*
X116306232Y-77622175D01*
X116351404Y-77849270D01*
X116358517Y-77872719D01*
X116370068Y-77894330D01*
X116385613Y-77913272D01*
X116404555Y-77928817D01*
X116426166Y-77940368D01*
X116449615Y-77947481D01*
X116474001Y-77949883D01*
X116498387Y-77947481D01*
X116521836Y-77940368D01*
X116543447Y-77928817D01*
X116562389Y-77913272D01*
X116577934Y-77894330D01*
X116589485Y-77872719D01*
X116596598Y-77849270D01*
X116599000Y-77824884D01*
X116599000Y-76949000D01*
X118601000Y-76949000D01*
X118601000Y-79051000D01*
X116599000Y-79051000D01*
X116599000Y-78175116D01*
X116596598Y-78150730D01*
X116589485Y-78127281D01*
X116577934Y-78105670D01*
X116562389Y-78086728D01*
X116543447Y-78071183D01*
X116521836Y-78059632D01*
X116498387Y-78052519D01*
X116474001Y-78050117D01*
X116449615Y-78052519D01*
X116426166Y-78059632D01*
X116404555Y-78071183D01*
X116385613Y-78086728D01*
X116370068Y-78105670D01*
X116358517Y-78127281D01*
X116351404Y-78150730D01*
X116351000Y-78152760D01*
X116291396Y-78452410D01*
X116174479Y-78734674D01*
X116004741Y-78988705D01*
X115788705Y-79204741D01*
X115534674Y-79374479D01*
X115252410Y-79491396D01*
X115102585Y-79521198D01*
X114952761Y-79551000D01*
X114647239Y-79551000D01*
X114497415Y-79521198D01*
X114347590Y-79491396D01*
X114065326Y-79374479D01*
X113811295Y-79204741D01*
X113595259Y-78988705D01*
X113425521Y-78734674D01*
X113308604Y-78452410D01*
X113249000Y-78152760D01*
X113249000Y-77847240D01*
X113273367Y-77724741D01*
X113293768Y-77622175D01*
X113308604Y-77547590D01*
X113425521Y-77265326D01*
X113595259Y-77011295D01*
X113811295Y-76795259D01*
X114065326Y-76625521D01*
X114347590Y-76508604D01*
X114497415Y-76478802D01*
X114647239Y-76449000D01*
X114952761Y-76449000D01*
X115102585Y-76478802D01*
X115102585Y-76478802D01*
G37*
G36*
X153348254Y-74577818D02*
G01*
X153721511Y-74732426D01*
X153721513Y-74732427D01*
X154057436Y-74956884D01*
X154343116Y-75242564D01*
X154555889Y-75561000D01*
X154567574Y-75578489D01*
X154722182Y-75951746D01*
X154801000Y-76347993D01*
X154801000Y-76752007D01*
X154722182Y-77148254D01*
X154592839Y-77460515D01*
X154567573Y-77521513D01*
X154343116Y-77857436D01*
X154057436Y-78143116D01*
X153721513Y-78367573D01*
X153721512Y-78367574D01*
X153721511Y-78367574D01*
X153348254Y-78522182D01*
X152952007Y-78601000D01*
X152547993Y-78601000D01*
X152151746Y-78522182D01*
X151778489Y-78367574D01*
X151778488Y-78367574D01*
X151778487Y-78367573D01*
X151442564Y-78143116D01*
X151156884Y-77857436D01*
X150932427Y-77521513D01*
X150907161Y-77460515D01*
X150777818Y-77148254D01*
X150699000Y-76752007D01*
X150699000Y-76347993D01*
X150777818Y-75951746D01*
X150932426Y-75578489D01*
X150944112Y-75561000D01*
X151156884Y-75242564D01*
X151442564Y-74956884D01*
X151778487Y-74732427D01*
X151778489Y-74732426D01*
X152151746Y-74577818D01*
X152547993Y-74499000D01*
X152952007Y-74499000D01*
X153348254Y-74577818D01*
X153348254Y-74577818D01*
G37*
G36*
X98442092Y-74998704D02*
G01*
X98592410Y-75028604D01*
X98874674Y-75145521D01*
X99128705Y-75315259D01*
X99344741Y-75531295D01*
X99514479Y-75785326D01*
X99593312Y-75975647D01*
X99631396Y-76067591D01*
X99691000Y-76367239D01*
X99691000Y-76672761D01*
X99666633Y-76795260D01*
X99631396Y-76972410D01*
X99514479Y-77254674D01*
X99344741Y-77508705D01*
X99128705Y-77724741D01*
X98874674Y-77894479D01*
X98592410Y-78011396D01*
X98442585Y-78041198D01*
X98292761Y-78071000D01*
X97987239Y-78071000D01*
X97837415Y-78041198D01*
X97687590Y-78011396D01*
X97405326Y-77894479D01*
X97151295Y-77724741D01*
X96935259Y-77508705D01*
X96765521Y-77254674D01*
X96648604Y-76972410D01*
X96613367Y-76795260D01*
X96589000Y-76672761D01*
X96589000Y-76367239D01*
X96648604Y-76067591D01*
X96686688Y-75975647D01*
X96765521Y-75785326D01*
X96935259Y-75531295D01*
X97151295Y-75315259D01*
X97405326Y-75145521D01*
X97687590Y-75028604D01*
X97837908Y-74998704D01*
X97987239Y-74969000D01*
X98292761Y-74969000D01*
X98442092Y-74998704D01*
X98442092Y-74998704D01*
G37*
G36*
X163594425Y-76294599D02*
G01*
X163718621Y-76319302D01*
X163855022Y-76375801D01*
X163977779Y-76457825D01*
X164082175Y-76562221D01*
X164164199Y-76684978D01*
X164220698Y-76821379D01*
X164249500Y-76966181D01*
X164249500Y-77113819D01*
X164220698Y-77258621D01*
X164164199Y-77395022D01*
X164082175Y-77517779D01*
X163977779Y-77622175D01*
X163855022Y-77704199D01*
X163718621Y-77760698D01*
X163594425Y-77785401D01*
X163573820Y-77789500D01*
X163426180Y-77789500D01*
X163405575Y-77785401D01*
X163281379Y-77760698D01*
X163144978Y-77704199D01*
X163022221Y-77622175D01*
X162917825Y-77517779D01*
X162835801Y-77395022D01*
X162779302Y-77258621D01*
X162750500Y-77113819D01*
X162750500Y-76966181D01*
X162779302Y-76821379D01*
X162835801Y-76684978D01*
X162917825Y-76562221D01*
X163022221Y-76457825D01*
X163144978Y-76375801D01*
X163281379Y-76319302D01*
X163405575Y-76294599D01*
X163426180Y-76290500D01*
X163573820Y-76290500D01*
X163594425Y-76294599D01*
X163594425Y-76294599D01*
G37*
G36*
X161044425Y-76294599D02*
G01*
X161168621Y-76319302D01*
X161305022Y-76375801D01*
X161427779Y-76457825D01*
X161532175Y-76562221D01*
X161614199Y-76684978D01*
X161670698Y-76821379D01*
X161699500Y-76966181D01*
X161699500Y-77113819D01*
X161670698Y-77258621D01*
X161614199Y-77395022D01*
X161532175Y-77517779D01*
X161427779Y-77622175D01*
X161305022Y-77704199D01*
X161168621Y-77760698D01*
X161044425Y-77785401D01*
X161023820Y-77789500D01*
X160876180Y-77789500D01*
X160855575Y-77785401D01*
X160731379Y-77760698D01*
X160594978Y-77704199D01*
X160472221Y-77622175D01*
X160367825Y-77517779D01*
X160285801Y-77395022D01*
X160229302Y-77258621D01*
X160200500Y-77113819D01*
X160200500Y-76966181D01*
X160229302Y-76821379D01*
X160285801Y-76684978D01*
X160367825Y-76562221D01*
X160472221Y-76457825D01*
X160594978Y-76375801D01*
X160731379Y-76319302D01*
X160855575Y-76294599D01*
X160876180Y-76290500D01*
X161023820Y-76290500D01*
X161044425Y-76294599D01*
X161044425Y-76294599D01*
G37*
G36*
X102251000Y-77571000D02*
G01*
X100149000Y-77571000D01*
X100149000Y-75469000D01*
X102251000Y-75469000D01*
X102251000Y-77571000D01*
X102251000Y-77571000D01*
G37*
G36*
X147408918Y-75561000D02*
G01*
X147541981Y-75587468D01*
X147662310Y-75637311D01*
X147667560Y-75639485D01*
X147691009Y-75646598D01*
X147715395Y-75649000D01*
X147758742Y-75649000D01*
X147783512Y-75653927D01*
X147932812Y-75683624D01*
X148096784Y-75751544D01*
X148244354Y-75850147D01*
X148369853Y-75975646D01*
X148468456Y-76123216D01*
X148536376Y-76287188D01*
X148571000Y-76461259D01*
X148571000Y-76638741D01*
X148536376Y-76812812D01*
X148468456Y-76976784D01*
X148369853Y-77124354D01*
X148244354Y-77249853D01*
X148096784Y-77348456D01*
X147932812Y-77416376D01*
X147783512Y-77446073D01*
X147758742Y-77451000D01*
X147715395Y-77451000D01*
X147691009Y-77453402D01*
X147667560Y-77460515D01*
X147541981Y-77512532D01*
X147348591Y-77551000D01*
X147151409Y-77551000D01*
X146958019Y-77512532D01*
X146775849Y-77437074D01*
X146611900Y-77327527D01*
X146472473Y-77188100D01*
X146362926Y-77024151D01*
X146287468Y-76841981D01*
X146249000Y-76648590D01*
X146249000Y-76451410D01*
X146265743Y-76367240D01*
X146287468Y-76258020D01*
X146289792Y-76252410D01*
X146362926Y-76075849D01*
X146472473Y-75911900D01*
X146611900Y-75772473D01*
X146775849Y-75662926D01*
X146958019Y-75587468D01*
X147091082Y-75561000D01*
X147151409Y-75549000D01*
X147348591Y-75549000D01*
X147408918Y-75561000D01*
X147408918Y-75561000D01*
G37*
G36*
X158408918Y-75561000D02*
G01*
X158541981Y-75587468D01*
X158724151Y-75662926D01*
X158888100Y-75772473D01*
X159027527Y-75911900D01*
X159137074Y-76075849D01*
X159210209Y-76252410D01*
X159212532Y-76258020D01*
X159234258Y-76367240D01*
X159251000Y-76451410D01*
X159251000Y-76648590D01*
X159212532Y-76841981D01*
X159137074Y-77024151D01*
X159027527Y-77188100D01*
X158888100Y-77327527D01*
X158724151Y-77437074D01*
X158541981Y-77512532D01*
X158348591Y-77551000D01*
X158151409Y-77551000D01*
X157958019Y-77512532D01*
X157832440Y-77460515D01*
X157808991Y-77453402D01*
X157784605Y-77451000D01*
X157741258Y-77451000D01*
X157716488Y-77446073D01*
X157567188Y-77416376D01*
X157403216Y-77348456D01*
X157255646Y-77249853D01*
X157130147Y-77124354D01*
X157031544Y-76976784D01*
X156963624Y-76812812D01*
X156929000Y-76638741D01*
X156929000Y-76461259D01*
X156963624Y-76287188D01*
X157031544Y-76123216D01*
X157130147Y-75975646D01*
X157255646Y-75850147D01*
X157403216Y-75751544D01*
X157567188Y-75683624D01*
X157716488Y-75653927D01*
X157741258Y-75649000D01*
X157784605Y-75649000D01*
X157808991Y-75646598D01*
X157832440Y-75639485D01*
X157837690Y-75637311D01*
X157958019Y-75587468D01*
X158091082Y-75561000D01*
X158151409Y-75549000D01*
X158348591Y-75549000D01*
X158408918Y-75561000D01*
X158408918Y-75561000D01*
G37*
G36*
X110058199Y-74269973D02*
G01*
X110252410Y-74308604D01*
X110534674Y-74425521D01*
X110788705Y-74595259D01*
X111004741Y-74811295D01*
X111174479Y-75065326D01*
X111291396Y-75347590D01*
X111291396Y-75347591D01*
X111351000Y-75647239D01*
X111351000Y-75952761D01*
X111339714Y-76009500D01*
X111291396Y-76252410D01*
X111174479Y-76534674D01*
X111004741Y-76788705D01*
X110788705Y-77004741D01*
X110534674Y-77174479D01*
X110252410Y-77291396D01*
X110102585Y-77321198D01*
X109952761Y-77351000D01*
X109647239Y-77351000D01*
X109497415Y-77321198D01*
X109347590Y-77291396D01*
X109065326Y-77174479D01*
X108811295Y-77004741D01*
X108595259Y-76788705D01*
X108425521Y-76534674D01*
X108308604Y-76252410D01*
X108260286Y-76009500D01*
X108249000Y-75952761D01*
X108249000Y-75647239D01*
X108308604Y-75347591D01*
X108308604Y-75347590D01*
X108425521Y-75065326D01*
X108595259Y-74811295D01*
X108811295Y-74595259D01*
X109065326Y-74425521D01*
X109347590Y-74308604D01*
X109541801Y-74269973D01*
X109647239Y-74249000D01*
X109952761Y-74249000D01*
X110058199Y-74269973D01*
X110058199Y-74269973D01*
G37*
G36*
X107751000Y-76851000D02*
G01*
X105649000Y-76851000D01*
X105649000Y-74749000D01*
X107751000Y-74749000D01*
X107751000Y-76851000D01*
X107751000Y-76851000D01*
G37*
G36*
X142699500Y-76009500D02*
G01*
X141200500Y-76009500D01*
X141200500Y-74510500D01*
X142699500Y-74510500D01*
X142699500Y-76009500D01*
X142699500Y-76009500D01*
G37*
G36*
X123849500Y-75909500D02*
G01*
X122350500Y-75909500D01*
X122350500Y-74410500D01*
X123849500Y-74410500D01*
X123849500Y-75909500D01*
X123849500Y-75909500D01*
G37*
G36*
X149242585Y-72488802D02*
G01*
X149392410Y-72518604D01*
X149674674Y-72635521D01*
X149928705Y-72805259D01*
X150144741Y-73021295D01*
X150314479Y-73275326D01*
X150431396Y-73557590D01*
X150491000Y-73857240D01*
X150491000Y-74162760D01*
X150431396Y-74462410D01*
X150314479Y-74744674D01*
X150144741Y-74998705D01*
X149928705Y-75214741D01*
X149674674Y-75384479D01*
X149392410Y-75501396D01*
X149242585Y-75531198D01*
X149092761Y-75561000D01*
X148787239Y-75561000D01*
X148637415Y-75531198D01*
X148487590Y-75501396D01*
X148205326Y-75384479D01*
X147951295Y-75214741D01*
X147735259Y-74998705D01*
X147565521Y-74744674D01*
X147448604Y-74462410D01*
X147389000Y-74162760D01*
X147389000Y-73857240D01*
X147448604Y-73557590D01*
X147565521Y-73275326D01*
X147735259Y-73021295D01*
X147951295Y-72805259D01*
X148205326Y-72635521D01*
X148487590Y-72518604D01*
X148637415Y-72488802D01*
X148787239Y-72459000D01*
X149092761Y-72459000D01*
X149242585Y-72488802D01*
X149242585Y-72488802D01*
G37*
G36*
X146901000Y-75061000D02*
G01*
X144799000Y-75061000D01*
X144799000Y-72959000D01*
X146901000Y-72959000D01*
X146901000Y-75061000D01*
X146901000Y-75061000D01*
G37*
G36*
X172206564Y-72589389D02*
G01*
X172397833Y-72668615D01*
X172397835Y-72668616D01*
X172569973Y-72783635D01*
X172716365Y-72930027D01*
X172830606Y-73101000D01*
X172831385Y-73102167D01*
X172910611Y-73293436D01*
X172951000Y-73496484D01*
X172951000Y-73703516D01*
X172910611Y-73906564D01*
X172871494Y-74001000D01*
X172831384Y-74097835D01*
X172716365Y-74269973D01*
X172569973Y-74416365D01*
X172397835Y-74531384D01*
X172397834Y-74531385D01*
X172397833Y-74531385D01*
X172206564Y-74610611D01*
X172003516Y-74651000D01*
X171796484Y-74651000D01*
X171593436Y-74610611D01*
X171402167Y-74531385D01*
X171402166Y-74531385D01*
X171402165Y-74531384D01*
X171230027Y-74416365D01*
X171083635Y-74269973D01*
X170968616Y-74097835D01*
X170928506Y-74001000D01*
X170889389Y-73906564D01*
X170849000Y-73703516D01*
X170849000Y-73496484D01*
X170889389Y-73293436D01*
X170968615Y-73102167D01*
X170969395Y-73101000D01*
X171083635Y-72930027D01*
X171230027Y-72783635D01*
X171402165Y-72668616D01*
X171402167Y-72668615D01*
X171593436Y-72589389D01*
X171796484Y-72549000D01*
X172003516Y-72549000D01*
X172206564Y-72589389D01*
X172206564Y-72589389D01*
G37*
G36*
X177206564Y-72589389D02*
G01*
X177397833Y-72668615D01*
X177397835Y-72668616D01*
X177569973Y-72783635D01*
X177716365Y-72930027D01*
X177830606Y-73101000D01*
X177831385Y-73102167D01*
X177910611Y-73293436D01*
X177951000Y-73496484D01*
X177951000Y-73703516D01*
X177910611Y-73906564D01*
X177871494Y-74001000D01*
X177831384Y-74097835D01*
X177716365Y-74269973D01*
X177569973Y-74416365D01*
X177397835Y-74531384D01*
X177397834Y-74531385D01*
X177397833Y-74531385D01*
X177206564Y-74610611D01*
X177003516Y-74651000D01*
X176796484Y-74651000D01*
X176593436Y-74610611D01*
X176402167Y-74531385D01*
X176402166Y-74531385D01*
X176402165Y-74531384D01*
X176230027Y-74416365D01*
X176083635Y-74269973D01*
X175968616Y-74097835D01*
X175928506Y-74001000D01*
X175889389Y-73906564D01*
X175849000Y-73703516D01*
X175849000Y-73496484D01*
X175889389Y-73293436D01*
X175968615Y-73102167D01*
X175969395Y-73101000D01*
X176083635Y-72930027D01*
X176230027Y-72783635D01*
X176402165Y-72668616D01*
X176402167Y-72668615D01*
X176593436Y-72589389D01*
X176796484Y-72549000D01*
X177003516Y-72549000D01*
X177206564Y-72589389D01*
X177206564Y-72589389D01*
G37*
G36*
X134002585Y-71428802D02*
G01*
X134152410Y-71458604D01*
X134434674Y-71575521D01*
X134688705Y-71745259D01*
X134904741Y-71961295D01*
X135074479Y-72215326D01*
X135191396Y-72497590D01*
X135206625Y-72574151D01*
X135251404Y-72799270D01*
X135258517Y-72822719D01*
X135270068Y-72844330D01*
X135285613Y-72863272D01*
X135304555Y-72878817D01*
X135326166Y-72890368D01*
X135349615Y-72897481D01*
X135374001Y-72899883D01*
X135398387Y-72897481D01*
X135421836Y-72890368D01*
X135443447Y-72878817D01*
X135462389Y-72863272D01*
X135477934Y-72844330D01*
X135489485Y-72822719D01*
X135496598Y-72799270D01*
X135499000Y-72774884D01*
X135499000Y-71899000D01*
X137501000Y-71899000D01*
X137501000Y-74001000D01*
X135499000Y-74001000D01*
X135499000Y-73125116D01*
X135496598Y-73100730D01*
X135489485Y-73077281D01*
X135477934Y-73055670D01*
X135462389Y-73036728D01*
X135443447Y-73021183D01*
X135421836Y-73009632D01*
X135398387Y-73002519D01*
X135374001Y-73000117D01*
X135349615Y-73002519D01*
X135326166Y-73009632D01*
X135304555Y-73021183D01*
X135285613Y-73036728D01*
X135270068Y-73055670D01*
X135258517Y-73077281D01*
X135251404Y-73100730D01*
X135251000Y-73102760D01*
X135191396Y-73402410D01*
X135074479Y-73684674D01*
X134904741Y-73938705D01*
X134688705Y-74154741D01*
X134434674Y-74324479D01*
X134152410Y-74441396D01*
X134046770Y-74462409D01*
X133852761Y-74501000D01*
X133547239Y-74501000D01*
X133353230Y-74462409D01*
X133247590Y-74441396D01*
X132965326Y-74324479D01*
X132711295Y-74154741D01*
X132495259Y-73938705D01*
X132325521Y-73684674D01*
X132208604Y-73402410D01*
X132149000Y-73102760D01*
X132149000Y-72797240D01*
X132168690Y-72698254D01*
X132193375Y-72574151D01*
X132208604Y-72497590D01*
X132325521Y-72215326D01*
X132495259Y-71961295D01*
X132711295Y-71745259D01*
X132965326Y-71575521D01*
X133247590Y-71458604D01*
X133397415Y-71428802D01*
X133547239Y-71399000D01*
X133852761Y-71399000D01*
X134002585Y-71428802D01*
X134002585Y-71428802D01*
G37*
G36*
X115398254Y-70127818D02*
G01*
X115755997Y-70276000D01*
X115771513Y-70282427D01*
X116107436Y-70506884D01*
X116393116Y-70792564D01*
X116605889Y-71111000D01*
X116617574Y-71128489D01*
X116772182Y-71501746D01*
X116851000Y-71897993D01*
X116851000Y-72302007D01*
X116772182Y-72698254D01*
X116621293Y-73062532D01*
X116617573Y-73071513D01*
X116393116Y-73407436D01*
X116107436Y-73693116D01*
X115771513Y-73917573D01*
X115771512Y-73917574D01*
X115771511Y-73917574D01*
X115398254Y-74072182D01*
X115002007Y-74151000D01*
X114597993Y-74151000D01*
X114201746Y-74072182D01*
X113828489Y-73917574D01*
X113828488Y-73917574D01*
X113828487Y-73917573D01*
X113492564Y-73693116D01*
X113206884Y-73407436D01*
X112982427Y-73071513D01*
X112978707Y-73062532D01*
X112827818Y-72698254D01*
X112749000Y-72302007D01*
X112749000Y-71897993D01*
X112827818Y-71501746D01*
X112982426Y-71128489D01*
X112994112Y-71111000D01*
X113206884Y-70792564D01*
X113492564Y-70506884D01*
X113828487Y-70282427D01*
X113844003Y-70276000D01*
X114201746Y-70127818D01*
X114597993Y-70049000D01*
X115002007Y-70049000D01*
X115398254Y-70127818D01*
X115398254Y-70127818D01*
G37*
G36*
X142476000Y-73926000D02*
G01*
X141424000Y-73926000D01*
X141424000Y-72524000D01*
X142476000Y-72524000D01*
X142476000Y-73926000D01*
X142476000Y-73926000D01*
G37*
G36*
X123626000Y-73826000D02*
G01*
X122574000Y-73826000D01*
X122574000Y-72424000D01*
X123626000Y-72424000D01*
X123626000Y-73826000D01*
X123626000Y-73826000D01*
G37*
G36*
X109458918Y-71111000D02*
G01*
X109591981Y-71137468D01*
X109712310Y-71187311D01*
X109717560Y-71189485D01*
X109741009Y-71196598D01*
X109765395Y-71199000D01*
X109808742Y-71199000D01*
X109825880Y-71202409D01*
X109982812Y-71233624D01*
X110146784Y-71301544D01*
X110294354Y-71400147D01*
X110419853Y-71525646D01*
X110518456Y-71673216D01*
X110586376Y-71837188D01*
X110621000Y-72011259D01*
X110621000Y-72188741D01*
X110586376Y-72362812D01*
X110518456Y-72526784D01*
X110419853Y-72674354D01*
X110294354Y-72799853D01*
X110146784Y-72898456D01*
X109982812Y-72966376D01*
X109833512Y-72996073D01*
X109808742Y-73001000D01*
X109765395Y-73001000D01*
X109741009Y-73003402D01*
X109717560Y-73010515D01*
X109591981Y-73062532D01*
X109517833Y-73077281D01*
X109398591Y-73101000D01*
X109201409Y-73101000D01*
X109082167Y-73077281D01*
X109008019Y-73062532D01*
X108825849Y-72987074D01*
X108661900Y-72877527D01*
X108522473Y-72738100D01*
X108412926Y-72574151D01*
X108337468Y-72391981D01*
X108299000Y-72198590D01*
X108299000Y-72001410D01*
X108337468Y-71808019D01*
X108412926Y-71625849D01*
X108522473Y-71461900D01*
X108661900Y-71322473D01*
X108825849Y-71212926D01*
X108851237Y-71202410D01*
X108882440Y-71189485D01*
X109008019Y-71137468D01*
X109141082Y-71111000D01*
X109201409Y-71099000D01*
X109398591Y-71099000D01*
X109458918Y-71111000D01*
X109458918Y-71111000D01*
G37*
G36*
X120458918Y-71111000D02*
G01*
X120591981Y-71137468D01*
X120717560Y-71189485D01*
X120748764Y-71202410D01*
X120774151Y-71212926D01*
X120938100Y-71322473D01*
X121077527Y-71461900D01*
X121187074Y-71625849D01*
X121262532Y-71808019D01*
X121301000Y-72001410D01*
X121301000Y-72198590D01*
X121262532Y-72391981D01*
X121187074Y-72574151D01*
X121077527Y-72738100D01*
X120938100Y-72877527D01*
X120774151Y-72987074D01*
X120591981Y-73062532D01*
X120517833Y-73077281D01*
X120398591Y-73101000D01*
X120201409Y-73101000D01*
X120082167Y-73077281D01*
X120008019Y-73062532D01*
X119882440Y-73010515D01*
X119858991Y-73003402D01*
X119834605Y-73001000D01*
X119791258Y-73001000D01*
X119766488Y-72996073D01*
X119617188Y-72966376D01*
X119453216Y-72898456D01*
X119305646Y-72799853D01*
X119180147Y-72674354D01*
X119081544Y-72526784D01*
X119013624Y-72362812D01*
X118979000Y-72188741D01*
X118979000Y-72011259D01*
X119013624Y-71837188D01*
X119081544Y-71673216D01*
X119180147Y-71525646D01*
X119305646Y-71400147D01*
X119453216Y-71301544D01*
X119617188Y-71233624D01*
X119774120Y-71202409D01*
X119791258Y-71199000D01*
X119834605Y-71199000D01*
X119858991Y-71196598D01*
X119882440Y-71189485D01*
X119887690Y-71187311D01*
X120008019Y-71137468D01*
X120141082Y-71111000D01*
X120201409Y-71099000D01*
X120398591Y-71099000D01*
X120458918Y-71111000D01*
X120458918Y-71111000D01*
G37*
G36*
X155592585Y-69948802D02*
G01*
X155742410Y-69978604D01*
X156024674Y-70095521D01*
X156278705Y-70265259D01*
X156494741Y-70481295D01*
X156664479Y-70735326D01*
X156746970Y-70934479D01*
X156781396Y-71017591D01*
X156841000Y-71317239D01*
X156841000Y-71622761D01*
X156816633Y-71745260D01*
X156781396Y-71922410D01*
X156664479Y-72204674D01*
X156494741Y-72458705D01*
X156278705Y-72674741D01*
X156024674Y-72844479D01*
X155742410Y-72961396D01*
X155613318Y-72987074D01*
X155442761Y-73021000D01*
X155137239Y-73021000D01*
X154966682Y-72987074D01*
X154837590Y-72961396D01*
X154555326Y-72844479D01*
X154301295Y-72674741D01*
X154085259Y-72458705D01*
X153915521Y-72204674D01*
X153798604Y-71922410D01*
X153763367Y-71745260D01*
X153739000Y-71622761D01*
X153739000Y-71317239D01*
X153798604Y-71017591D01*
X153833030Y-70934479D01*
X153915521Y-70735326D01*
X154085259Y-70481295D01*
X154301295Y-70265259D01*
X154555326Y-70095521D01*
X154837590Y-69978604D01*
X154987415Y-69948802D01*
X155137239Y-69919000D01*
X155442761Y-69919000D01*
X155592585Y-69948802D01*
X155592585Y-69948802D01*
G37*
G36*
X103347536Y-68818827D02*
G01*
X103482839Y-68845740D01*
X103865197Y-69004118D01*
X104010191Y-69101000D01*
X104209309Y-69234046D01*
X104501954Y-69526691D01*
X104514361Y-69545260D01*
X104731882Y-69870803D01*
X104890260Y-70253161D01*
X104894803Y-70276000D01*
X104971000Y-70659068D01*
X104971000Y-71072932D01*
X104943153Y-71212926D01*
X104890260Y-71478839D01*
X104782620Y-71738704D01*
X104741827Y-71837189D01*
X104731882Y-71861197D01*
X104664998Y-71961296D01*
X104501954Y-72205309D01*
X104209309Y-72497954D01*
X104132913Y-72549000D01*
X103865197Y-72727882D01*
X103482839Y-72886260D01*
X103421525Y-72898456D01*
X103076932Y-72967000D01*
X102663068Y-72967000D01*
X102318475Y-72898456D01*
X102257161Y-72886260D01*
X101874803Y-72727882D01*
X101607087Y-72549000D01*
X101530691Y-72497954D01*
X101238046Y-72205309D01*
X101075002Y-71961296D01*
X101008118Y-71861197D01*
X100998174Y-71837189D01*
X100957380Y-71738704D01*
X100849740Y-71478839D01*
X100796847Y-71212926D01*
X100769000Y-71072932D01*
X100769000Y-70659068D01*
X100845197Y-70276000D01*
X100849740Y-70253161D01*
X101008118Y-69870803D01*
X101225639Y-69545260D01*
X101238046Y-69526691D01*
X101530691Y-69234046D01*
X101729809Y-69101000D01*
X101874803Y-69004118D01*
X102257161Y-68845740D01*
X102392464Y-68818827D01*
X102663068Y-68765000D01*
X103076932Y-68765000D01*
X103347536Y-68818827D01*
X103347536Y-68818827D01*
G37*
G36*
X162866336Y-68818827D02*
G01*
X163001639Y-68845740D01*
X163383997Y-69004118D01*
X163528991Y-69101000D01*
X163728109Y-69234046D01*
X164020754Y-69526691D01*
X164033161Y-69545260D01*
X164250682Y-69870803D01*
X164409060Y-70253161D01*
X164413603Y-70276000D01*
X164489800Y-70659068D01*
X164489800Y-71072932D01*
X164461953Y-71212926D01*
X164409060Y-71478839D01*
X164301420Y-71738704D01*
X164260627Y-71837189D01*
X164250682Y-71861197D01*
X164183798Y-71961296D01*
X164020754Y-72205309D01*
X163728109Y-72497954D01*
X163651713Y-72549000D01*
X163383997Y-72727882D01*
X163001639Y-72886260D01*
X162940325Y-72898456D01*
X162595732Y-72967000D01*
X162181868Y-72967000D01*
X161837275Y-72898456D01*
X161775961Y-72886260D01*
X161393603Y-72727882D01*
X161125887Y-72549000D01*
X161049491Y-72497954D01*
X160756846Y-72205309D01*
X160593802Y-71961296D01*
X160526918Y-71861197D01*
X160516974Y-71837189D01*
X160476180Y-71738704D01*
X160368540Y-71478839D01*
X160315647Y-71212926D01*
X160287800Y-71072932D01*
X160287800Y-70659068D01*
X160363997Y-70276000D01*
X160368540Y-70253161D01*
X160526918Y-69870803D01*
X160744439Y-69545260D01*
X160756846Y-69526691D01*
X161049491Y-69234046D01*
X161248609Y-69101000D01*
X161393603Y-69004118D01*
X161775961Y-68845740D01*
X161911264Y-68818827D01*
X162181868Y-68765000D01*
X162595732Y-68765000D01*
X162866336Y-68818827D01*
X162866336Y-68818827D01*
G37*
G36*
X159401000Y-72521000D02*
G01*
X157299000Y-72521000D01*
X157299000Y-70419000D01*
X159401000Y-70419000D01*
X159401000Y-72521000D01*
X159401000Y-72521000D01*
G37*
G36*
X129002585Y-69228802D02*
G01*
X129152410Y-69258604D01*
X129434674Y-69375521D01*
X129688705Y-69545259D01*
X129904741Y-69761295D01*
X130074479Y-70015326D01*
X130191396Y-70297590D01*
X130251000Y-70597240D01*
X130251000Y-70902760D01*
X130191396Y-71202410D01*
X130074479Y-71484674D01*
X129904741Y-71738705D01*
X129688705Y-71954741D01*
X129434674Y-72124479D01*
X129152410Y-72241396D01*
X129002585Y-72271198D01*
X128852761Y-72301000D01*
X128547239Y-72301000D01*
X128397415Y-72271198D01*
X128247590Y-72241396D01*
X127965326Y-72124479D01*
X127711295Y-71954741D01*
X127495259Y-71738705D01*
X127325521Y-71484674D01*
X127208604Y-71202410D01*
X127149000Y-70902760D01*
X127149000Y-70597240D01*
X127208604Y-70297590D01*
X127325521Y-70015326D01*
X127495259Y-69761295D01*
X127711295Y-69545259D01*
X127965326Y-69375521D01*
X128247590Y-69258604D01*
X128397415Y-69228802D01*
X128547239Y-69199000D01*
X128852761Y-69199000D01*
X129002585Y-69228802D01*
X129002585Y-69228802D01*
G37*
G36*
X126651000Y-71801000D02*
G01*
X124549000Y-71801000D01*
X124549000Y-69699000D01*
X126651000Y-69699000D01*
X126651000Y-71801000D01*
X126651000Y-71801000D01*
G37*
G36*
X111292585Y-68038802D02*
G01*
X111442410Y-68068604D01*
X111724674Y-68185521D01*
X111978705Y-68355259D01*
X112194741Y-68571295D01*
X112364479Y-68825326D01*
X112481396Y-69107590D01*
X112541000Y-69407240D01*
X112541000Y-69712760D01*
X112481396Y-70012410D01*
X112364479Y-70294674D01*
X112194741Y-70548705D01*
X111978705Y-70764741D01*
X111724674Y-70934479D01*
X111442410Y-71051396D01*
X111334151Y-71072930D01*
X111142761Y-71111000D01*
X110837239Y-71111000D01*
X110645849Y-71072930D01*
X110537590Y-71051396D01*
X110255326Y-70934479D01*
X110001295Y-70764741D01*
X109785259Y-70548705D01*
X109615521Y-70294674D01*
X109498604Y-70012410D01*
X109439000Y-69712760D01*
X109439000Y-69407240D01*
X109498604Y-69107590D01*
X109615521Y-68825326D01*
X109785259Y-68571295D01*
X110001295Y-68355259D01*
X110255326Y-68185521D01*
X110537590Y-68068604D01*
X110687415Y-68038802D01*
X110837239Y-68009000D01*
X111142761Y-68009000D01*
X111292585Y-68038802D01*
X111292585Y-68038802D01*
G37*
G36*
X108951000Y-70611000D02*
G01*
X106849000Y-70611000D01*
X106849000Y-68509000D01*
X108951000Y-68509000D01*
X108951000Y-70611000D01*
X108951000Y-70611000D01*
G37*
G36*
X142476000Y-70376000D02*
G01*
X141424000Y-70376000D01*
X141424000Y-68974000D01*
X142476000Y-68974000D01*
X142476000Y-70376000D01*
X142476000Y-70376000D01*
G37*
G36*
X123626000Y-70276000D02*
G01*
X122574000Y-70276000D01*
X122574000Y-68874000D01*
X123626000Y-68874000D01*
X123626000Y-70276000D01*
X123626000Y-70276000D01*
G37*
G36*
X134298254Y-65077818D02*
G01*
X134671511Y-65232426D01*
X134671513Y-65232427D01*
X135007436Y-65456884D01*
X135293116Y-65742564D01*
X135505889Y-66061000D01*
X135517574Y-66078489D01*
X135672182Y-66451746D01*
X135751000Y-66847993D01*
X135751000Y-67252007D01*
X135672182Y-67648254D01*
X135542839Y-67960515D01*
X135517573Y-68021513D01*
X135293116Y-68357436D01*
X135007436Y-68643116D01*
X134671513Y-68867573D01*
X134671512Y-68867574D01*
X134671511Y-68867574D01*
X134298254Y-69022182D01*
X133902007Y-69101000D01*
X133497993Y-69101000D01*
X133101746Y-69022182D01*
X132728489Y-68867574D01*
X132728488Y-68867574D01*
X132728487Y-68867573D01*
X132392564Y-68643116D01*
X132106884Y-68357436D01*
X131882427Y-68021513D01*
X131857161Y-67960515D01*
X131727818Y-67648254D01*
X131649000Y-67252007D01*
X131649000Y-66847993D01*
X131727818Y-66451746D01*
X131882426Y-66078489D01*
X131894112Y-66061000D01*
X132106884Y-65742564D01*
X132392564Y-65456884D01*
X132728487Y-65232427D01*
X132728489Y-65232426D01*
X133101746Y-65077818D01*
X133497993Y-64999000D01*
X133902007Y-64999000D01*
X134298254Y-65077818D01*
X134298254Y-65077818D01*
G37*
G36*
X117642092Y-65498704D02*
G01*
X117792410Y-65528604D01*
X118074674Y-65645521D01*
X118328705Y-65815259D01*
X118544741Y-66031295D01*
X118714479Y-66285326D01*
X118793312Y-66475647D01*
X118831396Y-66567591D01*
X118891000Y-66867239D01*
X118891000Y-67172761D01*
X118868678Y-67284981D01*
X118831396Y-67472410D01*
X118714479Y-67754674D01*
X118544741Y-68008705D01*
X118328705Y-68224741D01*
X118074674Y-68394479D01*
X117792410Y-68511396D01*
X117642585Y-68541198D01*
X117492761Y-68571000D01*
X117187239Y-68571000D01*
X117037415Y-68541198D01*
X116887590Y-68511396D01*
X116605326Y-68394479D01*
X116351295Y-68224741D01*
X116135259Y-68008705D01*
X115965521Y-67754674D01*
X115848604Y-67472410D01*
X115811322Y-67284981D01*
X115789000Y-67172761D01*
X115789000Y-66867239D01*
X115848604Y-66567591D01*
X115886688Y-66475647D01*
X115965521Y-66285326D01*
X116135259Y-66031295D01*
X116351295Y-65815259D01*
X116605326Y-65645521D01*
X116887590Y-65528604D01*
X117037908Y-65498704D01*
X117187239Y-65469000D01*
X117492761Y-65469000D01*
X117642092Y-65498704D01*
X117642092Y-65498704D01*
G37*
G36*
X142044425Y-66894599D02*
G01*
X142168621Y-66919302D01*
X142305022Y-66975801D01*
X142427779Y-67057825D01*
X142532175Y-67162221D01*
X142614199Y-67284978D01*
X142670698Y-67421379D01*
X142699500Y-67566181D01*
X142699500Y-67713819D01*
X142670698Y-67858621D01*
X142614199Y-67995022D01*
X142532175Y-68117779D01*
X142427779Y-68222175D01*
X142305022Y-68304199D01*
X142168621Y-68360698D01*
X142044425Y-68385401D01*
X142023820Y-68389500D01*
X141876180Y-68389500D01*
X141855575Y-68385401D01*
X141731379Y-68360698D01*
X141594978Y-68304199D01*
X141472221Y-68222175D01*
X141367825Y-68117779D01*
X141285801Y-67995022D01*
X141229302Y-67858621D01*
X141200500Y-67713819D01*
X141200500Y-67566181D01*
X141229302Y-67421379D01*
X141285801Y-67284978D01*
X141367825Y-67162221D01*
X141472221Y-67057825D01*
X141594978Y-66975801D01*
X141731379Y-66919302D01*
X141855575Y-66894599D01*
X141876180Y-66890500D01*
X142023820Y-66890500D01*
X142044425Y-66894599D01*
X142044425Y-66894599D01*
G37*
G36*
X123194425Y-66794599D02*
G01*
X123318621Y-66819302D01*
X123455022Y-66875801D01*
X123577779Y-66957825D01*
X123682175Y-67062221D01*
X123764199Y-67184978D01*
X123820698Y-67321379D01*
X123849500Y-67466181D01*
X123849500Y-67613819D01*
X123820698Y-67758621D01*
X123764199Y-67895022D01*
X123682175Y-68017779D01*
X123577779Y-68122175D01*
X123455022Y-68204199D01*
X123318621Y-68260698D01*
X123194425Y-68285401D01*
X123173820Y-68289500D01*
X123026180Y-68289500D01*
X123005575Y-68285401D01*
X122881379Y-68260698D01*
X122744978Y-68204199D01*
X122622221Y-68122175D01*
X122517825Y-68017779D01*
X122435801Y-67895022D01*
X122379302Y-67758621D01*
X122350500Y-67613819D01*
X122350500Y-67466181D01*
X122379302Y-67321379D01*
X122435801Y-67184978D01*
X122517825Y-67062221D01*
X122622221Y-66957825D01*
X122744978Y-66875801D01*
X122881379Y-66819302D01*
X123005575Y-66794599D01*
X123026180Y-66790500D01*
X123173820Y-66790500D01*
X123194425Y-66794599D01*
X123194425Y-66794599D01*
G37*
G36*
X181051000Y-68251000D02*
G01*
X178949000Y-68251000D01*
X178949000Y-64949000D01*
X181051000Y-64949000D01*
X181051000Y-68251000D01*
X181051000Y-68251000D01*
G37*
G36*
X169851000Y-68251000D02*
G01*
X167749000Y-68251000D01*
X167749000Y-64949000D01*
X169851000Y-64949000D01*
X169851000Y-68251000D01*
X169851000Y-68251000D01*
G37*
G36*
X121451000Y-68071000D02*
G01*
X119349000Y-68071000D01*
X119349000Y-65969000D01*
X121451000Y-65969000D01*
X121451000Y-68071000D01*
X121451000Y-68071000D01*
G37*
G36*
X128358918Y-66061000D02*
G01*
X128491981Y-66087468D01*
X128612310Y-66137311D01*
X128617560Y-66139485D01*
X128641009Y-66146598D01*
X128665395Y-66149000D01*
X128708742Y-66149000D01*
X128733512Y-66153927D01*
X128882812Y-66183624D01*
X129046784Y-66251544D01*
X129194354Y-66350147D01*
X129319853Y-66475646D01*
X129418456Y-66623216D01*
X129486376Y-66787188D01*
X129521000Y-66961259D01*
X129521000Y-67138741D01*
X129486376Y-67312812D01*
X129418456Y-67476784D01*
X129319853Y-67624354D01*
X129194354Y-67749853D01*
X129046784Y-67848456D01*
X128882812Y-67916376D01*
X128733512Y-67946073D01*
X128708742Y-67951000D01*
X128665395Y-67951000D01*
X128641009Y-67953402D01*
X128617560Y-67960515D01*
X128491981Y-68012532D01*
X128298591Y-68051000D01*
X128101409Y-68051000D01*
X127908019Y-68012532D01*
X127725849Y-67937074D01*
X127561900Y-67827527D01*
X127422473Y-67688100D01*
X127312926Y-67524151D01*
X127237468Y-67341981D01*
X127199000Y-67148590D01*
X127199000Y-66951410D01*
X127205387Y-66919303D01*
X127237468Y-66758020D01*
X127312925Y-66575851D01*
X127318444Y-66567591D01*
X127422473Y-66411900D01*
X127561900Y-66272473D01*
X127725849Y-66162926D01*
X127908019Y-66087468D01*
X128041082Y-66061000D01*
X128101409Y-66049000D01*
X128298591Y-66049000D01*
X128358918Y-66061000D01*
X128358918Y-66061000D01*
G37*
G36*
X139358918Y-66061000D02*
G01*
X139491981Y-66087468D01*
X139674151Y-66162926D01*
X139838100Y-66272473D01*
X139977527Y-66411900D01*
X140081556Y-66567591D01*
X140087075Y-66575851D01*
X140162532Y-66758020D01*
X140194614Y-66919303D01*
X140201000Y-66951410D01*
X140201000Y-67148590D01*
X140162532Y-67341981D01*
X140087074Y-67524151D01*
X139977527Y-67688100D01*
X139838100Y-67827527D01*
X139674151Y-67937074D01*
X139491981Y-68012532D01*
X139298591Y-68051000D01*
X139101409Y-68051000D01*
X138908019Y-68012532D01*
X138782440Y-67960515D01*
X138758991Y-67953402D01*
X138734605Y-67951000D01*
X138691258Y-67951000D01*
X138666488Y-67946073D01*
X138517188Y-67916376D01*
X138353216Y-67848456D01*
X138205646Y-67749853D01*
X138080147Y-67624354D01*
X137981544Y-67476784D01*
X137913624Y-67312812D01*
X137879000Y-67138741D01*
X137879000Y-66961259D01*
X137913624Y-66787188D01*
X137981544Y-66623216D01*
X138080147Y-66475646D01*
X138205646Y-66350147D01*
X138353216Y-66251544D01*
X138517188Y-66183624D01*
X138666488Y-66153927D01*
X138691258Y-66149000D01*
X138734605Y-66149000D01*
X138758991Y-66146598D01*
X138782440Y-66139485D01*
X138787690Y-66137311D01*
X138908019Y-66087468D01*
X139041082Y-66061000D01*
X139101409Y-66049000D01*
X139298591Y-66049000D01*
X139358918Y-66061000D01*
X139358918Y-66061000D01*
G37*
G36*
X130192585Y-62988802D02*
G01*
X130342410Y-63018604D01*
X130624674Y-63135521D01*
X130878705Y-63305259D01*
X131094741Y-63521295D01*
X131264479Y-63775326D01*
X131381396Y-64057590D01*
X131441000Y-64357240D01*
X131441000Y-64662760D01*
X131381396Y-64962410D01*
X131264479Y-65244674D01*
X131094741Y-65498705D01*
X130878705Y-65714741D01*
X130624674Y-65884479D01*
X130342410Y-66001396D01*
X130192585Y-66031198D01*
X130042761Y-66061000D01*
X129737239Y-66061000D01*
X129587415Y-66031198D01*
X129437590Y-66001396D01*
X129155326Y-65884479D01*
X128901295Y-65714741D01*
X128685259Y-65498705D01*
X128515521Y-65244674D01*
X128398604Y-64962410D01*
X128339000Y-64662760D01*
X128339000Y-64357240D01*
X128398604Y-64057590D01*
X128515521Y-63775326D01*
X128685259Y-63521295D01*
X128901295Y-63305259D01*
X129155326Y-63135521D01*
X129437590Y-63018604D01*
X129587415Y-62988802D01*
X129737239Y-62959000D01*
X130042761Y-62959000D01*
X130192585Y-62988802D01*
X130192585Y-62988802D01*
G37*
G36*
X127851000Y-65561000D02*
G01*
X125749000Y-65561000D01*
X125749000Y-63459000D01*
X127851000Y-63459000D01*
X127851000Y-65561000D01*
X127851000Y-65561000D01*
G37*
G36*
X136542585Y-60448802D02*
G01*
X136692410Y-60478604D01*
X136974674Y-60595521D01*
X137228705Y-60765259D01*
X137444741Y-60981295D01*
X137614479Y-61235326D01*
X137731396Y-61517590D01*
X137791000Y-61817240D01*
X137791000Y-62122760D01*
X137731396Y-62422410D01*
X137614479Y-62704674D01*
X137444741Y-62958705D01*
X137228705Y-63174741D01*
X136974674Y-63344479D01*
X136692410Y-63461396D01*
X136542585Y-63491198D01*
X136392761Y-63521000D01*
X136087239Y-63521000D01*
X135937415Y-63491198D01*
X135787590Y-63461396D01*
X135505326Y-63344479D01*
X135251295Y-63174741D01*
X135035259Y-62958705D01*
X134865521Y-62704674D01*
X134748604Y-62422410D01*
X134689000Y-62122760D01*
X134689000Y-61817240D01*
X134748604Y-61517590D01*
X134865521Y-61235326D01*
X135035259Y-60981295D01*
X135251295Y-60765259D01*
X135505326Y-60595521D01*
X135787590Y-60478604D01*
X135937415Y-60448802D01*
X136087239Y-60419000D01*
X136392761Y-60419000D01*
X136542585Y-60448802D01*
X136542585Y-60448802D01*
G37*
G36*
X140351000Y-63021000D02*
G01*
X138249000Y-63021000D01*
X138249000Y-60919000D01*
X140351000Y-60919000D01*
X140351000Y-63021000D01*
X140351000Y-63021000D01*
G37*
G36*
X177951000Y-60151000D02*
G01*
X175849000Y-60151000D01*
X175849000Y-58049000D01*
X177951000Y-58049000D01*
X177951000Y-60151000D01*
X177951000Y-60151000D01*
G37*
G36*
X172206564Y-58089389D02*
G01*
X172397833Y-58168615D01*
X172397835Y-58168616D01*
X172569973Y-58283635D01*
X172716365Y-58430027D01*
X172831385Y-58602167D01*
X172910611Y-58793436D01*
X172951000Y-58996484D01*
X172951000Y-59203516D01*
X172910611Y-59406564D01*
X172831385Y-59597833D01*
X172831384Y-59597835D01*
X172716365Y-59769973D01*
X172569973Y-59916365D01*
X172397835Y-60031384D01*
X172397834Y-60031385D01*
X172397833Y-60031385D01*
X172206564Y-60110611D01*
X172003516Y-60151000D01*
X171796484Y-60151000D01*
X171593436Y-60110611D01*
X171402167Y-60031385D01*
X171402166Y-60031385D01*
X171402165Y-60031384D01*
X171230027Y-59916365D01*
X171083635Y-59769973D01*
X170968616Y-59597835D01*
X170968615Y-59597833D01*
X170889389Y-59406564D01*
X170849000Y-59203516D01*
X170849000Y-58996484D01*
X170889389Y-58793436D01*
X170968615Y-58602167D01*
X171083635Y-58430027D01*
X171230027Y-58283635D01*
X171402165Y-58168616D01*
X171402167Y-58168615D01*
X171593436Y-58089389D01*
X171796484Y-58049000D01*
X172003516Y-58049000D01*
X172206564Y-58089389D01*
X172206564Y-58089389D01*
G37*
G36*
X174706564Y-58089389D02*
G01*
X174897833Y-58168615D01*
X174897835Y-58168616D01*
X175069973Y-58283635D01*
X175216365Y-58430027D01*
X175331385Y-58602167D01*
X175410611Y-58793436D01*
X175451000Y-58996484D01*
X175451000Y-59203516D01*
X175410611Y-59406564D01*
X175331385Y-59597833D01*
X175331384Y-59597835D01*
X175216365Y-59769973D01*
X175069973Y-59916365D01*
X174897835Y-60031384D01*
X174897834Y-60031385D01*
X174897833Y-60031385D01*
X174706564Y-60110611D01*
X174503516Y-60151000D01*
X174296484Y-60151000D01*
X174093436Y-60110611D01*
X173902167Y-60031385D01*
X173902166Y-60031385D01*
X173902165Y-60031384D01*
X173730027Y-59916365D01*
X173583635Y-59769973D01*
X173468616Y-59597835D01*
X173468615Y-59597833D01*
X173389389Y-59406564D01*
X173349000Y-59203516D01*
X173349000Y-58996484D01*
X173389389Y-58793436D01*
X173468615Y-58602167D01*
X173583635Y-58430027D01*
X173730027Y-58283635D01*
X173902165Y-58168616D01*
X173902167Y-58168615D01*
X174093436Y-58089389D01*
X174296484Y-58049000D01*
X174503516Y-58049000D01*
X174706564Y-58089389D01*
X174706564Y-58089389D01*
G37*
G36*
X89216041Y-54115253D02*
G01*
X89298257Y-54131607D01*
X89362414Y-54158182D01*
X89453146Y-54195764D01*
X89592544Y-54288907D01*
X89711093Y-54407456D01*
X89804236Y-54546854D01*
X89815273Y-54573500D01*
X89868393Y-54701743D01*
X89884747Y-54783959D01*
X89901100Y-54866173D01*
X89901100Y-55033827D01*
X89868393Y-55198256D01*
X89804236Y-55353146D01*
X89711093Y-55492544D01*
X89592544Y-55611093D01*
X89453146Y-55704236D01*
X89365941Y-55740357D01*
X89298257Y-55768393D01*
X89216041Y-55784747D01*
X89133827Y-55801100D01*
X88966173Y-55801100D01*
X88883959Y-55784747D01*
X88801743Y-55768393D01*
X88734059Y-55740357D01*
X88646854Y-55704236D01*
X88507456Y-55611093D01*
X88388907Y-55492544D01*
X88295764Y-55353146D01*
X88231607Y-55198256D01*
X88198900Y-55033827D01*
X88198900Y-54866173D01*
X88215253Y-54783959D01*
X88231607Y-54701743D01*
X88284727Y-54573500D01*
X88295764Y-54546854D01*
X88388907Y-54407456D01*
X88507456Y-54288907D01*
X88646854Y-54195764D01*
X88737586Y-54158182D01*
X88801743Y-54131607D01*
X88883959Y-54115253D01*
X88966173Y-54098900D01*
X89133827Y-54098900D01*
X89216041Y-54115253D01*
X89216041Y-54115253D01*
G37*
G36*
X109589142Y-54176842D02*
G01*
X109737101Y-54238129D01*
X109870255Y-54327099D01*
X109983501Y-54440345D01*
X110072471Y-54573499D01*
X110133758Y-54721458D01*
X110165000Y-54878525D01*
X110165000Y-55038675D01*
X110133758Y-55195742D01*
X110072471Y-55343701D01*
X109983501Y-55476855D01*
X109870255Y-55590101D01*
X109737101Y-55679071D01*
X109589142Y-55740358D01*
X109432075Y-55771600D01*
X109271925Y-55771600D01*
X109114858Y-55740358D01*
X108966899Y-55679071D01*
X108833745Y-55590101D01*
X108720499Y-55476855D01*
X108631529Y-55343701D01*
X108570242Y-55195742D01*
X108539000Y-55038675D01*
X108539000Y-54878525D01*
X108570242Y-54721458D01*
X108631529Y-54573499D01*
X108720499Y-54440345D01*
X108833745Y-54327099D01*
X108966899Y-54238129D01*
X109114858Y-54176842D01*
X109271925Y-54145600D01*
X109432075Y-54145600D01*
X109589142Y-54176842D01*
X109589142Y-54176842D01*
G37*
G36*
X94349142Y-54176842D02*
G01*
X94497101Y-54238129D01*
X94630255Y-54327099D01*
X94743501Y-54440345D01*
X94832471Y-54573499D01*
X94893758Y-54721458D01*
X94925000Y-54878525D01*
X94925000Y-55038675D01*
X94893758Y-55195742D01*
X94832471Y-55343701D01*
X94743501Y-55476855D01*
X94630255Y-55590101D01*
X94497101Y-55679071D01*
X94349142Y-55740358D01*
X94192075Y-55771600D01*
X94031925Y-55771600D01*
X93874858Y-55740358D01*
X93726899Y-55679071D01*
X93593745Y-55590101D01*
X93480499Y-55476855D01*
X93391529Y-55343701D01*
X93330242Y-55195742D01*
X93299000Y-55038675D01*
X93299000Y-54878525D01*
X93330242Y-54721458D01*
X93391529Y-54573499D01*
X93480499Y-54440345D01*
X93593745Y-54327099D01*
X93726899Y-54238129D01*
X93874858Y-54176842D01*
X94031925Y-54145600D01*
X94192075Y-54145600D01*
X94349142Y-54176842D01*
X94349142Y-54176842D01*
G37*
G36*
X112129142Y-54176842D02*
G01*
X112277101Y-54238129D01*
X112410255Y-54327099D01*
X112523501Y-54440345D01*
X112612471Y-54573499D01*
X112673758Y-54721458D01*
X112705000Y-54878525D01*
X112705000Y-55038675D01*
X112673758Y-55195742D01*
X112612471Y-55343701D01*
X112523501Y-55476855D01*
X112410255Y-55590101D01*
X112277101Y-55679071D01*
X112129142Y-55740358D01*
X111972075Y-55771600D01*
X111811925Y-55771600D01*
X111654858Y-55740358D01*
X111506899Y-55679071D01*
X111373745Y-55590101D01*
X111260499Y-55476855D01*
X111171529Y-55343701D01*
X111110242Y-55195742D01*
X111079000Y-55038675D01*
X111079000Y-54878525D01*
X111110242Y-54721458D01*
X111171529Y-54573499D01*
X111260499Y-54440345D01*
X111373745Y-54327099D01*
X111506899Y-54238129D01*
X111654858Y-54176842D01*
X111811925Y-54145600D01*
X111972075Y-54145600D01*
X112129142Y-54176842D01*
X112129142Y-54176842D01*
G37*
G36*
X114669142Y-54176842D02*
G01*
X114817101Y-54238129D01*
X114950255Y-54327099D01*
X115063501Y-54440345D01*
X115152471Y-54573499D01*
X115213758Y-54721458D01*
X115245000Y-54878525D01*
X115245000Y-55038675D01*
X115213758Y-55195742D01*
X115152471Y-55343701D01*
X115063501Y-55476855D01*
X114950255Y-55590101D01*
X114817101Y-55679071D01*
X114669142Y-55740358D01*
X114512075Y-55771600D01*
X114351925Y-55771600D01*
X114194858Y-55740358D01*
X114046899Y-55679071D01*
X113913745Y-55590101D01*
X113800499Y-55476855D01*
X113711529Y-55343701D01*
X113650242Y-55195742D01*
X113619000Y-55038675D01*
X113619000Y-54878525D01*
X113650242Y-54721458D01*
X113711529Y-54573499D01*
X113800499Y-54440345D01*
X113913745Y-54327099D01*
X114046899Y-54238129D01*
X114194858Y-54176842D01*
X114351925Y-54145600D01*
X114512075Y-54145600D01*
X114669142Y-54176842D01*
X114669142Y-54176842D01*
G37*
G36*
X117209142Y-54176842D02*
G01*
X117357101Y-54238129D01*
X117490255Y-54327099D01*
X117603501Y-54440345D01*
X117692471Y-54573499D01*
X117753758Y-54721458D01*
X117785000Y-54878525D01*
X117785000Y-55038675D01*
X117753758Y-55195742D01*
X117692471Y-55343701D01*
X117603501Y-55476855D01*
X117490255Y-55590101D01*
X117357101Y-55679071D01*
X117209142Y-55740358D01*
X117052075Y-55771600D01*
X116891925Y-55771600D01*
X116734858Y-55740358D01*
X116586899Y-55679071D01*
X116453745Y-55590101D01*
X116340499Y-55476855D01*
X116251529Y-55343701D01*
X116190242Y-55195742D01*
X116159000Y-55038675D01*
X116159000Y-54878525D01*
X116190242Y-54721458D01*
X116251529Y-54573499D01*
X116340499Y-54440345D01*
X116453745Y-54327099D01*
X116586899Y-54238129D01*
X116734858Y-54176842D01*
X116891925Y-54145600D01*
X117052075Y-54145600D01*
X117209142Y-54176842D01*
X117209142Y-54176842D01*
G37*
G36*
X119749142Y-54176842D02*
G01*
X119897101Y-54238129D01*
X120030255Y-54327099D01*
X120143501Y-54440345D01*
X120232471Y-54573499D01*
X120293758Y-54721458D01*
X120325000Y-54878525D01*
X120325000Y-55038675D01*
X120293758Y-55195742D01*
X120232471Y-55343701D01*
X120143501Y-55476855D01*
X120030255Y-55590101D01*
X119897101Y-55679071D01*
X119749142Y-55740358D01*
X119592075Y-55771600D01*
X119431925Y-55771600D01*
X119274858Y-55740358D01*
X119126899Y-55679071D01*
X118993745Y-55590101D01*
X118880499Y-55476855D01*
X118791529Y-55343701D01*
X118730242Y-55195742D01*
X118699000Y-55038675D01*
X118699000Y-54878525D01*
X118730242Y-54721458D01*
X118791529Y-54573499D01*
X118880499Y-54440345D01*
X118993745Y-54327099D01*
X119126899Y-54238129D01*
X119274858Y-54176842D01*
X119431925Y-54145600D01*
X119592075Y-54145600D01*
X119749142Y-54176842D01*
X119749142Y-54176842D01*
G37*
G36*
X107049142Y-54176842D02*
G01*
X107197101Y-54238129D01*
X107330255Y-54327099D01*
X107443501Y-54440345D01*
X107532471Y-54573499D01*
X107593758Y-54721458D01*
X107625000Y-54878525D01*
X107625000Y-55038675D01*
X107593758Y-55195742D01*
X107532471Y-55343701D01*
X107443501Y-55476855D01*
X107330255Y-55590101D01*
X107197101Y-55679071D01*
X107049142Y-55740358D01*
X106892075Y-55771600D01*
X106731925Y-55771600D01*
X106574858Y-55740358D01*
X106426899Y-55679071D01*
X106293745Y-55590101D01*
X106180499Y-55476855D01*
X106091529Y-55343701D01*
X106030242Y-55195742D01*
X105999000Y-55038675D01*
X105999000Y-54878525D01*
X106030242Y-54721458D01*
X106091529Y-54573499D01*
X106180499Y-54440345D01*
X106293745Y-54327099D01*
X106426899Y-54238129D01*
X106574858Y-54176842D01*
X106731925Y-54145600D01*
X106892075Y-54145600D01*
X107049142Y-54176842D01*
X107049142Y-54176842D01*
G37*
G36*
X91809142Y-54176842D02*
G01*
X91957101Y-54238129D01*
X92090255Y-54327099D01*
X92203501Y-54440345D01*
X92292471Y-54573499D01*
X92353758Y-54721458D01*
X92385000Y-54878525D01*
X92385000Y-55038675D01*
X92353758Y-55195742D01*
X92292471Y-55343701D01*
X92203501Y-55476855D01*
X92090255Y-55590101D01*
X91957101Y-55679071D01*
X91809142Y-55740358D01*
X91652075Y-55771600D01*
X91491925Y-55771600D01*
X91334858Y-55740358D01*
X91186899Y-55679071D01*
X91053745Y-55590101D01*
X90940499Y-55476855D01*
X90851529Y-55343701D01*
X90790242Y-55195742D01*
X90759000Y-55038675D01*
X90759000Y-54878525D01*
X90790242Y-54721458D01*
X90851529Y-54573499D01*
X90940499Y-54440345D01*
X91053745Y-54327099D01*
X91186899Y-54238129D01*
X91334858Y-54176842D01*
X91491925Y-54145600D01*
X91652075Y-54145600D01*
X91809142Y-54176842D01*
X91809142Y-54176842D01*
G37*
G36*
X96889142Y-54176842D02*
G01*
X97037101Y-54238129D01*
X97170255Y-54327099D01*
X97283501Y-54440345D01*
X97372471Y-54573499D01*
X97433758Y-54721458D01*
X97465000Y-54878525D01*
X97465000Y-55038675D01*
X97433758Y-55195742D01*
X97372471Y-55343701D01*
X97283501Y-55476855D01*
X97170255Y-55590101D01*
X97037101Y-55679071D01*
X96889142Y-55740358D01*
X96732075Y-55771600D01*
X96571925Y-55771600D01*
X96414858Y-55740358D01*
X96266899Y-55679071D01*
X96133745Y-55590101D01*
X96020499Y-55476855D01*
X95931529Y-55343701D01*
X95870242Y-55195742D01*
X95839000Y-55038675D01*
X95839000Y-54878525D01*
X95870242Y-54721458D01*
X95931529Y-54573499D01*
X96020499Y-54440345D01*
X96133745Y-54327099D01*
X96266899Y-54238129D01*
X96414858Y-54176842D01*
X96571925Y-54145600D01*
X96732075Y-54145600D01*
X96889142Y-54176842D01*
X96889142Y-54176842D01*
G37*
G36*
X99429142Y-54176842D02*
G01*
X99577101Y-54238129D01*
X99710255Y-54327099D01*
X99823501Y-54440345D01*
X99912471Y-54573499D01*
X99973758Y-54721458D01*
X100005000Y-54878525D01*
X100005000Y-55038675D01*
X99973758Y-55195742D01*
X99912471Y-55343701D01*
X99823501Y-55476855D01*
X99710255Y-55590101D01*
X99577101Y-55679071D01*
X99429142Y-55740358D01*
X99272075Y-55771600D01*
X99111925Y-55771600D01*
X98954858Y-55740358D01*
X98806899Y-55679071D01*
X98673745Y-55590101D01*
X98560499Y-55476855D01*
X98471529Y-55343701D01*
X98410242Y-55195742D01*
X98379000Y-55038675D01*
X98379000Y-54878525D01*
X98410242Y-54721458D01*
X98471529Y-54573499D01*
X98560499Y-54440345D01*
X98673745Y-54327099D01*
X98806899Y-54238129D01*
X98954858Y-54176842D01*
X99111925Y-54145600D01*
X99272075Y-54145600D01*
X99429142Y-54176842D01*
X99429142Y-54176842D01*
G37*
G36*
X101969142Y-54176842D02*
G01*
X102117101Y-54238129D01*
X102250255Y-54327099D01*
X102363501Y-54440345D01*
X102452471Y-54573499D01*
X102513758Y-54721458D01*
X102545000Y-54878525D01*
X102545000Y-55038675D01*
X102513758Y-55195742D01*
X102452471Y-55343701D01*
X102363501Y-55476855D01*
X102250255Y-55590101D01*
X102117101Y-55679071D01*
X101969142Y-55740358D01*
X101812075Y-55771600D01*
X101651925Y-55771600D01*
X101494858Y-55740358D01*
X101346899Y-55679071D01*
X101213745Y-55590101D01*
X101100499Y-55476855D01*
X101011529Y-55343701D01*
X100950242Y-55195742D01*
X100919000Y-55038675D01*
X100919000Y-54878525D01*
X100950242Y-54721458D01*
X101011529Y-54573499D01*
X101100499Y-54440345D01*
X101213745Y-54327099D01*
X101346899Y-54238129D01*
X101494858Y-54176842D01*
X101651925Y-54145600D01*
X101812075Y-54145600D01*
X101969142Y-54176842D01*
X101969142Y-54176842D01*
G37*
G36*
X104509142Y-54176842D02*
G01*
X104657101Y-54238129D01*
X104790255Y-54327099D01*
X104903501Y-54440345D01*
X104992471Y-54573499D01*
X105053758Y-54721458D01*
X105085000Y-54878525D01*
X105085000Y-55038675D01*
X105053758Y-55195742D01*
X104992471Y-55343701D01*
X104903501Y-55476855D01*
X104790255Y-55590101D01*
X104657101Y-55679071D01*
X104509142Y-55740358D01*
X104352075Y-55771600D01*
X104191925Y-55771600D01*
X104034858Y-55740358D01*
X103886899Y-55679071D01*
X103753745Y-55590101D01*
X103640499Y-55476855D01*
X103551529Y-55343701D01*
X103490242Y-55195742D01*
X103459000Y-55038675D01*
X103459000Y-54878525D01*
X103490242Y-54721458D01*
X103551529Y-54573499D01*
X103640499Y-54440345D01*
X103753745Y-54327099D01*
X103886899Y-54238129D01*
X104034858Y-54176842D01*
X104191925Y-54145600D01*
X104352075Y-54145600D01*
X104509142Y-54176842D01*
X104509142Y-54176842D01*
G37*
G36*
X127875600Y-51993100D02*
G01*
X126073600Y-51993100D01*
X126073600Y-50191100D01*
X127875600Y-50191100D01*
X127875600Y-51993100D01*
X127875600Y-51993100D01*
G37*
G36*
X166227000Y-50057000D02*
G01*
X164925000Y-50057000D01*
X164925000Y-48755000D01*
X166227000Y-48755000D01*
X166227000Y-50057000D01*
X166227000Y-50057000D01*
G37*
G36*
X150003000Y-49803000D02*
G01*
X148701000Y-49803000D01*
X148701000Y-48501000D01*
X150003000Y-48501000D01*
X150003000Y-49803000D01*
X150003000Y-49803000D01*
G37*
G36*
X183319195Y-47645546D02*
G01*
X183492266Y-47717234D01*
X183492267Y-47717235D01*
X183648027Y-47821310D01*
X183780490Y-47953773D01*
X183780491Y-47953775D01*
X183884566Y-48109534D01*
X183956254Y-48282605D01*
X183992800Y-48466333D01*
X183992800Y-48653667D01*
X183956254Y-48837395D01*
X183884566Y-49010466D01*
X183884565Y-49010467D01*
X183780490Y-49166227D01*
X183648027Y-49298690D01*
X183638766Y-49304878D01*
X183492266Y-49402766D01*
X183319195Y-49474454D01*
X183135467Y-49511000D01*
X182948133Y-49511000D01*
X182764405Y-49474454D01*
X182591334Y-49402766D01*
X182444834Y-49304878D01*
X182435573Y-49298690D01*
X182303110Y-49166227D01*
X182199035Y-49010467D01*
X182199034Y-49010466D01*
X182127346Y-48837395D01*
X182090800Y-48653667D01*
X182090800Y-48466333D01*
X182127346Y-48282605D01*
X182199034Y-48109534D01*
X182303109Y-47953775D01*
X182303110Y-47953773D01*
X182435573Y-47821310D01*
X182591333Y-47717235D01*
X182591334Y-47717234D01*
X182764405Y-47645546D01*
X182948133Y-47609000D01*
X183135467Y-47609000D01*
X183319195Y-47645546D01*
X183319195Y-47645546D01*
G37*
G36*
X154871195Y-47645546D02*
G01*
X155044266Y-47717234D01*
X155044267Y-47717235D01*
X155200027Y-47821310D01*
X155332490Y-47953773D01*
X155332491Y-47953775D01*
X155436566Y-48109534D01*
X155508254Y-48282605D01*
X155544800Y-48466333D01*
X155544800Y-48653667D01*
X155508254Y-48837395D01*
X155436566Y-49010466D01*
X155436565Y-49010467D01*
X155332490Y-49166227D01*
X155200027Y-49298690D01*
X155190766Y-49304878D01*
X155044266Y-49402766D01*
X154871195Y-49474454D01*
X154687467Y-49511000D01*
X154500133Y-49511000D01*
X154316405Y-49474454D01*
X154143334Y-49402766D01*
X153996834Y-49304878D01*
X153987573Y-49298690D01*
X153855110Y-49166227D01*
X153751035Y-49010467D01*
X153751034Y-49010466D01*
X153679346Y-48837395D01*
X153642800Y-48653667D01*
X153642800Y-48466333D01*
X153679346Y-48282605D01*
X153751034Y-48109534D01*
X153855109Y-47953775D01*
X153855110Y-47953773D01*
X153987573Y-47821310D01*
X154143333Y-47717235D01*
X154143334Y-47717234D01*
X154316405Y-47645546D01*
X154500133Y-47609000D01*
X154687467Y-47609000D01*
X154871195Y-47645546D01*
X154871195Y-47645546D01*
G37*
G36*
X127085042Y-47657618D02*
G01*
X127151227Y-47664137D01*
X127321066Y-47715657D01*
X127477591Y-47799322D01*
X127504382Y-47821309D01*
X127614786Y-47911914D01*
X127698048Y-48013371D01*
X127727378Y-48049109D01*
X127811043Y-48205634D01*
X127862563Y-48375473D01*
X127879959Y-48552100D01*
X127862563Y-48728727D01*
X127811043Y-48898566D01*
X127727378Y-49055091D01*
X127698048Y-49090829D01*
X127614786Y-49192286D01*
X127513329Y-49275548D01*
X127477591Y-49304878D01*
X127321066Y-49388543D01*
X127151227Y-49440063D01*
X127085043Y-49446581D01*
X127018860Y-49453100D01*
X126930340Y-49453100D01*
X126864158Y-49446582D01*
X126797973Y-49440063D01*
X126628134Y-49388543D01*
X126471609Y-49304878D01*
X126435871Y-49275548D01*
X126334414Y-49192286D01*
X126251152Y-49090829D01*
X126221822Y-49055091D01*
X126138157Y-48898566D01*
X126086637Y-48728727D01*
X126069241Y-48552100D01*
X126086637Y-48375473D01*
X126138157Y-48205634D01*
X126221822Y-48049109D01*
X126251152Y-48013371D01*
X126334414Y-47911914D01*
X126444818Y-47821309D01*
X126471609Y-47799322D01*
X126628134Y-47715657D01*
X126797973Y-47664137D01*
X126864158Y-47657618D01*
X126930340Y-47651100D01*
X127018860Y-47651100D01*
X127085042Y-47657618D01*
X127085042Y-47657618D01*
G37*
G36*
X132217395Y-46295546D02*
G01*
X132390466Y-46367234D01*
X132390467Y-46367235D01*
X132546227Y-46471310D01*
X132678690Y-46603773D01*
X132711105Y-46652286D01*
X132782766Y-46759534D01*
X132854454Y-46932605D01*
X132891000Y-47116333D01*
X132891000Y-47303667D01*
X132854454Y-47487395D01*
X132782766Y-47660466D01*
X132782765Y-47660467D01*
X132678690Y-47816227D01*
X132546227Y-47948690D01*
X132467818Y-48001081D01*
X132390466Y-48052766D01*
X132217395Y-48124454D01*
X132033667Y-48161000D01*
X131846333Y-48161000D01*
X131662605Y-48124454D01*
X131489534Y-48052766D01*
X131412182Y-48001081D01*
X131333773Y-47948690D01*
X131201310Y-47816227D01*
X131097235Y-47660467D01*
X131097234Y-47660466D01*
X131025546Y-47487395D01*
X130989000Y-47303667D01*
X130989000Y-47116333D01*
X131025546Y-46932605D01*
X131097234Y-46759534D01*
X131168895Y-46652286D01*
X131201310Y-46603773D01*
X131333773Y-46471310D01*
X131489533Y-46367235D01*
X131489534Y-46367234D01*
X131662605Y-46295546D01*
X131846333Y-46259000D01*
X132033667Y-46259000D01*
X132217395Y-46295546D01*
X132217395Y-46295546D01*
G37*
G36*
X160665395Y-46295546D02*
G01*
X160838466Y-46367234D01*
X160838467Y-46367235D01*
X160994227Y-46471310D01*
X161126690Y-46603773D01*
X161159105Y-46652286D01*
X161230766Y-46759534D01*
X161302454Y-46932605D01*
X161339000Y-47116333D01*
X161339000Y-47303667D01*
X161302454Y-47487395D01*
X161230766Y-47660466D01*
X161230765Y-47660467D01*
X161126690Y-47816227D01*
X160994227Y-47948690D01*
X160915818Y-48001081D01*
X160838466Y-48052766D01*
X160665395Y-48124454D01*
X160481667Y-48161000D01*
X160294333Y-48161000D01*
X160110605Y-48124454D01*
X159937534Y-48052766D01*
X159860182Y-48001081D01*
X159781773Y-47948690D01*
X159649310Y-47816227D01*
X159545235Y-47660467D01*
X159545234Y-47660466D01*
X159473546Y-47487395D01*
X159437000Y-47303667D01*
X159437000Y-47116333D01*
X159473546Y-46932605D01*
X159545234Y-46759534D01*
X159616895Y-46652286D01*
X159649310Y-46603773D01*
X159781773Y-46471310D01*
X159937533Y-46367235D01*
X159937534Y-46367234D01*
X160110605Y-46295546D01*
X160294333Y-46259000D01*
X160481667Y-46259000D01*
X160665395Y-46295546D01*
X160665395Y-46295546D01*
G37*
G36*
X166227000Y-47257000D02*
G01*
X164925000Y-47257000D01*
X164925000Y-45955000D01*
X166227000Y-45955000D01*
X166227000Y-47257000D01*
X166227000Y-47257000D01*
G37*
G36*
X150003000Y-47003000D02*
G01*
X148701000Y-47003000D01*
X148701000Y-45701000D01*
X150003000Y-45701000D01*
X150003000Y-47003000D01*
X150003000Y-47003000D01*
G37*
G36*
X127081139Y-45117234D02*
G01*
X127151227Y-45124137D01*
X127321066Y-45175657D01*
X127477591Y-45259322D01*
X127513329Y-45288652D01*
X127614786Y-45371914D01*
X127698048Y-45473371D01*
X127727378Y-45509109D01*
X127811043Y-45665634D01*
X127862563Y-45835473D01*
X127879959Y-46012100D01*
X127862563Y-46188727D01*
X127811043Y-46358566D01*
X127727378Y-46515091D01*
X127698048Y-46550829D01*
X127614786Y-46652286D01*
X127513329Y-46735548D01*
X127477591Y-46764878D01*
X127321066Y-46848543D01*
X127151227Y-46900063D01*
X127085042Y-46906582D01*
X127018860Y-46913100D01*
X126930340Y-46913100D01*
X126864157Y-46906581D01*
X126797973Y-46900063D01*
X126628134Y-46848543D01*
X126471609Y-46764878D01*
X126435871Y-46735548D01*
X126334414Y-46652286D01*
X126251152Y-46550829D01*
X126221822Y-46515091D01*
X126138157Y-46358566D01*
X126086637Y-46188727D01*
X126069241Y-46012100D01*
X126086637Y-45835473D01*
X126138157Y-45665634D01*
X126221822Y-45509109D01*
X126251152Y-45473371D01*
X126334414Y-45371914D01*
X126435871Y-45288652D01*
X126471609Y-45259322D01*
X126628134Y-45175657D01*
X126797973Y-45124137D01*
X126868061Y-45117234D01*
X126930340Y-45111100D01*
X127018860Y-45111100D01*
X127081139Y-45117234D01*
X127081139Y-45117234D01*
G37*
G36*
X183319195Y-45045546D02*
G01*
X183492266Y-45117234D01*
X183492267Y-45117235D01*
X183648027Y-45221310D01*
X183780490Y-45353773D01*
X183780491Y-45353775D01*
X183884566Y-45509534D01*
X183956254Y-45682605D01*
X183992800Y-45866333D01*
X183992800Y-46053667D01*
X183956254Y-46237395D01*
X183884566Y-46410466D01*
X183884565Y-46410467D01*
X183780490Y-46566227D01*
X183648027Y-46698690D01*
X183569618Y-46751081D01*
X183492266Y-46802766D01*
X183319195Y-46874454D01*
X183135467Y-46911000D01*
X182948133Y-46911000D01*
X182764405Y-46874454D01*
X182591334Y-46802766D01*
X182513982Y-46751081D01*
X182435573Y-46698690D01*
X182303110Y-46566227D01*
X182199035Y-46410467D01*
X182199034Y-46410466D01*
X182127346Y-46237395D01*
X182090800Y-46053667D01*
X182090800Y-45866333D01*
X182127346Y-45682605D01*
X182199034Y-45509534D01*
X182303109Y-45353775D01*
X182303110Y-45353773D01*
X182435573Y-45221310D01*
X182591333Y-45117235D01*
X182591334Y-45117234D01*
X182764405Y-45045546D01*
X182948133Y-45009000D01*
X183135467Y-45009000D01*
X183319195Y-45045546D01*
X183319195Y-45045546D01*
G37*
G36*
X154871195Y-45045546D02*
G01*
X155044266Y-45117234D01*
X155044267Y-45117235D01*
X155200027Y-45221310D01*
X155332490Y-45353773D01*
X155332491Y-45353775D01*
X155436566Y-45509534D01*
X155508254Y-45682605D01*
X155544800Y-45866333D01*
X155544800Y-46053667D01*
X155508254Y-46237395D01*
X155436566Y-46410466D01*
X155436565Y-46410467D01*
X155332490Y-46566227D01*
X155200027Y-46698690D01*
X155121618Y-46751081D01*
X155044266Y-46802766D01*
X154871195Y-46874454D01*
X154687467Y-46911000D01*
X154500133Y-46911000D01*
X154316405Y-46874454D01*
X154143334Y-46802766D01*
X154065982Y-46751081D01*
X153987573Y-46698690D01*
X153855110Y-46566227D01*
X153751035Y-46410467D01*
X153751034Y-46410466D01*
X153679346Y-46237395D01*
X153642800Y-46053667D01*
X153642800Y-45866333D01*
X153679346Y-45682605D01*
X153751034Y-45509534D01*
X153855109Y-45353775D01*
X153855110Y-45353773D01*
X153987573Y-45221310D01*
X154143333Y-45117235D01*
X154143334Y-45117234D01*
X154316405Y-45045546D01*
X154500133Y-45009000D01*
X154687467Y-45009000D01*
X154871195Y-45045546D01*
X154871195Y-45045546D01*
G37*
G36*
X127085043Y-42577619D02*
G01*
X127151227Y-42584137D01*
X127321066Y-42635657D01*
X127477591Y-42719322D01*
X127513329Y-42748652D01*
X127614786Y-42831914D01*
X127698048Y-42933371D01*
X127727378Y-42969109D01*
X127811043Y-43125634D01*
X127862563Y-43295473D01*
X127879959Y-43472100D01*
X127862563Y-43648727D01*
X127811043Y-43818566D01*
X127727378Y-43975091D01*
X127698048Y-44010829D01*
X127614786Y-44112286D01*
X127513329Y-44195548D01*
X127477591Y-44224878D01*
X127321066Y-44308543D01*
X127151227Y-44360063D01*
X127085042Y-44366582D01*
X127018860Y-44373100D01*
X126930340Y-44373100D01*
X126864158Y-44366582D01*
X126797973Y-44360063D01*
X126628134Y-44308543D01*
X126471609Y-44224878D01*
X126435871Y-44195548D01*
X126334414Y-44112286D01*
X126251152Y-44010829D01*
X126221822Y-43975091D01*
X126138157Y-43818566D01*
X126086637Y-43648727D01*
X126069241Y-43472100D01*
X126086637Y-43295473D01*
X126138157Y-43125634D01*
X126221822Y-42969109D01*
X126251152Y-42933371D01*
X126334414Y-42831914D01*
X126435871Y-42748652D01*
X126471609Y-42719322D01*
X126628134Y-42635657D01*
X126797973Y-42584137D01*
X126864157Y-42577619D01*
X126930340Y-42571100D01*
X127018860Y-42571100D01*
X127085043Y-42577619D01*
X127085043Y-42577619D01*
G37*
G36*
X150000998Y-42030647D02*
G01*
X150036567Y-42041437D01*
X150069339Y-42058954D01*
X150098069Y-42082531D01*
X150121646Y-42111261D01*
X150139163Y-42144033D01*
X150149953Y-42179602D01*
X150154200Y-42222725D01*
X150154200Y-43507075D01*
X150149953Y-43550198D01*
X150139163Y-43585767D01*
X150121646Y-43618539D01*
X150098069Y-43647269D01*
X150069339Y-43670846D01*
X150036567Y-43688363D01*
X150000998Y-43699153D01*
X149957875Y-43703400D01*
X148898525Y-43703400D01*
X148855402Y-43699153D01*
X148819833Y-43688363D01*
X148787061Y-43670846D01*
X148758331Y-43647269D01*
X148734754Y-43618539D01*
X148717237Y-43585767D01*
X148706447Y-43550198D01*
X148702200Y-43507075D01*
X148702200Y-42222725D01*
X148706447Y-42179602D01*
X148717237Y-42144033D01*
X148734754Y-42111261D01*
X148758331Y-42082531D01*
X148787061Y-42058954D01*
X148819833Y-42041437D01*
X148855402Y-42030647D01*
X148898525Y-42026400D01*
X149957875Y-42026400D01*
X150000998Y-42030647D01*
X150000998Y-42030647D01*
G37*
G36*
X181974807Y-40555384D02*
G01*
X182105150Y-40581311D01*
X182205334Y-40622809D01*
X182305520Y-40664307D01*
X182485844Y-40784795D01*
X182639205Y-40938156D01*
X182759693Y-41118480D01*
X182842689Y-41318851D01*
X182885000Y-41531560D01*
X182885000Y-41748440D01*
X182842689Y-41961149D01*
X182759693Y-42161520D01*
X182639205Y-42341844D01*
X182485844Y-42495205D01*
X182305520Y-42615693D01*
X182105150Y-42698689D01*
X182001426Y-42719321D01*
X181892440Y-42741000D01*
X181675560Y-42741000D01*
X181566574Y-42719321D01*
X181462850Y-42698689D01*
X181262480Y-42615693D01*
X181082156Y-42495205D01*
X180928795Y-42341844D01*
X180808307Y-42161520D01*
X180725311Y-41961149D01*
X180683000Y-41748440D01*
X180683000Y-41531560D01*
X180725311Y-41318851D01*
X180808307Y-41118480D01*
X180928795Y-40938156D01*
X181082156Y-40784795D01*
X181262480Y-40664307D01*
X181362666Y-40622809D01*
X181462850Y-40581311D01*
X181593193Y-40555384D01*
X181675560Y-40539000D01*
X181892440Y-40539000D01*
X181974807Y-40555384D01*
X181974807Y-40555384D01*
G37*
G36*
X132396807Y-40555384D02*
G01*
X132527150Y-40581311D01*
X132627334Y-40622809D01*
X132727520Y-40664307D01*
X132907844Y-40784795D01*
X133061205Y-40938156D01*
X133181693Y-41118480D01*
X133264689Y-41318851D01*
X133307000Y-41531560D01*
X133307000Y-41748440D01*
X133264689Y-41961149D01*
X133181693Y-42161520D01*
X133061205Y-42341844D01*
X132907844Y-42495205D01*
X132727520Y-42615693D01*
X132527150Y-42698689D01*
X132423426Y-42719321D01*
X132314440Y-42741000D01*
X132097560Y-42741000D01*
X131988574Y-42719321D01*
X131884850Y-42698689D01*
X131684480Y-42615693D01*
X131504156Y-42495205D01*
X131350795Y-42341844D01*
X131230307Y-42161520D01*
X131147311Y-41961149D01*
X131105000Y-41748440D01*
X131105000Y-41531560D01*
X131147311Y-41318851D01*
X131230307Y-41118480D01*
X131350795Y-40938156D01*
X131504156Y-40784795D01*
X131684480Y-40664307D01*
X131784666Y-40622809D01*
X131884850Y-40581311D01*
X132015193Y-40555384D01*
X132097560Y-40539000D01*
X132314440Y-40539000D01*
X132396807Y-40555384D01*
X132396807Y-40555384D01*
G37*
G36*
X150000998Y-39155647D02*
G01*
X150036567Y-39166437D01*
X150069339Y-39183954D01*
X150098069Y-39207531D01*
X150121646Y-39236261D01*
X150139163Y-39269033D01*
X150149953Y-39304602D01*
X150154200Y-39347725D01*
X150154200Y-40632075D01*
X150149953Y-40675198D01*
X150139163Y-40710767D01*
X150121646Y-40743539D01*
X150098069Y-40772269D01*
X150069339Y-40795846D01*
X150036567Y-40813363D01*
X150000998Y-40824153D01*
X149957875Y-40828400D01*
X148898525Y-40828400D01*
X148855402Y-40824153D01*
X148819833Y-40813363D01*
X148787061Y-40795846D01*
X148758331Y-40772269D01*
X148734754Y-40743539D01*
X148717237Y-40710767D01*
X148706447Y-40675198D01*
X148702200Y-40632075D01*
X148702200Y-39347725D01*
X148706447Y-39304602D01*
X148717237Y-39269033D01*
X148734754Y-39236261D01*
X148758331Y-39207531D01*
X148787061Y-39183954D01*
X148819833Y-39166437D01*
X148855402Y-39155647D01*
X148898525Y-39151400D01*
X149957875Y-39151400D01*
X150000998Y-39155647D01*
X150000998Y-39155647D01*
G37*
G36*
X129532564Y-38613389D02*
G01*
X129723833Y-38692615D01*
X129723835Y-38692616D01*
X129895973Y-38807635D01*
X130042365Y-38954027D01*
X130156547Y-39124912D01*
X130157385Y-39126167D01*
X130236611Y-39317436D01*
X130277000Y-39520484D01*
X130277000Y-39727516D01*
X130236611Y-39930564D01*
X130157385Y-40121833D01*
X130157384Y-40121835D01*
X130042365Y-40293973D01*
X129895973Y-40440365D01*
X129723835Y-40555384D01*
X129723834Y-40555385D01*
X129723833Y-40555385D01*
X129532564Y-40634611D01*
X129329516Y-40675000D01*
X129122484Y-40675000D01*
X128919436Y-40634611D01*
X128728167Y-40555385D01*
X128728166Y-40555385D01*
X128728165Y-40555384D01*
X128556027Y-40440365D01*
X128409635Y-40293973D01*
X128294616Y-40121835D01*
X128294615Y-40121833D01*
X128215389Y-39930564D01*
X128175000Y-39727516D01*
X128175000Y-39520484D01*
X128215389Y-39317436D01*
X128294615Y-39126167D01*
X128295454Y-39124912D01*
X128409635Y-38954027D01*
X128556027Y-38807635D01*
X128728165Y-38692616D01*
X128728167Y-38692615D01*
X128919436Y-38613389D01*
X129122484Y-38573000D01*
X129329516Y-38573000D01*
X129532564Y-38613389D01*
X129532564Y-38613389D01*
G37*
G36*
X123032564Y-38613389D02*
G01*
X123223833Y-38692615D01*
X123223835Y-38692616D01*
X123395973Y-38807635D01*
X123542365Y-38954027D01*
X123656547Y-39124912D01*
X123657385Y-39126167D01*
X123736611Y-39317436D01*
X123777000Y-39520484D01*
X123777000Y-39727516D01*
X123736611Y-39930564D01*
X123657385Y-40121833D01*
X123657384Y-40121835D01*
X123542365Y-40293973D01*
X123395973Y-40440365D01*
X123223835Y-40555384D01*
X123223834Y-40555385D01*
X123223833Y-40555385D01*
X123032564Y-40634611D01*
X122829516Y-40675000D01*
X122622484Y-40675000D01*
X122419436Y-40634611D01*
X122228167Y-40555385D01*
X122228166Y-40555385D01*
X122228165Y-40555384D01*
X122056027Y-40440365D01*
X121909635Y-40293973D01*
X121794616Y-40121835D01*
X121794615Y-40121833D01*
X121715389Y-39930564D01*
X121675000Y-39727516D01*
X121675000Y-39520484D01*
X121715389Y-39317436D01*
X121794615Y-39126167D01*
X121795454Y-39124912D01*
X121909635Y-38954027D01*
X122056027Y-38807635D01*
X122228165Y-38692616D01*
X122228167Y-38692615D01*
X122419436Y-38613389D01*
X122622484Y-38573000D01*
X122829516Y-38573000D01*
X123032564Y-38613389D01*
X123032564Y-38613389D01*
G37*
G36*
X89316042Y-38915254D02*
G01*
X89398257Y-38931607D01*
X89452383Y-38954027D01*
X89553146Y-38995764D01*
X89692544Y-39088907D01*
X89811093Y-39207456D01*
X89904236Y-39346854D01*
X89934653Y-39420288D01*
X89968275Y-39501457D01*
X89968393Y-39501744D01*
X90001100Y-39666173D01*
X90001100Y-39833827D01*
X89968393Y-39998256D01*
X89904236Y-40153146D01*
X89811093Y-40292544D01*
X89692544Y-40411093D01*
X89553146Y-40504236D01*
X89462414Y-40541818D01*
X89398257Y-40568393D01*
X89333313Y-40581311D01*
X89233827Y-40601100D01*
X89066173Y-40601100D01*
X88966687Y-40581311D01*
X88901743Y-40568393D01*
X88837586Y-40541818D01*
X88746854Y-40504236D01*
X88607456Y-40411093D01*
X88488907Y-40292544D01*
X88395764Y-40153146D01*
X88331607Y-39998256D01*
X88298900Y-39833827D01*
X88298900Y-39666173D01*
X88331607Y-39501744D01*
X88331726Y-39501457D01*
X88365347Y-39420288D01*
X88395764Y-39346854D01*
X88488907Y-39207456D01*
X88607456Y-39088907D01*
X88746854Y-38995764D01*
X88847617Y-38954027D01*
X88901743Y-38931607D01*
X88983958Y-38915254D01*
X89066173Y-38898900D01*
X89233827Y-38898900D01*
X89316042Y-38915254D01*
X89316042Y-38915254D01*
G37*
G36*
X104509142Y-38956842D02*
G01*
X104657101Y-39018129D01*
X104790255Y-39107099D01*
X104903501Y-39220345D01*
X104992471Y-39353499D01*
X105053758Y-39501458D01*
X105085000Y-39658525D01*
X105085000Y-39818675D01*
X105053758Y-39975742D01*
X104992471Y-40123701D01*
X104903501Y-40256855D01*
X104790255Y-40370101D01*
X104657101Y-40459071D01*
X104509142Y-40520358D01*
X104352075Y-40551600D01*
X104191925Y-40551600D01*
X104034858Y-40520358D01*
X103886899Y-40459071D01*
X103753745Y-40370101D01*
X103640499Y-40256855D01*
X103551529Y-40123701D01*
X103490242Y-39975742D01*
X103459000Y-39818675D01*
X103459000Y-39658525D01*
X103490242Y-39501458D01*
X103551529Y-39353499D01*
X103640499Y-39220345D01*
X103753745Y-39107099D01*
X103886899Y-39018129D01*
X104034858Y-38956842D01*
X104191925Y-38925600D01*
X104352075Y-38925600D01*
X104509142Y-38956842D01*
X104509142Y-38956842D01*
G37*
G36*
X119749142Y-38956842D02*
G01*
X119897101Y-39018129D01*
X120030255Y-39107099D01*
X120143501Y-39220345D01*
X120232471Y-39353499D01*
X120293758Y-39501458D01*
X120325000Y-39658525D01*
X120325000Y-39818675D01*
X120293758Y-39975742D01*
X120232471Y-40123701D01*
X120143501Y-40256855D01*
X120030255Y-40370101D01*
X119897101Y-40459071D01*
X119749142Y-40520358D01*
X119592075Y-40551600D01*
X119431925Y-40551600D01*
X119274858Y-40520358D01*
X119126899Y-40459071D01*
X118993745Y-40370101D01*
X118880499Y-40256855D01*
X118791529Y-40123701D01*
X118730242Y-39975742D01*
X118699000Y-39818675D01*
X118699000Y-39658525D01*
X118730242Y-39501458D01*
X118791529Y-39353499D01*
X118880499Y-39220345D01*
X118993745Y-39107099D01*
X119126899Y-39018129D01*
X119274858Y-38956842D01*
X119431925Y-38925600D01*
X119592075Y-38925600D01*
X119749142Y-38956842D01*
X119749142Y-38956842D01*
G37*
G36*
X117209142Y-38956842D02*
G01*
X117357101Y-39018129D01*
X117490255Y-39107099D01*
X117603501Y-39220345D01*
X117692471Y-39353499D01*
X117753758Y-39501458D01*
X117785000Y-39658525D01*
X117785000Y-39818675D01*
X117753758Y-39975742D01*
X117692471Y-40123701D01*
X117603501Y-40256855D01*
X117490255Y-40370101D01*
X117357101Y-40459071D01*
X117209142Y-40520358D01*
X117052075Y-40551600D01*
X116891925Y-40551600D01*
X116734858Y-40520358D01*
X116586899Y-40459071D01*
X116453745Y-40370101D01*
X116340499Y-40256855D01*
X116251529Y-40123701D01*
X116190242Y-39975742D01*
X116159000Y-39818675D01*
X116159000Y-39658525D01*
X116190242Y-39501458D01*
X116251529Y-39353499D01*
X116340499Y-39220345D01*
X116453745Y-39107099D01*
X116586899Y-39018129D01*
X116734858Y-38956842D01*
X116891925Y-38925600D01*
X117052075Y-38925600D01*
X117209142Y-38956842D01*
X117209142Y-38956842D01*
G37*
G36*
X114669142Y-38956842D02*
G01*
X114817101Y-39018129D01*
X114950255Y-39107099D01*
X115063501Y-39220345D01*
X115152471Y-39353499D01*
X115213758Y-39501458D01*
X115245000Y-39658525D01*
X115245000Y-39818675D01*
X115213758Y-39975742D01*
X115152471Y-40123701D01*
X115063501Y-40256855D01*
X114950255Y-40370101D01*
X114817101Y-40459071D01*
X114669142Y-40520358D01*
X114512075Y-40551600D01*
X114351925Y-40551600D01*
X114194858Y-40520358D01*
X114046899Y-40459071D01*
X113913745Y-40370101D01*
X113800499Y-40256855D01*
X113711529Y-40123701D01*
X113650242Y-39975742D01*
X113619000Y-39818675D01*
X113619000Y-39658525D01*
X113650242Y-39501458D01*
X113711529Y-39353499D01*
X113800499Y-39220345D01*
X113913745Y-39107099D01*
X114046899Y-39018129D01*
X114194858Y-38956842D01*
X114351925Y-38925600D01*
X114512075Y-38925600D01*
X114669142Y-38956842D01*
X114669142Y-38956842D01*
G37*
G36*
X112129142Y-38956842D02*
G01*
X112277101Y-39018129D01*
X112410255Y-39107099D01*
X112523501Y-39220345D01*
X112612471Y-39353499D01*
X112673758Y-39501458D01*
X112705000Y-39658525D01*
X112705000Y-39818675D01*
X112673758Y-39975742D01*
X112612471Y-40123701D01*
X112523501Y-40256855D01*
X112410255Y-40370101D01*
X112277101Y-40459071D01*
X112129142Y-40520358D01*
X111972075Y-40551600D01*
X111811925Y-40551600D01*
X111654858Y-40520358D01*
X111506899Y-40459071D01*
X111373745Y-40370101D01*
X111260499Y-40256855D01*
X111171529Y-40123701D01*
X111110242Y-39975742D01*
X111079000Y-39818675D01*
X111079000Y-39658525D01*
X111110242Y-39501458D01*
X111171529Y-39353499D01*
X111260499Y-39220345D01*
X111373745Y-39107099D01*
X111506899Y-39018129D01*
X111654858Y-38956842D01*
X111811925Y-38925600D01*
X111972075Y-38925600D01*
X112129142Y-38956842D01*
X112129142Y-38956842D01*
G37*
G36*
X96889142Y-38956842D02*
G01*
X97037101Y-39018129D01*
X97170255Y-39107099D01*
X97283501Y-39220345D01*
X97372471Y-39353499D01*
X97433758Y-39501458D01*
X97465000Y-39658525D01*
X97465000Y-39818675D01*
X97433758Y-39975742D01*
X97372471Y-40123701D01*
X97283501Y-40256855D01*
X97170255Y-40370101D01*
X97037101Y-40459071D01*
X96889142Y-40520358D01*
X96732075Y-40551600D01*
X96571925Y-40551600D01*
X96414858Y-40520358D01*
X96266899Y-40459071D01*
X96133745Y-40370101D01*
X96020499Y-40256855D01*
X95931529Y-40123701D01*
X95870242Y-39975742D01*
X95839000Y-39818675D01*
X95839000Y-39658525D01*
X95870242Y-39501458D01*
X95931529Y-39353499D01*
X96020499Y-39220345D01*
X96133745Y-39107099D01*
X96266899Y-39018129D01*
X96414858Y-38956842D01*
X96571925Y-38925600D01*
X96732075Y-38925600D01*
X96889142Y-38956842D01*
X96889142Y-38956842D01*
G37*
G36*
X109589142Y-38956842D02*
G01*
X109737101Y-39018129D01*
X109870255Y-39107099D01*
X109983501Y-39220345D01*
X110072471Y-39353499D01*
X110133758Y-39501458D01*
X110165000Y-39658525D01*
X110165000Y-39818675D01*
X110133758Y-39975742D01*
X110072471Y-40123701D01*
X109983501Y-40256855D01*
X109870255Y-40370101D01*
X109737101Y-40459071D01*
X109589142Y-40520358D01*
X109432075Y-40551600D01*
X109271925Y-40551600D01*
X109114858Y-40520358D01*
X108966899Y-40459071D01*
X108833745Y-40370101D01*
X108720499Y-40256855D01*
X108631529Y-40123701D01*
X108570242Y-39975742D01*
X108539000Y-39818675D01*
X108539000Y-39658525D01*
X108570242Y-39501458D01*
X108631529Y-39353499D01*
X108720499Y-39220345D01*
X108833745Y-39107099D01*
X108966899Y-39018129D01*
X109114858Y-38956842D01*
X109271925Y-38925600D01*
X109432075Y-38925600D01*
X109589142Y-38956842D01*
X109589142Y-38956842D01*
G37*
G36*
X107049142Y-38956842D02*
G01*
X107197101Y-39018129D01*
X107330255Y-39107099D01*
X107443501Y-39220345D01*
X107532471Y-39353499D01*
X107593758Y-39501458D01*
X107625000Y-39658525D01*
X107625000Y-39818675D01*
X107593758Y-39975742D01*
X107532471Y-40123701D01*
X107443501Y-40256855D01*
X107330255Y-40370101D01*
X107197101Y-40459071D01*
X107049142Y-40520358D01*
X106892075Y-40551600D01*
X106731925Y-40551600D01*
X106574858Y-40520358D01*
X106426899Y-40459071D01*
X106293745Y-40370101D01*
X106180499Y-40256855D01*
X106091529Y-40123701D01*
X106030242Y-39975742D01*
X105999000Y-39818675D01*
X105999000Y-39658525D01*
X106030242Y-39501458D01*
X106091529Y-39353499D01*
X106180499Y-39220345D01*
X106293745Y-39107099D01*
X106426899Y-39018129D01*
X106574858Y-38956842D01*
X106731925Y-38925600D01*
X106892075Y-38925600D01*
X107049142Y-38956842D01*
X107049142Y-38956842D01*
G37*
G36*
X101969142Y-38956842D02*
G01*
X102117101Y-39018129D01*
X102250255Y-39107099D01*
X102363501Y-39220345D01*
X102452471Y-39353499D01*
X102513758Y-39501458D01*
X102545000Y-39658525D01*
X102545000Y-39818675D01*
X102513758Y-39975742D01*
X102452471Y-40123701D01*
X102363501Y-40256855D01*
X102250255Y-40370101D01*
X102117101Y-40459071D01*
X101969142Y-40520358D01*
X101812075Y-40551600D01*
X101651925Y-40551600D01*
X101494858Y-40520358D01*
X101346899Y-40459071D01*
X101213745Y-40370101D01*
X101100499Y-40256855D01*
X101011529Y-40123701D01*
X100950242Y-39975742D01*
X100919000Y-39818675D01*
X100919000Y-39658525D01*
X100950242Y-39501458D01*
X101011529Y-39353499D01*
X101100499Y-39220345D01*
X101213745Y-39107099D01*
X101346899Y-39018129D01*
X101494858Y-38956842D01*
X101651925Y-38925600D01*
X101812075Y-38925600D01*
X101969142Y-38956842D01*
X101969142Y-38956842D01*
G37*
G36*
X99429142Y-38956842D02*
G01*
X99577101Y-39018129D01*
X99710255Y-39107099D01*
X99823501Y-39220345D01*
X99912471Y-39353499D01*
X99973758Y-39501458D01*
X100005000Y-39658525D01*
X100005000Y-39818675D01*
X99973758Y-39975742D01*
X99912471Y-40123701D01*
X99823501Y-40256855D01*
X99710255Y-40370101D01*
X99577101Y-40459071D01*
X99429142Y-40520358D01*
X99272075Y-40551600D01*
X99111925Y-40551600D01*
X98954858Y-40520358D01*
X98806899Y-40459071D01*
X98673745Y-40370101D01*
X98560499Y-40256855D01*
X98471529Y-40123701D01*
X98410242Y-39975742D01*
X98379000Y-39818675D01*
X98379000Y-39658525D01*
X98410242Y-39501458D01*
X98471529Y-39353499D01*
X98560499Y-39220345D01*
X98673745Y-39107099D01*
X98806899Y-39018129D01*
X98954858Y-38956842D01*
X99111925Y-38925600D01*
X99272075Y-38925600D01*
X99429142Y-38956842D01*
X99429142Y-38956842D01*
G37*
G36*
X94349142Y-38956842D02*
G01*
X94497101Y-39018129D01*
X94630255Y-39107099D01*
X94743501Y-39220345D01*
X94832471Y-39353499D01*
X94893758Y-39501458D01*
X94925000Y-39658525D01*
X94925000Y-39818675D01*
X94893758Y-39975742D01*
X94832471Y-40123701D01*
X94743501Y-40256855D01*
X94630255Y-40370101D01*
X94497101Y-40459071D01*
X94349142Y-40520358D01*
X94192075Y-40551600D01*
X94031925Y-40551600D01*
X93874858Y-40520358D01*
X93726899Y-40459071D01*
X93593745Y-40370101D01*
X93480499Y-40256855D01*
X93391529Y-40123701D01*
X93330242Y-39975742D01*
X93299000Y-39818675D01*
X93299000Y-39658525D01*
X93330242Y-39501458D01*
X93391529Y-39353499D01*
X93480499Y-39220345D01*
X93593745Y-39107099D01*
X93726899Y-39018129D01*
X93874858Y-38956842D01*
X94031925Y-38925600D01*
X94192075Y-38925600D01*
X94349142Y-38956842D01*
X94349142Y-38956842D01*
G37*
G36*
X91809142Y-38956842D02*
G01*
X91957101Y-39018129D01*
X92090255Y-39107099D01*
X92203501Y-39220345D01*
X92292471Y-39353499D01*
X92353758Y-39501458D01*
X92385000Y-39658525D01*
X92385000Y-39818675D01*
X92353758Y-39975742D01*
X92292471Y-40123701D01*
X92203501Y-40256855D01*
X92090255Y-40370101D01*
X91957101Y-40459071D01*
X91809142Y-40520358D01*
X91652075Y-40551600D01*
X91491925Y-40551600D01*
X91334858Y-40520358D01*
X91186899Y-40459071D01*
X91053745Y-40370101D01*
X90940499Y-40256855D01*
X90851529Y-40123701D01*
X90790242Y-39975742D01*
X90759000Y-39818675D01*
X90759000Y-39658525D01*
X90790242Y-39501458D01*
X90851529Y-39353499D01*
X90940499Y-39220345D01*
X91053745Y-39107099D01*
X91186899Y-39018129D01*
X91334858Y-38956842D01*
X91491925Y-38925600D01*
X91652075Y-38925600D01*
X91809142Y-38956842D01*
X91809142Y-38956842D01*
G37*
G36*
X159128540Y-38396226D02*
G01*
X159176936Y-38405853D01*
X159214702Y-38421496D01*
X159268111Y-38443619D01*
X159268112Y-38443620D01*
X159350169Y-38498448D01*
X159419952Y-38568231D01*
X159447552Y-38609538D01*
X159474781Y-38650289D01*
X159512547Y-38741465D01*
X159531800Y-38838255D01*
X159531800Y-38936945D01*
X159512547Y-39033735D01*
X159474781Y-39124911D01*
X159457082Y-39151400D01*
X159419952Y-39206969D01*
X159350169Y-39276752D01*
X159308862Y-39304352D01*
X159268111Y-39331581D01*
X159215196Y-39353499D01*
X159176936Y-39369347D01*
X159128540Y-39378974D01*
X159080145Y-39388600D01*
X158981455Y-39388600D01*
X158933060Y-39378973D01*
X158884664Y-39369347D01*
X158846404Y-39353499D01*
X158793489Y-39331581D01*
X158752738Y-39304352D01*
X158711431Y-39276752D01*
X158641648Y-39206969D01*
X158604518Y-39151400D01*
X158586819Y-39124911D01*
X158549053Y-39033735D01*
X158529800Y-38936945D01*
X158529800Y-38838255D01*
X158549053Y-38741465D01*
X158586819Y-38650289D01*
X158614048Y-38609538D01*
X158641648Y-38568231D01*
X158711431Y-38498448D01*
X158793488Y-38443620D01*
X158793489Y-38443619D01*
X158846898Y-38421496D01*
X158884664Y-38405853D01*
X158933060Y-38396226D01*
X158981455Y-38386600D01*
X159080145Y-38386600D01*
X159128540Y-38396226D01*
X159128540Y-38396226D01*
G37*
G36*
X156128540Y-38396226D02*
G01*
X156176936Y-38405853D01*
X156214702Y-38421496D01*
X156268111Y-38443619D01*
X156268112Y-38443620D01*
X156350169Y-38498448D01*
X156419952Y-38568231D01*
X156447552Y-38609538D01*
X156474781Y-38650289D01*
X156512547Y-38741465D01*
X156531800Y-38838255D01*
X156531800Y-38936945D01*
X156512547Y-39033735D01*
X156474781Y-39124911D01*
X156457082Y-39151400D01*
X156419952Y-39206969D01*
X156350169Y-39276752D01*
X156308862Y-39304352D01*
X156268111Y-39331581D01*
X156215196Y-39353499D01*
X156176936Y-39369347D01*
X156128540Y-39378974D01*
X156080145Y-39388600D01*
X155981455Y-39388600D01*
X155933060Y-39378973D01*
X155884664Y-39369347D01*
X155846404Y-39353499D01*
X155793489Y-39331581D01*
X155752738Y-39304352D01*
X155711431Y-39276752D01*
X155641648Y-39206969D01*
X155604518Y-39151400D01*
X155586819Y-39124911D01*
X155549053Y-39033735D01*
X155529800Y-38936945D01*
X155529800Y-38838255D01*
X155549053Y-38741465D01*
X155586819Y-38650289D01*
X155614048Y-38609538D01*
X155641648Y-38568231D01*
X155711431Y-38498448D01*
X155793488Y-38443620D01*
X155793489Y-38443619D01*
X155846898Y-38421496D01*
X155884664Y-38405853D01*
X155933060Y-38396226D01*
X155981455Y-38386600D01*
X156080145Y-38386600D01*
X156128540Y-38396226D01*
X156128540Y-38396226D01*
G37*
M02*
