G04 #@! TF.GenerationSoftware,KiCad,Pcbnew,(6.0.9-0)*
G04 #@! TF.CreationDate,2022-12-14T14:32:43+09:00*
G04 #@! TF.ProjectId,palette1202-PM,70616c65-7474-4653-9132-30322d504d2e,rev?*
G04 #@! TF.SameCoordinates,Original*
G04 #@! TF.FileFunction,Legend,Bot*
G04 #@! TF.FilePolarity,Positive*
%FSLAX46Y46*%
G04 Gerber Fmt 4.6, Leading zero omitted, Abs format (unit mm)*
G04 Created by KiCad (PCBNEW (6.0.9-0)) date 2022-12-14 14:32:43*
%MOMM*%
%LPD*%
G01*
G04 APERTURE LIST*
G04 Aperture macros list*
%AMRoundRect*
0 Rectangle with rounded corners*
0 $1 Rounding radius*
0 $2 $3 $4 $5 $6 $7 $8 $9 X,Y pos of 4 corners*
0 Add a 4 corners polygon primitive as box body*
4,1,4,$2,$3,$4,$5,$6,$7,$8,$9,$2,$3,0*
0 Add four circle primitives for the rounded corners*
1,1,$1+$1,$2,$3*
1,1,$1+$1,$4,$5*
1,1,$1+$1,$6,$7*
1,1,$1+$1,$8,$9*
0 Add four rect primitives between the rounded corners*
20,1,$1+$1,$2,$3,$4,$5,0*
20,1,$1+$1,$4,$5,$6,$7,0*
20,1,$1+$1,$6,$7,$8,$9,0*
20,1,$1+$1,$8,$9,$2,$3,0*%
%AMFreePoly0*
4,1,16,0.536062,0.786062,0.542435,0.778290,1.042435,0.028290,1.050010,-0.010002,1.042435,-0.028290,0.542435,-0.778290,0.510002,-0.800010,0.500000,-0.801000,-0.500000,-0.801000,-0.536062,-0.786062,-0.551000,-0.750000,-0.551000,0.750000,-0.536062,0.786062,-0.500000,0.801000,0.500000,0.801000,0.536062,0.786062,0.536062,0.786062,$1*%
%AMFreePoly1*
4,1,16,0.536062,0.786062,0.551000,0.750000,0.551000,-0.750000,0.536062,-0.786062,0.500000,-0.801000,-0.650000,-0.801000,-0.686062,-0.786062,-0.701000,-0.750000,-0.692435,-0.721710,-0.211295,0.000000,-0.692435,0.721710,-0.700010,0.760002,-0.678290,0.792435,-0.650000,0.801000,0.500000,0.801000,0.536062,0.786062,0.536062,0.786062,$1*%
G04 Aperture macros list end*
%ADD10C,0.200000*%
%ADD11C,0.000000*%
%ADD12C,0.500000*%
%ADD13C,0.120000*%
%ADD14C,0.150000*%
%ADD15C,0.125000*%
%ADD16C,0.100000*%
%ADD17C,0.400000*%
%ADD18R,1.397000X1.397000*%
%ADD19C,1.397000*%
%ADD20RoundRect,0.051000X-1.000000X1.000000X-1.000000X-1.000000X1.000000X-1.000000X1.000000X1.000000X0*%
%ADD21C,2.102000*%
%ADD22RoundRect,0.051000X-1.000000X1.600000X-1.000000X-1.600000X1.000000X-1.600000X1.000000X1.600000X0*%
%ADD23C,3.102000*%
%ADD24C,1.802000*%
%ADD25C,2.002000*%
%ADD26C,4.102000*%
%ADD27RoundRect,0.051000X1.000000X1.000000X-1.000000X1.000000X-1.000000X-1.000000X1.000000X-1.000000X0*%
%ADD28RoundRect,0.051000X0.950000X1.000000X-0.950000X1.000000X-0.950000X-1.000000X0.950000X-1.000000X0*%
%ADD29RoundRect,0.051000X1.224745X0.707107X-0.707107X1.224745X-1.224745X-0.707107X0.707107X-1.224745X0*%
%ADD30RoundRect,0.051000X1.176449X0.720048X-0.658810X1.211804X-1.176449X-0.720048X0.658810X-1.211804X0*%
%ADD31C,1.702200*%
%ADD32C,1.002000*%
%ADD33C,2.202000*%
%ADD34C,1.626000*%
%ADD35C,4.202000*%
%ADD36RoundRect,0.051000X0.850000X0.850000X-0.850000X0.850000X-0.850000X-0.850000X0.850000X-0.850000X0*%
%ADD37O,1.802000X1.802000*%
%ADD38C,1.902000*%
%ADD39RoundRect,0.051000X1.500000X2.000000X-1.500000X2.000000X-1.500000X-2.000000X1.500000X-2.000000X0*%
%ADD40C,1.302000*%
%ADD41O,1.802000X2.602000*%
%ADD42RoundRect,0.051000X0.698500X-0.698500X0.698500X0.698500X-0.698500X0.698500X-0.698500X-0.698500X0*%
%ADD43RoundRect,0.051000X0.475000X-0.650000X0.475000X0.650000X-0.475000X0.650000X-0.475000X-0.650000X0*%
%ADD44C,1.499000*%
%ADD45RoundRect,0.051000X0.698500X0.698500X-0.698500X0.698500X-0.698500X-0.698500X0.698500X-0.698500X0*%
%ADD46RoundRect,0.051000X0.650000X0.475000X-0.650000X0.475000X-0.650000X-0.475000X0.650000X-0.475000X0*%
%ADD47RoundRect,0.300999X-0.537501X-0.425001X0.537501X-0.425001X0.537501X0.425001X-0.537501X0.425001X0*%
%ADD48FreePoly0,90.000000*%
%ADD49FreePoly1,90.000000*%
%ADD50FreePoly0,270.000000*%
%ADD51FreePoly1,270.000000*%
%ADD52RoundRect,0.051000X-0.500000X-0.400000X0.500000X-0.400000X0.500000X0.400000X-0.500000X0.400000X0*%
%ADD53RoundRect,0.051000X-0.350000X-0.750000X0.350000X-0.750000X0.350000X0.750000X-0.350000X0.750000X0*%
%ADD54FreePoly0,0.000000*%
%ADD55FreePoly1,0.000000*%
G04 APERTURE END LIST*
D10*
X89019000Y-55964600D02*
X91064000Y-55964600D01*
X91064000Y-40740200D02*
X91064000Y-53413600D01*
X89019000Y-38200200D02*
X91064000Y-38193600D01*
X89019000Y-55964600D02*
X89019000Y-38200200D01*
D11*
G36*
X173169916Y-49270366D02*
G01*
X172852415Y-49270366D01*
X172720124Y-48315221D01*
X172537561Y-48315221D01*
X172510028Y-48314663D01*
X172482991Y-48312993D01*
X172456450Y-48310215D01*
X172430405Y-48306332D01*
X172404856Y-48301349D01*
X172379803Y-48295268D01*
X172355247Y-48288095D01*
X172331186Y-48279833D01*
X172307622Y-48270485D01*
X172284554Y-48260056D01*
X172261981Y-48248550D01*
X172239905Y-48235970D01*
X172218325Y-48222320D01*
X172197241Y-48207604D01*
X172176653Y-48191827D01*
X172156562Y-48174991D01*
X172137213Y-48156759D01*
X172118853Y-48137779D01*
X172101478Y-48118047D01*
X172085083Y-48097559D01*
X172069665Y-48076312D01*
X172055219Y-48054301D01*
X172041743Y-48031523D01*
X172029231Y-48007973D01*
X172017681Y-47983648D01*
X172007088Y-47958545D01*
X171997448Y-47932658D01*
X171988758Y-47905984D01*
X171981014Y-47878520D01*
X171974211Y-47850262D01*
X171968347Y-47821205D01*
X171963416Y-47791345D01*
X171893413Y-47296320D01*
X171891979Y-47296575D01*
X171794083Y-46606013D01*
X171790209Y-46576154D01*
X171788822Y-46561163D01*
X172111387Y-46561163D01*
X172111512Y-46572454D01*
X172112029Y-46584134D01*
X172112935Y-46596202D01*
X172114229Y-46608659D01*
X172198551Y-47201398D01*
X172198895Y-47201325D01*
X172283561Y-47793992D01*
X172287624Y-47818953D01*
X172292869Y-47842247D01*
X172299299Y-47863883D01*
X172302960Y-47874081D01*
X172306920Y-47883868D01*
X172311177Y-47893243D01*
X172315734Y-47902209D01*
X172320590Y-47910766D01*
X172325745Y-47918915D01*
X172331202Y-47926657D01*
X172336959Y-47933993D01*
X172343017Y-47940924D01*
X172349377Y-47947450D01*
X172356040Y-47953574D01*
X172363005Y-47959296D01*
X172370274Y-47964617D01*
X172377846Y-47969537D01*
X172385722Y-47974058D01*
X172393904Y-47978181D01*
X172402390Y-47981907D01*
X172411182Y-47985236D01*
X172420281Y-47988170D01*
X172429686Y-47990710D01*
X172439398Y-47992857D01*
X172449418Y-47994610D01*
X172459746Y-47995973D01*
X172470382Y-47996945D01*
X172492583Y-47997721D01*
X172675145Y-47997721D01*
X172452895Y-46404930D01*
X172270333Y-46404930D01*
X172259132Y-46405131D01*
X172248349Y-46405735D01*
X172237982Y-46406741D01*
X172228031Y-46408149D01*
X172218494Y-46409958D01*
X172209372Y-46412168D01*
X172200662Y-46414777D01*
X172192364Y-46417787D01*
X172184476Y-46421196D01*
X172176999Y-46425003D01*
X172169930Y-46429208D01*
X172163270Y-46433812D01*
X172157016Y-46438812D01*
X172151168Y-46444210D01*
X172145726Y-46450003D01*
X172140687Y-46456193D01*
X172136052Y-46462777D01*
X172131818Y-46469757D01*
X172127986Y-46477131D01*
X172124554Y-46484899D01*
X172121521Y-46493060D01*
X172118886Y-46501614D01*
X172116649Y-46510561D01*
X172114807Y-46519899D01*
X172113362Y-46529629D01*
X172112310Y-46539750D01*
X172111652Y-46550261D01*
X172111387Y-46561163D01*
X171788822Y-46561163D01*
X171787520Y-46547097D01*
X171786025Y-46518838D01*
X171785732Y-46491374D01*
X171786648Y-46464700D01*
X171788781Y-46438814D01*
X171792139Y-46413710D01*
X171796729Y-46389385D01*
X171802559Y-46365836D01*
X171809638Y-46343057D01*
X171817972Y-46321046D01*
X171827569Y-46299799D01*
X171838438Y-46279311D01*
X171850586Y-46259579D01*
X171864021Y-46240599D01*
X171878750Y-46222367D01*
X171894065Y-46205095D01*
X171910241Y-46188994D01*
X171927270Y-46174056D01*
X171945143Y-46160273D01*
X171963854Y-46147636D01*
X171983394Y-46136140D01*
X172003756Y-46125775D01*
X172024932Y-46116534D01*
X172046914Y-46108409D01*
X172069694Y-46101392D01*
X172093265Y-46095477D01*
X172117619Y-46090654D01*
X172142748Y-46086917D01*
X172168644Y-46084257D01*
X172195300Y-46082666D01*
X172222708Y-46082138D01*
X172722770Y-46082138D01*
X173169916Y-49270366D01*
G37*
G36*
X164006250Y-47217479D02*
G01*
X164020677Y-47218316D01*
X164034809Y-47219712D01*
X164048655Y-47221665D01*
X164062221Y-47224176D01*
X164075516Y-47227246D01*
X164088548Y-47230874D01*
X164101323Y-47235060D01*
X164113851Y-47239804D01*
X164126138Y-47245106D01*
X164138192Y-47250966D01*
X164150022Y-47257384D01*
X164161635Y-47264360D01*
X164173038Y-47271895D01*
X164184240Y-47279987D01*
X164195248Y-47288638D01*
X164205418Y-47297784D01*
X164215092Y-47307360D01*
X164224270Y-47317363D01*
X164232952Y-47327788D01*
X164241137Y-47338632D01*
X164248827Y-47349890D01*
X164256020Y-47361560D01*
X164262717Y-47373636D01*
X164268918Y-47386115D01*
X164274623Y-47398993D01*
X164279832Y-47412267D01*
X164284545Y-47425932D01*
X164288762Y-47439985D01*
X164292483Y-47454422D01*
X164295707Y-47469238D01*
X164298436Y-47484430D01*
X164473061Y-48648597D01*
X164475231Y-48663790D01*
X164476777Y-48678606D01*
X164477696Y-48693042D01*
X164477982Y-48707095D01*
X164477632Y-48720760D01*
X164476643Y-48734034D01*
X164475011Y-48746913D01*
X164472731Y-48759392D01*
X164469801Y-48771468D01*
X164466215Y-48783137D01*
X164461970Y-48794396D01*
X164457062Y-48805239D01*
X164451488Y-48815664D01*
X164445244Y-48825667D01*
X164438325Y-48835243D01*
X164430728Y-48844390D01*
X164422573Y-48853041D01*
X164413984Y-48861138D01*
X164404962Y-48868684D01*
X164395505Y-48875685D01*
X164385614Y-48882142D01*
X164375289Y-48888061D01*
X164364530Y-48893445D01*
X164353337Y-48898298D01*
X164341710Y-48902624D01*
X164329648Y-48906427D01*
X164317153Y-48909710D01*
X164304223Y-48912478D01*
X164290860Y-48914734D01*
X164277062Y-48916483D01*
X164262830Y-48917727D01*
X164248164Y-48918472D01*
X164233406Y-48918193D01*
X164218900Y-48917356D01*
X164204650Y-48915961D01*
X164190659Y-48914007D01*
X164176932Y-48911496D01*
X164163472Y-48908426D01*
X164150284Y-48904798D01*
X164137371Y-48900613D01*
X164124737Y-48895869D01*
X164112385Y-48890567D01*
X164100321Y-48884707D01*
X164088547Y-48878288D01*
X164077068Y-48871312D01*
X164065887Y-48863778D01*
X164055009Y-48855685D01*
X164044436Y-48847034D01*
X164034237Y-48837888D01*
X164024479Y-48828312D01*
X164015170Y-48818309D01*
X164006320Y-48807884D01*
X163997934Y-48797041D01*
X163990021Y-48785782D01*
X163982589Y-48774113D01*
X163975645Y-48762037D01*
X163969197Y-48749558D01*
X163963253Y-48736680D01*
X163957820Y-48723406D01*
X163952907Y-48709741D01*
X163948521Y-48695688D01*
X163944670Y-48681251D01*
X163941361Y-48666435D01*
X163938603Y-48651243D01*
X163871801Y-48196004D01*
X163869813Y-48196159D01*
X163763978Y-47487076D01*
X163761838Y-47471883D01*
X163761212Y-47465538D01*
X163933839Y-47465538D01*
X163934023Y-47471282D01*
X163934437Y-47477228D01*
X163935082Y-47483375D01*
X163935958Y-47489723D01*
X164035995Y-48161772D01*
X164036500Y-48161764D01*
X164110583Y-48645952D01*
X164112907Y-48658447D01*
X164114322Y-48664393D01*
X164115905Y-48670136D01*
X164117655Y-48675679D01*
X164119570Y-48681019D01*
X164121650Y-48686159D01*
X164123894Y-48691096D01*
X164126301Y-48695833D01*
X164128869Y-48700367D01*
X164131599Y-48704700D01*
X164134488Y-48708832D01*
X164137536Y-48712762D01*
X164140742Y-48716490D01*
X164144105Y-48720017D01*
X164147624Y-48723342D01*
X164151298Y-48726466D01*
X164155126Y-48729389D01*
X164159107Y-48732109D01*
X164163240Y-48734629D01*
X164167525Y-48736946D01*
X164171959Y-48739063D01*
X164176543Y-48740977D01*
X164181275Y-48742690D01*
X164186155Y-48744202D01*
X164191180Y-48745512D01*
X164196351Y-48746620D01*
X164201667Y-48747527D01*
X164207126Y-48748233D01*
X164212727Y-48748736D01*
X164224353Y-48749140D01*
X164230183Y-48749046D01*
X164235774Y-48748762D01*
X164241131Y-48748285D01*
X164246264Y-48747610D01*
X164251180Y-48746733D01*
X164255886Y-48745651D01*
X164260391Y-48744360D01*
X164264702Y-48742856D01*
X164268827Y-48741134D01*
X164272774Y-48739192D01*
X164276550Y-48737025D01*
X164280163Y-48734629D01*
X164283622Y-48732000D01*
X164286933Y-48729135D01*
X164290105Y-48726030D01*
X164293145Y-48722681D01*
X164295531Y-48719580D01*
X164297724Y-48716232D01*
X164299715Y-48712635D01*
X164301497Y-48708790D01*
X164303061Y-48704698D01*
X164304401Y-48700357D01*
X164305508Y-48695768D01*
X164306375Y-48690931D01*
X164306994Y-48685846D01*
X164307356Y-48680513D01*
X164307456Y-48674932D01*
X164307284Y-48669103D01*
X164306833Y-48663026D01*
X164306095Y-48656701D01*
X164305063Y-48650128D01*
X164303729Y-48643306D01*
X164129103Y-47489723D01*
X164126809Y-47477228D01*
X164123894Y-47465538D01*
X164122204Y-47459996D01*
X164120359Y-47454655D01*
X164118359Y-47449516D01*
X164116205Y-47444579D01*
X164113895Y-47439842D01*
X164111430Y-47435308D01*
X164108809Y-47430975D01*
X164106034Y-47426843D01*
X164103104Y-47422913D01*
X164100019Y-47419185D01*
X164096779Y-47415658D01*
X164093384Y-47412332D01*
X164089834Y-47409209D01*
X164086128Y-47406286D01*
X164082268Y-47403565D01*
X164078253Y-47401046D01*
X164074082Y-47398729D01*
X164069757Y-47396612D01*
X164065277Y-47394698D01*
X164060641Y-47392985D01*
X164055851Y-47391473D01*
X164050906Y-47390163D01*
X164045805Y-47389055D01*
X164040550Y-47388148D01*
X164035139Y-47387442D01*
X164029574Y-47386938D01*
X164023853Y-47386636D01*
X164017977Y-47386535D01*
X164012125Y-47386636D01*
X164006476Y-47386938D01*
X164001030Y-47387442D01*
X163995788Y-47388148D01*
X163990751Y-47389055D01*
X163985922Y-47390163D01*
X163981299Y-47391473D01*
X163976885Y-47392985D01*
X163972680Y-47394698D01*
X163968685Y-47396612D01*
X163964901Y-47398729D01*
X163961330Y-47401046D01*
X163957972Y-47403565D01*
X163954828Y-47406286D01*
X163951899Y-47409209D01*
X163949186Y-47412332D01*
X163946691Y-47415658D01*
X163944413Y-47419185D01*
X163942354Y-47422913D01*
X163940515Y-47426843D01*
X163938897Y-47430975D01*
X163937501Y-47435308D01*
X163936328Y-47439842D01*
X163935379Y-47444579D01*
X163934654Y-47449516D01*
X163934155Y-47454655D01*
X163933883Y-47459996D01*
X163933839Y-47465538D01*
X163761212Y-47465538D01*
X163760376Y-47457067D01*
X163759589Y-47442631D01*
X163759472Y-47428578D01*
X163760022Y-47414913D01*
X163761234Y-47401639D01*
X163763105Y-47388760D01*
X163765632Y-47376281D01*
X163768809Y-47364205D01*
X163772634Y-47352536D01*
X163777102Y-47341277D01*
X163782210Y-47330434D01*
X163787953Y-47320009D01*
X163794328Y-47310006D01*
X163801330Y-47300430D01*
X163808957Y-47291283D01*
X163817112Y-47282632D01*
X163825701Y-47274535D01*
X163834724Y-47266988D01*
X163844180Y-47259988D01*
X163854071Y-47253531D01*
X163864396Y-47247612D01*
X163875155Y-47242228D01*
X163886348Y-47237375D01*
X163897976Y-47233049D01*
X163910037Y-47229246D01*
X163922532Y-47225962D01*
X163935462Y-47223194D01*
X163948825Y-47220938D01*
X163962623Y-47219189D01*
X163976855Y-47217945D01*
X163991521Y-47217200D01*
X164006250Y-47217479D01*
G37*
G36*
X163278675Y-47220125D02*
G01*
X163293181Y-47220967D01*
X163307431Y-47222374D01*
X163321422Y-47224352D01*
X163335149Y-47226903D01*
X163348608Y-47230031D01*
X163361797Y-47233741D01*
X163374710Y-47238036D01*
X163387344Y-47242920D01*
X163399695Y-47248397D01*
X163411760Y-47254471D01*
X163423533Y-47261146D01*
X163435013Y-47268425D01*
X163446193Y-47276313D01*
X163457072Y-47284813D01*
X163467644Y-47293929D01*
X163477814Y-47303075D01*
X163487488Y-47312656D01*
X163496666Y-47322671D01*
X163505348Y-47333120D01*
X163513533Y-47344003D01*
X163521223Y-47355320D01*
X163528416Y-47367071D01*
X163535113Y-47379257D01*
X163541314Y-47391876D01*
X163547020Y-47404930D01*
X163552228Y-47418417D01*
X163556941Y-47432339D01*
X163561158Y-47446695D01*
X163564879Y-47461484D01*
X163568103Y-47476708D01*
X163570832Y-47492367D01*
X163613166Y-47778117D01*
X163443833Y-47778117D01*
X163401500Y-47495013D01*
X163399205Y-47482052D01*
X163397825Y-47475896D01*
X163396290Y-47469955D01*
X163394600Y-47464229D01*
X163392756Y-47458718D01*
X163390756Y-47453422D01*
X163388601Y-47448339D01*
X163386291Y-47443469D01*
X163383826Y-47438811D01*
X163381206Y-47434366D01*
X163378430Y-47430133D01*
X163375500Y-47426111D01*
X163372415Y-47422299D01*
X163369175Y-47418698D01*
X163365780Y-47415307D01*
X163362230Y-47412125D01*
X163358524Y-47409151D01*
X163354664Y-47406386D01*
X163350649Y-47403829D01*
X163346479Y-47401480D01*
X163342153Y-47399337D01*
X163337673Y-47397400D01*
X163333037Y-47395670D01*
X163328247Y-47394144D01*
X163323302Y-47392824D01*
X163318201Y-47391708D01*
X163312946Y-47390796D01*
X163307535Y-47390088D01*
X163301970Y-47389583D01*
X163296249Y-47389280D01*
X163290374Y-47389179D01*
X163278872Y-47389583D01*
X163273426Y-47390088D01*
X163268184Y-47390796D01*
X163263148Y-47391708D01*
X163258318Y-47392824D01*
X163253695Y-47394144D01*
X163249281Y-47395670D01*
X163245076Y-47397400D01*
X163241081Y-47399337D01*
X163237298Y-47401480D01*
X163233726Y-47403829D01*
X163230368Y-47406386D01*
X163227224Y-47409151D01*
X163224295Y-47412125D01*
X163221582Y-47415307D01*
X163219087Y-47418698D01*
X163216809Y-47422299D01*
X163214750Y-47426111D01*
X163212911Y-47430133D01*
X163211293Y-47434366D01*
X163209897Y-47438811D01*
X163208724Y-47443469D01*
X163207775Y-47448339D01*
X163207050Y-47453422D01*
X163206551Y-47458718D01*
X163206279Y-47464229D01*
X163206235Y-47469955D01*
X163206419Y-47475896D01*
X163206833Y-47482052D01*
X163208354Y-47495013D01*
X163213686Y-47528365D01*
X163219763Y-47560911D01*
X163226584Y-47592588D01*
X163234150Y-47623336D01*
X163242459Y-47653091D01*
X163251513Y-47681792D01*
X163261311Y-47709377D01*
X163271853Y-47735783D01*
X163282132Y-47761337D01*
X163293062Y-47786426D01*
X163304550Y-47811081D01*
X163316503Y-47835333D01*
X163328828Y-47859212D01*
X163341432Y-47882751D01*
X163367104Y-47928929D01*
X163394926Y-47974073D01*
X163422997Y-48018226D01*
X163437203Y-48039930D01*
X163451564Y-48061386D01*
X163466110Y-48082594D01*
X163480874Y-48103554D01*
X163495638Y-48124519D01*
X163510185Y-48145763D01*
X163524546Y-48167317D01*
X163538752Y-48189213D01*
X163552834Y-48211480D01*
X163566823Y-48234150D01*
X163580750Y-48257255D01*
X163594645Y-48280824D01*
X163608293Y-48304885D01*
X163621476Y-48329441D01*
X163634225Y-48354494D01*
X163646570Y-48380043D01*
X163658544Y-48406088D01*
X163670176Y-48432629D01*
X163681499Y-48459666D01*
X163692542Y-48487200D01*
X163703089Y-48515601D01*
X163712923Y-48545242D01*
X163722075Y-48576124D01*
X163730576Y-48608246D01*
X163738457Y-48641609D01*
X163745749Y-48676211D01*
X163752482Y-48712054D01*
X163758689Y-48749137D01*
X163779855Y-48915825D01*
X163248042Y-48918470D01*
X163226874Y-48749137D01*
X163589354Y-48749137D01*
X163584022Y-48715893D01*
X163577945Y-48683611D01*
X163571124Y-48652259D01*
X163563558Y-48621806D01*
X163555249Y-48592222D01*
X163546195Y-48563474D01*
X163536397Y-48535533D01*
X163525855Y-48508366D01*
X163515577Y-48481939D01*
X163504647Y-48456194D01*
X163493160Y-48431068D01*
X163481207Y-48406501D01*
X163468882Y-48382430D01*
X163456278Y-48358793D01*
X163430606Y-48312574D01*
X163402783Y-48267430D01*
X163374712Y-48223277D01*
X163360506Y-48201573D01*
X163346145Y-48180117D01*
X163331598Y-48158909D01*
X163316834Y-48137950D01*
X163302070Y-48116984D01*
X163287523Y-48095740D01*
X163273162Y-48074186D01*
X163258956Y-48052291D01*
X163244875Y-48030023D01*
X163230886Y-48007353D01*
X163216959Y-47984248D01*
X163203063Y-47960679D01*
X163189415Y-47937486D01*
X163176233Y-47913550D01*
X163163484Y-47888869D01*
X163151138Y-47863445D01*
X163139165Y-47837276D01*
X163127532Y-47810363D01*
X163116210Y-47782706D01*
X163105166Y-47754305D01*
X163094619Y-47725908D01*
X163084785Y-47696303D01*
X163075633Y-47665519D01*
X163067133Y-47633588D01*
X163059252Y-47600541D01*
X163051961Y-47566409D01*
X163045228Y-47531223D01*
X163039021Y-47495013D01*
X163036851Y-47479354D01*
X163035306Y-47464126D01*
X163034388Y-47449324D01*
X163034102Y-47434944D01*
X163034451Y-47420983D01*
X163035440Y-47407436D01*
X163037072Y-47394301D01*
X163039352Y-47381572D01*
X163042282Y-47369247D01*
X163045868Y-47357321D01*
X163050112Y-47345790D01*
X163055020Y-47334650D01*
X163060593Y-47323898D01*
X163066838Y-47313530D01*
X163073756Y-47303541D01*
X163081353Y-47293929D01*
X163089508Y-47284813D01*
X163098097Y-47276313D01*
X163107120Y-47268425D01*
X163116577Y-47261146D01*
X163126467Y-47254471D01*
X163136792Y-47248397D01*
X163147551Y-47242920D01*
X163158745Y-47238036D01*
X163170372Y-47233741D01*
X163182433Y-47230031D01*
X163194928Y-47226903D01*
X163207858Y-47224352D01*
X163221221Y-47222374D01*
X163235019Y-47220967D01*
X163249251Y-47220125D01*
X163263917Y-47219845D01*
X163278675Y-47220125D01*
G37*
G36*
X165870063Y-49286242D02*
G01*
X163300957Y-49286242D01*
X163279792Y-49119554D01*
X165846249Y-49119554D01*
X165870063Y-49286242D01*
G37*
G36*
X166385752Y-46807530D02*
G01*
X166408820Y-46808833D01*
X166431393Y-46811003D01*
X166453469Y-46814042D01*
X166475049Y-46817948D01*
X166496133Y-46822723D01*
X166516721Y-46828366D01*
X166536813Y-46834877D01*
X166556409Y-46842257D01*
X166575508Y-46850504D01*
X166594112Y-46859620D01*
X166612219Y-46869604D01*
X166629831Y-46880456D01*
X166646946Y-46892176D01*
X166663565Y-46904765D01*
X166679688Y-46918221D01*
X166695192Y-46932485D01*
X166709955Y-46947501D01*
X166723982Y-46963276D01*
X166737276Y-46979819D01*
X166749842Y-46997137D01*
X166761683Y-47015238D01*
X166772803Y-47034130D01*
X166783206Y-47053820D01*
X166792896Y-47074316D01*
X166801877Y-47095626D01*
X166810152Y-47117758D01*
X166817726Y-47140719D01*
X166824602Y-47164518D01*
X166830785Y-47189161D01*
X166836278Y-47214657D01*
X166841084Y-47241013D01*
X167076563Y-48844389D01*
X167080036Y-48870309D01*
X167082521Y-48895481D01*
X167084022Y-48919901D01*
X167084542Y-48943566D01*
X167084085Y-48966470D01*
X167082656Y-48988612D01*
X167080257Y-49009986D01*
X167076894Y-49030589D01*
X167072569Y-49050416D01*
X167067287Y-49069465D01*
X167061052Y-49087730D01*
X167053867Y-49105209D01*
X167045736Y-49121898D01*
X167036663Y-49137791D01*
X167026653Y-49152887D01*
X167015709Y-49167180D01*
X167003459Y-49180636D01*
X166990516Y-49193225D01*
X166976868Y-49204945D01*
X166962502Y-49215797D01*
X166947408Y-49225781D01*
X166931574Y-49234897D01*
X166914988Y-49243144D01*
X166897638Y-49250524D01*
X166879513Y-49257035D01*
X166860602Y-49262678D01*
X166840892Y-49267453D01*
X166820372Y-49271359D01*
X166799030Y-49274398D01*
X166776855Y-49276568D01*
X166753835Y-49277871D01*
X166729958Y-49278305D01*
X166706394Y-49277840D01*
X166683326Y-49276450D01*
X166660754Y-49274136D01*
X166638677Y-49270905D01*
X166617097Y-49266758D01*
X166596013Y-49261701D01*
X166575425Y-49255737D01*
X166555334Y-49248870D01*
X166535738Y-49241103D01*
X166516638Y-49232442D01*
X166498035Y-49222889D01*
X166479927Y-49212448D01*
X166462316Y-49201124D01*
X166445201Y-49188920D01*
X166428582Y-49175841D01*
X166412459Y-49161889D01*
X166396986Y-49147069D01*
X166382311Y-49131384D01*
X166368427Y-49114839D01*
X166355325Y-49097438D01*
X166342999Y-49079184D01*
X166331441Y-49060081D01*
X166320642Y-49040133D01*
X166310594Y-49019344D01*
X166301291Y-48997718D01*
X166292725Y-48975259D01*
X166284887Y-48951970D01*
X166277769Y-48927856D01*
X166271365Y-48902920D01*
X166265667Y-48877167D01*
X166260665Y-48850599D01*
X166256354Y-48823222D01*
X166179625Y-48299348D01*
X166475959Y-48299348D01*
X166552687Y-48823222D01*
X166555510Y-48842446D01*
X166559023Y-48860429D01*
X166563233Y-48877172D01*
X166568149Y-48892675D01*
X166573778Y-48906938D01*
X166580127Y-48919960D01*
X166587206Y-48931742D01*
X166591020Y-48937168D01*
X166595020Y-48942284D01*
X166599206Y-48947090D01*
X166603579Y-48951586D01*
X166608140Y-48955772D01*
X166612890Y-48959648D01*
X166617830Y-48963213D01*
X166622960Y-48966469D01*
X166628283Y-48969414D01*
X166633798Y-48972050D01*
X166639507Y-48974375D01*
X166645411Y-48976391D01*
X166651511Y-48978096D01*
X166657807Y-48979491D01*
X166664301Y-48980576D01*
X166670994Y-48981351D01*
X166677886Y-48981816D01*
X166684979Y-48981971D01*
X166692041Y-48981816D01*
X166698839Y-48981351D01*
X166705373Y-48980576D01*
X166711644Y-48979491D01*
X166717651Y-48978096D01*
X166723395Y-48976390D01*
X166728876Y-48974375D01*
X166734092Y-48972050D01*
X166739045Y-48969414D01*
X166743735Y-48966469D01*
X166748161Y-48963213D01*
X166752324Y-48959647D01*
X166756223Y-48955772D01*
X166759858Y-48951586D01*
X166763230Y-48947090D01*
X166766338Y-48942284D01*
X166769183Y-48937168D01*
X166771764Y-48931742D01*
X166774082Y-48926006D01*
X166776136Y-48919960D01*
X166777927Y-48913604D01*
X166779454Y-48906937D01*
X166780717Y-48899961D01*
X166781717Y-48892675D01*
X166782454Y-48885078D01*
X166782927Y-48877172D01*
X166783136Y-48868955D01*
X166783082Y-48860429D01*
X166782764Y-48851592D01*
X166782183Y-48842445D01*
X166781338Y-48832989D01*
X166780229Y-48823222D01*
X166671750Y-48071806D01*
X166147876Y-48071806D01*
X166091238Y-47690791D01*
X166089667Y-47690805D01*
X166018229Y-47219846D01*
X166014687Y-47197595D01*
X166309210Y-47197595D01*
X166309560Y-47205129D01*
X166310266Y-47212974D01*
X166311333Y-47221128D01*
X166312763Y-47229593D01*
X166314563Y-47238368D01*
X166383073Y-47669742D01*
X166385998Y-47669638D01*
X166401875Y-47772826D01*
X166629416Y-47772826D01*
X166542104Y-47238368D01*
X166538320Y-47222028D01*
X166533913Y-47206742D01*
X166528878Y-47192510D01*
X166523211Y-47179333D01*
X166516908Y-47167209D01*
X166513517Y-47161543D01*
X166509966Y-47156140D01*
X166506254Y-47151001D01*
X166502380Y-47146125D01*
X166498345Y-47141513D01*
X166494148Y-47137165D01*
X166489787Y-47133080D01*
X166485264Y-47129258D01*
X166480576Y-47125700D01*
X166475725Y-47122406D01*
X166470709Y-47119375D01*
X166465527Y-47116608D01*
X166460180Y-47114104D01*
X166454667Y-47111864D01*
X166448987Y-47109887D01*
X166443140Y-47108174D01*
X166437125Y-47106725D01*
X166430942Y-47105539D01*
X166424591Y-47104616D01*
X166418071Y-47103958D01*
X166411381Y-47103562D01*
X166404521Y-47103430D01*
X166398194Y-47103554D01*
X166392108Y-47103927D01*
X166386254Y-47104547D01*
X166380625Y-47105415D01*
X166375213Y-47106531D01*
X166370011Y-47107895D01*
X166365010Y-47109508D01*
X166360202Y-47111368D01*
X166355581Y-47113477D01*
X166351138Y-47115833D01*
X166346866Y-47118437D01*
X166342756Y-47121290D01*
X166338802Y-47124390D01*
X166334994Y-47127739D01*
X166331326Y-47131336D01*
X166327790Y-47135180D01*
X166324473Y-47139304D01*
X166321470Y-47143738D01*
X166318785Y-47148482D01*
X166316422Y-47153536D01*
X166314384Y-47158900D01*
X166312675Y-47164574D01*
X166311300Y-47170558D01*
X166310262Y-47176852D01*
X166309565Y-47183456D01*
X166309213Y-47190370D01*
X166309210Y-47197595D01*
X166014687Y-47197595D01*
X166014261Y-47194919D01*
X166011289Y-47170739D01*
X166009317Y-47147311D01*
X166008348Y-47124638D01*
X166008388Y-47102726D01*
X166009438Y-47081576D01*
X166011505Y-47061195D01*
X166014591Y-47041584D01*
X166018699Y-47022749D01*
X166023835Y-47004692D01*
X166030002Y-46987419D01*
X166037204Y-46970932D01*
X166045445Y-46955236D01*
X166054728Y-46940334D01*
X166065058Y-46926231D01*
X166076438Y-46912930D01*
X166088687Y-46899969D01*
X166101630Y-46887872D01*
X166115278Y-46876636D01*
X166129643Y-46866256D01*
X166144737Y-46856729D01*
X166160572Y-46848050D01*
X166177158Y-46840217D01*
X166194507Y-46833224D01*
X166212632Y-46827069D01*
X166231544Y-46821747D01*
X166251254Y-46817254D01*
X166271774Y-46813587D01*
X166293116Y-46810741D01*
X166315291Y-46808714D01*
X166338311Y-46807500D01*
X166362187Y-46807096D01*
X166385752Y-46807530D01*
G37*
G36*
X170767500Y-49270367D02*
G01*
X170471166Y-49270367D01*
X170021374Y-46037159D01*
X170317708Y-46037159D01*
X170767500Y-49270367D01*
G37*
G36*
X169391419Y-46807530D02*
G01*
X169414488Y-46808833D01*
X169437060Y-46811003D01*
X169459136Y-46814042D01*
X169480716Y-46817948D01*
X169501800Y-46822723D01*
X169522388Y-46828366D01*
X169542480Y-46834877D01*
X169562075Y-46842257D01*
X169581175Y-46850504D01*
X169599778Y-46859620D01*
X169617886Y-46869604D01*
X169635497Y-46880456D01*
X169652613Y-46892176D01*
X169669232Y-46904765D01*
X169685355Y-46918221D01*
X169700858Y-46932485D01*
X169715622Y-46947501D01*
X169729649Y-46963276D01*
X169742943Y-46979819D01*
X169755509Y-46997137D01*
X169767350Y-47015238D01*
X169778470Y-47034130D01*
X169788873Y-47053820D01*
X169798563Y-47074316D01*
X169807544Y-47095626D01*
X169815819Y-47117758D01*
X169823393Y-47140719D01*
X169830269Y-47164518D01*
X169836452Y-47189161D01*
X169841944Y-47214657D01*
X169846751Y-47241013D01*
X170082229Y-48844389D01*
X170085703Y-48870309D01*
X170088188Y-48895481D01*
X170089689Y-48919901D01*
X170090209Y-48943566D01*
X170089752Y-48966470D01*
X170088323Y-48988612D01*
X170085924Y-49009986D01*
X170082561Y-49030589D01*
X170078236Y-49050416D01*
X170072954Y-49069465D01*
X170066718Y-49087730D01*
X170059533Y-49105209D01*
X170051403Y-49121898D01*
X170042330Y-49137791D01*
X170032320Y-49152887D01*
X170021375Y-49167180D01*
X170009126Y-49180636D01*
X169996183Y-49193225D01*
X169982535Y-49204945D01*
X169968169Y-49215797D01*
X169953075Y-49225781D01*
X169937241Y-49234897D01*
X169920655Y-49243144D01*
X169903305Y-49250524D01*
X169885180Y-49257035D01*
X169866268Y-49262678D01*
X169846558Y-49267453D01*
X169826038Y-49271359D01*
X169804697Y-49274398D01*
X169782522Y-49276568D01*
X169759502Y-49277871D01*
X169735625Y-49278305D01*
X169712061Y-49277840D01*
X169688992Y-49276450D01*
X169666420Y-49274136D01*
X169644344Y-49270905D01*
X169622764Y-49266758D01*
X169601680Y-49261701D01*
X169581092Y-49255737D01*
X169561000Y-49248870D01*
X169541404Y-49241103D01*
X169522304Y-49232442D01*
X169503701Y-49222889D01*
X169485594Y-49212448D01*
X169467982Y-49201124D01*
X169450867Y-49188920D01*
X169434248Y-49175841D01*
X169418125Y-49161889D01*
X169402652Y-49147069D01*
X169387977Y-49131384D01*
X169374093Y-49114839D01*
X169360992Y-49097438D01*
X169348666Y-49079184D01*
X169337107Y-49060081D01*
X169326308Y-49040133D01*
X169316261Y-49019344D01*
X169306958Y-48997718D01*
X169298391Y-48975259D01*
X169290553Y-48951970D01*
X169283436Y-48927856D01*
X169277032Y-48902920D01*
X169271333Y-48877167D01*
X169266332Y-48850599D01*
X169262021Y-48823222D01*
X169185291Y-48299348D01*
X169481624Y-48299348D01*
X169558354Y-48823222D01*
X169561177Y-48842446D01*
X169564689Y-48860429D01*
X169568900Y-48877172D01*
X169573815Y-48892675D01*
X169579444Y-48906938D01*
X169585794Y-48919960D01*
X169592872Y-48931742D01*
X169596687Y-48937168D01*
X169600687Y-48942284D01*
X169604873Y-48947090D01*
X169609246Y-48951586D01*
X169613807Y-48955772D01*
X169618557Y-48959648D01*
X169623496Y-48963213D01*
X169628627Y-48966469D01*
X169633949Y-48969414D01*
X169639465Y-48972050D01*
X169645174Y-48974375D01*
X169651078Y-48976391D01*
X169657177Y-48978096D01*
X169663474Y-48979491D01*
X169669968Y-48980576D01*
X169676660Y-48981351D01*
X169683552Y-48981816D01*
X169690645Y-48981971D01*
X169697707Y-48981816D01*
X169704505Y-48981351D01*
X169711039Y-48980576D01*
X169717310Y-48979491D01*
X169723318Y-48978096D01*
X169729061Y-48976390D01*
X169734542Y-48974375D01*
X169739759Y-48972050D01*
X169744712Y-48969414D01*
X169749401Y-48966469D01*
X169753828Y-48963213D01*
X169757990Y-48959647D01*
X169761889Y-48955772D01*
X169765525Y-48951586D01*
X169768896Y-48947090D01*
X169772005Y-48942284D01*
X169774850Y-48937168D01*
X169777431Y-48931742D01*
X169779748Y-48926006D01*
X169781803Y-48919960D01*
X169783593Y-48913604D01*
X169785120Y-48906937D01*
X169786384Y-48899961D01*
X169787384Y-48892675D01*
X169788120Y-48885078D01*
X169788593Y-48877172D01*
X169788802Y-48868955D01*
X169788748Y-48860429D01*
X169788430Y-48851592D01*
X169787849Y-48842445D01*
X169787004Y-48832989D01*
X169785895Y-48823222D01*
X169677417Y-48071806D01*
X169150895Y-48071806D01*
X169092686Y-47680222D01*
X169093722Y-47680185D01*
X169023895Y-47219846D01*
X169020353Y-47197595D01*
X169312230Y-47197595D01*
X169312579Y-47205129D01*
X169313285Y-47212974D01*
X169314352Y-47221128D01*
X169315783Y-47229593D01*
X169317582Y-47238368D01*
X169386095Y-47669742D01*
X169389020Y-47669638D01*
X169404895Y-47772826D01*
X169632437Y-47772826D01*
X169545124Y-47238368D01*
X169541341Y-47222028D01*
X169536933Y-47206742D01*
X169531898Y-47192510D01*
X169526231Y-47179333D01*
X169519928Y-47167209D01*
X169516538Y-47161543D01*
X169512986Y-47156140D01*
X169509274Y-47151001D01*
X169505401Y-47146125D01*
X169501366Y-47141513D01*
X169497168Y-47137165D01*
X169492808Y-47133080D01*
X169488284Y-47129258D01*
X169483597Y-47125700D01*
X169478745Y-47122406D01*
X169473729Y-47119375D01*
X169468548Y-47116608D01*
X169463200Y-47114104D01*
X169457687Y-47111864D01*
X169452007Y-47109887D01*
X169446160Y-47108174D01*
X169440145Y-47106725D01*
X169433962Y-47105539D01*
X169427611Y-47104616D01*
X169421090Y-47103958D01*
X169414400Y-47103562D01*
X169407540Y-47103430D01*
X169401214Y-47103554D01*
X169395127Y-47103927D01*
X169389274Y-47104547D01*
X169383645Y-47105415D01*
X169378233Y-47106531D01*
X169373030Y-47107895D01*
X169368029Y-47109508D01*
X169363222Y-47111368D01*
X169358601Y-47113477D01*
X169354158Y-47115833D01*
X169349886Y-47118437D01*
X169345776Y-47121290D01*
X169341822Y-47124390D01*
X169338015Y-47127739D01*
X169334347Y-47131336D01*
X169330811Y-47135180D01*
X169327494Y-47139304D01*
X169324491Y-47143738D01*
X169321806Y-47148482D01*
X169319442Y-47153536D01*
X169317404Y-47158900D01*
X169315695Y-47164574D01*
X169314320Y-47170558D01*
X169313282Y-47176852D01*
X169312585Y-47183456D01*
X169312233Y-47190370D01*
X169312230Y-47197595D01*
X169020353Y-47197595D01*
X169019927Y-47194919D01*
X169016955Y-47170739D01*
X169014983Y-47147311D01*
X169014015Y-47124638D01*
X169014054Y-47102726D01*
X169015105Y-47081576D01*
X169017171Y-47061195D01*
X169020257Y-47041584D01*
X169024366Y-47022749D01*
X169029502Y-47004692D01*
X169035669Y-46987419D01*
X169042871Y-46970932D01*
X169051112Y-46955236D01*
X169060395Y-46940334D01*
X169070724Y-46926231D01*
X169082104Y-46912930D01*
X169094354Y-46899969D01*
X169107297Y-46887872D01*
X169120945Y-46876636D01*
X169135311Y-46866256D01*
X169150405Y-46856729D01*
X169166239Y-46848050D01*
X169182825Y-46840217D01*
X169200175Y-46833224D01*
X169218300Y-46827069D01*
X169237211Y-46821747D01*
X169256921Y-46817254D01*
X169277442Y-46813587D01*
X169298783Y-46810741D01*
X169320958Y-46808714D01*
X169343978Y-46807500D01*
X169367855Y-46807096D01*
X169391419Y-46807530D01*
G37*
G36*
X168560875Y-46812388D02*
G01*
X168743437Y-46812388D01*
X168783125Y-47108721D01*
X168595271Y-47108721D01*
X168833396Y-48815283D01*
X168837334Y-48842661D01*
X168840217Y-48869229D01*
X168842047Y-48894982D01*
X168842822Y-48919918D01*
X168842543Y-48944032D01*
X168841209Y-48967321D01*
X168838822Y-48989780D01*
X168835380Y-49011406D01*
X168830884Y-49032195D01*
X168825334Y-49052142D01*
X168818730Y-49071245D01*
X168811071Y-49089499D01*
X168802359Y-49106901D01*
X168792592Y-49123446D01*
X168781771Y-49139130D01*
X168769895Y-49153950D01*
X168757089Y-49167902D01*
X168743473Y-49180982D01*
X168729043Y-49193186D01*
X168713795Y-49204510D01*
X168697726Y-49214950D01*
X168680831Y-49224503D01*
X168663106Y-49233165D01*
X168644549Y-49240931D01*
X168625154Y-49247799D01*
X168604918Y-49253763D01*
X168583837Y-49258820D01*
X168561908Y-49262966D01*
X168539126Y-49266198D01*
X168515487Y-49268511D01*
X168490988Y-49269902D01*
X168465625Y-49270366D01*
X168306875Y-49270366D01*
X168267187Y-48974033D01*
X168425936Y-48974033D01*
X168434696Y-48973878D01*
X168443114Y-48973413D01*
X168451193Y-48972638D01*
X168458932Y-48971553D01*
X168466332Y-48970157D01*
X168473393Y-48968452D01*
X168480116Y-48966437D01*
X168486501Y-48964111D01*
X168492549Y-48961476D01*
X168498261Y-48958530D01*
X168503636Y-48955275D01*
X168508676Y-48951709D01*
X168513380Y-48947833D01*
X168517749Y-48943648D01*
X168521785Y-48939152D01*
X168525486Y-48934346D01*
X168528854Y-48929230D01*
X168531889Y-48923804D01*
X168534592Y-48918068D01*
X168536963Y-48912022D01*
X168539003Y-48905666D01*
X168540712Y-48899000D01*
X168542090Y-48892023D01*
X168543139Y-48884737D01*
X168543858Y-48877140D01*
X168544248Y-48869234D01*
X168544309Y-48861017D01*
X168544043Y-48852491D01*
X168542528Y-48834507D01*
X168539707Y-48815283D01*
X168304229Y-47108721D01*
X168007896Y-47108721D01*
X167968208Y-46812388D01*
X168264541Y-46812388D01*
X168190458Y-46312326D01*
X168373021Y-46312326D01*
X168560875Y-46812388D01*
G37*
G36*
X165604384Y-39955595D02*
G01*
X165754761Y-39967029D01*
X165902966Y-39985859D01*
X166048812Y-40011899D01*
X166192111Y-40044964D01*
X166332677Y-40084868D01*
X166470322Y-40131426D01*
X166604861Y-40184452D01*
X166736104Y-40243760D01*
X166863867Y-40309166D01*
X166987961Y-40380483D01*
X167108199Y-40457525D01*
X167224396Y-40540109D01*
X167336362Y-40628047D01*
X167443913Y-40721154D01*
X167546860Y-40819245D01*
X167645016Y-40922134D01*
X167738196Y-41029636D01*
X167826211Y-41141565D01*
X167908874Y-41257735D01*
X167985999Y-41377961D01*
X168057398Y-41502058D01*
X168122885Y-41629839D01*
X168182273Y-41761120D01*
X168235374Y-41895715D01*
X168282002Y-42033437D01*
X168321970Y-42174103D01*
X168355089Y-42317525D01*
X168381175Y-42463519D01*
X168400039Y-42611899D01*
X168411494Y-42762480D01*
X168415354Y-42915075D01*
X168411502Y-43067438D01*
X168400068Y-43217815D01*
X168381238Y-43366020D01*
X168355198Y-43511866D01*
X168322133Y-43655165D01*
X168282229Y-43795731D01*
X168235671Y-43933376D01*
X168182645Y-44067914D01*
X168123337Y-44199158D01*
X168057931Y-44326920D01*
X167986615Y-44451014D01*
X167909572Y-44571253D01*
X167826988Y-44687449D01*
X167739050Y-44799416D01*
X167645943Y-44906966D01*
X167547852Y-45009914D01*
X167444963Y-45108070D01*
X167337461Y-45201249D01*
X167225533Y-45289264D01*
X167109362Y-45371928D01*
X166989136Y-45449053D01*
X166865039Y-45520452D01*
X166737258Y-45585939D01*
X166605977Y-45645327D01*
X166471382Y-45698428D01*
X166333660Y-45745056D01*
X166192994Y-45785023D01*
X166049572Y-45818143D01*
X165903578Y-45844229D01*
X165755197Y-45863093D01*
X165604617Y-45874548D01*
X165452021Y-45878408D01*
X165299659Y-45874556D01*
X165149282Y-45863122D01*
X165001077Y-45844292D01*
X164855231Y-45818252D01*
X164711932Y-45785187D01*
X164571366Y-45745283D01*
X164433721Y-45698725D01*
X164299183Y-45645699D01*
X164167939Y-45586390D01*
X164040176Y-45520985D01*
X163916082Y-45449668D01*
X163795844Y-45372625D01*
X163679648Y-45290042D01*
X163567681Y-45202104D01*
X163460130Y-45108997D01*
X163357183Y-45010906D01*
X163259027Y-44908016D01*
X163165847Y-44800515D01*
X163077833Y-44688586D01*
X162995169Y-44572416D01*
X162918044Y-44452189D01*
X162846645Y-44328093D01*
X162781157Y-44200311D01*
X162721770Y-44069030D01*
X162668668Y-43934436D01*
X162622041Y-43796713D01*
X162582073Y-43656048D01*
X162548953Y-43512625D01*
X162522868Y-43366631D01*
X162504004Y-43218251D01*
X162492548Y-43067670D01*
X162488688Y-42915075D01*
X163123688Y-42915075D01*
X163126726Y-43034655D01*
X163135739Y-43152693D01*
X163150580Y-43269040D01*
X163171102Y-43383548D01*
X163197156Y-43496069D01*
X163228595Y-43606457D01*
X163265271Y-43714563D01*
X163307036Y-43820239D01*
X163353743Y-43923338D01*
X163405244Y-44023712D01*
X163461391Y-44121213D01*
X163522036Y-44215693D01*
X163587032Y-44307005D01*
X163656230Y-44395001D01*
X163729483Y-44479532D01*
X163806644Y-44560452D01*
X163887564Y-44637613D01*
X163972095Y-44710866D01*
X164060091Y-44780065D01*
X164151403Y-44845060D01*
X164245883Y-44905705D01*
X164343384Y-44961852D01*
X164443758Y-45013353D01*
X164546857Y-45060060D01*
X164652533Y-45101825D01*
X164760639Y-45138502D01*
X164871027Y-45169941D01*
X164983548Y-45195995D01*
X165098057Y-45216516D01*
X165214403Y-45231358D01*
X165332441Y-45240371D01*
X165452021Y-45243408D01*
X165571602Y-45240371D01*
X165689640Y-45231358D01*
X165805986Y-45216516D01*
X165920495Y-45195995D01*
X166033016Y-45169941D01*
X166143404Y-45138502D01*
X166251510Y-45101825D01*
X166357186Y-45060060D01*
X166460285Y-45013353D01*
X166560659Y-44961852D01*
X166658160Y-44905705D01*
X166752640Y-44845060D01*
X166843952Y-44780065D01*
X166931948Y-44710866D01*
X167016479Y-44637613D01*
X167097399Y-44560452D01*
X167174560Y-44479532D01*
X167247813Y-44395001D01*
X167317011Y-44307005D01*
X167382007Y-44215693D01*
X167442652Y-44121213D01*
X167498799Y-44023712D01*
X167550300Y-43923338D01*
X167597007Y-43820239D01*
X167638772Y-43714563D01*
X167675448Y-43606457D01*
X167706887Y-43496069D01*
X167732941Y-43383548D01*
X167753463Y-43269040D01*
X167768304Y-43152693D01*
X167777317Y-43034655D01*
X167780354Y-42915075D01*
X167777317Y-42795495D01*
X167768304Y-42677457D01*
X167753463Y-42561111D01*
X167732941Y-42446602D01*
X167706887Y-42334081D01*
X167675448Y-42223693D01*
X167638772Y-42115587D01*
X167597006Y-42009911D01*
X167550299Y-41906812D01*
X167498798Y-41806438D01*
X167442652Y-41708937D01*
X167382007Y-41614457D01*
X167317011Y-41523145D01*
X167247813Y-41435150D01*
X167174559Y-41350618D01*
X167097399Y-41269698D01*
X167016479Y-41192537D01*
X166931947Y-41119284D01*
X166843951Y-41050085D01*
X166752639Y-40985090D01*
X166658159Y-40924445D01*
X166560658Y-40868298D01*
X166460284Y-40816797D01*
X166357186Y-40770090D01*
X166251509Y-40728325D01*
X166143403Y-40691648D01*
X166033016Y-40660209D01*
X165920494Y-40634155D01*
X165805986Y-40613634D01*
X165689639Y-40598792D01*
X165571602Y-40589779D01*
X165452021Y-40586742D01*
X165452021Y-39951742D01*
X165604384Y-39955595D01*
G37*
G36*
X165547271Y-47005534D02*
G01*
X162978165Y-47005534D01*
X162957000Y-46836200D01*
X165523457Y-46836200D01*
X165547271Y-47005534D01*
G37*
G36*
X179201754Y-48801729D02*
G01*
X179199792Y-48827520D01*
X179196560Y-48852936D01*
X179192091Y-48877947D01*
X179186416Y-48902519D01*
X179179568Y-48926622D01*
X179171579Y-48950223D01*
X179162480Y-48973290D01*
X179152304Y-48995791D01*
X179141082Y-49017694D01*
X179128847Y-49038967D01*
X179115630Y-49059579D01*
X179101464Y-49079497D01*
X179086380Y-49098689D01*
X179070410Y-49117123D01*
X179053587Y-49134768D01*
X179035943Y-49151591D01*
X179017508Y-49167560D01*
X178998316Y-49182644D01*
X178978398Y-49196811D01*
X178957787Y-49210027D01*
X178936513Y-49222262D01*
X178914610Y-49233484D01*
X178892109Y-49243660D01*
X178869042Y-49252759D01*
X178845441Y-49260748D01*
X178821338Y-49267596D01*
X178796766Y-49273271D01*
X178771755Y-49277740D01*
X178746339Y-49280972D01*
X178720548Y-49282934D01*
X178694416Y-49283596D01*
X173796978Y-49283596D01*
X173796978Y-48648596D01*
X174429332Y-48648596D01*
X178339874Y-48648596D01*
X178351700Y-48648297D01*
X178363358Y-48647407D01*
X178374834Y-48645943D01*
X178386114Y-48643920D01*
X178397184Y-48641352D01*
X178408032Y-48638254D01*
X178418644Y-48634642D01*
X178429005Y-48630530D01*
X178439103Y-48625934D01*
X178448924Y-48620869D01*
X178458454Y-48615349D01*
X178467680Y-48609390D01*
X178476588Y-48603006D01*
X178485164Y-48596213D01*
X178493396Y-48589025D01*
X178501269Y-48581458D01*
X178508771Y-48573527D01*
X178515886Y-48565247D01*
X178522603Y-48556632D01*
X178528906Y-48547698D01*
X178534783Y-48538460D01*
X178540221Y-48528932D01*
X178545205Y-48519131D01*
X178549721Y-48509070D01*
X178553758Y-48498765D01*
X178557300Y-48488231D01*
X178560334Y-48477482D01*
X178562847Y-48466535D01*
X178564826Y-48455404D01*
X178566255Y-48444103D01*
X178567123Y-48432648D01*
X178567415Y-48421055D01*
X178567415Y-44613701D01*
X174429332Y-44613701D01*
X174429332Y-48648596D01*
X173796978Y-48648596D01*
X173796978Y-45473596D01*
X169026541Y-45473596D01*
X169026541Y-44833304D01*
X169661541Y-44833304D01*
X173799624Y-44833304D01*
X173799624Y-40835450D01*
X169661541Y-40835450D01*
X169661541Y-44833304D01*
X169026541Y-44833304D01*
X169026541Y-40203097D01*
X174431978Y-40203097D01*
X174431978Y-43978700D01*
X179202415Y-43978700D01*
X179202415Y-48775596D01*
X179201754Y-48801729D01*
G37*
G36*
X165604382Y-39955594D02*
G01*
X165754759Y-39967028D01*
X165902964Y-39985858D01*
X166048810Y-40011898D01*
X166192109Y-40044963D01*
X166332675Y-40084867D01*
X166470321Y-40131425D01*
X166604859Y-40184451D01*
X166736102Y-40243760D01*
X166863865Y-40309165D01*
X166987959Y-40380482D01*
X167108197Y-40457525D01*
X167224394Y-40540108D01*
X167336360Y-40628046D01*
X167443911Y-40721153D01*
X167546858Y-40819244D01*
X167645015Y-40922134D01*
X167738194Y-41029635D01*
X167826209Y-41141564D01*
X167908872Y-41257734D01*
X167985997Y-41377961D01*
X168057396Y-41502057D01*
X168122884Y-41629839D01*
X168182271Y-41761120D01*
X168235372Y-41895714D01*
X168282000Y-42033437D01*
X168321968Y-42174102D01*
X168355088Y-42317525D01*
X168381173Y-42463519D01*
X168400037Y-42611899D01*
X168411493Y-42762480D01*
X168415353Y-42915075D01*
X167780352Y-42915075D01*
X167777315Y-42795495D01*
X167768302Y-42677457D01*
X167753461Y-42561110D01*
X167732939Y-42446602D01*
X167706885Y-42334080D01*
X167675446Y-42223693D01*
X167638770Y-42115587D01*
X167597004Y-42009911D01*
X167550297Y-41906812D01*
X167498797Y-41806438D01*
X167442650Y-41708937D01*
X167382005Y-41614457D01*
X167317009Y-41523145D01*
X167247811Y-41435149D01*
X167174557Y-41350618D01*
X167097397Y-41269698D01*
X167016477Y-41192537D01*
X166931945Y-41119284D01*
X166843949Y-41050085D01*
X166752637Y-40985090D01*
X166658157Y-40924445D01*
X166560656Y-40868298D01*
X166460283Y-40816797D01*
X166357184Y-40770090D01*
X166251507Y-40728325D01*
X166143402Y-40691648D01*
X166033014Y-40660209D01*
X165920492Y-40634155D01*
X165805984Y-40613634D01*
X165689637Y-40598792D01*
X165571600Y-40589779D01*
X165452019Y-40586742D01*
X165332439Y-40589779D01*
X165214402Y-40598792D01*
X165098055Y-40613634D01*
X164983547Y-40634155D01*
X164871025Y-40660209D01*
X164760638Y-40691648D01*
X164652532Y-40728325D01*
X164546855Y-40770090D01*
X164443756Y-40816797D01*
X164343383Y-40868298D01*
X164245882Y-40924445D01*
X164151401Y-40985090D01*
X164060089Y-41050085D01*
X163972094Y-41119284D01*
X163887562Y-41192537D01*
X163806642Y-41269698D01*
X163729481Y-41350618D01*
X163656227Y-41435150D01*
X163587029Y-41523145D01*
X163522033Y-41614457D01*
X163461388Y-41708937D01*
X163405241Y-41806438D01*
X163353740Y-41906812D01*
X163307033Y-42009911D01*
X163265267Y-42115587D01*
X163228591Y-42223693D01*
X163197152Y-42334081D01*
X163171098Y-42446602D01*
X163150576Y-42561111D01*
X163135735Y-42677457D01*
X163126722Y-42795495D01*
X163123685Y-42915075D01*
X163126722Y-43034655D01*
X163135735Y-43152693D01*
X163150576Y-43269040D01*
X163171098Y-43383548D01*
X163197152Y-43496069D01*
X163228591Y-43606457D01*
X163265267Y-43714563D01*
X163307033Y-43820239D01*
X163353740Y-43923338D01*
X163405241Y-44023712D01*
X163461388Y-44121213D01*
X163522033Y-44215693D01*
X163587028Y-44307005D01*
X163656227Y-44395001D01*
X163729480Y-44479532D01*
X163806641Y-44560452D01*
X163887561Y-44637613D01*
X163972093Y-44710866D01*
X164060088Y-44780065D01*
X164151400Y-44845060D01*
X164245881Y-44905705D01*
X164343382Y-44961852D01*
X164443756Y-45013353D01*
X164546855Y-45060060D01*
X164652531Y-45101825D01*
X164760637Y-45138502D01*
X164871025Y-45169941D01*
X164983547Y-45195995D01*
X165098055Y-45216516D01*
X165214401Y-45231358D01*
X165332439Y-45240371D01*
X165452019Y-45243408D01*
X165452019Y-45878408D01*
X165299657Y-45874556D01*
X165149280Y-45863122D01*
X165001075Y-45844292D01*
X164855229Y-45818252D01*
X164711930Y-45785187D01*
X164571364Y-45745283D01*
X164433719Y-45698725D01*
X164299181Y-45645699D01*
X164167937Y-45586390D01*
X164040175Y-45520985D01*
X163916081Y-45449668D01*
X163795842Y-45372625D01*
X163679646Y-45290042D01*
X163567679Y-45202104D01*
X163460128Y-45108997D01*
X163357181Y-45010906D01*
X163259025Y-44908016D01*
X163165845Y-44800515D01*
X163077831Y-44688586D01*
X162995167Y-44572416D01*
X162918042Y-44452189D01*
X162846643Y-44328093D01*
X162781155Y-44200311D01*
X162721768Y-44069030D01*
X162668667Y-43934436D01*
X162622039Y-43796713D01*
X162582071Y-43656048D01*
X162548951Y-43512625D01*
X162522866Y-43366631D01*
X162504002Y-43218251D01*
X162492546Y-43067670D01*
X162488686Y-42915075D01*
X162492539Y-42762712D01*
X162503973Y-42612335D01*
X162522803Y-42464130D01*
X162548843Y-42318285D01*
X162581908Y-42174985D01*
X162621812Y-42034419D01*
X162668370Y-41896774D01*
X162721396Y-41762236D01*
X162780704Y-41630992D01*
X162846110Y-41503230D01*
X162917427Y-41379136D01*
X162994470Y-41258897D01*
X163077053Y-41142701D01*
X163164991Y-41030734D01*
X163258098Y-40923184D01*
X163356189Y-40820237D01*
X163459078Y-40722080D01*
X163566580Y-40628901D01*
X163678509Y-40540886D01*
X163794679Y-40458222D01*
X163914906Y-40381098D01*
X164039002Y-40309698D01*
X164166784Y-40244211D01*
X164298065Y-40184823D01*
X164432659Y-40131722D01*
X164570382Y-40085094D01*
X164711047Y-40045127D01*
X164854470Y-40012007D01*
X165000464Y-39985921D01*
X165148844Y-39967057D01*
X165299424Y-39955602D01*
X165452019Y-39951742D01*
X165604382Y-39955594D01*
G37*
G36*
X167626896Y-46812388D02*
G01*
X167809458Y-46812388D01*
X167849146Y-47108721D01*
X167661292Y-47108721D01*
X167899418Y-48815283D01*
X167903355Y-48842661D01*
X167906239Y-48869229D01*
X167908068Y-48894982D01*
X167908843Y-48919918D01*
X167908564Y-48944032D01*
X167907231Y-48967321D01*
X167904843Y-48989780D01*
X167901401Y-49011406D01*
X167896905Y-49032195D01*
X167891355Y-49052142D01*
X167884751Y-49071245D01*
X167877093Y-49089499D01*
X167868380Y-49106901D01*
X167858613Y-49123446D01*
X167847792Y-49139130D01*
X167835917Y-49153950D01*
X167823111Y-49167902D01*
X167809495Y-49180982D01*
X167795065Y-49193186D01*
X167779817Y-49204510D01*
X167763748Y-49214950D01*
X167746853Y-49224503D01*
X167729128Y-49233165D01*
X167710571Y-49240931D01*
X167691176Y-49247799D01*
X167670940Y-49253763D01*
X167649859Y-49258820D01*
X167627929Y-49262966D01*
X167605147Y-49266198D01*
X167581508Y-49268511D01*
X167557009Y-49269902D01*
X167531646Y-49270366D01*
X167372896Y-49270366D01*
X167333208Y-48974033D01*
X167491957Y-48974033D01*
X167500717Y-48973878D01*
X167509135Y-48973413D01*
X167517214Y-48972638D01*
X167524953Y-48971553D01*
X167532353Y-48970157D01*
X167539414Y-48968452D01*
X167546137Y-48966437D01*
X167552522Y-48964111D01*
X167558570Y-48961476D01*
X167564282Y-48958530D01*
X167569657Y-48955275D01*
X167574697Y-48951709D01*
X167579401Y-48947833D01*
X167583770Y-48943648D01*
X167587806Y-48939152D01*
X167591507Y-48934346D01*
X167594875Y-48929230D01*
X167597910Y-48923804D01*
X167600613Y-48918068D01*
X167602984Y-48912022D01*
X167605024Y-48905666D01*
X167606733Y-48899000D01*
X167608111Y-48892023D01*
X167609160Y-48884737D01*
X167609879Y-48877140D01*
X167610269Y-48869234D01*
X167610331Y-48861017D01*
X167610064Y-48852491D01*
X167608550Y-48834507D01*
X167605729Y-48815283D01*
X167370250Y-47108721D01*
X167073916Y-47108721D01*
X167034229Y-46812388D01*
X167330562Y-46812388D01*
X167256480Y-46312326D01*
X167439042Y-46312326D01*
X167626896Y-46812388D01*
G37*
G36*
X165406132Y-47227297D02*
G01*
X165408360Y-47239731D01*
X165411076Y-47251854D01*
X165414277Y-47263667D01*
X165417958Y-47275171D01*
X165422116Y-47286364D01*
X165426747Y-47297247D01*
X165431847Y-47307820D01*
X165437412Y-47318083D01*
X165443438Y-47328036D01*
X165449921Y-47337679D01*
X165456858Y-47347011D01*
X165464245Y-47356034D01*
X165472077Y-47364747D01*
X165480352Y-47373149D01*
X165489064Y-47381242D01*
X165498025Y-47388931D01*
X165507052Y-47396124D01*
X165516149Y-47402822D01*
X165525320Y-47409023D01*
X165534568Y-47414728D01*
X165543897Y-47419937D01*
X165553312Y-47424650D01*
X165562816Y-47428867D01*
X165572413Y-47432588D01*
X165582107Y-47435812D01*
X165591901Y-47438541D01*
X165601800Y-47440773D01*
X165611808Y-47442509D01*
X165621928Y-47443750D01*
X165632165Y-47444494D01*
X165642522Y-47444742D01*
X165661042Y-47566450D01*
X165650377Y-47566326D01*
X165640207Y-47565954D01*
X165630533Y-47565334D01*
X165621356Y-47564466D01*
X165612674Y-47563350D01*
X165604489Y-47561986D01*
X165600582Y-47561211D01*
X165596799Y-47560374D01*
X165593141Y-47559475D01*
X165589606Y-47558513D01*
X165586164Y-47557957D01*
X165582780Y-47557288D01*
X165579450Y-47556519D01*
X165576170Y-47555660D01*
X165572937Y-47554724D01*
X165569747Y-47553723D01*
X165563478Y-47551568D01*
X165551282Y-47546979D01*
X165545292Y-47544731D01*
X165539334Y-47542638D01*
X165536359Y-47541614D01*
X165533391Y-47540529D01*
X165530439Y-47539382D01*
X165527510Y-47538173D01*
X165524612Y-47536901D01*
X165521753Y-47535568D01*
X165518941Y-47534173D01*
X165516182Y-47532716D01*
X165513486Y-47531197D01*
X165510860Y-47529615D01*
X165508311Y-47527972D01*
X165505847Y-47526267D01*
X165503477Y-47524499D01*
X165501207Y-47522670D01*
X165499046Y-47520779D01*
X165497000Y-47518825D01*
X165483771Y-47518825D01*
X165661040Y-48741200D01*
X165793332Y-48741200D01*
X165814500Y-48910533D01*
X165380585Y-48907886D01*
X165359418Y-48738554D01*
X165491709Y-48738554D01*
X165272105Y-47214554D01*
X165404397Y-47214554D01*
X165406132Y-47227297D01*
G37*
G36*
X164731237Y-47214833D02*
G01*
X164745743Y-47215675D01*
X164759993Y-47217083D01*
X164773983Y-47219060D01*
X164787710Y-47221611D01*
X164801170Y-47224739D01*
X164814358Y-47228449D01*
X164827271Y-47232744D01*
X164839906Y-47237628D01*
X164852257Y-47243105D01*
X164864322Y-47249179D01*
X164876095Y-47255854D01*
X164887575Y-47263133D01*
X164898756Y-47271021D01*
X164909634Y-47279521D01*
X164920207Y-47288637D01*
X164930376Y-47297784D01*
X164940050Y-47307365D01*
X164949228Y-47317380D01*
X164957909Y-47327829D01*
X164966094Y-47338712D01*
X164973784Y-47350029D01*
X164980977Y-47361780D01*
X164987674Y-47373965D01*
X164993875Y-47386585D01*
X164999581Y-47399638D01*
X165004790Y-47413126D01*
X165009503Y-47427047D01*
X165013720Y-47441403D01*
X165017441Y-47456193D01*
X165020665Y-47471417D01*
X165023394Y-47487075D01*
X165065728Y-47772825D01*
X164896395Y-47772825D01*
X164854060Y-47489721D01*
X164851766Y-47476760D01*
X164850386Y-47470604D01*
X164848851Y-47464663D01*
X164847162Y-47458937D01*
X164845317Y-47453427D01*
X164843317Y-47448130D01*
X164841162Y-47443047D01*
X164838852Y-47438177D01*
X164836387Y-47433519D01*
X164833767Y-47429074D01*
X164830992Y-47424841D01*
X164828062Y-47420819D01*
X164824977Y-47417007D01*
X164821737Y-47413406D01*
X164818342Y-47410015D01*
X164814792Y-47406833D01*
X164811087Y-47403859D01*
X164807226Y-47401095D01*
X164803211Y-47398537D01*
X164799041Y-47396188D01*
X164794715Y-47394045D01*
X164790235Y-47392108D01*
X164785600Y-47390378D01*
X164780809Y-47388852D01*
X164775864Y-47387532D01*
X164770763Y-47386416D01*
X164765508Y-47385504D01*
X164760098Y-47384796D01*
X164754532Y-47384291D01*
X164748811Y-47383988D01*
X164742936Y-47383887D01*
X164731434Y-47384291D01*
X164725988Y-47384796D01*
X164720746Y-47385504D01*
X164715710Y-47386416D01*
X164710880Y-47387532D01*
X164706257Y-47388852D01*
X164701843Y-47390378D01*
X164697638Y-47392108D01*
X164693643Y-47394045D01*
X164689860Y-47396188D01*
X164686289Y-47398537D01*
X164682930Y-47401095D01*
X164679786Y-47403859D01*
X164676858Y-47406833D01*
X164674145Y-47410015D01*
X164671649Y-47413406D01*
X164669371Y-47417007D01*
X164667312Y-47420819D01*
X164665474Y-47424841D01*
X164663856Y-47429074D01*
X164662460Y-47433519D01*
X164661286Y-47438177D01*
X164660337Y-47443047D01*
X164659612Y-47448130D01*
X164659114Y-47453427D01*
X164658842Y-47458937D01*
X164658797Y-47464663D01*
X164658981Y-47470604D01*
X164659395Y-47476760D01*
X164660916Y-47489721D01*
X164666249Y-47523073D01*
X164672325Y-47555619D01*
X164679147Y-47587297D01*
X164686712Y-47618044D01*
X164695022Y-47647799D01*
X164704076Y-47676500D01*
X164713873Y-47704085D01*
X164724416Y-47730491D01*
X164734694Y-47756045D01*
X164745623Y-47781134D01*
X164757110Y-47805789D01*
X164769063Y-47830041D01*
X164781388Y-47853920D01*
X164793992Y-47877459D01*
X164819665Y-47923637D01*
X164847488Y-47968782D01*
X164875558Y-48012934D01*
X164889764Y-48034639D01*
X164904125Y-48056095D01*
X164918672Y-48077303D01*
X164933436Y-48098263D01*
X164948200Y-48119227D01*
X164962747Y-48140471D01*
X164977108Y-48162025D01*
X164991314Y-48183921D01*
X165005396Y-48206188D01*
X165019385Y-48228858D01*
X165033312Y-48251963D01*
X165047208Y-48275532D01*
X165060855Y-48299593D01*
X165074038Y-48324149D01*
X165086786Y-48349202D01*
X165099132Y-48374751D01*
X165111106Y-48400796D01*
X165122738Y-48427337D01*
X165134061Y-48454374D01*
X165145104Y-48481908D01*
X165155651Y-48510309D01*
X165165486Y-48539951D01*
X165174638Y-48570832D01*
X165183138Y-48602955D01*
X165191019Y-48636317D01*
X165198310Y-48670920D01*
X165205043Y-48706763D01*
X165211249Y-48743846D01*
X165232417Y-48910533D01*
X164700604Y-48913178D01*
X164679436Y-48743846D01*
X165041917Y-48743846D01*
X165036584Y-48710602D01*
X165030507Y-48678320D01*
X165023686Y-48646967D01*
X165016121Y-48616515D01*
X165007811Y-48586930D01*
X164998757Y-48558182D01*
X164988959Y-48530241D01*
X164978417Y-48503074D01*
X164968247Y-48476647D01*
X164957581Y-48450902D01*
X164946419Y-48425776D01*
X164934761Y-48401209D01*
X164922606Y-48377138D01*
X164909956Y-48353502D01*
X164896809Y-48330237D01*
X164883166Y-48307282D01*
X164855344Y-48262138D01*
X164827274Y-48217985D01*
X164813068Y-48196281D01*
X164798708Y-48174825D01*
X164784161Y-48153618D01*
X164769397Y-48132658D01*
X164754632Y-48111692D01*
X164740085Y-48090448D01*
X164725724Y-48068894D01*
X164711518Y-48046999D01*
X164697436Y-48024732D01*
X164683447Y-48002061D01*
X164669521Y-47978957D01*
X164655625Y-47955387D01*
X164641978Y-47932195D01*
X164628795Y-47908258D01*
X164616046Y-47883578D01*
X164603701Y-47858153D01*
X164591727Y-47831984D01*
X164580094Y-47805071D01*
X164568772Y-47777414D01*
X164557729Y-47749013D01*
X164547181Y-47720616D01*
X164537347Y-47691011D01*
X164528195Y-47660227D01*
X164519694Y-47628296D01*
X164511814Y-47595249D01*
X164504522Y-47561117D01*
X164497789Y-47525931D01*
X164491584Y-47489721D01*
X164489413Y-47474062D01*
X164487867Y-47458834D01*
X164486949Y-47444032D01*
X164486663Y-47429653D01*
X164487012Y-47415692D01*
X164488001Y-47402145D01*
X164489634Y-47389010D01*
X164491913Y-47376281D01*
X164494844Y-47363956D01*
X164498430Y-47352029D01*
X164502674Y-47340498D01*
X164507582Y-47329359D01*
X164513156Y-47318607D01*
X164519400Y-47308238D01*
X164526318Y-47298250D01*
X164533915Y-47288637D01*
X164542070Y-47279521D01*
X164550659Y-47271021D01*
X164559681Y-47263133D01*
X164569138Y-47255854D01*
X164579029Y-47249179D01*
X164589354Y-47243105D01*
X164600113Y-47237628D01*
X164611306Y-47232744D01*
X164622933Y-47228449D01*
X164634995Y-47224739D01*
X164647490Y-47221611D01*
X164660420Y-47219060D01*
X164673783Y-47217083D01*
X164687581Y-47215675D01*
X164701813Y-47214833D01*
X164716479Y-47214554D01*
X164731237Y-47214833D01*
G37*
G36*
X171183340Y-46804853D02*
G01*
X171204522Y-46806062D01*
X171225277Y-46808077D01*
X171245610Y-46810899D01*
X171265524Y-46814527D01*
X171285024Y-46818961D01*
X171304112Y-46824201D01*
X171322794Y-46830247D01*
X171341073Y-46837099D01*
X171358952Y-46844758D01*
X171376436Y-46853222D01*
X171393529Y-46862493D01*
X171410234Y-46872570D01*
X171426555Y-46883453D01*
X171442497Y-46895142D01*
X171458062Y-46907637D01*
X171473100Y-46920908D01*
X171487456Y-46934928D01*
X171501129Y-46949699D01*
X171514121Y-46965225D01*
X171526430Y-46981512D01*
X171538057Y-46998562D01*
X171549002Y-47016379D01*
X171559265Y-47034968D01*
X171568846Y-47054332D01*
X171577745Y-47074475D01*
X171585961Y-47095401D01*
X171593495Y-47117113D01*
X171600348Y-47139617D01*
X171606518Y-47162914D01*
X171612006Y-47187011D01*
X171616812Y-47211909D01*
X171667083Y-47537346D01*
X171370749Y-47537346D01*
X171320478Y-47233075D01*
X171318898Y-47224300D01*
X171317135Y-47215835D01*
X171315194Y-47207681D01*
X171313079Y-47199836D01*
X171310793Y-47192302D01*
X171308340Y-47185077D01*
X171305725Y-47178163D01*
X171302950Y-47171559D01*
X171300021Y-47165264D01*
X171296940Y-47159280D01*
X171293712Y-47153606D01*
X171290341Y-47148242D01*
X171286830Y-47143188D01*
X171283184Y-47138445D01*
X171279406Y-47134011D01*
X171275500Y-47129887D01*
X171271501Y-47126043D01*
X171267444Y-47122446D01*
X171263332Y-47119097D01*
X171259170Y-47115997D01*
X171254962Y-47113144D01*
X171250711Y-47110540D01*
X171246421Y-47108183D01*
X171242096Y-47106075D01*
X171237741Y-47104215D01*
X171233358Y-47102602D01*
X171228952Y-47101238D01*
X171224527Y-47100122D01*
X171220086Y-47099254D01*
X171215633Y-47098634D01*
X171211173Y-47098262D01*
X171206709Y-47098138D01*
X171200382Y-47098262D01*
X171194296Y-47098634D01*
X171188442Y-47099254D01*
X171182813Y-47100122D01*
X171177401Y-47101238D01*
X171172199Y-47102603D01*
X171167198Y-47104215D01*
X171162391Y-47106075D01*
X171157770Y-47108184D01*
X171153327Y-47110540D01*
X171149054Y-47113145D01*
X171144945Y-47115997D01*
X171140990Y-47119098D01*
X171137183Y-47122446D01*
X171133515Y-47126043D01*
X171129979Y-47129887D01*
X171126662Y-47134011D01*
X171123659Y-47138445D01*
X171120974Y-47143189D01*
X171118610Y-47148243D01*
X171116572Y-47153607D01*
X171114864Y-47159281D01*
X171113489Y-47165265D01*
X171112451Y-47171559D01*
X171111754Y-47178163D01*
X171111402Y-47185078D01*
X171111398Y-47192302D01*
X171111748Y-47199836D01*
X171112454Y-47207681D01*
X171113521Y-47215835D01*
X171114951Y-47224300D01*
X171116750Y-47233075D01*
X171204063Y-47746366D01*
X171320478Y-47746366D01*
X171344042Y-47746831D01*
X171367106Y-47748221D01*
X171389666Y-47750535D01*
X171411718Y-47753766D01*
X171433259Y-47757913D01*
X171454284Y-47762970D01*
X171474790Y-47768934D01*
X171494773Y-47775801D01*
X171514228Y-47783568D01*
X171533153Y-47792229D01*
X171551543Y-47801782D01*
X171569394Y-47812223D01*
X171586702Y-47823547D01*
X171603464Y-47835751D01*
X171619676Y-47848830D01*
X171635333Y-47862782D01*
X171650371Y-47877602D01*
X171664726Y-47893287D01*
X171678400Y-47909832D01*
X171691391Y-47927233D01*
X171703700Y-47945487D01*
X171715328Y-47964590D01*
X171726273Y-47984538D01*
X171736535Y-48005327D01*
X171746116Y-48026953D01*
X171755015Y-48049412D01*
X171763231Y-48072701D01*
X171770766Y-48096815D01*
X171777618Y-48121751D01*
X171783788Y-48147504D01*
X171789276Y-48174072D01*
X171794082Y-48201449D01*
X171881395Y-48815282D01*
X171884899Y-48842659D01*
X171887477Y-48869227D01*
X171889133Y-48894981D01*
X171889870Y-48919917D01*
X171889692Y-48944031D01*
X171888604Y-48967319D01*
X171886609Y-48989779D01*
X171883710Y-49011405D01*
X171879913Y-49032193D01*
X171875220Y-49052141D01*
X171869635Y-49071244D01*
X171863164Y-49089498D01*
X171855808Y-49106899D01*
X171847573Y-49123444D01*
X171838462Y-49139128D01*
X171828479Y-49153949D01*
X171817906Y-49167900D01*
X171807028Y-49180980D01*
X171795847Y-49193184D01*
X171784367Y-49204508D01*
X171772593Y-49214949D01*
X171760529Y-49224502D01*
X171748177Y-49233164D01*
X171735543Y-49240930D01*
X171722630Y-49247797D01*
X171709441Y-49253761D01*
X171695981Y-49258818D01*
X171682254Y-49262964D01*
X171668263Y-49266196D01*
X171654013Y-49268509D01*
X171639507Y-49269900D01*
X171624749Y-49270364D01*
X171612093Y-49270122D01*
X171599903Y-49269414D01*
X171588146Y-49268272D01*
X171576793Y-49266726D01*
X171565812Y-49264809D01*
X171555172Y-49262551D01*
X171544842Y-49259982D01*
X171534791Y-49257135D01*
X171524988Y-49253156D01*
X171515402Y-49249115D01*
X171506002Y-49244950D01*
X171496757Y-49240599D01*
X171487636Y-49236000D01*
X171478608Y-49231091D01*
X171469642Y-49225809D01*
X171460707Y-49220094D01*
X171451902Y-49215009D01*
X171443344Y-49209676D01*
X171435035Y-49204095D01*
X171426973Y-49198266D01*
X171419160Y-49192189D01*
X171411594Y-49185864D01*
X171404277Y-49179290D01*
X171397207Y-49172469D01*
X171373395Y-49172469D01*
X171381331Y-49267719D01*
X171108811Y-49267719D01*
X170984275Y-48391595D01*
X170979166Y-48391950D01*
X170929851Y-48042700D01*
X171241104Y-48042700D01*
X171262270Y-48206741D01*
X171267562Y-48206741D01*
X171354874Y-48886720D01*
X171359835Y-48896518D01*
X171364796Y-48906068D01*
X171369757Y-48915370D01*
X171374718Y-48924423D01*
X171379679Y-48933229D01*
X171384640Y-48941787D01*
X171389601Y-48950097D01*
X171394562Y-48958158D01*
X171406510Y-48971966D01*
X171412562Y-48978715D01*
X171418706Y-48985278D01*
X171424974Y-48991593D01*
X171428165Y-48994638D01*
X171431398Y-48997597D01*
X171434677Y-49000464D01*
X171438007Y-49003230D01*
X171441391Y-49005887D01*
X171444834Y-49008428D01*
X171448337Y-49010846D01*
X171451903Y-49013136D01*
X171455530Y-49015294D01*
X171459220Y-49017317D01*
X171462972Y-49019200D01*
X171466785Y-49020940D01*
X171470661Y-49022532D01*
X171474599Y-49023973D01*
X171478599Y-49025259D01*
X171482660Y-49026387D01*
X171486784Y-49027351D01*
X171490970Y-49028149D01*
X171495218Y-49028776D01*
X171499528Y-49029229D01*
X171503900Y-49029504D01*
X171508334Y-49029596D01*
X171512766Y-49029441D01*
X171517129Y-49028976D01*
X171521414Y-49028201D01*
X171525614Y-49027116D01*
X171529721Y-49025720D01*
X171533727Y-49024015D01*
X171537625Y-49021999D01*
X171541406Y-49019674D01*
X171545064Y-49017038D01*
X171548589Y-49014093D01*
X171551976Y-49010837D01*
X171555214Y-49007271D01*
X171558298Y-49003396D01*
X171561219Y-48999210D01*
X171563970Y-48994714D01*
X171566542Y-48989908D01*
X171569365Y-48984760D01*
X171571886Y-48979237D01*
X171574112Y-48973334D01*
X171576051Y-48967047D01*
X171577711Y-48960372D01*
X171579100Y-48953306D01*
X171580225Y-48945844D01*
X171581094Y-48937984D01*
X171581716Y-48929720D01*
X171582097Y-48921049D01*
X171582245Y-48911968D01*
X171582169Y-48902471D01*
X171581875Y-48892557D01*
X171581373Y-48882219D01*
X171580669Y-48871456D01*
X171579771Y-48860262D01*
X171492458Y-48212032D01*
X171488675Y-48191818D01*
X171484268Y-48172851D01*
X171479232Y-48155141D01*
X171473565Y-48138693D01*
X171467263Y-48123517D01*
X171460321Y-48109620D01*
X171452735Y-48097010D01*
X171444502Y-48085694D01*
X171440142Y-48080524D01*
X171435618Y-48075681D01*
X171430931Y-48071165D01*
X171426080Y-48066977D01*
X171421063Y-48063119D01*
X171415882Y-48059591D01*
X171410535Y-48056395D01*
X171405021Y-48053531D01*
X171399341Y-48051000D01*
X171393494Y-48048804D01*
X171387479Y-48046943D01*
X171381297Y-48045418D01*
X171374945Y-48044230D01*
X171368425Y-48043380D01*
X171361735Y-48042870D01*
X171354874Y-48042700D01*
X171241104Y-48042700D01*
X170929851Y-48042700D01*
X170817770Y-47248950D01*
X170813802Y-47222097D01*
X170810830Y-47196106D01*
X170808858Y-47170966D01*
X170807889Y-47146672D01*
X170807929Y-47123215D01*
X170808980Y-47100587D01*
X170811046Y-47078781D01*
X170814132Y-47057789D01*
X170818241Y-47037603D01*
X170823377Y-47018215D01*
X170829544Y-46999618D01*
X170836745Y-46981804D01*
X170844986Y-46964765D01*
X170854269Y-46948493D01*
X170864598Y-46932981D01*
X170875978Y-46918221D01*
X170888228Y-46904299D01*
X170901171Y-46891303D01*
X170914819Y-46879229D01*
X170929184Y-46868074D01*
X170944279Y-46857834D01*
X170960113Y-46848504D01*
X170976699Y-46840081D01*
X170994049Y-46832562D01*
X171012174Y-46825941D01*
X171031085Y-46820216D01*
X171050795Y-46815383D01*
X171071315Y-46811436D01*
X171092657Y-46808374D01*
X171114832Y-46806191D01*
X171137852Y-46804884D01*
X171161729Y-46804450D01*
X171183340Y-46804853D01*
G37*
D12*
X160451800Y-37236400D02*
X160451800Y-39039800D01*
D13*
X122986800Y-36398200D02*
X128981200Y-36398200D01*
X128981200Y-36398200D02*
X128981200Y-36652200D01*
X122986800Y-36626800D02*
X122986800Y-36398200D01*
X181203600Y-45008800D02*
X181203600Y-46482000D01*
X122986800Y-39878000D02*
X122986800Y-39624000D01*
X128981200Y-39598600D02*
X128981200Y-39878000D01*
X128981200Y-39878000D02*
X122986800Y-39878000D01*
X152577800Y-45008800D02*
X152577800Y-46583600D01*
X180441600Y-45770800D02*
X181965600Y-45770800D01*
X151815800Y-45720000D02*
X153339800Y-45720000D01*
D14*
X129452619Y-50632785D02*
X129452619Y-50442309D01*
X129405000Y-50347071D01*
X129309761Y-50251833D01*
X129119285Y-50204214D01*
X128785952Y-50204214D01*
X128595476Y-50251833D01*
X128500238Y-50347071D01*
X128452619Y-50442309D01*
X128452619Y-50632785D01*
X128500238Y-50728023D01*
X128595476Y-50823261D01*
X128785952Y-50870880D01*
X129119285Y-50870880D01*
X129309761Y-50823261D01*
X129405000Y-50728023D01*
X129452619Y-50632785D01*
X128452619Y-49299452D02*
X128452619Y-49775642D01*
X129452619Y-49775642D01*
X128976428Y-48966119D02*
X128976428Y-48632785D01*
X128452619Y-48489928D02*
X128452619Y-48966119D01*
X129452619Y-48966119D01*
X129452619Y-48489928D01*
X128452619Y-48061357D02*
X129452619Y-48061357D01*
X129452619Y-47823261D01*
X129405000Y-47680404D01*
X129309761Y-47585166D01*
X129214523Y-47537547D01*
X129024047Y-47489928D01*
X128881190Y-47489928D01*
X128690714Y-47537547D01*
X128595476Y-47585166D01*
X128500238Y-47680404D01*
X128452619Y-47823261D01*
X128452619Y-48061357D01*
X128833571Y-47061357D02*
X128833571Y-46299452D01*
X128452619Y-45251833D02*
X128928809Y-45585166D01*
X128452619Y-45823261D02*
X129452619Y-45823261D01*
X129452619Y-45442309D01*
X129405000Y-45347071D01*
X129357380Y-45299452D01*
X129262142Y-45251833D01*
X129119285Y-45251833D01*
X129024047Y-45299452D01*
X128976428Y-45347071D01*
X128928809Y-45442309D01*
X128928809Y-45823261D01*
X128452619Y-44823261D02*
X129452619Y-44823261D01*
X129405000Y-43823261D02*
X129452619Y-43918500D01*
X129452619Y-44061357D01*
X129405000Y-44204214D01*
X129309761Y-44299452D01*
X129214523Y-44347071D01*
X129024047Y-44394690D01*
X128881190Y-44394690D01*
X128690714Y-44347071D01*
X128595476Y-44299452D01*
X128500238Y-44204214D01*
X128452619Y-44061357D01*
X128452619Y-43966119D01*
X128500238Y-43823261D01*
X128547857Y-43775642D01*
X128881190Y-43775642D01*
X128881190Y-43966119D01*
X128452619Y-43347071D02*
X129452619Y-43347071D01*
X128976428Y-43347071D02*
X128976428Y-42775642D01*
X128452619Y-42775642D02*
X129452619Y-42775642D01*
X129452619Y-42442309D02*
X129452619Y-41870880D01*
X128452619Y-42156595D02*
X129452619Y-42156595D01*
X89659666Y-41229866D02*
X89826333Y-41229866D01*
X89759666Y-41063200D02*
X89826333Y-41229866D01*
X89759666Y-41396533D01*
X89959666Y-41129866D02*
X89826333Y-41229866D01*
X89959666Y-41329866D01*
X89993000Y-41896533D02*
X89993000Y-41663200D01*
X90359666Y-41663200D02*
X89659666Y-41663200D01*
X89659666Y-41996533D01*
X89659666Y-42396533D02*
X89659666Y-42529866D01*
X89693000Y-42596533D01*
X89759666Y-42663200D01*
X89893000Y-42696533D01*
X90126333Y-42696533D01*
X90259666Y-42663200D01*
X90326333Y-42596533D01*
X90359666Y-42529866D01*
X90359666Y-42396533D01*
X90326333Y-42329866D01*
X90259666Y-42263200D01*
X90126333Y-42229866D01*
X89893000Y-42229866D01*
X89759666Y-42263200D01*
X89693000Y-42329866D01*
X89659666Y-42396533D01*
X90359666Y-43396533D02*
X90026333Y-43163200D01*
X90359666Y-42996533D02*
X89659666Y-42996533D01*
X89659666Y-43263200D01*
X89693000Y-43329866D01*
X89726333Y-43363200D01*
X89793000Y-43396533D01*
X89893000Y-43396533D01*
X89959666Y-43363200D01*
X89993000Y-43329866D01*
X90026333Y-43263200D01*
X90026333Y-42996533D01*
X89993000Y-44463200D02*
X90026333Y-44563200D01*
X90059666Y-44596533D01*
X90126333Y-44629866D01*
X90226333Y-44629866D01*
X90293000Y-44596533D01*
X90326333Y-44563200D01*
X90359666Y-44496533D01*
X90359666Y-44229866D01*
X89659666Y-44229866D01*
X89659666Y-44463200D01*
X89693000Y-44529866D01*
X89726333Y-44563200D01*
X89793000Y-44596533D01*
X89859666Y-44596533D01*
X89926333Y-44563200D01*
X89959666Y-44529866D01*
X89993000Y-44463200D01*
X89993000Y-44229866D01*
X90359666Y-45263200D02*
X90359666Y-44929866D01*
X89659666Y-44929866D01*
X89993000Y-45496533D02*
X89993000Y-45729866D01*
X90359666Y-45829866D02*
X90359666Y-45496533D01*
X89659666Y-45496533D01*
X89659666Y-45829866D01*
X90359666Y-46663200D02*
X89659666Y-46663200D01*
X90159666Y-46896533D01*
X89659666Y-47129866D01*
X90359666Y-47129866D01*
X90359666Y-47463200D02*
X89659666Y-47463200D01*
X90293000Y-48196533D02*
X90326333Y-48163200D01*
X90359666Y-48063200D01*
X90359666Y-47996533D01*
X90326333Y-47896533D01*
X90259666Y-47829866D01*
X90193000Y-47796533D01*
X90059666Y-47763200D01*
X89959666Y-47763200D01*
X89826333Y-47796533D01*
X89759666Y-47829866D01*
X89693000Y-47896533D01*
X89659666Y-47996533D01*
X89659666Y-48063200D01*
X89693000Y-48163200D01*
X89726333Y-48196533D01*
X90359666Y-48896533D02*
X90026333Y-48663200D01*
X90359666Y-48496533D02*
X89659666Y-48496533D01*
X89659666Y-48763200D01*
X89693000Y-48829866D01*
X89726333Y-48863200D01*
X89793000Y-48896533D01*
X89893000Y-48896533D01*
X89959666Y-48863200D01*
X89993000Y-48829866D01*
X90026333Y-48763200D01*
X90026333Y-48496533D01*
X89659666Y-49329866D02*
X89659666Y-49463200D01*
X89693000Y-49529866D01*
X89759666Y-49596533D01*
X89893000Y-49629866D01*
X90126333Y-49629866D01*
X90259666Y-49596533D01*
X90326333Y-49529866D01*
X90359666Y-49463200D01*
X90359666Y-49329866D01*
X90326333Y-49263200D01*
X90259666Y-49196533D01*
X90126333Y-49163200D01*
X89893000Y-49163200D01*
X89759666Y-49196533D01*
X89693000Y-49263200D01*
X89659666Y-49329866D01*
X90359666Y-50463200D02*
X89659666Y-50463200D01*
X89659666Y-50729866D01*
X89693000Y-50796533D01*
X89726333Y-50829866D01*
X89793000Y-50863200D01*
X89893000Y-50863200D01*
X89959666Y-50829866D01*
X89993000Y-50796533D01*
X90026333Y-50729866D01*
X90026333Y-50463200D01*
X90359666Y-51563200D02*
X90026333Y-51329866D01*
X90359666Y-51163200D02*
X89659666Y-51163200D01*
X89659666Y-51429866D01*
X89693000Y-51496533D01*
X89726333Y-51529866D01*
X89793000Y-51563200D01*
X89893000Y-51563200D01*
X89959666Y-51529866D01*
X89993000Y-51496533D01*
X90026333Y-51429866D01*
X90026333Y-51163200D01*
X89659666Y-51996533D02*
X89659666Y-52129866D01*
X89693000Y-52196533D01*
X89759666Y-52263200D01*
X89893000Y-52296533D01*
X90126333Y-52296533D01*
X90259666Y-52263200D01*
X90326333Y-52196533D01*
X90359666Y-52129866D01*
X90359666Y-51996533D01*
X90326333Y-51929866D01*
X90259666Y-51863200D01*
X90126333Y-51829866D01*
X89893000Y-51829866D01*
X89759666Y-51863200D01*
X89693000Y-51929866D01*
X89659666Y-51996533D01*
X89659666Y-52696533D02*
X89826333Y-52696533D01*
X89759666Y-52529866D02*
X89826333Y-52696533D01*
X89759666Y-52863200D01*
X89959666Y-52596533D02*
X89826333Y-52696533D01*
X89959666Y-52796533D01*
X134700780Y-37815780D02*
X135034114Y-37339590D01*
X135272209Y-37815780D02*
X135272209Y-36815780D01*
X134891257Y-36815780D01*
X134796019Y-36863400D01*
X134748400Y-36911019D01*
X134700780Y-37006257D01*
X134700780Y-37149114D01*
X134748400Y-37244352D01*
X134796019Y-37291971D01*
X134891257Y-37339590D01*
X135272209Y-37339590D01*
X134272209Y-37291971D02*
X133938876Y-37291971D01*
X133796019Y-37815780D02*
X134272209Y-37815780D01*
X134272209Y-36815780D01*
X133796019Y-36815780D01*
X133415066Y-37768161D02*
X133272209Y-37815780D01*
X133034114Y-37815780D01*
X132938876Y-37768161D01*
X132891257Y-37720542D01*
X132843638Y-37625304D01*
X132843638Y-37530066D01*
X132891257Y-37434828D01*
X132938876Y-37387209D01*
X133034114Y-37339590D01*
X133224590Y-37291971D01*
X133319828Y-37244352D01*
X133367447Y-37196733D01*
X133415066Y-37101495D01*
X133415066Y-37006257D01*
X133367447Y-36911019D01*
X133319828Y-36863400D01*
X133224590Y-36815780D01*
X132986495Y-36815780D01*
X132843638Y-36863400D01*
X132415066Y-37291971D02*
X132081733Y-37291971D01*
X131938876Y-37815780D02*
X132415066Y-37815780D01*
X132415066Y-36815780D01*
X131938876Y-36815780D01*
X131653161Y-36815780D02*
X131081733Y-36815780D01*
X131367447Y-37815780D02*
X131367447Y-36815780D01*
D15*
X115567857Y-56558666D02*
X115603571Y-56534857D01*
X115639285Y-56463428D01*
X115639285Y-56415809D01*
X115603571Y-56344380D01*
X115532142Y-56296761D01*
X115460714Y-56272952D01*
X115317857Y-56249142D01*
X115210714Y-56249142D01*
X115067857Y-56272952D01*
X114996428Y-56296761D01*
X114925000Y-56344380D01*
X114889285Y-56415809D01*
X114889285Y-56463428D01*
X114925000Y-56534857D01*
X114960714Y-56558666D01*
X114960714Y-56749142D02*
X114925000Y-56772952D01*
X114889285Y-56820571D01*
X114889285Y-56939619D01*
X114925000Y-56987238D01*
X114960714Y-57011047D01*
X115032142Y-57034857D01*
X115103571Y-57034857D01*
X115210714Y-57011047D01*
X115639285Y-56725333D01*
X115639285Y-57034857D01*
X94507000Y-41341547D02*
X94471285Y-41293928D01*
X94471285Y-41222500D01*
X94507000Y-41151071D01*
X94578428Y-41103452D01*
X94649857Y-41079642D01*
X94792714Y-41055833D01*
X94899857Y-41055833D01*
X95042714Y-41079642D01*
X95114142Y-41103452D01*
X95185571Y-41151071D01*
X95221285Y-41222500D01*
X95221285Y-41270119D01*
X95185571Y-41341547D01*
X95149857Y-41365357D01*
X94899857Y-41365357D01*
X94899857Y-41270119D01*
X95221285Y-41579642D02*
X94471285Y-41579642D01*
X95221285Y-41865357D01*
X94471285Y-41865357D01*
X95221285Y-42103452D02*
X94471285Y-42103452D01*
X94471285Y-42222500D01*
X94507000Y-42293928D01*
X94578428Y-42341547D01*
X94649857Y-42365357D01*
X94792714Y-42389166D01*
X94899857Y-42389166D01*
X95042714Y-42365357D01*
X95114142Y-42341547D01*
X95185571Y-42293928D01*
X95221285Y-42222500D01*
X95221285Y-42103452D01*
X118073357Y-56561666D02*
X118109071Y-56537857D01*
X118144785Y-56466428D01*
X118144785Y-56418809D01*
X118109071Y-56347380D01*
X118037642Y-56299761D01*
X117966214Y-56275952D01*
X117823357Y-56252142D01*
X117716214Y-56252142D01*
X117573357Y-56275952D01*
X117501928Y-56299761D01*
X117430500Y-56347380D01*
X117394785Y-56418809D01*
X117394785Y-56466428D01*
X117430500Y-56537857D01*
X117466214Y-56561666D01*
X117394785Y-56728333D02*
X117394785Y-57037857D01*
X117680500Y-56871190D01*
X117680500Y-56942619D01*
X117716214Y-56990238D01*
X117751928Y-57014047D01*
X117823357Y-57037857D01*
X118001928Y-57037857D01*
X118073357Y-57014047D01*
X118109071Y-56990238D01*
X118144785Y-56942619D01*
X118144785Y-56799761D01*
X118109071Y-56752142D01*
X118073357Y-56728333D01*
X105051928Y-41127761D02*
X105051928Y-41294428D01*
X105444785Y-41365857D02*
X105444785Y-41127761D01*
X104694785Y-41127761D01*
X104694785Y-41365857D01*
X105051928Y-41746809D02*
X105087642Y-41818238D01*
X105123357Y-41842047D01*
X105194785Y-41865857D01*
X105301928Y-41865857D01*
X105373357Y-41842047D01*
X105409071Y-41818238D01*
X105444785Y-41770619D01*
X105444785Y-41580142D01*
X104694785Y-41580142D01*
X104694785Y-41746809D01*
X104730500Y-41794428D01*
X104766214Y-41818238D01*
X104837642Y-41842047D01*
X104909071Y-41842047D01*
X104980500Y-41818238D01*
X105016214Y-41794428D01*
X105051928Y-41746809D01*
X105051928Y-41580142D01*
X105444785Y-42342047D02*
X105444785Y-42056333D01*
X105444785Y-42199190D02*
X104694785Y-42199190D01*
X104801928Y-42151571D01*
X104873357Y-42103952D01*
X104909071Y-42056333D01*
X110453357Y-56558666D02*
X110489071Y-56534857D01*
X110524785Y-56463428D01*
X110524785Y-56415809D01*
X110489071Y-56344380D01*
X110417642Y-56296761D01*
X110346214Y-56272952D01*
X110203357Y-56249142D01*
X110096214Y-56249142D01*
X109953357Y-56272952D01*
X109881928Y-56296761D01*
X109810500Y-56344380D01*
X109774785Y-56415809D01*
X109774785Y-56463428D01*
X109810500Y-56534857D01*
X109846214Y-56558666D01*
X109774785Y-56868190D02*
X109774785Y-56915809D01*
X109810500Y-56963428D01*
X109846214Y-56987238D01*
X109917642Y-57011047D01*
X110060500Y-57034857D01*
X110239071Y-57034857D01*
X110381928Y-57011047D01*
X110453357Y-56987238D01*
X110489071Y-56963428D01*
X110524785Y-56915809D01*
X110524785Y-56868190D01*
X110489071Y-56820571D01*
X110453357Y-56796761D01*
X110381928Y-56772952D01*
X110239071Y-56749142D01*
X110060500Y-56749142D01*
X109917642Y-56772952D01*
X109846214Y-56796761D01*
X109810500Y-56820571D01*
X109774785Y-56868190D01*
X115639285Y-41258666D02*
X115282142Y-41092000D01*
X115639285Y-40972952D02*
X114889285Y-40972952D01*
X114889285Y-41163428D01*
X114925000Y-41211047D01*
X114960714Y-41234857D01*
X115032142Y-41258666D01*
X115139285Y-41258666D01*
X115210714Y-41234857D01*
X115246428Y-41211047D01*
X115282142Y-41163428D01*
X115282142Y-40972952D01*
X114960714Y-41449142D02*
X114925000Y-41472952D01*
X114889285Y-41520571D01*
X114889285Y-41639619D01*
X114925000Y-41687238D01*
X114960714Y-41711047D01*
X115032142Y-41734857D01*
X115103571Y-41734857D01*
X115210714Y-41711047D01*
X115639285Y-41425333D01*
X115639285Y-41734857D01*
X97824785Y-41385190D02*
X97467642Y-41218523D01*
X97824785Y-41099476D02*
X97074785Y-41099476D01*
X97074785Y-41289952D01*
X97110500Y-41337571D01*
X97146214Y-41361380D01*
X97217642Y-41385190D01*
X97324785Y-41385190D01*
X97396214Y-41361380D01*
X97431928Y-41337571D01*
X97467642Y-41289952D01*
X97467642Y-41099476D01*
X97789071Y-41575666D02*
X97824785Y-41647095D01*
X97824785Y-41766142D01*
X97789071Y-41813761D01*
X97753357Y-41837571D01*
X97681928Y-41861380D01*
X97610500Y-41861380D01*
X97539071Y-41837571D01*
X97503357Y-41813761D01*
X97467642Y-41766142D01*
X97431928Y-41670904D01*
X97396214Y-41623285D01*
X97360500Y-41599476D01*
X97289071Y-41575666D01*
X97217642Y-41575666D01*
X97146214Y-41599476D01*
X97110500Y-41623285D01*
X97074785Y-41670904D01*
X97074785Y-41789952D01*
X97110500Y-41861380D01*
X97074785Y-42004238D02*
X97074785Y-42289952D01*
X97824785Y-42147095D02*
X97074785Y-42147095D01*
X113001285Y-41308666D02*
X112644142Y-41142000D01*
X113001285Y-41022952D02*
X112251285Y-41022952D01*
X112251285Y-41213428D01*
X112287000Y-41261047D01*
X112322714Y-41284857D01*
X112394142Y-41308666D01*
X112501285Y-41308666D01*
X112572714Y-41284857D01*
X112608428Y-41261047D01*
X112644142Y-41213428D01*
X112644142Y-41022952D01*
X112251285Y-41475333D02*
X112251285Y-41784857D01*
X112537000Y-41618190D01*
X112537000Y-41689619D01*
X112572714Y-41737238D01*
X112608428Y-41761047D01*
X112679857Y-41784857D01*
X112858428Y-41784857D01*
X112929857Y-41761047D01*
X112965571Y-41737238D01*
X113001285Y-41689619D01*
X113001285Y-41546761D01*
X112965571Y-41499142D01*
X112929857Y-41475333D01*
X120613357Y-56561666D02*
X120649071Y-56537857D01*
X120684785Y-56466428D01*
X120684785Y-56418809D01*
X120649071Y-56347380D01*
X120577642Y-56299761D01*
X120506214Y-56275952D01*
X120363357Y-56252142D01*
X120256214Y-56252142D01*
X120113357Y-56275952D01*
X120041928Y-56299761D01*
X119970500Y-56347380D01*
X119934785Y-56418809D01*
X119934785Y-56466428D01*
X119970500Y-56537857D01*
X120006214Y-56561666D01*
X120184785Y-56990238D02*
X120684785Y-56990238D01*
X119899071Y-56871190D02*
X120434785Y-56752142D01*
X120434785Y-57061666D01*
X105409071Y-56303761D02*
X105444785Y-56375190D01*
X105444785Y-56494238D01*
X105409071Y-56541857D01*
X105373357Y-56565666D01*
X105301928Y-56589476D01*
X105230500Y-56589476D01*
X105159071Y-56565666D01*
X105123357Y-56541857D01*
X105087642Y-56494238D01*
X105051928Y-56399000D01*
X105016214Y-56351380D01*
X104980500Y-56327571D01*
X104909071Y-56303761D01*
X104837642Y-56303761D01*
X104766214Y-56327571D01*
X104730500Y-56351380D01*
X104694785Y-56399000D01*
X104694785Y-56518047D01*
X104730500Y-56589476D01*
X105373357Y-57089476D02*
X105409071Y-57065666D01*
X105444785Y-56994238D01*
X105444785Y-56946619D01*
X105409071Y-56875190D01*
X105337642Y-56827571D01*
X105266214Y-56803761D01*
X105123357Y-56779952D01*
X105016214Y-56779952D01*
X104873357Y-56803761D01*
X104801928Y-56827571D01*
X104730500Y-56875190D01*
X104694785Y-56946619D01*
X104694785Y-56994238D01*
X104730500Y-57065666D01*
X104766214Y-57089476D01*
X105444785Y-57541857D02*
X105444785Y-57303761D01*
X104694785Y-57303761D01*
X110096428Y-41127761D02*
X110096428Y-41294428D01*
X110489285Y-41365857D02*
X110489285Y-41127761D01*
X109739285Y-41127761D01*
X109739285Y-41365857D01*
X110096428Y-41746809D02*
X110132142Y-41818238D01*
X110167857Y-41842047D01*
X110239285Y-41865857D01*
X110346428Y-41865857D01*
X110417857Y-41842047D01*
X110453571Y-41818238D01*
X110489285Y-41770619D01*
X110489285Y-41580142D01*
X109739285Y-41580142D01*
X109739285Y-41746809D01*
X109775000Y-41794428D01*
X109810714Y-41818238D01*
X109882142Y-41842047D01*
X109953571Y-41842047D01*
X110025000Y-41818238D01*
X110060714Y-41794428D01*
X110096428Y-41746809D01*
X110096428Y-41580142D01*
X109810714Y-42056333D02*
X109775000Y-42080142D01*
X109739285Y-42127761D01*
X109739285Y-42246809D01*
X109775000Y-42294428D01*
X109810714Y-42318238D01*
X109882142Y-42342047D01*
X109953571Y-42342047D01*
X110060714Y-42318238D01*
X110489285Y-42032523D01*
X110489285Y-42342047D01*
X120621285Y-41321666D02*
X120264142Y-41155000D01*
X120621285Y-41035952D02*
X119871285Y-41035952D01*
X119871285Y-41226428D01*
X119907000Y-41274047D01*
X119942714Y-41297857D01*
X120014142Y-41321666D01*
X120121285Y-41321666D01*
X120192714Y-41297857D01*
X120228428Y-41274047D01*
X120264142Y-41226428D01*
X120264142Y-41035952D01*
X119871285Y-41631190D02*
X119871285Y-41678809D01*
X119907000Y-41726428D01*
X119942714Y-41750238D01*
X120014142Y-41774047D01*
X120157000Y-41797857D01*
X120335571Y-41797857D01*
X120478428Y-41774047D01*
X120549857Y-41750238D01*
X120585571Y-41726428D01*
X120621285Y-41678809D01*
X120621285Y-41631190D01*
X120585571Y-41583571D01*
X120549857Y-41559761D01*
X120478428Y-41535952D01*
X120335571Y-41512142D01*
X120157000Y-41512142D01*
X120014142Y-41535952D01*
X119942714Y-41559761D01*
X119907000Y-41583571D01*
X119871285Y-41631190D01*
X107596428Y-41163476D02*
X107596428Y-41330142D01*
X107989285Y-41401571D02*
X107989285Y-41163476D01*
X107239285Y-41163476D01*
X107239285Y-41401571D01*
X107775000Y-41592047D02*
X107775000Y-41830142D01*
X107989285Y-41544428D02*
X107239285Y-41711095D01*
X107989285Y-41877761D01*
X107310714Y-42020619D02*
X107275000Y-42044428D01*
X107239285Y-42092047D01*
X107239285Y-42211095D01*
X107275000Y-42258714D01*
X107310714Y-42282523D01*
X107382142Y-42306333D01*
X107453571Y-42306333D01*
X107560714Y-42282523D01*
X107989285Y-41996809D01*
X107989285Y-42306333D01*
X92744785Y-41313761D02*
X92387642Y-41147095D01*
X92744785Y-41028047D02*
X91994785Y-41028047D01*
X91994785Y-41218523D01*
X92030500Y-41266142D01*
X92066214Y-41289952D01*
X92137642Y-41313761D01*
X92244785Y-41313761D01*
X92316214Y-41289952D01*
X92351928Y-41266142D01*
X92387642Y-41218523D01*
X92387642Y-41028047D01*
X92530500Y-41504238D02*
X92530500Y-41742333D01*
X92744785Y-41456619D02*
X91994785Y-41623285D01*
X92744785Y-41789952D01*
X91994785Y-41909000D02*
X92744785Y-42028047D01*
X92209071Y-42123285D01*
X92744785Y-42218523D01*
X91994785Y-42337571D01*
X118017785Y-41258166D02*
X117660642Y-41091500D01*
X118017785Y-40972452D02*
X117267785Y-40972452D01*
X117267785Y-41162928D01*
X117303500Y-41210547D01*
X117339214Y-41234357D01*
X117410642Y-41258166D01*
X117517785Y-41258166D01*
X117589214Y-41234357D01*
X117624928Y-41210547D01*
X117660642Y-41162928D01*
X117660642Y-40972452D01*
X118017785Y-41734357D02*
X118017785Y-41448642D01*
X118017785Y-41591500D02*
X117267785Y-41591500D01*
X117374928Y-41543880D01*
X117446357Y-41496261D01*
X117482071Y-41448642D01*
X102546428Y-41163476D02*
X102546428Y-41330142D01*
X102939285Y-41401571D02*
X102939285Y-41163476D01*
X102189285Y-41163476D01*
X102189285Y-41401571D01*
X102725000Y-41592047D02*
X102725000Y-41830142D01*
X102939285Y-41544428D02*
X102189285Y-41711095D01*
X102939285Y-41877761D01*
X102939285Y-42306333D02*
X102939285Y-42020619D01*
X102939285Y-42163476D02*
X102189285Y-42163476D01*
X102296428Y-42115857D01*
X102367857Y-42068238D01*
X102403571Y-42020619D01*
X99614785Y-41055833D02*
X100364785Y-41222500D01*
X99614785Y-41389166D01*
X100293357Y-41841547D02*
X100329071Y-41817738D01*
X100364785Y-41746309D01*
X100364785Y-41698690D01*
X100329071Y-41627261D01*
X100257642Y-41579642D01*
X100186214Y-41555833D01*
X100043357Y-41532023D01*
X99936214Y-41532023D01*
X99793357Y-41555833D01*
X99721928Y-41579642D01*
X99650500Y-41627261D01*
X99614785Y-41698690D01*
X99614785Y-41746309D01*
X99650500Y-41817738D01*
X99686214Y-41841547D01*
X100293357Y-42341547D02*
X100329071Y-42317738D01*
X100364785Y-42246309D01*
X100364785Y-42198690D01*
X100329071Y-42127261D01*
X100257642Y-42079642D01*
X100186214Y-42055833D01*
X100043357Y-42032023D01*
X99936214Y-42032023D01*
X99793357Y-42055833D01*
X99721928Y-42079642D01*
X99650500Y-42127261D01*
X99614785Y-42198690D01*
X99614785Y-42246309D01*
X99650500Y-42317738D01*
X99686214Y-42341547D01*
X97110500Y-56518047D02*
X97074785Y-56470428D01*
X97074785Y-56399000D01*
X97110500Y-56327571D01*
X97181928Y-56279952D01*
X97253357Y-56256142D01*
X97396214Y-56232333D01*
X97503357Y-56232333D01*
X97646214Y-56256142D01*
X97717642Y-56279952D01*
X97789071Y-56327571D01*
X97824785Y-56399000D01*
X97824785Y-56446619D01*
X97789071Y-56518047D01*
X97753357Y-56541857D01*
X97503357Y-56541857D01*
X97503357Y-56446619D01*
X97824785Y-56756142D02*
X97074785Y-56756142D01*
X97824785Y-57041857D01*
X97074785Y-57041857D01*
X97824785Y-57279952D02*
X97074785Y-57279952D01*
X97074785Y-57399000D01*
X97110500Y-57470428D01*
X97181928Y-57518047D01*
X97253357Y-57541857D01*
X97396214Y-57565666D01*
X97503357Y-57565666D01*
X97646214Y-57541857D01*
X97717642Y-57518047D01*
X97789071Y-57470428D01*
X97824785Y-57399000D01*
X97824785Y-57279952D01*
D14*
D15*
X102869071Y-56291857D02*
X102904785Y-56363285D01*
X102904785Y-56482333D01*
X102869071Y-56529952D01*
X102833357Y-56553761D01*
X102761928Y-56577571D01*
X102690500Y-56577571D01*
X102619071Y-56553761D01*
X102583357Y-56529952D01*
X102547642Y-56482333D01*
X102511928Y-56387095D01*
X102476214Y-56339476D01*
X102440500Y-56315666D01*
X102369071Y-56291857D01*
X102297642Y-56291857D01*
X102226214Y-56315666D01*
X102190500Y-56339476D01*
X102154785Y-56387095D01*
X102154785Y-56506142D01*
X102190500Y-56577571D01*
X102904785Y-56791857D02*
X102154785Y-56791857D01*
X102154785Y-56910904D01*
X102190500Y-56982333D01*
X102261928Y-57029952D01*
X102333357Y-57053761D01*
X102476214Y-57077571D01*
X102583357Y-57077571D01*
X102726214Y-57053761D01*
X102797642Y-57029952D01*
X102869071Y-56982333D01*
X102904785Y-56910904D01*
X102904785Y-56791857D01*
X102690500Y-57268047D02*
X102690500Y-57506142D01*
X102904785Y-57220428D02*
X102154785Y-57387095D01*
X102904785Y-57553761D01*
X99650500Y-56518047D02*
X99614785Y-56470428D01*
X99614785Y-56399000D01*
X99650500Y-56327571D01*
X99721928Y-56279952D01*
X99793357Y-56256142D01*
X99936214Y-56232333D01*
X100043357Y-56232333D01*
X100186214Y-56256142D01*
X100257642Y-56279952D01*
X100329071Y-56327571D01*
X100364785Y-56399000D01*
X100364785Y-56446619D01*
X100329071Y-56518047D01*
X100293357Y-56541857D01*
X100043357Y-56541857D01*
X100043357Y-56446619D01*
X100364785Y-56756142D02*
X99614785Y-56756142D01*
X100364785Y-57041857D01*
X99614785Y-57041857D01*
X100364785Y-57279952D02*
X99614785Y-57279952D01*
X99614785Y-57399000D01*
X99650500Y-57470428D01*
X99721928Y-57518047D01*
X99793357Y-57541857D01*
X99936214Y-57565666D01*
X100043357Y-57565666D01*
X100186214Y-57541857D01*
X100257642Y-57518047D01*
X100329071Y-57470428D01*
X100364785Y-57399000D01*
X100364785Y-57279952D01*
X113056857Y-56558666D02*
X113092571Y-56534857D01*
X113128285Y-56463428D01*
X113128285Y-56415809D01*
X113092571Y-56344380D01*
X113021142Y-56296761D01*
X112949714Y-56272952D01*
X112806857Y-56249142D01*
X112699714Y-56249142D01*
X112556857Y-56272952D01*
X112485428Y-56296761D01*
X112414000Y-56344380D01*
X112378285Y-56415809D01*
X112378285Y-56463428D01*
X112414000Y-56534857D01*
X112449714Y-56558666D01*
X113128285Y-57034857D02*
X113128285Y-56749142D01*
X113128285Y-56892000D02*
X112378285Y-56892000D01*
X112485428Y-56844380D01*
X112556857Y-56796761D01*
X112592571Y-56749142D01*
D14*
X142146404Y-41375880D02*
X141574976Y-41375880D01*
X141860690Y-42375880D02*
X141860690Y-41375880D01*
X140670214Y-42375880D02*
X141003547Y-41899690D01*
X141241642Y-42375880D02*
X141241642Y-41375880D01*
X140860690Y-41375880D01*
X140765452Y-41423500D01*
X140717833Y-41471119D01*
X140670214Y-41566357D01*
X140670214Y-41709214D01*
X140717833Y-41804452D01*
X140765452Y-41852071D01*
X140860690Y-41899690D01*
X141241642Y-41899690D01*
X139670214Y-42375880D02*
X140003547Y-41899690D01*
X140241642Y-42375880D02*
X140241642Y-41375880D01*
X139860690Y-41375880D01*
X139765452Y-41423500D01*
X139717833Y-41471119D01*
X139670214Y-41566357D01*
X139670214Y-41709214D01*
X139717833Y-41804452D01*
X139765452Y-41852071D01*
X139860690Y-41899690D01*
X140241642Y-41899690D01*
X139289261Y-42328261D02*
X139146404Y-42375880D01*
X138908309Y-42375880D01*
X138813071Y-42328261D01*
X138765452Y-42280642D01*
X138717833Y-42185404D01*
X138717833Y-42090166D01*
X138765452Y-41994928D01*
X138813071Y-41947309D01*
X138908309Y-41899690D01*
X139098785Y-41852071D01*
X139194023Y-41804452D01*
X139241642Y-41756833D01*
X139289261Y-41661595D01*
X139289261Y-41566357D01*
X139241642Y-41471119D01*
X139194023Y-41423500D01*
X139098785Y-41375880D01*
X138860690Y-41375880D01*
X138717833Y-41423500D01*
X167201000Y-37942200D02*
X167234333Y-37975533D01*
X167334333Y-38008866D01*
X167401000Y-38008866D01*
X167501000Y-37975533D01*
X167567666Y-37908866D01*
X167601000Y-37842200D01*
X167634333Y-37708866D01*
X167634333Y-37608866D01*
X167601000Y-37475533D01*
X167567666Y-37408866D01*
X167501000Y-37342200D01*
X167401000Y-37308866D01*
X167334333Y-37308866D01*
X167234333Y-37342200D01*
X167201000Y-37375533D01*
X166534333Y-38008866D02*
X166934333Y-38008866D01*
X166734333Y-38008866D02*
X166734333Y-37308866D01*
X166801000Y-37408866D01*
X166867666Y-37475533D01*
X166934333Y-37508866D01*
X166101000Y-37308866D02*
X166034333Y-37308866D01*
X165967666Y-37342200D01*
X165934333Y-37375533D01*
X165901000Y-37442200D01*
X165867666Y-37575533D01*
X165867666Y-37742200D01*
X165901000Y-37875533D01*
X165934333Y-37942200D01*
X165967666Y-37975533D01*
X166034333Y-38008866D01*
X166101000Y-38008866D01*
X166167666Y-37975533D01*
X166201000Y-37942200D01*
X166234333Y-37875533D01*
X166267666Y-37742200D01*
X166267666Y-37575533D01*
X166234333Y-37442200D01*
X166201000Y-37375533D01*
X166167666Y-37342200D01*
X166101000Y-37308866D01*
X169362380Y-59047380D02*
X169362380Y-58571190D01*
X168362380Y-58571190D01*
X168838571Y-59380714D02*
X168838571Y-59714047D01*
X169362380Y-59856904D02*
X169362380Y-59380714D01*
X168362380Y-59380714D01*
X168362380Y-59856904D01*
X168838571Y-60618809D02*
X168838571Y-60285476D01*
X169362380Y-60285476D02*
X168362380Y-60285476D01*
X168362380Y-60761666D01*
X168362380Y-60999761D02*
X168362380Y-61571190D01*
X169362380Y-61285476D02*
X168362380Y-61285476D01*
X168981428Y-61904523D02*
X168981428Y-62666428D01*
X168838571Y-63475952D02*
X168886190Y-63618809D01*
X168933809Y-63666428D01*
X169029047Y-63714047D01*
X169171904Y-63714047D01*
X169267142Y-63666428D01*
X169314761Y-63618809D01*
X169362380Y-63523571D01*
X169362380Y-63142619D01*
X168362380Y-63142619D01*
X168362380Y-63475952D01*
X168410000Y-63571190D01*
X168457619Y-63618809D01*
X168552857Y-63666428D01*
X168648095Y-63666428D01*
X168743333Y-63618809D01*
X168790952Y-63571190D01*
X168838571Y-63475952D01*
X168838571Y-63142619D01*
X169362380Y-64666428D02*
X169362380Y-64095000D01*
X169362380Y-64380714D02*
X168362380Y-64380714D01*
X168505238Y-64285476D01*
X168600476Y-64190238D01*
X168648095Y-64095000D01*
X180157380Y-75824810D02*
X180157380Y-75348620D01*
X179157380Y-75348620D01*
X179633571Y-76158143D02*
X179633571Y-76491477D01*
X180157380Y-76634334D02*
X180157380Y-76158143D01*
X179157380Y-76158143D01*
X179157380Y-76634334D01*
X179633571Y-77396239D02*
X179633571Y-77062905D01*
X180157380Y-77062905D02*
X179157380Y-77062905D01*
X179157380Y-77539096D01*
X179157380Y-77777191D02*
X179157380Y-78348620D01*
X180157380Y-78062905D02*
X179157380Y-78062905D01*
X179776428Y-78681953D02*
X179776428Y-79443858D01*
X179871666Y-79872429D02*
X179871666Y-80348620D01*
X180157380Y-79777191D02*
X179157380Y-80110524D01*
X180157380Y-80443858D01*
X179252619Y-80729572D02*
X179205000Y-80777191D01*
X179157380Y-80872429D01*
X179157380Y-81110524D01*
X179205000Y-81205762D01*
X179252619Y-81253381D01*
X179347857Y-81301001D01*
X179443095Y-81301001D01*
X179585952Y-81253381D01*
X180157380Y-80681953D01*
X180157380Y-81301001D01*
X169362380Y-75800881D02*
X169362380Y-75324691D01*
X168362380Y-75324691D01*
X168838571Y-76134215D02*
X168838571Y-76467548D01*
X169362380Y-76610405D02*
X169362380Y-76134215D01*
X168362380Y-76134215D01*
X168362380Y-76610405D01*
X168838571Y-77372310D02*
X168838571Y-77038977D01*
X169362380Y-77038977D02*
X168362380Y-77038977D01*
X168362380Y-77515167D01*
X168362380Y-77753262D02*
X168362380Y-78324691D01*
X169362380Y-78038977D02*
X168362380Y-78038977D01*
X168981428Y-78658024D02*
X168981428Y-79419929D01*
X168838571Y-80229453D02*
X168886190Y-80372310D01*
X168933809Y-80419929D01*
X169029047Y-80467548D01*
X169171904Y-80467548D01*
X169267142Y-80419929D01*
X169314761Y-80372310D01*
X169362380Y-80277072D01*
X169362380Y-79896120D01*
X168362380Y-79896120D01*
X168362380Y-80229453D01*
X168410000Y-80324691D01*
X168457619Y-80372310D01*
X168552857Y-80419929D01*
X168648095Y-80419929D01*
X168743333Y-80372310D01*
X168790952Y-80324691D01*
X168838571Y-80229453D01*
X168838571Y-79896120D01*
X168457619Y-80848501D02*
X168410000Y-80896120D01*
X168362380Y-80991358D01*
X168362380Y-81229453D01*
X168410000Y-81324691D01*
X168457619Y-81372310D01*
X168552857Y-81419929D01*
X168648095Y-81419929D01*
X168790952Y-81372310D01*
X169362380Y-80800881D01*
X169362380Y-81419929D01*
X157003523Y-41322361D02*
X156860666Y-41369980D01*
X156622571Y-41369980D01*
X156527333Y-41322361D01*
X156479714Y-41274742D01*
X156432095Y-41179504D01*
X156432095Y-41084266D01*
X156479714Y-40989028D01*
X156527333Y-40941409D01*
X156622571Y-40893790D01*
X156813047Y-40846171D01*
X156908285Y-40798552D01*
X156955904Y-40750933D01*
X157003523Y-40655695D01*
X157003523Y-40560457D01*
X156955904Y-40465219D01*
X156908285Y-40417600D01*
X156813047Y-40369980D01*
X156574952Y-40369980D01*
X156432095Y-40417600D01*
X156098761Y-40369980D02*
X155860666Y-41369980D01*
X155670190Y-40655695D01*
X155479714Y-41369980D01*
X155241619Y-40369980D01*
X154908285Y-40465219D02*
X154860666Y-40417600D01*
X154765428Y-40369980D01*
X154527333Y-40369980D01*
X154432095Y-40417600D01*
X154384476Y-40465219D01*
X154336857Y-40560457D01*
X154336857Y-40655695D01*
X154384476Y-40798552D01*
X154955904Y-41369980D01*
X154336857Y-41369980D01*
X153955904Y-40465219D02*
X153908285Y-40417600D01*
X153813047Y-40369980D01*
X153574952Y-40369980D01*
X153479714Y-40417600D01*
X153432095Y-40465219D01*
X153384476Y-40560457D01*
X153384476Y-40655695D01*
X153432095Y-40798552D01*
X154003523Y-41369980D01*
X153384476Y-41369980D01*
X120712023Y-50506161D02*
X120569166Y-50553780D01*
X120331071Y-50553780D01*
X120235833Y-50506161D01*
X120188214Y-50458542D01*
X120140595Y-50363304D01*
X120140595Y-50268066D01*
X120188214Y-50172828D01*
X120235833Y-50125209D01*
X120331071Y-50077590D01*
X120521547Y-50029971D01*
X120616785Y-49982352D01*
X120664404Y-49934733D01*
X120712023Y-49839495D01*
X120712023Y-49744257D01*
X120664404Y-49649019D01*
X120616785Y-49601400D01*
X120521547Y-49553780D01*
X120283452Y-49553780D01*
X120140595Y-49601400D01*
X119712023Y-50553780D02*
X119712023Y-49553780D01*
X119473928Y-49553780D01*
X119331071Y-49601400D01*
X119235833Y-49696638D01*
X119188214Y-49791876D01*
X119140595Y-49982352D01*
X119140595Y-50125209D01*
X119188214Y-50315685D01*
X119235833Y-50410923D01*
X119331071Y-50506161D01*
X119473928Y-50553780D01*
X119712023Y-50553780D01*
X118759642Y-50268066D02*
X118283452Y-50268066D01*
X118854880Y-50553780D02*
X118521547Y-49553780D01*
X118188214Y-50553780D01*
X117854880Y-50172828D02*
X117092976Y-50172828D01*
X116140595Y-50553780D02*
X116616785Y-50553780D01*
X116616785Y-49553780D01*
X120712023Y-47966161D02*
X120569166Y-48013780D01*
X120331071Y-48013780D01*
X120235833Y-47966161D01*
X120188214Y-47918542D01*
X120140595Y-47823304D01*
X120140595Y-47728066D01*
X120188214Y-47632828D01*
X120235833Y-47585209D01*
X120331071Y-47537590D01*
X120521547Y-47489971D01*
X120616785Y-47442352D01*
X120664404Y-47394733D01*
X120712023Y-47299495D01*
X120712023Y-47204257D01*
X120664404Y-47109019D01*
X120616785Y-47061400D01*
X120521547Y-47013780D01*
X120283452Y-47013780D01*
X120140595Y-47061400D01*
X119140595Y-47918542D02*
X119188214Y-47966161D01*
X119331071Y-48013780D01*
X119426309Y-48013780D01*
X119569166Y-47966161D01*
X119664404Y-47870923D01*
X119712023Y-47775685D01*
X119759642Y-47585209D01*
X119759642Y-47442352D01*
X119712023Y-47251876D01*
X119664404Y-47156638D01*
X119569166Y-47061400D01*
X119426309Y-47013780D01*
X119331071Y-47013780D01*
X119188214Y-47061400D01*
X119140595Y-47109019D01*
X118235833Y-48013780D02*
X118712023Y-48013780D01*
X118712023Y-47013780D01*
X117902500Y-47632828D02*
X117140595Y-47632828D01*
X116188214Y-48013780D02*
X116664404Y-48013780D01*
X116664404Y-47013780D01*
X120807261Y-44473780D02*
X120473928Y-45473780D01*
X120140595Y-44473780D01*
X119235833Y-45378542D02*
X119283452Y-45426161D01*
X119426309Y-45473780D01*
X119521547Y-45473780D01*
X119664404Y-45426161D01*
X119759642Y-45330923D01*
X119807261Y-45235685D01*
X119854880Y-45045209D01*
X119854880Y-44902352D01*
X119807261Y-44711876D01*
X119759642Y-44616638D01*
X119664404Y-44521400D01*
X119521547Y-44473780D01*
X119426309Y-44473780D01*
X119283452Y-44521400D01*
X119235833Y-44569019D01*
X118235833Y-45378542D02*
X118283452Y-45426161D01*
X118426309Y-45473780D01*
X118521547Y-45473780D01*
X118664404Y-45426161D01*
X118759642Y-45330923D01*
X118807261Y-45235685D01*
X118854880Y-45045209D01*
X118854880Y-44902352D01*
X118807261Y-44711876D01*
X118759642Y-44616638D01*
X118664404Y-44521400D01*
X118521547Y-44473780D01*
X118426309Y-44473780D01*
X118283452Y-44521400D01*
X118235833Y-44569019D01*
X117807261Y-45092828D02*
X117045357Y-45092828D01*
X116092976Y-45473780D02*
X116569166Y-45473780D01*
X116569166Y-44473780D01*
X120140595Y-41981400D02*
X120235833Y-41933780D01*
X120378690Y-41933780D01*
X120521547Y-41981400D01*
X120616785Y-42076638D01*
X120664404Y-42171876D01*
X120712023Y-42362352D01*
X120712023Y-42505209D01*
X120664404Y-42695685D01*
X120616785Y-42790923D01*
X120521547Y-42886161D01*
X120378690Y-42933780D01*
X120283452Y-42933780D01*
X120140595Y-42886161D01*
X120092976Y-42838542D01*
X120092976Y-42505209D01*
X120283452Y-42505209D01*
X119664404Y-42933780D02*
X119664404Y-41933780D01*
X119092976Y-42933780D01*
X119092976Y-41933780D01*
X118616785Y-42933780D02*
X118616785Y-41933780D01*
X118378690Y-41933780D01*
X118235833Y-41981400D01*
X118140595Y-42076638D01*
X118092976Y-42171876D01*
X118045357Y-42362352D01*
X118045357Y-42505209D01*
X118092976Y-42695685D01*
X118140595Y-42790923D01*
X118235833Y-42886161D01*
X118378690Y-42933780D01*
X118616785Y-42933780D01*
X117616785Y-42552828D02*
X116854880Y-42552828D01*
X115902500Y-42933780D02*
X116378690Y-42933780D01*
X116378690Y-41933780D01*
X180157380Y-59118809D02*
X180157380Y-58642619D01*
X179157380Y-58642619D01*
X179633571Y-59452142D02*
X179633571Y-59785476D01*
X180157380Y-59928333D02*
X180157380Y-59452142D01*
X179157380Y-59452142D01*
X179157380Y-59928333D01*
X179633571Y-60690238D02*
X179633571Y-60356904D01*
X180157380Y-60356904D02*
X179157380Y-60356904D01*
X179157380Y-60833095D01*
X179157380Y-61071190D02*
X179157380Y-61642619D01*
X180157380Y-61356904D02*
X179157380Y-61356904D01*
X179776428Y-61975952D02*
X179776428Y-62737857D01*
X179871666Y-63166428D02*
X179871666Y-63642619D01*
X180157380Y-63071190D02*
X179157380Y-63404523D01*
X180157380Y-63737857D01*
X180157380Y-64595000D02*
X180157380Y-64023571D01*
X180157380Y-64309285D02*
X179157380Y-64309285D01*
X179300238Y-64214047D01*
X179395476Y-64118809D01*
X179443095Y-64023571D01*
X155050000Y-99150000D02*
X155050000Y-103750000D01*
X157550000Y-88746000D02*
X148925000Y-88746000D01*
X146650000Y-94654000D02*
X150260000Y-94654000D01*
X155025000Y-103775000D02*
X150475000Y-103775000D01*
X150175000Y-96925000D02*
X145475000Y-96925000D01*
X145475000Y-96950000D02*
X145450000Y-101550000D01*
X155025000Y-99125000D02*
X152475000Y-99125000D01*
X149250000Y-101575000D02*
X145475000Y-101575000D01*
X150470000Y-103050000D02*
X150470000Y-103750000D01*
X146650000Y-90700000D02*
X146650000Y-94645000D01*
X157550000Y-92700000D02*
X152500000Y-92746000D01*
X157550000Y-92654000D02*
X157550000Y-88746000D01*
X150470000Y-103000000D02*
G75*
G03*
X149250000Y-101580000I-1320000J100000D01*
G01*
X152525000Y-92750000D02*
G75*
G03*
X150265000Y-94630000I-190000J-2070000D01*
G01*
X148925000Y-88746000D02*
G75*
G03*
X146661000Y-90630000I-190000J-2074000D01*
G01*
X150180000Y-96950000D02*
G75*
G03*
X152550000Y-99120000I2270000J100000D01*
G01*
G36*
X157550000Y-88750000D02*
G01*
X157550000Y-92630000D01*
X152280000Y-92710000D01*
X151420000Y-92920000D01*
X150800000Y-93410000D01*
X150380000Y-94030000D01*
X150240000Y-94660000D01*
X146680000Y-94610000D01*
X146650000Y-90620000D01*
X147000000Y-89610000D01*
X147900000Y-88930000D01*
X148850000Y-88720000D01*
X157550000Y-88750000D01*
G37*
D16*
X157550000Y-88750000D02*
X157550000Y-92630000D01*
X152280000Y-92710000D01*
X151420000Y-92920000D01*
X150800000Y-93410000D01*
X150380000Y-94030000D01*
X150240000Y-94660000D01*
X146680000Y-94610000D01*
X146650000Y-90620000D01*
X147000000Y-89610000D01*
X147900000Y-88930000D01*
X148850000Y-88720000D01*
X157550000Y-88750000D01*
G36*
X150340000Y-97820000D02*
G01*
X150860000Y-98490000D01*
X151570000Y-98950000D01*
X152460000Y-99150000D01*
X155050000Y-99140000D01*
X155030000Y-103780000D01*
X150490000Y-103790000D01*
X150450000Y-102560000D01*
X150010000Y-101880000D01*
X149170000Y-101560000D01*
X145440000Y-101560000D01*
X145480000Y-96960000D01*
X150170000Y-96940000D01*
X150340000Y-97820000D01*
G37*
X150340000Y-97820000D02*
X150860000Y-98490000D01*
X151570000Y-98950000D01*
X152460000Y-99150000D01*
X155050000Y-99140000D01*
X155030000Y-103780000D01*
X150490000Y-103790000D01*
X150450000Y-102560000D01*
X150010000Y-101880000D01*
X149170000Y-101560000D01*
X145440000Y-101560000D01*
X145480000Y-96960000D01*
X150170000Y-96940000D01*
X150340000Y-97820000D01*
D14*
X100360000Y-97830000D02*
X95310000Y-97876000D01*
X92985000Y-102055000D02*
X88285000Y-102055000D01*
X89460000Y-99784000D02*
X93070000Y-99784000D01*
X97860000Y-104280000D02*
X97860000Y-108880000D01*
X97835000Y-104255000D02*
X95285000Y-104255000D01*
X97835000Y-108905000D02*
X93285000Y-108905000D01*
X92060000Y-106705000D02*
X88285000Y-106705000D01*
X100360000Y-97784000D02*
X100360000Y-93876000D01*
X88285000Y-102080000D02*
X88260000Y-106680000D01*
X100360000Y-93876000D02*
X91735000Y-93876000D01*
X89460000Y-95830000D02*
X89460000Y-99775000D01*
X93280000Y-108180000D02*
X93280000Y-108880000D01*
X92990000Y-102080000D02*
G75*
G03*
X95360000Y-104250000I2270000J100000D01*
G01*
X93280000Y-108130000D02*
G75*
G03*
X92060000Y-106710000I-1320000J100000D01*
G01*
X95335000Y-97880000D02*
G75*
G03*
X93075000Y-99760000I-190000J-2070000D01*
G01*
X91735000Y-93876000D02*
G75*
G03*
X89471000Y-95760000I-190000J-2074000D01*
G01*
G36*
X93150000Y-102950000D02*
G01*
X93670000Y-103620000D01*
X94380000Y-104080000D01*
X95270000Y-104280000D01*
X97860000Y-104270000D01*
X97840000Y-108910000D01*
X93300000Y-108920000D01*
X93260000Y-107690000D01*
X92820000Y-107010000D01*
X91980000Y-106690000D01*
X88250000Y-106690000D01*
X88290000Y-102090000D01*
X92980000Y-102070000D01*
X93150000Y-102950000D01*
G37*
D16*
X93150000Y-102950000D02*
X93670000Y-103620000D01*
X94380000Y-104080000D01*
X95270000Y-104280000D01*
X97860000Y-104270000D01*
X97840000Y-108910000D01*
X93300000Y-108920000D01*
X93260000Y-107690000D01*
X92820000Y-107010000D01*
X91980000Y-106690000D01*
X88250000Y-106690000D01*
X88290000Y-102090000D01*
X92980000Y-102070000D01*
X93150000Y-102950000D01*
G36*
X100360000Y-93880000D02*
G01*
X100360000Y-97760000D01*
X95090000Y-97840000D01*
X94230000Y-98050000D01*
X93610000Y-98540000D01*
X93190000Y-99160000D01*
X93050000Y-99790000D01*
X89490000Y-99740000D01*
X89460000Y-95750000D01*
X89810000Y-94740000D01*
X90710000Y-94060000D01*
X91660000Y-93850000D01*
X100360000Y-93880000D01*
G37*
X100360000Y-93880000D02*
X100360000Y-97760000D01*
X95090000Y-97840000D01*
X94230000Y-98050000D01*
X93610000Y-98540000D01*
X93190000Y-99160000D01*
X93050000Y-99790000D01*
X89490000Y-99740000D01*
X89460000Y-95750000D01*
X89810000Y-94740000D01*
X90710000Y-94060000D01*
X91660000Y-93850000D01*
X100360000Y-93880000D01*
D14*
X108650000Y-86150000D02*
X108650000Y-90095000D01*
X117050000Y-94600000D02*
X117050000Y-99200000D01*
X117025000Y-94575000D02*
X114475000Y-94575000D01*
X119550000Y-88104000D02*
X119550000Y-84196000D01*
X107475000Y-92400000D02*
X107450000Y-97000000D01*
X119550000Y-84196000D02*
X110925000Y-84196000D01*
X119550000Y-88150000D02*
X114500000Y-88196000D01*
X111250000Y-97025000D02*
X107475000Y-97025000D01*
X112470000Y-98500000D02*
X112470000Y-99200000D01*
X112175000Y-92375000D02*
X107475000Y-92375000D01*
X117025000Y-99225000D02*
X112475000Y-99225000D01*
X108650000Y-90104000D02*
X112260000Y-90104000D01*
X110925000Y-84196000D02*
G75*
G03*
X108661000Y-86080000I-190000J-2074000D01*
G01*
X114525000Y-88200000D02*
G75*
G03*
X112265000Y-90080000I-190000J-2070000D01*
G01*
X112180000Y-92400000D02*
G75*
G03*
X114550000Y-94570000I2270000J100000D01*
G01*
X112470000Y-98450000D02*
G75*
G03*
X111250000Y-97030000I-1320000J100000D01*
G01*
G36*
X119550000Y-84200000D02*
G01*
X119550000Y-88080000D01*
X114280000Y-88160000D01*
X113420000Y-88370000D01*
X112800000Y-88860000D01*
X112380000Y-89480000D01*
X112240000Y-90110000D01*
X108680000Y-90060000D01*
X108650000Y-86070000D01*
X109000000Y-85060000D01*
X109900000Y-84380000D01*
X110850000Y-84170000D01*
X119550000Y-84200000D01*
G37*
D16*
X119550000Y-84200000D02*
X119550000Y-88080000D01*
X114280000Y-88160000D01*
X113420000Y-88370000D01*
X112800000Y-88860000D01*
X112380000Y-89480000D01*
X112240000Y-90110000D01*
X108680000Y-90060000D01*
X108650000Y-86070000D01*
X109000000Y-85060000D01*
X109900000Y-84380000D01*
X110850000Y-84170000D01*
X119550000Y-84200000D01*
G36*
X112340000Y-93270000D02*
G01*
X112860000Y-93940000D01*
X113570000Y-94400000D01*
X114460000Y-94600000D01*
X117050000Y-94590000D01*
X117030000Y-99230000D01*
X112490000Y-99240000D01*
X112450000Y-98010000D01*
X112010000Y-97330000D01*
X111170000Y-97010000D01*
X107440000Y-97010000D01*
X107480000Y-92410000D01*
X112170000Y-92390000D01*
X112340000Y-93270000D01*
G37*
X112340000Y-93270000D02*
X112860000Y-93940000D01*
X113570000Y-94400000D01*
X114460000Y-94600000D01*
X117050000Y-94590000D01*
X117030000Y-99230000D01*
X112490000Y-99240000D01*
X112450000Y-98010000D01*
X112010000Y-97330000D01*
X111170000Y-97010000D01*
X107440000Y-97010000D01*
X107480000Y-92410000D01*
X112170000Y-92390000D01*
X112340000Y-93270000D01*
D14*
X127650000Y-81200000D02*
X127650000Y-85145000D01*
X127650000Y-85154000D02*
X131260000Y-85154000D01*
X138550000Y-83154000D02*
X138550000Y-79246000D01*
X136025000Y-89625000D02*
X133475000Y-89625000D01*
X136025000Y-94275000D02*
X131475000Y-94275000D01*
X138550000Y-83200000D02*
X133500000Y-83246000D01*
X130250000Y-92075000D02*
X126475000Y-92075000D01*
X126475000Y-87450000D02*
X126450000Y-92050000D01*
X136050000Y-89650000D02*
X136050000Y-94250000D01*
X131470000Y-93550000D02*
X131470000Y-94250000D01*
X138550000Y-79246000D02*
X129925000Y-79246000D01*
X131175000Y-87425000D02*
X126475000Y-87425000D01*
X129925000Y-79246000D02*
G75*
G03*
X127661000Y-81130000I-190000J-2074000D01*
G01*
X131180000Y-87450000D02*
G75*
G03*
X133550000Y-89620000I2270000J100000D01*
G01*
X133525000Y-83250000D02*
G75*
G03*
X131265000Y-85130000I-190000J-2070000D01*
G01*
X131470000Y-93500000D02*
G75*
G03*
X130250000Y-92080000I-1320000J100000D01*
G01*
G36*
X138550000Y-79250000D02*
G01*
X138550000Y-83130000D01*
X133280000Y-83210000D01*
X132420000Y-83420000D01*
X131800000Y-83910000D01*
X131380000Y-84530000D01*
X131240000Y-85160000D01*
X127680000Y-85110000D01*
X127650000Y-81120000D01*
X128000000Y-80110000D01*
X128900000Y-79430000D01*
X129850000Y-79220000D01*
X138550000Y-79250000D01*
G37*
D16*
X138550000Y-79250000D02*
X138550000Y-83130000D01*
X133280000Y-83210000D01*
X132420000Y-83420000D01*
X131800000Y-83910000D01*
X131380000Y-84530000D01*
X131240000Y-85160000D01*
X127680000Y-85110000D01*
X127650000Y-81120000D01*
X128000000Y-80110000D01*
X128900000Y-79430000D01*
X129850000Y-79220000D01*
X138550000Y-79250000D01*
G36*
X131340000Y-88320000D02*
G01*
X131860000Y-88990000D01*
X132570000Y-89450000D01*
X133460000Y-89650000D01*
X136050000Y-89640000D01*
X136030000Y-94280000D01*
X131490000Y-94290000D01*
X131450000Y-93060000D01*
X131010000Y-92380000D01*
X130170000Y-92060000D01*
X126440000Y-92060000D01*
X126480000Y-87460000D01*
X131170000Y-87440000D01*
X131340000Y-88320000D01*
G37*
X131340000Y-88320000D02*
X131860000Y-88990000D01*
X132570000Y-89450000D01*
X133460000Y-89650000D01*
X136050000Y-89640000D01*
X136030000Y-94280000D01*
X131490000Y-94290000D01*
X131450000Y-93060000D01*
X131010000Y-92380000D01*
X130170000Y-92060000D01*
X126440000Y-92060000D01*
X126480000Y-87460000D01*
X131170000Y-87440000D01*
X131340000Y-88320000D01*
D14*
X155025000Y-84775000D02*
X150475000Y-84775000D01*
X150175000Y-77925000D02*
X145475000Y-77925000D01*
X146650000Y-71700000D02*
X146650000Y-75645000D01*
X157550000Y-73654000D02*
X157550000Y-69746000D01*
X149250000Y-82575000D02*
X145475000Y-82575000D01*
X155050000Y-80150000D02*
X155050000Y-84750000D01*
X150470000Y-84050000D02*
X150470000Y-84750000D01*
X146650000Y-75654000D02*
X150260000Y-75654000D01*
X155025000Y-80125000D02*
X152475000Y-80125000D01*
X157550000Y-69746000D02*
X148925000Y-69746000D01*
X157550000Y-73700000D02*
X152500000Y-73746000D01*
X145475000Y-77950000D02*
X145450000Y-82550000D01*
X150470000Y-84000000D02*
G75*
G03*
X149250000Y-82580000I-1320000J100000D01*
G01*
X148925000Y-69746000D02*
G75*
G03*
X146661000Y-71630000I-190000J-2074000D01*
G01*
X152525000Y-73750000D02*
G75*
G03*
X150265000Y-75630000I-190000J-2070000D01*
G01*
X150180000Y-77950000D02*
G75*
G03*
X152550000Y-80120000I2270000J100000D01*
G01*
G36*
X150340000Y-78820000D02*
G01*
X150860000Y-79490000D01*
X151570000Y-79950000D01*
X152460000Y-80150000D01*
X155050000Y-80140000D01*
X155030000Y-84780000D01*
X150490000Y-84790000D01*
X150450000Y-83560000D01*
X150010000Y-82880000D01*
X149170000Y-82560000D01*
X145440000Y-82560000D01*
X145480000Y-77960000D01*
X150170000Y-77940000D01*
X150340000Y-78820000D01*
G37*
D16*
X150340000Y-78820000D02*
X150860000Y-79490000D01*
X151570000Y-79950000D01*
X152460000Y-80150000D01*
X155050000Y-80140000D01*
X155030000Y-84780000D01*
X150490000Y-84790000D01*
X150450000Y-83560000D01*
X150010000Y-82880000D01*
X149170000Y-82560000D01*
X145440000Y-82560000D01*
X145480000Y-77960000D01*
X150170000Y-77940000D01*
X150340000Y-78820000D01*
G36*
X157550000Y-69750000D02*
G01*
X157550000Y-73630000D01*
X152280000Y-73710000D01*
X151420000Y-73920000D01*
X150800000Y-74410000D01*
X150380000Y-75030000D01*
X150240000Y-75660000D01*
X146680000Y-75610000D01*
X146650000Y-71620000D01*
X147000000Y-70610000D01*
X147900000Y-69930000D01*
X148850000Y-69720000D01*
X157550000Y-69750000D01*
G37*
X157550000Y-69750000D02*
X157550000Y-73630000D01*
X152280000Y-73710000D01*
X151420000Y-73920000D01*
X150800000Y-74410000D01*
X150380000Y-75030000D01*
X150240000Y-75660000D01*
X146680000Y-75610000D01*
X146650000Y-71620000D01*
X147000000Y-70610000D01*
X147900000Y-69930000D01*
X148850000Y-69720000D01*
X157550000Y-69750000D01*
D14*
X93025000Y-82975000D02*
X88325000Y-82975000D01*
X97875000Y-89825000D02*
X93325000Y-89825000D01*
X100400000Y-78704000D02*
X100400000Y-74796000D01*
X100400000Y-74796000D02*
X91775000Y-74796000D01*
X89500000Y-76750000D02*
X89500000Y-80695000D01*
X97900000Y-85200000D02*
X97900000Y-89800000D01*
X89500000Y-80704000D02*
X93110000Y-80704000D01*
X88325000Y-83000000D02*
X88300000Y-87600000D01*
X92100000Y-87625000D02*
X88325000Y-87625000D01*
X97875000Y-85175000D02*
X95325000Y-85175000D01*
X100400000Y-78750000D02*
X95350000Y-78796000D01*
X93320000Y-89100000D02*
X93320000Y-89800000D01*
X93320000Y-89050000D02*
G75*
G03*
X92100000Y-87630000I-1320000J100000D01*
G01*
X93030000Y-83000000D02*
G75*
G03*
X95400000Y-85170000I2270000J100000D01*
G01*
X95375000Y-78800000D02*
G75*
G03*
X93115000Y-80680000I-190000J-2070000D01*
G01*
X91775000Y-74796000D02*
G75*
G03*
X89511000Y-76680000I-190000J-2074000D01*
G01*
G36*
X93190000Y-83870000D02*
G01*
X93710000Y-84540000D01*
X94420000Y-85000000D01*
X95310000Y-85200000D01*
X97900000Y-85190000D01*
X97880000Y-89830000D01*
X93340000Y-89840000D01*
X93300000Y-88610000D01*
X92860000Y-87930000D01*
X92020000Y-87610000D01*
X88290000Y-87610000D01*
X88330000Y-83010000D01*
X93020000Y-82990000D01*
X93190000Y-83870000D01*
G37*
D16*
X93190000Y-83870000D02*
X93710000Y-84540000D01*
X94420000Y-85000000D01*
X95310000Y-85200000D01*
X97900000Y-85190000D01*
X97880000Y-89830000D01*
X93340000Y-89840000D01*
X93300000Y-88610000D01*
X92860000Y-87930000D01*
X92020000Y-87610000D01*
X88290000Y-87610000D01*
X88330000Y-83010000D01*
X93020000Y-82990000D01*
X93190000Y-83870000D01*
G36*
X100400000Y-74800000D02*
G01*
X100400000Y-78680000D01*
X95130000Y-78760000D01*
X94270000Y-78970000D01*
X93650000Y-79460000D01*
X93230000Y-80080000D01*
X93090000Y-80710000D01*
X89530000Y-80660000D01*
X89500000Y-76670000D01*
X89850000Y-75660000D01*
X90750000Y-74980000D01*
X91700000Y-74770000D01*
X100400000Y-74800000D01*
G37*
X100400000Y-74800000D02*
X100400000Y-78680000D01*
X95130000Y-78760000D01*
X94270000Y-78970000D01*
X93650000Y-79460000D01*
X93230000Y-80080000D01*
X93090000Y-80710000D01*
X89530000Y-80660000D01*
X89500000Y-76670000D01*
X89850000Y-75660000D01*
X90750000Y-74980000D01*
X91700000Y-74770000D01*
X100400000Y-74800000D01*
D14*
X145475000Y-116100000D02*
X145450000Y-120700000D01*
X155025000Y-122925000D02*
X150475000Y-122925000D01*
X155050000Y-118300000D02*
X155050000Y-122900000D01*
X146650000Y-113804000D02*
X150260000Y-113804000D01*
X150175000Y-116075000D02*
X145475000Y-116075000D01*
X157550000Y-111850000D02*
X152500000Y-111896000D01*
X155025000Y-118275000D02*
X152475000Y-118275000D01*
X150470000Y-122200000D02*
X150470000Y-122900000D01*
X149250000Y-120725000D02*
X145475000Y-120725000D01*
X157550000Y-107896000D02*
X148925000Y-107896000D01*
X146650000Y-109850000D02*
X146650000Y-113795000D01*
X157550000Y-111804000D02*
X157550000Y-107896000D01*
X150470000Y-122150000D02*
G75*
G03*
X149250000Y-120730000I-1320000J100000D01*
G01*
X148925000Y-107896000D02*
G75*
G03*
X146661000Y-109780000I-190000J-2074000D01*
G01*
X150180000Y-116100000D02*
G75*
G03*
X152550000Y-118270000I2270000J100000D01*
G01*
X152525000Y-111900000D02*
G75*
G03*
X150265000Y-113780000I-190000J-2070000D01*
G01*
G36*
X150340000Y-116970000D02*
G01*
X150860000Y-117640000D01*
X151570000Y-118100000D01*
X152460000Y-118300000D01*
X155050000Y-118290000D01*
X155030000Y-122930000D01*
X150490000Y-122940000D01*
X150450000Y-121710000D01*
X150010000Y-121030000D01*
X149170000Y-120710000D01*
X145440000Y-120710000D01*
X145480000Y-116110000D01*
X150170000Y-116090000D01*
X150340000Y-116970000D01*
G37*
D16*
X150340000Y-116970000D02*
X150860000Y-117640000D01*
X151570000Y-118100000D01*
X152460000Y-118300000D01*
X155050000Y-118290000D01*
X155030000Y-122930000D01*
X150490000Y-122940000D01*
X150450000Y-121710000D01*
X150010000Y-121030000D01*
X149170000Y-120710000D01*
X145440000Y-120710000D01*
X145480000Y-116110000D01*
X150170000Y-116090000D01*
X150340000Y-116970000D01*
G36*
X157550000Y-107900000D02*
G01*
X157550000Y-111780000D01*
X152280000Y-111860000D01*
X151420000Y-112070000D01*
X150800000Y-112560000D01*
X150380000Y-113180000D01*
X150240000Y-113810000D01*
X146680000Y-113760000D01*
X146650000Y-109770000D01*
X147000000Y-108760000D01*
X147900000Y-108080000D01*
X148850000Y-107870000D01*
X157550000Y-107900000D01*
G37*
X157550000Y-107900000D02*
X157550000Y-111780000D01*
X152280000Y-111860000D01*
X151420000Y-112070000D01*
X150800000Y-112560000D01*
X150380000Y-113180000D01*
X150240000Y-113810000D01*
X146680000Y-113760000D01*
X146650000Y-109770000D01*
X147000000Y-108760000D01*
X147900000Y-108080000D01*
X148850000Y-107870000D01*
X157550000Y-107900000D01*
D14*
X179624078Y-111089443D02*
X174734247Y-109826839D01*
X169613125Y-106336464D02*
X168592084Y-110147041D01*
X166860543Y-112069388D02*
X165645827Y-116506176D01*
X169309875Y-117513836D02*
X165663505Y-116536795D01*
X180647449Y-107270172D02*
X172316338Y-105037858D01*
X168589754Y-110155734D02*
X172076747Y-111090071D01*
X175539881Y-116672617D02*
X174349313Y-121115876D01*
X174318695Y-121133553D02*
X169923732Y-119955927D01*
X171406865Y-113261689D02*
X166867013Y-112045239D01*
X175522203Y-116641998D02*
X173059092Y-115982010D01*
X170106546Y-119254336D02*
X169925373Y-119930484D01*
X179635984Y-111045010D02*
X180647449Y-107270172D01*
X171405224Y-113287131D02*
G75*
G03*
X173132831Y-115996591I2218533J-490927D01*
G01*
X170119487Y-119206040D02*
G75*
G03*
X169308581Y-117518666I-1249140J438234D01*
G01*
X174757360Y-109837173D02*
G75*
G03*
X172087788Y-111068183I-719281J-1950291D01*
G01*
X172316338Y-105037857D02*
G75*
G03*
X169641867Y-106271696I-720316J-1954155D01*
G01*
G36*
X171398153Y-113274884D02*
G01*
X171334600Y-114168898D01*
X171663472Y-114950654D01*
X172230223Y-115578741D01*
X173038133Y-116002275D01*
X175542469Y-116662958D01*
X174322230Y-121139677D01*
X169934339Y-119974298D01*
X170214049Y-118775856D01*
X169965039Y-118005146D01*
X169236483Y-117478642D01*
X165633580Y-116513247D01*
X166862784Y-112080341D01*
X171398153Y-113274884D01*
G37*
D16*
X171398153Y-113274884D02*
X171334600Y-114168898D01*
X171663472Y-114950654D01*
X172230223Y-115578741D01*
X173038133Y-116002275D01*
X175542469Y-116662958D01*
X174322230Y-121139677D01*
X169934339Y-119974298D01*
X170214049Y-118775856D01*
X169965039Y-118005146D01*
X169236483Y-117478642D01*
X165633580Y-116513247D01*
X166862784Y-112080341D01*
X171398153Y-113274884D01*
G36*
X172250623Y-104993332D02*
G01*
X180646413Y-107274036D01*
X179642196Y-111021828D01*
X174531061Y-109735126D01*
X173646013Y-109715386D01*
X172920317Y-110028222D01*
X172354161Y-110518392D01*
X172055875Y-111090690D01*
X168630120Y-110120998D01*
X169633830Y-106259190D01*
X170233312Y-105374191D01*
X171278642Y-104950299D01*
X172250623Y-104993332D01*
G37*
X172250623Y-104993332D02*
X180646413Y-107274036D01*
X179642196Y-111021828D01*
X174531061Y-109735126D01*
X173646013Y-109715386D01*
X172920317Y-110028222D01*
X172354161Y-110518392D01*
X172055875Y-111090690D01*
X168630120Y-110120998D01*
X169633830Y-106259190D01*
X170233312Y-105374191D01*
X171278642Y-104950299D01*
X172250623Y-104993332D01*
D14*
X135975000Y-75275000D02*
X131425000Y-75275000D01*
X138500000Y-60246000D02*
X129875000Y-60246000D01*
X130200000Y-73075000D02*
X126425000Y-73075000D01*
X138500000Y-64154000D02*
X138500000Y-60246000D01*
X126425000Y-68450000D02*
X126400000Y-73050000D01*
X135975000Y-70625000D02*
X133425000Y-70625000D01*
X131125000Y-68425000D02*
X126425000Y-68425000D01*
X127600000Y-66154000D02*
X131210000Y-66154000D01*
X136000000Y-70650000D02*
X136000000Y-75250000D01*
X138500000Y-64200000D02*
X133450000Y-64246000D01*
X127600000Y-62200000D02*
X127600000Y-66145000D01*
X131420000Y-74550000D02*
X131420000Y-75250000D01*
X131420000Y-74500000D02*
G75*
G03*
X130200000Y-73080000I-1320000J100000D01*
G01*
X133475000Y-64250000D02*
G75*
G03*
X131215000Y-66130000I-190000J-2070000D01*
G01*
X129875000Y-60246000D02*
G75*
G03*
X127611000Y-62130000I-190000J-2074000D01*
G01*
X131130000Y-68450000D02*
G75*
G03*
X133500000Y-70620000I2270000J100000D01*
G01*
G36*
X138500000Y-60250000D02*
G01*
X138500000Y-64130000D01*
X133230000Y-64210000D01*
X132370000Y-64420000D01*
X131750000Y-64910000D01*
X131330000Y-65530000D01*
X131190000Y-66160000D01*
X127630000Y-66110000D01*
X127600000Y-62120000D01*
X127950000Y-61110000D01*
X128850000Y-60430000D01*
X129800000Y-60220000D01*
X138500000Y-60250000D01*
G37*
D16*
X138500000Y-60250000D02*
X138500000Y-64130000D01*
X133230000Y-64210000D01*
X132370000Y-64420000D01*
X131750000Y-64910000D01*
X131330000Y-65530000D01*
X131190000Y-66160000D01*
X127630000Y-66110000D01*
X127600000Y-62120000D01*
X127950000Y-61110000D01*
X128850000Y-60430000D01*
X129800000Y-60220000D01*
X138500000Y-60250000D01*
G36*
X131290000Y-69320000D02*
G01*
X131810000Y-69990000D01*
X132520000Y-70450000D01*
X133410000Y-70650000D01*
X136000000Y-70640000D01*
X135980000Y-75280000D01*
X131440000Y-75290000D01*
X131400000Y-74060000D01*
X130960000Y-73380000D01*
X130120000Y-73060000D01*
X126390000Y-73060000D01*
X126430000Y-68460000D01*
X131120000Y-68440000D01*
X131290000Y-69320000D01*
G37*
X131290000Y-69320000D02*
X131810000Y-69990000D01*
X132520000Y-70450000D01*
X133410000Y-70650000D01*
X136000000Y-70640000D01*
X135980000Y-75280000D01*
X131440000Y-75290000D01*
X131400000Y-74060000D01*
X130960000Y-73380000D01*
X130120000Y-73060000D01*
X126390000Y-73060000D01*
X126430000Y-68460000D01*
X131120000Y-68440000D01*
X131290000Y-69320000D01*
D14*
X119500000Y-111804000D02*
X119500000Y-107896000D01*
X117000000Y-118300000D02*
X117000000Y-122900000D01*
X119500000Y-107896000D02*
X110875000Y-107896000D01*
X108600000Y-113804000D02*
X112210000Y-113804000D01*
X116975000Y-118275000D02*
X114425000Y-118275000D01*
X119500000Y-111850000D02*
X114450000Y-111896000D01*
X112125000Y-116075000D02*
X107425000Y-116075000D01*
X107425000Y-116100000D02*
X107400000Y-120700000D01*
X116975000Y-122925000D02*
X112425000Y-122925000D01*
X108600000Y-109850000D02*
X108600000Y-113795000D01*
X112420000Y-122200000D02*
X112420000Y-122900000D01*
X111200000Y-120725000D02*
X107425000Y-120725000D01*
X114475000Y-111900000D02*
G75*
G03*
X112215000Y-113780000I-190000J-2070000D01*
G01*
X112130000Y-116100000D02*
G75*
G03*
X114500000Y-118270000I2270000J100000D01*
G01*
X112420000Y-122150000D02*
G75*
G03*
X111200000Y-120730000I-1320000J100000D01*
G01*
X110875000Y-107896000D02*
G75*
G03*
X108611000Y-109780000I-190000J-2074000D01*
G01*
G36*
X112290000Y-116970000D02*
G01*
X112810000Y-117640000D01*
X113520000Y-118100000D01*
X114410000Y-118300000D01*
X117000000Y-118290000D01*
X116980000Y-122930000D01*
X112440000Y-122940000D01*
X112400000Y-121710000D01*
X111960000Y-121030000D01*
X111120000Y-120710000D01*
X107390000Y-120710000D01*
X107430000Y-116110000D01*
X112120000Y-116090000D01*
X112290000Y-116970000D01*
G37*
D16*
X112290000Y-116970000D02*
X112810000Y-117640000D01*
X113520000Y-118100000D01*
X114410000Y-118300000D01*
X117000000Y-118290000D01*
X116980000Y-122930000D01*
X112440000Y-122940000D01*
X112400000Y-121710000D01*
X111960000Y-121030000D01*
X111120000Y-120710000D01*
X107390000Y-120710000D01*
X107430000Y-116110000D01*
X112120000Y-116090000D01*
X112290000Y-116970000D01*
G36*
X119500000Y-107900000D02*
G01*
X119500000Y-111780000D01*
X114230000Y-111860000D01*
X113370000Y-112070000D01*
X112750000Y-112560000D01*
X112330000Y-113180000D01*
X112190000Y-113810000D01*
X108630000Y-113760000D01*
X108600000Y-109770000D01*
X108950000Y-108760000D01*
X109850000Y-108080000D01*
X110800000Y-107870000D01*
X119500000Y-107900000D01*
G37*
X119500000Y-107900000D02*
X119500000Y-111780000D01*
X114230000Y-111860000D01*
X113370000Y-112070000D01*
X112750000Y-112560000D01*
X112330000Y-113180000D01*
X112190000Y-113810000D01*
X108630000Y-113760000D01*
X108600000Y-109770000D01*
X108950000Y-108760000D01*
X109850000Y-108080000D01*
X110800000Y-107870000D01*
X119500000Y-107900000D01*
D17*
X182784000Y-40140000D02*
G75*
G03*
X182784000Y-40140000I-1000000J0D01*
G01*
X133206000Y-40140000D02*
G75*
G03*
X133206000Y-40140000I-1000000J0D01*
G01*
D14*
X108700000Y-67250000D02*
X108700000Y-71195000D01*
X112520000Y-79600000D02*
X112520000Y-80300000D01*
X117100000Y-75700000D02*
X117100000Y-80300000D01*
X117075000Y-75675000D02*
X114525000Y-75675000D01*
X119600000Y-69204000D02*
X119600000Y-65296000D01*
X107525000Y-73500000D02*
X107500000Y-78100000D01*
X111300000Y-78125000D02*
X107525000Y-78125000D01*
X108700000Y-71204000D02*
X112310000Y-71204000D01*
X117075000Y-80325000D02*
X112525000Y-80325000D01*
X119600000Y-65296000D02*
X110975000Y-65296000D01*
X112225000Y-73475000D02*
X107525000Y-73475000D01*
X119600000Y-69250000D02*
X114550000Y-69296000D01*
X114575000Y-69300000D02*
G75*
G03*
X112315000Y-71180000I-190000J-2070000D01*
G01*
X110975000Y-65296000D02*
G75*
G03*
X108711000Y-67180000I-190000J-2074000D01*
G01*
X112230000Y-73500000D02*
G75*
G03*
X114600000Y-75670000I2270000J100000D01*
G01*
X112520000Y-79550000D02*
G75*
G03*
X111300000Y-78130000I-1320000J100000D01*
G01*
G36*
X119600000Y-65300000D02*
G01*
X119600000Y-69180000D01*
X114330000Y-69260000D01*
X113470000Y-69470000D01*
X112850000Y-69960000D01*
X112430000Y-70580000D01*
X112290000Y-71210000D01*
X108730000Y-71160000D01*
X108700000Y-67170000D01*
X109050000Y-66160000D01*
X109950000Y-65480000D01*
X110900000Y-65270000D01*
X119600000Y-65300000D01*
G37*
D16*
X119600000Y-65300000D02*
X119600000Y-69180000D01*
X114330000Y-69260000D01*
X113470000Y-69470000D01*
X112850000Y-69960000D01*
X112430000Y-70580000D01*
X112290000Y-71210000D01*
X108730000Y-71160000D01*
X108700000Y-67170000D01*
X109050000Y-66160000D01*
X109950000Y-65480000D01*
X110900000Y-65270000D01*
X119600000Y-65300000D01*
G36*
X112390000Y-74370000D02*
G01*
X112910000Y-75040000D01*
X113620000Y-75500000D01*
X114510000Y-75700000D01*
X117100000Y-75690000D01*
X117080000Y-80330000D01*
X112540000Y-80340000D01*
X112500000Y-79110000D01*
X112060000Y-78430000D01*
X111220000Y-78110000D01*
X107490000Y-78110000D01*
X107530000Y-73510000D01*
X112220000Y-73490000D01*
X112390000Y-74370000D01*
G37*
X112390000Y-74370000D02*
X112910000Y-75040000D01*
X113620000Y-75500000D01*
X114510000Y-75700000D01*
X117100000Y-75690000D01*
X117080000Y-80330000D01*
X112540000Y-80340000D01*
X112500000Y-79110000D01*
X112060000Y-78430000D01*
X111220000Y-78110000D01*
X107490000Y-78110000D01*
X107530000Y-73510000D01*
X112220000Y-73490000D01*
X112390000Y-74370000D01*
D14*
X136025000Y-122925000D02*
X131475000Y-122925000D01*
X138550000Y-111850000D02*
X133500000Y-111896000D01*
X136050000Y-118300000D02*
X136050000Y-122900000D01*
X136025000Y-118275000D02*
X133475000Y-118275000D01*
X127650000Y-109850000D02*
X127650000Y-113795000D01*
X131470000Y-122200000D02*
X131470000Y-122900000D01*
X138550000Y-111804000D02*
X138550000Y-107896000D01*
X131175000Y-116075000D02*
X126475000Y-116075000D01*
X127650000Y-113804000D02*
X131260000Y-113804000D01*
X126475000Y-116100000D02*
X126450000Y-120700000D01*
X138550000Y-107896000D02*
X129925000Y-107896000D01*
X130250000Y-120725000D02*
X126475000Y-120725000D01*
X129925000Y-107896000D02*
G75*
G03*
X127661000Y-109780000I-190000J-2074000D01*
G01*
X131180000Y-116100000D02*
G75*
G03*
X133550000Y-118270000I2270000J100000D01*
G01*
X133525000Y-111900000D02*
G75*
G03*
X131265000Y-113780000I-190000J-2070000D01*
G01*
X131470000Y-122150000D02*
G75*
G03*
X130250000Y-120730000I-1320000J100000D01*
G01*
G36*
X138550000Y-107900000D02*
G01*
X138550000Y-111780000D01*
X133280000Y-111860000D01*
X132420000Y-112070000D01*
X131800000Y-112560000D01*
X131380000Y-113180000D01*
X131240000Y-113810000D01*
X127680000Y-113760000D01*
X127650000Y-109770000D01*
X128000000Y-108760000D01*
X128900000Y-108080000D01*
X129850000Y-107870000D01*
X138550000Y-107900000D01*
G37*
D16*
X138550000Y-107900000D02*
X138550000Y-111780000D01*
X133280000Y-111860000D01*
X132420000Y-112070000D01*
X131800000Y-112560000D01*
X131380000Y-113180000D01*
X131240000Y-113810000D01*
X127680000Y-113760000D01*
X127650000Y-109770000D01*
X128000000Y-108760000D01*
X128900000Y-108080000D01*
X129850000Y-107870000D01*
X138550000Y-107900000D01*
G36*
X131340000Y-116970000D02*
G01*
X131860000Y-117640000D01*
X132570000Y-118100000D01*
X133460000Y-118300000D01*
X136050000Y-118290000D01*
X136030000Y-122930000D01*
X131490000Y-122940000D01*
X131450000Y-121710000D01*
X131010000Y-121030000D01*
X130170000Y-120710000D01*
X126440000Y-120710000D01*
X126480000Y-116110000D01*
X131170000Y-116090000D01*
X131340000Y-116970000D01*
G37*
X131340000Y-116970000D02*
X131860000Y-117640000D01*
X132570000Y-118100000D01*
X133460000Y-118300000D01*
X136050000Y-118290000D01*
X136030000Y-122930000D01*
X131490000Y-122940000D01*
X131450000Y-121710000D01*
X131010000Y-121030000D01*
X130170000Y-120710000D01*
X126440000Y-120710000D01*
X126480000Y-116110000D01*
X131170000Y-116090000D01*
X131340000Y-116970000D01*
D14*
X121552000Y-56010000D02*
X91072000Y-56010000D01*
X91072000Y-40770000D02*
X91072000Y-38230000D01*
X121552000Y-40770000D02*
X91072000Y-40770000D01*
X121552000Y-38230000D02*
X121552000Y-40770000D01*
X91072000Y-56010000D02*
X91072000Y-53470000D01*
X91072000Y-38230000D02*
X121552000Y-38230000D01*
X121552000Y-53470000D02*
X121552000Y-56010000D01*
X91072000Y-53470000D02*
X121552000Y-53470000D01*
D17*
X104870000Y-70866000D02*
G75*
G03*
X104870000Y-70866000I-2000000J0D01*
G01*
X104870000Y-110302800D02*
G75*
G03*
X104870000Y-110302800I-2000000J0D01*
G01*
X165388800Y-110302800D02*
G75*
G03*
X165388800Y-110302800I-2000000J0D01*
G01*
X165388800Y-70866000D02*
G75*
G03*
X165388800Y-70866000I-2000000J0D01*
G01*
D14*
X142460000Y-35510000D02*
X142460000Y-47510000D01*
X136460000Y-35510000D02*
X142460000Y-35510000D01*
X142460000Y-47510000D02*
X136460000Y-47510000D01*
X136460000Y-47510000D02*
X136460000Y-35510000D01*
X166891400Y-92219800D02*
X166891400Y-97619800D01*
X166891400Y-97619800D02*
X165391400Y-97619800D01*
X165641400Y-94419800D02*
X166141400Y-95319800D01*
X165391400Y-92219800D02*
X166891400Y-92219800D01*
X166641400Y-94419800D02*
X165641400Y-94419800D01*
X166641400Y-95419800D02*
X165641400Y-95419800D01*
X166141400Y-95319800D02*
X166641400Y-94419800D01*
X165391400Y-97619800D02*
X165391400Y-92219800D01*
X100298200Y-91338400D02*
X99398200Y-90838400D01*
X102598200Y-92088400D02*
X97198200Y-92088400D01*
X99398200Y-91838400D02*
X100298200Y-91338400D01*
X97198200Y-90588400D02*
X102598200Y-90588400D01*
X97198200Y-92088400D02*
X97198200Y-90588400D01*
X99398200Y-90838400D02*
X99398200Y-91838400D01*
X102598200Y-90588400D02*
X102598200Y-92088400D01*
X100398200Y-90838400D02*
X100398200Y-91838400D01*
X121749800Y-106642600D02*
X116349800Y-106642600D01*
X118549800Y-106392600D02*
X119449800Y-105892600D01*
X121749800Y-105142600D02*
X121749800Y-106642600D01*
X118549800Y-105392600D02*
X118549800Y-106392600D01*
X116349800Y-105142600D02*
X121749800Y-105142600D01*
X119449800Y-105892600D02*
X118549800Y-105392600D01*
X116349800Y-106642600D02*
X116349800Y-105142600D01*
X119549800Y-105392600D02*
X119549800Y-106392600D01*
X166141400Y-82594400D02*
X166641400Y-81694400D01*
X165641400Y-81694400D02*
X166141400Y-82594400D01*
X166641400Y-81694400D02*
X165641400Y-81694400D01*
X166891400Y-79494400D02*
X166891400Y-84894400D01*
X165391400Y-79494400D02*
X166891400Y-79494400D01*
X165391400Y-84894400D02*
X165391400Y-79494400D01*
X166891400Y-84894400D02*
X165391400Y-84894400D01*
X166641400Y-82694400D02*
X165641400Y-82694400D01*
X118549800Y-101439600D02*
X119449800Y-100939600D01*
X118549800Y-100439600D02*
X118549800Y-101439600D01*
X119449800Y-100939600D02*
X118549800Y-100439600D01*
X116349800Y-101689600D02*
X116349800Y-100189600D01*
X119549800Y-100439600D02*
X119549800Y-101439600D01*
X121749800Y-101689600D02*
X116349800Y-101689600D01*
X121749800Y-100189600D02*
X121749800Y-101689600D01*
X116349800Y-100189600D02*
X121749800Y-100189600D01*
X135349000Y-104660000D02*
X140749000Y-104660000D01*
X138549000Y-104910000D02*
X138549000Y-105910000D01*
X137549000Y-104910000D02*
X137549000Y-105910000D01*
X140749000Y-106160000D02*
X135349000Y-106160000D01*
X140749000Y-104660000D02*
X140749000Y-106160000D01*
X135349000Y-106160000D02*
X135349000Y-104660000D01*
X137549000Y-105910000D02*
X138449000Y-105410000D01*
X138449000Y-105410000D02*
X137549000Y-104910000D01*
X140749000Y-76008800D02*
X140749000Y-77508800D01*
X138449000Y-76758800D02*
X137549000Y-76258800D01*
X135349000Y-76008800D02*
X140749000Y-76008800D01*
X138549000Y-76258800D02*
X138549000Y-77258800D01*
X137549000Y-77258800D02*
X138449000Y-76758800D01*
X137549000Y-76258800D02*
X137549000Y-77258800D01*
X140749000Y-77508800D02*
X135349000Y-77508800D01*
X135349000Y-77508800D02*
X135349000Y-76008800D01*
X138549000Y-95461200D02*
X138549000Y-96461200D01*
X140749000Y-96711200D02*
X135349000Y-96711200D01*
X135349000Y-95211200D02*
X140749000Y-95211200D01*
X135349000Y-96711200D02*
X135349000Y-95211200D01*
X137549000Y-96461200D02*
X138449000Y-95961200D01*
X137549000Y-95461200D02*
X137549000Y-96461200D01*
X140749000Y-95211200D02*
X140749000Y-96711200D01*
X138449000Y-95961200D02*
X137549000Y-95461200D01*
X159545000Y-105982200D02*
X154145000Y-105982200D01*
X156345000Y-104732200D02*
X156345000Y-105732200D01*
X154145000Y-105982200D02*
X154145000Y-104482200D01*
X157245000Y-105232200D02*
X156345000Y-104732200D01*
X156345000Y-105732200D02*
X157245000Y-105232200D01*
X154145000Y-104482200D02*
X159545000Y-104482200D01*
X157345000Y-104732200D02*
X157345000Y-105732200D01*
X159545000Y-104482200D02*
X159545000Y-105982200D01*
X154348200Y-85279800D02*
X159748200Y-85279800D01*
X159748200Y-86779800D02*
X154348200Y-86779800D01*
X154348200Y-86779800D02*
X154348200Y-85279800D01*
X157548200Y-85529800D02*
X157548200Y-86529800D01*
X159748200Y-85279800D02*
X159748200Y-86779800D01*
X157448200Y-86029800D02*
X156548200Y-85529800D01*
X156548200Y-85529800D02*
X156548200Y-86529800D01*
X156548200Y-86529800D02*
X157448200Y-86029800D01*
X137549000Y-98712400D02*
X137549000Y-99712400D01*
X138449000Y-99212400D02*
X137549000Y-98712400D01*
X135349000Y-99962400D02*
X135349000Y-98462400D01*
X138549000Y-98712400D02*
X138549000Y-99712400D01*
X135349000Y-98462400D02*
X140749000Y-98462400D01*
X140749000Y-99962400D02*
X135349000Y-99962400D01*
X140749000Y-98462400D02*
X140749000Y-99962400D01*
X137549000Y-99712400D02*
X138449000Y-99212400D01*
X164050600Y-95419800D02*
X163050600Y-95419800D01*
X162800600Y-92219800D02*
X164300600Y-92219800D01*
X164050600Y-94419800D02*
X163050600Y-94419800D01*
X164300600Y-92219800D02*
X164300600Y-97619800D01*
X164300600Y-97619800D02*
X162800600Y-97619800D01*
X163050600Y-94419800D02*
X163550600Y-95319800D01*
X163550600Y-95319800D02*
X164050600Y-94419800D01*
X162800600Y-97619800D02*
X162800600Y-92219800D01*
X160053000Y-50150200D02*
X160053000Y-51650200D01*
X156853000Y-51400200D02*
X157753000Y-50900200D01*
X154653000Y-50150200D02*
X160053000Y-50150200D01*
X154653000Y-50150200D02*
X154653000Y-51650200D01*
X160053000Y-51650200D02*
X154653000Y-51650200D01*
X156853000Y-50400200D02*
X156853000Y-51400200D01*
X157853000Y-50400200D02*
X157853000Y-51400200D01*
X157753000Y-50900200D02*
X156853000Y-50400200D01*
D13*
X160329000Y-37138200D02*
X164414000Y-37138200D01*
X164414000Y-39008200D02*
X160329000Y-39008200D01*
X160329000Y-39008200D02*
X160329000Y-37138200D01*
D14*
X95216600Y-110066200D02*
X95216600Y-111066200D01*
X97416600Y-111316200D02*
X92016600Y-111316200D01*
X94216600Y-110066200D02*
X94216600Y-111066200D01*
X95116600Y-110566200D02*
X94216600Y-110066200D01*
X97416600Y-109816200D02*
X97416600Y-111316200D01*
X92016600Y-111316200D02*
X92016600Y-109816200D01*
X92016600Y-109816200D02*
X97416600Y-109816200D01*
X94216600Y-111066200D02*
X95116600Y-110566200D01*
X119549800Y-81186400D02*
X119549800Y-82186400D01*
X118549800Y-82186400D02*
X119449800Y-81686400D01*
X121749800Y-80936400D02*
X121749800Y-82436400D01*
X118549800Y-81186400D02*
X118549800Y-82186400D01*
X116349800Y-82436400D02*
X116349800Y-80936400D01*
X121749800Y-82436400D02*
X116349800Y-82436400D01*
X119449800Y-81686400D02*
X118549800Y-81186400D01*
X116349800Y-80936400D02*
X121749800Y-80936400D01*
X154653000Y-52436200D02*
X160053000Y-52436200D01*
X157753000Y-53186200D02*
X156853000Y-52686200D01*
X156853000Y-52686200D02*
X156853000Y-53686200D01*
X156853000Y-53686200D02*
X157753000Y-53186200D01*
X160053000Y-53936200D02*
X154653000Y-53936200D01*
X154653000Y-52436200D02*
X154653000Y-53936200D01*
X160053000Y-52436200D02*
X160053000Y-53936200D01*
X157853000Y-52686200D02*
X157853000Y-53686200D01*
D13*
X170958000Y-64188800D02*
X172958000Y-64188800D01*
X170958000Y-61388800D02*
X170958000Y-64188800D01*
X172958000Y-64188800D02*
X172958000Y-61388800D01*
X172958000Y-61388800D02*
X170958000Y-61388800D01*
X175961800Y-79701001D02*
X177961800Y-79701001D01*
X175961800Y-76901001D02*
X175961800Y-79701001D01*
X177961800Y-79701001D02*
X177961800Y-76901001D01*
X177961800Y-76901001D02*
X175961800Y-76901001D01*
X171034200Y-79748501D02*
X173034200Y-79748501D01*
X173034200Y-79748501D02*
X173034200Y-76948501D01*
X173034200Y-76948501D02*
X171034200Y-76948501D01*
X171034200Y-76948501D02*
X171034200Y-79748501D01*
X155094000Y-34697600D02*
X154894000Y-34487600D01*
X156594000Y-38837600D02*
X156794000Y-38837600D01*
X153794000Y-34697600D02*
X153994000Y-34487600D01*
X158644000Y-36997600D02*
X158644000Y-37787600D01*
X153594000Y-38837600D02*
X155294000Y-38837600D01*
X153794000Y-35987600D02*
X153794000Y-34697600D01*
X152344000Y-35987600D02*
X158044000Y-35987600D01*
X153994000Y-34487600D02*
X154894000Y-34487600D01*
X155094000Y-34697600D02*
X155094000Y-35987600D01*
X151744000Y-37787600D02*
X151744000Y-36997600D01*
X124971000Y-49130200D02*
X122171000Y-49130200D01*
X124971000Y-51130200D02*
X124971000Y-49130200D01*
X122171000Y-49130200D02*
X122171000Y-51130200D01*
X122171000Y-51130200D02*
X124971000Y-51130200D01*
X124971000Y-46590200D02*
X122171000Y-46590200D01*
X122171000Y-46590200D02*
X122171000Y-48590200D01*
X124971000Y-48590200D02*
X124971000Y-46590200D01*
X122171000Y-48590200D02*
X124971000Y-48590200D01*
X124971000Y-44050200D02*
X122171000Y-44050200D01*
X122171000Y-44050200D02*
X122171000Y-46050200D01*
X124971000Y-46050200D02*
X124971000Y-44050200D01*
X122171000Y-46050200D02*
X124971000Y-46050200D01*
X124971000Y-43510200D02*
X124971000Y-41510200D01*
X122171000Y-41510200D02*
X122171000Y-43510200D01*
X124971000Y-41510200D02*
X122171000Y-41510200D01*
X122171000Y-43510200D02*
X124971000Y-43510200D01*
X175911000Y-64163400D02*
X177911000Y-64163400D01*
X177911000Y-61363400D02*
X175911000Y-61363400D01*
X175911000Y-61363400D02*
X175911000Y-64163400D01*
X177911000Y-64163400D02*
X177911000Y-61363400D01*
D18*
X166141400Y-98729800D03*
D19*
X166141400Y-91109800D03*
D18*
X103708200Y-91338400D03*
D19*
X96088200Y-91338400D03*
D18*
X122859800Y-105892600D03*
D19*
X115239800Y-105892600D03*
D18*
X166141400Y-86004400D03*
D19*
X166141400Y-78384400D03*
D18*
X122859800Y-100939600D03*
D19*
X115239800Y-100939600D03*
D18*
X141859000Y-105410000D03*
D19*
X134239000Y-105410000D03*
D18*
X141859000Y-76758800D03*
D19*
X134239000Y-76758800D03*
D18*
X141859000Y-95961200D03*
D19*
X134239000Y-95961200D03*
D18*
X160655000Y-105232200D03*
D19*
X153035000Y-105232200D03*
D18*
X160858200Y-86029800D03*
D19*
X153238200Y-86029800D03*
D18*
X141859000Y-99212400D03*
D19*
X134239000Y-99212400D03*
D18*
X163550600Y-98729800D03*
D19*
X163550600Y-91109800D03*
D18*
X98526600Y-110566200D03*
D19*
X90906600Y-110566200D03*
D18*
X122859800Y-81686400D03*
D19*
X115239800Y-81686400D03*
%LPC*%
D20*
X176800000Y-82600000D03*
D21*
X171800000Y-82600000D03*
X174300000Y-82600000D03*
D22*
X179900000Y-90100000D03*
X168700000Y-90100000D03*
D21*
X171800000Y-97100000D03*
X176800000Y-97100000D03*
D23*
X152750000Y-101450000D03*
X147750000Y-99250000D03*
X157750000Y-99250000D03*
D24*
X147670000Y-95550000D03*
D25*
X158250000Y-95550000D03*
D24*
X157830000Y-95550000D03*
D25*
X147250000Y-95550000D03*
D26*
X152750000Y-95550000D03*
D23*
X148940000Y-93010000D03*
X150210000Y-90470000D03*
X155290000Y-90470000D03*
X156560000Y-93010000D03*
D27*
X144650000Y-99250000D03*
X145850000Y-93010000D03*
X158350000Y-90470000D03*
D28*
X155550000Y-101450000D03*
D23*
X90560000Y-104380000D03*
X91750000Y-98140000D03*
D24*
X100640000Y-100680000D03*
D25*
X101060000Y-100680000D03*
D24*
X90480000Y-100680000D03*
D23*
X93020000Y-95600000D03*
D26*
X95560000Y-100680000D03*
D25*
X90060000Y-100680000D03*
D23*
X95560000Y-106580000D03*
X100560000Y-104380000D03*
X99370000Y-98140000D03*
X98100000Y-95600000D03*
D27*
X87460000Y-104380000D03*
X88660000Y-98140000D03*
D28*
X98360000Y-106580000D03*
D27*
X101160000Y-95600000D03*
D23*
X112210000Y-85920000D03*
X119750000Y-94700000D03*
X117290000Y-85920000D03*
D24*
X119830000Y-91000000D03*
D23*
X110940000Y-88460000D03*
X109750000Y-94700000D03*
D24*
X109670000Y-91000000D03*
D23*
X118560000Y-88460000D03*
D25*
X120250000Y-91000000D03*
D23*
X114750000Y-96900000D03*
D25*
X109250000Y-91000000D03*
D26*
X114750000Y-91000000D03*
D27*
X106650000Y-94700000D03*
X107850000Y-88460000D03*
X120350000Y-85920000D03*
D28*
X117550000Y-96900000D03*
D26*
X133750000Y-86050000D03*
D23*
X129940000Y-83510000D03*
D25*
X128250000Y-86050000D03*
D23*
X136290000Y-80970000D03*
X138750000Y-89750000D03*
X128750000Y-89750000D03*
D24*
X128670000Y-86050000D03*
D23*
X137560000Y-83510000D03*
X131210000Y-80970000D03*
D25*
X139250000Y-86050000D03*
D24*
X138830000Y-86050000D03*
D23*
X133750000Y-91950000D03*
D27*
X126850000Y-83510000D03*
X125650000Y-89750000D03*
X139350000Y-80970000D03*
D28*
X136550000Y-91950000D03*
D25*
X147250000Y-76550000D03*
D23*
X156560000Y-74010000D03*
D24*
X157830000Y-76550000D03*
D23*
X152750000Y-82450000D03*
D25*
X158250000Y-76550000D03*
D24*
X147670000Y-76550000D03*
D23*
X147750000Y-80250000D03*
X155290000Y-71470000D03*
X150210000Y-71470000D03*
D26*
X152750000Y-76550000D03*
D23*
X157750000Y-80250000D03*
X148940000Y-74010000D03*
D27*
X144650000Y-80250000D03*
X145850000Y-74010000D03*
D28*
X155550000Y-82450000D03*
D27*
X158350000Y-71470000D03*
D25*
X101100000Y-81600000D03*
D24*
X100680000Y-81600000D03*
D23*
X91790000Y-79060000D03*
X99410000Y-79060000D03*
X98140000Y-76520000D03*
X90600000Y-85300000D03*
D26*
X95600000Y-81600000D03*
D23*
X95600000Y-87500000D03*
D25*
X90100000Y-81600000D03*
D23*
X93060000Y-76520000D03*
D24*
X90520000Y-81600000D03*
D23*
X100600000Y-85300000D03*
D27*
X87500000Y-85300000D03*
X88700000Y-79060000D03*
D28*
X98400000Y-87500000D03*
D27*
X101200000Y-76520000D03*
D23*
X147750000Y-118400000D03*
D25*
X147250000Y-114700000D03*
D23*
X152750000Y-120600000D03*
X148940000Y-112160000D03*
D24*
X147670000Y-114700000D03*
D23*
X156560000Y-112160000D03*
D25*
X158250000Y-114700000D03*
D23*
X150210000Y-109620000D03*
D26*
X152750000Y-114700000D03*
D23*
X157750000Y-118400000D03*
D24*
X157830000Y-114700000D03*
D23*
X155290000Y-109620000D03*
D27*
X144650000Y-118400000D03*
X145850000Y-112160000D03*
X158350000Y-109620000D03*
D28*
X155550000Y-120600000D03*
D23*
X178587578Y-111132649D03*
D24*
X169343097Y-111285199D03*
D23*
X178121999Y-117468021D03*
D26*
X174250000Y-112600000D03*
D23*
X168462740Y-114879830D03*
X173111349Y-107035696D03*
X172722968Y-118298962D03*
D25*
X168937408Y-111176495D03*
D24*
X179156903Y-113914801D03*
D25*
X179562592Y-114023505D03*
D23*
X171227223Y-109160448D03*
X178018252Y-108350497D03*
D29*
X165468370Y-114077491D03*
X168242512Y-108360697D03*
X180973985Y-109142483D03*
D30*
X175427560Y-119023656D03*
D31*
X88650000Y-38250000D03*
X88550000Y-53450000D03*
D23*
X128700000Y-70750000D03*
D25*
X139200000Y-67050000D03*
X128200000Y-67050000D03*
D23*
X129890000Y-64510000D03*
D26*
X133700000Y-67050000D03*
D23*
X138700000Y-70750000D03*
X136240000Y-61970000D03*
D24*
X128620000Y-67050000D03*
D23*
X137510000Y-64510000D03*
D24*
X138780000Y-67050000D03*
D23*
X133700000Y-72950000D03*
X131160000Y-61970000D03*
D27*
X125600000Y-70750000D03*
X126800000Y-64510000D03*
X139300000Y-61970000D03*
D28*
X136500000Y-72950000D03*
D26*
X114700000Y-114700000D03*
D25*
X120200000Y-114700000D03*
D23*
X109700000Y-118400000D03*
X118510000Y-112160000D03*
D24*
X119780000Y-114700000D03*
X109620000Y-114700000D03*
D23*
X112160000Y-109620000D03*
X117240000Y-109620000D03*
X110890000Y-112160000D03*
D25*
X109200000Y-114700000D03*
D23*
X119700000Y-118400000D03*
X114700000Y-120600000D03*
D27*
X106600000Y-118400000D03*
X107800000Y-112160000D03*
X120300000Y-109620000D03*
D28*
X117500000Y-120600000D03*
D32*
X156694000Y-37387600D03*
X153694000Y-37387600D03*
D33*
X181784000Y-40140000D03*
X132206000Y-40140000D03*
D23*
X118610000Y-69560000D03*
D24*
X109720000Y-72100000D03*
D23*
X110990000Y-69560000D03*
D25*
X109300000Y-72100000D03*
X120300000Y-72100000D03*
D23*
X117340000Y-67020000D03*
X109800000Y-75800000D03*
D26*
X114800000Y-72100000D03*
D23*
X112260000Y-67020000D03*
X114800000Y-78000000D03*
D24*
X119880000Y-72100000D03*
D23*
X119800000Y-75800000D03*
D27*
X107900000Y-69560000D03*
X106700000Y-75800000D03*
X120400000Y-67020000D03*
D28*
X117600000Y-78000000D03*
D21*
X122726000Y-38124000D03*
X129226000Y-38124000D03*
D26*
X133750000Y-114700000D03*
D23*
X129940000Y-112160000D03*
D24*
X138830000Y-114700000D03*
D25*
X128250000Y-114700000D03*
X139250000Y-114700000D03*
D23*
X136290000Y-109620000D03*
X138750000Y-118400000D03*
D24*
X128670000Y-114700000D03*
D23*
X131210000Y-109620000D03*
X137560000Y-112160000D03*
X133750000Y-120600000D03*
X128750000Y-118400000D03*
D27*
X125650000Y-118400000D03*
X126850000Y-112160000D03*
X139350000Y-109620000D03*
D28*
X136550000Y-120600000D03*
D34*
X91072000Y-38193600D03*
X92342000Y-54740000D03*
X94882000Y-54740000D03*
X93612000Y-38193600D03*
X96152000Y-38193600D03*
X97422000Y-54740000D03*
X99962000Y-54740000D03*
X98692000Y-38193600D03*
X101232000Y-38193600D03*
X102502000Y-54740000D03*
X105042000Y-54740000D03*
X103772000Y-38193600D03*
X107582000Y-54740000D03*
X106312000Y-38193600D03*
X110122000Y-54740000D03*
X108852000Y-38193600D03*
X111392000Y-38193600D03*
X112662000Y-54740000D03*
X113932000Y-38193600D03*
X115202000Y-54740000D03*
X116472000Y-38193600D03*
X117742000Y-54740000D03*
X120282000Y-54740000D03*
X119012000Y-38193600D03*
X120282000Y-39500000D03*
X119012000Y-53413600D03*
X117742000Y-39500000D03*
X116472000Y-53413600D03*
X115202000Y-39500000D03*
X113932000Y-53413600D03*
X112662000Y-39500000D03*
X111392000Y-53413600D03*
X110122000Y-39500000D03*
X108852000Y-53413600D03*
X106312000Y-53413600D03*
X107582000Y-39500000D03*
X105042000Y-39500000D03*
X103772000Y-53413600D03*
X101232000Y-53413600D03*
X102502000Y-39500000D03*
X98692000Y-53413600D03*
X99962000Y-39500000D03*
X97422000Y-39500000D03*
X96152000Y-53413600D03*
X93612000Y-53413600D03*
X94882000Y-39500000D03*
X92342000Y-39500000D03*
X91072000Y-53413600D03*
D35*
X102870000Y-70866000D03*
X102870000Y-110302800D03*
X163388800Y-110302800D03*
X163388800Y-70866000D03*
D36*
X126974600Y-50092100D03*
D37*
X126974600Y-47552100D03*
X126974600Y-45012100D03*
X126974600Y-42472100D03*
D38*
X183041800Y-44460000D03*
X183041800Y-47060000D03*
D39*
X183688000Y-45760000D03*
X159688000Y-45760000D03*
D38*
X160388000Y-45710000D03*
X154593800Y-47060000D03*
X154593800Y-44460000D03*
D39*
X155240000Y-45760000D03*
X131240000Y-45760000D03*
D38*
X131940000Y-45710000D03*
D31*
X89797000Y-39470200D03*
X89797000Y-54710200D03*
D20*
X176900000Y-59100000D03*
D21*
X171900000Y-59100000D03*
X174400000Y-59100000D03*
D22*
X168800000Y-66600000D03*
X180000000Y-66600000D03*
D21*
X171900000Y-73600000D03*
X176900000Y-73600000D03*
D40*
X139460000Y-44010000D03*
X141210000Y-44010000D03*
X139460000Y-37010000D03*
X141210000Y-37010000D03*
D41*
X139110000Y-47310000D03*
X141560000Y-47310000D03*
X137360000Y-38810000D03*
X143310000Y-38810000D03*
X137360000Y-41810000D03*
X143310000Y-41810000D03*
X137360000Y-45810000D03*
X143310000Y-45810000D03*
D42*
X166141400Y-98729800D03*
D43*
X166141400Y-96694800D03*
D44*
X166141400Y-91109800D03*
D43*
X166141400Y-93144800D03*
D45*
X103708200Y-91338400D03*
D46*
X101673200Y-91338400D03*
X98123200Y-91338400D03*
D44*
X96088200Y-91338400D03*
D46*
X120824800Y-105892600D03*
D45*
X122859800Y-105892600D03*
D46*
X117274800Y-105892600D03*
D44*
X115239800Y-105892600D03*
D43*
X166141400Y-83969400D03*
D42*
X166141400Y-86004400D03*
D43*
X166141400Y-80419400D03*
D44*
X166141400Y-78384400D03*
D45*
X122859800Y-100939600D03*
D46*
X120824800Y-100939600D03*
X117274800Y-100939600D03*
D44*
X115239800Y-100939600D03*
D46*
X139824000Y-105410000D03*
D45*
X141859000Y-105410000D03*
D46*
X136274000Y-105410000D03*
D44*
X134239000Y-105410000D03*
D46*
X139824000Y-76758800D03*
D45*
X141859000Y-76758800D03*
D44*
X134239000Y-76758800D03*
D46*
X136274000Y-76758800D03*
X139824000Y-95961200D03*
D45*
X141859000Y-95961200D03*
D46*
X136274000Y-95961200D03*
D44*
X134239000Y-95961200D03*
D46*
X158620000Y-105232200D03*
D45*
X160655000Y-105232200D03*
D46*
X155070000Y-105232200D03*
D44*
X153035000Y-105232200D03*
D46*
X158823200Y-86029800D03*
D45*
X160858200Y-86029800D03*
D44*
X153238200Y-86029800D03*
D46*
X155273200Y-86029800D03*
X139824000Y-99212400D03*
D45*
X141859000Y-99212400D03*
D44*
X134239000Y-99212400D03*
D46*
X136274000Y-99212400D03*
D42*
X163550600Y-98729800D03*
D43*
X163550600Y-96694800D03*
X163550600Y-93144800D03*
D44*
X163550600Y-91109800D03*
D46*
X159128000Y-50900200D03*
X155578000Y-50900200D03*
D47*
X161376500Y-38073200D03*
X164251500Y-38073200D03*
D46*
X96491600Y-110566200D03*
D45*
X98526600Y-110566200D03*
D44*
X90906600Y-110566200D03*
D46*
X92941600Y-110566200D03*
X120824800Y-81686400D03*
D45*
X122859800Y-81686400D03*
D44*
X115239800Y-81686400D03*
D46*
X117274800Y-81686400D03*
X159128000Y-53186200D03*
X155578000Y-53186200D03*
D48*
X171958000Y-63513800D03*
D49*
X171958000Y-62063800D03*
D50*
X176961800Y-77576001D03*
D51*
X176961800Y-79026001D03*
D50*
X172034200Y-77623501D03*
D51*
X172034200Y-79073501D03*
D32*
X156694000Y-37387600D03*
D52*
X158844000Y-36287600D03*
X151544000Y-36287600D03*
D32*
X153694000Y-37387600D03*
D52*
X151544000Y-38497600D03*
X158844000Y-38497600D03*
D53*
X152944000Y-39147600D03*
X155944000Y-39147600D03*
X157444000Y-39147600D03*
D54*
X122846000Y-50130200D03*
D55*
X124296000Y-50130200D03*
D54*
X122846000Y-47590200D03*
D55*
X124296000Y-47590200D03*
D54*
X122846000Y-45050200D03*
D55*
X124296000Y-45050200D03*
D54*
X122846000Y-42510200D03*
D55*
X124296000Y-42510200D03*
D48*
X176911000Y-63488400D03*
D49*
X176911000Y-62038400D03*
M02*
