G04 #@! TF.GenerationSoftware,KiCad,Pcbnew,(5.1.4-0-10_14)*
G04 #@! TF.CreationDate,2019-11-24T20:29:24+09:00*
G04 #@! TF.ProjectId,palette1202-PM,70616c65-7474-4653-9132-30322d504d2e,rev?*
G04 #@! TF.SameCoordinates,Original*
G04 #@! TF.FileFunction,Profile,NP*
%FSLAX46Y46*%
G04 Gerber Fmt 4.6, Leading zero omitted, Abs format (unit mm)*
G04 Created by KiCad (PCBNEW (5.1.4-0-10_14)) date 2019-11-24 20:29:24*
%MOMM*%
%LPD*%
G04 APERTURE LIST*
%ADD10C,0.050000*%
G04 APERTURE END LIST*
D10*
X186000000Y-40444240D02*
X186001282Y-40387287D01*
X186001282Y-40387287D02*
X186001504Y-40336615D01*
X186001504Y-40336615D02*
X186000754Y-40281364D01*
X186000754Y-40281364D02*
X185999192Y-40231746D01*
X185999192Y-40231746D02*
X185996730Y-40181161D01*
X185996730Y-40181161D02*
X185993092Y-40126684D01*
X185993092Y-40126684D02*
X185988891Y-40077196D01*
X185988891Y-40077196D02*
X185983927Y-40028543D01*
X185983927Y-40028543D02*
X185977787Y-39977231D01*
X185977787Y-39977231D02*
X185971679Y-39932568D01*
X185971679Y-39932568D02*
X185964611Y-39886404D01*
X185964611Y-39886404D02*
X185957225Y-39842781D01*
X185957225Y-39842781D02*
X185949294Y-39799953D01*
X185949294Y-39799953D02*
X185940617Y-39756789D01*
X185940617Y-39756789D02*
X185931675Y-39715554D01*
X185931675Y-39715554D02*
X185921745Y-39672863D01*
X185921745Y-39672863D02*
X185911611Y-39632092D01*
X185911611Y-39632092D02*
X185899388Y-39586022D01*
X185899388Y-39586022D02*
X185888344Y-39546857D01*
X185888344Y-39546857D02*
X185875926Y-39505187D01*
X185875926Y-39505187D02*
X185862724Y-39463247D01*
X185862724Y-39463247D02*
X185849815Y-39424279D01*
X185849815Y-39424279D02*
X185836368Y-39385564D01*
X185836368Y-39385564D02*
X185822388Y-39347102D01*
X185822388Y-39347102D02*
X185807878Y-39308897D01*
X185807878Y-39308897D02*
X185793690Y-39273057D01*
X185793690Y-39273057D02*
X185778160Y-39235365D01*
X185778160Y-39235365D02*
X185763020Y-39200017D01*
X185763020Y-39200017D02*
X185746489Y-39162854D01*
X185746489Y-39162854D02*
X185730650Y-39128524D01*
X185730650Y-39128524D02*
X185712895Y-39091396D01*
X185712895Y-39091396D02*
X185695895Y-39057077D01*
X185695895Y-39057077D02*
X185676374Y-39019028D01*
X185676374Y-39019028D02*
X185658441Y-38985261D01*
X185658441Y-38985261D02*
X185639255Y-38950289D01*
X185639255Y-38950289D02*
X185620160Y-38916583D01*
X185620160Y-38916583D02*
X185600912Y-38883644D01*
X185600912Y-38883644D02*
X185580364Y-38849545D01*
X185580364Y-38849545D02*
X185559956Y-38816701D01*
X185559956Y-38816701D02*
X185539427Y-38784620D01*
X185539427Y-38784620D02*
X185518488Y-38752826D01*
X185518488Y-38752826D02*
X185495869Y-38719478D01*
X185495869Y-38719478D02*
X185470211Y-38682815D01*
X185470211Y-38682815D02*
X185447966Y-38651977D01*
X185447966Y-38651977D02*
X185426667Y-38623230D01*
X185426667Y-38623230D02*
X185403998Y-38593425D01*
X185403998Y-38593425D02*
X185381647Y-38564798D01*
X185381647Y-38564798D02*
X185359296Y-38536891D01*
X185359296Y-38536891D02*
X185336249Y-38508832D01*
X185336249Y-38508832D02*
X185307773Y-38475123D01*
X185307773Y-38475123D02*
X185284334Y-38448138D01*
X185284334Y-38448138D02*
X185259073Y-38419782D01*
X185259073Y-38419782D02*
X185231926Y-38390115D01*
X185231926Y-38390115D02*
X185204761Y-38361231D01*
X185204761Y-38361231D02*
X185177984Y-38333512D01*
X185177984Y-38333512D02*
X185152823Y-38308116D01*
X185152823Y-38308116D02*
X185125746Y-38281466D01*
X185125746Y-38281466D02*
X185099946Y-38256702D01*
X185099946Y-38256702D02*
X185073842Y-38232251D01*
X185073842Y-38232251D02*
X185045775Y-38206615D01*
X185045775Y-38206615D02*
X185019052Y-38182816D01*
X185019052Y-38182816D02*
X184990762Y-38158242D01*
X184990762Y-38158242D02*
X184963010Y-38134743D01*
X184963010Y-38134743D02*
X184935393Y-38111932D01*
X184935393Y-38111932D02*
X184907493Y-38089450D01*
X184907493Y-38089450D02*
X184879309Y-38067301D01*
X184879309Y-38067301D02*
X184850847Y-38045489D01*
X184850847Y-38045489D02*
X184818495Y-38021352D01*
X184818495Y-38021352D02*
X184789450Y-38000261D01*
X184789450Y-38000261D02*
X184759674Y-37979192D01*
X184759674Y-37979192D02*
X184728697Y-37957852D01*
X184728697Y-37957852D02*
X184695083Y-37935344D01*
X184695083Y-37935344D02*
X184664455Y-37915408D01*
X184664455Y-37915408D02*
X184632609Y-37895246D01*
X184632609Y-37895246D02*
X184600006Y-37875186D01*
X184600006Y-37875186D02*
X184567119Y-37855535D01*
X184567119Y-37855535D02*
X184532483Y-37835458D01*
X184532483Y-37835458D02*
X184497057Y-37815564D01*
X184497057Y-37815564D02*
X184462821Y-37796940D01*
X184462821Y-37796940D02*
X184427303Y-37778231D01*
X184427303Y-37778231D02*
X184392515Y-37760496D01*
X184392515Y-37760496D02*
X184356441Y-37742712D01*
X184356441Y-37742712D02*
X184317001Y-37723959D01*
X184317001Y-37723959D02*
X184281903Y-37707867D01*
X184281903Y-37707867D02*
X184244473Y-37691311D01*
X184244473Y-37691311D02*
X184204668Y-37674377D01*
X184204668Y-37674377D02*
X184168798Y-37659700D01*
X184168798Y-37659700D02*
X184128429Y-37643835D01*
X184128429Y-37643835D02*
X184091530Y-37629926D01*
X184091530Y-37629926D02*
X184046834Y-37613823D01*
X184046834Y-37613823D02*
X184009424Y-37600964D01*
X184009424Y-37600964D02*
X183970694Y-37588238D01*
X183970694Y-37588238D02*
X183931180Y-37575858D01*
X183931180Y-37575858D02*
X183891427Y-37564011D01*
X183891427Y-37564011D02*
X183851443Y-37552703D01*
X183851443Y-37552703D02*
X183811233Y-37541937D01*
X183811233Y-37541937D02*
X183770797Y-37531717D01*
X183770797Y-37531717D02*
X183729578Y-37521919D01*
X183729578Y-37521919D02*
X183685291Y-37512078D01*
X183685291Y-37512078D02*
X183643619Y-37503463D01*
X183643619Y-37503463D02*
X183598285Y-37494792D01*
X183598285Y-37494792D02*
X183552130Y-37486709D01*
X183552130Y-37486709D02*
X183507479Y-37479599D01*
X183507479Y-37479599D02*
X183463194Y-37473225D01*
X183463194Y-37473225D02*
X183418702Y-37467501D01*
X183418702Y-37467501D02*
X183372239Y-37462243D01*
X183372239Y-37462243D02*
X183317271Y-37456965D01*
X183317271Y-37456965D02*
X183269757Y-37453220D01*
X183269757Y-37453220D02*
X183217854Y-37449989D01*
X183217854Y-37449989D02*
X183169321Y-37447777D01*
X183169321Y-37447777D02*
X183119384Y-37446309D01*
X183119384Y-37446309D02*
X183068037Y-37445656D01*
X183068037Y-37445656D02*
X183054716Y-37445629D01*
X89000000Y-37402269D02*
X88949105Y-37402711D01*
X88949105Y-37402711D02*
X88894873Y-37404161D01*
X88894873Y-37404161D02*
X88845557Y-37406359D01*
X88845557Y-37406359D02*
X88796436Y-37409384D01*
X88796436Y-37409384D02*
X88749844Y-37413029D01*
X88749844Y-37413029D02*
X88701126Y-37417656D01*
X88701126Y-37417656D02*
X88654928Y-37422810D01*
X88654928Y-37422810D02*
X88609503Y-37428618D01*
X88609503Y-37428618D02*
X88564852Y-37435042D01*
X88564852Y-37435042D02*
X88519838Y-37442245D01*
X88519838Y-37442245D02*
X88477297Y-37449725D01*
X88477297Y-37449725D02*
X88433828Y-37458051D01*
X88433828Y-37458051D02*
X88391130Y-37466906D01*
X88391130Y-37466906D02*
X88349201Y-37476260D01*
X88349201Y-37476260D02*
X88306373Y-37486495D01*
X88306373Y-37486495D02*
X88265983Y-37496787D01*
X88265983Y-37496787D02*
X88224700Y-37507949D01*
X88224700Y-37507949D02*
X88185282Y-37519224D01*
X88185282Y-37519224D02*
X88146075Y-37531042D01*
X88146075Y-37531042D02*
X88104922Y-37544101D01*
X88104922Y-37544101D02*
X88061868Y-37558490D01*
X88061868Y-37558490D02*
X88021226Y-37572768D01*
X88021226Y-37572768D02*
X87982956Y-37586834D01*
X87982956Y-37586834D02*
X87946499Y-37600803D01*
X87946499Y-37600803D02*
X87905029Y-37617381D01*
X87905029Y-37617381D02*
X87869044Y-37632369D01*
X87869044Y-37632369D02*
X87830189Y-37649190D01*
X87830189Y-37649190D02*
X87795192Y-37664915D01*
X87795192Y-37664915D02*
X87760930Y-37680845D01*
X87760930Y-37680845D02*
X87723858Y-37698696D01*
X87723858Y-37698696D02*
X87689565Y-37715778D01*
X87689565Y-37715778D02*
X87655510Y-37733300D01*
X87655510Y-37733300D02*
X87621695Y-37751254D01*
X87621695Y-37751254D02*
X87588127Y-37769637D01*
X87588127Y-37769637D02*
X87554804Y-37788449D01*
X87554804Y-37788449D02*
X87521733Y-37807684D01*
X87521733Y-37807684D02*
X87488917Y-37827341D01*
X87488917Y-37827341D02*
X87456359Y-37847415D01*
X87456359Y-37847415D02*
X87424063Y-37867900D01*
X87424063Y-37867900D02*
X87392502Y-37888485D01*
X87392502Y-37888485D02*
X87362133Y-37908835D01*
X87362133Y-37908835D02*
X87328782Y-37931805D01*
X87328782Y-37931805D02*
X87299397Y-37952599D01*
X87299397Y-37952599D02*
X87270260Y-37973744D01*
X87270260Y-37973744D02*
X87241372Y-37995239D01*
X87241372Y-37995239D02*
X87212737Y-38017079D01*
X87212737Y-38017079D02*
X87184358Y-38039263D01*
X87184358Y-38039263D02*
X87152742Y-38064624D01*
X87152742Y-38064624D02*
X87124485Y-38087887D01*
X87124485Y-38087887D02*
X87097357Y-38110762D01*
X87097357Y-38110762D02*
X87068369Y-38135814D01*
X87068369Y-38135814D02*
X87041365Y-38159731D01*
X87041365Y-38159731D02*
X87014637Y-38183972D01*
X87014637Y-38183972D02*
X86986540Y-38210083D01*
X86986540Y-38210083D02*
X86957135Y-38238121D01*
X86957135Y-38238121D02*
X86931701Y-38262982D01*
X86931701Y-38262982D02*
X86905751Y-38288954D01*
X86905751Y-38288954D02*
X86877352Y-38318093D01*
X86877352Y-38318093D02*
X86833914Y-38364195D01*
X86833914Y-38364195D02*
X86806471Y-38394322D01*
X86806471Y-38394322D02*
X86770472Y-38435079D01*
X86770472Y-38435079D02*
X86745389Y-38464351D01*
X86745389Y-38464351D02*
X86719210Y-38495706D01*
X86719210Y-38495706D02*
X86694848Y-38525652D01*
X86694848Y-38525652D02*
X86670841Y-38555922D01*
X86670841Y-38555922D02*
X86648918Y-38584250D01*
X86648918Y-38584250D02*
X86615775Y-38628399D01*
X86615775Y-38628399D02*
X86594315Y-38657874D01*
X86594315Y-38657874D02*
X86573184Y-38687623D01*
X86573184Y-38687623D02*
X86552384Y-38717643D01*
X86552384Y-38717643D02*
X86531919Y-38747929D01*
X86531919Y-38747929D02*
X86509608Y-38781837D01*
X86509608Y-38781837D02*
X86488632Y-38814613D01*
X86488632Y-38814613D02*
X86464452Y-38853548D01*
X86464452Y-38853548D02*
X86445203Y-38885473D01*
X86445203Y-38885473D02*
X86426605Y-38917163D01*
X86426605Y-38917163D02*
X86408359Y-38949102D01*
X86408359Y-38949102D02*
X86388260Y-38985330D01*
X86388260Y-38985330D02*
X86369962Y-39019314D01*
X86369962Y-39019314D02*
X86352590Y-39052537D01*
X86352590Y-39052537D02*
X86334817Y-39087554D01*
X86334817Y-39087554D02*
X86317716Y-39122316D01*
X86317716Y-39122316D02*
X86301512Y-39156281D01*
X86301512Y-39156281D02*
X86284976Y-39192068D01*
X86284976Y-39192068D02*
X86267930Y-39230235D01*
X86267930Y-39230235D02*
X86252272Y-39266541D01*
X86252272Y-39266541D02*
X86237049Y-39303094D01*
X86237049Y-39303094D02*
X86222261Y-39339890D01*
X86222261Y-39339890D02*
X86207913Y-39376926D01*
X86207913Y-39376926D02*
X86194010Y-39414202D01*
X86194010Y-39414202D02*
X86179001Y-39456138D01*
X86179001Y-39456138D02*
X86166047Y-39493902D01*
X86166047Y-39493902D02*
X86153552Y-39531896D01*
X86153552Y-39531896D02*
X86140816Y-39572364D01*
X86140816Y-39572364D02*
X86128601Y-39613080D01*
X86128601Y-39613080D02*
X86116908Y-39654038D01*
X86116908Y-39654038D02*
X86105891Y-39694660D01*
X86105891Y-39694660D02*
X86095103Y-39736664D01*
X86095103Y-39736664D02*
X86085000Y-39778325D01*
X86085000Y-39778325D02*
X86075437Y-39820212D01*
X86075437Y-39820212D02*
X86066416Y-39862320D01*
X86066416Y-39862320D02*
X86057940Y-39904645D01*
X86057940Y-39904645D02*
X86050016Y-39947185D01*
X86050016Y-39947185D02*
X86042649Y-39989934D01*
X86042649Y-39989934D02*
X86035478Y-40035281D01*
X86035478Y-40035281D02*
X86028935Y-40080853D01*
X86028935Y-40080853D02*
X86023028Y-40126645D01*
X86023028Y-40126645D02*
X86017755Y-40172652D01*
X86017755Y-40172652D02*
X86012901Y-40221307D01*
X86012901Y-40221307D02*
X86008812Y-40269577D01*
X86008812Y-40269577D02*
X86005506Y-40316836D01*
X86005506Y-40316836D02*
X86002788Y-40366147D01*
X86002788Y-40366147D02*
X86000803Y-40415669D01*
X86000803Y-40415669D02*
X86000000Y-40444240D01*
X186000000Y-40444240D02*
X186000000Y-121210692D01*
X86000000Y-121210692D02*
X86000000Y-40444240D01*
X89000000Y-37402269D02*
X183054716Y-37445629D01*
X89145183Y-124209303D02*
X183150000Y-124209303D01*
X86000000Y-121210692D02*
X86005008Y-121262802D01*
X86005008Y-121262802D02*
X86010374Y-121311083D01*
X86010374Y-121311083D02*
X86016099Y-121356773D01*
X86016099Y-121356773D02*
X86022340Y-121401684D01*
X86022340Y-121401684D02*
X86028977Y-121445226D01*
X86028977Y-121445226D02*
X86036470Y-121490372D01*
X86036470Y-121490372D02*
X86044116Y-121532963D01*
X86044116Y-121532963D02*
X86053705Y-121582426D01*
X86053705Y-121582426D02*
X86062490Y-121624625D01*
X86062490Y-121624625D02*
X86071798Y-121666639D01*
X86071798Y-121666639D02*
X86082744Y-121713092D01*
X86082744Y-121713092D02*
X86093136Y-121754695D01*
X86093136Y-121754695D02*
X86104038Y-121796100D01*
X86104038Y-121796100D02*
X86116093Y-121839579D01*
X86116093Y-121839579D02*
X86127859Y-121879990D01*
X86127859Y-121879990D02*
X86139582Y-121918497D01*
X86139582Y-121918497D02*
X86152662Y-121959624D01*
X86152662Y-121959624D02*
X86165485Y-121998284D01*
X86165485Y-121998284D02*
X86178560Y-122036183D01*
X86178560Y-122036183D02*
X86193483Y-122077748D01*
X86193483Y-122077748D02*
X86207465Y-122115213D01*
X86207465Y-122115213D02*
X86221870Y-122152468D01*
X86221870Y-122152468D02*
X86236477Y-122188963D01*
X86236477Y-122188963D02*
X86251719Y-122225787D01*
X86251719Y-122225787D02*
X86267610Y-122262925D01*
X86267610Y-122262925D02*
X86283688Y-122299297D01*
X86283688Y-122299297D02*
X86300175Y-122335440D01*
X86300175Y-122335440D02*
X86317070Y-122371352D01*
X86317070Y-122371352D02*
X86334368Y-122407025D01*
X86334368Y-122407025D02*
X86351014Y-122440381D01*
X86351014Y-122440381D02*
X86368012Y-122473522D01*
X86368012Y-122473522D02*
X86386459Y-122508496D01*
X86386459Y-122508496D02*
X86404177Y-122541184D01*
X86404177Y-122541184D02*
X86424524Y-122577689D01*
X86424524Y-122577689D02*
X86442973Y-122609896D01*
X86442973Y-122609896D02*
X86461762Y-122641874D01*
X86461762Y-122641874D02*
X86480584Y-122673123D01*
X86480584Y-122673123D02*
X86500040Y-122704635D01*
X86500040Y-122704635D02*
X86519825Y-122735906D01*
X86519825Y-122735906D02*
X86540259Y-122767419D01*
X86540259Y-122767419D02*
X86561670Y-122799634D01*
X86561670Y-122799634D02*
X86582459Y-122830157D01*
X86582459Y-122830157D02*
X86606229Y-122864192D01*
X86606229Y-122864192D02*
X86628035Y-122894644D01*
X86628035Y-122894644D02*
X86649822Y-122924364D01*
X86649822Y-122924364D02*
X86671925Y-122953827D01*
X86671925Y-122953827D02*
X86694337Y-122983025D01*
X86694337Y-122983025D02*
X86717060Y-123011959D01*
X86717060Y-123011959D02*
X86740087Y-123040621D01*
X86740087Y-123040621D02*
X86763418Y-123069012D01*
X86763418Y-123069012D02*
X86787051Y-123097129D01*
X86787051Y-123097129D02*
X86810983Y-123124968D01*
X86810983Y-123124968D02*
X86835209Y-123152526D01*
X86835209Y-123152526D02*
X86859729Y-123179800D01*
X86859729Y-123179800D02*
X86884538Y-123206787D01*
X86884538Y-123206787D02*
X86909639Y-123233484D01*
X86909639Y-123233484D02*
X86935022Y-123259889D01*
X86935022Y-123259889D02*
X86965129Y-123290456D01*
X86965129Y-123290456D02*
X86991126Y-123316217D01*
X86991126Y-123316217D02*
X87017813Y-123342070D01*
X87017813Y-123342070D02*
X87044367Y-123367218D01*
X87044367Y-123367218D02*
X87071192Y-123392058D01*
X87071192Y-123392058D02*
X87101268Y-123419251D01*
X87101268Y-123419251D02*
X87132533Y-123446808D01*
X87132533Y-123446808D02*
X87159792Y-123470259D01*
X87159792Y-123470259D02*
X87189938Y-123495587D01*
X87189938Y-123495587D02*
X87218170Y-123518745D01*
X87218170Y-123518745D02*
X87247999Y-123542637D01*
X87247999Y-123542637D02*
X87276752Y-123565123D01*
X87276752Y-123565123D02*
X87305757Y-123587276D01*
X87305757Y-123587276D02*
X87335472Y-123609433D01*
X87335472Y-123609433D02*
X87364974Y-123630908D01*
X87364974Y-123630908D02*
X87394723Y-123652044D01*
X87394723Y-123652044D02*
X87428477Y-123675409D01*
X87428477Y-123675409D02*
X87464434Y-123699596D01*
X87464434Y-123699596D02*
X87494969Y-123719578D01*
X87494969Y-123719578D02*
X87527187Y-123740120D01*
X87527187Y-123740120D02*
X87558683Y-123759675D01*
X87558683Y-123759675D02*
X87589924Y-123778567D01*
X87589924Y-123778567D02*
X87623364Y-123798241D01*
X87623364Y-123798241D02*
X87660538Y-123819462D01*
X87660538Y-123819462D02*
X87696510Y-123839359D01*
X87696510Y-123839359D02*
X87729217Y-123856917D01*
X87729217Y-123856917D02*
X87767739Y-123876951D01*
X87767739Y-123876951D02*
X87804509Y-123895440D01*
X87804509Y-123895440D02*
X87839479Y-123912459D01*
X87839479Y-123912459D02*
X87874679Y-123929043D01*
X87874679Y-123929043D02*
X87909587Y-123944955D01*
X87909587Y-123944955D02*
X87947869Y-123961799D01*
X87947869Y-123961799D02*
X87983762Y-123977031D01*
X87983762Y-123977031D02*
X88022000Y-123992666D01*
X88022000Y-123992666D02*
X88058338Y-124006969D01*
X88058338Y-124006969D02*
X88094890Y-124020816D01*
X88094890Y-124020816D02*
X88132195Y-124034392D01*
X88132195Y-124034392D02*
X88172984Y-124048612D01*
X88172984Y-124048612D02*
X88212376Y-124061727D01*
X88212376Y-124061727D02*
X88251995Y-124074316D01*
X88251995Y-124074316D02*
X88291274Y-124086205D01*
X88291274Y-124086205D02*
X88330210Y-124097418D01*
X88330210Y-124097418D02*
X88369910Y-124108269D01*
X88369910Y-124108269D02*
X88409813Y-124118589D01*
X88409813Y-124118589D02*
X88453317Y-124129179D01*
X88453317Y-124129179D02*
X88496483Y-124139013D01*
X88496483Y-124139013D02*
X88539300Y-124148109D01*
X88539300Y-124148109D02*
X88581750Y-124156482D01*
X88581750Y-124156482D02*
X88624984Y-124164362D01*
X88624984Y-124164362D02*
X88669001Y-124171714D01*
X88669001Y-124171714D02*
X88713223Y-124178424D01*
X88713223Y-124178424D02*
X88759990Y-124184793D01*
X88759990Y-124184793D02*
X88811685Y-124190964D01*
X88811685Y-124190964D02*
X88863637Y-124196255D01*
X88863637Y-124196255D02*
X88911083Y-124200295D01*
X88911083Y-124200295D02*
X88958731Y-124203595D01*
X88958731Y-124203595D02*
X89006576Y-124206152D01*
X89006576Y-124206152D02*
X89057018Y-124208028D01*
X89057018Y-124208028D02*
X89107668Y-124209071D01*
X89107668Y-124209071D02*
X89145183Y-124209303D01*
X183146336Y-124209303D02*
X183195985Y-124208909D01*
X183195985Y-124208909D02*
X183250757Y-124207570D01*
X183250757Y-124207570D02*
X183299218Y-124205582D01*
X183299218Y-124205582D02*
X183346800Y-124202883D01*
X183346800Y-124202883D02*
X183393514Y-124199510D01*
X183393514Y-124199510D02*
X183441126Y-124195329D01*
X183441126Y-124195329D02*
X183487858Y-124190481D01*
X183487858Y-124190481D02*
X183536611Y-124184628D01*
X183536611Y-124184628D02*
X183587340Y-124177667D01*
X183587340Y-124177667D02*
X183635419Y-124170238D01*
X183635419Y-124170238D02*
X183678631Y-124162858D01*
X183678631Y-124162858D02*
X183721562Y-124154859D01*
X183721562Y-124154859D02*
X183766449Y-124145775D01*
X183766449Y-124145775D02*
X183811017Y-124136015D01*
X183811017Y-124136015D02*
X183855262Y-124125582D01*
X183855262Y-124125582D02*
X183896995Y-124115055D01*
X183896995Y-124115055D02*
X183940060Y-124103478D01*
X183940060Y-124103478D02*
X183979564Y-124092211D01*
X183979564Y-124092211D02*
X184022000Y-124079407D01*
X184022000Y-124079407D02*
X184060385Y-124067188D01*
X184060385Y-124067188D02*
X184099015Y-124054265D01*
X184099015Y-124054265D02*
X184136831Y-124041002D01*
X184136831Y-124041002D02*
X184176440Y-124026444D01*
X184176440Y-124026444D02*
X184215725Y-124011317D01*
X184215725Y-124011317D02*
X184252642Y-123996468D01*
X184252642Y-123996468D02*
X184289265Y-123981119D01*
X184289265Y-123981119D02*
X184329603Y-123963477D01*
X184329603Y-123963477D02*
X184365591Y-123947077D01*
X184365591Y-123947077D02*
X184399793Y-123930901D01*
X184399793Y-123930901D02*
X184434692Y-123913789D01*
X184434692Y-123913789D02*
X184468317Y-123896707D01*
X184468317Y-123896707D02*
X184504540Y-123877644D01*
X184504540Y-123877644D02*
X184538991Y-123858857D01*
X184538991Y-123858857D02*
X184571232Y-123840676D01*
X184571232Y-123840676D02*
X184603188Y-123822080D01*
X184603188Y-123822080D02*
X184635313Y-123802784D01*
X184635313Y-123802784D02*
X184666223Y-123783642D01*
X184666223Y-123783642D02*
X184699117Y-123762629D01*
X184699117Y-123762629D02*
X184729427Y-123742668D01*
X184729427Y-123742668D02*
X184760334Y-123721701D01*
X184760334Y-123721701D02*
X184792256Y-123699384D01*
X184792256Y-123699384D02*
X184821649Y-123678217D01*
X184821649Y-123678217D02*
X184851607Y-123656019D01*
X184851607Y-123656019D02*
X184882526Y-123632429D01*
X184882526Y-123632429D02*
X184911404Y-123609749D01*
X184911404Y-123609749D02*
X184939967Y-123586687D01*
X184939967Y-123586687D02*
X184969861Y-123561853D01*
X184969861Y-123561853D02*
X184997357Y-123538364D01*
X184997357Y-123538364D02*
X185026952Y-123512354D01*
X185026952Y-123512354D02*
X185057366Y-123484823D01*
X185057366Y-123484823D02*
X185085799Y-123458318D01*
X185085799Y-123458318D02*
X185113858Y-123431403D01*
X185113858Y-123431403D02*
X185139631Y-123405993D01*
X185139631Y-123405993D02*
X185168469Y-123376751D01*
X185168469Y-123376751D02*
X185194285Y-123349820D01*
X185194285Y-123349820D02*
X185219378Y-123322922D01*
X185219378Y-123322922D02*
X185244126Y-123295676D01*
X185244126Y-123295676D02*
X185268523Y-123268083D01*
X185268523Y-123268083D02*
X185292220Y-123240562D01*
X185292220Y-123240562D02*
X185315919Y-123212290D01*
X185315919Y-123212290D02*
X185340965Y-123181571D01*
X185340965Y-123181571D02*
X185365264Y-123150894D01*
X185365264Y-123150894D02*
X185387509Y-123122017D01*
X185387509Y-123122017D02*
X185413931Y-123086682D01*
X185413931Y-123086682D02*
X185435710Y-123056662D01*
X185435710Y-123056662D02*
X185458370Y-123024531D01*
X185458370Y-123024531D02*
X185480608Y-122992042D01*
X185480608Y-122992042D02*
X185501226Y-122961036D01*
X185501226Y-122961036D02*
X185522647Y-122927868D01*
X185522647Y-122927868D02*
X185542196Y-122896694D01*
X185542196Y-122896694D02*
X185561656Y-122864752D01*
X185561656Y-122864752D02*
X185580730Y-122832510D01*
X185580730Y-122832510D02*
X185599691Y-122799490D01*
X185599691Y-122799490D02*
X185617981Y-122766651D01*
X185617981Y-122766651D02*
X185635877Y-122733519D01*
X185635877Y-122733519D02*
X185653126Y-122700593D01*
X185653126Y-122700593D02*
X185671230Y-122664902D01*
X185671230Y-122664902D02*
X185688157Y-122630401D01*
X185688157Y-122630401D02*
X185707263Y-122590039D01*
X185707263Y-122590039D02*
X185724891Y-122551342D01*
X185724891Y-122551342D02*
X185741121Y-122514367D01*
X185741121Y-122514367D02*
X185757751Y-122475013D01*
X185757751Y-122475013D02*
X185773862Y-122435326D01*
X185773862Y-122435326D02*
X185790259Y-122393199D01*
X185790259Y-122393199D02*
X185806845Y-122348577D01*
X185806845Y-122348577D02*
X185822041Y-122305720D01*
X185822041Y-122305720D02*
X185835213Y-122266852D01*
X185835213Y-122266852D02*
X185848593Y-122225524D01*
X185848593Y-122225524D02*
X185860770Y-122186090D01*
X185860770Y-122186090D02*
X185872460Y-122146385D01*
X185872460Y-122146385D02*
X185883659Y-122106414D01*
X185883659Y-122106414D02*
X185894798Y-122064498D01*
X185894798Y-122064498D02*
X185905122Y-122023427D01*
X185905122Y-122023427D02*
X185915325Y-121980394D01*
X185915325Y-121980394D02*
X185924473Y-121939367D01*
X185924473Y-121939367D02*
X185933579Y-121895789D01*
X185933579Y-121895789D02*
X185942116Y-121851941D01*
X185942116Y-121851941D02*
X185949780Y-121809573D01*
X185949780Y-121809573D02*
X185957473Y-121763447D01*
X185957473Y-121763447D02*
X185964629Y-121716451D01*
X185964629Y-121716451D02*
X185971138Y-121669176D01*
X185971138Y-121669176D02*
X185976719Y-121624005D01*
X185976719Y-121624005D02*
X185981773Y-121577991D01*
X185981773Y-121577991D02*
X185986164Y-121532333D01*
X185986164Y-121532333D02*
X185990097Y-121484622D01*
X185990097Y-121484622D02*
X185993416Y-121436049D01*
X185993416Y-121436049D02*
X185996405Y-121379880D01*
X185996405Y-121379880D02*
X185998356Y-121328310D01*
X185998356Y-121328310D02*
X185999516Y-121278947D01*
X185999516Y-121278947D02*
X186000007Y-121221890D01*
X186000007Y-121221890D02*
X186000000Y-121210692D01*
M02*
