G04 #@! TF.GenerationSoftware,KiCad,Pcbnew,(5.1.4-0-10_14)*
G04 #@! TF.CreationDate,2019-11-24T20:28:34+09:00*
G04 #@! TF.ProjectId,palette1202-OB,70616c65-7474-4653-9132-30322d4f422e,rev?*
G04 #@! TF.SameCoordinates,Original*
G04 #@! TF.FileFunction,Profile,NP*
%FSLAX46Y46*%
G04 Gerber Fmt 4.6, Leading zero omitted, Abs format (unit mm)*
G04 Created by KiCad (PCBNEW (5.1.4-0-10_14)) date 2019-11-24 20:28:34*
%MOMM*%
%LPD*%
G04 APERTURE LIST*
%ADD10C,0.050000*%
%ADD11C,0.150000*%
G04 APERTURE END LIST*
D10*
X89145183Y-43500000D02*
X129645183Y-43500000D01*
X132643772Y-46498611D02*
X132612000Y-53500000D01*
X132612000Y-53500000D02*
X132612401Y-53549691D01*
X132612401Y-53549691D02*
X132613644Y-53600391D01*
X132613644Y-53600391D02*
X132615843Y-53653280D01*
X132615843Y-53653280D02*
X132618628Y-53701147D01*
X132618628Y-53701147D02*
X132622159Y-53748812D01*
X132622159Y-53748812D02*
X132626604Y-53798041D01*
X132626604Y-53798041D02*
X132631635Y-53845268D01*
X132631635Y-53845268D02*
X132637164Y-53890513D01*
X132637164Y-53890513D02*
X132643275Y-53934964D01*
X132643275Y-53934964D02*
X132650407Y-53981527D01*
X132650407Y-53981527D02*
X132658251Y-54027852D01*
X132658251Y-54027852D02*
X132666797Y-54073930D01*
X132666797Y-54073930D02*
X132675204Y-54115756D01*
X132675204Y-54115756D02*
X132684444Y-54158508D01*
X132684444Y-54158508D02*
X132694422Y-54201595D01*
X132694422Y-54201595D02*
X132704586Y-54242753D01*
X132704586Y-54242753D02*
X132715162Y-54283126D01*
X132715162Y-54283126D02*
X132726127Y-54322720D01*
X132726127Y-54322720D02*
X132737779Y-54362642D01*
X132737779Y-54362642D02*
X132750661Y-54404530D01*
X132750661Y-54404530D02*
X132763229Y-54443424D01*
X132763229Y-54443424D02*
X132778193Y-54487511D01*
X132778193Y-54487511D02*
X132792048Y-54526437D01*
X132792048Y-54526437D02*
X132805609Y-54562971D01*
X132805609Y-54562971D02*
X132819631Y-54599280D01*
X132819631Y-54599280D02*
X132834106Y-54635356D01*
X132834106Y-54635356D02*
X132849031Y-54671199D01*
X132849031Y-54671199D02*
X132865321Y-54708890D01*
X132865321Y-54708890D02*
X132882108Y-54746313D01*
X132882108Y-54746313D02*
X132898417Y-54781405D01*
X132898417Y-54781405D02*
X132915161Y-54816250D01*
X132915161Y-54816250D02*
X132932082Y-54850335D01*
X132932082Y-54850335D02*
X132949944Y-54885178D01*
X132949944Y-54885178D02*
X132969052Y-54921255D01*
X132969052Y-54921255D02*
X132990834Y-54960993D01*
X132990834Y-54960993D02*
X133010933Y-54996442D01*
X133010933Y-54996442D02*
X133030339Y-55029644D01*
X133030339Y-55029644D02*
X133050159Y-55062573D01*
X133050159Y-55062573D02*
X133071584Y-55097136D01*
X133071584Y-55097136D02*
X133092237Y-55129490D01*
X133092237Y-55129490D02*
X133113289Y-55161561D01*
X133113289Y-55161561D02*
X133133463Y-55191481D01*
X133133463Y-55191481D02*
X133153983Y-55221142D01*
X133153983Y-55221142D02*
X133174849Y-55250544D01*
X133174849Y-55250544D02*
X133196056Y-55279681D01*
X133196056Y-55279681D02*
X133217600Y-55308552D01*
X133217600Y-55308552D02*
X133240860Y-55338932D01*
X133240860Y-55338932D02*
X133265896Y-55370763D01*
X133265896Y-55370763D02*
X133289925Y-55400506D01*
X133289925Y-55400506D02*
X133312875Y-55428210D01*
X133312875Y-55428210D02*
X133336148Y-55455632D01*
X133336148Y-55455632D02*
X133361226Y-55484458D01*
X133361226Y-55484458D02*
X133386663Y-55512957D01*
X133386663Y-55512957D02*
X133415510Y-55544420D01*
X133415510Y-55544420D02*
X133440142Y-55570594D01*
X133440142Y-55570594D02*
X133464687Y-55596066D01*
X133464687Y-55596066D02*
X133490322Y-55622044D01*
X133490322Y-55622044D02*
X133517469Y-55648883D01*
X133517469Y-55648883D02*
X133542921Y-55673440D01*
X133542921Y-55673440D02*
X133571125Y-55699993D01*
X133571125Y-55699993D02*
X133597589Y-55724298D01*
X133597589Y-55724298D02*
X133626021Y-55749776D01*
X133626021Y-55749776D02*
X133653078Y-55773426D01*
X133653078Y-55773426D02*
X133680416Y-55796754D01*
X133680416Y-55796754D02*
X133708035Y-55819759D01*
X133708035Y-55819759D02*
X133735929Y-55842436D01*
X133735929Y-55842436D02*
X133764096Y-55864782D01*
X133764096Y-55864782D02*
X133793873Y-55887817D01*
X133793873Y-55887817D02*
X133826652Y-55912499D01*
X133826652Y-55912499D02*
X133857494Y-55935092D01*
X133857494Y-55935092D02*
X133887250Y-55956325D01*
X133887250Y-55956325D02*
X133916809Y-55976885D01*
X133916809Y-55976885D02*
X133947558Y-55997723D01*
X133947558Y-55997723D02*
X133978102Y-56017877D01*
X133978102Y-56017877D02*
X134010329Y-56038572D01*
X134010329Y-56038572D02*
X134041395Y-56057974D01*
X134041395Y-56057974D02*
X134075614Y-56078744D01*
X134075614Y-56078744D02*
X134108176Y-56097933D01*
X134108176Y-56097933D02*
X134147395Y-56120318D01*
X134147395Y-56120318D02*
X134185484Y-56141316D01*
X134185484Y-56141316D02*
X134221399Y-56160460D01*
X134221399Y-56160460D02*
X134255076Y-56177849D01*
X134255076Y-56177849D02*
X134290016Y-56195318D01*
X134290016Y-56195318D02*
X134324696Y-56212099D01*
X134324696Y-56212099D02*
X134359618Y-56228442D01*
X134359618Y-56228442D02*
X134394783Y-56244345D01*
X134394783Y-56244345D02*
X134430184Y-56259806D01*
X134430184Y-56259806D02*
X134466342Y-56275035D01*
X134466342Y-56275035D02*
X134503265Y-56290014D01*
X134503265Y-56290014D02*
X134539897Y-56304306D01*
X134539897Y-56304306D02*
X134578363Y-56318716D01*
X134578363Y-56318716D02*
X134617075Y-56332608D01*
X134617075Y-56332608D02*
X134656025Y-56345980D01*
X134656025Y-56345980D02*
X134695215Y-56358827D01*
X134695215Y-56358827D02*
X134736829Y-56371810D01*
X134736829Y-56371810D02*
X134778697Y-56384201D01*
X134778697Y-56384201D02*
X134818593Y-56395384D01*
X134818593Y-56395384D02*
X134860940Y-56406600D01*
X134860940Y-56406600D02*
X134903526Y-56417205D01*
X134903526Y-56417205D02*
X134944086Y-56426686D01*
X134944086Y-56426686D02*
X134987122Y-56436091D01*
X134987122Y-56436091D02*
X135030382Y-56444870D01*
X135030382Y-56444870D02*
X135080744Y-56454251D01*
X135080744Y-56454251D02*
X135124470Y-56461667D01*
X135124470Y-56461667D02*
X135167823Y-56468359D01*
X135167823Y-56468359D02*
X135212540Y-56474577D01*
X135212540Y-56474577D02*
X135261552Y-56480599D01*
X135261552Y-56480599D02*
X135308448Y-56485591D01*
X135308448Y-56485591D02*
X135360274Y-56490237D01*
X135360274Y-56490237D02*
X135407599Y-56493688D01*
X135407599Y-56493688D02*
X135455120Y-56496394D01*
X135455120Y-56496394D02*
X135504622Y-56498410D01*
X135504622Y-56498410D02*
X135553722Y-56499603D01*
X135553722Y-56499603D02*
X135600000Y-56500000D01*
D11*
X132643772Y-46498611D02*
X132639926Y-46345326D01*
X132639926Y-46345326D02*
X132629566Y-46204706D01*
X132629566Y-46204706D02*
X132612822Y-46065973D01*
X132612822Y-46065973D02*
X132591159Y-45936172D01*
X132591159Y-45936172D02*
X132564004Y-45808328D01*
X132564004Y-45808328D02*
X132532735Y-45687020D01*
X132532735Y-45687020D02*
X132496592Y-45567762D01*
X132496592Y-45567762D02*
X132457485Y-45455497D01*
X132457485Y-45455497D02*
X132413667Y-45344264D01*
X132413667Y-45344264D02*
X132367030Y-45238353D01*
X132367030Y-45238353D02*
X132316997Y-45135648D01*
X132316997Y-45135648D02*
X132262381Y-45033700D01*
X132262381Y-45033700D02*
X132206361Y-44938015D01*
X132206361Y-44938015D02*
X132145699Y-44842750D01*
X132145699Y-44842750D02*
X132082911Y-44751802D01*
X132082911Y-44751802D02*
X132018281Y-44665108D01*
X132018281Y-44665108D02*
X131951003Y-44581298D01*
X131951003Y-44581298D02*
X131880075Y-44499155D01*
X131880075Y-44499155D02*
X131806655Y-44420052D01*
X131806655Y-44420052D02*
X131728849Y-44342076D01*
X131728849Y-44342076D02*
X131651165Y-44269616D01*
X131651165Y-44269616D02*
X131570522Y-44199556D01*
X131570522Y-44199556D02*
X131482513Y-44128558D01*
X131482513Y-44128558D02*
X131395936Y-44063817D01*
X131395936Y-44063817D02*
X131305117Y-44000913D01*
X131305117Y-44000913D02*
X131211913Y-43941309D01*
X131211913Y-43941309D02*
X131116410Y-43885090D01*
X131116410Y-43885090D02*
X131018191Y-43832082D01*
X131018191Y-43832082D02*
X130916793Y-43782181D01*
X130916793Y-43782181D02*
X130811192Y-43735144D01*
X130811192Y-43735144D02*
X130698133Y-43690084D01*
X130698133Y-43690084D02*
X130585609Y-43650436D01*
X130585609Y-43650436D02*
X130468866Y-43614553D01*
X130468866Y-43614553D02*
X130345646Y-43582263D01*
X130345646Y-43582263D02*
X130220428Y-43555127D01*
X130220428Y-43555127D02*
X130091009Y-43532921D01*
X130091009Y-43532921D02*
X129952695Y-43515578D01*
X129952695Y-43515578D02*
X129808323Y-43504360D01*
X129808323Y-43504360D02*
X129658504Y-43500027D01*
X129658504Y-43500027D02*
X129645183Y-43500000D01*
D10*
X135600000Y-56500000D02*
X183146358Y-56500000D01*
D11*
X186144947Y-59498611D02*
X186141101Y-59345326D01*
X186141101Y-59345326D02*
X186130741Y-59204706D01*
X186130741Y-59204706D02*
X186113997Y-59065973D01*
X186113997Y-59065973D02*
X186092334Y-58936172D01*
X186092334Y-58936172D02*
X186065179Y-58808328D01*
X186065179Y-58808328D02*
X186033910Y-58687020D01*
X186033910Y-58687020D02*
X185997767Y-58567762D01*
X185997767Y-58567762D02*
X185958660Y-58455497D01*
X185958660Y-58455497D02*
X185914842Y-58344264D01*
X185914842Y-58344264D02*
X185868205Y-58238353D01*
X185868205Y-58238353D02*
X185818172Y-58135648D01*
X185818172Y-58135648D02*
X185763556Y-58033700D01*
X185763556Y-58033700D02*
X185707536Y-57938015D01*
X185707536Y-57938015D02*
X185646874Y-57842750D01*
X185646874Y-57842750D02*
X185584086Y-57751802D01*
X185584086Y-57751802D02*
X185519456Y-57665108D01*
X185519456Y-57665108D02*
X185452178Y-57581298D01*
X185452178Y-57581298D02*
X185381250Y-57499155D01*
X185381250Y-57499155D02*
X185307830Y-57420052D01*
X185307830Y-57420052D02*
X185230024Y-57342076D01*
X185230024Y-57342076D02*
X185152340Y-57269616D01*
X185152340Y-57269616D02*
X185071697Y-57199556D01*
X185071697Y-57199556D02*
X184983688Y-57128558D01*
X184983688Y-57128558D02*
X184897111Y-57063817D01*
X184897111Y-57063817D02*
X184806292Y-57000913D01*
X184806292Y-57000913D02*
X184713088Y-56941309D01*
X184713088Y-56941309D02*
X184617585Y-56885090D01*
X184617585Y-56885090D02*
X184519366Y-56832082D01*
X184519366Y-56832082D02*
X184417968Y-56782181D01*
X184417968Y-56782181D02*
X184312367Y-56735144D01*
X184312367Y-56735144D02*
X184199308Y-56690084D01*
X184199308Y-56690084D02*
X184086784Y-56650436D01*
X184086784Y-56650436D02*
X183970041Y-56614553D01*
X183970041Y-56614553D02*
X183846821Y-56582263D01*
X183846821Y-56582263D02*
X183721603Y-56555127D01*
X183721603Y-56555127D02*
X183592184Y-56532921D01*
X183592184Y-56532921D02*
X183453870Y-56515578D01*
X183453870Y-56515578D02*
X183309498Y-56504360D01*
X183309498Y-56504360D02*
X183159679Y-56500027D01*
X183159679Y-56500027D02*
X183146358Y-56500000D01*
D10*
X186144947Y-59498611D02*
X186144947Y-121210692D01*
X86146572Y-121210692D02*
X86146572Y-46498611D01*
X89145183Y-124209303D02*
X183150000Y-124209303D01*
D11*
X86146572Y-121210692D02*
X86150415Y-121363972D01*
X86150415Y-121363972D02*
X86160774Y-121504588D01*
X86160774Y-121504588D02*
X86176847Y-121638650D01*
X86176847Y-121638650D02*
X86198314Y-121768519D01*
X86198314Y-121768519D02*
X86224748Y-121894168D01*
X86224748Y-121894168D02*
X86256829Y-122019487D01*
X86256829Y-122019487D02*
X86292151Y-122136605D01*
X86292151Y-122136605D02*
X86331469Y-122250034D01*
X86331469Y-122250034D02*
X86374708Y-122360287D01*
X86374708Y-122360287D02*
X86420689Y-122465258D01*
X86420689Y-122465258D02*
X86472320Y-122571624D01*
X86472320Y-122571624D02*
X86524649Y-122669662D01*
X86524649Y-122669662D02*
X86580463Y-122765487D01*
X86580463Y-122765487D02*
X86640914Y-122860897D01*
X86640914Y-122860897D02*
X86702192Y-122950159D01*
X86702192Y-122950159D02*
X86766565Y-123037053D01*
X86766565Y-123037053D02*
X86835394Y-123123236D01*
X86835394Y-123123236D02*
X86905784Y-123205108D01*
X86905784Y-123205108D02*
X86979029Y-123284375D01*
X86979029Y-123284375D02*
X87055048Y-123360960D01*
X87055048Y-123360960D02*
X87133348Y-123434403D01*
X87133348Y-123434403D02*
X87214665Y-123505396D01*
X87214665Y-123505396D02*
X87300737Y-123575203D01*
X87300737Y-123575203D02*
X87387112Y-123640197D01*
X87387112Y-123640197D02*
X87476330Y-123702427D01*
X87476330Y-123702427D02*
X87572670Y-123764431D01*
X87572670Y-123764431D02*
X87669512Y-123821696D01*
X87669512Y-123821696D02*
X87767629Y-123874868D01*
X87767629Y-123874868D02*
X87873562Y-123927113D01*
X87873562Y-123927113D02*
X87979170Y-123974155D01*
X87979170Y-123974155D02*
X88087402Y-124017395D01*
X88087402Y-124017395D02*
X88202020Y-124057957D01*
X88202020Y-124057957D02*
X88318714Y-124093950D01*
X88318714Y-124093950D02*
X88437939Y-124125402D01*
X88437939Y-124125402D02*
X88561332Y-124152483D01*
X88561332Y-124152483D02*
X88690045Y-124174974D01*
X88690045Y-124174974D02*
X88828227Y-124192743D01*
X88828227Y-124192743D02*
X88970680Y-124204305D01*
X88970680Y-124204305D02*
X89119757Y-124209194D01*
X89119757Y-124209194D02*
X89145183Y-124209303D01*
X183150000Y-124209303D02*
X183298161Y-124205692D01*
X183298161Y-124205692D02*
X183438551Y-124195551D01*
X183438551Y-124195551D02*
X183574744Y-124179351D01*
X183574744Y-124179351D02*
X183704404Y-124157986D01*
X183704404Y-124157986D02*
X183833824Y-124130723D01*
X183833824Y-124130723D02*
X183953340Y-124100123D01*
X183953340Y-124100123D02*
X184069785Y-124065130D01*
X184069785Y-124065130D02*
X184183118Y-124025984D01*
X184183118Y-124025984D02*
X184291706Y-123983563D01*
X184291706Y-123983563D02*
X184402324Y-123935176D01*
X184402324Y-123935176D02*
X184503999Y-123885863D01*
X184503999Y-123885863D02*
X184602506Y-123833421D01*
X184602506Y-123833421D02*
X184698306Y-123777750D01*
X184698306Y-123777750D02*
X184791818Y-123718677D01*
X184791818Y-123718677D02*
X184882961Y-123656290D01*
X184882961Y-123656290D02*
X184971648Y-123590672D01*
X184971648Y-123590672D02*
X185056065Y-123523343D01*
X185056065Y-123523343D02*
X185139644Y-123451578D01*
X185139644Y-123451578D02*
X185218896Y-123378393D01*
X185218896Y-123378393D02*
X185295471Y-123302430D01*
X185295471Y-123302430D02*
X185369291Y-123223770D01*
X185369291Y-123223770D02*
X185444615Y-123137326D01*
X185444615Y-123137326D02*
X185512502Y-123053353D01*
X185512502Y-123053353D02*
X185577390Y-122966927D01*
X185577390Y-122966927D02*
X185641709Y-122874381D01*
X185641709Y-122874381D02*
X185703781Y-122777423D01*
X185703781Y-122777423D02*
X185761080Y-122679947D01*
X185761080Y-122679947D02*
X185813734Y-122582188D01*
X185813734Y-122582188D02*
X185864761Y-122478183D01*
X185864761Y-122478183D02*
X185912730Y-122369864D01*
X185912730Y-122369864D02*
X185955696Y-122261497D01*
X185955696Y-122261497D02*
X185995968Y-122146749D01*
X185995968Y-122146749D02*
X186031510Y-122030487D01*
X186031510Y-122030487D02*
X186062822Y-121910590D01*
X186062822Y-121910590D02*
X186089818Y-121785937D01*
X186089818Y-121785937D02*
X186112624Y-121652443D01*
X186112624Y-121652443D02*
X186129366Y-121518204D01*
X186129366Y-121518204D02*
X186140484Y-121375626D01*
X186140484Y-121375626D02*
X186144892Y-121228855D01*
X186144892Y-121228855D02*
X186144947Y-121210692D01*
D10*
X89145183Y-43500000D02*
X89095485Y-43500401D01*
X89095485Y-43500401D02*
X89046591Y-43501585D01*
X89046591Y-43501585D02*
X88994896Y-43503693D01*
X88994896Y-43503693D02*
X88934478Y-43507276D01*
X88934478Y-43507276D02*
X88886856Y-43510957D01*
X88886856Y-43510957D02*
X88839448Y-43515377D01*
X88839448Y-43515377D02*
X88792253Y-43520527D01*
X88792253Y-43520527D02*
X88747628Y-43526091D01*
X88747628Y-43526091D02*
X88703210Y-43532309D01*
X88703210Y-43532309D02*
X88659006Y-43539171D01*
X88659006Y-43539171D02*
X88615593Y-43546572D01*
X88615593Y-43546572D02*
X88569525Y-43555148D01*
X88569525Y-43555148D02*
X88527708Y-43563585D01*
X88527708Y-43563585D02*
X88482125Y-43573493D01*
X88482125Y-43573493D02*
X88440758Y-43583133D01*
X88440758Y-43583133D02*
X88400177Y-43593200D01*
X88400177Y-43593200D02*
X88358700Y-43604117D01*
X88358700Y-43604117D02*
X88318014Y-43615449D01*
X88318014Y-43615449D02*
X88278118Y-43627172D01*
X88278118Y-43627172D02*
X88234064Y-43640824D01*
X88234064Y-43640824D02*
X88192483Y-43654400D01*
X88192483Y-43654400D02*
X88149007Y-43669327D01*
X88149007Y-43669327D02*
X88110137Y-43683312D01*
X88110137Y-43683312D02*
X88073657Y-43696994D01*
X88073657Y-43696994D02*
X88037406Y-43711136D01*
X88037406Y-43711136D02*
X88001386Y-43725731D01*
X88001386Y-43725731D02*
X87966125Y-43740553D01*
X87966125Y-43740553D02*
X87930052Y-43756274D01*
X87930052Y-43756274D02*
X87895265Y-43771974D01*
X87895265Y-43771974D02*
X87859686Y-43788592D01*
X87859686Y-43788592D02*
X87822834Y-43806411D01*
X87822834Y-43806411D02*
X87786264Y-43824717D01*
X87786264Y-43824717D02*
X87751990Y-43842446D01*
X87751990Y-43842446D02*
X87717978Y-43860605D01*
X87717978Y-43860605D02*
X87676323Y-43883614D01*
X87676323Y-43883614D02*
X87640943Y-43903845D01*
X87640943Y-43903845D02*
X87605870Y-43924544D01*
X87605870Y-43924544D02*
X87574470Y-43943623D01*
X87574470Y-43943623D02*
X87542847Y-43963376D01*
X87542847Y-43963376D02*
X87510069Y-43984435D01*
X87510069Y-43984435D02*
X87479931Y-44004338D01*
X87479931Y-44004338D02*
X87450047Y-44024588D01*
X87450047Y-44024588D02*
X87419960Y-44045513D01*
X87419960Y-44045513D02*
X87389231Y-44067455D01*
X87389231Y-44067455D02*
X87360149Y-44088766D01*
X87360149Y-44088766D02*
X87329542Y-44111780D01*
X87329542Y-44111780D02*
X87299240Y-44135174D01*
X87299240Y-44135174D02*
X87271003Y-44157535D01*
X87271003Y-44157535D02*
X87243044Y-44180229D01*
X87243044Y-44180229D02*
X87215362Y-44203247D01*
X87215362Y-44203247D02*
X87187965Y-44226590D01*
X87187965Y-44226590D02*
X87159166Y-44251744D01*
X87159166Y-44251744D02*
X87132778Y-44275369D01*
X87132778Y-44275369D02*
X87105844Y-44300065D01*
X87105844Y-44300065D02*
X87079624Y-44324695D01*
X87079624Y-44324695D02*
X87052091Y-44351204D01*
X87052091Y-44351204D02*
X87026488Y-44376470D01*
X87026488Y-44376470D02*
X86999615Y-44403645D01*
X86999615Y-44403645D02*
X86974639Y-44429532D01*
X86974639Y-44429532D02*
X86948824Y-44456951D01*
X86948824Y-44456951D02*
X86924108Y-44483860D01*
X86924108Y-44483860D02*
X86883760Y-44529230D01*
X86883760Y-44529230D02*
X86859914Y-44556930D01*
X86859914Y-44556930D02*
X86832818Y-44589257D01*
X86832818Y-44589257D02*
X86808636Y-44618895D01*
X86808636Y-44618895D02*
X86786216Y-44647077D01*
X86786216Y-44647077D02*
X86761393Y-44679107D01*
X86761393Y-44679107D02*
X86738339Y-44709673D01*
X86738339Y-44709673D02*
X86716660Y-44739171D01*
X86716660Y-44739171D02*
X86694684Y-44769863D01*
X86694684Y-44769863D02*
X86671489Y-44803163D01*
X86671489Y-44803163D02*
X86650302Y-44834443D01*
X86650302Y-44834443D02*
X86630421Y-44864583D01*
X86630421Y-44864583D02*
X86609388Y-44897361D01*
X86609388Y-44897361D02*
X86589065Y-44929945D01*
X86589065Y-44929945D02*
X86569147Y-44962806D01*
X86569147Y-44962806D02*
X86549924Y-44995451D01*
X86549924Y-44995451D02*
X86531663Y-45027372D01*
X86531663Y-45027372D02*
X86511880Y-45063016D01*
X86511880Y-45063016D02*
X86493627Y-45096949D01*
X86493627Y-45096949D02*
X86475801Y-45131140D01*
X86475801Y-45131140D02*
X86458654Y-45165079D01*
X86458654Y-45165079D02*
X86441436Y-45200289D01*
X86441436Y-45200289D02*
X86424903Y-45235235D01*
X86424903Y-45235235D02*
X86407878Y-45272506D01*
X86407878Y-45272506D02*
X86392255Y-45307954D01*
X86392255Y-45307954D02*
X86374445Y-45349962D01*
X86374445Y-45349962D02*
X86358102Y-45390170D01*
X86358102Y-45390170D02*
X86343143Y-45428523D01*
X86343143Y-45428523D02*
X86329485Y-45464981D01*
X86329485Y-45464981D02*
X86316098Y-45502200D01*
X86316098Y-45502200D02*
X86302091Y-45542911D01*
X86302091Y-45542911D02*
X86289709Y-45580594D01*
X86289709Y-45580594D02*
X86277643Y-45619047D01*
X86277643Y-45619047D02*
X86265599Y-45659384D01*
X86265599Y-45659384D02*
X86254260Y-45699396D01*
X86254260Y-45699396D02*
X86242299Y-45744118D01*
X86242299Y-45744118D02*
X86231698Y-45786290D01*
X86231698Y-45786290D02*
X86221953Y-45827561D01*
X86221953Y-45827561D02*
X86212414Y-45870758D01*
X86212414Y-45870758D02*
X86203612Y-45913613D01*
X86203612Y-45913613D02*
X86195211Y-45957837D01*
X86195211Y-45957837D02*
X86187173Y-46004025D01*
X86187173Y-46004025D02*
X86180191Y-46048122D01*
X86180191Y-46048122D02*
X86173537Y-46094766D01*
X86173537Y-46094766D02*
X86167880Y-46139289D01*
X86167880Y-46139289D02*
X86162150Y-46191094D01*
X86162150Y-46191094D02*
X86157500Y-46240782D01*
X86157500Y-46240782D02*
X86153829Y-46288321D01*
X86153829Y-46288321D02*
X86150900Y-46336061D01*
X86150900Y-46336061D02*
X86148720Y-46383999D01*
X86148720Y-46383999D02*
X86147278Y-46432731D01*
X86147278Y-46432731D02*
X86146599Y-46485285D01*
X86146599Y-46485285D02*
X86146572Y-46498611D01*
M02*
