G04 #@! TF.GenerationSoftware,KiCad,Pcbnew,(5.1.4-0-10_14)*
G04 #@! TF.CreationDate,2019-11-24T20:28:34+09:00*
G04 #@! TF.ProjectId,palette1202-OB,70616c65-7474-4653-9132-30322d4f422e,rev?*
G04 #@! TF.SameCoordinates,Original*
G04 #@! TF.FileFunction,Legend,Top*
G04 #@! TF.FilePolarity,Positive*
%FSLAX46Y46*%
G04 Gerber Fmt 4.6, Leading zero omitted, Abs format (unit mm)*
G04 Created by KiCad (PCBNEW (5.1.4-0-10_14)) date 2019-11-24 20:28:34*
%MOMM*%
%LPD*%
G04 APERTURE LIST*
%ADD10C,0.100000*%
%ADD11C,0.150000*%
%ADD12C,0.120000*%
%ADD13C,0.400000*%
%ADD14R,1.499000X1.499000*%
%ADD15C,1.499000*%
%ADD16O,1.802000X1.802000*%
%ADD17R,1.802000X1.802000*%
%ADD18R,0.702000X1.262000*%
%ADD19C,0.702000*%
%ADD20R,0.402000X1.262000*%
%ADD21O,1.002000X1.802000*%
%ADD22O,1.002000X2.102000*%
%ADD23O,0.902000X0.902000*%
%ADD24O,1.252000X1.902000*%
%ADD25O,1.552000X2.102000*%
%ADD26R,0.552000X1.402000*%
%ADD27C,3.102000*%
%ADD28C,1.802000*%
%ADD29C,2.002000*%
%ADD30C,4.102000*%
%ADD31C,4.202000*%
%ADD32C,2.202000*%
%ADD33R,2.102000X2.102000*%
%ADD34C,2.102000*%
%ADD35R,2.102000X3.302000*%
G04 APERTURE END LIST*
D10*
G36*
X94280988Y-119804391D02*
G01*
X94307644Y-119805982D01*
X94333540Y-119808642D01*
X94358669Y-119812379D01*
X94383023Y-119817202D01*
X94406594Y-119823117D01*
X94429374Y-119830134D01*
X94451356Y-119838259D01*
X94472532Y-119847500D01*
X94492894Y-119857865D01*
X94512434Y-119869361D01*
X94531145Y-119881998D01*
X94549018Y-119895781D01*
X94566047Y-119910719D01*
X94582223Y-119926820D01*
X94597538Y-119944092D01*
X94612267Y-119962324D01*
X94625702Y-119981304D01*
X94637850Y-120001036D01*
X94648719Y-120021524D01*
X94658316Y-120042771D01*
X94666650Y-120064782D01*
X94673729Y-120087561D01*
X94679559Y-120111110D01*
X94684149Y-120135435D01*
X94687507Y-120160539D01*
X94689640Y-120186425D01*
X94690556Y-120213099D01*
X94690263Y-120240563D01*
X94688768Y-120268822D01*
X94686079Y-120297879D01*
X94682205Y-120327738D01*
X94584309Y-121018300D01*
X94582875Y-121018045D01*
X94512872Y-121513070D01*
X94507941Y-121542930D01*
X94502077Y-121571987D01*
X94495274Y-121600245D01*
X94487530Y-121627709D01*
X94478840Y-121654383D01*
X94469200Y-121680270D01*
X94458607Y-121705373D01*
X94447057Y-121729698D01*
X94434545Y-121753248D01*
X94421069Y-121776026D01*
X94406623Y-121798037D01*
X94391205Y-121819284D01*
X94374810Y-121839772D01*
X94357435Y-121859504D01*
X94339075Y-121878484D01*
X94319726Y-121896716D01*
X94299635Y-121913552D01*
X94279047Y-121929329D01*
X94257963Y-121944045D01*
X94236383Y-121957695D01*
X94214307Y-121970275D01*
X94191734Y-121981781D01*
X94168666Y-121992210D01*
X94145102Y-122001558D01*
X94121041Y-122009820D01*
X94096485Y-122016993D01*
X94071432Y-122023074D01*
X94045883Y-122028057D01*
X94019838Y-122031940D01*
X93993297Y-122034718D01*
X93966260Y-122036388D01*
X93938727Y-122036946D01*
X93756164Y-122036946D01*
X93623873Y-122992091D01*
X93306372Y-122992091D01*
X93484859Y-121719446D01*
X93801143Y-121719446D01*
X93983705Y-121719446D01*
X94005906Y-121718670D01*
X94016542Y-121717698D01*
X94026870Y-121716335D01*
X94036890Y-121714582D01*
X94046602Y-121712435D01*
X94056007Y-121709895D01*
X94065106Y-121706961D01*
X94073898Y-121703632D01*
X94082384Y-121699906D01*
X94090566Y-121695783D01*
X94098442Y-121691262D01*
X94106014Y-121686342D01*
X94113283Y-121681021D01*
X94120248Y-121675299D01*
X94126911Y-121669175D01*
X94133271Y-121662649D01*
X94139329Y-121655718D01*
X94145086Y-121648382D01*
X94150543Y-121640640D01*
X94155698Y-121632491D01*
X94160554Y-121623934D01*
X94165111Y-121614968D01*
X94169368Y-121605593D01*
X94173328Y-121595806D01*
X94176989Y-121585608D01*
X94183419Y-121563972D01*
X94188664Y-121540678D01*
X94192727Y-121515717D01*
X94277393Y-120923050D01*
X94277737Y-120923123D01*
X94362059Y-120330384D01*
X94363353Y-120317927D01*
X94364259Y-120305859D01*
X94364776Y-120294179D01*
X94364901Y-120282888D01*
X94364636Y-120271986D01*
X94363978Y-120261475D01*
X94362926Y-120251354D01*
X94361481Y-120241624D01*
X94359639Y-120232286D01*
X94357402Y-120223339D01*
X94354767Y-120214785D01*
X94351734Y-120206624D01*
X94348302Y-120198856D01*
X94344470Y-120191482D01*
X94340236Y-120184502D01*
X94335601Y-120177918D01*
X94330562Y-120171728D01*
X94325120Y-120165935D01*
X94319272Y-120160537D01*
X94313018Y-120155537D01*
X94306358Y-120150933D01*
X94299289Y-120146728D01*
X94291812Y-120142921D01*
X94283924Y-120139512D01*
X94275626Y-120136502D01*
X94266916Y-120133893D01*
X94257794Y-120131683D01*
X94248257Y-120129874D01*
X94238306Y-120128466D01*
X94227939Y-120127460D01*
X94217156Y-120126856D01*
X94205955Y-120126655D01*
X94023393Y-120126655D01*
X93801143Y-121719446D01*
X93484859Y-121719446D01*
X93753518Y-119803863D01*
X94253580Y-119803863D01*
X94280988Y-119804391D01*
G37*
G36*
X100984579Y-122460279D02*
G01*
X101116870Y-122460279D01*
X101095703Y-122629611D01*
X100661788Y-122632258D01*
X100682956Y-122462925D01*
X100815248Y-122462925D01*
X100992517Y-121240550D01*
X100979288Y-121240550D01*
X100977242Y-121242504D01*
X100975081Y-121244395D01*
X100972811Y-121246224D01*
X100970441Y-121247992D01*
X100967977Y-121249697D01*
X100965428Y-121251340D01*
X100962802Y-121252922D01*
X100960106Y-121254441D01*
X100957347Y-121255898D01*
X100954535Y-121257293D01*
X100951676Y-121258626D01*
X100948778Y-121259898D01*
X100945849Y-121261107D01*
X100942897Y-121262254D01*
X100939929Y-121263339D01*
X100936954Y-121264363D01*
X100930996Y-121266456D01*
X100925006Y-121268704D01*
X100912810Y-121273293D01*
X100906541Y-121275448D01*
X100903351Y-121276449D01*
X100900118Y-121277385D01*
X100896838Y-121278244D01*
X100893508Y-121279013D01*
X100890124Y-121279682D01*
X100886682Y-121280238D01*
X100883147Y-121281200D01*
X100879489Y-121282099D01*
X100875706Y-121282936D01*
X100871799Y-121283711D01*
X100863614Y-121285075D01*
X100854932Y-121286191D01*
X100845755Y-121287059D01*
X100836081Y-121287679D01*
X100825911Y-121288051D01*
X100815246Y-121288175D01*
X100833766Y-121166467D01*
X100844123Y-121166219D01*
X100854360Y-121165475D01*
X100864480Y-121164234D01*
X100874488Y-121162498D01*
X100884387Y-121160266D01*
X100894181Y-121157537D01*
X100903875Y-121154313D01*
X100913472Y-121150592D01*
X100922976Y-121146375D01*
X100932391Y-121141662D01*
X100941720Y-121136453D01*
X100950968Y-121130748D01*
X100960139Y-121124547D01*
X100969236Y-121117849D01*
X100978263Y-121110656D01*
X100987224Y-121102967D01*
X100995936Y-121094874D01*
X101004211Y-121086472D01*
X101012043Y-121077759D01*
X101019430Y-121068736D01*
X101026367Y-121059404D01*
X101032850Y-121049761D01*
X101038876Y-121039808D01*
X101044441Y-121029545D01*
X101049541Y-121018972D01*
X101054172Y-121008089D01*
X101058330Y-120996896D01*
X101062011Y-120985392D01*
X101065212Y-120973579D01*
X101067928Y-120961456D01*
X101070156Y-120949022D01*
X101071891Y-120936279D01*
X101204183Y-120936279D01*
X100984579Y-122460279D01*
G37*
G36*
X99145726Y-120534113D02*
G01*
X99442059Y-120534113D01*
X99402372Y-120830446D01*
X99106038Y-120830446D01*
X98870559Y-122537008D01*
X98867738Y-122556232D01*
X98866224Y-122574216D01*
X98865957Y-122582742D01*
X98866019Y-122590959D01*
X98866409Y-122598865D01*
X98867128Y-122606462D01*
X98868177Y-122613748D01*
X98869555Y-122620725D01*
X98871264Y-122627391D01*
X98873304Y-122633747D01*
X98875675Y-122639793D01*
X98878378Y-122645529D01*
X98881413Y-122650955D01*
X98884781Y-122656071D01*
X98888482Y-122660877D01*
X98892518Y-122665373D01*
X98896887Y-122669558D01*
X98901591Y-122673434D01*
X98906631Y-122677000D01*
X98912006Y-122680255D01*
X98917718Y-122683201D01*
X98923766Y-122685836D01*
X98930151Y-122688162D01*
X98936874Y-122690177D01*
X98943935Y-122691882D01*
X98951335Y-122693278D01*
X98959074Y-122694363D01*
X98967153Y-122695138D01*
X98975571Y-122695603D01*
X98984331Y-122695758D01*
X99143080Y-122695758D01*
X99103392Y-122992091D01*
X98944642Y-122992091D01*
X98919279Y-122991627D01*
X98894780Y-122990236D01*
X98871141Y-122987923D01*
X98848359Y-122984691D01*
X98826429Y-122980545D01*
X98805348Y-122975488D01*
X98785112Y-122969524D01*
X98765717Y-122962656D01*
X98747160Y-122954890D01*
X98729435Y-122946228D01*
X98712540Y-122936675D01*
X98696471Y-122926235D01*
X98681223Y-122914911D01*
X98666793Y-122902707D01*
X98653177Y-122889627D01*
X98640371Y-122875675D01*
X98628496Y-122860855D01*
X98617675Y-122845171D01*
X98607908Y-122828626D01*
X98599195Y-122811224D01*
X98591537Y-122792970D01*
X98584933Y-122773867D01*
X98579383Y-122753920D01*
X98574887Y-122733131D01*
X98571445Y-122711505D01*
X98569057Y-122689046D01*
X98567724Y-122665757D01*
X98567445Y-122641643D01*
X98568220Y-122616707D01*
X98570049Y-122590954D01*
X98572933Y-122564386D01*
X98576870Y-122537008D01*
X98814996Y-120830446D01*
X98627142Y-120830446D01*
X98666830Y-120534113D01*
X98849392Y-120534113D01*
X99037246Y-120034051D01*
X99219808Y-120034051D01*
X99145726Y-120534113D01*
G37*
G36*
X98211747Y-120534113D02*
G01*
X98508080Y-120534113D01*
X98468392Y-120830446D01*
X98172059Y-120830446D01*
X97936581Y-122537008D01*
X97933760Y-122556232D01*
X97932245Y-122574216D01*
X97931979Y-122582742D01*
X97932040Y-122590959D01*
X97932430Y-122598865D01*
X97933149Y-122606462D01*
X97934198Y-122613748D01*
X97935576Y-122620725D01*
X97937285Y-122627391D01*
X97939325Y-122633747D01*
X97941696Y-122639793D01*
X97944399Y-122645529D01*
X97947434Y-122650955D01*
X97950802Y-122656071D01*
X97954503Y-122660877D01*
X97958539Y-122665373D01*
X97962908Y-122669558D01*
X97967612Y-122673434D01*
X97972652Y-122677000D01*
X97978027Y-122680255D01*
X97983739Y-122683201D01*
X97989787Y-122685836D01*
X97996172Y-122688162D01*
X98002895Y-122690177D01*
X98009956Y-122691882D01*
X98017356Y-122693278D01*
X98025095Y-122694363D01*
X98033174Y-122695138D01*
X98041592Y-122695603D01*
X98050352Y-122695758D01*
X98209101Y-122695758D01*
X98169413Y-122992091D01*
X98010663Y-122992091D01*
X97985300Y-122991627D01*
X97960801Y-122990236D01*
X97937162Y-122987923D01*
X97914380Y-122984691D01*
X97892451Y-122980545D01*
X97871370Y-122975488D01*
X97851134Y-122969524D01*
X97831739Y-122962656D01*
X97813182Y-122954890D01*
X97795457Y-122946228D01*
X97778562Y-122936675D01*
X97762493Y-122926235D01*
X97747245Y-122914911D01*
X97732815Y-122902707D01*
X97719199Y-122889627D01*
X97706393Y-122875675D01*
X97694517Y-122860855D01*
X97683696Y-122845171D01*
X97673929Y-122828626D01*
X97665217Y-122811224D01*
X97657558Y-122792970D01*
X97650954Y-122773867D01*
X97645404Y-122753920D01*
X97640908Y-122733131D01*
X97637466Y-122711505D01*
X97635079Y-122689046D01*
X97633745Y-122665757D01*
X97633466Y-122641643D01*
X97634241Y-122616707D01*
X97636071Y-122590954D01*
X97638954Y-122564386D01*
X97642892Y-122537008D01*
X97881017Y-120830446D01*
X97693163Y-120830446D01*
X97732851Y-120534113D01*
X97915413Y-120534113D01*
X98103267Y-120034051D01*
X98285830Y-120034051D01*
X98211747Y-120534113D01*
G37*
G36*
X97132310Y-120529225D02*
G01*
X97155330Y-120530439D01*
X97177505Y-120532466D01*
X97198846Y-120535312D01*
X97219367Y-120538979D01*
X97239077Y-120543472D01*
X97257988Y-120548794D01*
X97276113Y-120554949D01*
X97293463Y-120561942D01*
X97310049Y-120569775D01*
X97325883Y-120578454D01*
X97340977Y-120587981D01*
X97355343Y-120598361D01*
X97368991Y-120609597D01*
X97381934Y-120621694D01*
X97394184Y-120634655D01*
X97405564Y-120647956D01*
X97415893Y-120662059D01*
X97425176Y-120676961D01*
X97433417Y-120692657D01*
X97440619Y-120709144D01*
X97446786Y-120726417D01*
X97451922Y-120744474D01*
X97456031Y-120763309D01*
X97459117Y-120782920D01*
X97461183Y-120803301D01*
X97462234Y-120824451D01*
X97462273Y-120846363D01*
X97461305Y-120869036D01*
X97459333Y-120892464D01*
X97456361Y-120916644D01*
X97452393Y-120941571D01*
X97382566Y-121401910D01*
X97383602Y-121401947D01*
X97325393Y-121793531D01*
X96798871Y-121793531D01*
X96690393Y-122544947D01*
X96689284Y-122554714D01*
X96688439Y-122564170D01*
X96687858Y-122573317D01*
X96687540Y-122582154D01*
X96687486Y-122590680D01*
X96687695Y-122598897D01*
X96688168Y-122606803D01*
X96688904Y-122614400D01*
X96689904Y-122621686D01*
X96691168Y-122628662D01*
X96692695Y-122635329D01*
X96694485Y-122641685D01*
X96696540Y-122647731D01*
X96698857Y-122653467D01*
X96701438Y-122658893D01*
X96704283Y-122664009D01*
X96707392Y-122668815D01*
X96710763Y-122673311D01*
X96714399Y-122677497D01*
X96718298Y-122681372D01*
X96722460Y-122684938D01*
X96726887Y-122688194D01*
X96731576Y-122691139D01*
X96736529Y-122693775D01*
X96741746Y-122696100D01*
X96747227Y-122698115D01*
X96752970Y-122699821D01*
X96758978Y-122701216D01*
X96765249Y-122702301D01*
X96771783Y-122703076D01*
X96778581Y-122703541D01*
X96785643Y-122703696D01*
X96792736Y-122703541D01*
X96799628Y-122703076D01*
X96806320Y-122702301D01*
X96812814Y-122701216D01*
X96819111Y-122699821D01*
X96825210Y-122698116D01*
X96831114Y-122696100D01*
X96836823Y-122693775D01*
X96842339Y-122691139D01*
X96847661Y-122688194D01*
X96852792Y-122684938D01*
X96857731Y-122681373D01*
X96862481Y-122677497D01*
X96867042Y-122673311D01*
X96871415Y-122668815D01*
X96875601Y-122664009D01*
X96879601Y-122658893D01*
X96883416Y-122653467D01*
X96890494Y-122641685D01*
X96896844Y-122628663D01*
X96902473Y-122614400D01*
X96907388Y-122598897D01*
X96911599Y-122582154D01*
X96915111Y-122564171D01*
X96917934Y-122544947D01*
X96994664Y-122021073D01*
X97290997Y-122021073D01*
X97214267Y-122544947D01*
X97209956Y-122572324D01*
X97204955Y-122598892D01*
X97199256Y-122624645D01*
X97192852Y-122649581D01*
X97185735Y-122673695D01*
X97177897Y-122696984D01*
X97169330Y-122719443D01*
X97160027Y-122741069D01*
X97149980Y-122761858D01*
X97139181Y-122781806D01*
X97127622Y-122800909D01*
X97115296Y-122819163D01*
X97102195Y-122836564D01*
X97088311Y-122853109D01*
X97073636Y-122868794D01*
X97058163Y-122883614D01*
X97042040Y-122897566D01*
X97025421Y-122910645D01*
X97008306Y-122922849D01*
X96990694Y-122934173D01*
X96972587Y-122944614D01*
X96953984Y-122954167D01*
X96934884Y-122962828D01*
X96915288Y-122970595D01*
X96895196Y-122977462D01*
X96874608Y-122983426D01*
X96853524Y-122988483D01*
X96831944Y-122992630D01*
X96809868Y-122995861D01*
X96787296Y-122998175D01*
X96764227Y-122999565D01*
X96740663Y-123000030D01*
X96716786Y-122999596D01*
X96693766Y-122998293D01*
X96671591Y-122996123D01*
X96650250Y-122993084D01*
X96629730Y-122989178D01*
X96610020Y-122984403D01*
X96591108Y-122978760D01*
X96572983Y-122972249D01*
X96555633Y-122964869D01*
X96539047Y-122956622D01*
X96523213Y-122947506D01*
X96508119Y-122937522D01*
X96493753Y-122926670D01*
X96480105Y-122914950D01*
X96467162Y-122902361D01*
X96454913Y-122888905D01*
X96443968Y-122874612D01*
X96433958Y-122859516D01*
X96424885Y-122843623D01*
X96416755Y-122826934D01*
X96409570Y-122809455D01*
X96403334Y-122791190D01*
X96398052Y-122772141D01*
X96393727Y-122752314D01*
X96390364Y-122731711D01*
X96387965Y-122710337D01*
X96386536Y-122688195D01*
X96386079Y-122665291D01*
X96386599Y-122641626D01*
X96388100Y-122617206D01*
X96390585Y-122592034D01*
X96394059Y-122566114D01*
X96551432Y-121494551D01*
X96843851Y-121494551D01*
X97071393Y-121494551D01*
X97087268Y-121391363D01*
X97090193Y-121391467D01*
X97158706Y-120960093D01*
X97160505Y-120951318D01*
X97161936Y-120942853D01*
X97163003Y-120934699D01*
X97163709Y-120926854D01*
X97164058Y-120919320D01*
X97164055Y-120912095D01*
X97163703Y-120905181D01*
X97163006Y-120898577D01*
X97161968Y-120892283D01*
X97160593Y-120886299D01*
X97158884Y-120880625D01*
X97156846Y-120875261D01*
X97154482Y-120870207D01*
X97151797Y-120865463D01*
X97148794Y-120861029D01*
X97145477Y-120856905D01*
X97141941Y-120853061D01*
X97138273Y-120849464D01*
X97134466Y-120846115D01*
X97130512Y-120843015D01*
X97126402Y-120840162D01*
X97122130Y-120837558D01*
X97117687Y-120835202D01*
X97113066Y-120833093D01*
X97108259Y-120831233D01*
X97103258Y-120829620D01*
X97098055Y-120828256D01*
X97092643Y-120827140D01*
X97087014Y-120826272D01*
X97081161Y-120825652D01*
X97075074Y-120825279D01*
X97068748Y-120825155D01*
X97061888Y-120825287D01*
X97055198Y-120825683D01*
X97048677Y-120826341D01*
X97042326Y-120827264D01*
X97036143Y-120828450D01*
X97030128Y-120829899D01*
X97024281Y-120831612D01*
X97018601Y-120833589D01*
X97013088Y-120835829D01*
X97007740Y-120838333D01*
X97002559Y-120841100D01*
X96997543Y-120844131D01*
X96992691Y-120847425D01*
X96988004Y-120850983D01*
X96983480Y-120854805D01*
X96979120Y-120858890D01*
X96974922Y-120863238D01*
X96970887Y-120867850D01*
X96967014Y-120872726D01*
X96963302Y-120877865D01*
X96959750Y-120883268D01*
X96956360Y-120888934D01*
X96950057Y-120901058D01*
X96944390Y-120914235D01*
X96939355Y-120928467D01*
X96934947Y-120943753D01*
X96931164Y-120960093D01*
X96843851Y-121494551D01*
X96551432Y-121494551D01*
X96629537Y-120962738D01*
X96634344Y-120936382D01*
X96639836Y-120910886D01*
X96646019Y-120886243D01*
X96652895Y-120862444D01*
X96660469Y-120839483D01*
X96668744Y-120817351D01*
X96677725Y-120796041D01*
X96687415Y-120775545D01*
X96697818Y-120755855D01*
X96708938Y-120736963D01*
X96720779Y-120718862D01*
X96733345Y-120701544D01*
X96746639Y-120685001D01*
X96760666Y-120669226D01*
X96775430Y-120654210D01*
X96790933Y-120639946D01*
X96807056Y-120626490D01*
X96823675Y-120613901D01*
X96840791Y-120602181D01*
X96858402Y-120591329D01*
X96876510Y-120581345D01*
X96895113Y-120572229D01*
X96914213Y-120563982D01*
X96933808Y-120556602D01*
X96953900Y-120550091D01*
X96974488Y-120544448D01*
X96995572Y-120539673D01*
X97017152Y-120535767D01*
X97039228Y-120532728D01*
X97061800Y-120530558D01*
X97084869Y-120529255D01*
X97108433Y-120528821D01*
X97132310Y-120529225D01*
G37*
G36*
X96005122Y-122992092D02*
G01*
X95708788Y-122992092D01*
X96158580Y-119758884D01*
X96454914Y-119758884D01*
X96005122Y-122992092D01*
G37*
G36*
X95338436Y-120526609D02*
G01*
X95361456Y-120527916D01*
X95383631Y-120530099D01*
X95404973Y-120533161D01*
X95425493Y-120537108D01*
X95445203Y-120541941D01*
X95464114Y-120547666D01*
X95482239Y-120554287D01*
X95499589Y-120561806D01*
X95516175Y-120570229D01*
X95532009Y-120579559D01*
X95547104Y-120589799D01*
X95561469Y-120600954D01*
X95575117Y-120613028D01*
X95588060Y-120626024D01*
X95600310Y-120639946D01*
X95611690Y-120654706D01*
X95622019Y-120670218D01*
X95631302Y-120686490D01*
X95639543Y-120703529D01*
X95646744Y-120721343D01*
X95652911Y-120739940D01*
X95658047Y-120759328D01*
X95662156Y-120779514D01*
X95665242Y-120800506D01*
X95667308Y-120822312D01*
X95668359Y-120844940D01*
X95668399Y-120868397D01*
X95667430Y-120892691D01*
X95665458Y-120917831D01*
X95662486Y-120943822D01*
X95658518Y-120970675D01*
X95497122Y-122113675D01*
X95492013Y-122113320D01*
X95367477Y-122989444D01*
X95094957Y-122989444D01*
X95102893Y-122894194D01*
X95079081Y-122894194D01*
X95072011Y-122901015D01*
X95064694Y-122907589D01*
X95057128Y-122913914D01*
X95049315Y-122919991D01*
X95041253Y-122925820D01*
X95032944Y-122931401D01*
X95024386Y-122936734D01*
X95015581Y-122941819D01*
X95006646Y-122947534D01*
X94997680Y-122952816D01*
X94988652Y-122957725D01*
X94979531Y-122962324D01*
X94970286Y-122966675D01*
X94960886Y-122970840D01*
X94951300Y-122974881D01*
X94941497Y-122978860D01*
X94931446Y-122981707D01*
X94921116Y-122984276D01*
X94910476Y-122986534D01*
X94899495Y-122988451D01*
X94888142Y-122989997D01*
X94876385Y-122991139D01*
X94864195Y-122991847D01*
X94851539Y-122992089D01*
X94836781Y-122991625D01*
X94822275Y-122990234D01*
X94808025Y-122987921D01*
X94794034Y-122984689D01*
X94780307Y-122980543D01*
X94766847Y-122975486D01*
X94753658Y-122969522D01*
X94740745Y-122962655D01*
X94728111Y-122954889D01*
X94715759Y-122946227D01*
X94703695Y-122936674D01*
X94691921Y-122926233D01*
X94680441Y-122914909D01*
X94669260Y-122902705D01*
X94658382Y-122889625D01*
X94647809Y-122875674D01*
X94637826Y-122860853D01*
X94628715Y-122845169D01*
X94620480Y-122828624D01*
X94613124Y-122811223D01*
X94606653Y-122792969D01*
X94601068Y-122773866D01*
X94596375Y-122753918D01*
X94592578Y-122733130D01*
X94589679Y-122711504D01*
X94587684Y-122689044D01*
X94586596Y-122665756D01*
X94586418Y-122641642D01*
X94586652Y-122633693D01*
X94894043Y-122633693D01*
X94894191Y-122642774D01*
X94894572Y-122651445D01*
X94895194Y-122659709D01*
X94896063Y-122667569D01*
X94897188Y-122675031D01*
X94898577Y-122682097D01*
X94900237Y-122688772D01*
X94902176Y-122695059D01*
X94904402Y-122700962D01*
X94906923Y-122706485D01*
X94909746Y-122711633D01*
X94912318Y-122716439D01*
X94915069Y-122720935D01*
X94917990Y-122725121D01*
X94921074Y-122728996D01*
X94924312Y-122732562D01*
X94927699Y-122735818D01*
X94931224Y-122738763D01*
X94934882Y-122741399D01*
X94938663Y-122743724D01*
X94942561Y-122745740D01*
X94946567Y-122747445D01*
X94950674Y-122748841D01*
X94954874Y-122749926D01*
X94959159Y-122750701D01*
X94963522Y-122751166D01*
X94967954Y-122751321D01*
X94972388Y-122751229D01*
X94976760Y-122750954D01*
X94981070Y-122750501D01*
X94985318Y-122749874D01*
X94989504Y-122749076D01*
X94993628Y-122748112D01*
X94997689Y-122746984D01*
X95001689Y-122745698D01*
X95005627Y-122744257D01*
X95009503Y-122742665D01*
X95013316Y-122740925D01*
X95017068Y-122739042D01*
X95020758Y-122737019D01*
X95024385Y-122734861D01*
X95027951Y-122732571D01*
X95031454Y-122730153D01*
X95034897Y-122727612D01*
X95038281Y-122724955D01*
X95041611Y-122722189D01*
X95044890Y-122719322D01*
X95048123Y-122716363D01*
X95051314Y-122713318D01*
X95057582Y-122707003D01*
X95063726Y-122700440D01*
X95069778Y-122693691D01*
X95081726Y-122679883D01*
X95086687Y-122671822D01*
X95091648Y-122663512D01*
X95096609Y-122654954D01*
X95101570Y-122646148D01*
X95106531Y-122637095D01*
X95111492Y-122627793D01*
X95116453Y-122618243D01*
X95121414Y-122608445D01*
X95208726Y-121928466D01*
X95214018Y-121928466D01*
X95235184Y-121764425D01*
X95121414Y-121764425D01*
X95114553Y-121764595D01*
X95107863Y-121765105D01*
X95101343Y-121765955D01*
X95094991Y-121767143D01*
X95088809Y-121768668D01*
X95082794Y-121770529D01*
X95076947Y-121772725D01*
X95071267Y-121775256D01*
X95065753Y-121778120D01*
X95060406Y-121781316D01*
X95055225Y-121784844D01*
X95050208Y-121788702D01*
X95045357Y-121792890D01*
X95040670Y-121797406D01*
X95036146Y-121802249D01*
X95031786Y-121807419D01*
X95023553Y-121818735D01*
X95015967Y-121831345D01*
X95009025Y-121845242D01*
X95002723Y-121860418D01*
X94997056Y-121876866D01*
X94992020Y-121894576D01*
X94987613Y-121913543D01*
X94983830Y-121933757D01*
X94896517Y-122581987D01*
X94895619Y-122593181D01*
X94894915Y-122603944D01*
X94894413Y-122614282D01*
X94894119Y-122624196D01*
X94894043Y-122633693D01*
X94586652Y-122633693D01*
X94587155Y-122616706D01*
X94588811Y-122590952D01*
X94591389Y-122564384D01*
X94594893Y-122537007D01*
X94682206Y-121923174D01*
X94687012Y-121895797D01*
X94692500Y-121869229D01*
X94698670Y-121843476D01*
X94705522Y-121818540D01*
X94713057Y-121794426D01*
X94721273Y-121771137D01*
X94730172Y-121748678D01*
X94739753Y-121727052D01*
X94750015Y-121706263D01*
X94760960Y-121686315D01*
X94772588Y-121667212D01*
X94784897Y-121648958D01*
X94797888Y-121631557D01*
X94811562Y-121615012D01*
X94825917Y-121599327D01*
X94840955Y-121584507D01*
X94856612Y-121570555D01*
X94872824Y-121557476D01*
X94889586Y-121545272D01*
X94906894Y-121533948D01*
X94924745Y-121523507D01*
X94943135Y-121513954D01*
X94962060Y-121505293D01*
X94981515Y-121497526D01*
X95001498Y-121490659D01*
X95022004Y-121484695D01*
X95043029Y-121479638D01*
X95064570Y-121475491D01*
X95086622Y-121472260D01*
X95109182Y-121469946D01*
X95132246Y-121468556D01*
X95155810Y-121468091D01*
X95272225Y-121468091D01*
X95359538Y-120954800D01*
X95361337Y-120946025D01*
X95362767Y-120937560D01*
X95363834Y-120929406D01*
X95364540Y-120921561D01*
X95364890Y-120914027D01*
X95364886Y-120906803D01*
X95364534Y-120899888D01*
X95363837Y-120893284D01*
X95362799Y-120886990D01*
X95361424Y-120881006D01*
X95359716Y-120875332D01*
X95357678Y-120869968D01*
X95355314Y-120864914D01*
X95352629Y-120860170D01*
X95349626Y-120855736D01*
X95346309Y-120851612D01*
X95342773Y-120847768D01*
X95339105Y-120844171D01*
X95335298Y-120840823D01*
X95331343Y-120837722D01*
X95327234Y-120834870D01*
X95322961Y-120832265D01*
X95318518Y-120829909D01*
X95313897Y-120827800D01*
X95309090Y-120825940D01*
X95304089Y-120824328D01*
X95298887Y-120822963D01*
X95293475Y-120821847D01*
X95287846Y-120820979D01*
X95281992Y-120820359D01*
X95275906Y-120819987D01*
X95269579Y-120819863D01*
X95265115Y-120819987D01*
X95260655Y-120820359D01*
X95256202Y-120820979D01*
X95251761Y-120821847D01*
X95247336Y-120822963D01*
X95242930Y-120824327D01*
X95238547Y-120825940D01*
X95234192Y-120827800D01*
X95229867Y-120829908D01*
X95225577Y-120832265D01*
X95221326Y-120834869D01*
X95217118Y-120837722D01*
X95212956Y-120840822D01*
X95208844Y-120844171D01*
X95204787Y-120847768D01*
X95200788Y-120851612D01*
X95196882Y-120855736D01*
X95193104Y-120860170D01*
X95189458Y-120864913D01*
X95185947Y-120869967D01*
X95182576Y-120875331D01*
X95179348Y-120881005D01*
X95176267Y-120886989D01*
X95173338Y-120893284D01*
X95170563Y-120899888D01*
X95167948Y-120906802D01*
X95165495Y-120914027D01*
X95163209Y-120921561D01*
X95161094Y-120929406D01*
X95159153Y-120937560D01*
X95157390Y-120946025D01*
X95155810Y-120954800D01*
X95105539Y-121259071D01*
X94809205Y-121259071D01*
X94859476Y-120933634D01*
X94864282Y-120908736D01*
X94869770Y-120884639D01*
X94875940Y-120861342D01*
X94882793Y-120838838D01*
X94890327Y-120817126D01*
X94898543Y-120796200D01*
X94907442Y-120776057D01*
X94917023Y-120756693D01*
X94927286Y-120738104D01*
X94938231Y-120720287D01*
X94949858Y-120703237D01*
X94962167Y-120686950D01*
X94975159Y-120671424D01*
X94988832Y-120656653D01*
X95003188Y-120642633D01*
X95018226Y-120629362D01*
X95033791Y-120616867D01*
X95049733Y-120605178D01*
X95066054Y-120594295D01*
X95082759Y-120584218D01*
X95099852Y-120574947D01*
X95117336Y-120566483D01*
X95135215Y-120558824D01*
X95153494Y-120551972D01*
X95172176Y-120545926D01*
X95191264Y-120540686D01*
X95210764Y-120536252D01*
X95230678Y-120532624D01*
X95251011Y-120529802D01*
X95271766Y-120527787D01*
X95292948Y-120526578D01*
X95314559Y-120526175D01*
X95338436Y-120526609D01*
G37*
G36*
X103498123Y-120727259D02*
G01*
X100929017Y-120727259D01*
X100952831Y-120557925D01*
X103519288Y-120557925D01*
X103498123Y-120727259D01*
G37*
G36*
X103175331Y-123007967D02*
G01*
X100606225Y-123007967D01*
X100630039Y-122841279D01*
X103196496Y-122841279D01*
X103175331Y-123007967D01*
G37*
G36*
X103227037Y-120941850D02*
G01*
X103241269Y-120942692D01*
X103255067Y-120944099D01*
X103268430Y-120946077D01*
X103281360Y-120948628D01*
X103293855Y-120951756D01*
X103305916Y-120955466D01*
X103317543Y-120959761D01*
X103328737Y-120964645D01*
X103339496Y-120970122D01*
X103349821Y-120976196D01*
X103359711Y-120982871D01*
X103369168Y-120990150D01*
X103378191Y-120998038D01*
X103386780Y-121006538D01*
X103394935Y-121015654D01*
X103402532Y-121025266D01*
X103409450Y-121035255D01*
X103415695Y-121045623D01*
X103421268Y-121056375D01*
X103426176Y-121067515D01*
X103430420Y-121079046D01*
X103434006Y-121090972D01*
X103436936Y-121103297D01*
X103439216Y-121116026D01*
X103440848Y-121129161D01*
X103441837Y-121142708D01*
X103442186Y-121156669D01*
X103441900Y-121171049D01*
X103440982Y-121185851D01*
X103439437Y-121201079D01*
X103437267Y-121216738D01*
X103431060Y-121252948D01*
X103424327Y-121288134D01*
X103417036Y-121322266D01*
X103409155Y-121355313D01*
X103400655Y-121387244D01*
X103391503Y-121418028D01*
X103381669Y-121447633D01*
X103371122Y-121476030D01*
X103360078Y-121504431D01*
X103348756Y-121532088D01*
X103337123Y-121559001D01*
X103325150Y-121585170D01*
X103312804Y-121610594D01*
X103300055Y-121635275D01*
X103286873Y-121659211D01*
X103273225Y-121682404D01*
X103259329Y-121705973D01*
X103245402Y-121729078D01*
X103231413Y-121751748D01*
X103217332Y-121774016D01*
X103203126Y-121795911D01*
X103188765Y-121817465D01*
X103174218Y-121838709D01*
X103159454Y-121859675D01*
X103144690Y-121880634D01*
X103130143Y-121901842D01*
X103115782Y-121923298D01*
X103101576Y-121945002D01*
X103073505Y-121989155D01*
X103045682Y-122034299D01*
X103020010Y-122080518D01*
X103007406Y-122104155D01*
X102995081Y-122128226D01*
X102983128Y-122152793D01*
X102971641Y-122177919D01*
X102960711Y-122203664D01*
X102950433Y-122230091D01*
X102939891Y-122257258D01*
X102930093Y-122285199D01*
X102921039Y-122313947D01*
X102912730Y-122343531D01*
X102905164Y-122373984D01*
X102898343Y-122405336D01*
X102892266Y-122437618D01*
X102886934Y-122470862D01*
X103249414Y-122470862D01*
X103228246Y-122640195D01*
X102696433Y-122637550D01*
X102717599Y-122470862D01*
X102723806Y-122433779D01*
X102730539Y-122397936D01*
X102737831Y-122363334D01*
X102745712Y-122329971D01*
X102754213Y-122297849D01*
X102763365Y-122266967D01*
X102773199Y-122237326D01*
X102783746Y-122208925D01*
X102794789Y-122181391D01*
X102806112Y-122154354D01*
X102817744Y-122127813D01*
X102829718Y-122101768D01*
X102842063Y-122076219D01*
X102854812Y-122051166D01*
X102867995Y-122026610D01*
X102881643Y-122002549D01*
X102895538Y-121978980D01*
X102909465Y-121955875D01*
X102923454Y-121933205D01*
X102937536Y-121910938D01*
X102951742Y-121889042D01*
X102966103Y-121867488D01*
X102980650Y-121846244D01*
X102995414Y-121825279D01*
X103010178Y-121804319D01*
X103024724Y-121783111D01*
X103039085Y-121761655D01*
X103053291Y-121739951D01*
X103081362Y-121695798D01*
X103109184Y-121650654D01*
X103134856Y-121604476D01*
X103147460Y-121580937D01*
X103159785Y-121557058D01*
X103171738Y-121532806D01*
X103183226Y-121508151D01*
X103194156Y-121483062D01*
X103204435Y-121457508D01*
X103214977Y-121431102D01*
X103224775Y-121403517D01*
X103233829Y-121374816D01*
X103242138Y-121345061D01*
X103249704Y-121314313D01*
X103256525Y-121282636D01*
X103262602Y-121250090D01*
X103267934Y-121216738D01*
X103269455Y-121203777D01*
X103269869Y-121197621D01*
X103270053Y-121191680D01*
X103270009Y-121185954D01*
X103269737Y-121180443D01*
X103269238Y-121175147D01*
X103268513Y-121170064D01*
X103267564Y-121165194D01*
X103266391Y-121160536D01*
X103264995Y-121156091D01*
X103263377Y-121151858D01*
X103261538Y-121147836D01*
X103259479Y-121144024D01*
X103257201Y-121140423D01*
X103254706Y-121137032D01*
X103251993Y-121133850D01*
X103249064Y-121130876D01*
X103245920Y-121128111D01*
X103242562Y-121125554D01*
X103238990Y-121123205D01*
X103235207Y-121121062D01*
X103231212Y-121119125D01*
X103227007Y-121117395D01*
X103222593Y-121115869D01*
X103217970Y-121114549D01*
X103213140Y-121113433D01*
X103208104Y-121112521D01*
X103202862Y-121111813D01*
X103197416Y-121111308D01*
X103185914Y-121110904D01*
X103180039Y-121111005D01*
X103174318Y-121111308D01*
X103168753Y-121111813D01*
X103163342Y-121112521D01*
X103158087Y-121113433D01*
X103152986Y-121114549D01*
X103148041Y-121115869D01*
X103143251Y-121117395D01*
X103138615Y-121119125D01*
X103134135Y-121121062D01*
X103129809Y-121123205D01*
X103125639Y-121125554D01*
X103121624Y-121128111D01*
X103117764Y-121130876D01*
X103114058Y-121133850D01*
X103110508Y-121137032D01*
X103107113Y-121140423D01*
X103103873Y-121144024D01*
X103100788Y-121147836D01*
X103097858Y-121151858D01*
X103095082Y-121156091D01*
X103092462Y-121160536D01*
X103089997Y-121165194D01*
X103087687Y-121170064D01*
X103085532Y-121175147D01*
X103083532Y-121180443D01*
X103081688Y-121185954D01*
X103079998Y-121191680D01*
X103078463Y-121197621D01*
X103077083Y-121203777D01*
X103074788Y-121216738D01*
X103032455Y-121499842D01*
X102863122Y-121499842D01*
X102905456Y-121214092D01*
X102908185Y-121198433D01*
X102911409Y-121183209D01*
X102915130Y-121168420D01*
X102919347Y-121154064D01*
X102924060Y-121140142D01*
X102929268Y-121126655D01*
X102934974Y-121113601D01*
X102941175Y-121100982D01*
X102947872Y-121088796D01*
X102955065Y-121077045D01*
X102962755Y-121065728D01*
X102970940Y-121054845D01*
X102979622Y-121044396D01*
X102988800Y-121034381D01*
X102998474Y-121024800D01*
X103008644Y-121015654D01*
X103019216Y-121006538D01*
X103030095Y-120998038D01*
X103041275Y-120990150D01*
X103052755Y-120982871D01*
X103064528Y-120976196D01*
X103076593Y-120970122D01*
X103088944Y-120964645D01*
X103101578Y-120959761D01*
X103114491Y-120955466D01*
X103127680Y-120951756D01*
X103141139Y-120948628D01*
X103154866Y-120946077D01*
X103168857Y-120944099D01*
X103183107Y-120942692D01*
X103197613Y-120941850D01*
X103212371Y-120941570D01*
X103227037Y-120941850D01*
G37*
G36*
X102499433Y-120939670D02*
G01*
X102513665Y-120940914D01*
X102527463Y-120942663D01*
X102540826Y-120944919D01*
X102553756Y-120947687D01*
X102566251Y-120950971D01*
X102578312Y-120954774D01*
X102589940Y-120959100D01*
X102601133Y-120963953D01*
X102611892Y-120969337D01*
X102622217Y-120975256D01*
X102632108Y-120981713D01*
X102641564Y-120988713D01*
X102650587Y-120996260D01*
X102659176Y-121004357D01*
X102667331Y-121013008D01*
X102674958Y-121022155D01*
X102681960Y-121031731D01*
X102688335Y-121041734D01*
X102694078Y-121052159D01*
X102699186Y-121063002D01*
X102703654Y-121074261D01*
X102707479Y-121085930D01*
X102710656Y-121098006D01*
X102713183Y-121110485D01*
X102715054Y-121123364D01*
X102716266Y-121136638D01*
X102716816Y-121150303D01*
X102716699Y-121164356D01*
X102715912Y-121178792D01*
X102714450Y-121193608D01*
X102712310Y-121208801D01*
X102606475Y-121917884D01*
X102604487Y-121917729D01*
X102537685Y-122372968D01*
X102534927Y-122388160D01*
X102531618Y-122402976D01*
X102527767Y-122417413D01*
X102523381Y-122431466D01*
X102518468Y-122445131D01*
X102513035Y-122458405D01*
X102507091Y-122471283D01*
X102500643Y-122483762D01*
X102493699Y-122495838D01*
X102486267Y-122507507D01*
X102478354Y-122518766D01*
X102469968Y-122529609D01*
X102461118Y-122540034D01*
X102451809Y-122550037D01*
X102442051Y-122559613D01*
X102431852Y-122568759D01*
X102421279Y-122577410D01*
X102410401Y-122585503D01*
X102399220Y-122593037D01*
X102387741Y-122600013D01*
X102375967Y-122606432D01*
X102363903Y-122612292D01*
X102351551Y-122617594D01*
X102338917Y-122622338D01*
X102326004Y-122626523D01*
X102312816Y-122630151D01*
X102299356Y-122633221D01*
X102285629Y-122635732D01*
X102271638Y-122637686D01*
X102257388Y-122639081D01*
X102242882Y-122639918D01*
X102228124Y-122640197D01*
X102213458Y-122639452D01*
X102199226Y-122638208D01*
X102185428Y-122636459D01*
X102172065Y-122634203D01*
X102159135Y-122631435D01*
X102146640Y-122628152D01*
X102134578Y-122624349D01*
X102122951Y-122620023D01*
X102111758Y-122615170D01*
X102100999Y-122609786D01*
X102090674Y-122603867D01*
X102080783Y-122597410D01*
X102071326Y-122590409D01*
X102062304Y-122582863D01*
X102053715Y-122574766D01*
X102045560Y-122566115D01*
X102037963Y-122556968D01*
X102031044Y-122547392D01*
X102024800Y-122537389D01*
X102019226Y-122526964D01*
X102014318Y-122516121D01*
X102010073Y-122504862D01*
X102006487Y-122493193D01*
X102003557Y-122481117D01*
X102001277Y-122468638D01*
X101999645Y-122455759D01*
X101998656Y-122442485D01*
X101998306Y-122428820D01*
X101998592Y-122414767D01*
X101999511Y-122400331D01*
X101999894Y-122396657D01*
X102168832Y-122396657D01*
X102168932Y-122402238D01*
X102169294Y-122407571D01*
X102169913Y-122412656D01*
X102170780Y-122417493D01*
X102171887Y-122422082D01*
X102173227Y-122426423D01*
X102174791Y-122430515D01*
X102176573Y-122434360D01*
X102178564Y-122437957D01*
X102180757Y-122441305D01*
X102183143Y-122444406D01*
X102186183Y-122447755D01*
X102189355Y-122450860D01*
X102192666Y-122453725D01*
X102196125Y-122456354D01*
X102199738Y-122458750D01*
X102203514Y-122460917D01*
X102207461Y-122462859D01*
X102211586Y-122464581D01*
X102215897Y-122466085D01*
X102220402Y-122467376D01*
X102225108Y-122468458D01*
X102230024Y-122469335D01*
X102235157Y-122470010D01*
X102240514Y-122470487D01*
X102246105Y-122470771D01*
X102251935Y-122470865D01*
X102263561Y-122470461D01*
X102269162Y-122469958D01*
X102274621Y-122469252D01*
X102279937Y-122468345D01*
X102285108Y-122467237D01*
X102290133Y-122465927D01*
X102295013Y-122464415D01*
X102299745Y-122462702D01*
X102304329Y-122460788D01*
X102308763Y-122458671D01*
X102313048Y-122456354D01*
X102317181Y-122453834D01*
X102321162Y-122451114D01*
X102324990Y-122448191D01*
X102328664Y-122445067D01*
X102332183Y-122441742D01*
X102335546Y-122438215D01*
X102338752Y-122434487D01*
X102341800Y-122430557D01*
X102344689Y-122426425D01*
X102347419Y-122422092D01*
X102349987Y-122417558D01*
X102352394Y-122412821D01*
X102354638Y-122407884D01*
X102356718Y-122402744D01*
X102358633Y-122397404D01*
X102360383Y-122391861D01*
X102361966Y-122386118D01*
X102363381Y-122380172D01*
X102365705Y-122367677D01*
X102439788Y-121883489D01*
X102440293Y-121883497D01*
X102540330Y-121211448D01*
X102541206Y-121205100D01*
X102541851Y-121198953D01*
X102542265Y-121193007D01*
X102542449Y-121187263D01*
X102542405Y-121181721D01*
X102542133Y-121176380D01*
X102541634Y-121171241D01*
X102540909Y-121166304D01*
X102539960Y-121161567D01*
X102538787Y-121157033D01*
X102537391Y-121152700D01*
X102535773Y-121148568D01*
X102533934Y-121144638D01*
X102531875Y-121140910D01*
X102529597Y-121137383D01*
X102527102Y-121134057D01*
X102524389Y-121130934D01*
X102521460Y-121128011D01*
X102518316Y-121125290D01*
X102514958Y-121122771D01*
X102511387Y-121120454D01*
X102507603Y-121118337D01*
X102503608Y-121116423D01*
X102499403Y-121114710D01*
X102494989Y-121113198D01*
X102490366Y-121111888D01*
X102485537Y-121110780D01*
X102480500Y-121109873D01*
X102475258Y-121109167D01*
X102469812Y-121108663D01*
X102464163Y-121108361D01*
X102458311Y-121108260D01*
X102452435Y-121108361D01*
X102446714Y-121108663D01*
X102441149Y-121109167D01*
X102435738Y-121109873D01*
X102430483Y-121110780D01*
X102425382Y-121111888D01*
X102420437Y-121113198D01*
X102415647Y-121114710D01*
X102411011Y-121116423D01*
X102406531Y-121118337D01*
X102402206Y-121120454D01*
X102398035Y-121122771D01*
X102394020Y-121125290D01*
X102390160Y-121128011D01*
X102386454Y-121130934D01*
X102382904Y-121134057D01*
X102379509Y-121137383D01*
X102376269Y-121140910D01*
X102373184Y-121144638D01*
X102370254Y-121148568D01*
X102367479Y-121152700D01*
X102364858Y-121157033D01*
X102362393Y-121161567D01*
X102360083Y-121166304D01*
X102357929Y-121171241D01*
X102355929Y-121176380D01*
X102354084Y-121181721D01*
X102352394Y-121187263D01*
X102349479Y-121198953D01*
X102347185Y-121211448D01*
X102172559Y-122365031D01*
X102171225Y-122371853D01*
X102170193Y-122378426D01*
X102169455Y-122384751D01*
X102169004Y-122390828D01*
X102168832Y-122396657D01*
X101999894Y-122396657D01*
X102001057Y-122385515D01*
X102003227Y-122370322D01*
X102177852Y-121206155D01*
X102180581Y-121190963D01*
X102183805Y-121176147D01*
X102187526Y-121161710D01*
X102191743Y-121147657D01*
X102196456Y-121133992D01*
X102201665Y-121120718D01*
X102207370Y-121107840D01*
X102213571Y-121095361D01*
X102220268Y-121083285D01*
X102227461Y-121071615D01*
X102235151Y-121060357D01*
X102243336Y-121049513D01*
X102252018Y-121039088D01*
X102261196Y-121029085D01*
X102270870Y-121019509D01*
X102281040Y-121010363D01*
X102292048Y-121001712D01*
X102303250Y-120993620D01*
X102314653Y-120986085D01*
X102326266Y-120979109D01*
X102338096Y-120972691D01*
X102350150Y-120966831D01*
X102362437Y-120961529D01*
X102374965Y-120956785D01*
X102387740Y-120952599D01*
X102400772Y-120948971D01*
X102414067Y-120945901D01*
X102427633Y-120943390D01*
X102441479Y-120941437D01*
X102455611Y-120940041D01*
X102470038Y-120939204D01*
X102484767Y-120938925D01*
X102499433Y-120939670D01*
G37*
G36*
X101774475Y-120936558D02*
G01*
X101788707Y-120937400D01*
X101802505Y-120938808D01*
X101815868Y-120940785D01*
X101828798Y-120943336D01*
X101841293Y-120946464D01*
X101853355Y-120950174D01*
X101864982Y-120954469D01*
X101876175Y-120959353D01*
X101886934Y-120964830D01*
X101897259Y-120970904D01*
X101907150Y-120977579D01*
X101916607Y-120984858D01*
X101925629Y-120992746D01*
X101934218Y-121001246D01*
X101942373Y-121010362D01*
X101949970Y-121019975D01*
X101956888Y-121029963D01*
X101963132Y-121040332D01*
X101968706Y-121051084D01*
X101973614Y-121062223D01*
X101977858Y-121073754D01*
X101981444Y-121085681D01*
X101984375Y-121098006D01*
X101986654Y-121110735D01*
X101988287Y-121123870D01*
X101989276Y-121137417D01*
X101989625Y-121151378D01*
X101989339Y-121165757D01*
X101988421Y-121180559D01*
X101986875Y-121195787D01*
X101984704Y-121211446D01*
X101978499Y-121247656D01*
X101971766Y-121282842D01*
X101964474Y-121316974D01*
X101956594Y-121350021D01*
X101948093Y-121381952D01*
X101938941Y-121412736D01*
X101929107Y-121442341D01*
X101918559Y-121470738D01*
X101907516Y-121499139D01*
X101896194Y-121526796D01*
X101884561Y-121553709D01*
X101872587Y-121579878D01*
X101860242Y-121605303D01*
X101847493Y-121629983D01*
X101834310Y-121653920D01*
X101820663Y-121677112D01*
X101806767Y-121700682D01*
X101792841Y-121723786D01*
X101778852Y-121746457D01*
X101764770Y-121768724D01*
X101750564Y-121790619D01*
X101736203Y-121812173D01*
X101721656Y-121833417D01*
X101706891Y-121854383D01*
X101692127Y-121875343D01*
X101677580Y-121896550D01*
X101663220Y-121918006D01*
X101649014Y-121939710D01*
X101620944Y-121983863D01*
X101593122Y-122029007D01*
X101579479Y-122051962D01*
X101566332Y-122075227D01*
X101553682Y-122098863D01*
X101541527Y-122122934D01*
X101529869Y-122147501D01*
X101518707Y-122172627D01*
X101508041Y-122198372D01*
X101497871Y-122224799D01*
X101487329Y-122251966D01*
X101477531Y-122279907D01*
X101468477Y-122308655D01*
X101460167Y-122338240D01*
X101452602Y-122368692D01*
X101445781Y-122400045D01*
X101439704Y-122432327D01*
X101434371Y-122465571D01*
X101796852Y-122465571D01*
X101775684Y-122634903D01*
X101243871Y-122632258D01*
X101265039Y-122465571D01*
X101271245Y-122428488D01*
X101277978Y-122392645D01*
X101285269Y-122358042D01*
X101293150Y-122324680D01*
X101301650Y-122292557D01*
X101310802Y-122261676D01*
X101320637Y-122232034D01*
X101331184Y-122203633D01*
X101342227Y-122176099D01*
X101353550Y-122149062D01*
X101365182Y-122122521D01*
X101377156Y-122096476D01*
X101389502Y-122070927D01*
X101402250Y-122045874D01*
X101415433Y-122021318D01*
X101429080Y-121997257D01*
X101442976Y-121973688D01*
X101456903Y-121950583D01*
X101470892Y-121927913D01*
X101484974Y-121905646D01*
X101499180Y-121883750D01*
X101513541Y-121862196D01*
X101528088Y-121840952D01*
X101542852Y-121819988D01*
X101557616Y-121799028D01*
X101572163Y-121777820D01*
X101586524Y-121756364D01*
X101600730Y-121734659D01*
X101628800Y-121690507D01*
X101656623Y-121645362D01*
X101682296Y-121599184D01*
X101694900Y-121575645D01*
X101707225Y-121551766D01*
X101719178Y-121527514D01*
X101730665Y-121502859D01*
X101741594Y-121477770D01*
X101751872Y-121452216D01*
X101762415Y-121425810D01*
X101772212Y-121398225D01*
X101781266Y-121369524D01*
X101789576Y-121339769D01*
X101797141Y-121309022D01*
X101803963Y-121277344D01*
X101810039Y-121244798D01*
X101815372Y-121211446D01*
X101816893Y-121198485D01*
X101817307Y-121192329D01*
X101817491Y-121186388D01*
X101817446Y-121180662D01*
X101817174Y-121175152D01*
X101816676Y-121169855D01*
X101815951Y-121164772D01*
X101815002Y-121159902D01*
X101813828Y-121155244D01*
X101812432Y-121150799D01*
X101810814Y-121146566D01*
X101808976Y-121142544D01*
X101806917Y-121138732D01*
X101804639Y-121135131D01*
X101802143Y-121131740D01*
X101799430Y-121128558D01*
X101796502Y-121125584D01*
X101793358Y-121122820D01*
X101789999Y-121120262D01*
X101786428Y-121117913D01*
X101782645Y-121115770D01*
X101778650Y-121113833D01*
X101774445Y-121112103D01*
X101770031Y-121110577D01*
X101765408Y-121109257D01*
X101760578Y-121108141D01*
X101755542Y-121107229D01*
X101750300Y-121106521D01*
X101744854Y-121106016D01*
X101733352Y-121105612D01*
X101727477Y-121105713D01*
X101721756Y-121106016D01*
X101716190Y-121106521D01*
X101710780Y-121107229D01*
X101705525Y-121108141D01*
X101700424Y-121109257D01*
X101695479Y-121110577D01*
X101690688Y-121112103D01*
X101686053Y-121113833D01*
X101681573Y-121115770D01*
X101677247Y-121117913D01*
X101673077Y-121120262D01*
X101669062Y-121122820D01*
X101665201Y-121125584D01*
X101661496Y-121128558D01*
X101657946Y-121131740D01*
X101654551Y-121135131D01*
X101651311Y-121138732D01*
X101648226Y-121142544D01*
X101645296Y-121146566D01*
X101642521Y-121150799D01*
X101639901Y-121155244D01*
X101637436Y-121159902D01*
X101635126Y-121164772D01*
X101632971Y-121169855D01*
X101630971Y-121175152D01*
X101629126Y-121180662D01*
X101627437Y-121186388D01*
X101625902Y-121192329D01*
X101624522Y-121198485D01*
X101622228Y-121211446D01*
X101579893Y-121494550D01*
X101410560Y-121494550D01*
X101452894Y-121208800D01*
X101455623Y-121193142D01*
X101458847Y-121177918D01*
X101462568Y-121163128D01*
X101466785Y-121148772D01*
X101471498Y-121134851D01*
X101476707Y-121121363D01*
X101482413Y-121108310D01*
X101488614Y-121095690D01*
X101495311Y-121083505D01*
X101502504Y-121071754D01*
X101510194Y-121060437D01*
X101518379Y-121049554D01*
X101527060Y-121039105D01*
X101536238Y-121029090D01*
X101545912Y-121019509D01*
X101556081Y-121010362D01*
X101566654Y-121001246D01*
X101577532Y-120992746D01*
X101588713Y-120984858D01*
X101600193Y-120977579D01*
X101611966Y-120970904D01*
X101624031Y-120964830D01*
X101636382Y-120959353D01*
X101649017Y-120954469D01*
X101661930Y-120950174D01*
X101675118Y-120946464D01*
X101688578Y-120943336D01*
X101702305Y-120940785D01*
X101716295Y-120938808D01*
X101730545Y-120937400D01*
X101745051Y-120936558D01*
X101759809Y-120936279D01*
X101774475Y-120936558D01*
G37*
G36*
X100137977Y-120529225D02*
G01*
X100160997Y-120530439D01*
X100183172Y-120532466D01*
X100204514Y-120535312D01*
X100225034Y-120538979D01*
X100244744Y-120543472D01*
X100263656Y-120548794D01*
X100281781Y-120554949D01*
X100299130Y-120561942D01*
X100315716Y-120569775D01*
X100331551Y-120578454D01*
X100346645Y-120587981D01*
X100361010Y-120598361D01*
X100374658Y-120609597D01*
X100387601Y-120621694D01*
X100399850Y-120634655D01*
X100411230Y-120647956D01*
X100421560Y-120662059D01*
X100430843Y-120676961D01*
X100439084Y-120692657D01*
X100446286Y-120709144D01*
X100452453Y-120726417D01*
X100457589Y-120744474D01*
X100461697Y-120763309D01*
X100464783Y-120782920D01*
X100466850Y-120803301D01*
X100467900Y-120824451D01*
X100467940Y-120846363D01*
X100466971Y-120869036D01*
X100464999Y-120892464D01*
X100462027Y-120916644D01*
X100458059Y-120941571D01*
X100386621Y-121412530D01*
X100385050Y-121412516D01*
X100328412Y-121793531D01*
X99804538Y-121793531D01*
X99696059Y-122544947D01*
X99694950Y-122554714D01*
X99694105Y-122564170D01*
X99693524Y-122573317D01*
X99693206Y-122582154D01*
X99693152Y-122590680D01*
X99693361Y-122598897D01*
X99693834Y-122606803D01*
X99694571Y-122614400D01*
X99695571Y-122621686D01*
X99696834Y-122628662D01*
X99698361Y-122635329D01*
X99700152Y-122641685D01*
X99702206Y-122647731D01*
X99704524Y-122653467D01*
X99707105Y-122658893D01*
X99709950Y-122664009D01*
X99713058Y-122668815D01*
X99716430Y-122673311D01*
X99720065Y-122677497D01*
X99723964Y-122681372D01*
X99728127Y-122684938D01*
X99732553Y-122688194D01*
X99737243Y-122691139D01*
X99742196Y-122693775D01*
X99747412Y-122696100D01*
X99752893Y-122698115D01*
X99758637Y-122699821D01*
X99764644Y-122701216D01*
X99770915Y-122702301D01*
X99777449Y-122703076D01*
X99784247Y-122703541D01*
X99791309Y-122703696D01*
X99798402Y-122703541D01*
X99805294Y-122703076D01*
X99811987Y-122702301D01*
X99818481Y-122701216D01*
X99824777Y-122699821D01*
X99830877Y-122698116D01*
X99836781Y-122696100D01*
X99842490Y-122693775D01*
X99848005Y-122691139D01*
X99853328Y-122688194D01*
X99858458Y-122684938D01*
X99863398Y-122681373D01*
X99868148Y-122677497D01*
X99872709Y-122673311D01*
X99877082Y-122668815D01*
X99881268Y-122664009D01*
X99885268Y-122658893D01*
X99889082Y-122653467D01*
X99896161Y-122641685D01*
X99902510Y-122628663D01*
X99908139Y-122614400D01*
X99913055Y-122598897D01*
X99917265Y-122582154D01*
X99920778Y-122564171D01*
X99923601Y-122544947D01*
X100000329Y-122021073D01*
X100296663Y-122021073D01*
X100219934Y-122544947D01*
X100215623Y-122572324D01*
X100210621Y-122598892D01*
X100204923Y-122624645D01*
X100198519Y-122649581D01*
X100191401Y-122673695D01*
X100183563Y-122696984D01*
X100174997Y-122719443D01*
X100165694Y-122741069D01*
X100155646Y-122761858D01*
X100144847Y-122781806D01*
X100133289Y-122800909D01*
X100120963Y-122819163D01*
X100107861Y-122836564D01*
X100093977Y-122853109D01*
X100079302Y-122868794D01*
X100063829Y-122883614D01*
X100047706Y-122897566D01*
X100031087Y-122910645D01*
X100013972Y-122922849D01*
X99996361Y-122934173D01*
X99978253Y-122944614D01*
X99959650Y-122954167D01*
X99940550Y-122962828D01*
X99920954Y-122970595D01*
X99900863Y-122977462D01*
X99880275Y-122983426D01*
X99859191Y-122988483D01*
X99837611Y-122992630D01*
X99815534Y-122995861D01*
X99792962Y-122998175D01*
X99769894Y-122999565D01*
X99746330Y-123000030D01*
X99722453Y-122999596D01*
X99699433Y-122998293D01*
X99677258Y-122996123D01*
X99655916Y-122993084D01*
X99635396Y-122989178D01*
X99615686Y-122984403D01*
X99596775Y-122978760D01*
X99578650Y-122972249D01*
X99561300Y-122964869D01*
X99544714Y-122956622D01*
X99528880Y-122947506D01*
X99513786Y-122937522D01*
X99499420Y-122926670D01*
X99485772Y-122914950D01*
X99472829Y-122902361D01*
X99460579Y-122888905D01*
X99449635Y-122874612D01*
X99439625Y-122859516D01*
X99430552Y-122843623D01*
X99422421Y-122826934D01*
X99415236Y-122809455D01*
X99409001Y-122791190D01*
X99403719Y-122772141D01*
X99399394Y-122752314D01*
X99396031Y-122731711D01*
X99393632Y-122710337D01*
X99392203Y-122688195D01*
X99391746Y-122665291D01*
X99392266Y-122641626D01*
X99393767Y-122617206D01*
X99396252Y-122592034D01*
X99399725Y-122566114D01*
X99557099Y-121494551D01*
X99846872Y-121494551D01*
X100074413Y-121494551D01*
X100090290Y-121391363D01*
X100093215Y-121391467D01*
X100161725Y-120960093D01*
X100163525Y-120951318D01*
X100164955Y-120942853D01*
X100166022Y-120934699D01*
X100166728Y-120926854D01*
X100167078Y-120919320D01*
X100167075Y-120912095D01*
X100166723Y-120905181D01*
X100166026Y-120898577D01*
X100164988Y-120892283D01*
X100163613Y-120886299D01*
X100161904Y-120880625D01*
X100159866Y-120875261D01*
X100157503Y-120870207D01*
X100154818Y-120865463D01*
X100151815Y-120861029D01*
X100148498Y-120856905D01*
X100144962Y-120853061D01*
X100141294Y-120849464D01*
X100137486Y-120846115D01*
X100133532Y-120843015D01*
X100129422Y-120840162D01*
X100125150Y-120837558D01*
X100120707Y-120835202D01*
X100116086Y-120833093D01*
X100111278Y-120831233D01*
X100106277Y-120829620D01*
X100101075Y-120828256D01*
X100095663Y-120827140D01*
X100090034Y-120826272D01*
X100084180Y-120825652D01*
X100078094Y-120825279D01*
X100071767Y-120825155D01*
X100064907Y-120825287D01*
X100058217Y-120825683D01*
X100051697Y-120826341D01*
X100045346Y-120827264D01*
X100039163Y-120828450D01*
X100033148Y-120829899D01*
X100027301Y-120831612D01*
X100021621Y-120833589D01*
X100016108Y-120835829D01*
X100010761Y-120838333D01*
X100005579Y-120841100D01*
X100000563Y-120844131D01*
X99995712Y-120847425D01*
X99991024Y-120850983D01*
X99986501Y-120854805D01*
X99982140Y-120858890D01*
X99977943Y-120863238D01*
X99973908Y-120867850D01*
X99970034Y-120872726D01*
X99966322Y-120877865D01*
X99962771Y-120883268D01*
X99959380Y-120888934D01*
X99953077Y-120901058D01*
X99947410Y-120914235D01*
X99942375Y-120928467D01*
X99937968Y-120943753D01*
X99934184Y-120960093D01*
X99846872Y-121494551D01*
X99557099Y-121494551D01*
X99635204Y-120962738D01*
X99640010Y-120936382D01*
X99645503Y-120910886D01*
X99651686Y-120886243D01*
X99658562Y-120862444D01*
X99666136Y-120839483D01*
X99674411Y-120817351D01*
X99683392Y-120796041D01*
X99693082Y-120775545D01*
X99703485Y-120755855D01*
X99714605Y-120736963D01*
X99726446Y-120718862D01*
X99739012Y-120701544D01*
X99752306Y-120685001D01*
X99766333Y-120669226D01*
X99781096Y-120654210D01*
X99796600Y-120639946D01*
X99812723Y-120626490D01*
X99829342Y-120613901D01*
X99846457Y-120602181D01*
X99864069Y-120591329D01*
X99882176Y-120581345D01*
X99900780Y-120572229D01*
X99919879Y-120563982D01*
X99939475Y-120556602D01*
X99959567Y-120550091D01*
X99980155Y-120544448D01*
X100001239Y-120539673D01*
X100022819Y-120535767D01*
X100044895Y-120532728D01*
X100067468Y-120530558D01*
X100090536Y-120529255D01*
X100114101Y-120528821D01*
X100137977Y-120529225D01*
G37*
G36*
X101176864Y-113677327D02*
G01*
X101327444Y-113688782D01*
X101475824Y-113707646D01*
X101621818Y-113733732D01*
X101765241Y-113766852D01*
X101905906Y-113806819D01*
X102043629Y-113853447D01*
X102178223Y-113906548D01*
X102309504Y-113965936D01*
X102437286Y-114031423D01*
X102561382Y-114102823D01*
X102681609Y-114179947D01*
X102797779Y-114262611D01*
X102909708Y-114350626D01*
X103017210Y-114443805D01*
X103120099Y-114541962D01*
X103218190Y-114644909D01*
X103311297Y-114752459D01*
X103399235Y-114864426D01*
X103481818Y-114980622D01*
X103558861Y-115100861D01*
X103630178Y-115224955D01*
X103695584Y-115352717D01*
X103754892Y-115483961D01*
X103807918Y-115618499D01*
X103854476Y-115756144D01*
X103894380Y-115896710D01*
X103927445Y-116040010D01*
X103953485Y-116185855D01*
X103972315Y-116334060D01*
X103983749Y-116484437D01*
X103987602Y-116636800D01*
X103983742Y-116789395D01*
X103972286Y-116939976D01*
X103953422Y-117088356D01*
X103927337Y-117234350D01*
X103894217Y-117377773D01*
X103854249Y-117518438D01*
X103807621Y-117656161D01*
X103754520Y-117790755D01*
X103695133Y-117922036D01*
X103629645Y-118049818D01*
X103558246Y-118173914D01*
X103481121Y-118294141D01*
X103398457Y-118410311D01*
X103310443Y-118522240D01*
X103217263Y-118629741D01*
X103119107Y-118732631D01*
X103016160Y-118830722D01*
X102908609Y-118923829D01*
X102796642Y-119011767D01*
X102680446Y-119094350D01*
X102560207Y-119171393D01*
X102436113Y-119242710D01*
X102308351Y-119308115D01*
X102177107Y-119367424D01*
X102042569Y-119420450D01*
X101904924Y-119467008D01*
X101764358Y-119506912D01*
X101621059Y-119539977D01*
X101475213Y-119566017D01*
X101327008Y-119584847D01*
X101176631Y-119596281D01*
X101024269Y-119600133D01*
X101024269Y-118965133D01*
X101143849Y-118962096D01*
X101261887Y-118953083D01*
X101378233Y-118938241D01*
X101492741Y-118917720D01*
X101605263Y-118891666D01*
X101715651Y-118860227D01*
X101823757Y-118823550D01*
X101929433Y-118781785D01*
X102032532Y-118735078D01*
X102132906Y-118683577D01*
X102230407Y-118627430D01*
X102324888Y-118566785D01*
X102416200Y-118501790D01*
X102504195Y-118432591D01*
X102588727Y-118359338D01*
X102669647Y-118282177D01*
X102746808Y-118201257D01*
X102820061Y-118116726D01*
X102889260Y-118028730D01*
X102954255Y-117937418D01*
X103014900Y-117842938D01*
X103071047Y-117745437D01*
X103122548Y-117645063D01*
X103169255Y-117541964D01*
X103211021Y-117436288D01*
X103247697Y-117328182D01*
X103279136Y-117217794D01*
X103305190Y-117105273D01*
X103325712Y-116990765D01*
X103340553Y-116874418D01*
X103349566Y-116756380D01*
X103352603Y-116636800D01*
X103349566Y-116517220D01*
X103340553Y-116399182D01*
X103325712Y-116282836D01*
X103305190Y-116168327D01*
X103279136Y-116055806D01*
X103247697Y-115945418D01*
X103211021Y-115837312D01*
X103169255Y-115731636D01*
X103122548Y-115628537D01*
X103071047Y-115528163D01*
X103014900Y-115430662D01*
X102954255Y-115336182D01*
X102889259Y-115244870D01*
X102820061Y-115156875D01*
X102746807Y-115072343D01*
X102669646Y-114991423D01*
X102588726Y-114914262D01*
X102504194Y-114841009D01*
X102416199Y-114771810D01*
X102324887Y-114706815D01*
X102230406Y-114646170D01*
X102132905Y-114590023D01*
X102032532Y-114538522D01*
X101929433Y-114491815D01*
X101823756Y-114450050D01*
X101715650Y-114413373D01*
X101605263Y-114381934D01*
X101492741Y-114355880D01*
X101378233Y-114335359D01*
X101261886Y-114320517D01*
X101143849Y-114311504D01*
X101024269Y-114308467D01*
X100904688Y-114311504D01*
X100786651Y-114320517D01*
X100670304Y-114335359D01*
X100555796Y-114355880D01*
X100443274Y-114381934D01*
X100332886Y-114413373D01*
X100224781Y-114450050D01*
X100119104Y-114491815D01*
X100016005Y-114538522D01*
X99915632Y-114590023D01*
X99818131Y-114646170D01*
X99723651Y-114706815D01*
X99632339Y-114771810D01*
X99544343Y-114841009D01*
X99459811Y-114914262D01*
X99378891Y-114991423D01*
X99301731Y-115072343D01*
X99228477Y-115156874D01*
X99159279Y-115244870D01*
X99094283Y-115336182D01*
X99033638Y-115430662D01*
X98977491Y-115528163D01*
X98925991Y-115628537D01*
X98879284Y-115731636D01*
X98837518Y-115837312D01*
X98800842Y-115945418D01*
X98769403Y-116055805D01*
X98743349Y-116168327D01*
X98722827Y-116282835D01*
X98707986Y-116399182D01*
X98698973Y-116517220D01*
X98695936Y-116636800D01*
X98060935Y-116636800D01*
X98064795Y-116484205D01*
X98076251Y-116333624D01*
X98095115Y-116185244D01*
X98121200Y-116039250D01*
X98154320Y-115895827D01*
X98194288Y-115755162D01*
X98240916Y-115617439D01*
X98294017Y-115482845D01*
X98353404Y-115351564D01*
X98418892Y-115223782D01*
X98490291Y-115099686D01*
X98567416Y-114979459D01*
X98650079Y-114863289D01*
X98738094Y-114751360D01*
X98831273Y-114643859D01*
X98929430Y-114540969D01*
X99032377Y-114442878D01*
X99139928Y-114349771D01*
X99251894Y-114261833D01*
X99368091Y-114179250D01*
X99488329Y-114102207D01*
X99612423Y-114030890D01*
X99740186Y-113965485D01*
X99871429Y-113906176D01*
X100005967Y-113853150D01*
X100143613Y-113806592D01*
X100284179Y-113766688D01*
X100427478Y-113733623D01*
X100573324Y-113707583D01*
X100721529Y-113688753D01*
X100871906Y-113677319D01*
X101024269Y-113673467D01*
X101176864Y-113677327D01*
G37*
G36*
X92679310Y-119195321D02*
G01*
X92679310Y-123005321D01*
X87781872Y-123005321D01*
X87755740Y-123004659D01*
X87729949Y-123002697D01*
X87704533Y-122999465D01*
X87679522Y-122994996D01*
X87654950Y-122989321D01*
X87630847Y-122982473D01*
X87607246Y-122974484D01*
X87584179Y-122965385D01*
X87561678Y-122955209D01*
X87539775Y-122943987D01*
X87518501Y-122931752D01*
X87497890Y-122918536D01*
X87477972Y-122904369D01*
X87458780Y-122889285D01*
X87440345Y-122873316D01*
X87422701Y-122856493D01*
X87405878Y-122838848D01*
X87389908Y-122820414D01*
X87374824Y-122801222D01*
X87360658Y-122781304D01*
X87347441Y-122760692D01*
X87335206Y-122739419D01*
X87323984Y-122717516D01*
X87313808Y-122695015D01*
X87304709Y-122671948D01*
X87296720Y-122648347D01*
X87289872Y-122624244D01*
X87284197Y-122599672D01*
X87279728Y-122574661D01*
X87276496Y-122549245D01*
X87274534Y-122523454D01*
X87273873Y-122497321D01*
X87273873Y-118335426D01*
X87908873Y-118335426D01*
X87908873Y-122142780D01*
X87909165Y-122154373D01*
X87910033Y-122165828D01*
X87911462Y-122177129D01*
X87913441Y-122188260D01*
X87915954Y-122199207D01*
X87918988Y-122209956D01*
X87922530Y-122220490D01*
X87926567Y-122230795D01*
X87931083Y-122240856D01*
X87936067Y-122250657D01*
X87941505Y-122260185D01*
X87947382Y-122269423D01*
X87953685Y-122278357D01*
X87960402Y-122286972D01*
X87967517Y-122295252D01*
X87975019Y-122303183D01*
X87982892Y-122310750D01*
X87991124Y-122317938D01*
X87999700Y-122324731D01*
X88008608Y-122331115D01*
X88017834Y-122337074D01*
X88027364Y-122342594D01*
X88037185Y-122347659D01*
X88047283Y-122352255D01*
X88057644Y-122356367D01*
X88068256Y-122359979D01*
X88079104Y-122363077D01*
X88090174Y-122365645D01*
X88101454Y-122367668D01*
X88112930Y-122369132D01*
X88124588Y-122370022D01*
X88136414Y-122370321D01*
X92046956Y-122370321D01*
X92046956Y-118335426D01*
X87908873Y-118335426D01*
X87273873Y-118335426D01*
X87273873Y-117700425D01*
X92044310Y-117700425D01*
X92044310Y-114557175D01*
X92676664Y-114557175D01*
X92676664Y-118555029D01*
X96814747Y-118555029D01*
X96814747Y-114557175D01*
X92676664Y-114557175D01*
X92044310Y-114557175D01*
X92044310Y-113924822D01*
X97449747Y-113924822D01*
X97449747Y-119195321D01*
X92679310Y-119195321D01*
G37*
G36*
X101024267Y-114308467D02*
G01*
X100904686Y-114311504D01*
X100786649Y-114320517D01*
X100670302Y-114335359D01*
X100555794Y-114355880D01*
X100443272Y-114381934D01*
X100332885Y-114413373D01*
X100224779Y-114450050D01*
X100119102Y-114491815D01*
X100016004Y-114538522D01*
X99915630Y-114590023D01*
X99818129Y-114646170D01*
X99723649Y-114706815D01*
X99632337Y-114771810D01*
X99544341Y-114841009D01*
X99459809Y-114914262D01*
X99378889Y-114991423D01*
X99301729Y-115072343D01*
X99228475Y-115156875D01*
X99159277Y-115244870D01*
X99094281Y-115336182D01*
X99033636Y-115430662D01*
X98977490Y-115528163D01*
X98925989Y-115628537D01*
X98879282Y-115731636D01*
X98837516Y-115837312D01*
X98800840Y-115945418D01*
X98769401Y-116055806D01*
X98743347Y-116168327D01*
X98722825Y-116282836D01*
X98707984Y-116399182D01*
X98698971Y-116517220D01*
X98695934Y-116636800D01*
X98698971Y-116756380D01*
X98707984Y-116874418D01*
X98722825Y-116990765D01*
X98743347Y-117105273D01*
X98769401Y-117217794D01*
X98800840Y-117328182D01*
X98837516Y-117436288D01*
X98879281Y-117541964D01*
X98925988Y-117645063D01*
X98977489Y-117745437D01*
X99033636Y-117842938D01*
X99094281Y-117937418D01*
X99159277Y-118028730D01*
X99228475Y-118116726D01*
X99301728Y-118201257D01*
X99378889Y-118282177D01*
X99459809Y-118359338D01*
X99544340Y-118432591D01*
X99632336Y-118501790D01*
X99723648Y-118566785D01*
X99818128Y-118627430D01*
X99915629Y-118683577D01*
X100016003Y-118735078D01*
X100119102Y-118781785D01*
X100224778Y-118823550D01*
X100332884Y-118860227D01*
X100443272Y-118891666D01*
X100555793Y-118917720D01*
X100670302Y-118938241D01*
X100786648Y-118953083D01*
X100904686Y-118962096D01*
X101024267Y-118965133D01*
X101143847Y-118962096D01*
X101261885Y-118953083D01*
X101378231Y-118938241D01*
X101492740Y-118917720D01*
X101605261Y-118891666D01*
X101715649Y-118860227D01*
X101823755Y-118823550D01*
X101929431Y-118781785D01*
X102032530Y-118735078D01*
X102132904Y-118683577D01*
X102230405Y-118627430D01*
X102324885Y-118566785D01*
X102416197Y-118501790D01*
X102504193Y-118432591D01*
X102588724Y-118359338D01*
X102669644Y-118282177D01*
X102746805Y-118201257D01*
X102820058Y-118116726D01*
X102889256Y-118028730D01*
X102954252Y-117937418D01*
X103014897Y-117842938D01*
X103071044Y-117745437D01*
X103122545Y-117645063D01*
X103169252Y-117541964D01*
X103211017Y-117436288D01*
X103247693Y-117328182D01*
X103279132Y-117217794D01*
X103305186Y-117105273D01*
X103325708Y-116990765D01*
X103340549Y-116874418D01*
X103349562Y-116756380D01*
X103352600Y-116636800D01*
X103987600Y-116636800D01*
X103983740Y-116789395D01*
X103972284Y-116939976D01*
X103953420Y-117088356D01*
X103927335Y-117234350D01*
X103894215Y-117377773D01*
X103854247Y-117518438D01*
X103807620Y-117656161D01*
X103754518Y-117790755D01*
X103695131Y-117922036D01*
X103629643Y-118049818D01*
X103558244Y-118173914D01*
X103481119Y-118294141D01*
X103398455Y-118410311D01*
X103310441Y-118522240D01*
X103217261Y-118629741D01*
X103119105Y-118732631D01*
X103016158Y-118830722D01*
X102908607Y-118923829D01*
X102796640Y-119011767D01*
X102680444Y-119094350D01*
X102560206Y-119171393D01*
X102436112Y-119242710D01*
X102308349Y-119308115D01*
X102177105Y-119367424D01*
X102042567Y-119420450D01*
X101904922Y-119467008D01*
X101764356Y-119506912D01*
X101621057Y-119539977D01*
X101475211Y-119566017D01*
X101327006Y-119584847D01*
X101176629Y-119596281D01*
X101024267Y-119600133D01*
X100871671Y-119596273D01*
X100721091Y-119584818D01*
X100572710Y-119565954D01*
X100426716Y-119539868D01*
X100283294Y-119506748D01*
X100142628Y-119466781D01*
X100004906Y-119420153D01*
X99870311Y-119367052D01*
X99739030Y-119307664D01*
X99611249Y-119242177D01*
X99487152Y-119170778D01*
X99366926Y-119093653D01*
X99250755Y-119010989D01*
X99138827Y-118922974D01*
X99031325Y-118829795D01*
X98928436Y-118731639D01*
X98830345Y-118628691D01*
X98737238Y-118521141D01*
X98649300Y-118409174D01*
X98566716Y-118292978D01*
X98489673Y-118172739D01*
X98418357Y-118048645D01*
X98352951Y-117920883D01*
X98293643Y-117789639D01*
X98240617Y-117655101D01*
X98194059Y-117517456D01*
X98154155Y-117376890D01*
X98121090Y-117233591D01*
X98095050Y-117087745D01*
X98076220Y-116939540D01*
X98064786Y-116789163D01*
X98060934Y-116636800D01*
X98064794Y-116484205D01*
X98076249Y-116333624D01*
X98095113Y-116185244D01*
X98121199Y-116039250D01*
X98154318Y-115895828D01*
X98194286Y-115755162D01*
X98240914Y-115617440D01*
X98294015Y-115482845D01*
X98353403Y-115351564D01*
X98418890Y-115223783D01*
X98490289Y-115099686D01*
X98567414Y-114979460D01*
X98650077Y-114863290D01*
X98738092Y-114751361D01*
X98831272Y-114643859D01*
X98929428Y-114540970D01*
X99032375Y-114442879D01*
X99139926Y-114349772D01*
X99251892Y-114261834D01*
X99368089Y-114179250D01*
X99488327Y-114102208D01*
X99612421Y-114030891D01*
X99740184Y-113965485D01*
X99871427Y-113906177D01*
X100005966Y-113853151D01*
X100143611Y-113806593D01*
X100284177Y-113766689D01*
X100427476Y-113733624D01*
X100573322Y-113707584D01*
X100721527Y-113688754D01*
X100871904Y-113677320D01*
X101024267Y-113673467D01*
X101024267Y-114308467D01*
G37*
D11*
X160678761Y-63777166D02*
X160726380Y-63677166D01*
X160726380Y-63510500D01*
X160678761Y-63443833D01*
X160631142Y-63410500D01*
X160535904Y-63377166D01*
X160440666Y-63377166D01*
X160345428Y-63410500D01*
X160297809Y-63443833D01*
X160250190Y-63510500D01*
X160202571Y-63643833D01*
X160154952Y-63710500D01*
X160107333Y-63743833D01*
X160012095Y-63777166D01*
X159916857Y-63777166D01*
X159821619Y-63743833D01*
X159774000Y-63710500D01*
X159726380Y-63643833D01*
X159726380Y-63477166D01*
X159774000Y-63377166D01*
X160631142Y-62677166D02*
X160678761Y-62710500D01*
X160726380Y-62810500D01*
X160726380Y-62877166D01*
X160678761Y-62977166D01*
X160583523Y-63043833D01*
X160488285Y-63077166D01*
X160297809Y-63110500D01*
X160154952Y-63110500D01*
X159964476Y-63077166D01*
X159869238Y-63043833D01*
X159774000Y-62977166D01*
X159726380Y-62877166D01*
X159726380Y-62810500D01*
X159774000Y-62710500D01*
X159821619Y-62677166D01*
X160726380Y-62377166D02*
X159726380Y-62377166D01*
X160726380Y-61977166D02*
X160154952Y-62277166D01*
X159726380Y-61977166D02*
X160297809Y-62377166D01*
X162504380Y-63343833D02*
X162028190Y-63577166D01*
X162504380Y-63743833D02*
X161504380Y-63743833D01*
X161504380Y-63477166D01*
X161552000Y-63410500D01*
X161599619Y-63377166D01*
X161694857Y-63343833D01*
X161837714Y-63343833D01*
X161932952Y-63377166D01*
X161980571Y-63410500D01*
X162028190Y-63477166D01*
X162028190Y-63743833D01*
X162456761Y-63077166D02*
X162504380Y-62977166D01*
X162504380Y-62810500D01*
X162456761Y-62743833D01*
X162409142Y-62710500D01*
X162313904Y-62677166D01*
X162218666Y-62677166D01*
X162123428Y-62710500D01*
X162075809Y-62743833D01*
X162028190Y-62810500D01*
X161980571Y-62943833D01*
X161932952Y-63010500D01*
X161885333Y-63043833D01*
X161790095Y-63077166D01*
X161694857Y-63077166D01*
X161599619Y-63043833D01*
X161552000Y-63010500D01*
X161504380Y-62943833D01*
X161504380Y-62777166D01*
X161552000Y-62677166D01*
X161504380Y-62477166D02*
X161504380Y-62077166D01*
X162504380Y-62277166D02*
X161504380Y-62277166D01*
X158948380Y-63743833D02*
X157948380Y-63743833D01*
X158662666Y-63510500D01*
X157948380Y-63277166D01*
X158948380Y-63277166D01*
X158948380Y-62943833D02*
X157948380Y-62943833D01*
X157948380Y-62477166D02*
X157948380Y-62343833D01*
X157996000Y-62277166D01*
X158091238Y-62210500D01*
X158281714Y-62177166D01*
X158615047Y-62177166D01*
X158805523Y-62210500D01*
X158900761Y-62277166D01*
X158948380Y-62343833D01*
X158948380Y-62477166D01*
X158900761Y-62543833D01*
X158805523Y-62610500D01*
X158615047Y-62643833D01*
X158281714Y-62643833D01*
X158091238Y-62610500D01*
X157996000Y-62543833D01*
X157948380Y-62477166D01*
X161552000Y-60837166D02*
X161504380Y-60903833D01*
X161504380Y-61003833D01*
X161552000Y-61103833D01*
X161647238Y-61170500D01*
X161742476Y-61203833D01*
X161932952Y-61237166D01*
X162075809Y-61237166D01*
X162266285Y-61203833D01*
X162361523Y-61170500D01*
X162456761Y-61103833D01*
X162504380Y-61003833D01*
X162504380Y-60937166D01*
X162456761Y-60837166D01*
X162409142Y-60803833D01*
X162075809Y-60803833D01*
X162075809Y-60937166D01*
X162504380Y-60503833D02*
X161504380Y-60503833D01*
X162504380Y-60103833D01*
X161504380Y-60103833D01*
X162504380Y-59770500D02*
X161504380Y-59770500D01*
X161504380Y-59603833D01*
X161552000Y-59503833D01*
X161647238Y-59437166D01*
X161742476Y-59403833D01*
X161932952Y-59370500D01*
X162075809Y-59370500D01*
X162266285Y-59403833D01*
X162361523Y-59437166D01*
X162456761Y-59503833D01*
X162504380Y-59603833D01*
X162504380Y-59770500D01*
X160726380Y-61203833D02*
X159726380Y-61203833D01*
X160440666Y-60970500D01*
X159726380Y-60737166D01*
X160726380Y-60737166D01*
X159726380Y-60270500D02*
X159726380Y-60137166D01*
X159774000Y-60070500D01*
X159869238Y-60003833D01*
X160059714Y-59970500D01*
X160393047Y-59970500D01*
X160583523Y-60003833D01*
X160678761Y-60070500D01*
X160726380Y-60137166D01*
X160726380Y-60270500D01*
X160678761Y-60337166D01*
X160583523Y-60403833D01*
X160393047Y-60437166D01*
X160059714Y-60437166D01*
X159869238Y-60403833D01*
X159774000Y-60337166D01*
X159726380Y-60270500D01*
X160726380Y-59670500D02*
X159726380Y-59670500D01*
X157948380Y-61303833D02*
X158948380Y-61070500D01*
X157948380Y-60837166D01*
X158853142Y-60203833D02*
X158900761Y-60237166D01*
X158948380Y-60337166D01*
X158948380Y-60403833D01*
X158900761Y-60503833D01*
X158805523Y-60570500D01*
X158710285Y-60603833D01*
X158519809Y-60637166D01*
X158376952Y-60637166D01*
X158186476Y-60603833D01*
X158091238Y-60570500D01*
X157996000Y-60503833D01*
X157948380Y-60403833D01*
X157948380Y-60337166D01*
X157996000Y-60237166D01*
X158043619Y-60203833D01*
X158853142Y-59503833D02*
X158900761Y-59537166D01*
X158948380Y-59637166D01*
X158948380Y-59703833D01*
X158900761Y-59803833D01*
X158805523Y-59870500D01*
X158710285Y-59903833D01*
X158519809Y-59937166D01*
X158376952Y-59937166D01*
X158186476Y-59903833D01*
X158091238Y-59870500D01*
X157996000Y-59803833D01*
X157948380Y-59703833D01*
X157948380Y-59637166D01*
X157996000Y-59537166D01*
X158043619Y-59503833D01*
X123100000Y-71750000D02*
X123600000Y-70850000D01*
X123600000Y-70850000D02*
X122600000Y-70850000D01*
X122600000Y-70850000D02*
X123100000Y-71750000D01*
X123600000Y-71850000D02*
X122600000Y-71850000D01*
X123850000Y-68650000D02*
X123850000Y-74300000D01*
X123850000Y-74050000D02*
X122350000Y-74050000D01*
X122350000Y-74300000D02*
X122350000Y-68650000D01*
X122350000Y-68650000D02*
X123850000Y-68650000D01*
X123850000Y-74160000D02*
X122350000Y-74160000D01*
X123840000Y-74300000D02*
X122350000Y-74300000D01*
X163000000Y-119025000D02*
X163500000Y-118125000D01*
X163500000Y-118125000D02*
X162500000Y-118125000D01*
X162500000Y-118125000D02*
X163000000Y-119025000D01*
X163500000Y-119125000D02*
X162500000Y-119125000D01*
X163750000Y-115925000D02*
X163750000Y-121575000D01*
X163750000Y-121325000D02*
X162250000Y-121325000D01*
X162250000Y-121575000D02*
X162250000Y-115925000D01*
X162250000Y-115925000D02*
X163750000Y-115925000D01*
X163750000Y-121435000D02*
X162250000Y-121435000D01*
X163740000Y-121575000D02*
X162250000Y-121575000D01*
X160750000Y-91550000D02*
X161250000Y-90650000D01*
X161250000Y-90650000D02*
X160250000Y-90650000D01*
X160250000Y-90650000D02*
X160750000Y-91550000D01*
X161250000Y-91650000D02*
X160250000Y-91650000D01*
X161500000Y-88450000D02*
X161500000Y-94100000D01*
X161500000Y-93850000D02*
X160000000Y-93850000D01*
X160000000Y-94100000D02*
X160000000Y-88450000D01*
X160000000Y-88450000D02*
X161500000Y-88450000D01*
X161500000Y-93960000D02*
X160000000Y-93960000D01*
X161490000Y-94100000D02*
X160000000Y-94100000D01*
X160750000Y-81250000D02*
X161250000Y-80350000D01*
X161250000Y-80350000D02*
X160250000Y-80350000D01*
X160250000Y-80350000D02*
X160750000Y-81250000D01*
X161250000Y-81350000D02*
X160250000Y-81350000D01*
X161500000Y-78150000D02*
X161500000Y-83800000D01*
X161500000Y-83550000D02*
X160000000Y-83550000D01*
X160000000Y-83800000D02*
X160000000Y-78150000D01*
X160000000Y-78150000D02*
X161500000Y-78150000D01*
X161500000Y-83660000D02*
X160000000Y-83660000D01*
X161490000Y-83800000D02*
X160000000Y-83800000D01*
X160750000Y-119025000D02*
X161250000Y-118125000D01*
X161250000Y-118125000D02*
X160250000Y-118125000D01*
X160250000Y-118125000D02*
X160750000Y-119025000D01*
X161250000Y-119125000D02*
X160250000Y-119125000D01*
X161500000Y-115925000D02*
X161500000Y-121575000D01*
X161500000Y-121325000D02*
X160000000Y-121325000D01*
X160000000Y-121575000D02*
X160000000Y-115925000D01*
X160000000Y-115925000D02*
X161500000Y-115925000D01*
X161500000Y-121435000D02*
X160000000Y-121435000D01*
X161490000Y-121575000D02*
X160000000Y-121575000D01*
X141950000Y-91550000D02*
X142450000Y-90650000D01*
X142450000Y-90650000D02*
X141450000Y-90650000D01*
X141450000Y-90650000D02*
X141950000Y-91550000D01*
X142450000Y-91650000D02*
X141450000Y-91650000D01*
X142700000Y-88450000D02*
X142700000Y-94100000D01*
X142700000Y-93850000D02*
X141200000Y-93850000D01*
X141200000Y-94100000D02*
X141200000Y-88450000D01*
X141200000Y-88450000D02*
X142700000Y-88450000D01*
X142700000Y-93960000D02*
X141200000Y-93960000D01*
X142690000Y-94100000D02*
X141200000Y-94100000D01*
X141950000Y-71850000D02*
X142450000Y-70950000D01*
X142450000Y-70950000D02*
X141450000Y-70950000D01*
X141450000Y-70950000D02*
X141950000Y-71850000D01*
X142450000Y-71950000D02*
X141450000Y-71950000D01*
X142700000Y-68750000D02*
X142700000Y-74400000D01*
X142700000Y-74150000D02*
X141200000Y-74150000D01*
X141200000Y-74400000D02*
X141200000Y-68750000D01*
X141200000Y-68750000D02*
X142700000Y-68750000D01*
X142700000Y-74260000D02*
X141200000Y-74260000D01*
X142690000Y-74400000D02*
X141200000Y-74400000D01*
X163450000Y-91550000D02*
X163950000Y-90650000D01*
X163950000Y-90650000D02*
X162950000Y-90650000D01*
X162950000Y-90650000D02*
X163450000Y-91550000D01*
X163950000Y-91650000D02*
X162950000Y-91650000D01*
X164200000Y-88450000D02*
X164200000Y-94100000D01*
X164200000Y-93850000D02*
X162700000Y-93850000D01*
X162700000Y-94100000D02*
X162700000Y-88450000D01*
X162700000Y-88450000D02*
X164200000Y-88450000D01*
X164200000Y-93960000D02*
X162700000Y-93960000D01*
X164190000Y-94100000D02*
X162700000Y-94100000D01*
X141950000Y-119025000D02*
X142450000Y-118125000D01*
X142450000Y-118125000D02*
X141450000Y-118125000D01*
X141450000Y-118125000D02*
X141950000Y-119025000D01*
X142450000Y-119125000D02*
X141450000Y-119125000D01*
X142700000Y-115925000D02*
X142700000Y-121575000D01*
X142700000Y-121325000D02*
X141200000Y-121325000D01*
X141200000Y-121575000D02*
X141200000Y-115925000D01*
X141200000Y-115925000D02*
X142700000Y-115925000D01*
X142700000Y-121435000D02*
X141200000Y-121435000D01*
X142690000Y-121575000D02*
X141200000Y-121575000D01*
X123100000Y-91550000D02*
X123600000Y-90650000D01*
X123600000Y-90650000D02*
X122600000Y-90650000D01*
X122600000Y-90650000D02*
X123100000Y-91550000D01*
X123600000Y-91650000D02*
X122600000Y-91650000D01*
X123850000Y-88450000D02*
X123850000Y-94100000D01*
X123850000Y-93850000D02*
X122350000Y-93850000D01*
X122350000Y-94100000D02*
X122350000Y-88450000D01*
X122350000Y-88450000D02*
X123850000Y-88450000D01*
X123850000Y-93960000D02*
X122350000Y-93960000D01*
X123840000Y-94100000D02*
X122350000Y-94100000D01*
X163500000Y-81250000D02*
X164000000Y-80350000D01*
X164000000Y-80350000D02*
X163000000Y-80350000D01*
X163000000Y-80350000D02*
X163500000Y-81250000D01*
X164000000Y-81350000D02*
X163000000Y-81350000D01*
X164250000Y-78150000D02*
X164250000Y-83800000D01*
X164250000Y-83550000D02*
X162750000Y-83550000D01*
X162750000Y-83800000D02*
X162750000Y-78150000D01*
X162750000Y-78150000D02*
X164250000Y-78150000D01*
X164250000Y-83660000D02*
X162750000Y-83660000D01*
X164240000Y-83800000D02*
X162750000Y-83800000D01*
X123100000Y-119025000D02*
X123600000Y-118125000D01*
X123600000Y-118125000D02*
X122600000Y-118125000D01*
X122600000Y-118125000D02*
X123100000Y-119025000D01*
X123600000Y-119125000D02*
X122600000Y-119125000D01*
X123850000Y-115925000D02*
X123850000Y-121575000D01*
X123850000Y-121325000D02*
X122350000Y-121325000D01*
X122350000Y-121575000D02*
X122350000Y-115925000D01*
X122350000Y-115925000D02*
X123850000Y-115925000D01*
X123850000Y-121435000D02*
X122350000Y-121435000D01*
X123840000Y-121575000D02*
X122350000Y-121575000D01*
X104050000Y-96625000D02*
X104550000Y-95725000D01*
X104550000Y-95725000D02*
X103550000Y-95725000D01*
X103550000Y-95725000D02*
X104050000Y-96625000D01*
X104550000Y-96725000D02*
X103550000Y-96725000D01*
X104800000Y-93525000D02*
X104800000Y-99175000D01*
X104800000Y-98925000D02*
X103300000Y-98925000D01*
X103300000Y-99175000D02*
X103300000Y-93525000D01*
X103300000Y-93525000D02*
X104800000Y-93525000D01*
X104800000Y-99035000D02*
X103300000Y-99035000D01*
X104790000Y-99175000D02*
X103300000Y-99175000D01*
X104050000Y-83900000D02*
X104550000Y-83000000D01*
X104550000Y-83000000D02*
X103550000Y-83000000D01*
X103550000Y-83000000D02*
X104050000Y-83900000D01*
X104550000Y-84000000D02*
X103550000Y-84000000D01*
X104800000Y-80800000D02*
X104800000Y-86450000D01*
X104800000Y-86200000D02*
X103300000Y-86200000D01*
X103300000Y-86450000D02*
X103300000Y-80800000D01*
X103300000Y-80800000D02*
X104800000Y-80800000D01*
X104800000Y-86310000D02*
X103300000Y-86310000D01*
X104790000Y-86450000D02*
X103300000Y-86450000D01*
D12*
X125857000Y-55038300D02*
X124527000Y-55038300D01*
X124527000Y-55038300D02*
X124527000Y-53708300D01*
X124527000Y-52438300D02*
X124527000Y-44758300D01*
X127187000Y-44758300D02*
X124527000Y-44758300D01*
X127187000Y-52438300D02*
X127187000Y-44758300D01*
X127187000Y-52438300D02*
X124527000Y-52438300D01*
X112420000Y-48422000D02*
X112420000Y-46622000D01*
X112420000Y-42912000D02*
X112420000Y-44372000D01*
X103480000Y-42912000D02*
X103480000Y-44372000D01*
X103480000Y-48422000D02*
X103480000Y-46622000D01*
X103480000Y-42912000D02*
X112420000Y-42912000D01*
D11*
X94212000Y-49644000D02*
X93212000Y-49644000D01*
X97812000Y-49644000D02*
X98812000Y-49644000D01*
X97812000Y-50069000D02*
X97812000Y-49644000D01*
X97087000Y-50069000D02*
X97812000Y-50069000D01*
X91862000Y-46494000D02*
X91862000Y-47894000D01*
X91862000Y-43944000D02*
X91862000Y-44094000D01*
X92162000Y-43944000D02*
X91862000Y-43944000D01*
X92162000Y-43494000D02*
X92162000Y-43944000D01*
X99862000Y-43944000D02*
X99862000Y-43494000D01*
X100162000Y-43944000D02*
X99862000Y-43944000D01*
X100162000Y-44094000D02*
X100162000Y-43944000D01*
X100162000Y-47894000D02*
X100162000Y-46494000D01*
D13*
X104870000Y-111302800D02*
G75*
G03X104870000Y-111302800I-2000000J0D01*
G01*
X130818000Y-54000000D02*
G75*
G03X130818000Y-54000000I-1000000J0D01*
G01*
X130818000Y-46000000D02*
G75*
G03X130818000Y-46000000I-1000000J0D01*
G01*
X164388800Y-111302800D02*
G75*
G03X164388800Y-111302800I-2000000J0D01*
G01*
X164388800Y-70866000D02*
G75*
G03X164388800Y-70866000I-2000000J0D01*
G01*
X104870000Y-70866000D02*
G75*
G03X104870000Y-70866000I-2000000J0D01*
G01*
D11*
X86896000Y-47038000D02*
X87146000Y-47038000D01*
X86896000Y-53038000D02*
X86896000Y-47038000D01*
X86896000Y-53038000D02*
X87146000Y-53038000D01*
X90396000Y-53038000D02*
X90146000Y-53038000D01*
X90396000Y-47038000D02*
X90146000Y-47038000D01*
X90396000Y-53038000D02*
X90396000Y-47038000D01*
D12*
X177400000Y-66600000D02*
G75*
G03X177400000Y-66600000I-3000000J0D01*
G01*
X180300000Y-68600000D02*
X180300000Y-72700000D01*
X168500000Y-72700000D02*
X168500000Y-68600000D01*
X168500000Y-64600000D02*
X168500000Y-60500000D01*
X180300000Y-64600000D02*
X180300000Y-60500000D01*
X180300000Y-60500000D02*
X168500000Y-60500000D01*
X178200000Y-59100000D02*
X178500000Y-58800000D01*
X178500000Y-58800000D02*
X178500000Y-59400000D01*
X178500000Y-59400000D02*
X178200000Y-59100000D01*
X180300000Y-72700000D02*
X177900000Y-72700000D01*
X175700000Y-72700000D02*
X173100000Y-72700000D01*
X170900000Y-72700000D02*
X168500000Y-72700000D01*
X174900000Y-66600000D02*
X173900000Y-66600000D01*
X174400000Y-66100000D02*
X174400000Y-67100000D01*
X174300000Y-89600000D02*
X174300000Y-90600000D01*
X174800000Y-90100000D02*
X173800000Y-90100000D01*
X170800000Y-96200000D02*
X168400000Y-96200000D01*
X175600000Y-96200000D02*
X173000000Y-96200000D01*
X180200000Y-96200000D02*
X177800000Y-96200000D01*
X178400000Y-82900000D02*
X178100000Y-82600000D01*
X178400000Y-82300000D02*
X178400000Y-82900000D01*
X178100000Y-82600000D02*
X178400000Y-82300000D01*
X180200000Y-84000000D02*
X168400000Y-84000000D01*
X180200000Y-88100000D02*
X180200000Y-84000000D01*
X168400000Y-88100000D02*
X168400000Y-84000000D01*
X168400000Y-96200000D02*
X168400000Y-92100000D01*
X180200000Y-92100000D02*
X180200000Y-96200000D01*
X177300000Y-90100000D02*
G75*
G03X177300000Y-90100000I-3000000J0D01*
G01*
X156778000Y-64422000D02*
X156778000Y-59222000D01*
X151638000Y-64422000D02*
X156778000Y-64422000D01*
X149038000Y-59222000D02*
X156778000Y-59222000D01*
X151638000Y-64422000D02*
X151638000Y-61822000D01*
X151638000Y-61822000D02*
X149038000Y-61822000D01*
X149038000Y-61822000D02*
X149038000Y-59222000D01*
X150368000Y-64422000D02*
X149038000Y-64422000D01*
X149038000Y-64422000D02*
X149038000Y-63092000D01*
D11*
X127849380Y-49977633D02*
X128563666Y-49977633D01*
X128706523Y-50025252D01*
X128801761Y-50120490D01*
X128849380Y-50263347D01*
X128849380Y-50358585D01*
X128182714Y-49072871D02*
X128849380Y-49072871D01*
X127801761Y-49310966D02*
X128516047Y-49549061D01*
X128516047Y-48930014D01*
X107616666Y-46061380D02*
X107616666Y-46775666D01*
X107569047Y-46918523D01*
X107473809Y-47013761D01*
X107330952Y-47061380D01*
X107235714Y-47061380D01*
X108616666Y-47061380D02*
X108045238Y-47061380D01*
X108330952Y-47061380D02*
X108330952Y-46061380D01*
X108235714Y-46204238D01*
X108140476Y-46299476D01*
X108045238Y-46347095D01*
X95424666Y-46442380D02*
X95424666Y-47156666D01*
X95377047Y-47299523D01*
X95281809Y-47394761D01*
X95138952Y-47442380D01*
X95043714Y-47442380D01*
X95853238Y-46537619D02*
X95900857Y-46490000D01*
X95996095Y-46442380D01*
X96234190Y-46442380D01*
X96329428Y-46490000D01*
X96377047Y-46537619D01*
X96424666Y-46632857D01*
X96424666Y-46728095D01*
X96377047Y-46870952D01*
X95805619Y-47442380D01*
X96424666Y-47442380D01*
X89098380Y-60126380D02*
X88622190Y-60459714D01*
X89098380Y-60697809D02*
X88098380Y-60697809D01*
X88098380Y-60316857D01*
X88146000Y-60221619D01*
X88193619Y-60174000D01*
X88288857Y-60126380D01*
X88431714Y-60126380D01*
X88526952Y-60174000D01*
X88574571Y-60221619D01*
X88622190Y-60316857D01*
X88622190Y-60697809D01*
X88574571Y-59697809D02*
X88574571Y-59364476D01*
X89098380Y-59221619D02*
X89098380Y-59697809D01*
X88098380Y-59697809D01*
X88098380Y-59221619D01*
X89050761Y-58840666D02*
X89098380Y-58697809D01*
X89098380Y-58459714D01*
X89050761Y-58364476D01*
X89003142Y-58316857D01*
X88907904Y-58269238D01*
X88812666Y-58269238D01*
X88717428Y-58316857D01*
X88669809Y-58364476D01*
X88622190Y-58459714D01*
X88574571Y-58650190D01*
X88526952Y-58745428D01*
X88479333Y-58793047D01*
X88384095Y-58840666D01*
X88288857Y-58840666D01*
X88193619Y-58793047D01*
X88146000Y-58745428D01*
X88098380Y-58650190D01*
X88098380Y-58412095D01*
X88146000Y-58269238D01*
X88574571Y-57840666D02*
X88574571Y-57507333D01*
X89098380Y-57364476D02*
X89098380Y-57840666D01*
X88098380Y-57840666D01*
X88098380Y-57364476D01*
X88098380Y-57078761D02*
X88098380Y-56507333D01*
X89098380Y-56793047D02*
X88098380Y-56793047D01*
X152589166Y-57511380D02*
X152589166Y-58225666D01*
X152541547Y-58368523D01*
X152446309Y-58463761D01*
X152303452Y-58511380D01*
X152208214Y-58511380D01*
X152970119Y-57511380D02*
X153589166Y-57511380D01*
X153255833Y-57892333D01*
X153398690Y-57892333D01*
X153493928Y-57939952D01*
X153541547Y-57987571D01*
X153589166Y-58082809D01*
X153589166Y-58320904D01*
X153541547Y-58416142D01*
X153493928Y-58463761D01*
X153398690Y-58511380D01*
X153112976Y-58511380D01*
X153017738Y-58463761D01*
X152970119Y-58416142D01*
%LPC*%
X87722700Y-110995666D02*
X87856033Y-110995666D01*
X87922700Y-111029000D01*
X87989366Y-111095666D01*
X88022700Y-111229000D01*
X88022700Y-111462333D01*
X87989366Y-111595666D01*
X87922700Y-111662333D01*
X87856033Y-111695666D01*
X87722700Y-111695666D01*
X87656033Y-111662333D01*
X87589366Y-111595666D01*
X87556033Y-111462333D01*
X87556033Y-111229000D01*
X87589366Y-111095666D01*
X87656033Y-111029000D01*
X87722700Y-110995666D01*
X88556033Y-111329000D02*
X88656033Y-111362333D01*
X88689366Y-111395666D01*
X88722700Y-111462333D01*
X88722700Y-111562333D01*
X88689366Y-111629000D01*
X88656033Y-111662333D01*
X88589366Y-111695666D01*
X88322700Y-111695666D01*
X88322700Y-110995666D01*
X88556033Y-110995666D01*
X88622700Y-111029000D01*
X88656033Y-111062333D01*
X88689366Y-111129000D01*
X88689366Y-111195666D01*
X88656033Y-111262333D01*
X88622700Y-111295666D01*
X88556033Y-111329000D01*
X88322700Y-111329000D01*
X89022700Y-111329000D02*
X89256033Y-111329000D01*
X89356033Y-111695666D02*
X89022700Y-111695666D01*
X89022700Y-110995666D01*
X89356033Y-110995666D01*
X90689366Y-110962333D02*
X90089366Y-111862333D01*
X91389366Y-111229000D02*
X91556033Y-111695666D01*
X91722700Y-111229000D01*
X92122700Y-110995666D02*
X92189366Y-110995666D01*
X92256033Y-111029000D01*
X92289366Y-111062333D01*
X92322700Y-111129000D01*
X92356033Y-111262333D01*
X92356033Y-111429000D01*
X92322700Y-111562333D01*
X92289366Y-111629000D01*
X92256033Y-111662333D01*
X92189366Y-111695666D01*
X92122700Y-111695666D01*
X92056033Y-111662333D01*
X92022700Y-111629000D01*
X91989366Y-111562333D01*
X91956033Y-111429000D01*
X91956033Y-111262333D01*
X91989366Y-111129000D01*
X92022700Y-111062333D01*
X92056033Y-111029000D01*
X92122700Y-110995666D01*
X92656033Y-111629000D02*
X92689366Y-111662333D01*
X92656033Y-111695666D01*
X92622700Y-111662333D01*
X92656033Y-111629000D01*
X92656033Y-111695666D01*
X93022700Y-111695666D02*
X93156033Y-111695666D01*
X93222700Y-111662333D01*
X93256033Y-111629000D01*
X93322700Y-111529000D01*
X93356033Y-111395666D01*
X93356033Y-111129000D01*
X93322700Y-111062333D01*
X93289366Y-111029000D01*
X93222700Y-110995666D01*
X93089366Y-110995666D01*
X93022700Y-111029000D01*
X92989366Y-111062333D01*
X92956033Y-111129000D01*
X92956033Y-111295666D01*
X92989366Y-111362333D01*
X93022700Y-111395666D01*
X93089366Y-111429000D01*
X93222700Y-111429000D01*
X93289366Y-111395666D01*
X93322700Y-111362333D01*
X93356033Y-111295666D01*
X93789366Y-110995666D02*
X93856033Y-110995666D01*
X93922700Y-111029000D01*
X93956033Y-111062333D01*
X93989366Y-111129000D01*
X94022700Y-111262333D01*
X94022700Y-111429000D01*
X93989366Y-111562333D01*
X93956033Y-111629000D01*
X93922700Y-111662333D01*
X93856033Y-111695666D01*
X93789366Y-111695666D01*
X93722700Y-111662333D01*
X93689366Y-111629000D01*
X93656033Y-111562333D01*
X93622700Y-111429000D01*
X93622700Y-111262333D01*
X93656033Y-111129000D01*
X93689366Y-111062333D01*
X93722700Y-111029000D01*
X93789366Y-110995666D01*
X94522700Y-111962333D02*
X94489366Y-111929000D01*
X94422700Y-111829000D01*
X94389366Y-111762333D01*
X94356033Y-111662333D01*
X94322700Y-111495666D01*
X94322700Y-111362333D01*
X94356033Y-111195666D01*
X94389366Y-111095666D01*
X94422700Y-111029000D01*
X94489366Y-110929000D01*
X94522700Y-110895666D01*
X95156033Y-111695666D02*
X94756033Y-111695666D01*
X94956033Y-111695666D02*
X94956033Y-110995666D01*
X94889366Y-111095666D01*
X94822700Y-111162333D01*
X94756033Y-111195666D01*
X95489366Y-111695666D02*
X95622700Y-111695666D01*
X95689366Y-111662333D01*
X95722700Y-111629000D01*
X95789366Y-111529000D01*
X95822700Y-111395666D01*
X95822700Y-111129000D01*
X95789366Y-111062333D01*
X95756033Y-111029000D01*
X95689366Y-110995666D01*
X95556033Y-110995666D01*
X95489366Y-111029000D01*
X95456033Y-111062333D01*
X95422700Y-111129000D01*
X95422700Y-111295666D01*
X95456033Y-111362333D01*
X95489366Y-111395666D01*
X95556033Y-111429000D01*
X95689366Y-111429000D01*
X95756033Y-111395666D01*
X95789366Y-111362333D01*
X95822700Y-111295666D01*
X96489366Y-111695666D02*
X96089366Y-111695666D01*
X96289366Y-111695666D02*
X96289366Y-110995666D01*
X96222700Y-111095666D01*
X96156033Y-111162333D01*
X96089366Y-111195666D01*
X97156033Y-111695666D02*
X96756033Y-111695666D01*
X96956033Y-111695666D02*
X96956033Y-110995666D01*
X96889366Y-111095666D01*
X96822700Y-111162333D01*
X96756033Y-111195666D01*
X97422700Y-111062333D02*
X97456033Y-111029000D01*
X97522700Y-110995666D01*
X97689366Y-110995666D01*
X97756033Y-111029000D01*
X97789366Y-111062333D01*
X97822700Y-111129000D01*
X97822700Y-111195666D01*
X97789366Y-111295666D01*
X97389366Y-111695666D01*
X97822700Y-111695666D01*
X98422700Y-111229000D02*
X98422700Y-111695666D01*
X98256033Y-110962333D02*
X98089366Y-111462333D01*
X98522700Y-111462333D01*
X98722700Y-111962333D02*
X98756033Y-111929000D01*
X98822700Y-111829000D01*
X98856033Y-111762333D01*
X98889366Y-111662333D01*
X98922700Y-111495666D01*
X98922700Y-111362333D01*
X98889366Y-111195666D01*
X98856033Y-111095666D01*
X98822700Y-111029000D01*
X98756033Y-110929000D01*
X98722700Y-110895666D01*
D14*
X123100000Y-75160000D03*
D15*
X123100000Y-67540000D03*
D14*
X163000000Y-122435000D03*
D15*
X163000000Y-114815000D03*
D14*
X160750000Y-94960000D03*
D15*
X160750000Y-87340000D03*
D14*
X160750000Y-84660000D03*
D15*
X160750000Y-77040000D03*
D14*
X160750000Y-122435000D03*
D15*
X160750000Y-114815000D03*
D14*
X141950000Y-94960000D03*
D15*
X141950000Y-87340000D03*
D14*
X141950000Y-75260000D03*
D15*
X141950000Y-67640000D03*
D14*
X163450000Y-94960000D03*
D15*
X163450000Y-87340000D03*
D14*
X141950000Y-122435000D03*
D15*
X141950000Y-114815000D03*
D14*
X123100000Y-94960000D03*
D15*
X123100000Y-87340000D03*
D14*
X163500000Y-84660000D03*
D15*
X163500000Y-77040000D03*
D14*
X123100000Y-122435000D03*
D15*
X123100000Y-114815000D03*
D14*
X104050000Y-100035000D03*
D15*
X104050000Y-92415000D03*
D14*
X104050000Y-87310000D03*
D15*
X104050000Y-79690000D03*
D16*
X125857000Y-46088300D03*
X125857000Y-48628300D03*
X125857000Y-51168300D03*
D17*
X125857000Y-53708300D03*
D18*
X104750000Y-50262000D03*
X105550000Y-50262000D03*
X104750000Y-50262000D03*
X105550000Y-50262000D03*
X111150000Y-50262000D03*
X111150000Y-50262000D03*
X110350000Y-50262000D03*
X110350000Y-50262000D03*
D19*
X110840000Y-49202000D03*
X105060000Y-49202000D03*
D20*
X106200000Y-50262000D03*
X107200000Y-50262000D03*
X106700000Y-50262000D03*
X109200000Y-50262000D03*
X109700000Y-50262000D03*
X107700000Y-50262000D03*
X108200000Y-50262000D03*
X108700000Y-50262000D03*
D21*
X103630000Y-45512000D03*
X112270000Y-45512000D03*
D22*
X103630000Y-49682000D03*
X112270000Y-49682000D03*
D23*
X93512000Y-48044000D03*
X98512000Y-48044000D03*
D24*
X92137000Y-45294000D03*
X99887000Y-45294000D03*
D25*
X92287000Y-49094000D03*
X99737000Y-49094000D03*
D26*
X94712000Y-49144000D03*
X95362000Y-49144000D03*
X96012000Y-49144000D03*
X96662000Y-49144000D03*
X97312000Y-49144000D03*
D27*
X171227223Y-109160448D03*
D28*
X169343097Y-111285199D03*
X179156903Y-113914801D03*
D29*
X179562592Y-114023505D03*
X168937408Y-111176495D03*
D30*
X174250000Y-112600000D03*
D27*
X178018252Y-108350497D03*
X172722968Y-118298962D03*
X168462740Y-114879830D03*
X148940000Y-112160000D03*
D28*
X147670000Y-114700000D03*
X157830000Y-114700000D03*
D29*
X158250000Y-114700000D03*
X147250000Y-114700000D03*
D30*
X152750000Y-114700000D03*
D27*
X155290000Y-109620000D03*
X152750000Y-120600000D03*
X147750000Y-118400000D03*
X148940000Y-93010000D03*
D28*
X147670000Y-95550000D03*
X157830000Y-95550000D03*
D29*
X158250000Y-95550000D03*
X147250000Y-95550000D03*
D30*
X152750000Y-95550000D03*
D27*
X155290000Y-90470000D03*
X152750000Y-101450000D03*
X147750000Y-99250000D03*
X148940000Y-74010000D03*
D28*
X147670000Y-76550000D03*
X157830000Y-76550000D03*
D29*
X158250000Y-76550000D03*
X147250000Y-76550000D03*
D30*
X152750000Y-76550000D03*
D27*
X155290000Y-71470000D03*
X152750000Y-82450000D03*
X147750000Y-80250000D03*
X129940000Y-112160000D03*
D28*
X128670000Y-114700000D03*
X138830000Y-114700000D03*
D29*
X139250000Y-114700000D03*
X128250000Y-114700000D03*
D30*
X133750000Y-114700000D03*
D27*
X136290000Y-109620000D03*
X133750000Y-120600000D03*
X128750000Y-118400000D03*
X129940000Y-83510000D03*
D28*
X128670000Y-86050000D03*
X138830000Y-86050000D03*
D29*
X139250000Y-86050000D03*
X128250000Y-86050000D03*
D30*
X133750000Y-86050000D03*
D27*
X136290000Y-80970000D03*
X133750000Y-91950000D03*
X128750000Y-89750000D03*
X129890000Y-64510000D03*
D28*
X128620000Y-67050000D03*
X138780000Y-67050000D03*
D29*
X139200000Y-67050000D03*
X128200000Y-67050000D03*
D30*
X133700000Y-67050000D03*
D27*
X136240000Y-61970000D03*
X133700000Y-72950000D03*
X128700000Y-70750000D03*
X110890000Y-112160000D03*
D28*
X109620000Y-114700000D03*
X119780000Y-114700000D03*
D29*
X120200000Y-114700000D03*
X109200000Y-114700000D03*
D30*
X114700000Y-114700000D03*
D27*
X117240000Y-109620000D03*
X114700000Y-120600000D03*
X109700000Y-118400000D03*
X110940000Y-88460000D03*
D28*
X109670000Y-91000000D03*
X119830000Y-91000000D03*
D29*
X120250000Y-91000000D03*
X109250000Y-91000000D03*
D30*
X114750000Y-91000000D03*
D27*
X117290000Y-85920000D03*
X114750000Y-96900000D03*
X109750000Y-94700000D03*
X110990000Y-69560000D03*
D28*
X109720000Y-72100000D03*
X119880000Y-72100000D03*
D29*
X120300000Y-72100000D03*
X109300000Y-72100000D03*
D30*
X114800000Y-72100000D03*
D27*
X117340000Y-67020000D03*
X114800000Y-78000000D03*
X109800000Y-75800000D03*
X91750000Y-98140000D03*
D28*
X90480000Y-100680000D03*
X100640000Y-100680000D03*
D29*
X101060000Y-100680000D03*
X90060000Y-100680000D03*
D30*
X95560000Y-100680000D03*
D27*
X98100000Y-95600000D03*
X95560000Y-106580000D03*
X90560000Y-104380000D03*
X91790000Y-79060000D03*
D28*
X90520000Y-81600000D03*
X100680000Y-81600000D03*
D29*
X101100000Y-81600000D03*
X90100000Y-81600000D03*
D30*
X95600000Y-81600000D03*
D27*
X98140000Y-76520000D03*
X95600000Y-87500000D03*
X90600000Y-85300000D03*
D31*
X102870000Y-111302800D03*
D32*
X129818000Y-54000000D03*
X129818000Y-46000000D03*
D31*
X162388800Y-111302800D03*
X162388800Y-70866000D03*
X102870000Y-70866000D03*
D33*
X176900000Y-59100000D03*
D34*
X174400000Y-59100000D03*
X171900000Y-59100000D03*
D35*
X180000000Y-66600000D03*
X168800000Y-66600000D03*
D34*
X176900000Y-73600000D03*
X171900000Y-73600000D03*
X171800000Y-97100000D03*
X176800000Y-97100000D03*
D35*
X168700000Y-90100000D03*
X179900000Y-90100000D03*
D34*
X171800000Y-82600000D03*
X174300000Y-82600000D03*
D33*
X176800000Y-82600000D03*
D17*
X150368000Y-63092000D03*
D16*
X150368000Y-60552000D03*
X152908000Y-63092000D03*
X152908000Y-60552000D03*
X155448000Y-63092000D03*
X155448000Y-60552000D03*
M02*
