M48
; DRILL file {KiCad (5.1.4-0-10_14)} date 2019 November 24, Sunday 20:28:37
; FORMAT={3:3/ absolute / metric / suppress trailing zeros}
; #@! TF.CreationDate,2019-11-24T20:28:37+09:00
; #@! TF.GenerationSoftware,Kicad,Pcbnew,(5.1.4-0-10_14)
; #@! TF.FileFunction,Plated,1,2,PTH
FMAT,2
METRIC,LZ
T1C0.400
T2C0.550
T3C0.600
T4C0.813
T5C0.850
T6C1.000
T7C1.300
T8C1.500
%
G90
G05
T1
X089078Y-07239
X091186Y-056134
X091948Y-065024
X093823Y-054337
X094555Y-053631
X094666Y-076657
X09484Y-06561
X095098Y-060604
X095504Y-053123
X095593Y-066269
X096142Y-060597
X09652Y-052615
X098806Y-062586
X09906Y-069596
X099212Y-058928
X100203Y-062459
X103759Y-065075
X103784Y-060909
X103789Y-057824
X103988Y-066624
X104953Y-065151
X105994Y-077572
X106218Y-048976
X106324Y-065811
X106921Y-054089
X106941Y-051872
X10786Y-053594
X108341Y-052571
X10856Y-063424
X10922Y-049022
X109728Y-098298
X110998Y-079248
X111506Y-058674
X11209Y-052883
X11303Y-066548
X122593Y-060237
X123368Y-05936
X126238Y-060235
X132588Y-05969
X141935Y-061519
X148946Y-06157
T4
X1231Y-06754
X1231Y-07516
X16075Y-07704
X16075Y-08466
X1635Y-07704
X1635Y-08466
X16075Y-08734
X16075Y-09496
X16075Y-114815
X16075Y-122435
X10405Y-07969
X14195Y-114815
X14195Y-122435
X10405Y-08731
X14195Y-08734
X14195Y-09496
X10405Y-092415
X10405Y-100035
X1231Y-114815
X1231Y-122435
X14195Y-06764
X14195Y-07526
X1231Y-08734
X1231Y-09496
X163Y-114815
X163Y-122435
X16345Y-08734
X16345Y-09496
T6
X1718Y-0826
X1718Y-0971
X1743Y-0826
X1768Y-0826
X1768Y-0971
X1719Y-0591
X1719Y-0736
X1744Y-0591
X1769Y-0591
X1769Y-0736
X150368Y-060552
X150368Y-063092
X152908Y-060552
X152908Y-063092
X155448Y-060552
X155448Y-063092
X125857Y-046088
X125857Y-048628
X125857Y-051168
X125857Y-053708
T7
X088646Y-046788
X088646Y-053288
T2
G00X092137Y-045619
M15
G01X092137Y-044969
M16
G05
G00X099887Y-045619
M15
G01X099887Y-044969
M16
G05
T3
G00X10363Y-045112
M15
G01X10363Y-045912
M16
G05
G00X10363Y-049132
M15
G01X10363Y-050232
M16
G05
G00X11227Y-045112
M15
G01X11227Y-045912
M16
G05
G00X11227Y-049132
M15
G01X11227Y-050232
M16
G05
T5
G00X092287Y-049369
M15
G01X092287Y-048819
M16
G05
G00X099737Y-049369
M15
G01X099737Y-048819
M16
G05
T8
G00X1687Y-08945
M15
G01X1687Y-09075
M16
G05
G00X1799Y-08945
M15
G01X1799Y-09075
M16
G05
G00X1688Y-06595
M15
G01X1688Y-06725
M16
G05
G00X18Y-06595
M15
G01X18Y-06725
M16
G05
T0
M30
