M48
; DRILL file {KiCad (5.1.4-0-10_14)} date 2019 November 24, Sunday 20:28:37
; FORMAT={3:3/ absolute / metric / suppress trailing zeros}
; #@! TF.CreationDate,2019-11-24T20:28:37+09:00
; #@! TF.GenerationSoftware,Kicad,Pcbnew,(5.1.4-0-10_14)
; #@! TF.FileFunction,NonPlated,1,2,NPTH
FMAT,2
METRIC,LZ
T1C0.600
T2C0.800
T3C1.700
T4C1.900
T5C2.100
T6C3.000
T7C4.000
T8C4.100
%
G90
G05
T1
X10506Y-049202
X11084Y-049202
T2
X093512Y-048044
X098512Y-048044
T3
X09052Y-0816
X10068Y-0816
X14767Y-09555
X15783Y-09555
X10967Y-091
X11983Y-091
X14767Y-1147
X15783Y-1147
X12867Y-08605
X13883Y-08605
X09048Y-10068
X10064Y-10068
X10962Y-1147
X11978Y-1147
X12862Y-06705
X13878Y-06705
X169343Y-111285
X179157Y-113915
X14767Y-07655
X15783Y-07655
X10972Y-0721
X11988Y-0721
X12867Y-1147
X13883Y-1147
T4
X1092Y-1147
X1202Y-1147
X1282Y-06705
X1392Y-06705
X168937Y-111176
X14725Y-07655
X15825Y-07655
X1093Y-0721
X1203Y-0721
X179563Y-114024
X14725Y-09555
X15825Y-09555
X10925Y-091
X12825Y-1147
X13925Y-1147
X0901Y-0816
X15825Y-1147
X1011Y-0816
X14725Y-1147
X12025Y-091
X12825Y-08605
X13925Y-08605
X09006Y-10068
X10106Y-10068
T5
X129818Y-054
X129818Y-046
T6
X1287Y-07075
X12989Y-06451
X1337Y-07295
X13624Y-06197
X168463Y-11488
X171227Y-10916
X172723Y-118299
X14775Y-08025
X15275Y-08245
X1098Y-0758
X1148Y-078
X178018Y-10835
X14894Y-07401
X15529Y-07147
X11099Y-06956
X11734Y-06702
X12875Y-1184
X12994Y-11216
X13375Y-1206
X13629Y-10962
X14775Y-09925
X14894Y-09301
X15275Y-10145
X15529Y-09047
X14775Y-1184
X14894Y-11216
X15275Y-1206
X15529Y-10962
X10975Y-0947
X11475Y-0969
X11729Y-08592
X0906Y-0853
X11094Y-08846
X09179Y-07906
X0956Y-0875
X09814Y-07652
X12875Y-08975
X12994Y-08351
X13375Y-09195
X13629Y-08097
X09056Y-10438
X09175Y-09814
X09556Y-10658
X0981Y-0956
X1097Y-1184
X11089Y-11216
X1147Y-1206
X11724Y-10962
T7
X15275Y-1147
X11475Y-091
X13375Y-08605
X09556Y-10068
X1147Y-1147
X1337Y-06705
X1148Y-0721
X17425Y-1126
X15275Y-07655
X13375Y-1147
X0956Y-0816
X15275Y-09555
T8
X162389Y-070866
X162389Y-111303
X10287Y-070866
X10287Y-111303
T0
M30
