G04 #@! TF.GenerationSoftware,KiCad,Pcbnew,(5.1.4-0-10_14)*
G04 #@! TF.CreationDate,2020-03-30T03:02:05+09:00*
G04 #@! TF.ProjectId,palette1202-front,70616c65-7474-4653-9132-30322d66726f,rev?*
G04 #@! TF.SameCoordinates,Original*
G04 #@! TF.FileFunction,Legend,Bot*
G04 #@! TF.FilePolarity,Positive*
%FSLAX46Y46*%
G04 Gerber Fmt 4.6, Leading zero omitted, Abs format (unit mm)*
G04 Created by KiCad (PCBNEW (5.1.4-0-10_14)) date 2020-03-30 03:02:05*
%MOMM*%
%LPD*%
G04 APERTURE LIST*
%ADD10C,0.100000*%
%ADD11C,0.400000*%
G04 APERTURE END LIST*
D10*
G36*
X97264452Y-65814978D02*
G01*
X97285634Y-65816187D01*
X97306389Y-65818202D01*
X97326722Y-65821024D01*
X97346636Y-65824652D01*
X97366136Y-65829086D01*
X97385224Y-65834326D01*
X97403906Y-65840372D01*
X97422185Y-65847224D01*
X97440064Y-65854883D01*
X97457548Y-65863347D01*
X97474641Y-65872618D01*
X97491346Y-65882695D01*
X97507667Y-65893578D01*
X97523609Y-65905267D01*
X97539174Y-65917762D01*
X97554212Y-65931033D01*
X97568568Y-65945053D01*
X97582241Y-65959824D01*
X97595233Y-65975350D01*
X97607542Y-65991637D01*
X97619169Y-66008687D01*
X97630114Y-66026504D01*
X97640377Y-66045093D01*
X97649958Y-66064457D01*
X97658857Y-66084600D01*
X97667073Y-66105526D01*
X97674607Y-66127238D01*
X97681460Y-66149742D01*
X97687630Y-66173039D01*
X97693118Y-66197136D01*
X97697924Y-66222034D01*
X97748195Y-66547471D01*
X97451861Y-66547471D01*
X97401590Y-66243200D01*
X97400010Y-66234425D01*
X97398247Y-66225960D01*
X97396306Y-66217806D01*
X97394191Y-66209961D01*
X97391905Y-66202427D01*
X97389452Y-66195202D01*
X97386837Y-66188288D01*
X97384062Y-66181684D01*
X97381133Y-66175389D01*
X97378052Y-66169405D01*
X97374824Y-66163731D01*
X97371453Y-66158367D01*
X97367942Y-66153313D01*
X97364296Y-66148570D01*
X97360518Y-66144136D01*
X97356612Y-66140012D01*
X97352613Y-66136168D01*
X97348556Y-66132571D01*
X97344444Y-66129222D01*
X97340282Y-66126122D01*
X97336074Y-66123269D01*
X97331823Y-66120665D01*
X97327533Y-66118308D01*
X97323208Y-66116200D01*
X97318853Y-66114340D01*
X97314470Y-66112727D01*
X97310064Y-66111363D01*
X97305639Y-66110247D01*
X97301198Y-66109379D01*
X97296745Y-66108759D01*
X97292285Y-66108387D01*
X97287821Y-66108263D01*
X97281494Y-66108387D01*
X97275408Y-66108759D01*
X97269554Y-66109379D01*
X97263925Y-66110247D01*
X97258513Y-66111363D01*
X97253311Y-66112728D01*
X97248310Y-66114340D01*
X97243503Y-66116200D01*
X97238882Y-66118309D01*
X97234439Y-66120665D01*
X97230166Y-66123270D01*
X97226057Y-66126122D01*
X97222102Y-66129223D01*
X97218295Y-66132571D01*
X97214627Y-66136168D01*
X97211091Y-66140012D01*
X97207774Y-66144136D01*
X97204771Y-66148570D01*
X97202086Y-66153314D01*
X97199722Y-66158368D01*
X97197684Y-66163732D01*
X97195976Y-66169406D01*
X97194601Y-66175390D01*
X97193563Y-66181684D01*
X97192866Y-66188288D01*
X97192514Y-66195203D01*
X97192510Y-66202427D01*
X97192860Y-66209961D01*
X97193566Y-66217806D01*
X97194633Y-66225960D01*
X97196063Y-66234425D01*
X97197862Y-66243200D01*
X97285175Y-66756491D01*
X97401590Y-66756491D01*
X97425154Y-66756956D01*
X97448218Y-66758346D01*
X97470778Y-66760660D01*
X97492830Y-66763891D01*
X97514371Y-66768038D01*
X97535396Y-66773095D01*
X97555902Y-66779059D01*
X97575885Y-66785926D01*
X97595340Y-66793693D01*
X97614265Y-66802354D01*
X97632655Y-66811907D01*
X97650506Y-66822348D01*
X97667814Y-66833672D01*
X97684576Y-66845876D01*
X97700788Y-66858955D01*
X97716445Y-66872907D01*
X97731483Y-66887727D01*
X97745838Y-66903412D01*
X97759512Y-66919957D01*
X97772503Y-66937358D01*
X97784812Y-66955612D01*
X97796440Y-66974715D01*
X97807385Y-66994663D01*
X97817647Y-67015452D01*
X97827228Y-67037078D01*
X97836127Y-67059537D01*
X97844343Y-67082826D01*
X97851878Y-67106940D01*
X97858730Y-67131876D01*
X97864900Y-67157629D01*
X97870388Y-67184197D01*
X97875194Y-67211574D01*
X97962507Y-67825407D01*
X97966011Y-67852784D01*
X97968589Y-67879352D01*
X97970245Y-67905106D01*
X97970982Y-67930042D01*
X97970804Y-67954156D01*
X97969716Y-67977444D01*
X97967721Y-67999904D01*
X97964822Y-68021530D01*
X97961025Y-68042318D01*
X97956332Y-68062266D01*
X97950747Y-68081369D01*
X97944276Y-68099623D01*
X97936920Y-68117024D01*
X97928685Y-68133569D01*
X97919574Y-68149253D01*
X97909591Y-68164074D01*
X97899018Y-68178025D01*
X97888140Y-68191105D01*
X97876959Y-68203309D01*
X97865479Y-68214633D01*
X97853705Y-68225074D01*
X97841641Y-68234627D01*
X97829289Y-68243289D01*
X97816655Y-68251055D01*
X97803742Y-68257922D01*
X97790553Y-68263886D01*
X97777093Y-68268943D01*
X97763366Y-68273089D01*
X97749375Y-68276321D01*
X97735125Y-68278634D01*
X97720619Y-68280025D01*
X97705861Y-68280489D01*
X97693205Y-68280247D01*
X97681015Y-68279539D01*
X97669258Y-68278397D01*
X97657905Y-68276851D01*
X97646924Y-68274934D01*
X97636284Y-68272676D01*
X97625954Y-68270107D01*
X97615903Y-68267260D01*
X97606100Y-68263281D01*
X97596514Y-68259240D01*
X97587114Y-68255075D01*
X97577869Y-68250724D01*
X97568748Y-68246125D01*
X97559720Y-68241216D01*
X97550754Y-68235934D01*
X97541819Y-68230219D01*
X97533014Y-68225134D01*
X97524456Y-68219801D01*
X97516147Y-68214220D01*
X97508085Y-68208391D01*
X97500272Y-68202314D01*
X97492706Y-68195989D01*
X97485389Y-68189415D01*
X97478319Y-68182594D01*
X97454507Y-68182594D01*
X97462443Y-68277844D01*
X97189923Y-68277844D01*
X97065387Y-67401720D01*
X97060278Y-67402075D01*
X97010963Y-67052825D01*
X97322216Y-67052825D01*
X97343382Y-67216866D01*
X97348674Y-67216866D01*
X97435986Y-67896845D01*
X97440947Y-67906643D01*
X97445908Y-67916193D01*
X97450869Y-67925495D01*
X97455830Y-67934548D01*
X97460791Y-67943354D01*
X97465752Y-67951912D01*
X97470713Y-67960222D01*
X97475674Y-67968283D01*
X97487622Y-67982091D01*
X97493674Y-67988840D01*
X97499818Y-67995403D01*
X97506086Y-68001718D01*
X97509277Y-68004763D01*
X97512510Y-68007722D01*
X97515789Y-68010589D01*
X97519119Y-68013355D01*
X97522503Y-68016012D01*
X97525946Y-68018553D01*
X97529449Y-68020971D01*
X97533015Y-68023261D01*
X97536642Y-68025419D01*
X97540332Y-68027442D01*
X97544084Y-68029325D01*
X97547897Y-68031065D01*
X97551773Y-68032657D01*
X97555711Y-68034098D01*
X97559711Y-68035384D01*
X97563772Y-68036512D01*
X97567896Y-68037476D01*
X97572082Y-68038274D01*
X97576330Y-68038901D01*
X97580640Y-68039354D01*
X97585012Y-68039629D01*
X97589446Y-68039721D01*
X97593878Y-68039566D01*
X97598241Y-68039101D01*
X97602526Y-68038326D01*
X97606726Y-68037241D01*
X97610833Y-68035845D01*
X97614839Y-68034140D01*
X97618737Y-68032124D01*
X97622518Y-68029799D01*
X97626176Y-68027163D01*
X97629701Y-68024218D01*
X97633088Y-68020962D01*
X97636326Y-68017396D01*
X97639410Y-68013521D01*
X97642331Y-68009335D01*
X97645082Y-68004839D01*
X97647654Y-68000033D01*
X97650477Y-67994885D01*
X97652998Y-67989362D01*
X97655224Y-67983459D01*
X97657163Y-67977172D01*
X97658823Y-67970497D01*
X97660212Y-67963431D01*
X97661337Y-67955969D01*
X97662206Y-67948109D01*
X97662828Y-67939845D01*
X97663209Y-67931174D01*
X97663357Y-67922093D01*
X97663281Y-67912596D01*
X97662987Y-67902682D01*
X97662485Y-67892344D01*
X97661781Y-67881581D01*
X97660883Y-67870387D01*
X97573570Y-67222157D01*
X97569787Y-67201943D01*
X97565380Y-67182976D01*
X97560344Y-67165266D01*
X97554677Y-67148818D01*
X97548375Y-67133642D01*
X97541433Y-67119745D01*
X97533847Y-67107135D01*
X97525614Y-67095819D01*
X97521254Y-67090649D01*
X97516730Y-67085806D01*
X97512043Y-67081290D01*
X97507192Y-67077102D01*
X97502175Y-67073244D01*
X97496994Y-67069716D01*
X97491647Y-67066520D01*
X97486133Y-67063656D01*
X97480453Y-67061125D01*
X97474606Y-67058929D01*
X97468591Y-67057068D01*
X97462409Y-67055543D01*
X97456057Y-67054355D01*
X97449537Y-67053505D01*
X97442847Y-67052995D01*
X97435986Y-67052825D01*
X97322216Y-67052825D01*
X97010963Y-67052825D01*
X96898882Y-66259075D01*
X96894914Y-66232222D01*
X96891942Y-66206231D01*
X96889970Y-66181091D01*
X96889001Y-66156797D01*
X96889041Y-66133340D01*
X96890092Y-66110712D01*
X96892158Y-66088906D01*
X96895244Y-66067914D01*
X96899353Y-66047728D01*
X96904489Y-66028340D01*
X96910656Y-66009743D01*
X96917857Y-65991929D01*
X96926098Y-65974890D01*
X96935381Y-65958618D01*
X96945710Y-65943106D01*
X96957090Y-65928346D01*
X96969340Y-65914424D01*
X96982283Y-65901428D01*
X96995931Y-65889354D01*
X97010296Y-65878199D01*
X97025391Y-65867959D01*
X97041225Y-65858629D01*
X97057811Y-65850206D01*
X97075161Y-65842687D01*
X97093286Y-65836066D01*
X97112197Y-65830341D01*
X97131907Y-65825508D01*
X97152427Y-65821561D01*
X97173769Y-65818499D01*
X97195944Y-65816316D01*
X97218964Y-65815009D01*
X97242841Y-65814575D01*
X97264452Y-65814978D01*
G37*
G36*
X96848612Y-68280492D02*
G01*
X96552278Y-68280492D01*
X96102486Y-65047284D01*
X96398820Y-65047284D01*
X96848612Y-68280492D01*
G37*
G36*
X91685496Y-58965720D02*
G01*
X91835873Y-58977154D01*
X91984078Y-58995984D01*
X92129924Y-59022024D01*
X92273223Y-59055089D01*
X92413789Y-59094993D01*
X92551434Y-59141551D01*
X92685973Y-59194577D01*
X92817216Y-59253885D01*
X92944979Y-59319291D01*
X93069073Y-59390608D01*
X93189311Y-59467650D01*
X93305508Y-59550234D01*
X93417474Y-59638172D01*
X93525025Y-59731279D01*
X93627972Y-59829370D01*
X93726128Y-59932259D01*
X93819308Y-60039761D01*
X93907323Y-60151690D01*
X93989986Y-60267860D01*
X94067111Y-60388086D01*
X94138510Y-60512183D01*
X94203997Y-60639964D01*
X94263385Y-60771245D01*
X94316486Y-60905840D01*
X94363114Y-61043562D01*
X94403082Y-61184228D01*
X94436201Y-61327650D01*
X94462287Y-61473644D01*
X94481151Y-61622024D01*
X94492606Y-61772605D01*
X94496466Y-61925200D01*
X94492614Y-62077563D01*
X94481180Y-62227940D01*
X94462350Y-62376145D01*
X94436310Y-62521991D01*
X94403245Y-62665290D01*
X94363341Y-62805856D01*
X94316783Y-62943501D01*
X94263757Y-63078039D01*
X94204449Y-63209283D01*
X94139043Y-63337045D01*
X94067727Y-63461139D01*
X93990684Y-63581378D01*
X93908100Y-63697574D01*
X93820162Y-63809541D01*
X93727055Y-63917091D01*
X93628964Y-64020039D01*
X93526075Y-64118195D01*
X93418573Y-64211374D01*
X93306645Y-64299389D01*
X93190474Y-64382053D01*
X93070248Y-64459178D01*
X92946151Y-64530577D01*
X92818370Y-64596064D01*
X92687089Y-64655452D01*
X92552494Y-64708553D01*
X92414772Y-64755181D01*
X92274106Y-64795148D01*
X92130684Y-64828268D01*
X91984690Y-64854354D01*
X91836309Y-64873218D01*
X91685729Y-64884673D01*
X91533133Y-64888533D01*
X91380771Y-64884681D01*
X91230394Y-64873247D01*
X91082189Y-64854417D01*
X90936343Y-64828377D01*
X90793044Y-64795312D01*
X90652478Y-64755408D01*
X90514833Y-64708850D01*
X90380295Y-64655824D01*
X90249051Y-64596515D01*
X90121288Y-64531110D01*
X89997194Y-64459793D01*
X89876956Y-64382750D01*
X89760760Y-64300167D01*
X89648793Y-64212229D01*
X89541242Y-64119122D01*
X89438295Y-64021031D01*
X89340139Y-63918141D01*
X89246959Y-63810640D01*
X89158945Y-63698711D01*
X89076281Y-63582541D01*
X88999156Y-63462314D01*
X88927757Y-63338218D01*
X88862269Y-63210436D01*
X88802882Y-63079155D01*
X88749780Y-62944561D01*
X88703153Y-62806838D01*
X88663185Y-62666173D01*
X88630065Y-62522750D01*
X88603980Y-62376756D01*
X88585116Y-62228376D01*
X88573660Y-62077795D01*
X88569800Y-61925200D01*
X89204800Y-61925200D01*
X89207838Y-62044780D01*
X89216851Y-62162818D01*
X89231692Y-62279165D01*
X89252214Y-62393673D01*
X89278268Y-62506194D01*
X89309707Y-62616582D01*
X89346383Y-62724688D01*
X89388148Y-62830364D01*
X89434855Y-62933463D01*
X89486356Y-63033837D01*
X89542503Y-63131338D01*
X89603148Y-63225818D01*
X89668144Y-63317130D01*
X89737342Y-63405126D01*
X89810595Y-63489657D01*
X89887756Y-63570577D01*
X89968676Y-63647738D01*
X90053207Y-63720991D01*
X90141203Y-63790190D01*
X90232515Y-63855185D01*
X90326995Y-63915830D01*
X90424496Y-63971977D01*
X90524870Y-64023478D01*
X90627969Y-64070185D01*
X90733645Y-64111950D01*
X90841751Y-64148627D01*
X90952139Y-64180066D01*
X91064660Y-64206120D01*
X91179169Y-64226641D01*
X91295515Y-64241483D01*
X91413553Y-64250496D01*
X91533133Y-64253533D01*
X91652714Y-64250496D01*
X91770752Y-64241483D01*
X91887098Y-64226641D01*
X92001607Y-64206120D01*
X92114128Y-64180066D01*
X92224516Y-64148627D01*
X92332622Y-64111950D01*
X92438298Y-64070185D01*
X92541397Y-64023478D01*
X92641771Y-63971977D01*
X92739272Y-63915830D01*
X92833752Y-63855185D01*
X92925064Y-63790190D01*
X93013060Y-63720991D01*
X93097591Y-63647738D01*
X93178511Y-63570577D01*
X93255672Y-63489657D01*
X93328925Y-63405126D01*
X93398123Y-63317130D01*
X93463119Y-63225818D01*
X93523764Y-63131338D01*
X93579911Y-63033837D01*
X93631412Y-62933463D01*
X93678119Y-62830364D01*
X93719884Y-62724688D01*
X93756560Y-62616582D01*
X93787999Y-62506194D01*
X93814053Y-62393673D01*
X93834575Y-62279165D01*
X93849416Y-62162818D01*
X93858429Y-62044780D01*
X93861466Y-61925200D01*
X93858429Y-61805620D01*
X93849416Y-61687582D01*
X93834575Y-61571236D01*
X93814053Y-61456727D01*
X93787999Y-61344206D01*
X93756560Y-61233818D01*
X93719884Y-61125712D01*
X93678118Y-61020036D01*
X93631411Y-60916937D01*
X93579910Y-60816563D01*
X93523764Y-60719062D01*
X93463119Y-60624582D01*
X93398123Y-60533270D01*
X93328925Y-60445275D01*
X93255671Y-60360743D01*
X93178511Y-60279823D01*
X93097591Y-60202662D01*
X93013059Y-60129409D01*
X92925063Y-60060210D01*
X92833751Y-59995215D01*
X92739271Y-59934570D01*
X92641770Y-59878423D01*
X92541396Y-59826922D01*
X92438298Y-59780215D01*
X92332621Y-59738450D01*
X92224515Y-59701773D01*
X92114128Y-59670334D01*
X92001606Y-59644280D01*
X91887098Y-59623759D01*
X91770751Y-59608917D01*
X91652714Y-59599904D01*
X91533133Y-59596867D01*
X91533133Y-58961867D01*
X91685496Y-58965720D01*
G37*
G36*
X99251028Y-68280491D02*
G01*
X98933527Y-68280491D01*
X98801236Y-67325346D01*
X98618673Y-67325346D01*
X98591140Y-67324788D01*
X98564103Y-67323118D01*
X98537562Y-67320340D01*
X98511517Y-67316457D01*
X98485968Y-67311474D01*
X98460915Y-67305393D01*
X98436359Y-67298220D01*
X98412298Y-67289958D01*
X98388734Y-67280610D01*
X98365666Y-67270181D01*
X98343093Y-67258675D01*
X98321017Y-67246095D01*
X98299437Y-67232445D01*
X98278353Y-67217729D01*
X98257765Y-67201952D01*
X98237674Y-67185116D01*
X98218325Y-67166884D01*
X98199965Y-67147904D01*
X98182590Y-67128172D01*
X98166195Y-67107684D01*
X98150777Y-67086437D01*
X98136331Y-67064426D01*
X98122855Y-67041648D01*
X98110343Y-67018098D01*
X98098793Y-66993773D01*
X98088200Y-66968670D01*
X98078560Y-66942783D01*
X98069870Y-66916109D01*
X98062126Y-66888645D01*
X98055323Y-66860387D01*
X98049459Y-66831330D01*
X98044528Y-66801470D01*
X97974525Y-66306445D01*
X97973091Y-66306700D01*
X97875195Y-65616138D01*
X97871321Y-65586279D01*
X97869934Y-65571288D01*
X98192499Y-65571288D01*
X98192624Y-65582579D01*
X98193141Y-65594259D01*
X98194047Y-65606327D01*
X98195341Y-65618784D01*
X98279663Y-66211523D01*
X98280007Y-66211450D01*
X98364673Y-66804117D01*
X98368736Y-66829078D01*
X98373981Y-66852372D01*
X98380411Y-66874008D01*
X98384072Y-66884206D01*
X98388032Y-66893993D01*
X98392289Y-66903368D01*
X98396846Y-66912334D01*
X98401702Y-66920891D01*
X98406857Y-66929040D01*
X98412314Y-66936782D01*
X98418071Y-66944118D01*
X98424129Y-66951049D01*
X98430489Y-66957575D01*
X98437152Y-66963699D01*
X98444117Y-66969421D01*
X98451386Y-66974742D01*
X98458958Y-66979662D01*
X98466834Y-66984183D01*
X98475016Y-66988306D01*
X98483502Y-66992032D01*
X98492294Y-66995361D01*
X98501393Y-66998295D01*
X98510798Y-67000835D01*
X98520510Y-67002982D01*
X98530530Y-67004735D01*
X98540858Y-67006098D01*
X98551494Y-67007070D01*
X98573695Y-67007846D01*
X98756257Y-67007846D01*
X98534007Y-65415055D01*
X98351445Y-65415055D01*
X98340244Y-65415256D01*
X98329461Y-65415860D01*
X98319094Y-65416866D01*
X98309143Y-65418274D01*
X98299606Y-65420083D01*
X98290484Y-65422293D01*
X98281774Y-65424902D01*
X98273476Y-65427912D01*
X98265588Y-65431321D01*
X98258111Y-65435128D01*
X98251042Y-65439333D01*
X98244382Y-65443937D01*
X98238128Y-65448937D01*
X98232280Y-65454335D01*
X98226838Y-65460128D01*
X98221799Y-65466318D01*
X98217164Y-65472902D01*
X98212930Y-65479882D01*
X98209098Y-65487256D01*
X98205666Y-65495024D01*
X98202633Y-65503185D01*
X98199998Y-65511739D01*
X98197761Y-65520686D01*
X98195919Y-65530024D01*
X98194474Y-65539754D01*
X98193422Y-65549875D01*
X98192764Y-65560386D01*
X98192499Y-65571288D01*
X97869934Y-65571288D01*
X97868632Y-65557222D01*
X97867137Y-65528963D01*
X97866844Y-65501499D01*
X97867760Y-65474825D01*
X97869893Y-65448939D01*
X97873251Y-65423835D01*
X97877841Y-65399510D01*
X97883671Y-65375961D01*
X97890750Y-65353182D01*
X97899084Y-65331171D01*
X97908681Y-65309924D01*
X97919550Y-65289436D01*
X97931698Y-65269704D01*
X97945133Y-65250724D01*
X97959862Y-65232492D01*
X97975177Y-65215220D01*
X97991353Y-65199119D01*
X98008382Y-65184181D01*
X98026255Y-65170398D01*
X98044966Y-65157761D01*
X98064506Y-65146265D01*
X98084868Y-65135900D01*
X98106044Y-65126659D01*
X98128026Y-65118534D01*
X98150806Y-65111517D01*
X98174377Y-65105602D01*
X98198731Y-65100779D01*
X98223860Y-65097042D01*
X98249756Y-65094382D01*
X98276412Y-65092791D01*
X98303820Y-65092263D01*
X98803882Y-65092263D01*
X99251028Y-68280491D01*
G37*
G36*
X91685494Y-58965719D02*
G01*
X91835871Y-58977153D01*
X91984076Y-58995983D01*
X92129922Y-59022023D01*
X92273221Y-59055088D01*
X92413787Y-59094992D01*
X92551433Y-59141550D01*
X92685971Y-59194576D01*
X92817214Y-59253885D01*
X92944977Y-59319290D01*
X93069071Y-59390607D01*
X93189309Y-59467650D01*
X93305506Y-59550233D01*
X93417472Y-59638171D01*
X93525023Y-59731278D01*
X93627970Y-59829369D01*
X93726127Y-59932259D01*
X93819306Y-60039760D01*
X93907321Y-60151689D01*
X93989984Y-60267859D01*
X94067109Y-60388086D01*
X94138508Y-60512182D01*
X94203996Y-60639964D01*
X94263383Y-60771245D01*
X94316484Y-60905839D01*
X94363112Y-61043562D01*
X94403080Y-61184227D01*
X94436200Y-61327650D01*
X94462285Y-61473644D01*
X94481149Y-61622024D01*
X94492605Y-61772605D01*
X94496465Y-61925200D01*
X93861464Y-61925200D01*
X93858427Y-61805620D01*
X93849414Y-61687582D01*
X93834573Y-61571235D01*
X93814051Y-61456727D01*
X93787997Y-61344205D01*
X93756558Y-61233818D01*
X93719882Y-61125712D01*
X93678116Y-61020036D01*
X93631409Y-60916937D01*
X93579909Y-60816563D01*
X93523762Y-60719062D01*
X93463117Y-60624582D01*
X93398121Y-60533270D01*
X93328923Y-60445274D01*
X93255669Y-60360743D01*
X93178509Y-60279823D01*
X93097589Y-60202662D01*
X93013057Y-60129409D01*
X92925061Y-60060210D01*
X92833749Y-59995215D01*
X92739269Y-59934570D01*
X92641768Y-59878423D01*
X92541395Y-59826922D01*
X92438296Y-59780215D01*
X92332619Y-59738450D01*
X92224514Y-59701773D01*
X92114126Y-59670334D01*
X92001604Y-59644280D01*
X91887096Y-59623759D01*
X91770749Y-59608917D01*
X91652712Y-59599904D01*
X91533131Y-59596867D01*
X91413551Y-59599904D01*
X91295514Y-59608917D01*
X91179167Y-59623759D01*
X91064659Y-59644280D01*
X90952137Y-59670334D01*
X90841750Y-59701773D01*
X90733644Y-59738450D01*
X90627967Y-59780215D01*
X90524868Y-59826922D01*
X90424495Y-59878423D01*
X90326994Y-59934570D01*
X90232513Y-59995215D01*
X90141201Y-60060210D01*
X90053206Y-60129409D01*
X89968674Y-60202662D01*
X89887754Y-60279823D01*
X89810593Y-60360743D01*
X89737339Y-60445275D01*
X89668141Y-60533270D01*
X89603145Y-60624582D01*
X89542500Y-60719062D01*
X89486353Y-60816563D01*
X89434852Y-60916937D01*
X89388145Y-61020036D01*
X89346379Y-61125712D01*
X89309703Y-61233818D01*
X89278264Y-61344206D01*
X89252210Y-61456727D01*
X89231688Y-61571236D01*
X89216847Y-61687582D01*
X89207834Y-61805620D01*
X89204797Y-61925200D01*
X89207834Y-62044780D01*
X89216847Y-62162818D01*
X89231688Y-62279165D01*
X89252210Y-62393673D01*
X89278264Y-62506194D01*
X89309703Y-62616582D01*
X89346379Y-62724688D01*
X89388145Y-62830364D01*
X89434852Y-62933463D01*
X89486353Y-63033837D01*
X89542500Y-63131338D01*
X89603145Y-63225818D01*
X89668140Y-63317130D01*
X89737339Y-63405126D01*
X89810592Y-63489657D01*
X89887753Y-63570577D01*
X89968673Y-63647738D01*
X90053205Y-63720991D01*
X90141200Y-63790190D01*
X90232512Y-63855185D01*
X90326993Y-63915830D01*
X90424494Y-63971977D01*
X90524868Y-64023478D01*
X90627967Y-64070185D01*
X90733643Y-64111950D01*
X90841749Y-64148627D01*
X90952137Y-64180066D01*
X91064659Y-64206120D01*
X91179167Y-64226641D01*
X91295513Y-64241483D01*
X91413551Y-64250496D01*
X91533131Y-64253533D01*
X91533131Y-64888533D01*
X91380769Y-64884681D01*
X91230392Y-64873247D01*
X91082187Y-64854417D01*
X90936341Y-64828377D01*
X90793042Y-64795312D01*
X90652476Y-64755408D01*
X90514831Y-64708850D01*
X90380293Y-64655824D01*
X90249049Y-64596515D01*
X90121287Y-64531110D01*
X89997193Y-64459793D01*
X89876954Y-64382750D01*
X89760758Y-64300167D01*
X89648791Y-64212229D01*
X89541240Y-64119122D01*
X89438293Y-64021031D01*
X89340137Y-63918141D01*
X89246957Y-63810640D01*
X89158943Y-63698711D01*
X89076279Y-63582541D01*
X88999154Y-63462314D01*
X88927755Y-63338218D01*
X88862267Y-63210436D01*
X88802880Y-63079155D01*
X88749779Y-62944561D01*
X88703151Y-62806838D01*
X88663183Y-62666173D01*
X88630063Y-62522750D01*
X88603978Y-62376756D01*
X88585114Y-62228376D01*
X88573658Y-62077795D01*
X88569798Y-61925200D01*
X88573651Y-61772837D01*
X88585085Y-61622460D01*
X88603915Y-61474255D01*
X88629955Y-61328410D01*
X88663020Y-61185110D01*
X88702924Y-61044544D01*
X88749482Y-60906899D01*
X88802508Y-60772361D01*
X88861816Y-60641117D01*
X88927222Y-60513355D01*
X88998539Y-60389261D01*
X89075582Y-60269022D01*
X89158165Y-60152826D01*
X89246103Y-60040859D01*
X89339210Y-59933309D01*
X89437301Y-59830362D01*
X89540190Y-59732205D01*
X89647692Y-59639026D01*
X89759621Y-59551011D01*
X89875791Y-59468347D01*
X89996018Y-59391223D01*
X90120114Y-59319823D01*
X90247896Y-59254336D01*
X90379177Y-59194948D01*
X90513771Y-59141847D01*
X90651494Y-59095219D01*
X90792159Y-59055252D01*
X90935582Y-59022132D01*
X91081576Y-58996046D01*
X91229956Y-58977182D01*
X91380536Y-58965727D01*
X91533131Y-58961867D01*
X91685494Y-58965719D01*
G37*
G36*
X92466864Y-65817655D02*
G01*
X92489932Y-65818958D01*
X92512505Y-65821128D01*
X92534581Y-65824167D01*
X92556161Y-65828073D01*
X92577245Y-65832848D01*
X92597833Y-65838491D01*
X92617925Y-65845002D01*
X92637521Y-65852382D01*
X92656620Y-65860629D01*
X92675224Y-65869745D01*
X92693331Y-65879729D01*
X92710943Y-65890581D01*
X92728058Y-65902301D01*
X92744677Y-65914890D01*
X92760800Y-65928346D01*
X92776304Y-65942610D01*
X92791067Y-65957626D01*
X92805094Y-65973401D01*
X92818388Y-65989944D01*
X92830954Y-66007262D01*
X92842795Y-66025363D01*
X92853915Y-66044255D01*
X92864318Y-66063945D01*
X92874008Y-66084441D01*
X92882989Y-66105751D01*
X92891264Y-66127883D01*
X92898838Y-66150844D01*
X92905714Y-66174643D01*
X92911897Y-66199286D01*
X92917390Y-66224782D01*
X92922196Y-66251138D01*
X93157675Y-67854514D01*
X93161148Y-67880434D01*
X93163633Y-67905606D01*
X93165134Y-67930026D01*
X93165654Y-67953691D01*
X93165197Y-67976595D01*
X93163768Y-67998737D01*
X93161369Y-68020111D01*
X93158006Y-68040714D01*
X93153681Y-68060541D01*
X93148399Y-68079590D01*
X93142164Y-68097855D01*
X93134979Y-68115334D01*
X93126848Y-68132023D01*
X93117775Y-68147916D01*
X93107765Y-68163012D01*
X93096821Y-68177305D01*
X93084571Y-68190761D01*
X93071628Y-68203350D01*
X93057980Y-68215070D01*
X93043614Y-68225922D01*
X93028520Y-68235906D01*
X93012686Y-68245022D01*
X92996100Y-68253269D01*
X92978750Y-68260649D01*
X92960625Y-68267160D01*
X92941714Y-68272803D01*
X92922004Y-68277578D01*
X92901484Y-68281484D01*
X92880142Y-68284523D01*
X92857967Y-68286693D01*
X92834947Y-68287996D01*
X92811070Y-68288430D01*
X92787506Y-68287965D01*
X92764438Y-68286575D01*
X92741866Y-68284261D01*
X92719789Y-68281030D01*
X92698209Y-68276883D01*
X92677125Y-68271826D01*
X92656537Y-68265862D01*
X92636446Y-68258995D01*
X92616850Y-68251228D01*
X92597750Y-68242567D01*
X92579147Y-68233014D01*
X92561039Y-68222573D01*
X92543428Y-68211249D01*
X92526313Y-68199045D01*
X92509694Y-68185966D01*
X92493571Y-68172014D01*
X92478098Y-68157194D01*
X92463423Y-68141509D01*
X92449539Y-68124964D01*
X92436437Y-68107563D01*
X92424111Y-68089309D01*
X92412553Y-68070206D01*
X92401754Y-68050258D01*
X92391706Y-68029469D01*
X92382403Y-68007843D01*
X92373837Y-67985384D01*
X92365999Y-67962095D01*
X92358881Y-67937981D01*
X92352477Y-67913045D01*
X92346779Y-67887292D01*
X92341777Y-67860724D01*
X92337466Y-67833347D01*
X92260737Y-67309473D01*
X92557071Y-67309473D01*
X92633799Y-67833347D01*
X92636622Y-67852571D01*
X92640135Y-67870554D01*
X92644345Y-67887297D01*
X92649261Y-67902800D01*
X92654890Y-67917063D01*
X92661239Y-67930085D01*
X92668318Y-67941867D01*
X92672132Y-67947293D01*
X92676132Y-67952409D01*
X92680318Y-67957215D01*
X92684691Y-67961711D01*
X92689252Y-67965897D01*
X92694002Y-67969773D01*
X92698942Y-67973338D01*
X92704072Y-67976594D01*
X92709395Y-67979539D01*
X92714910Y-67982175D01*
X92720619Y-67984500D01*
X92726523Y-67986516D01*
X92732623Y-67988221D01*
X92738919Y-67989616D01*
X92745413Y-67990701D01*
X92752106Y-67991476D01*
X92758998Y-67991941D01*
X92766091Y-67992096D01*
X92773153Y-67991941D01*
X92779951Y-67991476D01*
X92786485Y-67990701D01*
X92792756Y-67989616D01*
X92798763Y-67988221D01*
X92804507Y-67986515D01*
X92809988Y-67984500D01*
X92815204Y-67982175D01*
X92820157Y-67979539D01*
X92824847Y-67976594D01*
X92829273Y-67973338D01*
X92833436Y-67969772D01*
X92837335Y-67965897D01*
X92840970Y-67961711D01*
X92844342Y-67957215D01*
X92847450Y-67952409D01*
X92850295Y-67947293D01*
X92852876Y-67941867D01*
X92855194Y-67936131D01*
X92857248Y-67930085D01*
X92859039Y-67923729D01*
X92860566Y-67917062D01*
X92861829Y-67910086D01*
X92862829Y-67902800D01*
X92863566Y-67895203D01*
X92864039Y-67887297D01*
X92864248Y-67879080D01*
X92864194Y-67870554D01*
X92863876Y-67861717D01*
X92863295Y-67852570D01*
X92862450Y-67843114D01*
X92861341Y-67833347D01*
X92752862Y-67081931D01*
X92228988Y-67081931D01*
X92172350Y-66700916D01*
X92170779Y-66700930D01*
X92099341Y-66229971D01*
X92095799Y-66207720D01*
X92390322Y-66207720D01*
X92390672Y-66215254D01*
X92391378Y-66223099D01*
X92392445Y-66231253D01*
X92393875Y-66239718D01*
X92395675Y-66248493D01*
X92464185Y-66679867D01*
X92467110Y-66679763D01*
X92482987Y-66782951D01*
X92710528Y-66782951D01*
X92623216Y-66248493D01*
X92619432Y-66232153D01*
X92615025Y-66216867D01*
X92609990Y-66202635D01*
X92604323Y-66189458D01*
X92598020Y-66177334D01*
X92594629Y-66171668D01*
X92591078Y-66166265D01*
X92587366Y-66161126D01*
X92583492Y-66156250D01*
X92579457Y-66151638D01*
X92575260Y-66147290D01*
X92570899Y-66143205D01*
X92566376Y-66139383D01*
X92561688Y-66135825D01*
X92556837Y-66132531D01*
X92551821Y-66129500D01*
X92546639Y-66126733D01*
X92541292Y-66124229D01*
X92535779Y-66121989D01*
X92530099Y-66120012D01*
X92524252Y-66118299D01*
X92518237Y-66116850D01*
X92512054Y-66115664D01*
X92505703Y-66114741D01*
X92499183Y-66114083D01*
X92492493Y-66113687D01*
X92485633Y-66113555D01*
X92479306Y-66113679D01*
X92473220Y-66114052D01*
X92467366Y-66114672D01*
X92461737Y-66115540D01*
X92456325Y-66116656D01*
X92451123Y-66118020D01*
X92446122Y-66119633D01*
X92441314Y-66121493D01*
X92436693Y-66123602D01*
X92432250Y-66125958D01*
X92427978Y-66128562D01*
X92423868Y-66131415D01*
X92419914Y-66134515D01*
X92416106Y-66137864D01*
X92412438Y-66141461D01*
X92408902Y-66145305D01*
X92405585Y-66149429D01*
X92402582Y-66153863D01*
X92399897Y-66158607D01*
X92397534Y-66163661D01*
X92395496Y-66169025D01*
X92393787Y-66174699D01*
X92392412Y-66180683D01*
X92391374Y-66186977D01*
X92390677Y-66193581D01*
X92390325Y-66200495D01*
X92390322Y-66207720D01*
X92095799Y-66207720D01*
X92095373Y-66205044D01*
X92092401Y-66180864D01*
X92090429Y-66157436D01*
X92089460Y-66134763D01*
X92089500Y-66112851D01*
X92090550Y-66091701D01*
X92092617Y-66071320D01*
X92095703Y-66051709D01*
X92099811Y-66032874D01*
X92104947Y-66014817D01*
X92111114Y-65997544D01*
X92118316Y-65981057D01*
X92126557Y-65965361D01*
X92135840Y-65950459D01*
X92146170Y-65936356D01*
X92157550Y-65923055D01*
X92169799Y-65910094D01*
X92182742Y-65897997D01*
X92196390Y-65886761D01*
X92210755Y-65876381D01*
X92225849Y-65866854D01*
X92241684Y-65858175D01*
X92258270Y-65850342D01*
X92275619Y-65843349D01*
X92293744Y-65837194D01*
X92312656Y-65831872D01*
X92332366Y-65827379D01*
X92352886Y-65823712D01*
X92374228Y-65820866D01*
X92396403Y-65818839D01*
X92419423Y-65817625D01*
X92443299Y-65817221D01*
X92466864Y-65817655D01*
G37*
G36*
X91628383Y-66015659D02*
G01*
X89059277Y-66015659D01*
X89038112Y-65846325D01*
X91604569Y-65846325D01*
X91628383Y-66015659D01*
G37*
G36*
X105282866Y-67811854D02*
G01*
X105280904Y-67837645D01*
X105277672Y-67863061D01*
X105273203Y-67888072D01*
X105267528Y-67912644D01*
X105260680Y-67936747D01*
X105252691Y-67960348D01*
X105243592Y-67983415D01*
X105233416Y-68005916D01*
X105222194Y-68027819D01*
X105209959Y-68049092D01*
X105196742Y-68069704D01*
X105182576Y-68089622D01*
X105167492Y-68108814D01*
X105151522Y-68127248D01*
X105134699Y-68144893D01*
X105117055Y-68161716D01*
X105098620Y-68177685D01*
X105079428Y-68192769D01*
X105059510Y-68206936D01*
X105038899Y-68220152D01*
X105017625Y-68232387D01*
X104995722Y-68243609D01*
X104973221Y-68253785D01*
X104950154Y-68262884D01*
X104926553Y-68270873D01*
X104902450Y-68277721D01*
X104877878Y-68283396D01*
X104852867Y-68287865D01*
X104827451Y-68291097D01*
X104801660Y-68293059D01*
X104775528Y-68293721D01*
X99878090Y-68293721D01*
X99878090Y-64483721D01*
X95107653Y-64483721D01*
X95107653Y-59845575D01*
X95742653Y-59845575D01*
X95742653Y-63843429D01*
X99880736Y-63843429D01*
X99880736Y-63623826D01*
X100510444Y-63623826D01*
X100510444Y-67658721D01*
X104420986Y-67658721D01*
X104432812Y-67658422D01*
X104444470Y-67657532D01*
X104455946Y-67656068D01*
X104467226Y-67654045D01*
X104478296Y-67651477D01*
X104489144Y-67648379D01*
X104499756Y-67644767D01*
X104510117Y-67640655D01*
X104520215Y-67636059D01*
X104530036Y-67630994D01*
X104539566Y-67625474D01*
X104548792Y-67619515D01*
X104557700Y-67613131D01*
X104566276Y-67606338D01*
X104574508Y-67599150D01*
X104582381Y-67591583D01*
X104589883Y-67583652D01*
X104596998Y-67575372D01*
X104603715Y-67566757D01*
X104610018Y-67557823D01*
X104615895Y-67548585D01*
X104621333Y-67539057D01*
X104626317Y-67529256D01*
X104630833Y-67519195D01*
X104634870Y-67508890D01*
X104638412Y-67498356D01*
X104641446Y-67487607D01*
X104643959Y-67476660D01*
X104645938Y-67465529D01*
X104647367Y-67454228D01*
X104648235Y-67442773D01*
X104648527Y-67431180D01*
X104648527Y-63623826D01*
X100510444Y-63623826D01*
X99880736Y-63623826D01*
X99880736Y-59845575D01*
X95742653Y-59845575D01*
X95107653Y-59845575D01*
X95107653Y-59213222D01*
X100513090Y-59213222D01*
X100513090Y-62988825D01*
X105283527Y-62988825D01*
X105283527Y-67785721D01*
X105282866Y-67811854D01*
G37*
G36*
X89359787Y-66230250D02*
G01*
X89374293Y-66231092D01*
X89388543Y-66232499D01*
X89402534Y-66234477D01*
X89416261Y-66237028D01*
X89429720Y-66240156D01*
X89442909Y-66243866D01*
X89455822Y-66248161D01*
X89468456Y-66253045D01*
X89480807Y-66258522D01*
X89492872Y-66264596D01*
X89504645Y-66271271D01*
X89516125Y-66278550D01*
X89527305Y-66286438D01*
X89538184Y-66294938D01*
X89548756Y-66304054D01*
X89558926Y-66313200D01*
X89568600Y-66322781D01*
X89577778Y-66332796D01*
X89586460Y-66343245D01*
X89594645Y-66354128D01*
X89602335Y-66365445D01*
X89609528Y-66377196D01*
X89616225Y-66389382D01*
X89622426Y-66402001D01*
X89628132Y-66415055D01*
X89633340Y-66428542D01*
X89638053Y-66442464D01*
X89642270Y-66456820D01*
X89645991Y-66471609D01*
X89649215Y-66486833D01*
X89651944Y-66502492D01*
X89694278Y-66788242D01*
X89524945Y-66788242D01*
X89482612Y-66505138D01*
X89480317Y-66492177D01*
X89478937Y-66486021D01*
X89477402Y-66480080D01*
X89475712Y-66474354D01*
X89473868Y-66468843D01*
X89471868Y-66463547D01*
X89469713Y-66458464D01*
X89467403Y-66453594D01*
X89464938Y-66448936D01*
X89462318Y-66444491D01*
X89459542Y-66440258D01*
X89456612Y-66436236D01*
X89453527Y-66432424D01*
X89450287Y-66428823D01*
X89446892Y-66425432D01*
X89443342Y-66422250D01*
X89439636Y-66419276D01*
X89435776Y-66416511D01*
X89431761Y-66413954D01*
X89427591Y-66411605D01*
X89423265Y-66409462D01*
X89418785Y-66407525D01*
X89414149Y-66405795D01*
X89409359Y-66404269D01*
X89404414Y-66402949D01*
X89399313Y-66401833D01*
X89394058Y-66400921D01*
X89388647Y-66400213D01*
X89383082Y-66399708D01*
X89377361Y-66399405D01*
X89371486Y-66399304D01*
X89359984Y-66399708D01*
X89354538Y-66400213D01*
X89349296Y-66400921D01*
X89344260Y-66401833D01*
X89339430Y-66402949D01*
X89334807Y-66404269D01*
X89330393Y-66405795D01*
X89326188Y-66407525D01*
X89322193Y-66409462D01*
X89318410Y-66411605D01*
X89314838Y-66413954D01*
X89311480Y-66416511D01*
X89308336Y-66419276D01*
X89305407Y-66422250D01*
X89302694Y-66425432D01*
X89300199Y-66428823D01*
X89297921Y-66432424D01*
X89295862Y-66436236D01*
X89294023Y-66440258D01*
X89292405Y-66444491D01*
X89291009Y-66448936D01*
X89289836Y-66453594D01*
X89288887Y-66458464D01*
X89288162Y-66463547D01*
X89287663Y-66468843D01*
X89287391Y-66474354D01*
X89287347Y-66480080D01*
X89287531Y-66486021D01*
X89287945Y-66492177D01*
X89289466Y-66505138D01*
X89294798Y-66538490D01*
X89300875Y-66571036D01*
X89307696Y-66602713D01*
X89315262Y-66633461D01*
X89323571Y-66663216D01*
X89332625Y-66691917D01*
X89342423Y-66719502D01*
X89352965Y-66745908D01*
X89363244Y-66771462D01*
X89374174Y-66796551D01*
X89385662Y-66821206D01*
X89397615Y-66845458D01*
X89409940Y-66869337D01*
X89422544Y-66892876D01*
X89448216Y-66939054D01*
X89476038Y-66984198D01*
X89504109Y-67028351D01*
X89518315Y-67050055D01*
X89532676Y-67071511D01*
X89547222Y-67092719D01*
X89561986Y-67113679D01*
X89576750Y-67134644D01*
X89591297Y-67155888D01*
X89605658Y-67177442D01*
X89619864Y-67199338D01*
X89633946Y-67221605D01*
X89647935Y-67244275D01*
X89661862Y-67267380D01*
X89675757Y-67290949D01*
X89689405Y-67315010D01*
X89702588Y-67339566D01*
X89715337Y-67364619D01*
X89727682Y-67390168D01*
X89739656Y-67416213D01*
X89751288Y-67442754D01*
X89762611Y-67469791D01*
X89773654Y-67497325D01*
X89784201Y-67525726D01*
X89794035Y-67555367D01*
X89803187Y-67586249D01*
X89811688Y-67618371D01*
X89819569Y-67651734D01*
X89826861Y-67686336D01*
X89833594Y-67722179D01*
X89839801Y-67759262D01*
X89860967Y-67925950D01*
X89329154Y-67928595D01*
X89307986Y-67759262D01*
X89670466Y-67759262D01*
X89665134Y-67726018D01*
X89659057Y-67693736D01*
X89652236Y-67662384D01*
X89644670Y-67631931D01*
X89636361Y-67602347D01*
X89627307Y-67573599D01*
X89617509Y-67545658D01*
X89606967Y-67518491D01*
X89596689Y-67492064D01*
X89585759Y-67466319D01*
X89574272Y-67441193D01*
X89562319Y-67416626D01*
X89549994Y-67392555D01*
X89537390Y-67368918D01*
X89511718Y-67322699D01*
X89483895Y-67277555D01*
X89455824Y-67233402D01*
X89441618Y-67211698D01*
X89427257Y-67190242D01*
X89412710Y-67169034D01*
X89397946Y-67148075D01*
X89383182Y-67127109D01*
X89368635Y-67105865D01*
X89354274Y-67084311D01*
X89340068Y-67062416D01*
X89325987Y-67040148D01*
X89311998Y-67017478D01*
X89298071Y-66994373D01*
X89284175Y-66970804D01*
X89270527Y-66947611D01*
X89257345Y-66923675D01*
X89244596Y-66898994D01*
X89232250Y-66873570D01*
X89220277Y-66847401D01*
X89208644Y-66820488D01*
X89197322Y-66792831D01*
X89186278Y-66764430D01*
X89175731Y-66736033D01*
X89165897Y-66706428D01*
X89156745Y-66675644D01*
X89148245Y-66643713D01*
X89140364Y-66610666D01*
X89133073Y-66576534D01*
X89126340Y-66541348D01*
X89120133Y-66505138D01*
X89117963Y-66489479D01*
X89116418Y-66474251D01*
X89115500Y-66459449D01*
X89115214Y-66445069D01*
X89115563Y-66431108D01*
X89116552Y-66417561D01*
X89118184Y-66404426D01*
X89120464Y-66391697D01*
X89123394Y-66379372D01*
X89126980Y-66367446D01*
X89131224Y-66355915D01*
X89136132Y-66344775D01*
X89141705Y-66334023D01*
X89147950Y-66323655D01*
X89154868Y-66313666D01*
X89162465Y-66304054D01*
X89170620Y-66294938D01*
X89179209Y-66286438D01*
X89188232Y-66278550D01*
X89197689Y-66271271D01*
X89207579Y-66264596D01*
X89217904Y-66258522D01*
X89228663Y-66253045D01*
X89239857Y-66248161D01*
X89251484Y-66243866D01*
X89263545Y-66240156D01*
X89276040Y-66237028D01*
X89288970Y-66234477D01*
X89302333Y-66232499D01*
X89316131Y-66231092D01*
X89330363Y-66230250D01*
X89345029Y-66229970D01*
X89359787Y-66230250D01*
G37*
G36*
X91951175Y-68296367D02*
G01*
X89382069Y-68296367D01*
X89360904Y-68129679D01*
X91927361Y-68129679D01*
X91951175Y-68296367D01*
G37*
G36*
X90812349Y-66224958D02*
G01*
X90826855Y-66225800D01*
X90841105Y-66227208D01*
X90855095Y-66229185D01*
X90868822Y-66231736D01*
X90882282Y-66234864D01*
X90895470Y-66238574D01*
X90908383Y-66242869D01*
X90921018Y-66247753D01*
X90933369Y-66253230D01*
X90945434Y-66259304D01*
X90957207Y-66265979D01*
X90968687Y-66273258D01*
X90979868Y-66281146D01*
X90990746Y-66289646D01*
X91001319Y-66298762D01*
X91011488Y-66307909D01*
X91021162Y-66317490D01*
X91030340Y-66327505D01*
X91039021Y-66337954D01*
X91047206Y-66348837D01*
X91054896Y-66360154D01*
X91062089Y-66371905D01*
X91068786Y-66384090D01*
X91074987Y-66396710D01*
X91080693Y-66409763D01*
X91085902Y-66423251D01*
X91090615Y-66437172D01*
X91094832Y-66451528D01*
X91098553Y-66466318D01*
X91101777Y-66481542D01*
X91104506Y-66497200D01*
X91146840Y-66782950D01*
X90977507Y-66782950D01*
X90935172Y-66499846D01*
X90932878Y-66486885D01*
X90931498Y-66480729D01*
X90929963Y-66474788D01*
X90928274Y-66469062D01*
X90926429Y-66463552D01*
X90924429Y-66458255D01*
X90922274Y-66453172D01*
X90919964Y-66448302D01*
X90917499Y-66443644D01*
X90914879Y-66439199D01*
X90912104Y-66434966D01*
X90909174Y-66430944D01*
X90906089Y-66427132D01*
X90902849Y-66423531D01*
X90899454Y-66420140D01*
X90895904Y-66416958D01*
X90892199Y-66413984D01*
X90888338Y-66411220D01*
X90884323Y-66408662D01*
X90880153Y-66406313D01*
X90875827Y-66404170D01*
X90871347Y-66402233D01*
X90866712Y-66400503D01*
X90861921Y-66398977D01*
X90856976Y-66397657D01*
X90851875Y-66396541D01*
X90846620Y-66395629D01*
X90841210Y-66394921D01*
X90835644Y-66394416D01*
X90829923Y-66394113D01*
X90824048Y-66394012D01*
X90812546Y-66394416D01*
X90807100Y-66394921D01*
X90801858Y-66395629D01*
X90796822Y-66396541D01*
X90791992Y-66397657D01*
X90787369Y-66398977D01*
X90782955Y-66400503D01*
X90778750Y-66402233D01*
X90774755Y-66404170D01*
X90770972Y-66406313D01*
X90767401Y-66408662D01*
X90764042Y-66411220D01*
X90760898Y-66413984D01*
X90757970Y-66416958D01*
X90755257Y-66420140D01*
X90752761Y-66423531D01*
X90750483Y-66427132D01*
X90748424Y-66430944D01*
X90746586Y-66434966D01*
X90744968Y-66439199D01*
X90743572Y-66443644D01*
X90742398Y-66448302D01*
X90741449Y-66453172D01*
X90740724Y-66458255D01*
X90740226Y-66463552D01*
X90739954Y-66469062D01*
X90739909Y-66474788D01*
X90740093Y-66480729D01*
X90740507Y-66486885D01*
X90742028Y-66499846D01*
X90747361Y-66533198D01*
X90753437Y-66565744D01*
X90760259Y-66597422D01*
X90767824Y-66628169D01*
X90776134Y-66657924D01*
X90785188Y-66686625D01*
X90794985Y-66714210D01*
X90805528Y-66740616D01*
X90815806Y-66766170D01*
X90826735Y-66791259D01*
X90838222Y-66815914D01*
X90850175Y-66840166D01*
X90862500Y-66864045D01*
X90875104Y-66887584D01*
X90900777Y-66933762D01*
X90928600Y-66978907D01*
X90956670Y-67023059D01*
X90970876Y-67044764D01*
X90985237Y-67066220D01*
X90999784Y-67087428D01*
X91014548Y-67108388D01*
X91029312Y-67129352D01*
X91043859Y-67150596D01*
X91058220Y-67172150D01*
X91072426Y-67194046D01*
X91086508Y-67216313D01*
X91100497Y-67238983D01*
X91114424Y-67262088D01*
X91128320Y-67285657D01*
X91141967Y-67309718D01*
X91155150Y-67334274D01*
X91167898Y-67359327D01*
X91180244Y-67384876D01*
X91192218Y-67410921D01*
X91203850Y-67437462D01*
X91215173Y-67464499D01*
X91226216Y-67492033D01*
X91236763Y-67520434D01*
X91246598Y-67550076D01*
X91255750Y-67580957D01*
X91264250Y-67613080D01*
X91272131Y-67646442D01*
X91279422Y-67681045D01*
X91286155Y-67716888D01*
X91292361Y-67753971D01*
X91313529Y-67920658D01*
X90781716Y-67923303D01*
X90760548Y-67753971D01*
X91123029Y-67753971D01*
X91117696Y-67720727D01*
X91111619Y-67688445D01*
X91104798Y-67657092D01*
X91097233Y-67626640D01*
X91088923Y-67597055D01*
X91079869Y-67568307D01*
X91070071Y-67540366D01*
X91059529Y-67513199D01*
X91049359Y-67486772D01*
X91038693Y-67461027D01*
X91027531Y-67435901D01*
X91015873Y-67411334D01*
X91003718Y-67387263D01*
X90991068Y-67363627D01*
X90977921Y-67340362D01*
X90964278Y-67317407D01*
X90936456Y-67272263D01*
X90908386Y-67228110D01*
X90894180Y-67206406D01*
X90879820Y-67184950D01*
X90865273Y-67163743D01*
X90850509Y-67142783D01*
X90835744Y-67121817D01*
X90821197Y-67100573D01*
X90806836Y-67079019D01*
X90792630Y-67057124D01*
X90778548Y-67034857D01*
X90764559Y-67012186D01*
X90750633Y-66989082D01*
X90736737Y-66965512D01*
X90723090Y-66942320D01*
X90709907Y-66918383D01*
X90697158Y-66893703D01*
X90684813Y-66868278D01*
X90672839Y-66842109D01*
X90661206Y-66815196D01*
X90649884Y-66787539D01*
X90638841Y-66759138D01*
X90628293Y-66730741D01*
X90618459Y-66701136D01*
X90609307Y-66670352D01*
X90600806Y-66638421D01*
X90592926Y-66605374D01*
X90585634Y-66571242D01*
X90578901Y-66536056D01*
X90572696Y-66499846D01*
X90570525Y-66484187D01*
X90568979Y-66468959D01*
X90568061Y-66454157D01*
X90567775Y-66439778D01*
X90568124Y-66425817D01*
X90569113Y-66412270D01*
X90570746Y-66399135D01*
X90573025Y-66386406D01*
X90575956Y-66374081D01*
X90579542Y-66362154D01*
X90583786Y-66350623D01*
X90588694Y-66339484D01*
X90594268Y-66328732D01*
X90600512Y-66318363D01*
X90607430Y-66308375D01*
X90615027Y-66298762D01*
X90623182Y-66289646D01*
X90631771Y-66281146D01*
X90640793Y-66273258D01*
X90650250Y-66265979D01*
X90660141Y-66259304D01*
X90670466Y-66253230D01*
X90681225Y-66247753D01*
X90692418Y-66242869D01*
X90704045Y-66238574D01*
X90716107Y-66234864D01*
X90728602Y-66231736D01*
X90741532Y-66229185D01*
X90754895Y-66227208D01*
X90768693Y-66225800D01*
X90782925Y-66224958D01*
X90797591Y-66224679D01*
X90812349Y-66224958D01*
G37*
G36*
X90087362Y-66227604D02*
G01*
X90101789Y-66228441D01*
X90115921Y-66229837D01*
X90129767Y-66231790D01*
X90143333Y-66234301D01*
X90156628Y-66237371D01*
X90169660Y-66240999D01*
X90182435Y-66245185D01*
X90194963Y-66249929D01*
X90207250Y-66255231D01*
X90219304Y-66261091D01*
X90231134Y-66267509D01*
X90242747Y-66274485D01*
X90254150Y-66282020D01*
X90265352Y-66290112D01*
X90276360Y-66298763D01*
X90286530Y-66307909D01*
X90296204Y-66317485D01*
X90305382Y-66327488D01*
X90314064Y-66337913D01*
X90322249Y-66348757D01*
X90329939Y-66360015D01*
X90337132Y-66371685D01*
X90343829Y-66383761D01*
X90350030Y-66396240D01*
X90355735Y-66409118D01*
X90360944Y-66422392D01*
X90365657Y-66436057D01*
X90369874Y-66450110D01*
X90373595Y-66464547D01*
X90376819Y-66479363D01*
X90379548Y-66494555D01*
X90554173Y-67658722D01*
X90556343Y-67673915D01*
X90557889Y-67688731D01*
X90558808Y-67703167D01*
X90559094Y-67717220D01*
X90558744Y-67730885D01*
X90557755Y-67744159D01*
X90556123Y-67757038D01*
X90553843Y-67769517D01*
X90550913Y-67781593D01*
X90547327Y-67793262D01*
X90543082Y-67804521D01*
X90538174Y-67815364D01*
X90532600Y-67825789D01*
X90526356Y-67835792D01*
X90519437Y-67845368D01*
X90511840Y-67854515D01*
X90503685Y-67863166D01*
X90495096Y-67871263D01*
X90486074Y-67878809D01*
X90476617Y-67885810D01*
X90466726Y-67892267D01*
X90456401Y-67898186D01*
X90445642Y-67903570D01*
X90434449Y-67908423D01*
X90422822Y-67912749D01*
X90410760Y-67916552D01*
X90398265Y-67919835D01*
X90385335Y-67922603D01*
X90371972Y-67924859D01*
X90358174Y-67926608D01*
X90343942Y-67927852D01*
X90329276Y-67928597D01*
X90314518Y-67928318D01*
X90300012Y-67927481D01*
X90285762Y-67926086D01*
X90271771Y-67924132D01*
X90258044Y-67921621D01*
X90244584Y-67918551D01*
X90231396Y-67914923D01*
X90218483Y-67910738D01*
X90205849Y-67905994D01*
X90193497Y-67900692D01*
X90181433Y-67894832D01*
X90169659Y-67888413D01*
X90158180Y-67881437D01*
X90146999Y-67873903D01*
X90136121Y-67865810D01*
X90125548Y-67857159D01*
X90115349Y-67848013D01*
X90105591Y-67838437D01*
X90096282Y-67828434D01*
X90087432Y-67818009D01*
X90079046Y-67807166D01*
X90071133Y-67795907D01*
X90063701Y-67784238D01*
X90056757Y-67772162D01*
X90050309Y-67759683D01*
X90044365Y-67746805D01*
X90038932Y-67733531D01*
X90034019Y-67719866D01*
X90029633Y-67705813D01*
X90025782Y-67691376D01*
X90022473Y-67676560D01*
X90019715Y-67661368D01*
X89952913Y-67206129D01*
X89950925Y-67206284D01*
X89845090Y-66497201D01*
X89842950Y-66482008D01*
X89842324Y-66475663D01*
X90014951Y-66475663D01*
X90015135Y-66481407D01*
X90015549Y-66487353D01*
X90016194Y-66493500D01*
X90017070Y-66499848D01*
X90117107Y-67171897D01*
X90117612Y-67171889D01*
X90191695Y-67656077D01*
X90194019Y-67668572D01*
X90195434Y-67674518D01*
X90197017Y-67680261D01*
X90198767Y-67685804D01*
X90200682Y-67691144D01*
X90202762Y-67696284D01*
X90205006Y-67701221D01*
X90207413Y-67705958D01*
X90209981Y-67710492D01*
X90212711Y-67714825D01*
X90215600Y-67718957D01*
X90218648Y-67722887D01*
X90221854Y-67726615D01*
X90225217Y-67730142D01*
X90228736Y-67733467D01*
X90232410Y-67736591D01*
X90236238Y-67739514D01*
X90240219Y-67742234D01*
X90244352Y-67744754D01*
X90248637Y-67747071D01*
X90253071Y-67749188D01*
X90257655Y-67751102D01*
X90262387Y-67752815D01*
X90267267Y-67754327D01*
X90272292Y-67755637D01*
X90277463Y-67756745D01*
X90282779Y-67757652D01*
X90288238Y-67758358D01*
X90293839Y-67758861D01*
X90305465Y-67759265D01*
X90311295Y-67759171D01*
X90316886Y-67758887D01*
X90322243Y-67758410D01*
X90327376Y-67757735D01*
X90332292Y-67756858D01*
X90336998Y-67755776D01*
X90341503Y-67754485D01*
X90345814Y-67752981D01*
X90349939Y-67751259D01*
X90353886Y-67749317D01*
X90357662Y-67747150D01*
X90361275Y-67744754D01*
X90364734Y-67742125D01*
X90368045Y-67739260D01*
X90371217Y-67736155D01*
X90374257Y-67732806D01*
X90376643Y-67729705D01*
X90378836Y-67726357D01*
X90380827Y-67722760D01*
X90382609Y-67718915D01*
X90384173Y-67714823D01*
X90385513Y-67710482D01*
X90386620Y-67705893D01*
X90387487Y-67701056D01*
X90388106Y-67695971D01*
X90388468Y-67690638D01*
X90388568Y-67685057D01*
X90388396Y-67679228D01*
X90387945Y-67673151D01*
X90387207Y-67666826D01*
X90386175Y-67660253D01*
X90384841Y-67653431D01*
X90210215Y-66499848D01*
X90207921Y-66487353D01*
X90205006Y-66475663D01*
X90203316Y-66470121D01*
X90201471Y-66464780D01*
X90199471Y-66459641D01*
X90197317Y-66454704D01*
X90195007Y-66449967D01*
X90192542Y-66445433D01*
X90189921Y-66441100D01*
X90187146Y-66436968D01*
X90184216Y-66433038D01*
X90181131Y-66429310D01*
X90177891Y-66425783D01*
X90174496Y-66422457D01*
X90170946Y-66419334D01*
X90167240Y-66416411D01*
X90163380Y-66413690D01*
X90159365Y-66411171D01*
X90155194Y-66408854D01*
X90150869Y-66406737D01*
X90146389Y-66404823D01*
X90141753Y-66403110D01*
X90136963Y-66401598D01*
X90132018Y-66400288D01*
X90126917Y-66399180D01*
X90121662Y-66398273D01*
X90116251Y-66397567D01*
X90110686Y-66397063D01*
X90104965Y-66396761D01*
X90099089Y-66396660D01*
X90093237Y-66396761D01*
X90087588Y-66397063D01*
X90082142Y-66397567D01*
X90076900Y-66398273D01*
X90071863Y-66399180D01*
X90067034Y-66400288D01*
X90062411Y-66401598D01*
X90057997Y-66403110D01*
X90053792Y-66404823D01*
X90049797Y-66406737D01*
X90046013Y-66408854D01*
X90042442Y-66411171D01*
X90039084Y-66413690D01*
X90035940Y-66416411D01*
X90033011Y-66419334D01*
X90030298Y-66422457D01*
X90027803Y-66425783D01*
X90025525Y-66429310D01*
X90023466Y-66433038D01*
X90021627Y-66436968D01*
X90020009Y-66441100D01*
X90018613Y-66445433D01*
X90017440Y-66449967D01*
X90016491Y-66454704D01*
X90015766Y-66459641D01*
X90015267Y-66464780D01*
X90014995Y-66470121D01*
X90014951Y-66475663D01*
X89842324Y-66475663D01*
X89841488Y-66467192D01*
X89840701Y-66452756D01*
X89840584Y-66438703D01*
X89841134Y-66425038D01*
X89842346Y-66411764D01*
X89844217Y-66398885D01*
X89846744Y-66386406D01*
X89849921Y-66374330D01*
X89853746Y-66362661D01*
X89858214Y-66351402D01*
X89863322Y-66340559D01*
X89869065Y-66330134D01*
X89875440Y-66320131D01*
X89882442Y-66310555D01*
X89890069Y-66301408D01*
X89898224Y-66292757D01*
X89906813Y-66284660D01*
X89915836Y-66277113D01*
X89925292Y-66270113D01*
X89935183Y-66263656D01*
X89945508Y-66257737D01*
X89956267Y-66252353D01*
X89967460Y-66247500D01*
X89979088Y-66243174D01*
X89991149Y-66239371D01*
X90003644Y-66236087D01*
X90016574Y-66233319D01*
X90029937Y-66231063D01*
X90043735Y-66229314D01*
X90057967Y-66228070D01*
X90072633Y-66227325D01*
X90087362Y-66227604D01*
G37*
G36*
X93708008Y-65822513D02*
G01*
X93890570Y-65822513D01*
X93930258Y-66118846D01*
X93742404Y-66118846D01*
X93980530Y-67825408D01*
X93984467Y-67852786D01*
X93987351Y-67879354D01*
X93989180Y-67905107D01*
X93989955Y-67930043D01*
X93989676Y-67954157D01*
X93988343Y-67977446D01*
X93985955Y-67999905D01*
X93982513Y-68021531D01*
X93978017Y-68042320D01*
X93972467Y-68062267D01*
X93965863Y-68081370D01*
X93958205Y-68099624D01*
X93949492Y-68117026D01*
X93939725Y-68133571D01*
X93928904Y-68149255D01*
X93917029Y-68164075D01*
X93904223Y-68178027D01*
X93890607Y-68191107D01*
X93876177Y-68203311D01*
X93860929Y-68214635D01*
X93844860Y-68225075D01*
X93827965Y-68234628D01*
X93810240Y-68243290D01*
X93791683Y-68251056D01*
X93772288Y-68257924D01*
X93752052Y-68263888D01*
X93730971Y-68268945D01*
X93709041Y-68273091D01*
X93686259Y-68276323D01*
X93662620Y-68278636D01*
X93638121Y-68280027D01*
X93612758Y-68280491D01*
X93454008Y-68280491D01*
X93414320Y-67984158D01*
X93573069Y-67984158D01*
X93581829Y-67984003D01*
X93590247Y-67983538D01*
X93598326Y-67982763D01*
X93606065Y-67981678D01*
X93613465Y-67980282D01*
X93620526Y-67978577D01*
X93627249Y-67976562D01*
X93633634Y-67974236D01*
X93639682Y-67971601D01*
X93645394Y-67968655D01*
X93650769Y-67965400D01*
X93655809Y-67961834D01*
X93660513Y-67957958D01*
X93664882Y-67953773D01*
X93668918Y-67949277D01*
X93672619Y-67944471D01*
X93675987Y-67939355D01*
X93679022Y-67933929D01*
X93681725Y-67928193D01*
X93684096Y-67922147D01*
X93686136Y-67915791D01*
X93687845Y-67909125D01*
X93689223Y-67902148D01*
X93690272Y-67894862D01*
X93690991Y-67887265D01*
X93691381Y-67879359D01*
X93691443Y-67871142D01*
X93691176Y-67862616D01*
X93689662Y-67844632D01*
X93686841Y-67825408D01*
X93451362Y-66118846D01*
X93155028Y-66118846D01*
X93115341Y-65822513D01*
X93411674Y-65822513D01*
X93337592Y-65322451D01*
X93520154Y-65322451D01*
X93708008Y-65822513D01*
G37*
G36*
X91487244Y-66237422D02*
G01*
X91489472Y-66249856D01*
X91492188Y-66261979D01*
X91495389Y-66273792D01*
X91499070Y-66285296D01*
X91503228Y-66296489D01*
X91507859Y-66307372D01*
X91512959Y-66317945D01*
X91518524Y-66328208D01*
X91524550Y-66338161D01*
X91531033Y-66347804D01*
X91537970Y-66357136D01*
X91545357Y-66366159D01*
X91553189Y-66374872D01*
X91561464Y-66383274D01*
X91570176Y-66391367D01*
X91579137Y-66399056D01*
X91588164Y-66406249D01*
X91597261Y-66412947D01*
X91606432Y-66419148D01*
X91615680Y-66424853D01*
X91625009Y-66430062D01*
X91634424Y-66434775D01*
X91643928Y-66438992D01*
X91653525Y-66442713D01*
X91663219Y-66445937D01*
X91673013Y-66448666D01*
X91682912Y-66450898D01*
X91692920Y-66452634D01*
X91703040Y-66453875D01*
X91713277Y-66454619D01*
X91723634Y-66454867D01*
X91742154Y-66576575D01*
X91731489Y-66576451D01*
X91721319Y-66576079D01*
X91711645Y-66575459D01*
X91702468Y-66574591D01*
X91693786Y-66573475D01*
X91685601Y-66572111D01*
X91681694Y-66571336D01*
X91677911Y-66570499D01*
X91674253Y-66569600D01*
X91670718Y-66568638D01*
X91667276Y-66568082D01*
X91663892Y-66567413D01*
X91660562Y-66566644D01*
X91657282Y-66565785D01*
X91654049Y-66564849D01*
X91650859Y-66563848D01*
X91644590Y-66561693D01*
X91632394Y-66557104D01*
X91626404Y-66554856D01*
X91620446Y-66552763D01*
X91617471Y-66551739D01*
X91614503Y-66550654D01*
X91611551Y-66549507D01*
X91608622Y-66548298D01*
X91605724Y-66547026D01*
X91602865Y-66545693D01*
X91600053Y-66544298D01*
X91597294Y-66542841D01*
X91594598Y-66541322D01*
X91591972Y-66539740D01*
X91589423Y-66538097D01*
X91586959Y-66536392D01*
X91584589Y-66534624D01*
X91582319Y-66532795D01*
X91580158Y-66530904D01*
X91578112Y-66528950D01*
X91564883Y-66528950D01*
X91742152Y-67751325D01*
X91874444Y-67751325D01*
X91895612Y-67920658D01*
X91461697Y-67918011D01*
X91440530Y-67748679D01*
X91572821Y-67748679D01*
X91353217Y-66224679D01*
X91485509Y-66224679D01*
X91487244Y-66237422D01*
G37*
G36*
X95472531Y-65817655D02*
G01*
X95495600Y-65818958D01*
X95518172Y-65821128D01*
X95540248Y-65824167D01*
X95561828Y-65828073D01*
X95582912Y-65832848D01*
X95603500Y-65838491D01*
X95623592Y-65845002D01*
X95643187Y-65852382D01*
X95662287Y-65860629D01*
X95680890Y-65869745D01*
X95698998Y-65879729D01*
X95716609Y-65890581D01*
X95733725Y-65902301D01*
X95750344Y-65914890D01*
X95766467Y-65928346D01*
X95781970Y-65942610D01*
X95796734Y-65957626D01*
X95810761Y-65973401D01*
X95824055Y-65989944D01*
X95836621Y-66007262D01*
X95848462Y-66025363D01*
X95859582Y-66044255D01*
X95869985Y-66063945D01*
X95879675Y-66084441D01*
X95888656Y-66105751D01*
X95896931Y-66127883D01*
X95904505Y-66150844D01*
X95911381Y-66174643D01*
X95917564Y-66199286D01*
X95923056Y-66224782D01*
X95927863Y-66251138D01*
X96163341Y-67854514D01*
X96166815Y-67880434D01*
X96169300Y-67905606D01*
X96170801Y-67930026D01*
X96171321Y-67953691D01*
X96170864Y-67976595D01*
X96169435Y-67998737D01*
X96167036Y-68020111D01*
X96163673Y-68040714D01*
X96159348Y-68060541D01*
X96154066Y-68079590D01*
X96147830Y-68097855D01*
X96140645Y-68115334D01*
X96132515Y-68132023D01*
X96123442Y-68147916D01*
X96113432Y-68163012D01*
X96102487Y-68177305D01*
X96090238Y-68190761D01*
X96077295Y-68203350D01*
X96063647Y-68215070D01*
X96049281Y-68225922D01*
X96034187Y-68235906D01*
X96018353Y-68245022D01*
X96001767Y-68253269D01*
X95984417Y-68260649D01*
X95966292Y-68267160D01*
X95947380Y-68272803D01*
X95927670Y-68277578D01*
X95907150Y-68281484D01*
X95885809Y-68284523D01*
X95863634Y-68286693D01*
X95840614Y-68287996D01*
X95816737Y-68288430D01*
X95793173Y-68287965D01*
X95770104Y-68286575D01*
X95747532Y-68284261D01*
X95725456Y-68281030D01*
X95703876Y-68276883D01*
X95682792Y-68271826D01*
X95662204Y-68265862D01*
X95642112Y-68258995D01*
X95622516Y-68251228D01*
X95603416Y-68242567D01*
X95584813Y-68233014D01*
X95566706Y-68222573D01*
X95549094Y-68211249D01*
X95531979Y-68199045D01*
X95515360Y-68185966D01*
X95499237Y-68172014D01*
X95483764Y-68157194D01*
X95469089Y-68141509D01*
X95455205Y-68124964D01*
X95442104Y-68107563D01*
X95429778Y-68089309D01*
X95418219Y-68070206D01*
X95407420Y-68050258D01*
X95397373Y-68029469D01*
X95388070Y-68007843D01*
X95379503Y-67985384D01*
X95371665Y-67962095D01*
X95364548Y-67937981D01*
X95358144Y-67913045D01*
X95352445Y-67887292D01*
X95347444Y-67860724D01*
X95343133Y-67833347D01*
X95266403Y-67309473D01*
X95562736Y-67309473D01*
X95639466Y-67833347D01*
X95642289Y-67852571D01*
X95645801Y-67870554D01*
X95650012Y-67887297D01*
X95654927Y-67902800D01*
X95660556Y-67917063D01*
X95666906Y-67930085D01*
X95673984Y-67941867D01*
X95677799Y-67947293D01*
X95681799Y-67952409D01*
X95685985Y-67957215D01*
X95690358Y-67961711D01*
X95694919Y-67965897D01*
X95699669Y-67969773D01*
X95704608Y-67973338D01*
X95709739Y-67976594D01*
X95715061Y-67979539D01*
X95720577Y-67982175D01*
X95726286Y-67984500D01*
X95732190Y-67986516D01*
X95738289Y-67988221D01*
X95744586Y-67989616D01*
X95751080Y-67990701D01*
X95757772Y-67991476D01*
X95764664Y-67991941D01*
X95771757Y-67992096D01*
X95778819Y-67991941D01*
X95785617Y-67991476D01*
X95792151Y-67990701D01*
X95798422Y-67989616D01*
X95804430Y-67988221D01*
X95810173Y-67986515D01*
X95815654Y-67984500D01*
X95820871Y-67982175D01*
X95825824Y-67979539D01*
X95830513Y-67976594D01*
X95834940Y-67973338D01*
X95839102Y-67969772D01*
X95843001Y-67965897D01*
X95846637Y-67961711D01*
X95850008Y-67957215D01*
X95853117Y-67952409D01*
X95855962Y-67947293D01*
X95858543Y-67941867D01*
X95860860Y-67936131D01*
X95862915Y-67930085D01*
X95864705Y-67923729D01*
X95866232Y-67917062D01*
X95867496Y-67910086D01*
X95868496Y-67902800D01*
X95869232Y-67895203D01*
X95869705Y-67887297D01*
X95869914Y-67879080D01*
X95869860Y-67870554D01*
X95869542Y-67861717D01*
X95868961Y-67852570D01*
X95868116Y-67843114D01*
X95867007Y-67833347D01*
X95758529Y-67081931D01*
X95232007Y-67081931D01*
X95173798Y-66690347D01*
X95174834Y-66690310D01*
X95105007Y-66229971D01*
X95101465Y-66207720D01*
X95393342Y-66207720D01*
X95393691Y-66215254D01*
X95394397Y-66223099D01*
X95395464Y-66231253D01*
X95396895Y-66239718D01*
X95398694Y-66248493D01*
X95467207Y-66679867D01*
X95470132Y-66679763D01*
X95486007Y-66782951D01*
X95713549Y-66782951D01*
X95626236Y-66248493D01*
X95622453Y-66232153D01*
X95618045Y-66216867D01*
X95613010Y-66202635D01*
X95607343Y-66189458D01*
X95601040Y-66177334D01*
X95597650Y-66171668D01*
X95594098Y-66166265D01*
X95590386Y-66161126D01*
X95586513Y-66156250D01*
X95582478Y-66151638D01*
X95578280Y-66147290D01*
X95573920Y-66143205D01*
X95569396Y-66139383D01*
X95564709Y-66135825D01*
X95559857Y-66132531D01*
X95554841Y-66129500D01*
X95549660Y-66126733D01*
X95544312Y-66124229D01*
X95538799Y-66121989D01*
X95533119Y-66120012D01*
X95527272Y-66118299D01*
X95521257Y-66116850D01*
X95515074Y-66115664D01*
X95508723Y-66114741D01*
X95502202Y-66114083D01*
X95495512Y-66113687D01*
X95488652Y-66113555D01*
X95482326Y-66113679D01*
X95476239Y-66114052D01*
X95470386Y-66114672D01*
X95464757Y-66115540D01*
X95459345Y-66116656D01*
X95454142Y-66118020D01*
X95449141Y-66119633D01*
X95444334Y-66121493D01*
X95439713Y-66123602D01*
X95435270Y-66125958D01*
X95430998Y-66128562D01*
X95426888Y-66131415D01*
X95422934Y-66134515D01*
X95419127Y-66137864D01*
X95415459Y-66141461D01*
X95411923Y-66145305D01*
X95408606Y-66149429D01*
X95405603Y-66153863D01*
X95402918Y-66158607D01*
X95400554Y-66163661D01*
X95398516Y-66169025D01*
X95396807Y-66174699D01*
X95395432Y-66180683D01*
X95394394Y-66186977D01*
X95393697Y-66193581D01*
X95393345Y-66200495D01*
X95393342Y-66207720D01*
X95101465Y-66207720D01*
X95101039Y-66205044D01*
X95098067Y-66180864D01*
X95096095Y-66157436D01*
X95095127Y-66134763D01*
X95095166Y-66112851D01*
X95096217Y-66091701D01*
X95098283Y-66071320D01*
X95101369Y-66051709D01*
X95105478Y-66032874D01*
X95110614Y-66014817D01*
X95116781Y-65997544D01*
X95123983Y-65981057D01*
X95132224Y-65965361D01*
X95141507Y-65950459D01*
X95151836Y-65936356D01*
X95163216Y-65923055D01*
X95175466Y-65910094D01*
X95188409Y-65897997D01*
X95202057Y-65886761D01*
X95216423Y-65876381D01*
X95231517Y-65866854D01*
X95247351Y-65858175D01*
X95263937Y-65850342D01*
X95281287Y-65843349D01*
X95299412Y-65837194D01*
X95318323Y-65831872D01*
X95338033Y-65827379D01*
X95358554Y-65823712D01*
X95379895Y-65820866D01*
X95402070Y-65818839D01*
X95425090Y-65817625D01*
X95448967Y-65817221D01*
X95472531Y-65817655D01*
G37*
G36*
X94641987Y-65822513D02*
G01*
X94824549Y-65822513D01*
X94864237Y-66118846D01*
X94676383Y-66118846D01*
X94914508Y-67825408D01*
X94918446Y-67852786D01*
X94921329Y-67879354D01*
X94923159Y-67905107D01*
X94923934Y-67930043D01*
X94923655Y-67954157D01*
X94922321Y-67977446D01*
X94919934Y-67999905D01*
X94916492Y-68021531D01*
X94911996Y-68042320D01*
X94906446Y-68062267D01*
X94899842Y-68081370D01*
X94892183Y-68099624D01*
X94883471Y-68117026D01*
X94873704Y-68133571D01*
X94862883Y-68149255D01*
X94851007Y-68164075D01*
X94838201Y-68178027D01*
X94824585Y-68191107D01*
X94810155Y-68203311D01*
X94794907Y-68214635D01*
X94778838Y-68225075D01*
X94761943Y-68234628D01*
X94744218Y-68243290D01*
X94725661Y-68251056D01*
X94706266Y-68257924D01*
X94686030Y-68263888D01*
X94664949Y-68268945D01*
X94643020Y-68273091D01*
X94620238Y-68276323D01*
X94596599Y-68278636D01*
X94572100Y-68280027D01*
X94546737Y-68280491D01*
X94387987Y-68280491D01*
X94348299Y-67984158D01*
X94507048Y-67984158D01*
X94515808Y-67984003D01*
X94524226Y-67983538D01*
X94532305Y-67982763D01*
X94540044Y-67981678D01*
X94547444Y-67980282D01*
X94554505Y-67978577D01*
X94561228Y-67976562D01*
X94567613Y-67974236D01*
X94573661Y-67971601D01*
X94579373Y-67968655D01*
X94584748Y-67965400D01*
X94589788Y-67961834D01*
X94594492Y-67957958D01*
X94598861Y-67953773D01*
X94602897Y-67949277D01*
X94606598Y-67944471D01*
X94609966Y-67939355D01*
X94613001Y-67933929D01*
X94615704Y-67928193D01*
X94618075Y-67922147D01*
X94620115Y-67915791D01*
X94621824Y-67909125D01*
X94623202Y-67902148D01*
X94624251Y-67894862D01*
X94624970Y-67887265D01*
X94625360Y-67879359D01*
X94625421Y-67871142D01*
X94625155Y-67862616D01*
X94623640Y-67844632D01*
X94620819Y-67825408D01*
X94385341Y-66118846D01*
X94089008Y-66118846D01*
X94049320Y-65822513D01*
X94345653Y-65822513D01*
X94271570Y-65322451D01*
X94454133Y-65322451D01*
X94641987Y-65822513D01*
G37*
D11*
X164592000Y-110429800D02*
G75*
G03X164592000Y-110429800I-1000000J0D01*
G01*
X164592000Y-70993000D02*
G75*
G03X164592000Y-70993000I-1000000J0D01*
G01*
X104073200Y-110429800D02*
G75*
G03X104073200Y-110429800I-1000000J0D01*
G01*
X104073200Y-70993000D02*
G75*
G03X104073200Y-70993000I-1000000J0D01*
G01*
M02*
