G04 #@! TF.GenerationSoftware,KiCad,Pcbnew,(5.1.4-0-10_14)*
G04 #@! TF.CreationDate,2019-11-24T20:30:42+09:00*
G04 #@! TF.ProjectId,palette1202-COM_front,70616c65-7474-4653-9132-30322d434f4d,rev?*
G04 #@! TF.SameCoordinates,Original*
G04 #@! TF.FileFunction,Soldermask,Bot*
G04 #@! TF.FilePolarity,Negative*
%FSLAX46Y46*%
G04 Gerber Fmt 4.6, Leading zero omitted, Abs format (unit mm)*
G04 Created by KiCad (PCBNEW (5.1.4-0-10_14)) date 2019-11-24 20:30:42*
%MOMM*%
%LPD*%
G04 APERTURE LIST*
%ADD10C,0.100000*%
G04 APERTURE END LIST*
D10*
G36*
X162806795Y-110349956D02*
G01*
X162913150Y-110371111D01*
X163113520Y-110454107D01*
X163293844Y-110574595D01*
X163447205Y-110727956D01*
X163567693Y-110908280D01*
X163650689Y-111108651D01*
X163693000Y-111321360D01*
X163693000Y-111538240D01*
X163650689Y-111750949D01*
X163567693Y-111951320D01*
X163447205Y-112131644D01*
X163293844Y-112285005D01*
X163113520Y-112405493D01*
X163013334Y-112446991D01*
X162913150Y-112488489D01*
X162806794Y-112509645D01*
X162700440Y-112530800D01*
X162483560Y-112530800D01*
X162377206Y-112509645D01*
X162270850Y-112488489D01*
X162170666Y-112446991D01*
X162070480Y-112405493D01*
X161890156Y-112285005D01*
X161736795Y-112131644D01*
X161616307Y-111951320D01*
X161533311Y-111750949D01*
X161491000Y-111538240D01*
X161491000Y-111321360D01*
X161533311Y-111108651D01*
X161616307Y-110908280D01*
X161736795Y-110727956D01*
X161890156Y-110574595D01*
X162070480Y-110454107D01*
X162270850Y-110371111D01*
X162377205Y-110349956D01*
X162483560Y-110328800D01*
X162700440Y-110328800D01*
X162806795Y-110349956D01*
X162806795Y-110349956D01*
G37*
G36*
X103287995Y-110349956D02*
G01*
X103394350Y-110371111D01*
X103594720Y-110454107D01*
X103775044Y-110574595D01*
X103928405Y-110727956D01*
X104048893Y-110908280D01*
X104131889Y-111108651D01*
X104174200Y-111321360D01*
X104174200Y-111538240D01*
X104131889Y-111750949D01*
X104048893Y-111951320D01*
X103928405Y-112131644D01*
X103775044Y-112285005D01*
X103594720Y-112405493D01*
X103494534Y-112446991D01*
X103394350Y-112488489D01*
X103287994Y-112509645D01*
X103181640Y-112530800D01*
X102964760Y-112530800D01*
X102858406Y-112509645D01*
X102752050Y-112488489D01*
X102651866Y-112446991D01*
X102551680Y-112405493D01*
X102371356Y-112285005D01*
X102217995Y-112131644D01*
X102097507Y-111951320D01*
X102014511Y-111750949D01*
X101972200Y-111538240D01*
X101972200Y-111321360D01*
X102014511Y-111108651D01*
X102097507Y-110908280D01*
X102217995Y-110727956D01*
X102371356Y-110574595D01*
X102551680Y-110454107D01*
X102752050Y-110371111D01*
X102858405Y-110349956D01*
X102964760Y-110328800D01*
X103181640Y-110328800D01*
X103287995Y-110349956D01*
X103287995Y-110349956D01*
G37*
G36*
X162806795Y-69913156D02*
G01*
X162913150Y-69934311D01*
X163013334Y-69975809D01*
X163113520Y-70017307D01*
X163293844Y-70137795D01*
X163447205Y-70291156D01*
X163567693Y-70471480D01*
X163650689Y-70671851D01*
X163693000Y-70884560D01*
X163693000Y-71101440D01*
X163650689Y-71314149D01*
X163567693Y-71514520D01*
X163447205Y-71694844D01*
X163293844Y-71848205D01*
X163113520Y-71968693D01*
X162913150Y-72051689D01*
X162806794Y-72072845D01*
X162700440Y-72094000D01*
X162483560Y-72094000D01*
X162377206Y-72072845D01*
X162270850Y-72051689D01*
X162070480Y-71968693D01*
X161890156Y-71848205D01*
X161736795Y-71694844D01*
X161616307Y-71514520D01*
X161533311Y-71314149D01*
X161491000Y-71101440D01*
X161491000Y-70884560D01*
X161533311Y-70671851D01*
X161616307Y-70471480D01*
X161736795Y-70291156D01*
X161890156Y-70137795D01*
X162070480Y-70017307D01*
X162170666Y-69975809D01*
X162270850Y-69934311D01*
X162377205Y-69913156D01*
X162483560Y-69892000D01*
X162700440Y-69892000D01*
X162806795Y-69913156D01*
X162806795Y-69913156D01*
G37*
G36*
X103287995Y-69913156D02*
G01*
X103394350Y-69934311D01*
X103494534Y-69975809D01*
X103594720Y-70017307D01*
X103775044Y-70137795D01*
X103928405Y-70291156D01*
X104048893Y-70471480D01*
X104131889Y-70671851D01*
X104174200Y-70884560D01*
X104174200Y-71101440D01*
X104131889Y-71314149D01*
X104048893Y-71514520D01*
X103928405Y-71694844D01*
X103775044Y-71848205D01*
X103594720Y-71968693D01*
X103394350Y-72051689D01*
X103287994Y-72072845D01*
X103181640Y-72094000D01*
X102964760Y-72094000D01*
X102858406Y-72072845D01*
X102752050Y-72051689D01*
X102551680Y-71968693D01*
X102371356Y-71848205D01*
X102217995Y-71694844D01*
X102097507Y-71514520D01*
X102014511Y-71314149D01*
X101972200Y-71101440D01*
X101972200Y-70884560D01*
X102014511Y-70671851D01*
X102097507Y-70471480D01*
X102217995Y-70291156D01*
X102371356Y-70137795D01*
X102551680Y-70017307D01*
X102651866Y-69975809D01*
X102752050Y-69934311D01*
X102858405Y-69913156D01*
X102964760Y-69892000D01*
X103181640Y-69892000D01*
X103287995Y-69913156D01*
X103287995Y-69913156D01*
G37*
M02*
