G04 #@! TF.GenerationSoftware,KiCad,Pcbnew,(5.1.4-0-10_14)*
G04 #@! TF.CreationDate,2020-03-30T03:02:05+09:00*
G04 #@! TF.ProjectId,palette1202-front,70616c65-7474-4653-9132-30322d66726f,rev?*
G04 #@! TF.SameCoordinates,Original*
G04 #@! TF.FileFunction,Legend,Top*
G04 #@! TF.FilePolarity,Positive*
%FSLAX46Y46*%
G04 Gerber Fmt 4.6, Leading zero omitted, Abs format (unit mm)*
G04 Created by KiCad (PCBNEW (5.1.4-0-10_14)) date 2020-03-30 03:02:05*
%MOMM*%
%LPD*%
G04 APERTURE LIST*
%ADD10C,0.100000*%
%ADD11C,0.400000*%
G04 APERTURE END LIST*
D10*
G36*
X101458777Y-65817625D02*
G01*
X101481797Y-65818839D01*
X101503972Y-65820866D01*
X101525314Y-65823712D01*
X101545834Y-65827379D01*
X101565544Y-65831872D01*
X101584456Y-65837194D01*
X101602581Y-65843349D01*
X101619930Y-65850342D01*
X101636516Y-65858175D01*
X101652351Y-65866854D01*
X101667445Y-65876381D01*
X101681810Y-65886761D01*
X101695458Y-65897997D01*
X101708401Y-65910094D01*
X101720650Y-65923055D01*
X101732030Y-65936356D01*
X101742360Y-65950459D01*
X101751643Y-65965361D01*
X101759884Y-65981057D01*
X101767086Y-65997544D01*
X101773253Y-66014817D01*
X101778389Y-66032874D01*
X101782497Y-66051709D01*
X101785583Y-66071320D01*
X101787650Y-66091701D01*
X101788700Y-66112851D01*
X101788740Y-66134763D01*
X101787771Y-66157436D01*
X101785799Y-66180864D01*
X101782827Y-66205044D01*
X101778859Y-66229971D01*
X101707421Y-66700930D01*
X101705850Y-66700916D01*
X101649212Y-67081931D01*
X101125338Y-67081931D01*
X101016859Y-67833347D01*
X101015750Y-67843114D01*
X101014905Y-67852570D01*
X101014324Y-67861717D01*
X101014006Y-67870554D01*
X101013952Y-67879080D01*
X101014161Y-67887297D01*
X101014634Y-67895203D01*
X101015371Y-67902800D01*
X101016371Y-67910086D01*
X101017634Y-67917062D01*
X101019161Y-67923729D01*
X101020952Y-67930085D01*
X101023006Y-67936131D01*
X101025324Y-67941867D01*
X101027905Y-67947293D01*
X101030750Y-67952409D01*
X101033858Y-67957215D01*
X101037230Y-67961711D01*
X101040865Y-67965897D01*
X101044764Y-67969772D01*
X101048927Y-67973338D01*
X101053353Y-67976594D01*
X101058043Y-67979539D01*
X101062996Y-67982175D01*
X101068212Y-67984500D01*
X101073693Y-67986515D01*
X101079437Y-67988221D01*
X101085444Y-67989616D01*
X101091715Y-67990701D01*
X101098249Y-67991476D01*
X101105047Y-67991941D01*
X101112109Y-67992096D01*
X101119202Y-67991941D01*
X101126094Y-67991476D01*
X101132787Y-67990701D01*
X101139281Y-67989616D01*
X101145577Y-67988221D01*
X101151677Y-67986516D01*
X101157581Y-67984500D01*
X101163290Y-67982175D01*
X101168805Y-67979539D01*
X101174128Y-67976594D01*
X101179258Y-67973338D01*
X101184198Y-67969773D01*
X101188948Y-67965897D01*
X101193509Y-67961711D01*
X101197882Y-67957215D01*
X101202068Y-67952409D01*
X101206068Y-67947293D01*
X101209882Y-67941867D01*
X101216961Y-67930085D01*
X101223310Y-67917063D01*
X101228939Y-67902800D01*
X101233855Y-67887297D01*
X101238065Y-67870554D01*
X101241578Y-67852571D01*
X101244401Y-67833347D01*
X101321129Y-67309473D01*
X101617463Y-67309473D01*
X101540734Y-67833347D01*
X101536423Y-67860724D01*
X101531421Y-67887292D01*
X101525723Y-67913045D01*
X101519319Y-67937981D01*
X101512201Y-67962095D01*
X101504363Y-67985384D01*
X101495797Y-68007843D01*
X101486494Y-68029469D01*
X101476446Y-68050258D01*
X101465647Y-68070206D01*
X101454089Y-68089309D01*
X101441763Y-68107563D01*
X101428661Y-68124964D01*
X101414777Y-68141509D01*
X101400102Y-68157194D01*
X101384629Y-68172014D01*
X101368506Y-68185966D01*
X101351887Y-68199045D01*
X101334772Y-68211249D01*
X101317161Y-68222573D01*
X101299053Y-68233014D01*
X101280450Y-68242567D01*
X101261350Y-68251228D01*
X101241754Y-68258995D01*
X101221663Y-68265862D01*
X101201075Y-68271826D01*
X101179991Y-68276883D01*
X101158411Y-68281030D01*
X101136334Y-68284261D01*
X101113762Y-68286575D01*
X101090694Y-68287965D01*
X101067130Y-68288430D01*
X101043253Y-68287996D01*
X101020233Y-68286693D01*
X100998058Y-68284523D01*
X100976716Y-68281484D01*
X100956196Y-68277578D01*
X100936486Y-68272803D01*
X100917575Y-68267160D01*
X100899450Y-68260649D01*
X100882100Y-68253269D01*
X100865514Y-68245022D01*
X100849680Y-68235906D01*
X100834586Y-68225922D01*
X100820220Y-68215070D01*
X100806572Y-68203350D01*
X100793629Y-68190761D01*
X100781379Y-68177305D01*
X100770435Y-68163012D01*
X100760425Y-68147916D01*
X100751352Y-68132023D01*
X100743221Y-68115334D01*
X100736036Y-68097855D01*
X100729801Y-68079590D01*
X100724519Y-68060541D01*
X100720194Y-68040714D01*
X100716831Y-68020111D01*
X100714432Y-67998737D01*
X100713003Y-67976595D01*
X100712546Y-67953691D01*
X100713066Y-67930026D01*
X100714567Y-67905606D01*
X100717052Y-67880434D01*
X100720525Y-67854514D01*
X100877899Y-66782951D01*
X101167672Y-66782951D01*
X101395213Y-66782951D01*
X101411090Y-66679763D01*
X101414015Y-66679867D01*
X101482525Y-66248493D01*
X101484325Y-66239718D01*
X101485755Y-66231253D01*
X101486822Y-66223099D01*
X101487528Y-66215254D01*
X101487878Y-66207720D01*
X101487875Y-66200495D01*
X101487523Y-66193581D01*
X101486826Y-66186977D01*
X101485788Y-66180683D01*
X101484413Y-66174699D01*
X101482704Y-66169025D01*
X101480666Y-66163661D01*
X101478303Y-66158607D01*
X101475618Y-66153863D01*
X101472615Y-66149429D01*
X101469298Y-66145305D01*
X101465762Y-66141461D01*
X101462094Y-66137864D01*
X101458286Y-66134515D01*
X101454332Y-66131415D01*
X101450222Y-66128562D01*
X101445950Y-66125958D01*
X101441507Y-66123602D01*
X101436886Y-66121493D01*
X101432078Y-66119633D01*
X101427077Y-66118020D01*
X101421875Y-66116656D01*
X101416463Y-66115540D01*
X101410834Y-66114672D01*
X101404980Y-66114052D01*
X101398894Y-66113679D01*
X101392567Y-66113555D01*
X101385707Y-66113687D01*
X101379017Y-66114083D01*
X101372497Y-66114741D01*
X101366146Y-66115664D01*
X101359963Y-66116850D01*
X101353948Y-66118299D01*
X101348101Y-66120012D01*
X101342421Y-66121989D01*
X101336908Y-66124229D01*
X101331561Y-66126733D01*
X101326379Y-66129500D01*
X101321363Y-66132531D01*
X101316512Y-66135825D01*
X101311824Y-66139383D01*
X101307301Y-66143205D01*
X101302940Y-66147290D01*
X101298743Y-66151638D01*
X101294708Y-66156250D01*
X101290834Y-66161126D01*
X101287122Y-66166265D01*
X101283571Y-66171668D01*
X101280180Y-66177334D01*
X101273877Y-66189458D01*
X101268210Y-66202635D01*
X101263175Y-66216867D01*
X101258768Y-66232153D01*
X101254984Y-66248493D01*
X101167672Y-66782951D01*
X100877899Y-66782951D01*
X100956004Y-66251138D01*
X100960810Y-66224782D01*
X100966303Y-66199286D01*
X100972486Y-66174643D01*
X100979362Y-66150844D01*
X100986936Y-66127883D01*
X100995211Y-66105751D01*
X101004192Y-66084441D01*
X101013882Y-66063945D01*
X101024285Y-66044255D01*
X101035405Y-66025363D01*
X101047246Y-66007262D01*
X101059812Y-65989944D01*
X101073106Y-65973401D01*
X101087133Y-65957626D01*
X101101896Y-65942610D01*
X101117400Y-65928346D01*
X101133523Y-65914890D01*
X101150142Y-65902301D01*
X101167257Y-65890581D01*
X101184869Y-65879729D01*
X101202976Y-65869745D01*
X101221580Y-65860629D01*
X101240679Y-65852382D01*
X101260275Y-65845002D01*
X101280367Y-65838491D01*
X101300955Y-65832848D01*
X101322039Y-65828073D01*
X101343619Y-65824167D01*
X101365695Y-65821128D01*
X101388268Y-65818958D01*
X101411336Y-65817655D01*
X101434901Y-65817221D01*
X101458777Y-65817625D01*
G37*
G36*
X102497664Y-58965727D02*
G01*
X102648244Y-58977182D01*
X102796624Y-58996046D01*
X102942618Y-59022132D01*
X103086041Y-59055252D01*
X103226706Y-59095219D01*
X103364429Y-59141847D01*
X103499023Y-59194948D01*
X103630304Y-59254336D01*
X103758086Y-59319823D01*
X103882182Y-59391223D01*
X104002409Y-59468347D01*
X104118579Y-59551011D01*
X104230508Y-59639026D01*
X104338010Y-59732205D01*
X104440899Y-59830362D01*
X104538990Y-59933309D01*
X104632097Y-60040859D01*
X104720035Y-60152826D01*
X104802618Y-60269022D01*
X104879661Y-60389261D01*
X104950978Y-60513355D01*
X105016384Y-60641117D01*
X105075692Y-60772361D01*
X105128718Y-60906899D01*
X105175276Y-61044544D01*
X105215180Y-61185110D01*
X105248245Y-61328410D01*
X105274285Y-61474255D01*
X105293115Y-61622460D01*
X105304549Y-61772837D01*
X105308402Y-61925200D01*
X105304542Y-62077795D01*
X105293086Y-62228376D01*
X105274222Y-62376756D01*
X105248137Y-62522750D01*
X105215017Y-62666173D01*
X105175049Y-62806838D01*
X105128421Y-62944561D01*
X105075320Y-63079155D01*
X105015933Y-63210436D01*
X104950445Y-63338218D01*
X104879046Y-63462314D01*
X104801921Y-63582541D01*
X104719257Y-63698711D01*
X104631243Y-63810640D01*
X104538063Y-63918141D01*
X104439907Y-64021031D01*
X104336960Y-64119122D01*
X104229409Y-64212229D01*
X104117442Y-64300167D01*
X104001246Y-64382750D01*
X103881007Y-64459793D01*
X103756913Y-64531110D01*
X103629151Y-64596515D01*
X103497907Y-64655824D01*
X103363369Y-64708850D01*
X103225724Y-64755408D01*
X103085158Y-64795312D01*
X102941859Y-64828377D01*
X102796013Y-64854417D01*
X102647808Y-64873247D01*
X102497431Y-64884681D01*
X102345069Y-64888533D01*
X102345069Y-64253533D01*
X102464649Y-64250496D01*
X102582687Y-64241483D01*
X102699033Y-64226641D01*
X102813541Y-64206120D01*
X102926063Y-64180066D01*
X103036451Y-64148627D01*
X103144557Y-64111950D01*
X103250233Y-64070185D01*
X103353332Y-64023478D01*
X103453706Y-63971977D01*
X103551207Y-63915830D01*
X103645688Y-63855185D01*
X103737000Y-63790190D01*
X103824995Y-63720991D01*
X103909527Y-63647738D01*
X103990447Y-63570577D01*
X104067608Y-63489657D01*
X104140861Y-63405126D01*
X104210060Y-63317130D01*
X104275055Y-63225818D01*
X104335700Y-63131338D01*
X104391847Y-63033837D01*
X104443348Y-62933463D01*
X104490055Y-62830364D01*
X104531821Y-62724688D01*
X104568497Y-62616582D01*
X104599936Y-62506194D01*
X104625990Y-62393673D01*
X104646512Y-62279165D01*
X104661353Y-62162818D01*
X104670366Y-62044780D01*
X104673403Y-61925200D01*
X104670366Y-61805620D01*
X104661353Y-61687582D01*
X104646512Y-61571236D01*
X104625990Y-61456727D01*
X104599936Y-61344206D01*
X104568497Y-61233818D01*
X104531821Y-61125712D01*
X104490055Y-61020036D01*
X104443348Y-60916937D01*
X104391847Y-60816563D01*
X104335700Y-60719062D01*
X104275055Y-60624582D01*
X104210059Y-60533270D01*
X104140861Y-60445275D01*
X104067607Y-60360743D01*
X103990446Y-60279823D01*
X103909526Y-60202662D01*
X103824994Y-60129409D01*
X103736999Y-60060210D01*
X103645687Y-59995215D01*
X103551206Y-59934570D01*
X103453705Y-59878423D01*
X103353332Y-59826922D01*
X103250233Y-59780215D01*
X103144556Y-59738450D01*
X103036450Y-59701773D01*
X102926063Y-59670334D01*
X102813541Y-59644280D01*
X102699033Y-59623759D01*
X102582686Y-59608917D01*
X102464649Y-59599904D01*
X102345069Y-59596867D01*
X102225488Y-59599904D01*
X102107451Y-59608917D01*
X101991104Y-59623759D01*
X101876596Y-59644280D01*
X101764074Y-59670334D01*
X101653686Y-59701773D01*
X101545581Y-59738450D01*
X101439904Y-59780215D01*
X101336805Y-59826922D01*
X101236432Y-59878423D01*
X101138931Y-59934570D01*
X101044451Y-59995215D01*
X100953139Y-60060210D01*
X100865143Y-60129409D01*
X100780611Y-60202662D01*
X100699691Y-60279823D01*
X100622531Y-60360743D01*
X100549277Y-60445274D01*
X100480079Y-60533270D01*
X100415083Y-60624582D01*
X100354438Y-60719062D01*
X100298291Y-60816563D01*
X100246791Y-60916937D01*
X100200084Y-61020036D01*
X100158318Y-61125712D01*
X100121642Y-61233818D01*
X100090203Y-61344205D01*
X100064149Y-61456727D01*
X100043627Y-61571235D01*
X100028786Y-61687582D01*
X100019773Y-61805620D01*
X100016736Y-61925200D01*
X99381735Y-61925200D01*
X99385595Y-61772605D01*
X99397051Y-61622024D01*
X99415915Y-61473644D01*
X99442000Y-61327650D01*
X99475120Y-61184227D01*
X99515088Y-61043562D01*
X99561716Y-60905839D01*
X99614817Y-60771245D01*
X99674204Y-60639964D01*
X99739692Y-60512182D01*
X99811091Y-60388086D01*
X99888216Y-60267859D01*
X99970879Y-60151689D01*
X100058894Y-60039760D01*
X100152073Y-59932259D01*
X100250230Y-59829369D01*
X100353177Y-59731278D01*
X100460728Y-59638171D01*
X100572694Y-59550233D01*
X100688891Y-59467650D01*
X100809129Y-59390607D01*
X100933223Y-59319290D01*
X101060986Y-59253885D01*
X101192229Y-59194576D01*
X101326767Y-59141550D01*
X101464413Y-59094992D01*
X101604979Y-59055088D01*
X101748278Y-59022023D01*
X101894124Y-58995983D01*
X102042329Y-58977153D01*
X102192706Y-58965719D01*
X102345069Y-58961867D01*
X102497664Y-58965727D01*
G37*
G36*
X94000110Y-64483721D02*
G01*
X94000110Y-68293721D01*
X89102672Y-68293721D01*
X89076540Y-68293059D01*
X89050749Y-68291097D01*
X89025333Y-68287865D01*
X89000322Y-68283396D01*
X88975750Y-68277721D01*
X88951647Y-68270873D01*
X88928046Y-68262884D01*
X88904979Y-68253785D01*
X88882478Y-68243609D01*
X88860575Y-68232387D01*
X88839301Y-68220152D01*
X88818690Y-68206936D01*
X88798772Y-68192769D01*
X88779580Y-68177685D01*
X88761145Y-68161716D01*
X88743501Y-68144893D01*
X88726678Y-68127248D01*
X88710708Y-68108814D01*
X88695624Y-68089622D01*
X88681458Y-68069704D01*
X88668241Y-68049092D01*
X88656006Y-68027819D01*
X88644784Y-68005916D01*
X88634608Y-67983415D01*
X88625509Y-67960348D01*
X88617520Y-67936747D01*
X88610672Y-67912644D01*
X88604997Y-67888072D01*
X88600528Y-67863061D01*
X88597296Y-67837645D01*
X88595334Y-67811854D01*
X88594673Y-67785721D01*
X88594673Y-63623826D01*
X89229673Y-63623826D01*
X89229673Y-67431180D01*
X89229965Y-67442773D01*
X89230833Y-67454228D01*
X89232262Y-67465529D01*
X89234241Y-67476660D01*
X89236754Y-67487607D01*
X89239788Y-67498356D01*
X89243330Y-67508890D01*
X89247367Y-67519195D01*
X89251883Y-67529256D01*
X89256867Y-67539057D01*
X89262305Y-67548585D01*
X89268182Y-67557823D01*
X89274485Y-67566757D01*
X89281202Y-67575372D01*
X89288317Y-67583652D01*
X89295819Y-67591583D01*
X89303692Y-67599150D01*
X89311924Y-67606338D01*
X89320500Y-67613131D01*
X89329408Y-67619515D01*
X89338634Y-67625474D01*
X89348164Y-67630994D01*
X89357985Y-67636059D01*
X89368083Y-67640655D01*
X89378444Y-67644767D01*
X89389056Y-67648379D01*
X89399904Y-67651477D01*
X89410974Y-67654045D01*
X89422254Y-67656068D01*
X89433730Y-67657532D01*
X89445388Y-67658422D01*
X89457214Y-67658721D01*
X93367756Y-67658721D01*
X93367756Y-63623826D01*
X89229673Y-63623826D01*
X88594673Y-63623826D01*
X88594673Y-62988825D01*
X93365110Y-62988825D01*
X93365110Y-59845575D01*
X93997464Y-59845575D01*
X93997464Y-63843429D01*
X98135547Y-63843429D01*
X98135547Y-59845575D01*
X93997464Y-59845575D01*
X93365110Y-59845575D01*
X93365110Y-59213222D01*
X98770547Y-59213222D01*
X98770547Y-64483721D01*
X94000110Y-64483721D01*
G37*
G36*
X104818923Y-66015659D02*
G01*
X102249817Y-66015659D01*
X102273631Y-65846325D01*
X104840088Y-65846325D01*
X104818923Y-66015659D01*
G37*
G36*
X104496131Y-68296367D02*
G01*
X101927025Y-68296367D01*
X101950839Y-68129679D01*
X104517296Y-68129679D01*
X104496131Y-68296367D01*
G37*
G36*
X104547837Y-66230250D02*
G01*
X104562069Y-66231092D01*
X104575867Y-66232499D01*
X104589230Y-66234477D01*
X104602160Y-66237028D01*
X104614655Y-66240156D01*
X104626716Y-66243866D01*
X104638343Y-66248161D01*
X104649537Y-66253045D01*
X104660296Y-66258522D01*
X104670621Y-66264596D01*
X104680511Y-66271271D01*
X104689968Y-66278550D01*
X104698991Y-66286438D01*
X104707580Y-66294938D01*
X104715735Y-66304054D01*
X104723332Y-66313666D01*
X104730250Y-66323655D01*
X104736495Y-66334023D01*
X104742068Y-66344775D01*
X104746976Y-66355915D01*
X104751220Y-66367446D01*
X104754806Y-66379372D01*
X104757736Y-66391697D01*
X104760016Y-66404426D01*
X104761648Y-66417561D01*
X104762637Y-66431108D01*
X104762986Y-66445069D01*
X104762700Y-66459449D01*
X104761782Y-66474251D01*
X104760237Y-66489479D01*
X104758067Y-66505138D01*
X104751860Y-66541348D01*
X104745127Y-66576534D01*
X104737836Y-66610666D01*
X104729955Y-66643713D01*
X104721455Y-66675644D01*
X104712303Y-66706428D01*
X104702469Y-66736033D01*
X104691922Y-66764430D01*
X104680878Y-66792831D01*
X104669556Y-66820488D01*
X104657923Y-66847401D01*
X104645950Y-66873570D01*
X104633604Y-66898994D01*
X104620855Y-66923675D01*
X104607673Y-66947611D01*
X104594025Y-66970804D01*
X104580129Y-66994373D01*
X104566202Y-67017478D01*
X104552213Y-67040148D01*
X104538132Y-67062416D01*
X104523926Y-67084311D01*
X104509565Y-67105865D01*
X104495018Y-67127109D01*
X104480254Y-67148075D01*
X104465490Y-67169034D01*
X104450943Y-67190242D01*
X104436582Y-67211698D01*
X104422376Y-67233402D01*
X104394305Y-67277555D01*
X104366482Y-67322699D01*
X104340810Y-67368918D01*
X104328206Y-67392555D01*
X104315881Y-67416626D01*
X104303928Y-67441193D01*
X104292441Y-67466319D01*
X104281511Y-67492064D01*
X104271233Y-67518491D01*
X104260691Y-67545658D01*
X104250893Y-67573599D01*
X104241839Y-67602347D01*
X104233530Y-67631931D01*
X104225964Y-67662384D01*
X104219143Y-67693736D01*
X104213066Y-67726018D01*
X104207734Y-67759262D01*
X104570214Y-67759262D01*
X104549046Y-67928595D01*
X104017233Y-67925950D01*
X104038399Y-67759262D01*
X104044606Y-67722179D01*
X104051339Y-67686336D01*
X104058631Y-67651734D01*
X104066512Y-67618371D01*
X104075013Y-67586249D01*
X104084165Y-67555367D01*
X104093999Y-67525726D01*
X104104546Y-67497325D01*
X104115589Y-67469791D01*
X104126912Y-67442754D01*
X104138544Y-67416213D01*
X104150518Y-67390168D01*
X104162863Y-67364619D01*
X104175612Y-67339566D01*
X104188795Y-67315010D01*
X104202443Y-67290949D01*
X104216338Y-67267380D01*
X104230265Y-67244275D01*
X104244254Y-67221605D01*
X104258336Y-67199338D01*
X104272542Y-67177442D01*
X104286903Y-67155888D01*
X104301450Y-67134644D01*
X104316214Y-67113679D01*
X104330978Y-67092719D01*
X104345524Y-67071511D01*
X104359885Y-67050055D01*
X104374091Y-67028351D01*
X104402162Y-66984198D01*
X104429984Y-66939054D01*
X104455656Y-66892876D01*
X104468260Y-66869337D01*
X104480585Y-66845458D01*
X104492538Y-66821206D01*
X104504026Y-66796551D01*
X104514956Y-66771462D01*
X104525235Y-66745908D01*
X104535777Y-66719502D01*
X104545575Y-66691917D01*
X104554629Y-66663216D01*
X104562938Y-66633461D01*
X104570504Y-66602713D01*
X104577325Y-66571036D01*
X104583402Y-66538490D01*
X104588734Y-66505138D01*
X104590255Y-66492177D01*
X104590669Y-66486021D01*
X104590853Y-66480080D01*
X104590809Y-66474354D01*
X104590537Y-66468843D01*
X104590038Y-66463547D01*
X104589313Y-66458464D01*
X104588364Y-66453594D01*
X104587191Y-66448936D01*
X104585795Y-66444491D01*
X104584177Y-66440258D01*
X104582338Y-66436236D01*
X104580279Y-66432424D01*
X104578001Y-66428823D01*
X104575506Y-66425432D01*
X104572793Y-66422250D01*
X104569864Y-66419276D01*
X104566720Y-66416511D01*
X104563362Y-66413954D01*
X104559790Y-66411605D01*
X104556007Y-66409462D01*
X104552012Y-66407525D01*
X104547807Y-66405795D01*
X104543393Y-66404269D01*
X104538770Y-66402949D01*
X104533940Y-66401833D01*
X104528904Y-66400921D01*
X104523662Y-66400213D01*
X104518216Y-66399708D01*
X104506714Y-66399304D01*
X104500839Y-66399405D01*
X104495118Y-66399708D01*
X104489553Y-66400213D01*
X104484142Y-66400921D01*
X104478887Y-66401833D01*
X104473786Y-66402949D01*
X104468841Y-66404269D01*
X104464051Y-66405795D01*
X104459415Y-66407525D01*
X104454935Y-66409462D01*
X104450609Y-66411605D01*
X104446439Y-66413954D01*
X104442424Y-66416511D01*
X104438564Y-66419276D01*
X104434858Y-66422250D01*
X104431308Y-66425432D01*
X104427913Y-66428823D01*
X104424673Y-66432424D01*
X104421588Y-66436236D01*
X104418658Y-66440258D01*
X104415882Y-66444491D01*
X104413262Y-66448936D01*
X104410797Y-66453594D01*
X104408487Y-66458464D01*
X104406332Y-66463547D01*
X104404332Y-66468843D01*
X104402488Y-66474354D01*
X104400798Y-66480080D01*
X104399263Y-66486021D01*
X104397883Y-66492177D01*
X104395588Y-66505138D01*
X104353255Y-66788242D01*
X104183922Y-66788242D01*
X104226256Y-66502492D01*
X104228985Y-66486833D01*
X104232209Y-66471609D01*
X104235930Y-66456820D01*
X104240147Y-66442464D01*
X104244860Y-66428542D01*
X104250068Y-66415055D01*
X104255774Y-66402001D01*
X104261975Y-66389382D01*
X104268672Y-66377196D01*
X104275865Y-66365445D01*
X104283555Y-66354128D01*
X104291740Y-66343245D01*
X104300422Y-66332796D01*
X104309600Y-66322781D01*
X104319274Y-66313200D01*
X104329444Y-66304054D01*
X104340016Y-66294938D01*
X104350895Y-66286438D01*
X104362075Y-66278550D01*
X104373555Y-66271271D01*
X104385328Y-66264596D01*
X104397393Y-66258522D01*
X104409744Y-66253045D01*
X104422378Y-66248161D01*
X104435291Y-66243866D01*
X104448480Y-66240156D01*
X104461939Y-66237028D01*
X104475666Y-66234477D01*
X104489657Y-66232499D01*
X104503907Y-66231092D01*
X104518413Y-66230250D01*
X104533171Y-66229970D01*
X104547837Y-66230250D01*
G37*
G36*
X103820233Y-66228070D02*
G01*
X103834465Y-66229314D01*
X103848263Y-66231063D01*
X103861626Y-66233319D01*
X103874556Y-66236087D01*
X103887051Y-66239371D01*
X103899112Y-66243174D01*
X103910740Y-66247500D01*
X103921933Y-66252353D01*
X103932692Y-66257737D01*
X103943017Y-66263656D01*
X103952908Y-66270113D01*
X103962364Y-66277113D01*
X103971387Y-66284660D01*
X103979976Y-66292757D01*
X103988131Y-66301408D01*
X103995758Y-66310555D01*
X104002760Y-66320131D01*
X104009135Y-66330134D01*
X104014878Y-66340559D01*
X104019986Y-66351402D01*
X104024454Y-66362661D01*
X104028279Y-66374330D01*
X104031456Y-66386406D01*
X104033983Y-66398885D01*
X104035854Y-66411764D01*
X104037066Y-66425038D01*
X104037616Y-66438703D01*
X104037499Y-66452756D01*
X104036712Y-66467192D01*
X104035250Y-66482008D01*
X104033110Y-66497201D01*
X103927275Y-67206284D01*
X103925287Y-67206129D01*
X103858485Y-67661368D01*
X103855727Y-67676560D01*
X103852418Y-67691376D01*
X103848567Y-67705813D01*
X103844181Y-67719866D01*
X103839268Y-67733531D01*
X103833835Y-67746805D01*
X103827891Y-67759683D01*
X103821443Y-67772162D01*
X103814499Y-67784238D01*
X103807067Y-67795907D01*
X103799154Y-67807166D01*
X103790768Y-67818009D01*
X103781918Y-67828434D01*
X103772609Y-67838437D01*
X103762851Y-67848013D01*
X103752652Y-67857159D01*
X103742079Y-67865810D01*
X103731201Y-67873903D01*
X103720020Y-67881437D01*
X103708541Y-67888413D01*
X103696767Y-67894832D01*
X103684703Y-67900692D01*
X103672351Y-67905994D01*
X103659717Y-67910738D01*
X103646804Y-67914923D01*
X103633616Y-67918551D01*
X103620156Y-67921621D01*
X103606429Y-67924132D01*
X103592438Y-67926086D01*
X103578188Y-67927481D01*
X103563682Y-67928318D01*
X103548924Y-67928597D01*
X103534258Y-67927852D01*
X103520026Y-67926608D01*
X103506228Y-67924859D01*
X103492865Y-67922603D01*
X103479935Y-67919835D01*
X103467440Y-67916552D01*
X103455378Y-67912749D01*
X103443751Y-67908423D01*
X103432558Y-67903570D01*
X103421799Y-67898186D01*
X103411474Y-67892267D01*
X103401583Y-67885810D01*
X103392126Y-67878809D01*
X103383104Y-67871263D01*
X103374515Y-67863166D01*
X103366360Y-67854515D01*
X103358763Y-67845368D01*
X103351844Y-67835792D01*
X103345600Y-67825789D01*
X103340026Y-67815364D01*
X103335118Y-67804521D01*
X103330873Y-67793262D01*
X103327287Y-67781593D01*
X103324357Y-67769517D01*
X103322077Y-67757038D01*
X103320445Y-67744159D01*
X103319456Y-67730885D01*
X103319106Y-67717220D01*
X103319392Y-67703167D01*
X103320311Y-67688731D01*
X103320694Y-67685057D01*
X103489632Y-67685057D01*
X103489732Y-67690638D01*
X103490094Y-67695971D01*
X103490713Y-67701056D01*
X103491580Y-67705893D01*
X103492687Y-67710482D01*
X103494027Y-67714823D01*
X103495591Y-67718915D01*
X103497373Y-67722760D01*
X103499364Y-67726357D01*
X103501557Y-67729705D01*
X103503943Y-67732806D01*
X103506983Y-67736155D01*
X103510155Y-67739260D01*
X103513466Y-67742125D01*
X103516925Y-67744754D01*
X103520538Y-67747150D01*
X103524314Y-67749317D01*
X103528261Y-67751259D01*
X103532386Y-67752981D01*
X103536697Y-67754485D01*
X103541202Y-67755776D01*
X103545908Y-67756858D01*
X103550824Y-67757735D01*
X103555957Y-67758410D01*
X103561314Y-67758887D01*
X103566905Y-67759171D01*
X103572735Y-67759265D01*
X103584361Y-67758861D01*
X103589962Y-67758358D01*
X103595421Y-67757652D01*
X103600737Y-67756745D01*
X103605908Y-67755637D01*
X103610933Y-67754327D01*
X103615813Y-67752815D01*
X103620545Y-67751102D01*
X103625129Y-67749188D01*
X103629563Y-67747071D01*
X103633848Y-67744754D01*
X103637981Y-67742234D01*
X103641962Y-67739514D01*
X103645790Y-67736591D01*
X103649464Y-67733467D01*
X103652983Y-67730142D01*
X103656346Y-67726615D01*
X103659552Y-67722887D01*
X103662600Y-67718957D01*
X103665489Y-67714825D01*
X103668219Y-67710492D01*
X103670787Y-67705958D01*
X103673194Y-67701221D01*
X103675438Y-67696284D01*
X103677518Y-67691144D01*
X103679433Y-67685804D01*
X103681183Y-67680261D01*
X103682766Y-67674518D01*
X103684181Y-67668572D01*
X103686505Y-67656077D01*
X103760588Y-67171889D01*
X103761093Y-67171897D01*
X103861130Y-66499848D01*
X103862006Y-66493500D01*
X103862651Y-66487353D01*
X103863065Y-66481407D01*
X103863249Y-66475663D01*
X103863205Y-66470121D01*
X103862933Y-66464780D01*
X103862434Y-66459641D01*
X103861709Y-66454704D01*
X103860760Y-66449967D01*
X103859587Y-66445433D01*
X103858191Y-66441100D01*
X103856573Y-66436968D01*
X103854734Y-66433038D01*
X103852675Y-66429310D01*
X103850397Y-66425783D01*
X103847902Y-66422457D01*
X103845189Y-66419334D01*
X103842260Y-66416411D01*
X103839116Y-66413690D01*
X103835758Y-66411171D01*
X103832187Y-66408854D01*
X103828403Y-66406737D01*
X103824408Y-66404823D01*
X103820203Y-66403110D01*
X103815789Y-66401598D01*
X103811166Y-66400288D01*
X103806337Y-66399180D01*
X103801300Y-66398273D01*
X103796058Y-66397567D01*
X103790612Y-66397063D01*
X103784963Y-66396761D01*
X103779111Y-66396660D01*
X103773235Y-66396761D01*
X103767514Y-66397063D01*
X103761949Y-66397567D01*
X103756538Y-66398273D01*
X103751283Y-66399180D01*
X103746182Y-66400288D01*
X103741237Y-66401598D01*
X103736447Y-66403110D01*
X103731811Y-66404823D01*
X103727331Y-66406737D01*
X103723006Y-66408854D01*
X103718835Y-66411171D01*
X103714820Y-66413690D01*
X103710960Y-66416411D01*
X103707254Y-66419334D01*
X103703704Y-66422457D01*
X103700309Y-66425783D01*
X103697069Y-66429310D01*
X103693984Y-66433038D01*
X103691054Y-66436968D01*
X103688279Y-66441100D01*
X103685658Y-66445433D01*
X103683193Y-66449967D01*
X103680883Y-66454704D01*
X103678729Y-66459641D01*
X103676729Y-66464780D01*
X103674884Y-66470121D01*
X103673194Y-66475663D01*
X103670279Y-66487353D01*
X103667985Y-66499848D01*
X103493359Y-67653431D01*
X103492025Y-67660253D01*
X103490993Y-67666826D01*
X103490255Y-67673151D01*
X103489804Y-67679228D01*
X103489632Y-67685057D01*
X103320694Y-67685057D01*
X103321857Y-67673915D01*
X103324027Y-67658722D01*
X103498652Y-66494555D01*
X103501381Y-66479363D01*
X103504605Y-66464547D01*
X103508326Y-66450110D01*
X103512543Y-66436057D01*
X103517256Y-66422392D01*
X103522465Y-66409118D01*
X103528170Y-66396240D01*
X103534371Y-66383761D01*
X103541068Y-66371685D01*
X103548261Y-66360015D01*
X103555951Y-66348757D01*
X103564136Y-66337913D01*
X103572818Y-66327488D01*
X103581996Y-66317485D01*
X103591670Y-66307909D01*
X103601840Y-66298763D01*
X103612848Y-66290112D01*
X103624050Y-66282020D01*
X103635453Y-66274485D01*
X103647066Y-66267509D01*
X103658896Y-66261091D01*
X103670950Y-66255231D01*
X103683237Y-66249929D01*
X103695765Y-66245185D01*
X103708540Y-66240999D01*
X103721572Y-66237371D01*
X103734867Y-66234301D01*
X103748433Y-66231790D01*
X103762279Y-66229837D01*
X103776411Y-66228441D01*
X103790838Y-66227604D01*
X103805567Y-66227325D01*
X103820233Y-66228070D01*
G37*
G36*
X103095275Y-66224958D02*
G01*
X103109507Y-66225800D01*
X103123305Y-66227208D01*
X103136668Y-66229185D01*
X103149598Y-66231736D01*
X103162093Y-66234864D01*
X103174155Y-66238574D01*
X103185782Y-66242869D01*
X103196975Y-66247753D01*
X103207734Y-66253230D01*
X103218059Y-66259304D01*
X103227950Y-66265979D01*
X103237407Y-66273258D01*
X103246429Y-66281146D01*
X103255018Y-66289646D01*
X103263173Y-66298762D01*
X103270770Y-66308375D01*
X103277688Y-66318363D01*
X103283932Y-66328732D01*
X103289506Y-66339484D01*
X103294414Y-66350623D01*
X103298658Y-66362154D01*
X103302244Y-66374081D01*
X103305175Y-66386406D01*
X103307454Y-66399135D01*
X103309087Y-66412270D01*
X103310076Y-66425817D01*
X103310425Y-66439778D01*
X103310139Y-66454157D01*
X103309221Y-66468959D01*
X103307675Y-66484187D01*
X103305504Y-66499846D01*
X103299299Y-66536056D01*
X103292566Y-66571242D01*
X103285274Y-66605374D01*
X103277394Y-66638421D01*
X103268893Y-66670352D01*
X103259741Y-66701136D01*
X103249907Y-66730741D01*
X103239359Y-66759138D01*
X103228316Y-66787539D01*
X103216994Y-66815196D01*
X103205361Y-66842109D01*
X103193387Y-66868278D01*
X103181042Y-66893703D01*
X103168293Y-66918383D01*
X103155110Y-66942320D01*
X103141463Y-66965512D01*
X103127567Y-66989082D01*
X103113641Y-67012186D01*
X103099652Y-67034857D01*
X103085570Y-67057124D01*
X103071364Y-67079019D01*
X103057003Y-67100573D01*
X103042456Y-67121817D01*
X103027691Y-67142783D01*
X103012927Y-67163743D01*
X102998380Y-67184950D01*
X102984020Y-67206406D01*
X102969814Y-67228110D01*
X102941744Y-67272263D01*
X102913922Y-67317407D01*
X102900279Y-67340362D01*
X102887132Y-67363627D01*
X102874482Y-67387263D01*
X102862327Y-67411334D01*
X102850669Y-67435901D01*
X102839507Y-67461027D01*
X102828841Y-67486772D01*
X102818671Y-67513199D01*
X102808129Y-67540366D01*
X102798331Y-67568307D01*
X102789277Y-67597055D01*
X102780967Y-67626640D01*
X102773402Y-67657092D01*
X102766581Y-67688445D01*
X102760504Y-67720727D01*
X102755171Y-67753971D01*
X103117652Y-67753971D01*
X103096484Y-67923303D01*
X102564671Y-67920658D01*
X102585839Y-67753971D01*
X102592045Y-67716888D01*
X102598778Y-67681045D01*
X102606069Y-67646442D01*
X102613950Y-67613080D01*
X102622450Y-67580957D01*
X102631602Y-67550076D01*
X102641437Y-67520434D01*
X102651984Y-67492033D01*
X102663027Y-67464499D01*
X102674350Y-67437462D01*
X102685982Y-67410921D01*
X102697956Y-67384876D01*
X102710302Y-67359327D01*
X102723050Y-67334274D01*
X102736233Y-67309718D01*
X102749880Y-67285657D01*
X102763776Y-67262088D01*
X102777703Y-67238983D01*
X102791692Y-67216313D01*
X102805774Y-67194046D01*
X102819980Y-67172150D01*
X102834341Y-67150596D01*
X102848888Y-67129352D01*
X102863652Y-67108388D01*
X102878416Y-67087428D01*
X102892963Y-67066220D01*
X102907324Y-67044764D01*
X102921530Y-67023059D01*
X102949600Y-66978907D01*
X102977423Y-66933762D01*
X103003096Y-66887584D01*
X103015700Y-66864045D01*
X103028025Y-66840166D01*
X103039978Y-66815914D01*
X103051465Y-66791259D01*
X103062394Y-66766170D01*
X103072672Y-66740616D01*
X103083215Y-66714210D01*
X103093012Y-66686625D01*
X103102066Y-66657924D01*
X103110376Y-66628169D01*
X103117941Y-66597422D01*
X103124763Y-66565744D01*
X103130839Y-66533198D01*
X103136172Y-66499846D01*
X103137693Y-66486885D01*
X103138107Y-66480729D01*
X103138291Y-66474788D01*
X103138246Y-66469062D01*
X103137974Y-66463552D01*
X103137476Y-66458255D01*
X103136751Y-66453172D01*
X103135802Y-66448302D01*
X103134628Y-66443644D01*
X103133232Y-66439199D01*
X103131614Y-66434966D01*
X103129776Y-66430944D01*
X103127717Y-66427132D01*
X103125439Y-66423531D01*
X103122943Y-66420140D01*
X103120230Y-66416958D01*
X103117302Y-66413984D01*
X103114158Y-66411220D01*
X103110799Y-66408662D01*
X103107228Y-66406313D01*
X103103445Y-66404170D01*
X103099450Y-66402233D01*
X103095245Y-66400503D01*
X103090831Y-66398977D01*
X103086208Y-66397657D01*
X103081378Y-66396541D01*
X103076342Y-66395629D01*
X103071100Y-66394921D01*
X103065654Y-66394416D01*
X103054152Y-66394012D01*
X103048277Y-66394113D01*
X103042556Y-66394416D01*
X103036990Y-66394921D01*
X103031580Y-66395629D01*
X103026325Y-66396541D01*
X103021224Y-66397657D01*
X103016279Y-66398977D01*
X103011488Y-66400503D01*
X103006853Y-66402233D01*
X103002373Y-66404170D01*
X102998047Y-66406313D01*
X102993877Y-66408662D01*
X102989862Y-66411220D01*
X102986001Y-66413984D01*
X102982296Y-66416958D01*
X102978746Y-66420140D01*
X102975351Y-66423531D01*
X102972111Y-66427132D01*
X102969026Y-66430944D01*
X102966096Y-66434966D01*
X102963321Y-66439199D01*
X102960701Y-66443644D01*
X102958236Y-66448302D01*
X102955926Y-66453172D01*
X102953771Y-66458255D01*
X102951771Y-66463552D01*
X102949926Y-66469062D01*
X102948237Y-66474788D01*
X102946702Y-66480729D01*
X102945322Y-66486885D01*
X102943028Y-66499846D01*
X102900693Y-66782950D01*
X102731360Y-66782950D01*
X102773694Y-66497200D01*
X102776423Y-66481542D01*
X102779647Y-66466318D01*
X102783368Y-66451528D01*
X102787585Y-66437172D01*
X102792298Y-66423251D01*
X102797507Y-66409763D01*
X102803213Y-66396710D01*
X102809414Y-66384090D01*
X102816111Y-66371905D01*
X102823304Y-66360154D01*
X102830994Y-66348837D01*
X102839179Y-66337954D01*
X102847860Y-66327505D01*
X102857038Y-66317490D01*
X102866712Y-66307909D01*
X102876881Y-66298762D01*
X102887454Y-66289646D01*
X102898332Y-66281146D01*
X102909513Y-66273258D01*
X102920993Y-66265979D01*
X102932766Y-66259304D01*
X102944831Y-66253230D01*
X102957182Y-66247753D01*
X102969817Y-66242869D01*
X102982730Y-66238574D01*
X102995918Y-66234864D01*
X103009378Y-66231736D01*
X103023105Y-66229185D01*
X103037095Y-66227208D01*
X103051345Y-66225800D01*
X103065851Y-66224958D01*
X103080609Y-66224679D01*
X103095275Y-66224958D01*
G37*
G36*
X102305379Y-67748679D02*
G01*
X102437670Y-67748679D01*
X102416503Y-67918011D01*
X101982588Y-67920658D01*
X102003756Y-67751325D01*
X102136048Y-67751325D01*
X102313317Y-66528950D01*
X102300088Y-66528950D01*
X102298042Y-66530904D01*
X102295881Y-66532795D01*
X102293611Y-66534624D01*
X102291241Y-66536392D01*
X102288777Y-66538097D01*
X102286228Y-66539740D01*
X102283602Y-66541322D01*
X102280906Y-66542841D01*
X102278147Y-66544298D01*
X102275335Y-66545693D01*
X102272476Y-66547026D01*
X102269578Y-66548298D01*
X102266649Y-66549507D01*
X102263697Y-66550654D01*
X102260729Y-66551739D01*
X102257754Y-66552763D01*
X102251796Y-66554856D01*
X102245806Y-66557104D01*
X102233610Y-66561693D01*
X102227341Y-66563848D01*
X102224151Y-66564849D01*
X102220918Y-66565785D01*
X102217638Y-66566644D01*
X102214308Y-66567413D01*
X102210924Y-66568082D01*
X102207482Y-66568638D01*
X102203947Y-66569600D01*
X102200289Y-66570499D01*
X102196506Y-66571336D01*
X102192599Y-66572111D01*
X102184414Y-66573475D01*
X102175732Y-66574591D01*
X102166555Y-66575459D01*
X102156881Y-66576079D01*
X102146711Y-66576451D01*
X102136046Y-66576575D01*
X102154566Y-66454867D01*
X102164923Y-66454619D01*
X102175160Y-66453875D01*
X102185280Y-66452634D01*
X102195288Y-66450898D01*
X102205187Y-66448666D01*
X102214981Y-66445937D01*
X102224675Y-66442713D01*
X102234272Y-66438992D01*
X102243776Y-66434775D01*
X102253191Y-66430062D01*
X102262520Y-66424853D01*
X102271768Y-66419148D01*
X102280939Y-66412947D01*
X102290036Y-66406249D01*
X102299063Y-66399056D01*
X102308024Y-66391367D01*
X102316736Y-66383274D01*
X102325011Y-66374872D01*
X102332843Y-66366159D01*
X102340230Y-66357136D01*
X102347167Y-66347804D01*
X102353650Y-66338161D01*
X102359676Y-66328208D01*
X102365241Y-66317945D01*
X102370341Y-66307372D01*
X102374972Y-66296489D01*
X102379130Y-66285296D01*
X102382811Y-66273792D01*
X102386012Y-66261979D01*
X102388728Y-66249856D01*
X102390956Y-66237422D01*
X102392691Y-66224679D01*
X102524983Y-66224679D01*
X102305379Y-67748679D01*
G37*
G36*
X100466526Y-65822513D02*
G01*
X100762859Y-65822513D01*
X100723172Y-66118846D01*
X100426838Y-66118846D01*
X100191359Y-67825408D01*
X100188538Y-67844632D01*
X100187024Y-67862616D01*
X100186757Y-67871142D01*
X100186819Y-67879359D01*
X100187209Y-67887265D01*
X100187928Y-67894862D01*
X100188977Y-67902148D01*
X100190355Y-67909125D01*
X100192064Y-67915791D01*
X100194104Y-67922147D01*
X100196475Y-67928193D01*
X100199178Y-67933929D01*
X100202213Y-67939355D01*
X100205581Y-67944471D01*
X100209282Y-67949277D01*
X100213318Y-67953773D01*
X100217687Y-67957958D01*
X100222391Y-67961834D01*
X100227431Y-67965400D01*
X100232806Y-67968655D01*
X100238518Y-67971601D01*
X100244566Y-67974236D01*
X100250951Y-67976562D01*
X100257674Y-67978577D01*
X100264735Y-67980282D01*
X100272135Y-67981678D01*
X100279874Y-67982763D01*
X100287953Y-67983538D01*
X100296371Y-67984003D01*
X100305131Y-67984158D01*
X100463880Y-67984158D01*
X100424192Y-68280491D01*
X100265442Y-68280491D01*
X100240079Y-68280027D01*
X100215580Y-68278636D01*
X100191941Y-68276323D01*
X100169159Y-68273091D01*
X100147229Y-68268945D01*
X100126148Y-68263888D01*
X100105912Y-68257924D01*
X100086517Y-68251056D01*
X100067960Y-68243290D01*
X100050235Y-68234628D01*
X100033340Y-68225075D01*
X100017271Y-68214635D01*
X100002023Y-68203311D01*
X99987593Y-68191107D01*
X99973977Y-68178027D01*
X99961171Y-68164075D01*
X99949296Y-68149255D01*
X99938475Y-68133571D01*
X99928708Y-68117026D01*
X99919995Y-68099624D01*
X99912337Y-68081370D01*
X99905733Y-68062267D01*
X99900183Y-68042320D01*
X99895687Y-68021531D01*
X99892245Y-67999905D01*
X99889857Y-67977446D01*
X99888524Y-67954157D01*
X99888245Y-67930043D01*
X99889020Y-67905107D01*
X99890849Y-67879354D01*
X99893733Y-67852786D01*
X99897670Y-67825408D01*
X100135796Y-66118846D01*
X99947942Y-66118846D01*
X99987630Y-65822513D01*
X100170192Y-65822513D01*
X100358046Y-65322451D01*
X100540608Y-65322451D01*
X100466526Y-65822513D01*
G37*
G36*
X99532547Y-65822513D02*
G01*
X99828880Y-65822513D01*
X99789192Y-66118846D01*
X99492859Y-66118846D01*
X99257381Y-67825408D01*
X99254560Y-67844632D01*
X99253045Y-67862616D01*
X99252779Y-67871142D01*
X99252840Y-67879359D01*
X99253230Y-67887265D01*
X99253949Y-67894862D01*
X99254998Y-67902148D01*
X99256376Y-67909125D01*
X99258085Y-67915791D01*
X99260125Y-67922147D01*
X99262496Y-67928193D01*
X99265199Y-67933929D01*
X99268234Y-67939355D01*
X99271602Y-67944471D01*
X99275303Y-67949277D01*
X99279339Y-67953773D01*
X99283708Y-67957958D01*
X99288412Y-67961834D01*
X99293452Y-67965400D01*
X99298827Y-67968655D01*
X99304539Y-67971601D01*
X99310587Y-67974236D01*
X99316972Y-67976562D01*
X99323695Y-67978577D01*
X99330756Y-67980282D01*
X99338156Y-67981678D01*
X99345895Y-67982763D01*
X99353974Y-67983538D01*
X99362392Y-67984003D01*
X99371152Y-67984158D01*
X99529901Y-67984158D01*
X99490213Y-68280491D01*
X99331463Y-68280491D01*
X99306100Y-68280027D01*
X99281601Y-68278636D01*
X99257962Y-68276323D01*
X99235180Y-68273091D01*
X99213251Y-68268945D01*
X99192170Y-68263888D01*
X99171934Y-68257924D01*
X99152539Y-68251056D01*
X99133982Y-68243290D01*
X99116257Y-68234628D01*
X99099362Y-68225075D01*
X99083293Y-68214635D01*
X99068045Y-68203311D01*
X99053615Y-68191107D01*
X99039999Y-68178027D01*
X99027193Y-68164075D01*
X99015317Y-68149255D01*
X99004496Y-68133571D01*
X98994729Y-68117026D01*
X98986017Y-68099624D01*
X98978358Y-68081370D01*
X98971754Y-68062267D01*
X98966204Y-68042320D01*
X98961708Y-68021531D01*
X98958266Y-67999905D01*
X98955879Y-67977446D01*
X98954545Y-67954157D01*
X98954266Y-67930043D01*
X98955041Y-67905107D01*
X98956871Y-67879354D01*
X98959754Y-67852786D01*
X98963692Y-67825408D01*
X99201817Y-66118846D01*
X99013963Y-66118846D01*
X99053651Y-65822513D01*
X99236213Y-65822513D01*
X99424067Y-65322451D01*
X99606630Y-65322451D01*
X99532547Y-65822513D01*
G37*
G36*
X98453110Y-65817625D02*
G01*
X98476130Y-65818839D01*
X98498305Y-65820866D01*
X98519646Y-65823712D01*
X98540167Y-65827379D01*
X98559877Y-65831872D01*
X98578788Y-65837194D01*
X98596913Y-65843349D01*
X98614263Y-65850342D01*
X98630849Y-65858175D01*
X98646683Y-65866854D01*
X98661777Y-65876381D01*
X98676143Y-65886761D01*
X98689791Y-65897997D01*
X98702734Y-65910094D01*
X98714984Y-65923055D01*
X98726364Y-65936356D01*
X98736693Y-65950459D01*
X98745976Y-65965361D01*
X98754217Y-65981057D01*
X98761419Y-65997544D01*
X98767586Y-66014817D01*
X98772722Y-66032874D01*
X98776831Y-66051709D01*
X98779917Y-66071320D01*
X98781983Y-66091701D01*
X98783034Y-66112851D01*
X98783073Y-66134763D01*
X98782105Y-66157436D01*
X98780133Y-66180864D01*
X98777161Y-66205044D01*
X98773193Y-66229971D01*
X98703366Y-66690310D01*
X98704402Y-66690347D01*
X98646193Y-67081931D01*
X98119671Y-67081931D01*
X98011193Y-67833347D01*
X98010084Y-67843114D01*
X98009239Y-67852570D01*
X98008658Y-67861717D01*
X98008340Y-67870554D01*
X98008286Y-67879080D01*
X98008495Y-67887297D01*
X98008968Y-67895203D01*
X98009704Y-67902800D01*
X98010704Y-67910086D01*
X98011968Y-67917062D01*
X98013495Y-67923729D01*
X98015285Y-67930085D01*
X98017340Y-67936131D01*
X98019657Y-67941867D01*
X98022238Y-67947293D01*
X98025083Y-67952409D01*
X98028192Y-67957215D01*
X98031563Y-67961711D01*
X98035199Y-67965897D01*
X98039098Y-67969772D01*
X98043260Y-67973338D01*
X98047687Y-67976594D01*
X98052376Y-67979539D01*
X98057329Y-67982175D01*
X98062546Y-67984500D01*
X98068027Y-67986515D01*
X98073770Y-67988221D01*
X98079778Y-67989616D01*
X98086049Y-67990701D01*
X98092583Y-67991476D01*
X98099381Y-67991941D01*
X98106443Y-67992096D01*
X98113536Y-67991941D01*
X98120428Y-67991476D01*
X98127120Y-67990701D01*
X98133614Y-67989616D01*
X98139911Y-67988221D01*
X98146010Y-67986516D01*
X98151914Y-67984500D01*
X98157623Y-67982175D01*
X98163139Y-67979539D01*
X98168461Y-67976594D01*
X98173592Y-67973338D01*
X98178531Y-67969773D01*
X98183281Y-67965897D01*
X98187842Y-67961711D01*
X98192215Y-67957215D01*
X98196401Y-67952409D01*
X98200401Y-67947293D01*
X98204216Y-67941867D01*
X98211294Y-67930085D01*
X98217644Y-67917063D01*
X98223273Y-67902800D01*
X98228188Y-67887297D01*
X98232399Y-67870554D01*
X98235911Y-67852571D01*
X98238734Y-67833347D01*
X98315464Y-67309473D01*
X98611797Y-67309473D01*
X98535067Y-67833347D01*
X98530756Y-67860724D01*
X98525755Y-67887292D01*
X98520056Y-67913045D01*
X98513652Y-67937981D01*
X98506535Y-67962095D01*
X98498697Y-67985384D01*
X98490130Y-68007843D01*
X98480827Y-68029469D01*
X98470780Y-68050258D01*
X98459981Y-68070206D01*
X98448422Y-68089309D01*
X98436096Y-68107563D01*
X98422995Y-68124964D01*
X98409111Y-68141509D01*
X98394436Y-68157194D01*
X98378963Y-68172014D01*
X98362840Y-68185966D01*
X98346221Y-68199045D01*
X98329106Y-68211249D01*
X98311494Y-68222573D01*
X98293387Y-68233014D01*
X98274784Y-68242567D01*
X98255684Y-68251228D01*
X98236088Y-68258995D01*
X98215996Y-68265862D01*
X98195408Y-68271826D01*
X98174324Y-68276883D01*
X98152744Y-68281030D01*
X98130668Y-68284261D01*
X98108096Y-68286575D01*
X98085027Y-68287965D01*
X98061463Y-68288430D01*
X98037586Y-68287996D01*
X98014566Y-68286693D01*
X97992391Y-68284523D01*
X97971050Y-68281484D01*
X97950530Y-68277578D01*
X97930820Y-68272803D01*
X97911908Y-68267160D01*
X97893783Y-68260649D01*
X97876433Y-68253269D01*
X97859847Y-68245022D01*
X97844013Y-68235906D01*
X97828919Y-68225922D01*
X97814553Y-68215070D01*
X97800905Y-68203350D01*
X97787962Y-68190761D01*
X97775713Y-68177305D01*
X97764768Y-68163012D01*
X97754758Y-68147916D01*
X97745685Y-68132023D01*
X97737555Y-68115334D01*
X97730370Y-68097855D01*
X97724134Y-68079590D01*
X97718852Y-68060541D01*
X97714527Y-68040714D01*
X97711164Y-68020111D01*
X97708765Y-67998737D01*
X97707336Y-67976595D01*
X97706879Y-67953691D01*
X97707399Y-67930026D01*
X97708900Y-67905606D01*
X97711385Y-67880434D01*
X97714859Y-67854514D01*
X97872232Y-66782951D01*
X98164651Y-66782951D01*
X98392193Y-66782951D01*
X98408068Y-66679763D01*
X98410993Y-66679867D01*
X98479506Y-66248493D01*
X98481305Y-66239718D01*
X98482736Y-66231253D01*
X98483803Y-66223099D01*
X98484509Y-66215254D01*
X98484858Y-66207720D01*
X98484855Y-66200495D01*
X98484503Y-66193581D01*
X98483806Y-66186977D01*
X98482768Y-66180683D01*
X98481393Y-66174699D01*
X98479684Y-66169025D01*
X98477646Y-66163661D01*
X98475282Y-66158607D01*
X98472597Y-66153863D01*
X98469594Y-66149429D01*
X98466277Y-66145305D01*
X98462741Y-66141461D01*
X98459073Y-66137864D01*
X98455266Y-66134515D01*
X98451312Y-66131415D01*
X98447202Y-66128562D01*
X98442930Y-66125958D01*
X98438487Y-66123602D01*
X98433866Y-66121493D01*
X98429059Y-66119633D01*
X98424058Y-66118020D01*
X98418855Y-66116656D01*
X98413443Y-66115540D01*
X98407814Y-66114672D01*
X98401961Y-66114052D01*
X98395874Y-66113679D01*
X98389548Y-66113555D01*
X98382688Y-66113687D01*
X98375998Y-66114083D01*
X98369477Y-66114741D01*
X98363126Y-66115664D01*
X98356943Y-66116850D01*
X98350928Y-66118299D01*
X98345081Y-66120012D01*
X98339401Y-66121989D01*
X98333888Y-66124229D01*
X98328540Y-66126733D01*
X98323359Y-66129500D01*
X98318343Y-66132531D01*
X98313491Y-66135825D01*
X98308804Y-66139383D01*
X98304280Y-66143205D01*
X98299920Y-66147290D01*
X98295722Y-66151638D01*
X98291687Y-66156250D01*
X98287814Y-66161126D01*
X98284102Y-66166265D01*
X98280550Y-66171668D01*
X98277160Y-66177334D01*
X98270857Y-66189458D01*
X98265190Y-66202635D01*
X98260155Y-66216867D01*
X98255747Y-66232153D01*
X98251964Y-66248493D01*
X98164651Y-66782951D01*
X97872232Y-66782951D01*
X97950337Y-66251138D01*
X97955144Y-66224782D01*
X97960636Y-66199286D01*
X97966819Y-66174643D01*
X97973695Y-66150844D01*
X97981269Y-66127883D01*
X97989544Y-66105751D01*
X97998525Y-66084441D01*
X98008215Y-66063945D01*
X98018618Y-66044255D01*
X98029738Y-66025363D01*
X98041579Y-66007262D01*
X98054145Y-65989944D01*
X98067439Y-65973401D01*
X98081466Y-65957626D01*
X98096230Y-65942610D01*
X98111733Y-65928346D01*
X98127856Y-65914890D01*
X98144475Y-65902301D01*
X98161591Y-65890581D01*
X98179202Y-65879729D01*
X98197310Y-65869745D01*
X98215913Y-65860629D01*
X98235013Y-65852382D01*
X98254608Y-65845002D01*
X98274700Y-65838491D01*
X98295288Y-65832848D01*
X98316372Y-65828073D01*
X98337952Y-65824167D01*
X98360028Y-65821128D01*
X98382600Y-65818958D01*
X98405669Y-65817655D01*
X98429233Y-65817221D01*
X98453110Y-65817625D01*
G37*
G36*
X97325922Y-68280492D02*
G01*
X97029588Y-68280492D01*
X97479380Y-65047284D01*
X97775714Y-65047284D01*
X97325922Y-68280492D01*
G37*
G36*
X96659236Y-65815009D02*
G01*
X96682256Y-65816316D01*
X96704431Y-65818499D01*
X96725773Y-65821561D01*
X96746293Y-65825508D01*
X96766003Y-65830341D01*
X96784914Y-65836066D01*
X96803039Y-65842687D01*
X96820389Y-65850206D01*
X96836975Y-65858629D01*
X96852809Y-65867959D01*
X96867904Y-65878199D01*
X96882269Y-65889354D01*
X96895917Y-65901428D01*
X96908860Y-65914424D01*
X96921110Y-65928346D01*
X96932490Y-65943106D01*
X96942819Y-65958618D01*
X96952102Y-65974890D01*
X96960343Y-65991929D01*
X96967544Y-66009743D01*
X96973711Y-66028340D01*
X96978847Y-66047728D01*
X96982956Y-66067914D01*
X96986042Y-66088906D01*
X96988108Y-66110712D01*
X96989159Y-66133340D01*
X96989199Y-66156797D01*
X96988230Y-66181091D01*
X96986258Y-66206231D01*
X96983286Y-66232222D01*
X96979318Y-66259075D01*
X96817922Y-67402075D01*
X96812813Y-67401720D01*
X96688277Y-68277844D01*
X96415757Y-68277844D01*
X96423693Y-68182594D01*
X96399881Y-68182594D01*
X96392811Y-68189415D01*
X96385494Y-68195989D01*
X96377928Y-68202314D01*
X96370115Y-68208391D01*
X96362053Y-68214220D01*
X96353744Y-68219801D01*
X96345186Y-68225134D01*
X96336381Y-68230219D01*
X96327446Y-68235934D01*
X96318480Y-68241216D01*
X96309452Y-68246125D01*
X96300331Y-68250724D01*
X96291086Y-68255075D01*
X96281686Y-68259240D01*
X96272100Y-68263281D01*
X96262297Y-68267260D01*
X96252246Y-68270107D01*
X96241916Y-68272676D01*
X96231276Y-68274934D01*
X96220295Y-68276851D01*
X96208942Y-68278397D01*
X96197185Y-68279539D01*
X96184995Y-68280247D01*
X96172339Y-68280489D01*
X96157581Y-68280025D01*
X96143075Y-68278634D01*
X96128825Y-68276321D01*
X96114834Y-68273089D01*
X96101107Y-68268943D01*
X96087647Y-68263886D01*
X96074458Y-68257922D01*
X96061545Y-68251055D01*
X96048911Y-68243289D01*
X96036559Y-68234627D01*
X96024495Y-68225074D01*
X96012721Y-68214633D01*
X96001241Y-68203309D01*
X95990060Y-68191105D01*
X95979182Y-68178025D01*
X95968609Y-68164074D01*
X95958626Y-68149253D01*
X95949515Y-68133569D01*
X95941280Y-68117024D01*
X95933924Y-68099623D01*
X95927453Y-68081369D01*
X95921868Y-68062266D01*
X95917175Y-68042318D01*
X95913378Y-68021530D01*
X95910479Y-67999904D01*
X95908484Y-67977444D01*
X95907396Y-67954156D01*
X95907218Y-67930042D01*
X95907452Y-67922093D01*
X96214843Y-67922093D01*
X96214991Y-67931174D01*
X96215372Y-67939845D01*
X96215994Y-67948109D01*
X96216863Y-67955969D01*
X96217988Y-67963431D01*
X96219377Y-67970497D01*
X96221037Y-67977172D01*
X96222976Y-67983459D01*
X96225202Y-67989362D01*
X96227723Y-67994885D01*
X96230546Y-68000033D01*
X96233118Y-68004839D01*
X96235869Y-68009335D01*
X96238790Y-68013521D01*
X96241874Y-68017396D01*
X96245112Y-68020962D01*
X96248499Y-68024218D01*
X96252024Y-68027163D01*
X96255682Y-68029799D01*
X96259463Y-68032124D01*
X96263361Y-68034140D01*
X96267367Y-68035845D01*
X96271474Y-68037241D01*
X96275674Y-68038326D01*
X96279959Y-68039101D01*
X96284322Y-68039566D01*
X96288754Y-68039721D01*
X96293188Y-68039629D01*
X96297560Y-68039354D01*
X96301870Y-68038901D01*
X96306118Y-68038274D01*
X96310304Y-68037476D01*
X96314428Y-68036512D01*
X96318489Y-68035384D01*
X96322489Y-68034098D01*
X96326427Y-68032657D01*
X96330303Y-68031065D01*
X96334116Y-68029325D01*
X96337868Y-68027442D01*
X96341558Y-68025419D01*
X96345185Y-68023261D01*
X96348751Y-68020971D01*
X96352254Y-68018553D01*
X96355697Y-68016012D01*
X96359081Y-68013355D01*
X96362411Y-68010589D01*
X96365690Y-68007722D01*
X96368923Y-68004763D01*
X96372114Y-68001718D01*
X96378382Y-67995403D01*
X96384526Y-67988840D01*
X96390578Y-67982091D01*
X96402526Y-67968283D01*
X96407487Y-67960222D01*
X96412448Y-67951912D01*
X96417409Y-67943354D01*
X96422370Y-67934548D01*
X96427331Y-67925495D01*
X96432292Y-67916193D01*
X96437253Y-67906643D01*
X96442214Y-67896845D01*
X96529526Y-67216866D01*
X96534818Y-67216866D01*
X96555984Y-67052825D01*
X96442214Y-67052825D01*
X96435353Y-67052995D01*
X96428663Y-67053505D01*
X96422143Y-67054355D01*
X96415791Y-67055543D01*
X96409609Y-67057068D01*
X96403594Y-67058929D01*
X96397747Y-67061125D01*
X96392067Y-67063656D01*
X96386553Y-67066520D01*
X96381206Y-67069716D01*
X96376025Y-67073244D01*
X96371008Y-67077102D01*
X96366157Y-67081290D01*
X96361470Y-67085806D01*
X96356946Y-67090649D01*
X96352586Y-67095819D01*
X96344353Y-67107135D01*
X96336767Y-67119745D01*
X96329825Y-67133642D01*
X96323523Y-67148818D01*
X96317856Y-67165266D01*
X96312820Y-67182976D01*
X96308413Y-67201943D01*
X96304630Y-67222157D01*
X96217317Y-67870387D01*
X96216419Y-67881581D01*
X96215715Y-67892344D01*
X96215213Y-67902682D01*
X96214919Y-67912596D01*
X96214843Y-67922093D01*
X95907452Y-67922093D01*
X95907955Y-67905106D01*
X95909611Y-67879352D01*
X95912189Y-67852784D01*
X95915693Y-67825407D01*
X96003006Y-67211574D01*
X96007812Y-67184197D01*
X96013300Y-67157629D01*
X96019470Y-67131876D01*
X96026322Y-67106940D01*
X96033857Y-67082826D01*
X96042073Y-67059537D01*
X96050972Y-67037078D01*
X96060553Y-67015452D01*
X96070815Y-66994663D01*
X96081760Y-66974715D01*
X96093388Y-66955612D01*
X96105697Y-66937358D01*
X96118688Y-66919957D01*
X96132362Y-66903412D01*
X96146717Y-66887727D01*
X96161755Y-66872907D01*
X96177412Y-66858955D01*
X96193624Y-66845876D01*
X96210386Y-66833672D01*
X96227694Y-66822348D01*
X96245545Y-66811907D01*
X96263935Y-66802354D01*
X96282860Y-66793693D01*
X96302315Y-66785926D01*
X96322298Y-66779059D01*
X96342804Y-66773095D01*
X96363829Y-66768038D01*
X96385370Y-66763891D01*
X96407422Y-66760660D01*
X96429982Y-66758346D01*
X96453046Y-66756956D01*
X96476610Y-66756491D01*
X96593025Y-66756491D01*
X96680338Y-66243200D01*
X96682137Y-66234425D01*
X96683567Y-66225960D01*
X96684634Y-66217806D01*
X96685340Y-66209961D01*
X96685690Y-66202427D01*
X96685686Y-66195203D01*
X96685334Y-66188288D01*
X96684637Y-66181684D01*
X96683599Y-66175390D01*
X96682224Y-66169406D01*
X96680516Y-66163732D01*
X96678478Y-66158368D01*
X96676114Y-66153314D01*
X96673429Y-66148570D01*
X96670426Y-66144136D01*
X96667109Y-66140012D01*
X96663573Y-66136168D01*
X96659905Y-66132571D01*
X96656098Y-66129223D01*
X96652143Y-66126122D01*
X96648034Y-66123270D01*
X96643761Y-66120665D01*
X96639318Y-66118309D01*
X96634697Y-66116200D01*
X96629890Y-66114340D01*
X96624889Y-66112728D01*
X96619687Y-66111363D01*
X96614275Y-66110247D01*
X96608646Y-66109379D01*
X96602792Y-66108759D01*
X96596706Y-66108387D01*
X96590379Y-66108263D01*
X96585915Y-66108387D01*
X96581455Y-66108759D01*
X96577002Y-66109379D01*
X96572561Y-66110247D01*
X96568136Y-66111363D01*
X96563730Y-66112727D01*
X96559347Y-66114340D01*
X96554992Y-66116200D01*
X96550667Y-66118308D01*
X96546377Y-66120665D01*
X96542126Y-66123269D01*
X96537918Y-66126122D01*
X96533756Y-66129222D01*
X96529644Y-66132571D01*
X96525587Y-66136168D01*
X96521588Y-66140012D01*
X96517682Y-66144136D01*
X96513904Y-66148570D01*
X96510258Y-66153313D01*
X96506747Y-66158367D01*
X96503376Y-66163731D01*
X96500148Y-66169405D01*
X96497067Y-66175389D01*
X96494138Y-66181684D01*
X96491363Y-66188288D01*
X96488748Y-66195202D01*
X96486295Y-66202427D01*
X96484009Y-66209961D01*
X96481894Y-66217806D01*
X96479953Y-66225960D01*
X96478190Y-66234425D01*
X96476610Y-66243200D01*
X96426339Y-66547471D01*
X96130005Y-66547471D01*
X96180276Y-66222034D01*
X96185082Y-66197136D01*
X96190570Y-66173039D01*
X96196740Y-66149742D01*
X96203593Y-66127238D01*
X96211127Y-66105526D01*
X96219343Y-66084600D01*
X96228242Y-66064457D01*
X96237823Y-66045093D01*
X96248086Y-66026504D01*
X96259031Y-66008687D01*
X96270658Y-65991637D01*
X96282967Y-65975350D01*
X96295959Y-65959824D01*
X96309632Y-65945053D01*
X96323988Y-65931033D01*
X96339026Y-65917762D01*
X96354591Y-65905267D01*
X96370533Y-65893578D01*
X96386854Y-65882695D01*
X96403559Y-65872618D01*
X96420652Y-65863347D01*
X96438136Y-65854883D01*
X96456015Y-65847224D01*
X96474294Y-65840372D01*
X96492976Y-65834326D01*
X96512064Y-65829086D01*
X96531564Y-65824652D01*
X96551478Y-65821024D01*
X96571811Y-65818202D01*
X96592566Y-65816187D01*
X96613748Y-65814978D01*
X96635359Y-65814575D01*
X96659236Y-65815009D01*
G37*
G36*
X95601788Y-65092791D02*
G01*
X95628444Y-65094382D01*
X95654340Y-65097042D01*
X95679469Y-65100779D01*
X95703823Y-65105602D01*
X95727394Y-65111517D01*
X95750174Y-65118534D01*
X95772156Y-65126659D01*
X95793332Y-65135900D01*
X95813694Y-65146265D01*
X95833234Y-65157761D01*
X95851945Y-65170398D01*
X95869818Y-65184181D01*
X95886847Y-65199119D01*
X95903023Y-65215220D01*
X95918338Y-65232492D01*
X95933067Y-65250724D01*
X95946502Y-65269704D01*
X95958650Y-65289436D01*
X95969519Y-65309924D01*
X95979116Y-65331171D01*
X95987450Y-65353182D01*
X95994529Y-65375961D01*
X96000359Y-65399510D01*
X96004949Y-65423835D01*
X96008307Y-65448939D01*
X96010440Y-65474825D01*
X96011356Y-65501499D01*
X96011063Y-65528963D01*
X96009568Y-65557222D01*
X96006879Y-65586279D01*
X96003005Y-65616138D01*
X95905109Y-66306700D01*
X95903675Y-66306445D01*
X95833672Y-66801470D01*
X95828741Y-66831330D01*
X95822877Y-66860387D01*
X95816074Y-66888645D01*
X95808330Y-66916109D01*
X95799640Y-66942783D01*
X95790000Y-66968670D01*
X95779407Y-66993773D01*
X95767857Y-67018098D01*
X95755345Y-67041648D01*
X95741869Y-67064426D01*
X95727423Y-67086437D01*
X95712005Y-67107684D01*
X95695610Y-67128172D01*
X95678235Y-67147904D01*
X95659875Y-67166884D01*
X95640526Y-67185116D01*
X95620435Y-67201952D01*
X95599847Y-67217729D01*
X95578763Y-67232445D01*
X95557183Y-67246095D01*
X95535107Y-67258675D01*
X95512534Y-67270181D01*
X95489466Y-67280610D01*
X95465902Y-67289958D01*
X95441841Y-67298220D01*
X95417285Y-67305393D01*
X95392232Y-67311474D01*
X95366683Y-67316457D01*
X95340638Y-67320340D01*
X95314097Y-67323118D01*
X95287060Y-67324788D01*
X95259527Y-67325346D01*
X95076964Y-67325346D01*
X94944673Y-68280491D01*
X94627172Y-68280491D01*
X94805659Y-67007846D01*
X95121943Y-67007846D01*
X95304505Y-67007846D01*
X95326706Y-67007070D01*
X95337342Y-67006098D01*
X95347670Y-67004735D01*
X95357690Y-67002982D01*
X95367402Y-67000835D01*
X95376807Y-66998295D01*
X95385906Y-66995361D01*
X95394698Y-66992032D01*
X95403184Y-66988306D01*
X95411366Y-66984183D01*
X95419242Y-66979662D01*
X95426814Y-66974742D01*
X95434083Y-66969421D01*
X95441048Y-66963699D01*
X95447711Y-66957575D01*
X95454071Y-66951049D01*
X95460129Y-66944118D01*
X95465886Y-66936782D01*
X95471343Y-66929040D01*
X95476498Y-66920891D01*
X95481354Y-66912334D01*
X95485911Y-66903368D01*
X95490168Y-66893993D01*
X95494128Y-66884206D01*
X95497789Y-66874008D01*
X95504219Y-66852372D01*
X95509464Y-66829078D01*
X95513527Y-66804117D01*
X95598193Y-66211450D01*
X95598537Y-66211523D01*
X95682859Y-65618784D01*
X95684153Y-65606327D01*
X95685059Y-65594259D01*
X95685576Y-65582579D01*
X95685701Y-65571288D01*
X95685436Y-65560386D01*
X95684778Y-65549875D01*
X95683726Y-65539754D01*
X95682281Y-65530024D01*
X95680439Y-65520686D01*
X95678202Y-65511739D01*
X95675567Y-65503185D01*
X95672534Y-65495024D01*
X95669102Y-65487256D01*
X95665270Y-65479882D01*
X95661036Y-65472902D01*
X95656401Y-65466318D01*
X95651362Y-65460128D01*
X95645920Y-65454335D01*
X95640072Y-65448937D01*
X95633818Y-65443937D01*
X95627158Y-65439333D01*
X95620089Y-65435128D01*
X95612612Y-65431321D01*
X95604724Y-65427912D01*
X95596426Y-65424902D01*
X95587716Y-65422293D01*
X95578594Y-65420083D01*
X95569057Y-65418274D01*
X95559106Y-65416866D01*
X95548739Y-65415860D01*
X95537956Y-65415256D01*
X95526755Y-65415055D01*
X95344193Y-65415055D01*
X95121943Y-67007846D01*
X94805659Y-67007846D01*
X95074318Y-65092263D01*
X95574380Y-65092263D01*
X95601788Y-65092791D01*
G37*
G36*
X102345067Y-59596867D02*
G01*
X102225486Y-59599904D01*
X102107449Y-59608917D01*
X101991102Y-59623759D01*
X101876594Y-59644280D01*
X101764072Y-59670334D01*
X101653685Y-59701773D01*
X101545579Y-59738450D01*
X101439902Y-59780215D01*
X101336804Y-59826922D01*
X101236430Y-59878423D01*
X101138929Y-59934570D01*
X101044449Y-59995215D01*
X100953137Y-60060210D01*
X100865141Y-60129409D01*
X100780609Y-60202662D01*
X100699689Y-60279823D01*
X100622529Y-60360743D01*
X100549275Y-60445275D01*
X100480077Y-60533270D01*
X100415081Y-60624582D01*
X100354436Y-60719062D01*
X100298290Y-60816563D01*
X100246789Y-60916937D01*
X100200082Y-61020036D01*
X100158316Y-61125712D01*
X100121640Y-61233818D01*
X100090201Y-61344206D01*
X100064147Y-61456727D01*
X100043625Y-61571236D01*
X100028784Y-61687582D01*
X100019771Y-61805620D01*
X100016734Y-61925200D01*
X100019771Y-62044780D01*
X100028784Y-62162818D01*
X100043625Y-62279165D01*
X100064147Y-62393673D01*
X100090201Y-62506194D01*
X100121640Y-62616582D01*
X100158316Y-62724688D01*
X100200081Y-62830364D01*
X100246788Y-62933463D01*
X100298289Y-63033837D01*
X100354436Y-63131338D01*
X100415081Y-63225818D01*
X100480077Y-63317130D01*
X100549275Y-63405126D01*
X100622528Y-63489657D01*
X100699689Y-63570577D01*
X100780609Y-63647738D01*
X100865140Y-63720991D01*
X100953136Y-63790190D01*
X101044448Y-63855185D01*
X101138928Y-63915830D01*
X101236429Y-63971977D01*
X101336803Y-64023478D01*
X101439902Y-64070185D01*
X101545578Y-64111950D01*
X101653684Y-64148627D01*
X101764072Y-64180066D01*
X101876593Y-64206120D01*
X101991102Y-64226641D01*
X102107448Y-64241483D01*
X102225486Y-64250496D01*
X102345067Y-64253533D01*
X102464647Y-64250496D01*
X102582685Y-64241483D01*
X102699031Y-64226641D01*
X102813540Y-64206120D01*
X102926061Y-64180066D01*
X103036449Y-64148627D01*
X103144555Y-64111950D01*
X103250231Y-64070185D01*
X103353330Y-64023478D01*
X103453704Y-63971977D01*
X103551205Y-63915830D01*
X103645685Y-63855185D01*
X103736997Y-63790190D01*
X103824993Y-63720991D01*
X103909524Y-63647738D01*
X103990444Y-63570577D01*
X104067605Y-63489657D01*
X104140858Y-63405126D01*
X104210056Y-63317130D01*
X104275052Y-63225818D01*
X104335697Y-63131338D01*
X104391844Y-63033837D01*
X104443345Y-62933463D01*
X104490052Y-62830364D01*
X104531817Y-62724688D01*
X104568493Y-62616582D01*
X104599932Y-62506194D01*
X104625986Y-62393673D01*
X104646508Y-62279165D01*
X104661349Y-62162818D01*
X104670362Y-62044780D01*
X104673400Y-61925200D01*
X105308400Y-61925200D01*
X105304540Y-62077795D01*
X105293084Y-62228376D01*
X105274220Y-62376756D01*
X105248135Y-62522750D01*
X105215015Y-62666173D01*
X105175047Y-62806838D01*
X105128420Y-62944561D01*
X105075318Y-63079155D01*
X105015931Y-63210436D01*
X104950443Y-63338218D01*
X104879044Y-63462314D01*
X104801919Y-63582541D01*
X104719255Y-63698711D01*
X104631241Y-63810640D01*
X104538061Y-63918141D01*
X104439905Y-64021031D01*
X104336958Y-64119122D01*
X104229407Y-64212229D01*
X104117440Y-64300167D01*
X104001244Y-64382750D01*
X103881006Y-64459793D01*
X103756912Y-64531110D01*
X103629149Y-64596515D01*
X103497905Y-64655824D01*
X103363367Y-64708850D01*
X103225722Y-64755408D01*
X103085156Y-64795312D01*
X102941857Y-64828377D01*
X102796011Y-64854417D01*
X102647806Y-64873247D01*
X102497429Y-64884681D01*
X102345067Y-64888533D01*
X102192471Y-64884673D01*
X102041891Y-64873218D01*
X101893510Y-64854354D01*
X101747516Y-64828268D01*
X101604094Y-64795148D01*
X101463428Y-64755181D01*
X101325706Y-64708553D01*
X101191111Y-64655452D01*
X101059830Y-64596064D01*
X100932049Y-64530577D01*
X100807952Y-64459178D01*
X100687726Y-64382053D01*
X100571555Y-64299389D01*
X100459627Y-64211374D01*
X100352125Y-64118195D01*
X100249236Y-64020039D01*
X100151145Y-63917091D01*
X100058038Y-63809541D01*
X99970100Y-63697574D01*
X99887516Y-63581378D01*
X99810473Y-63461139D01*
X99739157Y-63337045D01*
X99673751Y-63209283D01*
X99614443Y-63078039D01*
X99561417Y-62943501D01*
X99514859Y-62805856D01*
X99474955Y-62665290D01*
X99441890Y-62521991D01*
X99415850Y-62376145D01*
X99397020Y-62227940D01*
X99385586Y-62077563D01*
X99381734Y-61925200D01*
X99385594Y-61772605D01*
X99397049Y-61622024D01*
X99415913Y-61473644D01*
X99441999Y-61327650D01*
X99475118Y-61184228D01*
X99515086Y-61043562D01*
X99561714Y-60905840D01*
X99614815Y-60771245D01*
X99674203Y-60639964D01*
X99739690Y-60512183D01*
X99811089Y-60388086D01*
X99888214Y-60267860D01*
X99970877Y-60151690D01*
X100058892Y-60039761D01*
X100152072Y-59932259D01*
X100250228Y-59829370D01*
X100353175Y-59731279D01*
X100460726Y-59638172D01*
X100572692Y-59550234D01*
X100688889Y-59467650D01*
X100809127Y-59390608D01*
X100933221Y-59319291D01*
X101060984Y-59253885D01*
X101192227Y-59194577D01*
X101326766Y-59141551D01*
X101464411Y-59094993D01*
X101604977Y-59055089D01*
X101748276Y-59022024D01*
X101894122Y-58995984D01*
X102042327Y-58977154D01*
X102192704Y-58965720D01*
X102345067Y-58961867D01*
X102345067Y-59596867D01*
G37*
D11*
X164592000Y-110429800D02*
G75*
G03X164592000Y-110429800I-1000000J0D01*
G01*
X164592000Y-70993000D02*
G75*
G03X164592000Y-70993000I-1000000J0D01*
G01*
X104073200Y-110429800D02*
G75*
G03X104073200Y-110429800I-1000000J0D01*
G01*
X104073200Y-70993000D02*
G75*
G03X104073200Y-70993000I-1000000J0D01*
G01*
M02*
