G04 #@! TF.GenerationSoftware,KiCad,Pcbnew,(5.1.4-0-10_14)*
G04 #@! TF.CreationDate,2019-10-30T02:49:39+09:00*
G04 #@! TF.ProjectId,nilgiri_hotswap,6e696c67-6972-4695-9f68-6f7473776170,rev?*
G04 #@! TF.SameCoordinates,Original*
G04 #@! TF.FileFunction,Legend,Top*
G04 #@! TF.FilePolarity,Positive*
%FSLAX46Y46*%
G04 Gerber Fmt 4.6, Leading zero omitted, Abs format (unit mm)*
G04 Created by KiCad (PCBNEW (5.1.4-0-10_14)) date 2019-10-30 02:49:39*
%MOMM*%
%LPD*%
G04 APERTURE LIST*
%ADD10C,0.120000*%
%ADD11C,0.200000*%
%ADD12C,0.150000*%
%ADD13C,0.100000*%
%ADD14C,0.010000*%
%ADD15C,0.400000*%
%ADD16C,0.125000*%
%ADD17R,3.102000X4.102000*%
%ADD18C,1.902000*%
%ADD19C,1.499000*%
%ADD20R,1.499000X1.499000*%
%ADD21C,3.602000*%
%ADD22C,4.089800*%
%ADD23C,1.852000*%
%ADD24C,1.052000*%
%ADD25O,1.002000X2.102000*%
%ADD26O,1.002000X1.802000*%
%ADD27R,0.402000X1.262000*%
%ADD28C,0.702000*%
%ADD29R,0.702000X1.262000*%
%ADD30C,4.202000*%
%ADD31C,1.702200*%
%ADD32R,1.102000X0.902000*%
%ADD33R,0.802000X1.602000*%
%ADD34C,1.002000*%
%ADD35R,1.402000X0.552000*%
%ADD36O,2.102000X1.552000*%
%ADD37O,1.902000X1.252000*%
%ADD38O,0.902000X0.902000*%
%ADD39C,2.102000*%
%ADD40R,2.102000X3.302000*%
%ADD41R,2.102000X2.102000*%
%ADD42O,1.802000X1.802000*%
%ADD43R,1.802000X1.802000*%
%ADD44C,0.500000*%
G04 APERTURE END LIST*
D10*
X184300000Y-90100000D02*
G75*
G03X184300000Y-90100000I-10000000J0D01*
G01*
X184400000Y-68600000D02*
G75*
G03X184400000Y-68600000I-10000000J0D01*
G01*
D11*
X90297000Y-41148000D02*
X90297000Y-53721000D01*
X87884000Y-41021000D02*
X90297000Y-41021000D01*
X90424000Y-56261000D02*
X87750000Y-56250000D01*
X87884000Y-41148000D02*
X87884000Y-53721000D01*
X90424000Y-38354000D02*
X90424000Y-56261000D01*
X87757000Y-38354000D02*
X90424000Y-38354000D01*
X87884000Y-53721000D02*
X90297000Y-53721000D01*
X87750000Y-56250000D02*
X87757000Y-38354000D01*
D12*
X88681766Y-52964633D02*
X88848433Y-52964633D01*
X88781766Y-53131300D02*
X88848433Y-52964633D01*
X88781766Y-52797966D01*
X88981766Y-53064633D02*
X88848433Y-52964633D01*
X88981766Y-52864633D01*
X89015100Y-52297966D02*
X89015100Y-52531300D01*
X89381766Y-52531300D02*
X88681766Y-52531300D01*
X88681766Y-52197966D01*
X88681766Y-51797966D02*
X88681766Y-51664633D01*
X88715100Y-51597966D01*
X88781766Y-51531300D01*
X88915100Y-51497966D01*
X89148433Y-51497966D01*
X89281766Y-51531300D01*
X89348433Y-51597966D01*
X89381766Y-51664633D01*
X89381766Y-51797966D01*
X89348433Y-51864633D01*
X89281766Y-51931300D01*
X89148433Y-51964633D01*
X88915100Y-51964633D01*
X88781766Y-51931300D01*
X88715100Y-51864633D01*
X88681766Y-51797966D01*
X89381766Y-50797966D02*
X89048433Y-51031300D01*
X89381766Y-51197966D02*
X88681766Y-51197966D01*
X88681766Y-50931300D01*
X88715100Y-50864633D01*
X88748433Y-50831300D01*
X88815100Y-50797966D01*
X88915100Y-50797966D01*
X88981766Y-50831300D01*
X89015100Y-50864633D01*
X89048433Y-50931300D01*
X89048433Y-51197966D01*
X89015100Y-49731300D02*
X89048433Y-49631300D01*
X89081766Y-49597966D01*
X89148433Y-49564633D01*
X89248433Y-49564633D01*
X89315100Y-49597966D01*
X89348433Y-49631300D01*
X89381766Y-49697966D01*
X89381766Y-49964633D01*
X88681766Y-49964633D01*
X88681766Y-49731300D01*
X88715100Y-49664633D01*
X88748433Y-49631300D01*
X88815100Y-49597966D01*
X88881766Y-49597966D01*
X88948433Y-49631300D01*
X88981766Y-49664633D01*
X89015100Y-49731300D01*
X89015100Y-49964633D01*
X89381766Y-48931300D02*
X89381766Y-49264633D01*
X88681766Y-49264633D01*
X89015100Y-48697966D02*
X89015100Y-48464633D01*
X89381766Y-48364633D02*
X89381766Y-48697966D01*
X88681766Y-48697966D01*
X88681766Y-48364633D01*
X89381766Y-47531300D02*
X88681766Y-47531300D01*
X89181766Y-47297966D01*
X88681766Y-47064633D01*
X89381766Y-47064633D01*
X89381766Y-46731300D02*
X88681766Y-46731300D01*
X89315100Y-45997966D02*
X89348433Y-46031300D01*
X89381766Y-46131300D01*
X89381766Y-46197966D01*
X89348433Y-46297966D01*
X89281766Y-46364633D01*
X89215100Y-46397966D01*
X89081766Y-46431300D01*
X88981766Y-46431300D01*
X88848433Y-46397966D01*
X88781766Y-46364633D01*
X88715100Y-46297966D01*
X88681766Y-46197966D01*
X88681766Y-46131300D01*
X88715100Y-46031300D01*
X88748433Y-45997966D01*
X89381766Y-45297966D02*
X89048433Y-45531300D01*
X89381766Y-45697966D02*
X88681766Y-45697966D01*
X88681766Y-45431300D01*
X88715100Y-45364633D01*
X88748433Y-45331300D01*
X88815100Y-45297966D01*
X88915100Y-45297966D01*
X88981766Y-45331300D01*
X89015100Y-45364633D01*
X89048433Y-45431300D01*
X89048433Y-45697966D01*
X88681766Y-44864633D02*
X88681766Y-44731300D01*
X88715100Y-44664633D01*
X88781766Y-44597966D01*
X88915100Y-44564633D01*
X89148433Y-44564633D01*
X89281766Y-44597966D01*
X89348433Y-44664633D01*
X89381766Y-44731300D01*
X89381766Y-44864633D01*
X89348433Y-44931300D01*
X89281766Y-44997966D01*
X89148433Y-45031300D01*
X88915100Y-45031300D01*
X88781766Y-44997966D01*
X88715100Y-44931300D01*
X88681766Y-44864633D01*
X89381766Y-43731300D02*
X88681766Y-43731300D01*
X88681766Y-43464633D01*
X88715100Y-43397966D01*
X88748433Y-43364633D01*
X88815100Y-43331300D01*
X88915100Y-43331300D01*
X88981766Y-43364633D01*
X89015100Y-43397966D01*
X89048433Y-43464633D01*
X89048433Y-43731300D01*
X89381766Y-42631300D02*
X89048433Y-42864633D01*
X89381766Y-43031300D02*
X88681766Y-43031300D01*
X88681766Y-42764633D01*
X88715100Y-42697966D01*
X88748433Y-42664633D01*
X88815100Y-42631300D01*
X88915100Y-42631300D01*
X88981766Y-42664633D01*
X89015100Y-42697966D01*
X89048433Y-42764633D01*
X89048433Y-43031300D01*
X88681766Y-42197966D02*
X88681766Y-42064633D01*
X88715100Y-41997966D01*
X88781766Y-41931300D01*
X88915100Y-41897966D01*
X89148433Y-41897966D01*
X89281766Y-41931300D01*
X89348433Y-41997966D01*
X89381766Y-42064633D01*
X89381766Y-42197966D01*
X89348433Y-42264633D01*
X89281766Y-42331300D01*
X89148433Y-42364633D01*
X88915100Y-42364633D01*
X88781766Y-42331300D01*
X88715100Y-42264633D01*
X88681766Y-42197966D01*
X88681766Y-41497966D02*
X88848433Y-41497966D01*
X88781766Y-41664633D02*
X88848433Y-41497966D01*
X88781766Y-41331300D01*
X88981766Y-41597966D02*
X88848433Y-41497966D01*
X88981766Y-41397966D01*
X159207200Y-63965228D02*
X159178628Y-64022371D01*
X159178628Y-64108086D01*
X159207200Y-64193800D01*
X159264342Y-64250943D01*
X159321485Y-64279514D01*
X159435771Y-64308086D01*
X159521485Y-64308086D01*
X159635771Y-64279514D01*
X159692914Y-64250943D01*
X159750057Y-64193800D01*
X159778628Y-64108086D01*
X159778628Y-64050943D01*
X159750057Y-63965228D01*
X159721485Y-63936657D01*
X159521485Y-63936657D01*
X159521485Y-64050943D01*
X159778628Y-63679514D02*
X159178628Y-63679514D01*
X159778628Y-63336657D01*
X159178628Y-63336657D01*
X159778628Y-63050943D02*
X159178628Y-63050943D01*
X159178628Y-62908086D01*
X159207200Y-62822371D01*
X159264342Y-62765228D01*
X159321485Y-62736657D01*
X159435771Y-62708086D01*
X159521485Y-62708086D01*
X159635771Y-62736657D01*
X159692914Y-62765228D01*
X159750057Y-62822371D01*
X159778628Y-62908086D01*
X159778628Y-63050943D01*
X161678628Y-64308085D02*
X162278628Y-64108085D01*
X161678628Y-63908085D01*
X162221485Y-63365227D02*
X162250057Y-63393799D01*
X162278628Y-63479513D01*
X162278628Y-63536656D01*
X162250057Y-63622370D01*
X162192914Y-63679513D01*
X162135771Y-63708085D01*
X162021485Y-63736656D01*
X161935771Y-63736656D01*
X161821485Y-63708085D01*
X161764342Y-63679513D01*
X161707200Y-63622370D01*
X161678628Y-63536656D01*
X161678628Y-63479513D01*
X161707200Y-63393799D01*
X161735771Y-63365227D01*
X162221485Y-62765227D02*
X162250057Y-62793799D01*
X162278628Y-62879513D01*
X162278628Y-62936656D01*
X162250057Y-63022370D01*
X162192914Y-63079513D01*
X162135771Y-63108085D01*
X162021485Y-63136656D01*
X161935771Y-63136656D01*
X161821485Y-63108085D01*
X161764342Y-63079513D01*
X161707200Y-63022370D01*
X161678628Y-62936656D01*
X161678628Y-62879513D01*
X161707200Y-62793799D01*
X161735771Y-62765227D01*
X161028628Y-64165227D02*
X160428628Y-64165227D01*
X160857200Y-63965227D01*
X160428628Y-63765227D01*
X161028628Y-63765227D01*
X160428628Y-63365227D02*
X160428628Y-63250942D01*
X160457200Y-63193799D01*
X160514342Y-63136656D01*
X160628628Y-63108085D01*
X160828628Y-63108085D01*
X160942914Y-63136656D01*
X161000057Y-63193799D01*
X161028628Y-63250942D01*
X161028628Y-63365227D01*
X161000057Y-63422370D01*
X160942914Y-63479513D01*
X160828628Y-63508085D01*
X160628628Y-63508085D01*
X160514342Y-63479513D01*
X160457200Y-63422370D01*
X160428628Y-63365227D01*
X161028628Y-62850942D02*
X160428628Y-62850942D01*
X162228628Y-61750941D02*
X161628628Y-61750941D01*
X162057200Y-61550941D01*
X161628628Y-61350941D01*
X162228628Y-61350941D01*
X162228628Y-61065227D02*
X161628628Y-61065227D01*
X161628628Y-60665227D02*
X161628628Y-60550941D01*
X161657200Y-60493799D01*
X161714342Y-60436656D01*
X161828628Y-60408084D01*
X162028628Y-60408084D01*
X162142914Y-60436656D01*
X162200057Y-60493799D01*
X162228628Y-60550941D01*
X162228628Y-60665227D01*
X162200057Y-60722370D01*
X162142914Y-60779513D01*
X162028628Y-60808084D01*
X161828628Y-60808084D01*
X161714342Y-60779513D01*
X161657200Y-60722370D01*
X161628628Y-60665227D01*
X161050057Y-61865228D02*
X161078628Y-61779514D01*
X161078628Y-61636657D01*
X161050057Y-61579514D01*
X161021485Y-61550942D01*
X160964342Y-61522371D01*
X160907200Y-61522371D01*
X160850057Y-61550942D01*
X160821485Y-61579514D01*
X160792914Y-61636657D01*
X160764342Y-61750942D01*
X160735771Y-61808085D01*
X160707200Y-61836657D01*
X160650057Y-61865228D01*
X160592914Y-61865228D01*
X160535771Y-61836657D01*
X160507200Y-61808085D01*
X160478628Y-61750942D01*
X160478628Y-61608085D01*
X160507200Y-61522371D01*
X161021485Y-60922371D02*
X161050057Y-60950942D01*
X161078628Y-61036657D01*
X161078628Y-61093800D01*
X161050057Y-61179514D01*
X160992914Y-61236657D01*
X160935771Y-61265228D01*
X160821485Y-61293800D01*
X160735771Y-61293800D01*
X160621485Y-61265228D01*
X160564342Y-61236657D01*
X160507200Y-61179514D01*
X160478628Y-61093800D01*
X160478628Y-61036657D01*
X160507200Y-60950942D01*
X160535771Y-60922371D01*
X161078628Y-60665228D02*
X160478628Y-60665228D01*
X161078628Y-60322371D02*
X160735771Y-60579514D01*
X160478628Y-60322371D02*
X160821485Y-60665228D01*
X159828628Y-61422371D02*
X159542914Y-61622371D01*
X159828628Y-61765228D02*
X159228628Y-61765228D01*
X159228628Y-61536657D01*
X159257200Y-61479514D01*
X159285771Y-61450942D01*
X159342914Y-61422371D01*
X159428628Y-61422371D01*
X159485771Y-61450942D01*
X159514342Y-61479514D01*
X159542914Y-61536657D01*
X159542914Y-61765228D01*
X159800057Y-61193800D02*
X159828628Y-61108085D01*
X159828628Y-60965228D01*
X159800057Y-60908085D01*
X159771485Y-60879514D01*
X159714342Y-60850942D01*
X159657200Y-60850942D01*
X159600057Y-60879514D01*
X159571485Y-60908085D01*
X159542914Y-60965228D01*
X159514342Y-61079514D01*
X159485771Y-61136657D01*
X159457200Y-61165228D01*
X159400057Y-61193800D01*
X159342914Y-61193800D01*
X159285771Y-61165228D01*
X159257200Y-61136657D01*
X159228628Y-61079514D01*
X159228628Y-60936657D01*
X159257200Y-60850942D01*
X159228628Y-60679514D02*
X159228628Y-60336657D01*
X159828628Y-60508085D02*
X159228628Y-60508085D01*
D10*
X176250001Y-47000000D02*
G75*
G03X176250001Y-47000000I-8796114J0D01*
G01*
X159250000Y-43450000D02*
X155250000Y-43450000D01*
X155250000Y-43450000D02*
X155250000Y-50450000D01*
X155250000Y-50450000D02*
X159250000Y-50450000D01*
X175600000Y-50450000D02*
X179650000Y-50450000D01*
X179650000Y-50450000D02*
X179650000Y-43450000D01*
X179650000Y-43450000D02*
X175650000Y-43450000D01*
D12*
X143141000Y-80993000D02*
X144641000Y-80993000D01*
X143141000Y-86393000D02*
X143141000Y-80993000D01*
X144641000Y-86393000D02*
X143141000Y-86393000D01*
X144641000Y-80993000D02*
X144641000Y-86393000D01*
X144391000Y-84193000D02*
X143391000Y-84193000D01*
X143391000Y-83193000D02*
X143891000Y-84093000D01*
X144391000Y-83193000D02*
X143391000Y-83193000D01*
X143891000Y-84093000D02*
X144391000Y-83193000D01*
D10*
X147842227Y-47000000D02*
G75*
G03X147842227Y-47000000I-8796114J0D01*
G01*
X147250000Y-50550000D02*
X151250000Y-50550000D01*
X151250000Y-50550000D02*
X151250000Y-43550000D01*
X151250000Y-43550000D02*
X147250000Y-43550000D01*
X130900000Y-43550000D02*
X126850000Y-43550000D01*
X126850000Y-43550000D02*
X126850000Y-50550000D01*
X126850000Y-50550000D02*
X130850000Y-50550000D01*
D12*
X101600000Y-74600000D02*
X102600000Y-74600000D01*
X102600000Y-74600000D02*
X102600000Y-75600000D01*
X101600000Y-88600000D02*
X102600000Y-88600000D01*
X102600000Y-88600000D02*
X102600000Y-87600000D01*
X88600000Y-87600000D02*
X88600000Y-88600000D01*
X88600000Y-88600000D02*
X89600000Y-88600000D01*
X89600000Y-74600000D02*
X88600000Y-74600000D01*
X88600000Y-74600000D02*
X88600000Y-75600000D01*
X120800000Y-65100000D02*
X121800000Y-65100000D01*
X121800000Y-65100000D02*
X121800000Y-66100000D01*
X120800000Y-79100000D02*
X121800000Y-79100000D01*
X121800000Y-79100000D02*
X121800000Y-78100000D01*
X107800000Y-78100000D02*
X107800000Y-79100000D01*
X107800000Y-79100000D02*
X108800000Y-79100000D01*
X108800000Y-65100000D02*
X107800000Y-65100000D01*
X107800000Y-65100000D02*
X107800000Y-66100000D01*
D10*
X147456000Y-59463000D02*
X144996000Y-59463000D01*
X147456000Y-60933000D02*
X147456000Y-59463000D01*
X144996000Y-60933000D02*
X147456000Y-60933000D01*
D12*
X120700000Y-107700000D02*
X121700000Y-107700000D01*
X121700000Y-107700000D02*
X121700000Y-108700000D01*
X120700000Y-121700000D02*
X121700000Y-121700000D01*
X121700000Y-121700000D02*
X121700000Y-120700000D01*
X107700000Y-120700000D02*
X107700000Y-121700000D01*
X107700000Y-121700000D02*
X108700000Y-121700000D01*
X108700000Y-107700000D02*
X107700000Y-107700000D01*
X107700000Y-107700000D02*
X107700000Y-108700000D01*
X111305600Y-58575000D02*
X111305600Y-58825000D01*
X105305600Y-58575000D02*
X111305600Y-58575000D01*
X105305600Y-58575000D02*
X105305600Y-58825000D01*
X105305600Y-62075000D02*
X105305600Y-61825000D01*
X111305600Y-62075000D02*
X111305600Y-61825000D01*
X105305600Y-62075000D02*
X111305600Y-62075000D01*
X139750000Y-79050000D02*
X140750000Y-79050000D01*
X140750000Y-79050000D02*
X140750000Y-80050000D01*
X139750000Y-93050000D02*
X140750000Y-93050000D01*
X140750000Y-93050000D02*
X140750000Y-92050000D01*
X126750000Y-92050000D02*
X126750000Y-93050000D01*
X126750000Y-93050000D02*
X127750000Y-93050000D01*
X127750000Y-79050000D02*
X126750000Y-79050000D01*
X126750000Y-79050000D02*
X126750000Y-80050000D01*
X181857288Y-107391433D02*
X182823214Y-107650253D01*
X182823214Y-107650253D02*
X182564395Y-108616178D01*
X178233822Y-120914395D02*
X179199747Y-121173214D01*
X179199747Y-121173214D02*
X179458567Y-120207288D01*
X165935605Y-116583822D02*
X165676786Y-117549747D01*
X165676786Y-117549747D02*
X166642712Y-117808567D01*
X170266178Y-104285605D02*
X169300253Y-104026786D01*
X169300253Y-104026786D02*
X169041433Y-104992712D01*
X158750000Y-88550000D02*
X159750000Y-88550000D01*
X159750000Y-88550000D02*
X159750000Y-89550000D01*
X158750000Y-102550000D02*
X159750000Y-102550000D01*
X159750000Y-102550000D02*
X159750000Y-101550000D01*
X145750000Y-101550000D02*
X145750000Y-102550000D01*
X145750000Y-102550000D02*
X146750000Y-102550000D01*
X146750000Y-88550000D02*
X145750000Y-88550000D01*
X145750000Y-88550000D02*
X145750000Y-89550000D01*
X158750000Y-69550000D02*
X159750000Y-69550000D01*
X159750000Y-69550000D02*
X159750000Y-70550000D01*
X158750000Y-83550000D02*
X159750000Y-83550000D01*
X159750000Y-83550000D02*
X159750000Y-82550000D01*
X145750000Y-82550000D02*
X145750000Y-83550000D01*
X145750000Y-83550000D02*
X146750000Y-83550000D01*
X146750000Y-69550000D02*
X145750000Y-69550000D01*
X145750000Y-69550000D02*
X145750000Y-70550000D01*
X158750000Y-107700000D02*
X159750000Y-107700000D01*
X159750000Y-107700000D02*
X159750000Y-108700000D01*
X158750000Y-121700000D02*
X159750000Y-121700000D01*
X159750000Y-121700000D02*
X159750000Y-120700000D01*
X145750000Y-120700000D02*
X145750000Y-121700000D01*
X145750000Y-121700000D02*
X146750000Y-121700000D01*
X146750000Y-107700000D02*
X145750000Y-107700000D01*
X145750000Y-107700000D02*
X145750000Y-108700000D01*
X139700000Y-60050000D02*
X140700000Y-60050000D01*
X140700000Y-60050000D02*
X140700000Y-61050000D01*
X139700000Y-74050000D02*
X140700000Y-74050000D01*
X140700000Y-74050000D02*
X140700000Y-73050000D01*
X126700000Y-73050000D02*
X126700000Y-74050000D01*
X126700000Y-74050000D02*
X127700000Y-74050000D01*
X127700000Y-60050000D02*
X126700000Y-60050000D01*
X126700000Y-60050000D02*
X126700000Y-61050000D01*
X139750000Y-107700000D02*
X140750000Y-107700000D01*
X140750000Y-107700000D02*
X140750000Y-108700000D01*
X139750000Y-121700000D02*
X140750000Y-121700000D01*
X140750000Y-121700000D02*
X140750000Y-120700000D01*
X126750000Y-120700000D02*
X126750000Y-121700000D01*
X126750000Y-121700000D02*
X127750000Y-121700000D01*
X127750000Y-107700000D02*
X126750000Y-107700000D01*
X126750000Y-107700000D02*
X126750000Y-108700000D01*
X120750000Y-84000000D02*
X121750000Y-84000000D01*
X121750000Y-84000000D02*
X121750000Y-85000000D01*
X120750000Y-98000000D02*
X121750000Y-98000000D01*
X121750000Y-98000000D02*
X121750000Y-97000000D01*
X107750000Y-97000000D02*
X107750000Y-98000000D01*
X107750000Y-98000000D02*
X108750000Y-98000000D01*
X108750000Y-84000000D02*
X107750000Y-84000000D01*
X107750000Y-84000000D02*
X107750000Y-85000000D01*
X101560000Y-93680000D02*
X102560000Y-93680000D01*
X102560000Y-93680000D02*
X102560000Y-94680000D01*
X101560000Y-107680000D02*
X102560000Y-107680000D01*
X102560000Y-107680000D02*
X102560000Y-106680000D01*
X88560000Y-106680000D02*
X88560000Y-107680000D01*
X88560000Y-107680000D02*
X89560000Y-107680000D01*
X89560000Y-93680000D02*
X88560000Y-93680000D01*
X88560000Y-93680000D02*
X88560000Y-94680000D01*
D13*
G36*
X100925000Y-119079000D02*
G01*
X100919835Y-119508616D01*
X101205000Y-119509000D01*
X101205000Y-118879000D01*
X101195000Y-118799000D01*
X101175000Y-118709000D01*
X101145000Y-118639000D01*
X101085000Y-118569000D01*
X101025000Y-118529000D01*
X100945000Y-118489000D01*
X100865000Y-118469000D01*
X100785000Y-118459000D01*
X100741896Y-118461135D01*
X100595000Y-118469000D01*
X100455000Y-118499000D01*
X100340025Y-118544334D01*
X100413406Y-118768437D01*
X100475000Y-118749000D01*
X100585000Y-118719000D01*
X100699521Y-118712455D01*
X100785000Y-118719000D01*
X100865000Y-118759000D01*
X100905000Y-118809000D01*
X100915000Y-118849000D01*
X100925000Y-118929000D01*
X100925000Y-119079000D01*
G37*
G36*
X100919835Y-119396478D02*
G01*
X100875000Y-119439000D01*
X100775000Y-119499000D01*
X100645000Y-119529000D01*
X100585000Y-119529000D01*
X100495000Y-119519000D01*
X100415000Y-119489000D01*
X100355000Y-119449000D01*
X100305000Y-119389000D01*
X100265000Y-119319000D01*
X100255000Y-119229000D01*
X100255000Y-119169000D01*
X100275000Y-119069000D01*
X100325000Y-118989000D01*
X100395000Y-118939000D01*
X100465000Y-118909000D01*
X100525000Y-118889000D01*
X100605000Y-118879000D01*
X100668515Y-118876613D01*
X100755000Y-118879000D01*
X100855000Y-118899000D01*
X100921730Y-118919160D01*
X100975000Y-118949000D01*
X100995000Y-119119000D01*
X100925519Y-119091243D01*
X100835000Y-119059000D01*
X100738106Y-119052486D01*
X100665000Y-119059000D01*
X100605000Y-119079000D01*
X100555000Y-119119000D01*
X100535000Y-119179000D01*
X100535000Y-119209000D01*
X100555000Y-119269000D01*
X100585000Y-119299000D01*
X100635000Y-119319000D01*
X100695559Y-119324993D01*
X100765000Y-119319000D01*
X100805000Y-119309000D01*
X100845000Y-119289000D01*
X100865000Y-119269000D01*
X100905000Y-119229000D01*
X100925000Y-119169000D01*
X100925519Y-119143436D01*
X100995000Y-119159000D01*
X100995000Y-119399000D01*
X100919835Y-119396478D01*
G37*
G36*
X99785000Y-118809000D02*
G01*
X99795000Y-118839000D01*
X99815000Y-118919000D01*
X99995000Y-118659000D01*
X99975000Y-118629000D01*
X99785000Y-118809000D01*
G37*
G36*
X99590889Y-118453556D02*
G01*
X99505000Y-118459000D01*
X99415000Y-118479000D01*
X99285000Y-118549000D01*
X99195000Y-118639000D01*
X99135000Y-118739000D01*
X99095000Y-118839000D01*
X99078776Y-118996503D01*
X99085000Y-119099000D01*
X99115000Y-119209000D01*
X99155000Y-119289000D01*
X99225000Y-119379000D01*
X99315000Y-119449000D01*
X99425000Y-119499000D01*
X99535000Y-119529000D01*
X99619828Y-119531871D01*
X99755000Y-119519000D01*
X99855000Y-119489000D01*
X99955000Y-119429000D01*
X100043058Y-119338601D01*
X99874937Y-119189773D01*
X99785000Y-119259000D01*
X99705000Y-119289000D01*
X99623790Y-119296054D01*
X99545000Y-119289000D01*
X99465000Y-119249000D01*
X99415000Y-119199000D01*
X99385000Y-119139000D01*
X99370575Y-119093138D01*
X100091462Y-119093138D01*
X100095000Y-119009000D01*
X100085000Y-118879000D01*
X100065000Y-118789000D01*
X99995000Y-118649000D01*
X99809308Y-118909514D01*
X99366786Y-118909514D01*
X99395000Y-118819000D01*
X99435000Y-118759000D01*
X99485000Y-118719000D01*
X99525000Y-118699000D01*
X99590889Y-118689200D01*
X99665000Y-118699000D01*
X99735000Y-118739000D01*
X99785000Y-118809000D01*
X99985000Y-118639000D01*
X99935000Y-118579000D01*
X99855000Y-118519000D01*
X99785000Y-118489000D01*
X99725000Y-118469000D01*
X99645000Y-118459000D01*
X99590889Y-118453556D01*
G37*
G36*
X97881670Y-118430301D02*
G01*
X97881670Y-118155900D01*
X99002531Y-118155900D01*
X99002531Y-118430301D01*
X97881670Y-118430301D01*
G37*
G36*
X98293359Y-118430301D02*
G01*
X98591015Y-118430301D01*
X98591015Y-119508616D01*
X98293359Y-119508616D01*
X98293359Y-118430301D01*
G37*
G36*
X96285000Y-118649000D02*
G01*
X96305000Y-118609000D01*
X96355000Y-118539000D01*
X96415000Y-118499000D01*
X96465000Y-118469000D01*
X96535000Y-118459000D01*
X96605000Y-118459000D01*
X96601644Y-118760686D01*
X96545000Y-118759000D01*
X96465000Y-118779000D01*
X96385000Y-118819000D01*
X96315000Y-118899000D01*
X96285000Y-118999000D01*
X96275000Y-119099000D01*
X96271087Y-119508616D01*
X95977393Y-119508616D01*
X95977393Y-118472848D01*
X96271087Y-118472848D01*
X96275000Y-118669000D01*
X96285000Y-118649000D01*
G37*
D14*
X96798187Y-118472848D02*
X97092053Y-118472848D01*
X97092053Y-118472848D02*
X97092053Y-119508616D01*
X97092053Y-119508616D02*
X96798187Y-119508616D01*
X96798187Y-119508616D02*
X96798187Y-118472848D01*
D13*
G36*
X96790608Y-118097850D02*
G01*
X97099805Y-118097850D01*
X97099805Y-118358816D01*
X96790608Y-118358816D01*
X96790608Y-118097850D01*
G37*
G36*
X96798187Y-118472848D02*
G01*
X97092053Y-118472848D01*
X97092053Y-119508616D01*
X96798187Y-119508616D01*
X96798187Y-118472848D01*
G37*
D14*
X95407574Y-118472848D02*
X95701440Y-118472848D01*
X95701440Y-118472848D02*
X95701440Y-119508616D01*
X95701440Y-119508616D02*
X95407574Y-119508616D01*
X95407574Y-119508616D02*
X95407574Y-118472848D01*
D13*
G36*
X95399995Y-118097850D02*
G01*
X95709192Y-118097850D01*
X95709192Y-118358816D01*
X95399995Y-118358816D01*
X95399995Y-118097850D01*
G37*
G36*
X95407574Y-118472848D02*
G01*
X95701440Y-118472848D01*
X95701440Y-119508616D01*
X95407574Y-119508616D01*
X95407574Y-118472848D01*
G37*
G36*
X94055000Y-119039000D02*
G01*
X94065000Y-119099000D01*
X94085000Y-119159000D01*
X94125000Y-119229000D01*
X94165000Y-119279000D01*
X94215000Y-119329000D01*
X94265000Y-119359000D01*
X94345000Y-119399000D01*
X94445000Y-119419000D01*
X94504098Y-119423522D01*
X94575000Y-119419000D01*
X94655000Y-119399000D01*
X94735000Y-119359000D01*
X94785000Y-119319000D01*
X94855000Y-119249000D01*
X94825000Y-119039000D01*
X94775000Y-119109000D01*
X94715000Y-119149000D01*
X94665000Y-119169000D01*
X94605000Y-119179000D01*
X94505000Y-119169000D01*
X94425000Y-119129000D01*
X94375000Y-119069000D01*
X94345000Y-119019000D01*
X94335000Y-118979000D01*
X94055000Y-119039000D01*
G37*
G36*
X94845000Y-118939000D02*
G01*
X94835000Y-118859000D01*
X94795000Y-118789000D01*
X94745000Y-118739000D01*
X94685000Y-118709000D01*
X94625000Y-118699000D01*
X94589020Y-118696952D01*
X94505000Y-118709000D01*
X94435000Y-118739000D01*
X94395000Y-118779000D01*
X94365000Y-118829000D01*
X94345000Y-118879000D01*
X94337872Y-118940520D01*
X94345000Y-118989000D01*
X94055000Y-119039000D01*
X94045000Y-118979000D01*
X94044178Y-118940520D01*
X94045000Y-118869000D01*
X94065000Y-118779000D01*
X94105000Y-118679000D01*
X94165000Y-118599000D01*
X94215000Y-118549000D01*
X94275000Y-118509000D01*
X94345000Y-118479000D01*
X94425000Y-118459000D01*
X94504098Y-118453556D01*
X94585000Y-118459000D01*
X94635000Y-118469000D01*
X94705000Y-118499000D01*
X94755000Y-118529000D01*
X94815000Y-118579000D01*
X94845000Y-118609000D01*
X94845000Y-118469000D01*
X95135000Y-118469000D01*
X95135000Y-119289000D01*
X95125000Y-119419000D01*
X95105000Y-119519000D01*
X95085000Y-119569000D01*
X95065000Y-119599000D01*
X95025000Y-119669000D01*
X94955000Y-119729000D01*
X94915000Y-119749000D01*
X94855000Y-119779000D01*
X94795000Y-119799000D01*
X94735000Y-119809000D01*
X94645000Y-119819000D01*
X94554224Y-119821603D01*
X94475000Y-119819000D01*
X94385000Y-119809000D01*
X94315000Y-119799000D01*
X94215000Y-119769000D01*
X94145000Y-119739000D01*
X94096371Y-119713427D01*
X94196795Y-119493113D01*
X94265000Y-119529000D01*
X94315000Y-119549000D01*
X94385000Y-119569000D01*
X94445000Y-119579000D01*
X94546645Y-119587853D01*
X94645000Y-119579000D01*
X94705000Y-119559000D01*
X94765000Y-119519000D01*
X94805000Y-119469000D01*
X94825000Y-119419000D01*
X94845000Y-119339000D01*
X94842234Y-119255402D01*
X94815000Y-119059000D01*
X94835000Y-119009000D01*
X94845000Y-118939000D01*
G37*
G36*
X93520696Y-119508616D02*
G01*
X93814562Y-119508616D01*
X93814562Y-118097850D01*
X93520696Y-118097850D01*
X93520696Y-119508616D01*
G37*
G36*
X92937441Y-118472848D02*
G01*
X93231307Y-118472848D01*
X93231307Y-119508616D01*
X92937441Y-119508616D01*
X92937441Y-118472848D01*
G37*
G36*
X92929862Y-118097850D02*
G01*
X93239059Y-118097850D01*
X93239059Y-118358816D01*
X92929862Y-118358816D01*
X92929862Y-118097850D01*
G37*
G36*
X91429006Y-118155900D02*
G01*
X91703408Y-118155900D01*
X92337305Y-118988751D01*
X92337305Y-118155900D01*
X92631000Y-118155900D01*
X92631000Y-119508616D01*
X92377957Y-119508616D01*
X91722872Y-118648720D01*
X91722872Y-119508616D01*
X91429006Y-119508616D01*
X91429006Y-118155900D01*
G37*
D14*
X98293359Y-119508616D02*
X98293359Y-118430301D01*
X98591015Y-119508616D02*
X98293359Y-119508616D01*
X98591015Y-118430301D02*
X98591015Y-119508616D01*
X99002531Y-118430301D02*
X98591015Y-118430301D01*
X99002531Y-118155900D02*
X99002531Y-118430301D01*
X97881670Y-118155900D02*
X99002531Y-118155900D01*
X97881670Y-118430301D02*
X97881670Y-118155900D01*
X98293359Y-118430301D02*
X97881670Y-118430301D01*
X96798187Y-119508616D02*
X96798187Y-118472848D01*
X97092054Y-119508616D02*
X96798187Y-119508616D01*
X97092054Y-118472848D02*
X97092054Y-119508616D01*
X96798187Y-118472848D02*
X97092054Y-118472848D01*
X96790608Y-118358816D02*
X96790608Y-118097850D01*
X97099805Y-118358816D02*
X96790608Y-118358816D01*
X97099805Y-118097850D02*
X97099805Y-118358816D01*
X96790608Y-118097850D02*
X97099805Y-118097850D01*
X91429006Y-119508616D02*
X91429006Y-118155900D01*
X92337305Y-118155900D02*
X92631000Y-118155900D01*
X91703408Y-118155900D02*
X92337305Y-118988751D01*
X91429006Y-118155900D02*
X91703408Y-118155900D01*
X95701441Y-118472848D02*
X95701441Y-119508616D01*
X95407574Y-118472848D02*
X95701441Y-118472848D01*
X95399995Y-118358816D02*
X95399995Y-118097850D01*
X95709192Y-118358816D02*
X95399995Y-118358816D01*
X95709192Y-118097850D02*
X95709192Y-118358816D01*
X95399995Y-118097850D02*
X95709192Y-118097850D01*
X93520696Y-119508616D02*
X93520696Y-118097850D01*
X93814562Y-119508616D02*
X93520696Y-119508616D01*
X93814562Y-118097850D02*
X93814562Y-119508616D01*
X93520696Y-118097850D02*
X93814562Y-118097850D01*
X92937441Y-119508616D02*
X92937441Y-118472848D01*
X93231307Y-119508616D02*
X92937441Y-119508616D01*
X93231307Y-118472848D02*
X93231307Y-119508616D01*
X92937441Y-118472848D02*
X93231307Y-118472848D01*
X91722872Y-119508616D02*
X91429006Y-119508616D01*
X91722872Y-118648720D02*
X91722872Y-119508616D01*
X95407574Y-119508616D02*
X95407574Y-118472848D01*
X95701441Y-119508616D02*
X95407574Y-119508616D01*
X92631000Y-119508616D02*
X92377957Y-119508616D01*
X92337305Y-118988751D02*
X92337305Y-118155900D01*
X92377957Y-119508616D02*
X91722872Y-118648720D01*
X92631000Y-118155900D02*
X92631000Y-119508616D01*
D10*
X94132800Y-58025000D02*
X103072800Y-58025000D01*
X94132800Y-63535000D02*
X94132800Y-61735000D01*
X94132800Y-58025000D02*
X94132800Y-59485000D01*
X103072800Y-58025000D02*
X103072800Y-59485000D01*
X103072800Y-63535000D02*
X103072800Y-61735000D01*
D15*
X183784000Y-41640000D02*
G75*
G03X183784000Y-41640000I-2000000J0D01*
G01*
X183784000Y-53020000D02*
G75*
G03X183784000Y-53020000I-2000000J0D01*
G01*
X126206000Y-41640000D02*
G75*
G03X126206000Y-41640000I-2000000J0D01*
G01*
X126206000Y-53020000D02*
G75*
G03X126206000Y-53020000I-2000000J0D01*
G01*
D12*
X85650000Y-47500000D02*
X85650000Y-47200000D01*
X85500000Y-47600000D02*
X85500000Y-47100000D01*
X85350000Y-47700000D02*
X85350000Y-47000000D01*
X85850000Y-47350000D02*
X85200000Y-47850000D01*
X85200000Y-46850000D02*
X85850000Y-47350000D01*
X85200000Y-47850000D02*
X85200000Y-46850000D01*
X84850000Y-43600000D02*
X84850000Y-51100000D01*
X86150000Y-43600000D02*
X84850000Y-43600000D01*
X86150000Y-51100000D02*
X86150000Y-43600000D01*
X84850000Y-51100000D02*
X86150000Y-51100000D01*
X87750000Y-56250000D02*
X88750000Y-56250000D01*
X87750000Y-38450000D02*
X88750000Y-38450000D01*
X87750000Y-56250000D02*
X87750000Y-55250000D01*
X87750000Y-38450000D02*
X87750000Y-39400000D01*
X119750000Y-56250000D02*
X120800000Y-56250000D01*
X119800000Y-38450000D02*
X120800000Y-38450000D01*
X120800000Y-56250000D02*
X120800000Y-55250000D01*
X120800000Y-38450000D02*
X120800000Y-39460000D01*
D10*
X149650000Y-38480000D02*
X149650000Y-39270000D01*
X156550000Y-39270000D02*
X156550000Y-38480000D01*
X154700000Y-40320000D02*
X153000000Y-40320000D01*
X155950000Y-37470000D02*
X150250000Y-37470000D01*
X153200000Y-36180000D02*
X153200000Y-37470000D01*
X154300000Y-35970000D02*
X153400000Y-35970000D01*
X154500000Y-37470000D02*
X154500000Y-36180000D01*
X153200000Y-36180000D02*
X153400000Y-35970000D01*
X154500000Y-36180000D02*
X154300000Y-35970000D01*
X151700000Y-40320000D02*
X151500000Y-40320000D01*
D15*
X166388800Y-111302800D02*
G75*
G03X166388800Y-111302800I-2000000J0D01*
G01*
X166388800Y-70866000D02*
G75*
G03X166388800Y-70866000I-2000000J0D01*
G01*
X104870000Y-111302800D02*
G75*
G03X104870000Y-111302800I-2000000J0D01*
G01*
X104870000Y-70866000D02*
G75*
G03X104870000Y-70866000I-2000000J0D01*
G01*
D12*
X90591400Y-62448800D02*
X89191400Y-62448800D01*
X86791400Y-62448800D02*
X86641400Y-62448800D01*
X86641400Y-62448800D02*
X86641400Y-62748800D01*
X86641400Y-62748800D02*
X86191400Y-62748800D01*
X86191400Y-70448800D02*
X86641400Y-70448800D01*
X86641400Y-70448800D02*
X86641400Y-70748800D01*
X86641400Y-70748800D02*
X86791400Y-70748800D01*
X89191400Y-70748800D02*
X90591400Y-70748800D01*
X92766400Y-65523800D02*
X92766400Y-64798800D01*
X92766400Y-64798800D02*
X92341400Y-64798800D01*
X92341400Y-64798800D02*
X92341400Y-63798800D01*
X92341400Y-68398800D02*
X92341400Y-69398800D01*
D10*
X174400000Y-68100000D02*
X174400000Y-69100000D01*
X174900000Y-68600000D02*
X173900000Y-68600000D01*
X170900000Y-74700000D02*
X168500000Y-74700000D01*
X175700000Y-74700000D02*
X173100000Y-74700000D01*
X180300000Y-74700000D02*
X177900000Y-74700000D01*
X178500000Y-61400000D02*
X178200000Y-61100000D01*
X178500000Y-60800000D02*
X178500000Y-61400000D01*
X178200000Y-61100000D02*
X178500000Y-60800000D01*
X180300000Y-62500000D02*
X168500000Y-62500000D01*
X180300000Y-66600000D02*
X180300000Y-62500000D01*
X168500000Y-66600000D02*
X168500000Y-62500000D01*
X168500000Y-74700000D02*
X168500000Y-70600000D01*
X180300000Y-70600000D02*
X180300000Y-74700000D01*
X177400000Y-68600000D02*
G75*
G03X177400000Y-68600000I-3000000J0D01*
G01*
X174300000Y-89600000D02*
X174300000Y-90600000D01*
X174800000Y-90100000D02*
X173800000Y-90100000D01*
X170800000Y-96200000D02*
X168400000Y-96200000D01*
X175600000Y-96200000D02*
X173000000Y-96200000D01*
X180200000Y-96200000D02*
X177800000Y-96200000D01*
X178400000Y-82900000D02*
X178100000Y-82600000D01*
X178400000Y-82300000D02*
X178400000Y-82900000D01*
X178100000Y-82600000D02*
X178400000Y-82300000D01*
X180200000Y-84000000D02*
X168400000Y-84000000D01*
X180200000Y-88100000D02*
X180200000Y-84000000D01*
X168400000Y-88100000D02*
X168400000Y-84000000D01*
X168400000Y-96200000D02*
X168400000Y-92100000D01*
X180200000Y-92100000D02*
X180200000Y-96200000D01*
X177300000Y-90100000D02*
G75*
G03X177300000Y-90100000I-3000000J0D01*
G01*
D12*
X124091000Y-69944000D02*
X125591000Y-69944000D01*
X124091000Y-75344000D02*
X124091000Y-69944000D01*
X125591000Y-75344000D02*
X124091000Y-75344000D01*
X125591000Y-69944000D02*
X125591000Y-75344000D01*
X125341000Y-73144000D02*
X124341000Y-73144000D01*
X124341000Y-72144000D02*
X124841000Y-73044000D01*
X125341000Y-72144000D02*
X124341000Y-72144000D01*
X124841000Y-73044000D02*
X125341000Y-72144000D01*
X162250000Y-115925000D02*
X163750000Y-115925000D01*
X162250000Y-121325000D02*
X162250000Y-115925000D01*
X163750000Y-121325000D02*
X162250000Y-121325000D01*
X163750000Y-115925000D02*
X163750000Y-121325000D01*
X163500000Y-119125000D02*
X162500000Y-119125000D01*
X162500000Y-118125000D02*
X163000000Y-119025000D01*
X163500000Y-118125000D02*
X162500000Y-118125000D01*
X163000000Y-119025000D02*
X163500000Y-118125000D01*
X160133600Y-94940600D02*
X161633600Y-94940600D01*
X160133600Y-100340600D02*
X160133600Y-94940600D01*
X161633600Y-100340600D02*
X160133600Y-100340600D01*
X161633600Y-94940600D02*
X161633600Y-100340600D01*
X161383600Y-98140600D02*
X160383600Y-98140600D01*
X160383600Y-97140600D02*
X160883600Y-98040600D01*
X161383600Y-97140600D02*
X160383600Y-97140600D01*
X160883600Y-98040600D02*
X161383600Y-97140600D01*
X160200000Y-78150000D02*
X161700000Y-78150000D01*
X160200000Y-83550000D02*
X160200000Y-78150000D01*
X161700000Y-83550000D02*
X160200000Y-83550000D01*
X161700000Y-78150000D02*
X161700000Y-83550000D01*
X161450000Y-81350000D02*
X160450000Y-81350000D01*
X160450000Y-80350000D02*
X160950000Y-81250000D01*
X161450000Y-80350000D02*
X160450000Y-80350000D01*
X160950000Y-81250000D02*
X161450000Y-80350000D01*
X160000000Y-115925000D02*
X161500000Y-115925000D01*
X160000000Y-121325000D02*
X160000000Y-115925000D01*
X161500000Y-121325000D02*
X160000000Y-121325000D01*
X161500000Y-115925000D02*
X161500000Y-121325000D01*
X161250000Y-119125000D02*
X160250000Y-119125000D01*
X160250000Y-118125000D02*
X160750000Y-119025000D01*
X161250000Y-118125000D02*
X160250000Y-118125000D01*
X160750000Y-119025000D02*
X161250000Y-118125000D01*
X141200000Y-68750000D02*
X142700000Y-68750000D01*
X141200000Y-74150000D02*
X141200000Y-68750000D01*
X142700000Y-74150000D02*
X141200000Y-74150000D01*
X142700000Y-68750000D02*
X142700000Y-74150000D01*
X142450000Y-71950000D02*
X141450000Y-71950000D01*
X141450000Y-70950000D02*
X141950000Y-71850000D01*
X142450000Y-70950000D02*
X141450000Y-70950000D01*
X141950000Y-71850000D02*
X142450000Y-70950000D01*
X162700000Y-88450000D02*
X164200000Y-88450000D01*
X162700000Y-93850000D02*
X162700000Y-88450000D01*
X164200000Y-93850000D02*
X162700000Y-93850000D01*
X164200000Y-88450000D02*
X164200000Y-93850000D01*
X163950000Y-91650000D02*
X162950000Y-91650000D01*
X162950000Y-90650000D02*
X163450000Y-91550000D01*
X163950000Y-90650000D02*
X162950000Y-90650000D01*
X163450000Y-91550000D02*
X163950000Y-90650000D01*
X142252000Y-115925000D02*
X143752000Y-115925000D01*
X142252000Y-121325000D02*
X142252000Y-115925000D01*
X143752000Y-121325000D02*
X142252000Y-121325000D01*
X143752000Y-115925000D02*
X143752000Y-121325000D01*
X143502000Y-119125000D02*
X142502000Y-119125000D01*
X142502000Y-118125000D02*
X143002000Y-119025000D01*
X143502000Y-118125000D02*
X142502000Y-118125000D01*
X143002000Y-119025000D02*
X143502000Y-118125000D01*
X121805000Y-73373000D02*
X123305000Y-73373000D01*
X121805000Y-78773000D02*
X121805000Y-73373000D01*
X123305000Y-78773000D02*
X121805000Y-78773000D01*
X123305000Y-73373000D02*
X123305000Y-78773000D01*
X123055000Y-76573000D02*
X122055000Y-76573000D01*
X122055000Y-75573000D02*
X122555000Y-76473000D01*
X123055000Y-75573000D02*
X122055000Y-75573000D01*
X122555000Y-76473000D02*
X123055000Y-75573000D01*
X162750000Y-78150000D02*
X164250000Y-78150000D01*
X162750000Y-83550000D02*
X162750000Y-78150000D01*
X164250000Y-83550000D02*
X162750000Y-83550000D01*
X164250000Y-78150000D02*
X164250000Y-83550000D01*
X164000000Y-81350000D02*
X163000000Y-81350000D01*
X163000000Y-80350000D02*
X163500000Y-81250000D01*
X164000000Y-80350000D02*
X163000000Y-80350000D01*
X163500000Y-81250000D02*
X164000000Y-80350000D01*
X121805000Y-115918000D02*
X123305000Y-115918000D01*
X121805000Y-121318000D02*
X121805000Y-115918000D01*
X123305000Y-121318000D02*
X121805000Y-121318000D01*
X123305000Y-115918000D02*
X123305000Y-121318000D01*
X123055000Y-119118000D02*
X122055000Y-119118000D01*
X122055000Y-118118000D02*
X122555000Y-119018000D01*
X123055000Y-118118000D02*
X122055000Y-118118000D01*
X122555000Y-119018000D02*
X123055000Y-118118000D01*
X104761600Y-93525000D02*
X106261600Y-93525000D01*
X104761600Y-98925000D02*
X104761600Y-93525000D01*
X106261600Y-98925000D02*
X104761600Y-98925000D01*
X106261600Y-93525000D02*
X106261600Y-98925000D01*
X106011600Y-96725000D02*
X105011600Y-96725000D01*
X105011600Y-95725000D02*
X105511600Y-96625000D01*
X106011600Y-95725000D02*
X105011600Y-95725000D01*
X105511600Y-96625000D02*
X106011600Y-95725000D01*
X103300000Y-80800000D02*
X104800000Y-80800000D01*
X103300000Y-86200000D02*
X103300000Y-80800000D01*
X104800000Y-86200000D02*
X103300000Y-86200000D01*
X104800000Y-80800000D02*
X104800000Y-86200000D01*
X104550000Y-84000000D02*
X103550000Y-84000000D01*
X103550000Y-83000000D02*
X104050000Y-83900000D01*
X104550000Y-83000000D02*
X103550000Y-83000000D01*
X104050000Y-83900000D02*
X104550000Y-83000000D01*
D10*
X157794000Y-59757000D02*
X157794000Y-61087000D01*
X156464000Y-59757000D02*
X157794000Y-59757000D01*
X157794000Y-62357000D02*
X157794000Y-64957000D01*
X155194000Y-62357000D02*
X157794000Y-62357000D01*
X155194000Y-59757000D02*
X155194000Y-62357000D01*
X157794000Y-64957000D02*
X150054000Y-64957000D01*
X155194000Y-59757000D02*
X150054000Y-59757000D01*
X150054000Y-59757000D02*
X150054000Y-64957000D01*
X145096000Y-62754000D02*
X146496000Y-62754000D01*
X147196000Y-63454000D02*
X147196000Y-64054000D01*
X146496000Y-64754000D02*
X145096000Y-64754000D01*
X144396000Y-64054000D02*
X144396000Y-63454000D01*
X144396000Y-63454000D02*
G75*
G02X145096000Y-62754000I700000J0D01*
G01*
X145096000Y-64754000D02*
G75*
G02X144396000Y-64054000I0J700000D01*
G01*
X147196000Y-64054000D02*
G75*
G02X146496000Y-64754000I-700000J0D01*
G01*
X146496000Y-62754000D02*
G75*
G02X147196000Y-63454000I0J-700000D01*
G01*
D12*
X166668172Y-46928571D02*
X166811029Y-46976190D01*
X166858648Y-47023809D01*
X166906267Y-47119047D01*
X166906267Y-47261904D01*
X166858648Y-47357142D01*
X166811029Y-47404761D01*
X166715791Y-47452380D01*
X166334839Y-47452380D01*
X166334839Y-46452380D01*
X166668172Y-46452380D01*
X166763410Y-46500000D01*
X166811029Y-46547619D01*
X166858648Y-46642857D01*
X166858648Y-46738095D01*
X166811029Y-46833333D01*
X166763410Y-46880952D01*
X166668172Y-46928571D01*
X166334839Y-46928571D01*
X167191982Y-46452380D02*
X167763410Y-46452380D01*
X167477696Y-47452380D02*
X167477696Y-46452380D01*
X168049125Y-46547619D02*
X168096744Y-46500000D01*
X168191982Y-46452380D01*
X168430077Y-46452380D01*
X168525315Y-46500000D01*
X168572934Y-46547619D01*
X168620553Y-46642857D01*
X168620553Y-46738095D01*
X168572934Y-46880952D01*
X168001506Y-47452380D01*
X168620553Y-47452380D01*
X139277085Y-46072971D02*
X139419942Y-46120590D01*
X139467561Y-46168209D01*
X139515180Y-46263447D01*
X139515180Y-46406304D01*
X139467561Y-46501542D01*
X139419942Y-46549161D01*
X139324704Y-46596780D01*
X138943752Y-46596780D01*
X138943752Y-45596780D01*
X139277085Y-45596780D01*
X139372323Y-45644400D01*
X139419942Y-45692019D01*
X139467561Y-45787257D01*
X139467561Y-45882495D01*
X139419942Y-45977733D01*
X139372323Y-46025352D01*
X139277085Y-46072971D01*
X138943752Y-46072971D01*
X139800895Y-45596780D02*
X140372323Y-45596780D01*
X140086609Y-46596780D02*
X140086609Y-45596780D01*
X141229466Y-46596780D02*
X140658038Y-46596780D01*
X140943752Y-46596780D02*
X140943752Y-45596780D01*
X140848514Y-45739638D01*
X140753276Y-45834876D01*
X140658038Y-45882495D01*
X145012666Y-61944666D02*
X144679333Y-61944666D01*
X144679333Y-61244666D01*
X145246000Y-61578000D02*
X145479333Y-61578000D01*
X145579333Y-61944666D02*
X145246000Y-61944666D01*
X145246000Y-61244666D01*
X145579333Y-61244666D01*
X145879333Y-61944666D02*
X145879333Y-61244666D01*
X146046000Y-61244666D01*
X146146000Y-61278000D01*
X146212666Y-61344666D01*
X146246000Y-61411333D01*
X146279333Y-61544666D01*
X146279333Y-61644666D01*
X146246000Y-61778000D01*
X146212666Y-61844666D01*
X146146000Y-61911333D01*
X146046000Y-61944666D01*
X145879333Y-61944666D01*
X146946000Y-61944666D02*
X146546000Y-61944666D01*
X146746000Y-61944666D02*
X146746000Y-61244666D01*
X146679333Y-61344666D01*
X146612666Y-61411333D01*
X146546000Y-61444666D01*
X106766019Y-60798380D02*
X106432685Y-60322190D01*
X106194590Y-60798380D02*
X106194590Y-59798380D01*
X106575542Y-59798380D01*
X106670780Y-59846000D01*
X106718400Y-59893619D01*
X106766019Y-59988857D01*
X106766019Y-60131714D01*
X106718400Y-60226952D01*
X106670780Y-60274571D01*
X106575542Y-60322190D01*
X106194590Y-60322190D01*
X107194590Y-60274571D02*
X107527923Y-60274571D01*
X107670780Y-60798380D02*
X107194590Y-60798380D01*
X107194590Y-59798380D01*
X107670780Y-59798380D01*
X108051733Y-60750761D02*
X108194590Y-60798380D01*
X108432685Y-60798380D01*
X108527923Y-60750761D01*
X108575542Y-60703142D01*
X108623161Y-60607904D01*
X108623161Y-60512666D01*
X108575542Y-60417428D01*
X108527923Y-60369809D01*
X108432685Y-60322190D01*
X108242209Y-60274571D01*
X108146971Y-60226952D01*
X108099352Y-60179333D01*
X108051733Y-60084095D01*
X108051733Y-59988857D01*
X108099352Y-59893619D01*
X108146971Y-59846000D01*
X108242209Y-59798380D01*
X108480304Y-59798380D01*
X108623161Y-59846000D01*
X109051733Y-60274571D02*
X109385066Y-60274571D01*
X109527923Y-60798380D02*
X109051733Y-60798380D01*
X109051733Y-59798380D01*
X109527923Y-59798380D01*
X109813638Y-59798380D02*
X110385066Y-59798380D01*
X110099352Y-60798380D02*
X110099352Y-59798380D01*
X98269466Y-61967380D02*
X98269466Y-62681666D01*
X98221847Y-62824523D01*
X98126609Y-62919761D01*
X97983752Y-62967380D01*
X97888514Y-62967380D01*
X99269466Y-62967380D02*
X98698038Y-62967380D01*
X98983752Y-62967380D02*
X98983752Y-61967380D01*
X98888514Y-62110238D01*
X98793276Y-62205476D01*
X98698038Y-62253095D01*
D16*
X93696100Y-52862276D02*
X93660385Y-52926085D01*
X93660385Y-53021800D01*
X93696100Y-53117514D01*
X93767528Y-53181323D01*
X93838957Y-53213228D01*
X93981814Y-53245133D01*
X94088957Y-53245133D01*
X94231814Y-53213228D01*
X94303242Y-53181323D01*
X94374671Y-53117514D01*
X94410385Y-53021800D01*
X94410385Y-52957990D01*
X94374671Y-52862276D01*
X94338957Y-52830371D01*
X94088957Y-52830371D01*
X94088957Y-52957990D01*
X94410385Y-52543228D02*
X93660385Y-52543228D01*
X94410385Y-52160371D01*
X93660385Y-52160371D01*
X94410385Y-51841323D02*
X93660385Y-51841323D01*
X93660385Y-51681800D01*
X93696100Y-51586085D01*
X93767528Y-51522276D01*
X93838957Y-51490371D01*
X93981814Y-51458466D01*
X94088957Y-51458466D01*
X94231814Y-51490371D01*
X94303242Y-51522276D01*
X94374671Y-51586085D01*
X94410385Y-51681800D01*
X94410385Y-51841323D01*
X116796428Y-43586190D02*
X116832142Y-43490476D01*
X116867857Y-43458571D01*
X116939285Y-43426666D01*
X117046428Y-43426666D01*
X117117857Y-43458571D01*
X117153571Y-43490476D01*
X117189285Y-43554285D01*
X117189285Y-43809523D01*
X116439285Y-43809523D01*
X116439285Y-43586190D01*
X116475000Y-43522380D01*
X116510714Y-43490476D01*
X116582142Y-43458571D01*
X116653571Y-43458571D01*
X116725000Y-43490476D01*
X116760714Y-43522380D01*
X116796428Y-43586190D01*
X116796428Y-43809523D01*
X116689285Y-42852380D02*
X117189285Y-42852380D01*
X116403571Y-43011904D02*
X116939285Y-43171428D01*
X116939285Y-42756666D01*
X116403571Y-42022857D02*
X117367857Y-42597142D01*
X116760714Y-41703809D02*
X116725000Y-41767619D01*
X116689285Y-41799523D01*
X116617857Y-41831428D01*
X116582142Y-41831428D01*
X116510714Y-41799523D01*
X116475000Y-41767619D01*
X116439285Y-41703809D01*
X116439285Y-41576190D01*
X116475000Y-41512380D01*
X116510714Y-41480476D01*
X116582142Y-41448571D01*
X116617857Y-41448571D01*
X116689285Y-41480476D01*
X116725000Y-41512380D01*
X116760714Y-41576190D01*
X116760714Y-41703809D01*
X116796428Y-41767619D01*
X116832142Y-41799523D01*
X116903571Y-41831428D01*
X117046428Y-41831428D01*
X117117857Y-41799523D01*
X117153571Y-41767619D01*
X117189285Y-41703809D01*
X117189285Y-41576190D01*
X117153571Y-41512380D01*
X117117857Y-41480476D01*
X117046428Y-41448571D01*
X116903571Y-41448571D01*
X116832142Y-41480476D01*
X116796428Y-41512380D01*
X116760714Y-41576190D01*
X94489285Y-45013571D02*
X93739285Y-45013571D01*
X93739285Y-44854047D01*
X93775000Y-44758333D01*
X93846428Y-44694523D01*
X93917857Y-44662619D01*
X94060714Y-44630714D01*
X94167857Y-44630714D01*
X94310714Y-44662619D01*
X94382142Y-44694523D01*
X94453571Y-44758333D01*
X94489285Y-44854047D01*
X94489285Y-45013571D01*
X93810714Y-44375476D02*
X93775000Y-44343571D01*
X93739285Y-44279761D01*
X93739285Y-44120238D01*
X93775000Y-44056428D01*
X93810714Y-44024523D01*
X93882142Y-43992619D01*
X93953571Y-43992619D01*
X94060714Y-44024523D01*
X94489285Y-44407380D01*
X94489285Y-43992619D01*
X93703571Y-43226904D02*
X94667857Y-43801190D01*
X94489285Y-42620714D02*
X94132142Y-42844047D01*
X94489285Y-43003571D02*
X93739285Y-43003571D01*
X93739285Y-42748333D01*
X93775000Y-42684523D01*
X93810714Y-42652619D01*
X93882142Y-42620714D01*
X93989285Y-42620714D01*
X94060714Y-42652619D01*
X94096428Y-42684523D01*
X94132142Y-42748333D01*
X94132142Y-43003571D01*
X93739285Y-42397380D02*
X94489285Y-41950714D01*
X93739285Y-41950714D02*
X94489285Y-42397380D01*
X94489285Y-41344523D02*
X94489285Y-41727380D01*
X94489285Y-41535952D02*
X93739285Y-41535952D01*
X93846428Y-41599761D01*
X93917857Y-41663571D01*
X93953571Y-41727380D01*
X119296428Y-43586190D02*
X119332142Y-43490476D01*
X119367857Y-43458571D01*
X119439285Y-43426666D01*
X119546428Y-43426666D01*
X119617857Y-43458571D01*
X119653571Y-43490476D01*
X119689285Y-43554285D01*
X119689285Y-43809523D01*
X118939285Y-43809523D01*
X118939285Y-43586190D01*
X118975000Y-43522380D01*
X119010714Y-43490476D01*
X119082142Y-43458571D01*
X119153571Y-43458571D01*
X119225000Y-43490476D01*
X119260714Y-43522380D01*
X119296428Y-43586190D01*
X119296428Y-43809523D01*
X118939285Y-42820476D02*
X118939285Y-43139523D01*
X119296428Y-43171428D01*
X119260714Y-43139523D01*
X119225000Y-43075714D01*
X119225000Y-42916190D01*
X119260714Y-42852380D01*
X119296428Y-42820476D01*
X119367857Y-42788571D01*
X119546428Y-42788571D01*
X119617857Y-42820476D01*
X119653571Y-42852380D01*
X119689285Y-42916190D01*
X119689285Y-43075714D01*
X119653571Y-43139523D01*
X119617857Y-43171428D01*
X118903571Y-42022857D02*
X119867857Y-42597142D01*
X119689285Y-41767619D02*
X119689285Y-41640000D01*
X119653571Y-41576190D01*
X119617857Y-41544285D01*
X119510714Y-41480476D01*
X119367857Y-41448571D01*
X119082142Y-41448571D01*
X119010714Y-41480476D01*
X118975000Y-41512380D01*
X118939285Y-41576190D01*
X118939285Y-41703809D01*
X118975000Y-41767619D01*
X119010714Y-41799523D01*
X119082142Y-41831428D01*
X119260714Y-41831428D01*
X119332142Y-41799523D01*
X119367857Y-41767619D01*
X119403571Y-41703809D01*
X119403571Y-41576190D01*
X119367857Y-41512380D01*
X119332142Y-41480476D01*
X119260714Y-41448571D01*
X109467857Y-43426666D02*
X109503571Y-43458571D01*
X109539285Y-43554285D01*
X109539285Y-43618095D01*
X109503571Y-43713809D01*
X109432142Y-43777619D01*
X109360714Y-43809523D01*
X109217857Y-43841428D01*
X109110714Y-43841428D01*
X108967857Y-43809523D01*
X108896428Y-43777619D01*
X108825000Y-43713809D01*
X108789285Y-43618095D01*
X108789285Y-43554285D01*
X108825000Y-43458571D01*
X108860714Y-43426666D01*
X108789285Y-42852380D02*
X108789285Y-42980000D01*
X108825000Y-43043809D01*
X108860714Y-43075714D01*
X108967857Y-43139523D01*
X109110714Y-43171428D01*
X109396428Y-43171428D01*
X109467857Y-43139523D01*
X109503571Y-43107619D01*
X109539285Y-43043809D01*
X109539285Y-42916190D01*
X109503571Y-42852380D01*
X109467857Y-42820476D01*
X109396428Y-42788571D01*
X109217857Y-42788571D01*
X109146428Y-42820476D01*
X109110714Y-42852380D01*
X109075000Y-42916190D01*
X109075000Y-43043809D01*
X109110714Y-43107619D01*
X109146428Y-43139523D01*
X109217857Y-43171428D01*
X108753571Y-42022857D02*
X109717857Y-42597142D01*
X108789285Y-41480476D02*
X108789285Y-41799523D01*
X109146428Y-41831428D01*
X109110714Y-41799523D01*
X109075000Y-41735714D01*
X109075000Y-41576190D01*
X109110714Y-41512380D01*
X109146428Y-41480476D01*
X109217857Y-41448571D01*
X109396428Y-41448571D01*
X109467857Y-41480476D01*
X109503571Y-41512380D01*
X109539285Y-41576190D01*
X109539285Y-41735714D01*
X109503571Y-41799523D01*
X109467857Y-41831428D01*
X104453571Y-46367619D02*
X104489285Y-46271904D01*
X104489285Y-46112380D01*
X104453571Y-46048571D01*
X104417857Y-46016666D01*
X104346428Y-45984761D01*
X104275000Y-45984761D01*
X104203571Y-46016666D01*
X104167857Y-46048571D01*
X104132142Y-46112380D01*
X104096428Y-46240000D01*
X104060714Y-46303809D01*
X104025000Y-46335714D01*
X103953571Y-46367619D01*
X103882142Y-46367619D01*
X103810714Y-46335714D01*
X103775000Y-46303809D01*
X103739285Y-46240000D01*
X103739285Y-46080476D01*
X103775000Y-45984761D01*
X104417857Y-45314761D02*
X104453571Y-45346666D01*
X104489285Y-45442380D01*
X104489285Y-45506190D01*
X104453571Y-45601904D01*
X104382142Y-45665714D01*
X104310714Y-45697619D01*
X104167857Y-45729523D01*
X104060714Y-45729523D01*
X103917857Y-45697619D01*
X103846428Y-45665714D01*
X103775000Y-45601904D01*
X103739285Y-45506190D01*
X103739285Y-45442380D01*
X103775000Y-45346666D01*
X103810714Y-45314761D01*
X104489285Y-44708571D02*
X104489285Y-45027619D01*
X103739285Y-45027619D01*
X103703571Y-44006666D02*
X104667857Y-44580952D01*
X104489285Y-43783333D02*
X103739285Y-43783333D01*
X103739285Y-43623809D01*
X103775000Y-43528095D01*
X103846428Y-43464285D01*
X103917857Y-43432380D01*
X104060714Y-43400476D01*
X104167857Y-43400476D01*
X104310714Y-43432380D01*
X104382142Y-43464285D01*
X104453571Y-43528095D01*
X104489285Y-43623809D01*
X104489285Y-43783333D01*
X103739285Y-42985714D02*
X103739285Y-42921904D01*
X103775000Y-42858095D01*
X103810714Y-42826190D01*
X103882142Y-42794285D01*
X104025000Y-42762380D01*
X104203571Y-42762380D01*
X104346428Y-42794285D01*
X104417857Y-42826190D01*
X104453571Y-42858095D01*
X104489285Y-42921904D01*
X104489285Y-42985714D01*
X104453571Y-43049523D01*
X104417857Y-43081428D01*
X104346428Y-43113333D01*
X104203571Y-43145238D01*
X104025000Y-43145238D01*
X103882142Y-43113333D01*
X103810714Y-43081428D01*
X103775000Y-43049523D01*
X103739285Y-42985714D01*
X103703571Y-41996666D02*
X104667857Y-42570952D01*
X103739285Y-41837142D02*
X103739285Y-41422380D01*
X104025000Y-41645714D01*
X104025000Y-41550000D01*
X104060714Y-41486190D01*
X104096428Y-41454285D01*
X104167857Y-41422380D01*
X104346428Y-41422380D01*
X104417857Y-41454285D01*
X104453571Y-41486190D01*
X104489285Y-41550000D01*
X104489285Y-41741428D01*
X104453571Y-41805238D01*
X104417857Y-41837142D01*
X101953571Y-46383571D02*
X101989285Y-46287857D01*
X101989285Y-46128333D01*
X101953571Y-46064523D01*
X101917857Y-46032619D01*
X101846428Y-46000714D01*
X101775000Y-46000714D01*
X101703571Y-46032619D01*
X101667857Y-46064523D01*
X101632142Y-46128333D01*
X101596428Y-46255952D01*
X101560714Y-46319761D01*
X101525000Y-46351666D01*
X101453571Y-46383571D01*
X101382142Y-46383571D01*
X101310714Y-46351666D01*
X101275000Y-46319761D01*
X101239285Y-46255952D01*
X101239285Y-46096428D01*
X101275000Y-46000714D01*
X101989285Y-45713571D02*
X101239285Y-45713571D01*
X101239285Y-45554047D01*
X101275000Y-45458333D01*
X101346428Y-45394523D01*
X101417857Y-45362619D01*
X101560714Y-45330714D01*
X101667857Y-45330714D01*
X101810714Y-45362619D01*
X101882142Y-45394523D01*
X101953571Y-45458333D01*
X101989285Y-45554047D01*
X101989285Y-45713571D01*
X101775000Y-45075476D02*
X101775000Y-44756428D01*
X101989285Y-45139285D02*
X101239285Y-44915952D01*
X101989285Y-44692619D01*
X101203571Y-43990714D02*
X102167857Y-44565000D01*
X101989285Y-43767380D02*
X101239285Y-43767380D01*
X101239285Y-43607857D01*
X101275000Y-43512142D01*
X101346428Y-43448333D01*
X101417857Y-43416428D01*
X101560714Y-43384523D01*
X101667857Y-43384523D01*
X101810714Y-43416428D01*
X101882142Y-43448333D01*
X101953571Y-43512142D01*
X101989285Y-43607857D01*
X101989285Y-43767380D01*
X101989285Y-42746428D02*
X101989285Y-43129285D01*
X101989285Y-42937857D02*
X101239285Y-42937857D01*
X101346428Y-43001666D01*
X101417857Y-43065476D01*
X101453571Y-43129285D01*
X101203571Y-41980714D02*
X102167857Y-42555000D01*
X101310714Y-41789285D02*
X101275000Y-41757380D01*
X101239285Y-41693571D01*
X101239285Y-41534047D01*
X101275000Y-41470238D01*
X101310714Y-41438333D01*
X101382142Y-41406428D01*
X101453571Y-41406428D01*
X101560714Y-41438333D01*
X101989285Y-41821190D01*
X101989285Y-41406428D01*
X106989285Y-43809523D02*
X106239285Y-43809523D01*
X106239285Y-43650000D01*
X106275000Y-43554285D01*
X106346428Y-43490476D01*
X106417857Y-43458571D01*
X106560714Y-43426666D01*
X106667857Y-43426666D01*
X106810714Y-43458571D01*
X106882142Y-43490476D01*
X106953571Y-43554285D01*
X106989285Y-43650000D01*
X106989285Y-43809523D01*
X106489285Y-42852380D02*
X106989285Y-42852380D01*
X106203571Y-43011904D02*
X106739285Y-43171428D01*
X106739285Y-42756666D01*
X106203571Y-42022857D02*
X107167857Y-42597142D01*
X106489285Y-41512380D02*
X106989285Y-41512380D01*
X106203571Y-41671904D02*
X106739285Y-41831428D01*
X106739285Y-41416666D01*
X91939285Y-44933809D02*
X91189285Y-44933809D01*
X91189285Y-44774285D01*
X91225000Y-44678571D01*
X91296428Y-44614761D01*
X91367857Y-44582857D01*
X91510714Y-44550952D01*
X91617857Y-44550952D01*
X91760714Y-44582857D01*
X91832142Y-44614761D01*
X91903571Y-44678571D01*
X91939285Y-44774285D01*
X91939285Y-44933809D01*
X91189285Y-44327619D02*
X91189285Y-43912857D01*
X91475000Y-44136190D01*
X91475000Y-44040476D01*
X91510714Y-43976666D01*
X91546428Y-43944761D01*
X91617857Y-43912857D01*
X91796428Y-43912857D01*
X91867857Y-43944761D01*
X91903571Y-43976666D01*
X91939285Y-44040476D01*
X91939285Y-44231904D01*
X91903571Y-44295714D01*
X91867857Y-44327619D01*
X91153571Y-43147142D02*
X92117857Y-43721428D01*
X91189285Y-43019523D02*
X91189285Y-42636666D01*
X91939285Y-42828095D02*
X91189285Y-42828095D01*
X91189285Y-42477142D02*
X91939285Y-42030476D01*
X91189285Y-42030476D02*
X91939285Y-42477142D01*
X91189285Y-41647619D02*
X91189285Y-41583809D01*
X91225000Y-41520000D01*
X91260714Y-41488095D01*
X91332142Y-41456190D01*
X91475000Y-41424285D01*
X91653571Y-41424285D01*
X91796428Y-41456190D01*
X91867857Y-41488095D01*
X91903571Y-41520000D01*
X91939285Y-41583809D01*
X91939285Y-41647619D01*
X91903571Y-41711428D01*
X91867857Y-41743333D01*
X91796428Y-41775238D01*
X91653571Y-41807142D01*
X91475000Y-41807142D01*
X91332142Y-41775238D01*
X91260714Y-41743333D01*
X91225000Y-41711428D01*
X91189285Y-41647619D01*
X98775000Y-42905476D02*
X98739285Y-42969285D01*
X98739285Y-43065000D01*
X98775000Y-43160714D01*
X98846428Y-43224523D01*
X98917857Y-43256428D01*
X99060714Y-43288333D01*
X99167857Y-43288333D01*
X99310714Y-43256428D01*
X99382142Y-43224523D01*
X99453571Y-43160714D01*
X99489285Y-43065000D01*
X99489285Y-43001190D01*
X99453571Y-42905476D01*
X99417857Y-42873571D01*
X99167857Y-42873571D01*
X99167857Y-43001190D01*
X99489285Y-42586428D02*
X98739285Y-42586428D01*
X99489285Y-42203571D01*
X98739285Y-42203571D01*
X99489285Y-41884523D02*
X98739285Y-41884523D01*
X98739285Y-41725000D01*
X98775000Y-41629285D01*
X98846428Y-41565476D01*
X98917857Y-41533571D01*
X99060714Y-41501666D01*
X99167857Y-41501666D01*
X99310714Y-41533571D01*
X99382142Y-41565476D01*
X99453571Y-41629285D01*
X99489285Y-41725000D01*
X99489285Y-41884523D01*
X96325000Y-42905476D02*
X96289285Y-42969285D01*
X96289285Y-43065000D01*
X96325000Y-43160714D01*
X96396428Y-43224523D01*
X96467857Y-43256428D01*
X96610714Y-43288333D01*
X96717857Y-43288333D01*
X96860714Y-43256428D01*
X96932142Y-43224523D01*
X97003571Y-43160714D01*
X97039285Y-43065000D01*
X97039285Y-43001190D01*
X97003571Y-42905476D01*
X96967857Y-42873571D01*
X96717857Y-42873571D01*
X96717857Y-43001190D01*
X97039285Y-42586428D02*
X96289285Y-42586428D01*
X97039285Y-42203571D01*
X96289285Y-42203571D01*
X97039285Y-41884523D02*
X96289285Y-41884523D01*
X96289285Y-41725000D01*
X96325000Y-41629285D01*
X96396428Y-41565476D01*
X96467857Y-41533571D01*
X96610714Y-41501666D01*
X96717857Y-41501666D01*
X96860714Y-41533571D01*
X96932142Y-41565476D01*
X97003571Y-41629285D01*
X97039285Y-41725000D01*
X97039285Y-41884523D01*
X112089285Y-43809523D02*
X111339285Y-43809523D01*
X111339285Y-43650000D01*
X111375000Y-43554285D01*
X111446428Y-43490476D01*
X111517857Y-43458571D01*
X111660714Y-43426666D01*
X111767857Y-43426666D01*
X111910714Y-43458571D01*
X111982142Y-43490476D01*
X112053571Y-43554285D01*
X112089285Y-43650000D01*
X112089285Y-43809523D01*
X111339285Y-43203333D02*
X111339285Y-42756666D01*
X112089285Y-43043809D01*
X111303571Y-42022857D02*
X112267857Y-42597142D01*
X111339285Y-41512380D02*
X111339285Y-41640000D01*
X111375000Y-41703809D01*
X111410714Y-41735714D01*
X111517857Y-41799523D01*
X111660714Y-41831428D01*
X111946428Y-41831428D01*
X112017857Y-41799523D01*
X112053571Y-41767619D01*
X112089285Y-41703809D01*
X112089285Y-41576190D01*
X112053571Y-41512380D01*
X112017857Y-41480476D01*
X111946428Y-41448571D01*
X111767857Y-41448571D01*
X111696428Y-41480476D01*
X111660714Y-41512380D01*
X111625000Y-41576190D01*
X111625000Y-41703809D01*
X111660714Y-41767619D01*
X111696428Y-41799523D01*
X111767857Y-41831428D01*
X114246428Y-43777619D02*
X114246428Y-43554285D01*
X114639285Y-43458571D02*
X114639285Y-43777619D01*
X113889285Y-43777619D01*
X113889285Y-43458571D01*
X113889285Y-42884285D02*
X113889285Y-43011904D01*
X113925000Y-43075714D01*
X113960714Y-43107619D01*
X114067857Y-43171428D01*
X114210714Y-43203333D01*
X114496428Y-43203333D01*
X114567857Y-43171428D01*
X114603571Y-43139523D01*
X114639285Y-43075714D01*
X114639285Y-42948095D01*
X114603571Y-42884285D01*
X114567857Y-42852380D01*
X114496428Y-42820476D01*
X114317857Y-42820476D01*
X114246428Y-42852380D01*
X114210714Y-42884285D01*
X114175000Y-42948095D01*
X114175000Y-43075714D01*
X114210714Y-43139523D01*
X114246428Y-43171428D01*
X114317857Y-43203333D01*
X113853571Y-42054761D02*
X114817857Y-42629047D01*
X113889285Y-41895238D02*
X113889285Y-41448571D01*
X114639285Y-41735714D01*
X117339285Y-52877619D02*
X117339285Y-53260476D01*
X117339285Y-53069047D02*
X116589285Y-53069047D01*
X116696428Y-53132857D01*
X116767857Y-53196666D01*
X116803571Y-53260476D01*
X116589285Y-52303333D02*
X116589285Y-52430952D01*
X116625000Y-52494761D01*
X116660714Y-52526666D01*
X116767857Y-52590476D01*
X116910714Y-52622380D01*
X117196428Y-52622380D01*
X117267857Y-52590476D01*
X117303571Y-52558571D01*
X117339285Y-52494761D01*
X117339285Y-52367142D01*
X117303571Y-52303333D01*
X117267857Y-52271428D01*
X117196428Y-52239523D01*
X117017857Y-52239523D01*
X116946428Y-52271428D01*
X116910714Y-52303333D01*
X116875000Y-52367142D01*
X116875000Y-52494761D01*
X116910714Y-52558571D01*
X116946428Y-52590476D01*
X117017857Y-52622380D01*
X116553571Y-51473809D02*
X117517857Y-52048095D01*
X116946428Y-51027142D02*
X116982142Y-50931428D01*
X117017857Y-50899523D01*
X117089285Y-50867619D01*
X117196428Y-50867619D01*
X117267857Y-50899523D01*
X117303571Y-50931428D01*
X117339285Y-50995238D01*
X117339285Y-51250476D01*
X116589285Y-51250476D01*
X116589285Y-51027142D01*
X116625000Y-50963333D01*
X116660714Y-50931428D01*
X116732142Y-50899523D01*
X116803571Y-50899523D01*
X116875000Y-50931428D01*
X116910714Y-50963333D01*
X116946428Y-51027142D01*
X116946428Y-51250476D01*
X116660714Y-50612380D02*
X116625000Y-50580476D01*
X116589285Y-50516666D01*
X116589285Y-50357142D01*
X116625000Y-50293333D01*
X116660714Y-50261428D01*
X116732142Y-50229523D01*
X116803571Y-50229523D01*
X116910714Y-50261428D01*
X117339285Y-50644285D01*
X117339285Y-50229523D01*
X119839285Y-52877619D02*
X119839285Y-53260476D01*
X119839285Y-53069047D02*
X119089285Y-53069047D01*
X119196428Y-53132857D01*
X119267857Y-53196666D01*
X119303571Y-53260476D01*
X119089285Y-52462857D02*
X119089285Y-52399047D01*
X119125000Y-52335238D01*
X119160714Y-52303333D01*
X119232142Y-52271428D01*
X119375000Y-52239523D01*
X119553571Y-52239523D01*
X119696428Y-52271428D01*
X119767857Y-52303333D01*
X119803571Y-52335238D01*
X119839285Y-52399047D01*
X119839285Y-52462857D01*
X119803571Y-52526666D01*
X119767857Y-52558571D01*
X119696428Y-52590476D01*
X119553571Y-52622380D01*
X119375000Y-52622380D01*
X119232142Y-52590476D01*
X119160714Y-52558571D01*
X119125000Y-52526666D01*
X119089285Y-52462857D01*
X119053571Y-51473809D02*
X120017857Y-52048095D01*
X119446428Y-51027142D02*
X119482142Y-50931428D01*
X119517857Y-50899523D01*
X119589285Y-50867619D01*
X119696428Y-50867619D01*
X119767857Y-50899523D01*
X119803571Y-50931428D01*
X119839285Y-50995238D01*
X119839285Y-51250476D01*
X119089285Y-51250476D01*
X119089285Y-51027142D01*
X119125000Y-50963333D01*
X119160714Y-50931428D01*
X119232142Y-50899523D01*
X119303571Y-50899523D01*
X119375000Y-50931428D01*
X119410714Y-50963333D01*
X119446428Y-51027142D01*
X119446428Y-51250476D01*
X119089285Y-50293333D02*
X119089285Y-50420952D01*
X119125000Y-50484761D01*
X119160714Y-50516666D01*
X119267857Y-50580476D01*
X119410714Y-50612380D01*
X119696428Y-50612380D01*
X119767857Y-50580476D01*
X119803571Y-50548571D01*
X119839285Y-50484761D01*
X119839285Y-50357142D01*
X119803571Y-50293333D01*
X119767857Y-50261428D01*
X119696428Y-50229523D01*
X119517857Y-50229523D01*
X119446428Y-50261428D01*
X119410714Y-50293333D01*
X119375000Y-50357142D01*
X119375000Y-50484761D01*
X119410714Y-50548571D01*
X119446428Y-50580476D01*
X119517857Y-50612380D01*
X114789285Y-52877619D02*
X114789285Y-53260476D01*
X114789285Y-53069047D02*
X114039285Y-53069047D01*
X114146428Y-53132857D01*
X114217857Y-53196666D01*
X114253571Y-53260476D01*
X114289285Y-52303333D02*
X114789285Y-52303333D01*
X114003571Y-52462857D02*
X114539285Y-52622380D01*
X114539285Y-52207619D01*
X114003571Y-51473809D02*
X114967857Y-52048095D01*
X114396428Y-51027142D02*
X114432142Y-50931428D01*
X114467857Y-50899523D01*
X114539285Y-50867619D01*
X114646428Y-50867619D01*
X114717857Y-50899523D01*
X114753571Y-50931428D01*
X114789285Y-50995238D01*
X114789285Y-51250476D01*
X114039285Y-51250476D01*
X114039285Y-51027142D01*
X114075000Y-50963333D01*
X114110714Y-50931428D01*
X114182142Y-50899523D01*
X114253571Y-50899523D01*
X114325000Y-50931428D01*
X114360714Y-50963333D01*
X114396428Y-51027142D01*
X114396428Y-51250476D01*
X114039285Y-50644285D02*
X114039285Y-50229523D01*
X114325000Y-50452857D01*
X114325000Y-50357142D01*
X114360714Y-50293333D01*
X114396428Y-50261428D01*
X114467857Y-50229523D01*
X114646428Y-50229523D01*
X114717857Y-50261428D01*
X114753571Y-50293333D01*
X114789285Y-50357142D01*
X114789285Y-50548571D01*
X114753571Y-50612380D01*
X114717857Y-50644285D01*
X112239285Y-52877619D02*
X112239285Y-53260476D01*
X112239285Y-53069047D02*
X111489285Y-53069047D01*
X111596428Y-53132857D01*
X111667857Y-53196666D01*
X111703571Y-53260476D01*
X111489285Y-52271428D02*
X111489285Y-52590476D01*
X111846428Y-52622380D01*
X111810714Y-52590476D01*
X111775000Y-52526666D01*
X111775000Y-52367142D01*
X111810714Y-52303333D01*
X111846428Y-52271428D01*
X111917857Y-52239523D01*
X112096428Y-52239523D01*
X112167857Y-52271428D01*
X112203571Y-52303333D01*
X112239285Y-52367142D01*
X112239285Y-52526666D01*
X112203571Y-52590476D01*
X112167857Y-52622380D01*
X111453571Y-51473809D02*
X112417857Y-52048095D01*
X111846428Y-51027142D02*
X111882142Y-50931428D01*
X111917857Y-50899523D01*
X111989285Y-50867619D01*
X112096428Y-50867619D01*
X112167857Y-50899523D01*
X112203571Y-50931428D01*
X112239285Y-50995238D01*
X112239285Y-51250476D01*
X111489285Y-51250476D01*
X111489285Y-51027142D01*
X111525000Y-50963333D01*
X111560714Y-50931428D01*
X111632142Y-50899523D01*
X111703571Y-50899523D01*
X111775000Y-50931428D01*
X111810714Y-50963333D01*
X111846428Y-51027142D01*
X111846428Y-51250476D01*
X112239285Y-50229523D02*
X112239285Y-50612380D01*
X112239285Y-50420952D02*
X111489285Y-50420952D01*
X111596428Y-50484761D01*
X111667857Y-50548571D01*
X111703571Y-50612380D01*
X109296428Y-53292380D02*
X109296428Y-53069047D01*
X109689285Y-52973333D02*
X109689285Y-53292380D01*
X108939285Y-53292380D01*
X108939285Y-52973333D01*
X109617857Y-52303333D02*
X109653571Y-52335238D01*
X109689285Y-52430952D01*
X109689285Y-52494761D01*
X109653571Y-52590476D01*
X109582142Y-52654285D01*
X109510714Y-52686190D01*
X109367857Y-52718095D01*
X109260714Y-52718095D01*
X109117857Y-52686190D01*
X109046428Y-52654285D01*
X108975000Y-52590476D01*
X108939285Y-52494761D01*
X108939285Y-52430952D01*
X108975000Y-52335238D01*
X109010714Y-52303333D01*
X109010714Y-52048095D02*
X108975000Y-52016190D01*
X108939285Y-51952380D01*
X108939285Y-51792857D01*
X108975000Y-51729047D01*
X109010714Y-51697142D01*
X109082142Y-51665238D01*
X109153571Y-51665238D01*
X109260714Y-51697142D01*
X109689285Y-52080000D01*
X109689285Y-51665238D01*
X109403571Y-51378095D02*
X109403571Y-50867619D01*
X109296428Y-50325238D02*
X109332142Y-50229523D01*
X109367857Y-50197619D01*
X109439285Y-50165714D01*
X109546428Y-50165714D01*
X109617857Y-50197619D01*
X109653571Y-50229523D01*
X109689285Y-50293333D01*
X109689285Y-50548571D01*
X108939285Y-50548571D01*
X108939285Y-50325238D01*
X108975000Y-50261428D01*
X109010714Y-50229523D01*
X109082142Y-50197619D01*
X109153571Y-50197619D01*
X109225000Y-50229523D01*
X109260714Y-50261428D01*
X109296428Y-50325238D01*
X109296428Y-50548571D01*
X106746428Y-53244523D02*
X106746428Y-53021190D01*
X107139285Y-52925476D02*
X107139285Y-53244523D01*
X106389285Y-53244523D01*
X106389285Y-52925476D01*
X107067857Y-52255476D02*
X107103571Y-52287380D01*
X107139285Y-52383095D01*
X107139285Y-52446904D01*
X107103571Y-52542619D01*
X107032142Y-52606428D01*
X106960714Y-52638333D01*
X106817857Y-52670238D01*
X106710714Y-52670238D01*
X106567857Y-52638333D01*
X106496428Y-52606428D01*
X106425000Y-52542619D01*
X106389285Y-52446904D01*
X106389285Y-52383095D01*
X106425000Y-52287380D01*
X106460714Y-52255476D01*
X106460714Y-52000238D02*
X106425000Y-51968333D01*
X106389285Y-51904523D01*
X106389285Y-51745000D01*
X106425000Y-51681190D01*
X106460714Y-51649285D01*
X106532142Y-51617380D01*
X106603571Y-51617380D01*
X106710714Y-51649285D01*
X107139285Y-52032142D01*
X107139285Y-51617380D01*
X106853571Y-51330238D02*
X106853571Y-50819761D01*
X106925000Y-50532619D02*
X106925000Y-50213571D01*
X107139285Y-50596428D02*
X106389285Y-50373095D01*
X107139285Y-50149761D01*
X104246428Y-53292380D02*
X104246428Y-53069047D01*
X104639285Y-52973333D02*
X104639285Y-53292380D01*
X103889285Y-53292380D01*
X103889285Y-52973333D01*
X104567857Y-52303333D02*
X104603571Y-52335238D01*
X104639285Y-52430952D01*
X104639285Y-52494761D01*
X104603571Y-52590476D01*
X104532142Y-52654285D01*
X104460714Y-52686190D01*
X104317857Y-52718095D01*
X104210714Y-52718095D01*
X104067857Y-52686190D01*
X103996428Y-52654285D01*
X103925000Y-52590476D01*
X103889285Y-52494761D01*
X103889285Y-52430952D01*
X103925000Y-52335238D01*
X103960714Y-52303333D01*
X104639285Y-51665238D02*
X104639285Y-52048095D01*
X104639285Y-51856666D02*
X103889285Y-51856666D01*
X103996428Y-51920476D01*
X104067857Y-51984285D01*
X104103571Y-52048095D01*
X104353571Y-51378095D02*
X104353571Y-50867619D01*
X104246428Y-50325238D02*
X104282142Y-50229523D01*
X104317857Y-50197619D01*
X104389285Y-50165714D01*
X104496428Y-50165714D01*
X104567857Y-50197619D01*
X104603571Y-50229523D01*
X104639285Y-50293333D01*
X104639285Y-50548571D01*
X103889285Y-50548571D01*
X103889285Y-50325238D01*
X103925000Y-50261428D01*
X103960714Y-50229523D01*
X104032142Y-50197619D01*
X104103571Y-50197619D01*
X104175000Y-50229523D01*
X104210714Y-50261428D01*
X104246428Y-50325238D01*
X104246428Y-50548571D01*
X101746428Y-53244523D02*
X101746428Y-53021190D01*
X102139285Y-52925476D02*
X102139285Y-53244523D01*
X101389285Y-53244523D01*
X101389285Y-52925476D01*
X102067857Y-52255476D02*
X102103571Y-52287380D01*
X102139285Y-52383095D01*
X102139285Y-52446904D01*
X102103571Y-52542619D01*
X102032142Y-52606428D01*
X101960714Y-52638333D01*
X101817857Y-52670238D01*
X101710714Y-52670238D01*
X101567857Y-52638333D01*
X101496428Y-52606428D01*
X101425000Y-52542619D01*
X101389285Y-52446904D01*
X101389285Y-52383095D01*
X101425000Y-52287380D01*
X101460714Y-52255476D01*
X102139285Y-51617380D02*
X102139285Y-52000238D01*
X102139285Y-51808809D02*
X101389285Y-51808809D01*
X101496428Y-51872619D01*
X101567857Y-51936428D01*
X101603571Y-52000238D01*
X101853571Y-51330238D02*
X101853571Y-50819761D01*
X101925000Y-50532619D02*
X101925000Y-50213571D01*
X102139285Y-50596428D02*
X101389285Y-50373095D01*
X102139285Y-50149761D01*
X98689285Y-53238333D02*
X99439285Y-53015000D01*
X98689285Y-52791666D01*
X99367857Y-52185476D02*
X99403571Y-52217380D01*
X99439285Y-52313095D01*
X99439285Y-52376904D01*
X99403571Y-52472619D01*
X99332142Y-52536428D01*
X99260714Y-52568333D01*
X99117857Y-52600238D01*
X99010714Y-52600238D01*
X98867857Y-52568333D01*
X98796428Y-52536428D01*
X98725000Y-52472619D01*
X98689285Y-52376904D01*
X98689285Y-52313095D01*
X98725000Y-52217380D01*
X98760714Y-52185476D01*
X99367857Y-51515476D02*
X99403571Y-51547380D01*
X99439285Y-51643095D01*
X99439285Y-51706904D01*
X99403571Y-51802619D01*
X99332142Y-51866428D01*
X99260714Y-51898333D01*
X99117857Y-51930238D01*
X99010714Y-51930238D01*
X98867857Y-51898333D01*
X98796428Y-51866428D01*
X98725000Y-51802619D01*
X98689285Y-51706904D01*
X98689285Y-51643095D01*
X98725000Y-51547380D01*
X98760714Y-51515476D01*
X96989285Y-52711904D02*
X96632142Y-52935238D01*
X96989285Y-53094761D02*
X96239285Y-53094761D01*
X96239285Y-52839523D01*
X96275000Y-52775714D01*
X96310714Y-52743809D01*
X96382142Y-52711904D01*
X96489285Y-52711904D01*
X96560714Y-52743809D01*
X96596428Y-52775714D01*
X96632142Y-52839523D01*
X96632142Y-53094761D01*
X96953571Y-52456666D02*
X96989285Y-52360952D01*
X96989285Y-52201428D01*
X96953571Y-52137619D01*
X96917857Y-52105714D01*
X96846428Y-52073809D01*
X96775000Y-52073809D01*
X96703571Y-52105714D01*
X96667857Y-52137619D01*
X96632142Y-52201428D01*
X96596428Y-52329047D01*
X96560714Y-52392857D01*
X96525000Y-52424761D01*
X96453571Y-52456666D01*
X96382142Y-52456666D01*
X96310714Y-52424761D01*
X96275000Y-52392857D01*
X96239285Y-52329047D01*
X96239285Y-52169523D01*
X96275000Y-52073809D01*
X96239285Y-51882380D02*
X96239285Y-51499523D01*
X96989285Y-51690952D02*
X96239285Y-51690952D01*
X98775000Y-42905476D02*
X98739285Y-42969285D01*
X98739285Y-43065000D01*
X98775000Y-43160714D01*
X98846428Y-43224523D01*
X98917857Y-43256428D01*
X99060714Y-43288333D01*
X99167857Y-43288333D01*
X99310714Y-43256428D01*
X99382142Y-43224523D01*
X99453571Y-43160714D01*
X99489285Y-43065000D01*
X99489285Y-43001190D01*
X99453571Y-42905476D01*
X99417857Y-42873571D01*
X99167857Y-42873571D01*
X99167857Y-43001190D01*
X99489285Y-42586428D02*
X98739285Y-42586428D01*
X99489285Y-42203571D01*
X98739285Y-42203571D01*
X99489285Y-41884523D02*
X98739285Y-41884523D01*
X98739285Y-41725000D01*
X98775000Y-41629285D01*
X98846428Y-41565476D01*
X98917857Y-41533571D01*
X99060714Y-41501666D01*
X99167857Y-41501666D01*
X99310714Y-41533571D01*
X99382142Y-41565476D01*
X99453571Y-41629285D01*
X99489285Y-41725000D01*
X99489285Y-41884523D01*
X91889285Y-52807619D02*
X91532142Y-53030952D01*
X91889285Y-53190476D02*
X91139285Y-53190476D01*
X91139285Y-52935238D01*
X91175000Y-52871428D01*
X91210714Y-52839523D01*
X91282142Y-52807619D01*
X91389285Y-52807619D01*
X91460714Y-52839523D01*
X91496428Y-52871428D01*
X91532142Y-52935238D01*
X91532142Y-53190476D01*
X91675000Y-52552380D02*
X91675000Y-52233333D01*
X91889285Y-52616190D02*
X91139285Y-52392857D01*
X91889285Y-52169523D01*
X91139285Y-52010000D02*
X91889285Y-51850476D01*
X91353571Y-51722857D01*
X91889285Y-51595238D01*
X91139285Y-51435714D01*
D12*
X151290476Y-42804761D02*
X151433333Y-42852380D01*
X151671428Y-42852380D01*
X151766666Y-42804761D01*
X151814285Y-42757142D01*
X151861904Y-42661904D01*
X151861904Y-42566666D01*
X151814285Y-42471428D01*
X151766666Y-42423809D01*
X151671428Y-42376190D01*
X151480952Y-42328571D01*
X151385714Y-42280952D01*
X151338095Y-42233333D01*
X151290476Y-42138095D01*
X151290476Y-42042857D01*
X151338095Y-41947619D01*
X151385714Y-41900000D01*
X151480952Y-41852380D01*
X151719047Y-41852380D01*
X151861904Y-41900000D01*
X152195238Y-41852380D02*
X152433333Y-42852380D01*
X152623809Y-42138095D01*
X152814285Y-42852380D01*
X153052380Y-41852380D01*
X153957142Y-42852380D02*
X153385714Y-42852380D01*
X153671428Y-42852380D02*
X153671428Y-41852380D01*
X153576190Y-41995238D01*
X153480952Y-42090476D01*
X153385714Y-42138095D01*
X154814285Y-42185714D02*
X154814285Y-42852380D01*
X154576190Y-41804761D02*
X154338095Y-42519047D01*
X154957142Y-42519047D01*
X89196280Y-66932133D02*
X89910566Y-66932133D01*
X90053423Y-66979752D01*
X90148661Y-67074990D01*
X90196280Y-67217847D01*
X90196280Y-67313085D01*
X89291519Y-66503561D02*
X89243900Y-66455942D01*
X89196280Y-66360704D01*
X89196280Y-66122609D01*
X89243900Y-66027371D01*
X89291519Y-65979752D01*
X89386757Y-65932133D01*
X89481995Y-65932133D01*
X89624852Y-65979752D01*
X90196280Y-66551180D01*
X90196280Y-65932133D01*
X153576166Y-65572380D02*
X153576166Y-66286666D01*
X153528547Y-66429523D01*
X153433309Y-66524761D01*
X153290452Y-66572380D01*
X153195214Y-66572380D01*
X153957119Y-65572380D02*
X154576166Y-65572380D01*
X154242833Y-65953333D01*
X154385690Y-65953333D01*
X154480928Y-66000952D01*
X154528547Y-66048571D01*
X154576166Y-66143809D01*
X154576166Y-66381904D01*
X154528547Y-66477142D01*
X154480928Y-66524761D01*
X154385690Y-66572380D01*
X154099976Y-66572380D01*
X154004738Y-66524761D01*
X153957119Y-66477142D01*
X145241666Y-65566666D02*
X145241666Y-66066666D01*
X145208333Y-66166666D01*
X145141666Y-66233333D01*
X145041666Y-66266666D01*
X144975000Y-66266666D01*
X145575000Y-66266666D02*
X145575000Y-65566666D01*
X145841666Y-65566666D01*
X145908333Y-65600000D01*
X145941666Y-65633333D01*
X145975000Y-65700000D01*
X145975000Y-65800000D01*
X145941666Y-65866666D01*
X145908333Y-65900000D01*
X145841666Y-65933333D01*
X145575000Y-65933333D01*
X146641666Y-66266666D02*
X146241666Y-66266666D01*
X146441666Y-66266666D02*
X146441666Y-65566666D01*
X146375000Y-65666666D01*
X146308333Y-65733333D01*
X146241666Y-65766666D01*
%LPC*%
X89605500Y-120754000D02*
X89772166Y-121220666D01*
X89938833Y-120754000D01*
X90338833Y-120520666D02*
X90405500Y-120520666D01*
X90472166Y-120554000D01*
X90505500Y-120587333D01*
X90538833Y-120654000D01*
X90572166Y-120787333D01*
X90572166Y-120954000D01*
X90538833Y-121087333D01*
X90505500Y-121154000D01*
X90472166Y-121187333D01*
X90405500Y-121220666D01*
X90338833Y-121220666D01*
X90272166Y-121187333D01*
X90238833Y-121154000D01*
X90205500Y-121087333D01*
X90172166Y-120954000D01*
X90172166Y-120787333D01*
X90205500Y-120654000D01*
X90238833Y-120587333D01*
X90272166Y-120554000D01*
X90338833Y-120520666D01*
X90872166Y-121154000D02*
X90905500Y-121187333D01*
X90872166Y-121220666D01*
X90838833Y-121187333D01*
X90872166Y-121154000D01*
X90872166Y-121220666D01*
X91138833Y-120520666D02*
X91572166Y-120520666D01*
X91338833Y-120787333D01*
X91438833Y-120787333D01*
X91505500Y-120820666D01*
X91538833Y-120854000D01*
X91572166Y-120920666D01*
X91572166Y-121087333D01*
X91538833Y-121154000D01*
X91505500Y-121187333D01*
X91438833Y-121220666D01*
X91238833Y-121220666D01*
X91172166Y-121187333D01*
X91138833Y-121154000D01*
X92005500Y-120520666D02*
X92072166Y-120520666D01*
X92138833Y-120554000D01*
X92172166Y-120587333D01*
X92205500Y-120654000D01*
X92238833Y-120787333D01*
X92238833Y-120954000D01*
X92205500Y-121087333D01*
X92172166Y-121154000D01*
X92138833Y-121187333D01*
X92072166Y-121220666D01*
X92005500Y-121220666D01*
X91938833Y-121187333D01*
X91905500Y-121154000D01*
X91872166Y-121087333D01*
X91838833Y-120954000D01*
X91838833Y-120787333D01*
X91872166Y-120654000D01*
X91905500Y-120587333D01*
X91938833Y-120554000D01*
X92005500Y-120520666D01*
X92738833Y-121487333D02*
X92705500Y-121454000D01*
X92638833Y-121354000D01*
X92605500Y-121287333D01*
X92572166Y-121187333D01*
X92538833Y-121020666D01*
X92538833Y-120887333D01*
X92572166Y-120720666D01*
X92605500Y-120620666D01*
X92638833Y-120554000D01*
X92705500Y-120454000D01*
X92738833Y-120420666D01*
X93372166Y-121220666D02*
X92972166Y-121220666D01*
X93172166Y-121220666D02*
X93172166Y-120520666D01*
X93105500Y-120620666D01*
X93038833Y-120687333D01*
X92972166Y-120720666D01*
X93705500Y-121220666D02*
X93838833Y-121220666D01*
X93905500Y-121187333D01*
X93938833Y-121154000D01*
X94005500Y-121054000D01*
X94038833Y-120920666D01*
X94038833Y-120654000D01*
X94005500Y-120587333D01*
X93972166Y-120554000D01*
X93905500Y-120520666D01*
X93772166Y-120520666D01*
X93705500Y-120554000D01*
X93672166Y-120587333D01*
X93638833Y-120654000D01*
X93638833Y-120820666D01*
X93672166Y-120887333D01*
X93705500Y-120920666D01*
X93772166Y-120954000D01*
X93905500Y-120954000D01*
X93972166Y-120920666D01*
X94005500Y-120887333D01*
X94038833Y-120820666D01*
X94705500Y-121220666D02*
X94305500Y-121220666D01*
X94505500Y-121220666D02*
X94505500Y-120520666D01*
X94438833Y-120620666D01*
X94372166Y-120687333D01*
X94305500Y-120720666D01*
X95138833Y-120520666D02*
X95205500Y-120520666D01*
X95272166Y-120554000D01*
X95305500Y-120587333D01*
X95338833Y-120654000D01*
X95372166Y-120787333D01*
X95372166Y-120954000D01*
X95338833Y-121087333D01*
X95305500Y-121154000D01*
X95272166Y-121187333D01*
X95205500Y-121220666D01*
X95138833Y-121220666D01*
X95072166Y-121187333D01*
X95038833Y-121154000D01*
X95005500Y-121087333D01*
X94972166Y-120954000D01*
X94972166Y-120787333D01*
X95005500Y-120654000D01*
X95038833Y-120587333D01*
X95072166Y-120554000D01*
X95138833Y-120520666D01*
X95638833Y-120587333D02*
X95672166Y-120554000D01*
X95738833Y-120520666D01*
X95905500Y-120520666D01*
X95972166Y-120554000D01*
X96005500Y-120587333D01*
X96038833Y-120654000D01*
X96038833Y-120720666D01*
X96005500Y-120820666D01*
X95605500Y-121220666D01*
X96038833Y-121220666D01*
X96372166Y-121220666D02*
X96505500Y-121220666D01*
X96572166Y-121187333D01*
X96605500Y-121154000D01*
X96672166Y-121054000D01*
X96705500Y-120920666D01*
X96705500Y-120654000D01*
X96672166Y-120587333D01*
X96638833Y-120554000D01*
X96572166Y-120520666D01*
X96438833Y-120520666D01*
X96372166Y-120554000D01*
X96338833Y-120587333D01*
X96305500Y-120654000D01*
X96305500Y-120820666D01*
X96338833Y-120887333D01*
X96372166Y-120920666D01*
X96438833Y-120954000D01*
X96572166Y-120954000D01*
X96638833Y-120920666D01*
X96672166Y-120887333D01*
X96705500Y-120820666D01*
X96938833Y-121487333D02*
X96972166Y-121454000D01*
X97038833Y-121354000D01*
X97072166Y-121287333D01*
X97105500Y-121187333D01*
X97138833Y-121020666D01*
X97138833Y-120887333D01*
X97105500Y-120720666D01*
X97072166Y-120620666D01*
X97038833Y-120554000D01*
X96972166Y-120454000D01*
X96938833Y-120420666D01*
X89568976Y-117201904D02*
X89568976Y-116401904D01*
X90026119Y-117201904D02*
X89683261Y-116744761D01*
X90026119Y-116401904D02*
X89568976Y-116859047D01*
X90673738Y-117163809D02*
X90597547Y-117201904D01*
X90445166Y-117201904D01*
X90368976Y-117163809D01*
X90330880Y-117087619D01*
X90330880Y-116782857D01*
X90368976Y-116706666D01*
X90445166Y-116668571D01*
X90597547Y-116668571D01*
X90673738Y-116706666D01*
X90711833Y-116782857D01*
X90711833Y-116859047D01*
X90330880Y-116935238D01*
X90978500Y-116668571D02*
X91168976Y-117201904D01*
X91359452Y-116668571D02*
X91168976Y-117201904D01*
X91092785Y-117392380D01*
X91054690Y-117430476D01*
X90978500Y-117468571D01*
X91664214Y-116668571D02*
X91664214Y-117468571D01*
X91664214Y-116706666D02*
X91740404Y-116668571D01*
X91892785Y-116668571D01*
X91968976Y-116706666D01*
X92007071Y-116744761D01*
X92045166Y-116820952D01*
X92045166Y-117049523D01*
X92007071Y-117125714D01*
X91968976Y-117163809D01*
X91892785Y-117201904D01*
X91740404Y-117201904D01*
X91664214Y-117163809D01*
X92730880Y-117201904D02*
X92730880Y-116782857D01*
X92692785Y-116706666D01*
X92616595Y-116668571D01*
X92464214Y-116668571D01*
X92388023Y-116706666D01*
X92730880Y-117163809D02*
X92654690Y-117201904D01*
X92464214Y-117201904D01*
X92388023Y-117163809D01*
X92349928Y-117087619D01*
X92349928Y-117011428D01*
X92388023Y-116935238D01*
X92464214Y-116897142D01*
X92654690Y-116897142D01*
X92730880Y-116859047D01*
X93454690Y-117201904D02*
X93454690Y-116401904D01*
X93454690Y-117163809D02*
X93378500Y-117201904D01*
X93226119Y-117201904D01*
X93149928Y-117163809D01*
X93111833Y-117125714D01*
X93073738Y-117049523D01*
X93073738Y-116820952D01*
X93111833Y-116744761D01*
X93149928Y-116706666D01*
X93226119Y-116668571D01*
X93378500Y-116668571D01*
X93454690Y-116706666D01*
X94330880Y-116668571D02*
X94635642Y-116668571D01*
X94445166Y-117201904D02*
X94445166Y-116516190D01*
X94483261Y-116440000D01*
X94559452Y-116401904D01*
X94635642Y-116401904D01*
X95016595Y-117201904D02*
X94940404Y-117163809D01*
X94902309Y-117125714D01*
X94864214Y-117049523D01*
X94864214Y-116820952D01*
X94902309Y-116744761D01*
X94940404Y-116706666D01*
X95016595Y-116668571D01*
X95130880Y-116668571D01*
X95207071Y-116706666D01*
X95245166Y-116744761D01*
X95283261Y-116820952D01*
X95283261Y-117049523D01*
X95245166Y-117125714D01*
X95207071Y-117163809D01*
X95130880Y-117201904D01*
X95016595Y-117201904D01*
X95626119Y-117201904D02*
X95626119Y-116668571D01*
X95626119Y-116820952D02*
X95664214Y-116744761D01*
X95702309Y-116706666D01*
X95778500Y-116668571D01*
X95854690Y-116668571D01*
X96692785Y-116973333D02*
X97073738Y-116973333D01*
X96616595Y-117201904D02*
X96883261Y-116401904D01*
X97149928Y-117201904D01*
X97416595Y-117201904D02*
X97416595Y-116668571D01*
X97416595Y-116820952D02*
X97454690Y-116744761D01*
X97492785Y-116706666D01*
X97568976Y-116668571D01*
X97645166Y-116668571D01*
X97797547Y-116668571D02*
X98102309Y-116668571D01*
X97911833Y-116401904D02*
X97911833Y-117087619D01*
X97949928Y-117163809D01*
X98026119Y-117201904D01*
X98102309Y-117201904D01*
X98368976Y-117201904D02*
X98368976Y-116668571D01*
X98368976Y-116401904D02*
X98330880Y-116440000D01*
X98368976Y-116478095D01*
X98407071Y-116440000D01*
X98368976Y-116401904D01*
X98368976Y-116478095D01*
X98711833Y-117163809D02*
X98788023Y-117201904D01*
X98940404Y-117201904D01*
X99016595Y-117163809D01*
X99054690Y-117087619D01*
X99054690Y-117049523D01*
X99016595Y-116973333D01*
X98940404Y-116935238D01*
X98826119Y-116935238D01*
X98749928Y-116897142D01*
X98711833Y-116820952D01*
X98711833Y-116782857D01*
X98749928Y-116706666D01*
X98826119Y-116668571D01*
X98940404Y-116668571D01*
X99016595Y-116706666D01*
X99283261Y-116668571D02*
X99588023Y-116668571D01*
X99397547Y-116401904D02*
X99397547Y-117087619D01*
X99435642Y-117163809D01*
X99511833Y-117201904D01*
X99588023Y-117201904D01*
X99816595Y-117163809D02*
X99892785Y-117201904D01*
X100045166Y-117201904D01*
X100121357Y-117163809D01*
X100159452Y-117087619D01*
X100159452Y-117049523D01*
X100121357Y-116973333D01*
X100045166Y-116935238D01*
X99930880Y-116935238D01*
X99854690Y-116897142D01*
X99816595Y-116820952D01*
X99816595Y-116782857D01*
X99854690Y-116706666D01*
X99930880Y-116668571D01*
X100045166Y-116668571D01*
X100121357Y-116706666D01*
D13*
G36*
X90754236Y-118159795D02*
G01*
X91017562Y-118159795D01*
X91101782Y-119508588D01*
X90754236Y-119508588D01*
X90754236Y-118159795D01*
G37*
G36*
X90355606Y-118159795D02*
G01*
X90627826Y-118159795D01*
X90627826Y-119508588D01*
X90355606Y-119508588D01*
X90355606Y-118159795D01*
G37*
G36*
X89923768Y-117822551D02*
G01*
X90251153Y-117822551D01*
X90251153Y-119171253D01*
X90007805Y-119171253D01*
X89923768Y-117822551D01*
G37*
G36*
X89573840Y-118159789D02*
G01*
X89824467Y-118159789D01*
X89908503Y-119508570D01*
X89489623Y-119508570D01*
X89573840Y-118159789D01*
G37*
D17*
X155500000Y-47000000D03*
X179500000Y-47000000D03*
D18*
X156146200Y-45700000D03*
X156146200Y-48300000D03*
X178800000Y-47050000D03*
D19*
X143891000Y-79883000D03*
D20*
X143891000Y-87503000D03*
D17*
X151000000Y-47000000D03*
X127000000Y-47000000D03*
D18*
X150353800Y-48300000D03*
X150353800Y-45700000D03*
X127700000Y-46950000D03*
D21*
X98140000Y-76520000D03*
D22*
X95600000Y-81600000D03*
D21*
X91790000Y-79060000D03*
D23*
X90520000Y-81600000D03*
X100680000Y-81600000D03*
D21*
X117340000Y-67020000D03*
D22*
X114800000Y-72100000D03*
D21*
X110990000Y-69560000D03*
D23*
X109720000Y-72100000D03*
X119880000Y-72100000D03*
D13*
G36*
X145259779Y-59673266D02*
G01*
X145285309Y-59677053D01*
X145310345Y-59683325D01*
X145334646Y-59692020D01*
X145357977Y-59703055D01*
X145380115Y-59716323D01*
X145400845Y-59731698D01*
X145419969Y-59749031D01*
X145437302Y-59768155D01*
X145452677Y-59788885D01*
X145465945Y-59811023D01*
X145476980Y-59834354D01*
X145485675Y-59858655D01*
X145491947Y-59883691D01*
X145495734Y-59909221D01*
X145497000Y-59935000D01*
X145497000Y-60461000D01*
X145495734Y-60486779D01*
X145491947Y-60512309D01*
X145485675Y-60537345D01*
X145476980Y-60561646D01*
X145465945Y-60584977D01*
X145452677Y-60607115D01*
X145437302Y-60627845D01*
X145419969Y-60646969D01*
X145400845Y-60664302D01*
X145380115Y-60679677D01*
X145357977Y-60692945D01*
X145334646Y-60703980D01*
X145310345Y-60712675D01*
X145285309Y-60718947D01*
X145259779Y-60722734D01*
X145234000Y-60724000D01*
X144608000Y-60724000D01*
X144582221Y-60722734D01*
X144556691Y-60718947D01*
X144531655Y-60712675D01*
X144507354Y-60703980D01*
X144484023Y-60692945D01*
X144461885Y-60679677D01*
X144441155Y-60664302D01*
X144422031Y-60646969D01*
X144404698Y-60627845D01*
X144389323Y-60607115D01*
X144376055Y-60584977D01*
X144365020Y-60561646D01*
X144356325Y-60537345D01*
X144350053Y-60512309D01*
X144346266Y-60486779D01*
X144345000Y-60461000D01*
X144345000Y-59935000D01*
X144346266Y-59909221D01*
X144350053Y-59883691D01*
X144356325Y-59858655D01*
X144365020Y-59834354D01*
X144376055Y-59811023D01*
X144389323Y-59788885D01*
X144404698Y-59768155D01*
X144422031Y-59749031D01*
X144441155Y-59731698D01*
X144461885Y-59716323D01*
X144484023Y-59703055D01*
X144507354Y-59692020D01*
X144531655Y-59683325D01*
X144556691Y-59677053D01*
X144582221Y-59673266D01*
X144608000Y-59672000D01*
X145234000Y-59672000D01*
X145259779Y-59673266D01*
X145259779Y-59673266D01*
G37*
D24*
X144921000Y-60198000D03*
D13*
G36*
X147009779Y-59673266D02*
G01*
X147035309Y-59677053D01*
X147060345Y-59683325D01*
X147084646Y-59692020D01*
X147107977Y-59703055D01*
X147130115Y-59716323D01*
X147150845Y-59731698D01*
X147169969Y-59749031D01*
X147187302Y-59768155D01*
X147202677Y-59788885D01*
X147215945Y-59811023D01*
X147226980Y-59834354D01*
X147235675Y-59858655D01*
X147241947Y-59883691D01*
X147245734Y-59909221D01*
X147247000Y-59935000D01*
X147247000Y-60461000D01*
X147245734Y-60486779D01*
X147241947Y-60512309D01*
X147235675Y-60537345D01*
X147226980Y-60561646D01*
X147215945Y-60584977D01*
X147202677Y-60607115D01*
X147187302Y-60627845D01*
X147169969Y-60646969D01*
X147150845Y-60664302D01*
X147130115Y-60679677D01*
X147107977Y-60692945D01*
X147084646Y-60703980D01*
X147060345Y-60712675D01*
X147035309Y-60718947D01*
X147009779Y-60722734D01*
X146984000Y-60724000D01*
X146358000Y-60724000D01*
X146332221Y-60722734D01*
X146306691Y-60718947D01*
X146281655Y-60712675D01*
X146257354Y-60703980D01*
X146234023Y-60692945D01*
X146211885Y-60679677D01*
X146191155Y-60664302D01*
X146172031Y-60646969D01*
X146154698Y-60627845D01*
X146139323Y-60607115D01*
X146126055Y-60584977D01*
X146115020Y-60561646D01*
X146106325Y-60537345D01*
X146100053Y-60512309D01*
X146096266Y-60486779D01*
X146095000Y-60461000D01*
X146095000Y-59935000D01*
X146096266Y-59909221D01*
X146100053Y-59883691D01*
X146106325Y-59858655D01*
X146115020Y-59834354D01*
X146126055Y-59811023D01*
X146139323Y-59788885D01*
X146154698Y-59768155D01*
X146172031Y-59749031D01*
X146191155Y-59731698D01*
X146211885Y-59716323D01*
X146234023Y-59703055D01*
X146257354Y-59692020D01*
X146281655Y-59683325D01*
X146306691Y-59677053D01*
X146332221Y-59673266D01*
X146358000Y-59672000D01*
X146984000Y-59672000D01*
X147009779Y-59673266D01*
X147009779Y-59673266D01*
G37*
D24*
X146671000Y-60198000D03*
D21*
X117240000Y-109620000D03*
D22*
X114700000Y-114700000D03*
D21*
X110890000Y-112160000D03*
D23*
X109620000Y-114700000D03*
X119780000Y-114700000D03*
D21*
X136290000Y-80970000D03*
D22*
X133750000Y-86050000D03*
D21*
X129940000Y-83510000D03*
D23*
X128670000Y-86050000D03*
X138830000Y-86050000D03*
D21*
X178018252Y-108350497D03*
D22*
X174250000Y-112600000D03*
D21*
X171227223Y-109160448D03*
D23*
X169343097Y-111285199D03*
X179156903Y-113914801D03*
D21*
X155290000Y-90470000D03*
D22*
X152750000Y-95550000D03*
D21*
X148940000Y-93010000D03*
D23*
X147670000Y-95550000D03*
X157830000Y-95550000D03*
D21*
X155290000Y-71470000D03*
D22*
X152750000Y-76550000D03*
D21*
X148940000Y-74010000D03*
D23*
X147670000Y-76550000D03*
X157830000Y-76550000D03*
D21*
X155290000Y-109620000D03*
D22*
X152750000Y-114700000D03*
D21*
X148940000Y-112160000D03*
D23*
X147670000Y-114700000D03*
X157830000Y-114700000D03*
D21*
X136240000Y-61970000D03*
D22*
X133700000Y-67050000D03*
D21*
X129890000Y-64510000D03*
D23*
X128620000Y-67050000D03*
X138780000Y-67050000D03*
D21*
X136290000Y-109620000D03*
D22*
X133750000Y-114700000D03*
D21*
X129940000Y-112160000D03*
D23*
X128670000Y-114700000D03*
X138830000Y-114700000D03*
D21*
X117290000Y-85920000D03*
D22*
X114750000Y-91000000D03*
D21*
X110940000Y-88460000D03*
D23*
X109670000Y-91000000D03*
X119830000Y-91000000D03*
D21*
X98100000Y-95600000D03*
D22*
X95560000Y-100680000D03*
D21*
X91750000Y-98140000D03*
D23*
X90480000Y-100680000D03*
X100640000Y-100680000D03*
D25*
X102922800Y-64795000D03*
X94282800Y-64795000D03*
D26*
X102922800Y-60625000D03*
X94282800Y-60625000D03*
D27*
X99352800Y-65375000D03*
X98852800Y-65375000D03*
X98352800Y-65375000D03*
X100352800Y-65375000D03*
X99852800Y-65375000D03*
X97352800Y-65375000D03*
X97852800Y-65375000D03*
X96852800Y-65375000D03*
D28*
X95712800Y-64315000D03*
X101492800Y-64315000D03*
D29*
X101002800Y-65375000D03*
X101002800Y-65375000D03*
X101802800Y-65375000D03*
X101802800Y-65375000D03*
X96202800Y-65375000D03*
X95402800Y-65375000D03*
X96202800Y-65375000D03*
X95402800Y-65375000D03*
D30*
X181784000Y-41640000D03*
X181784000Y-53020000D03*
X124206000Y-41640000D03*
D31*
X89150000Y-39750000D03*
D30*
X124206000Y-53020000D03*
D31*
X89050000Y-54950000D03*
D32*
X156750000Y-39980000D03*
X149450000Y-39980000D03*
X149450000Y-37770000D03*
X156750000Y-37770000D03*
D33*
X150850000Y-40630000D03*
X152350000Y-40630000D03*
X155350000Y-40630000D03*
D34*
X151600000Y-38870000D03*
X154600000Y-38870000D03*
D30*
X164388800Y-111302800D03*
X164388800Y-70866000D03*
X102870000Y-111302800D03*
X102870000Y-70866000D03*
D35*
X91841400Y-65298800D03*
X91841400Y-65948800D03*
X91841400Y-66598800D03*
X91841400Y-67248800D03*
X91841400Y-67898800D03*
D36*
X91791400Y-62873800D03*
X91791400Y-70323800D03*
D37*
X87991400Y-62723800D03*
X87991400Y-70473800D03*
D38*
X90741400Y-64098800D03*
X90741400Y-69098800D03*
D39*
X171900000Y-75600000D03*
X176900000Y-75600000D03*
D40*
X168800000Y-68600000D03*
X180000000Y-68600000D03*
D39*
X171900000Y-61100000D03*
X174400000Y-61100000D03*
D41*
X176900000Y-61100000D03*
D39*
X171800000Y-97100000D03*
X176800000Y-97100000D03*
D40*
X168700000Y-90100000D03*
X179900000Y-90100000D03*
D39*
X171800000Y-82600000D03*
X174300000Y-82600000D03*
D41*
X176800000Y-82600000D03*
D19*
X124841000Y-68834000D03*
D20*
X124841000Y-76454000D03*
D19*
X163000000Y-114815000D03*
D20*
X163000000Y-122435000D03*
D19*
X160883600Y-93830600D03*
D20*
X160883600Y-101450600D03*
D19*
X160950000Y-77040000D03*
D20*
X160950000Y-84660000D03*
D19*
X160750000Y-114815000D03*
D20*
X160750000Y-122435000D03*
D19*
X141950000Y-67640000D03*
D20*
X141950000Y-75260000D03*
D19*
X163450000Y-87340000D03*
D20*
X163450000Y-94960000D03*
D19*
X143002000Y-114815000D03*
D20*
X143002000Y-122435000D03*
D19*
X122555000Y-72263000D03*
D20*
X122555000Y-79883000D03*
D19*
X163500000Y-77040000D03*
D20*
X163500000Y-84660000D03*
D19*
X122555000Y-114808000D03*
D20*
X122555000Y-122428000D03*
D19*
X105511600Y-92415000D03*
D20*
X105511600Y-100035000D03*
D19*
X104050000Y-79690000D03*
D20*
X104050000Y-87310000D03*
D42*
X151384000Y-63627000D03*
X151384000Y-61087000D03*
X153924000Y-63627000D03*
X153924000Y-61087000D03*
X156464000Y-63627000D03*
D43*
X156464000Y-61087000D03*
D44*
X146446000Y-63754000D03*
D13*
G36*
X146452112Y-62953602D02*
G01*
X146470534Y-62953602D01*
X146475533Y-62953848D01*
X146524364Y-62958658D01*
X146529314Y-62959392D01*
X146577439Y-62968964D01*
X146582295Y-62970180D01*
X146629250Y-62984424D01*
X146633961Y-62986110D01*
X146679294Y-63004887D01*
X146683820Y-63007027D01*
X146727093Y-63030158D01*
X146731384Y-63032731D01*
X146772183Y-63059991D01*
X146776204Y-63062973D01*
X146814133Y-63094101D01*
X146817841Y-63097462D01*
X146852538Y-63132159D01*
X146855899Y-63135867D01*
X146887027Y-63173796D01*
X146890009Y-63177817D01*
X146917269Y-63218616D01*
X146919842Y-63222907D01*
X146942973Y-63266180D01*
X146945113Y-63270706D01*
X146963890Y-63316039D01*
X146965576Y-63320750D01*
X146979820Y-63367705D01*
X146981036Y-63372561D01*
X146990608Y-63420686D01*
X146991342Y-63425636D01*
X146996152Y-63474467D01*
X146996398Y-63479466D01*
X146996398Y-63497888D01*
X146997000Y-63504000D01*
X146997000Y-64004000D01*
X146996398Y-64010112D01*
X146996398Y-64028534D01*
X146996152Y-64033533D01*
X146991342Y-64082364D01*
X146990608Y-64087314D01*
X146981036Y-64135439D01*
X146979820Y-64140295D01*
X146965576Y-64187250D01*
X146963890Y-64191961D01*
X146945113Y-64237294D01*
X146942973Y-64241820D01*
X146919842Y-64285093D01*
X146917269Y-64289384D01*
X146890009Y-64330183D01*
X146887027Y-64334204D01*
X146855899Y-64372133D01*
X146852538Y-64375841D01*
X146817841Y-64410538D01*
X146814133Y-64413899D01*
X146776204Y-64445027D01*
X146772183Y-64448009D01*
X146731384Y-64475269D01*
X146727093Y-64477842D01*
X146683820Y-64500973D01*
X146679294Y-64503113D01*
X146633961Y-64521890D01*
X146629250Y-64523576D01*
X146582295Y-64537820D01*
X146577439Y-64539036D01*
X146529314Y-64548608D01*
X146524364Y-64549342D01*
X146475533Y-64554152D01*
X146470534Y-64554398D01*
X146452112Y-64554398D01*
X146446000Y-64555000D01*
X145946000Y-64555000D01*
X145936050Y-64554020D01*
X145926483Y-64551118D01*
X145917666Y-64546405D01*
X145909938Y-64540062D01*
X145903595Y-64532334D01*
X145898882Y-64523517D01*
X145895980Y-64513950D01*
X145895000Y-64504000D01*
X145895000Y-63004000D01*
X145895980Y-62994050D01*
X145898882Y-62984483D01*
X145903595Y-62975666D01*
X145909938Y-62967938D01*
X145917666Y-62961595D01*
X145926483Y-62956882D01*
X145936050Y-62953980D01*
X145946000Y-62953000D01*
X146446000Y-62953000D01*
X146452112Y-62953602D01*
X146452112Y-62953602D01*
G37*
D44*
X145146000Y-63754000D03*
D13*
G36*
X145655950Y-62953980D02*
G01*
X145665517Y-62956882D01*
X145674334Y-62961595D01*
X145682062Y-62967938D01*
X145688405Y-62975666D01*
X145693118Y-62984483D01*
X145696020Y-62994050D01*
X145697000Y-63004000D01*
X145697000Y-64504000D01*
X145696020Y-64513950D01*
X145693118Y-64523517D01*
X145688405Y-64532334D01*
X145682062Y-64540062D01*
X145674334Y-64546405D01*
X145665517Y-64551118D01*
X145655950Y-64554020D01*
X145646000Y-64555000D01*
X145146000Y-64555000D01*
X145139888Y-64554398D01*
X145121466Y-64554398D01*
X145116467Y-64554152D01*
X145067636Y-64549342D01*
X145062686Y-64548608D01*
X145014561Y-64539036D01*
X145009705Y-64537820D01*
X144962750Y-64523576D01*
X144958039Y-64521890D01*
X144912706Y-64503113D01*
X144908180Y-64500973D01*
X144864907Y-64477842D01*
X144860616Y-64475269D01*
X144819817Y-64448009D01*
X144815796Y-64445027D01*
X144777867Y-64413899D01*
X144774159Y-64410538D01*
X144739462Y-64375841D01*
X144736101Y-64372133D01*
X144704973Y-64334204D01*
X144701991Y-64330183D01*
X144674731Y-64289384D01*
X144672158Y-64285093D01*
X144649027Y-64241820D01*
X144646887Y-64237294D01*
X144628110Y-64191961D01*
X144626424Y-64187250D01*
X144612180Y-64140295D01*
X144610964Y-64135439D01*
X144601392Y-64087314D01*
X144600658Y-64082364D01*
X144595848Y-64033533D01*
X144595602Y-64028534D01*
X144595602Y-64010112D01*
X144595000Y-64004000D01*
X144595000Y-63504000D01*
X144595602Y-63497888D01*
X144595602Y-63479466D01*
X144595848Y-63474467D01*
X144600658Y-63425636D01*
X144601392Y-63420686D01*
X144610964Y-63372561D01*
X144612180Y-63367705D01*
X144626424Y-63320750D01*
X144628110Y-63316039D01*
X144646887Y-63270706D01*
X144649027Y-63266180D01*
X144672158Y-63222907D01*
X144674731Y-63218616D01*
X144701991Y-63177817D01*
X144704973Y-63173796D01*
X144736101Y-63135867D01*
X144739462Y-63132159D01*
X144774159Y-63097462D01*
X144777867Y-63094101D01*
X144815796Y-63062973D01*
X144819817Y-63059991D01*
X144860616Y-63032731D01*
X144864907Y-63030158D01*
X144908180Y-63007027D01*
X144912706Y-63004887D01*
X144958039Y-62986110D01*
X144962750Y-62984424D01*
X145009705Y-62970180D01*
X145014561Y-62968964D01*
X145062686Y-62959392D01*
X145067636Y-62958658D01*
X145116467Y-62953848D01*
X145121466Y-62953602D01*
X145139888Y-62953602D01*
X145146000Y-62953000D01*
X145646000Y-62953000D01*
X145655950Y-62953980D01*
X145655950Y-62953980D01*
G37*
M02*
