M48
; DRILL file {KiCad (5.1.4-0-10_14)} date 2019年10月30日 水曜日 02:49:42
; FORMAT={3:3/ absolute / metric / suppress trailing zeros}
; #@! TF.CreationDate,2019-10-30T02:49:42+09:00
; #@! TF.GenerationSoftware,Kicad,Pcbnew,(5.1.4-0-10_14)
; #@! TF.FileFunction,NonPlated,1,2,NPTH
FMAT,2
METRIC,LZ
T1C0.600
T2C0.800
T3C0.900
T4C1.750
T5C3.000
T6C3.988
T7C4.100
%
G90
G05
T1
X095713Y-064315
X101493Y-064315
T2
X090741Y-064099
X090741Y-069099
T3
X1516Y-03887
X1546Y-03887
T4
X10972Y-0721
X11988Y-0721
X12867Y-1147
X13883Y-1147
X14767Y-09555
X15783Y-09555
X12867Y-08605
X13883Y-08605
X11978Y-1147
X10064Y-10068
X10962Y-1147
X09048Y-10068
X14767Y-07655
X15783Y-07655
X12862Y-06705
X13878Y-06705
X169343Y-111285
X179157Y-113915
X09052Y-0816
X10068Y-0816
X10967Y-091
X11983Y-091
X14767Y-1147
X15783Y-1147
T5
X12994Y-08351
X13629Y-08097
X11089Y-11216
X171227Y-10916
X178018Y-10835
X09175Y-09814
X0981Y-0956
X14894Y-07401
X15529Y-07147
X12989Y-06451
X13624Y-06197
X11724Y-10962
X09179Y-07906
X09814Y-07652
X11094Y-08846
X11729Y-08592
X15529Y-10962
X11099Y-06956
X11734Y-06702
X14894Y-11216
X12994Y-11216
X13629Y-10962
X14894Y-09301
X15529Y-09047
T6
X15275Y-1147
X13375Y-1147
X1337Y-06705
X15275Y-07655
X09556Y-10068
X17425Y-1126
X11475Y-091
X15275Y-09555
X13375Y-08605
X1147Y-1147
X0956Y-0816
X1148Y-0721
T7
X181784Y-04164
X124206Y-05302
X124206Y-04164
X181784Y-05302
X164389Y-111303
X10287Y-111303
X10287Y-070866
X164389Y-070866
T0
M30
