M48
; DRILL file {KiCad (5.1.4-0-10_14)} date 2019 October 30, Wednesday 04:12:42
; FORMAT={3:3/ absolute / metric / suppress trailing zeros}
; #@! TF.CreationDate,2019-10-30T04:12:42+09:00
; #@! TF.GenerationSoftware,Kicad,Pcbnew,(5.1.4-0-10_14)
; #@! TF.FileFunction,Plated,1,2,PTH
FMAT,2
METRIC,LZ
T1C0.400
T2C0.550
T3C0.600
T4C0.813
T5C0.850
T6C0.900
T7C1.000
T8C1.300
T9C1.500
%
G90
G05
T1
X096203Y-066287
X097053Y-063576
X098664Y-063745
X098798Y-066785
X099822Y-063754
X100711Y-067437
X107645Y-079807
X108412Y-080448
X109322Y-041961
X110617Y-092583
X113538Y-105791
X117932Y-117424
X122428Y-10287
X123063Y-105334
X123698Y-083439
X126236Y-094234
X126356Y-088528
X12636Y-09261
X126492Y-100707
X127762Y-07493
X128524Y-098044
X129279Y-096246
X129286Y-103632
X130556Y-089662
X131016Y-096325
X131525Y-094175
X132056Y-095119
X133731Y-098552
X134239Y-047117
X134747Y-103124
X135159Y-09261
X1353Y-0936
X137033Y-073787
X13775Y-090436
X139446Y-07874
X139913Y-10253
X141224Y-045593
X141351Y-048641
X142748Y-111633
X143256Y-106172
X144018Y-10033
X144691Y-061181
X145034Y-07601
X145669Y-055753
X147066Y-090805
X147701Y-103886
X148717Y-066929
X148792Y-061433
X149606Y-100838
X150749Y-066675
X150944Y-089095
X151638Y-088011
X151765Y-110109
X153797Y-042164
X1589Y-04155
X16002Y-075057
X161595Y-111049
X164245Y-116747
X167259Y-064389
X16764Y-081153
X169291Y-104394
X17835Y-072983
X179451Y-07874
X179934Y-11115
T4
X16345Y-08734
X16345Y-09496
X16095Y-07704
X16095Y-08466
X08905Y-05495
X105512Y-092415
X105512Y-100035
X10405Y-07969
X10405Y-08731
X122555Y-072263
X122555Y-079883
X08915Y-03975
X14195Y-06764
X14195Y-07526
X160884Y-093831
X160884Y-101451
X106812Y-039739
X143891Y-079883
X143891Y-087503
X091572Y-039739
X091572Y-054959
X094112Y-039739
X094112Y-054959
X096652Y-039739
X096652Y-054959
X099192Y-039739
X099192Y-054959
X101732Y-039739
X101732Y-054959
X104272Y-039739
X104272Y-054959
X106812Y-054959
X109352Y-039739
X111892Y-054959
X1635Y-07704
X109352Y-054959
X114432Y-054959
X143002Y-114815
X143002Y-122435
X111892Y-039739
X114432Y-039739
X116972Y-039739
X116972Y-054959
X119512Y-039739
X119512Y-054959
X1635Y-08466
X16075Y-114815
X16075Y-122435
X122555Y-114808
X122555Y-122428
X124841Y-068834
X124841Y-076454
X163Y-114815
X163Y-122435
T6
X156146Y-0457
X156146Y-0483
X1277Y-04695
X150354Y-0457
X150354Y-0483
X1788Y-04705
T7
X1719Y-0611
X1719Y-0756
X1744Y-0611
X1769Y-0611
X1769Y-0756
X151384Y-061087
X151384Y-063627
X153924Y-061087
X153924Y-063627
X156464Y-061087
X156464Y-063627
X1718Y-0826
X1718Y-0971
X1743Y-0826
X1768Y-0826
X1768Y-0971
T8
X105056Y-060325
X111556Y-060325
T2
G00X088316Y-062724
M15
G01X087666Y-062724
M16
G05
G00X088316Y-070474
M15
G01X087666Y-070474
M16
G05
T3
G00X094283Y-060225
M15
G01X094283Y-061025
M16
G05
G00X094283Y-064245
M15
G01X094283Y-065345
M16
G05
G00X102923Y-060225
M15
G01X102923Y-061025
M16
G05
G00X102923Y-064245
M15
G01X102923Y-065345
M16
G05
T5
G00X092066Y-062874
M15
G01X091516Y-062874
M16
G05
G00X092066Y-070324
M15
G01X091516Y-070324
M16
G05
T9
G00X1688Y-06795
M15
G01X1688Y-06925
M16
G05
G00X18Y-06795
M15
G01X18Y-06925
M16
G05
G00X1687Y-08945
M15
G01X1687Y-09075
M16
G05
G00X1799Y-08945
M15
G01X1799Y-09075
M16
G05
T0
M30
