G04 #@! TF.GenerationSoftware,KiCad,Pcbnew,(5.1.4-0-10_14)*
G04 #@! TF.CreationDate,2019-11-24T20:31:42+09:00*
G04 #@! TF.ProjectId,palette1202-OB-back,70616c65-7474-4653-9132-30322d4f422d,rev?*
G04 #@! TF.SameCoordinates,Original*
G04 #@! TF.FileFunction,Legend,Bot*
G04 #@! TF.FilePolarity,Positive*
%FSLAX46Y46*%
G04 Gerber Fmt 4.6, Leading zero omitted, Abs format (unit mm)*
G04 Created by KiCad (PCBNEW (5.1.4-0-10_14)) date 2019-11-24 20:31:42*
%MOMM*%
%LPD*%
G04 APERTURE LIST*
%ADD10C,0.100000*%
%ADD11C,0.400000*%
G04 APERTURE END LIST*
D10*
G36*
X183902375Y-119189167D02*
G01*
X183899337Y-119069587D01*
X183890324Y-118951549D01*
X183875483Y-118835202D01*
X183854961Y-118720694D01*
X183828907Y-118608173D01*
X183797468Y-118497785D01*
X183760792Y-118389679D01*
X183719027Y-118284003D01*
X183672320Y-118180904D01*
X183620819Y-118080530D01*
X183564672Y-117983029D01*
X183504027Y-117888549D01*
X183439031Y-117797237D01*
X183369833Y-117709241D01*
X183296580Y-117624710D01*
X183219419Y-117543790D01*
X183138499Y-117466629D01*
X183053968Y-117393376D01*
X182965972Y-117324177D01*
X182874660Y-117259182D01*
X182780180Y-117198537D01*
X182682679Y-117142390D01*
X182582305Y-117090889D01*
X182479206Y-117044182D01*
X182373530Y-117002417D01*
X182265424Y-116965740D01*
X182155036Y-116934301D01*
X182042515Y-116908247D01*
X181928006Y-116887726D01*
X181811660Y-116872884D01*
X181693622Y-116863871D01*
X181574042Y-116860834D01*
X181454461Y-116863871D01*
X181336423Y-116872884D01*
X181220077Y-116887726D01*
X181105568Y-116908247D01*
X180993047Y-116934301D01*
X180882659Y-116965740D01*
X180774553Y-117002417D01*
X180668877Y-117044182D01*
X180565778Y-117090889D01*
X180465404Y-117142390D01*
X180367903Y-117198537D01*
X180273423Y-117259182D01*
X180182111Y-117324177D01*
X180094115Y-117393376D01*
X180009584Y-117466629D01*
X179928664Y-117543790D01*
X179851503Y-117624710D01*
X179778250Y-117709241D01*
X179709052Y-117797237D01*
X179644056Y-117888549D01*
X179583411Y-117983029D01*
X179527264Y-118080530D01*
X179475763Y-118180904D01*
X179429056Y-118284003D01*
X179387291Y-118389679D01*
X179350615Y-118497785D01*
X179319176Y-118608173D01*
X179293122Y-118720694D01*
X179272600Y-118835202D01*
X179257759Y-118951549D01*
X179248746Y-119069587D01*
X179245709Y-119189167D01*
X179248746Y-119308747D01*
X179257759Y-119426785D01*
X179272600Y-119543131D01*
X179293122Y-119657640D01*
X179319176Y-119770161D01*
X179350615Y-119880549D01*
X179387291Y-119988655D01*
X179429057Y-120094331D01*
X179475764Y-120197430D01*
X179527265Y-120297804D01*
X179583411Y-120395305D01*
X179644056Y-120489785D01*
X179709052Y-120581097D01*
X179778250Y-120669092D01*
X179851504Y-120753624D01*
X179928664Y-120834544D01*
X180009584Y-120911705D01*
X180094116Y-120984958D01*
X180182112Y-121054157D01*
X180273424Y-121119152D01*
X180367904Y-121179797D01*
X180465405Y-121235944D01*
X180565779Y-121287445D01*
X180668877Y-121334152D01*
X180774554Y-121375917D01*
X180882660Y-121412594D01*
X180993047Y-121444033D01*
X181105569Y-121470087D01*
X181220077Y-121490608D01*
X181336424Y-121505450D01*
X181454461Y-121514463D01*
X181574042Y-121517500D01*
X181574042Y-122152500D01*
X181421679Y-122148647D01*
X181271302Y-122137213D01*
X181123097Y-122118383D01*
X180977251Y-122092343D01*
X180833952Y-122059278D01*
X180693386Y-122019374D01*
X180555741Y-121972816D01*
X180421202Y-121919790D01*
X180289959Y-121860482D01*
X180162196Y-121795076D01*
X180038102Y-121723759D01*
X179917864Y-121646717D01*
X179801667Y-121564133D01*
X179689701Y-121476195D01*
X179582150Y-121383088D01*
X179479203Y-121284997D01*
X179381047Y-121182108D01*
X179287867Y-121074606D01*
X179199852Y-120962677D01*
X179117189Y-120846507D01*
X179040064Y-120726281D01*
X178968665Y-120602184D01*
X178903178Y-120474403D01*
X178843790Y-120343122D01*
X178790689Y-120208527D01*
X178744061Y-120070805D01*
X178704093Y-119930139D01*
X178670974Y-119786717D01*
X178644888Y-119640723D01*
X178626024Y-119492343D01*
X178614569Y-119341762D01*
X178610709Y-119189167D01*
X178614561Y-119036804D01*
X178625995Y-118886427D01*
X178644825Y-118738222D01*
X178670865Y-118592376D01*
X178703930Y-118449077D01*
X178743834Y-118308511D01*
X178790392Y-118170866D01*
X178843418Y-118036328D01*
X178902726Y-117905084D01*
X178968132Y-117777322D01*
X179039448Y-117653228D01*
X179116491Y-117532989D01*
X179199075Y-117416793D01*
X179287013Y-117304826D01*
X179380120Y-117197276D01*
X179478211Y-117094328D01*
X179581100Y-116996172D01*
X179688602Y-116902993D01*
X179800530Y-116814978D01*
X179916701Y-116732314D01*
X180036927Y-116655189D01*
X180161024Y-116583790D01*
X180288805Y-116518303D01*
X180420086Y-116458915D01*
X180554681Y-116405814D01*
X180692403Y-116359186D01*
X180833069Y-116319219D01*
X180976491Y-116286099D01*
X181122485Y-116260013D01*
X181270866Y-116241149D01*
X181421446Y-116229694D01*
X181574042Y-116225834D01*
X181726404Y-116229686D01*
X181876781Y-116241120D01*
X182024986Y-116259950D01*
X182170832Y-116285990D01*
X182314131Y-116319055D01*
X182454697Y-116358959D01*
X182592342Y-116405517D01*
X182726880Y-116458543D01*
X182858124Y-116517852D01*
X182985887Y-116583257D01*
X183109981Y-116654574D01*
X183230219Y-116731617D01*
X183346415Y-116814200D01*
X183458382Y-116902138D01*
X183565933Y-116995245D01*
X183668880Y-117093336D01*
X183767036Y-117196226D01*
X183860216Y-117303727D01*
X183948230Y-117415656D01*
X184030894Y-117531826D01*
X184108019Y-117652053D01*
X184179418Y-117776149D01*
X184244906Y-117903931D01*
X184304293Y-118035212D01*
X184357395Y-118169806D01*
X184404022Y-118307529D01*
X184443990Y-118448194D01*
X184477110Y-118591617D01*
X184503195Y-118737611D01*
X184522059Y-118885991D01*
X184533515Y-119036572D01*
X184537375Y-119189167D01*
X183902375Y-119189167D01*
X183902375Y-119189167D01*
G37*
G36*
X179176917Y-114995521D02*
G01*
X179216605Y-115291854D01*
X179399167Y-115291854D01*
X179587021Y-115791916D01*
X179769583Y-115791916D01*
X179695501Y-115291854D01*
X179991834Y-115291854D01*
X179952147Y-114995521D01*
X179655813Y-114995521D01*
X179420334Y-113288959D01*
X179417513Y-113269735D01*
X179415999Y-113251751D01*
X179415732Y-113243225D01*
X179415794Y-113235008D01*
X179416184Y-113227102D01*
X179416903Y-113219505D01*
X179417952Y-113212219D01*
X179419330Y-113205242D01*
X179421039Y-113198576D01*
X179423079Y-113192220D01*
X179425450Y-113186174D01*
X179428153Y-113180438D01*
X179431188Y-113175012D01*
X179434556Y-113169896D01*
X179438257Y-113165090D01*
X179442293Y-113160594D01*
X179446662Y-113156409D01*
X179451366Y-113152533D01*
X179456406Y-113148967D01*
X179461781Y-113145712D01*
X179467493Y-113142766D01*
X179473541Y-113140131D01*
X179479926Y-113137805D01*
X179486649Y-113135790D01*
X179493710Y-113134085D01*
X179501110Y-113132689D01*
X179508849Y-113131604D01*
X179516928Y-113130829D01*
X179525346Y-113130364D01*
X179534106Y-113130209D01*
X179692855Y-113130209D01*
X179653167Y-112833876D01*
X179494417Y-112833876D01*
X179469054Y-112834340D01*
X179444555Y-112835731D01*
X179420916Y-112838044D01*
X179398134Y-112841276D01*
X179376204Y-112845422D01*
X179355123Y-112850479D01*
X179334887Y-112856443D01*
X179315492Y-112863311D01*
X179296935Y-112871077D01*
X179279210Y-112879739D01*
X179262315Y-112889292D01*
X179246246Y-112899732D01*
X179230998Y-112911056D01*
X179216568Y-112923260D01*
X179202952Y-112936340D01*
X179190146Y-112950292D01*
X179178271Y-112965112D01*
X179167450Y-112980796D01*
X179157683Y-112997341D01*
X179148970Y-113014743D01*
X179141312Y-113032997D01*
X179134708Y-113052100D01*
X179129158Y-113072047D01*
X179124662Y-113092836D01*
X179121220Y-113114462D01*
X179118832Y-113136921D01*
X179117499Y-113160210D01*
X179117220Y-113184324D01*
X179117995Y-113209260D01*
X179119824Y-113235013D01*
X179122708Y-113261581D01*
X179126645Y-113288959D01*
X179364771Y-114995521D01*
X179176917Y-114995521D01*
X179176917Y-114995521D01*
G37*
G36*
X178242938Y-114995521D02*
G01*
X178282626Y-115291854D01*
X178465188Y-115291854D01*
X178653042Y-115791916D01*
X178835605Y-115791916D01*
X178761522Y-115291854D01*
X179057855Y-115291854D01*
X179018167Y-114995521D01*
X178721834Y-114995521D01*
X178486356Y-113288959D01*
X178483535Y-113269735D01*
X178482020Y-113251751D01*
X178481754Y-113243225D01*
X178481815Y-113235008D01*
X178482205Y-113227102D01*
X178482924Y-113219505D01*
X178483973Y-113212219D01*
X178485351Y-113205242D01*
X178487060Y-113198576D01*
X178489100Y-113192220D01*
X178491471Y-113186174D01*
X178494174Y-113180438D01*
X178497209Y-113175012D01*
X178500577Y-113169896D01*
X178504278Y-113165090D01*
X178508314Y-113160594D01*
X178512683Y-113156409D01*
X178517387Y-113152533D01*
X178522427Y-113148967D01*
X178527802Y-113145712D01*
X178533514Y-113142766D01*
X178539562Y-113140131D01*
X178545947Y-113137805D01*
X178552670Y-113135790D01*
X178559731Y-113134085D01*
X178567131Y-113132689D01*
X178574870Y-113131604D01*
X178582949Y-113130829D01*
X178591367Y-113130364D01*
X178600127Y-113130209D01*
X178758876Y-113130209D01*
X178719188Y-112833876D01*
X178560438Y-112833876D01*
X178535075Y-112834340D01*
X178510576Y-112835731D01*
X178486937Y-112838044D01*
X178464155Y-112841276D01*
X178442226Y-112845422D01*
X178421145Y-112850479D01*
X178400909Y-112856443D01*
X178381514Y-112863311D01*
X178362957Y-112871077D01*
X178345232Y-112879739D01*
X178328337Y-112889292D01*
X178312268Y-112899732D01*
X178297020Y-112911056D01*
X178282590Y-112923260D01*
X178268974Y-112936340D01*
X178256168Y-112950292D01*
X178244292Y-112965112D01*
X178233471Y-112980796D01*
X178223704Y-112997341D01*
X178214992Y-113014743D01*
X178207333Y-113032997D01*
X178200729Y-113052100D01*
X178195179Y-113072047D01*
X178190683Y-113092836D01*
X178187241Y-113114462D01*
X178184854Y-113136921D01*
X178183520Y-113160210D01*
X178183241Y-113184324D01*
X178184016Y-113209260D01*
X178185846Y-113235013D01*
X178188729Y-113261581D01*
X178192667Y-113288959D01*
X178430792Y-114995521D01*
X178242938Y-114995521D01*
X178242938Y-114995521D01*
G37*
G36*
X180936396Y-114413437D02*
G01*
X181007834Y-114884396D01*
X181011802Y-114909323D01*
X181014774Y-114933503D01*
X181016746Y-114956931D01*
X181017715Y-114979604D01*
X181017675Y-115001516D01*
X181016625Y-115022666D01*
X181014558Y-115043047D01*
X181011472Y-115062658D01*
X181007364Y-115081493D01*
X181002228Y-115099550D01*
X180996061Y-115116823D01*
X180988859Y-115133310D01*
X180980618Y-115149006D01*
X180971335Y-115163908D01*
X180961005Y-115178011D01*
X180949625Y-115191312D01*
X180937376Y-115204273D01*
X180924433Y-115216370D01*
X180910785Y-115227606D01*
X180896420Y-115237986D01*
X180881326Y-115247513D01*
X180865491Y-115256192D01*
X180848905Y-115264025D01*
X180831556Y-115271018D01*
X180813431Y-115277173D01*
X180794519Y-115282495D01*
X180774809Y-115286988D01*
X180754289Y-115290655D01*
X180732947Y-115293501D01*
X180710772Y-115295528D01*
X180687752Y-115296742D01*
X180663876Y-115297146D01*
X180640311Y-115296712D01*
X180617243Y-115295409D01*
X180594670Y-115293239D01*
X180572594Y-115290200D01*
X180551014Y-115286294D01*
X180529930Y-115281519D01*
X180509342Y-115275876D01*
X180489250Y-115269365D01*
X180469654Y-115261985D01*
X180450555Y-115253738D01*
X180431951Y-115244622D01*
X180413844Y-115234638D01*
X180396232Y-115223786D01*
X180379117Y-115212066D01*
X180362498Y-115199477D01*
X180346375Y-115186021D01*
X180330871Y-115171757D01*
X180316108Y-115156741D01*
X180302081Y-115140966D01*
X180288787Y-115124423D01*
X180276221Y-115107105D01*
X180264380Y-115089004D01*
X180253260Y-115070112D01*
X180242857Y-115050422D01*
X180233167Y-115029926D01*
X180224186Y-115008616D01*
X180215911Y-114986484D01*
X180208337Y-114963523D01*
X180201461Y-114939724D01*
X180195278Y-114915081D01*
X180189785Y-114889585D01*
X180184979Y-114863229D01*
X179949500Y-113259853D01*
X179946027Y-113233933D01*
X179943542Y-113208761D01*
X179942041Y-113184341D01*
X179941521Y-113160676D01*
X179941978Y-113137772D01*
X179943407Y-113115630D01*
X179945806Y-113094256D01*
X179949169Y-113073653D01*
X179953494Y-113053826D01*
X179958776Y-113034777D01*
X179965011Y-113016512D01*
X179972196Y-112999033D01*
X179980327Y-112982344D01*
X179989400Y-112966451D01*
X179999410Y-112951355D01*
X180010354Y-112937062D01*
X180022604Y-112923606D01*
X180035547Y-112911017D01*
X180049195Y-112899297D01*
X180063561Y-112888445D01*
X180078655Y-112878461D01*
X180094489Y-112869345D01*
X180111075Y-112861098D01*
X180128425Y-112853718D01*
X180146550Y-112847207D01*
X180165461Y-112841564D01*
X180185171Y-112836789D01*
X180205691Y-112832883D01*
X180227033Y-112829844D01*
X180249208Y-112827674D01*
X180272228Y-112826371D01*
X180296105Y-112825937D01*
X180319669Y-112826402D01*
X180342737Y-112827792D01*
X180365309Y-112830106D01*
X180387386Y-112833337D01*
X180408966Y-112837484D01*
X180430050Y-112842541D01*
X180450638Y-112848505D01*
X180470729Y-112855372D01*
X180490325Y-112863139D01*
X180509425Y-112871800D01*
X180528028Y-112881353D01*
X180546136Y-112891794D01*
X180563747Y-112903118D01*
X180580862Y-112915322D01*
X180597481Y-112928401D01*
X180613604Y-112942353D01*
X180629077Y-112957173D01*
X180643752Y-112972858D01*
X180657636Y-112989403D01*
X180670738Y-113006804D01*
X180683064Y-113025058D01*
X180694622Y-113044161D01*
X180705421Y-113064109D01*
X180715469Y-113084898D01*
X180724772Y-113106524D01*
X180733338Y-113128983D01*
X180741176Y-113152272D01*
X180748294Y-113176386D01*
X180754698Y-113201322D01*
X180760396Y-113227075D01*
X180765398Y-113253643D01*
X180769709Y-113281020D01*
X180846438Y-113804894D01*
X180550104Y-113804894D01*
X180473376Y-113281020D01*
X180470553Y-113261796D01*
X180467040Y-113243813D01*
X180462830Y-113227070D01*
X180457914Y-113211567D01*
X180452285Y-113197304D01*
X180445936Y-113184282D01*
X180438857Y-113172500D01*
X180435043Y-113167074D01*
X180431043Y-113161958D01*
X180426857Y-113157152D01*
X180422484Y-113152656D01*
X180417923Y-113148470D01*
X180413173Y-113144594D01*
X180408233Y-113141029D01*
X180403103Y-113137773D01*
X180397780Y-113134828D01*
X180392265Y-113132192D01*
X180386556Y-113129867D01*
X180380652Y-113127851D01*
X180374552Y-113126146D01*
X180368256Y-113124751D01*
X180361762Y-113123666D01*
X180355069Y-113122891D01*
X180348177Y-113122426D01*
X180341084Y-113122271D01*
X180334022Y-113122426D01*
X180327224Y-113122891D01*
X180320690Y-113123666D01*
X180314419Y-113124751D01*
X180308412Y-113126146D01*
X180302668Y-113127852D01*
X180297187Y-113129867D01*
X180291971Y-113132192D01*
X180287018Y-113134828D01*
X180282328Y-113137773D01*
X180277902Y-113141029D01*
X180273739Y-113144595D01*
X180269840Y-113148470D01*
X180266205Y-113152656D01*
X180262833Y-113157152D01*
X180259725Y-113161958D01*
X180256880Y-113167074D01*
X180254299Y-113172500D01*
X180251981Y-113178236D01*
X180249927Y-113184282D01*
X180248136Y-113190638D01*
X180246609Y-113197305D01*
X180245346Y-113204281D01*
X180244346Y-113211567D01*
X180243609Y-113219164D01*
X180243136Y-113227070D01*
X180242927Y-113235287D01*
X180242981Y-113243813D01*
X180243299Y-113252650D01*
X180243880Y-113261797D01*
X180244725Y-113271253D01*
X180245834Y-113281020D01*
X180354313Y-114032436D01*
X180878187Y-114032436D01*
X180936396Y-114424020D01*
X180640065Y-114434604D01*
X180624188Y-114331416D01*
X180396647Y-114331416D01*
X180483959Y-114865874D01*
X180487743Y-114882214D01*
X180492150Y-114897500D01*
X180497185Y-114911732D01*
X180502852Y-114924909D01*
X180509155Y-114937033D01*
X180512546Y-114942699D01*
X180516097Y-114948102D01*
X180519809Y-114953241D01*
X180523683Y-114958117D01*
X180527718Y-114962729D01*
X180531915Y-114967077D01*
X180536276Y-114971162D01*
X180540799Y-114974984D01*
X180545487Y-114978542D01*
X180550338Y-114981836D01*
X180555354Y-114984867D01*
X180560536Y-114987634D01*
X180565883Y-114990138D01*
X180571396Y-114992378D01*
X180577076Y-114994355D01*
X180582923Y-114996068D01*
X180588938Y-114997517D01*
X180595121Y-114998703D01*
X180601472Y-114999626D01*
X180607992Y-115000284D01*
X180614682Y-115000680D01*
X180621542Y-115000812D01*
X180627869Y-115000688D01*
X180633955Y-115000315D01*
X180639809Y-114999695D01*
X180645438Y-114998827D01*
X180650850Y-114997711D01*
X180656052Y-114996347D01*
X180661053Y-114994734D01*
X180665861Y-114992874D01*
X180670482Y-114990765D01*
X180674925Y-114988409D01*
X180679197Y-114985805D01*
X180683307Y-114982952D01*
X180687261Y-114979852D01*
X180691069Y-114976503D01*
X180694737Y-114972906D01*
X180698273Y-114969062D01*
X180701590Y-114964938D01*
X180704593Y-114960504D01*
X180707278Y-114955760D01*
X180709641Y-114950706D01*
X180711679Y-114945342D01*
X180713388Y-114939668D01*
X180714763Y-114933684D01*
X180715801Y-114927390D01*
X180716498Y-114920786D01*
X180716850Y-114913872D01*
X180716853Y-114906647D01*
X180716503Y-114899113D01*
X180715797Y-114891268D01*
X180714730Y-114883114D01*
X180713300Y-114874649D01*
X180711500Y-114865874D01*
X180640065Y-114416082D01*
X180936396Y-114413437D01*
X180936396Y-114413437D01*
G37*
G36*
X177930730Y-114413437D02*
G01*
X178002168Y-114884396D01*
X178006136Y-114909323D01*
X178009108Y-114933503D01*
X178011080Y-114956931D01*
X178012048Y-114979604D01*
X178012009Y-115001516D01*
X178010958Y-115022666D01*
X178008892Y-115043047D01*
X178005806Y-115062658D01*
X178001697Y-115081493D01*
X177996561Y-115099550D01*
X177990394Y-115116823D01*
X177983192Y-115133310D01*
X177974951Y-115149006D01*
X177965668Y-115163908D01*
X177955339Y-115178011D01*
X177943959Y-115191312D01*
X177931709Y-115204273D01*
X177918766Y-115216370D01*
X177905118Y-115227606D01*
X177890752Y-115237986D01*
X177875658Y-115247513D01*
X177859824Y-115256192D01*
X177843238Y-115264025D01*
X177825888Y-115271018D01*
X177807763Y-115277173D01*
X177788852Y-115282495D01*
X177769142Y-115286988D01*
X177748621Y-115290655D01*
X177727280Y-115293501D01*
X177705105Y-115295528D01*
X177682085Y-115296742D01*
X177658208Y-115297146D01*
X177634644Y-115296712D01*
X177611575Y-115295409D01*
X177589003Y-115293239D01*
X177566927Y-115290200D01*
X177545347Y-115286294D01*
X177524263Y-115281519D01*
X177503675Y-115275876D01*
X177483583Y-115269365D01*
X177463988Y-115261985D01*
X177444888Y-115253738D01*
X177426285Y-115244622D01*
X177408177Y-115234638D01*
X177390566Y-115223786D01*
X177373450Y-115212066D01*
X177356831Y-115199477D01*
X177340708Y-115186021D01*
X177325205Y-115171757D01*
X177310441Y-115156741D01*
X177296414Y-115140966D01*
X177283120Y-115124423D01*
X177270554Y-115107105D01*
X177258713Y-115089004D01*
X177247593Y-115070112D01*
X177237190Y-115050422D01*
X177227500Y-115029926D01*
X177218519Y-115008616D01*
X177210244Y-114986484D01*
X177202670Y-114963523D01*
X177195794Y-114939724D01*
X177189611Y-114915081D01*
X177184119Y-114889585D01*
X177179312Y-114863229D01*
X176943834Y-113259853D01*
X176940360Y-113233933D01*
X176937875Y-113208761D01*
X176936374Y-113184341D01*
X176935854Y-113160676D01*
X176936311Y-113137772D01*
X176937740Y-113115630D01*
X176940139Y-113094256D01*
X176943502Y-113073653D01*
X176947827Y-113053826D01*
X176953109Y-113034777D01*
X176959345Y-113016512D01*
X176966530Y-112999033D01*
X176974660Y-112982344D01*
X176983733Y-112966451D01*
X176993743Y-112951355D01*
X177004688Y-112937062D01*
X177016937Y-112923606D01*
X177029880Y-112911017D01*
X177043528Y-112899297D01*
X177057894Y-112888445D01*
X177072988Y-112878461D01*
X177088822Y-112869345D01*
X177105408Y-112861098D01*
X177122758Y-112853718D01*
X177140883Y-112847207D01*
X177159795Y-112841564D01*
X177179505Y-112836789D01*
X177200025Y-112832883D01*
X177221366Y-112829844D01*
X177243541Y-112827674D01*
X177266561Y-112826371D01*
X177290438Y-112825937D01*
X177314002Y-112826402D01*
X177337071Y-112827792D01*
X177359643Y-112830106D01*
X177381719Y-112833337D01*
X177403299Y-112837484D01*
X177424383Y-112842541D01*
X177444971Y-112848505D01*
X177465063Y-112855372D01*
X177484659Y-112863139D01*
X177503759Y-112871800D01*
X177522362Y-112881353D01*
X177540469Y-112891794D01*
X177558081Y-112903118D01*
X177575196Y-112915322D01*
X177591815Y-112928401D01*
X177607938Y-112942353D01*
X177623411Y-112957173D01*
X177638086Y-112972858D01*
X177651970Y-112989403D01*
X177665071Y-113006804D01*
X177677397Y-113025058D01*
X177688956Y-113044161D01*
X177699755Y-113064109D01*
X177709802Y-113084898D01*
X177719105Y-113106524D01*
X177727672Y-113128983D01*
X177735510Y-113152272D01*
X177742627Y-113176386D01*
X177749031Y-113201322D01*
X177754730Y-113227075D01*
X177759731Y-113253643D01*
X177764042Y-113281020D01*
X177840772Y-113804894D01*
X177544439Y-113804894D01*
X177467709Y-113281020D01*
X177464886Y-113261796D01*
X177461374Y-113243813D01*
X177457163Y-113227070D01*
X177452248Y-113211567D01*
X177446619Y-113197304D01*
X177440269Y-113184282D01*
X177433191Y-113172500D01*
X177429376Y-113167074D01*
X177425376Y-113161958D01*
X177421190Y-113157152D01*
X177416817Y-113152656D01*
X177412256Y-113148470D01*
X177407506Y-113144594D01*
X177402567Y-113141029D01*
X177397436Y-113137773D01*
X177392114Y-113134828D01*
X177386598Y-113132192D01*
X177380889Y-113129867D01*
X177374985Y-113127851D01*
X177368886Y-113126146D01*
X177362589Y-113124751D01*
X177356095Y-113123666D01*
X177349403Y-113122891D01*
X177342511Y-113122426D01*
X177335418Y-113122271D01*
X177328356Y-113122426D01*
X177321558Y-113122891D01*
X177315024Y-113123666D01*
X177308753Y-113124751D01*
X177302745Y-113126146D01*
X177297002Y-113127852D01*
X177291521Y-113129867D01*
X177286304Y-113132192D01*
X177281351Y-113134828D01*
X177276662Y-113137773D01*
X177272235Y-113141029D01*
X177268073Y-113144595D01*
X177264174Y-113148470D01*
X177260538Y-113152656D01*
X177257167Y-113157152D01*
X177254058Y-113161958D01*
X177251213Y-113167074D01*
X177248632Y-113172500D01*
X177246315Y-113178236D01*
X177244260Y-113184282D01*
X177242470Y-113190638D01*
X177240943Y-113197305D01*
X177239679Y-113204281D01*
X177238679Y-113211567D01*
X177237943Y-113219164D01*
X177237470Y-113227070D01*
X177237261Y-113235287D01*
X177237315Y-113243813D01*
X177237633Y-113252650D01*
X177238214Y-113261797D01*
X177239059Y-113271253D01*
X177240168Y-113281020D01*
X177348646Y-114032436D01*
X177875168Y-114032436D01*
X177933377Y-114424020D01*
X177637043Y-114434604D01*
X177621168Y-114331416D01*
X177393626Y-114331416D01*
X177480939Y-114865874D01*
X177484722Y-114882214D01*
X177489130Y-114897500D01*
X177494165Y-114911732D01*
X177499832Y-114924909D01*
X177506135Y-114937033D01*
X177509525Y-114942699D01*
X177513077Y-114948102D01*
X177516789Y-114953241D01*
X177520662Y-114958117D01*
X177524697Y-114962729D01*
X177528895Y-114967077D01*
X177533255Y-114971162D01*
X177537779Y-114974984D01*
X177542466Y-114978542D01*
X177547318Y-114981836D01*
X177552334Y-114984867D01*
X177557515Y-114987634D01*
X177562863Y-114990138D01*
X177568376Y-114992378D01*
X177574056Y-114994355D01*
X177579903Y-114996068D01*
X177585918Y-114997517D01*
X177592101Y-114998703D01*
X177598452Y-114999626D01*
X177604973Y-115000284D01*
X177611663Y-115000680D01*
X177618523Y-115000812D01*
X177624849Y-115000688D01*
X177630936Y-115000315D01*
X177636789Y-114999695D01*
X177642418Y-114998827D01*
X177647830Y-114997711D01*
X177653033Y-114996347D01*
X177658034Y-114994734D01*
X177662841Y-114992874D01*
X177667462Y-114990765D01*
X177671905Y-114988409D01*
X177676177Y-114985805D01*
X177680287Y-114982952D01*
X177684241Y-114979852D01*
X177688048Y-114976503D01*
X177691716Y-114972906D01*
X177695252Y-114969062D01*
X177698569Y-114964938D01*
X177701572Y-114960504D01*
X177704257Y-114955760D01*
X177706621Y-114950706D01*
X177708659Y-114945342D01*
X177710368Y-114939668D01*
X177711743Y-114933684D01*
X177712781Y-114927390D01*
X177713478Y-114920786D01*
X177713830Y-114913872D01*
X177713833Y-114906647D01*
X177713484Y-114899113D01*
X177712778Y-114891268D01*
X177711711Y-114883114D01*
X177710280Y-114874649D01*
X177708481Y-114865874D01*
X177637043Y-114416082D01*
X177930730Y-114413437D01*
X177930730Y-114413437D01*
G37*
G36*
X176708355Y-116067083D02*
G01*
X177004689Y-116067083D01*
X176554897Y-112833875D01*
X176258563Y-112833875D01*
X176708355Y-116067083D01*
X176708355Y-116067083D01*
G37*
G36*
X183987042Y-114609229D02*
G01*
X183980835Y-114573019D01*
X183974102Y-114537833D01*
X183966811Y-114503701D01*
X183958930Y-114470654D01*
X183950430Y-114438723D01*
X183941278Y-114407939D01*
X183931444Y-114378334D01*
X183920897Y-114349937D01*
X183909853Y-114321536D01*
X183898531Y-114293879D01*
X183886898Y-114266966D01*
X183874925Y-114240797D01*
X183862579Y-114215373D01*
X183849830Y-114190692D01*
X183836648Y-114166756D01*
X183823000Y-114143563D01*
X183809104Y-114119994D01*
X183795177Y-114096889D01*
X183781188Y-114074219D01*
X183767107Y-114051951D01*
X183752901Y-114030056D01*
X183738540Y-114008502D01*
X183723993Y-113987258D01*
X183709229Y-113966292D01*
X183694465Y-113945333D01*
X183679918Y-113924125D01*
X183665557Y-113902669D01*
X183651351Y-113880965D01*
X183623280Y-113836812D01*
X183595457Y-113791668D01*
X183569785Y-113745449D01*
X183557181Y-113721812D01*
X183544856Y-113697741D01*
X183532903Y-113673174D01*
X183521416Y-113648048D01*
X183510486Y-113622303D01*
X183500208Y-113595876D01*
X183489666Y-113568709D01*
X183479868Y-113540768D01*
X183470814Y-113512020D01*
X183462505Y-113482436D01*
X183454939Y-113451983D01*
X183448118Y-113420631D01*
X183442041Y-113388349D01*
X183436709Y-113355105D01*
X183799189Y-113355105D01*
X183778021Y-113185772D01*
X183246208Y-113188417D01*
X183267374Y-113355105D01*
X183273581Y-113392188D01*
X183280314Y-113428031D01*
X183287606Y-113462633D01*
X183295487Y-113495996D01*
X183303988Y-113528118D01*
X183313140Y-113559000D01*
X183322974Y-113588641D01*
X183333521Y-113617042D01*
X183344564Y-113644576D01*
X183355887Y-113671613D01*
X183367519Y-113698154D01*
X183379493Y-113724199D01*
X183391838Y-113749748D01*
X183404587Y-113774801D01*
X183417770Y-113799357D01*
X183431418Y-113823418D01*
X183445313Y-113846987D01*
X183459240Y-113870092D01*
X183473229Y-113892762D01*
X183487311Y-113915029D01*
X183501517Y-113936925D01*
X183515878Y-113958479D01*
X183530425Y-113979723D01*
X183545189Y-114000688D01*
X183559953Y-114021648D01*
X183574499Y-114042856D01*
X183588860Y-114064312D01*
X183603066Y-114086016D01*
X183631137Y-114130169D01*
X183658959Y-114175313D01*
X183684631Y-114221491D01*
X183697235Y-114245030D01*
X183709560Y-114268909D01*
X183721513Y-114293161D01*
X183733001Y-114317816D01*
X183743931Y-114342905D01*
X183754210Y-114368459D01*
X183764752Y-114394865D01*
X183774550Y-114422450D01*
X183783604Y-114451151D01*
X183791913Y-114480906D01*
X183799479Y-114511654D01*
X183806300Y-114543331D01*
X183812377Y-114575877D01*
X183817709Y-114609229D01*
X183819230Y-114622190D01*
X183819644Y-114628346D01*
X183819828Y-114634287D01*
X183819784Y-114640013D01*
X183819512Y-114645524D01*
X183819013Y-114650820D01*
X183818288Y-114655903D01*
X183817339Y-114660773D01*
X183816166Y-114665431D01*
X183814770Y-114669876D01*
X183813152Y-114674109D01*
X183811313Y-114678131D01*
X183809254Y-114681943D01*
X183806976Y-114685544D01*
X183804481Y-114688935D01*
X183801768Y-114692117D01*
X183798839Y-114695091D01*
X183795695Y-114697856D01*
X183792337Y-114700413D01*
X183788765Y-114702762D01*
X183784982Y-114704905D01*
X183780987Y-114706842D01*
X183776782Y-114708572D01*
X183772368Y-114710098D01*
X183767745Y-114711418D01*
X183762915Y-114712534D01*
X183757879Y-114713446D01*
X183752637Y-114714154D01*
X183747191Y-114714659D01*
X183735689Y-114715063D01*
X183729814Y-114714962D01*
X183724093Y-114714659D01*
X183718528Y-114714154D01*
X183713117Y-114713446D01*
X183707862Y-114712534D01*
X183702761Y-114711418D01*
X183697816Y-114710098D01*
X183693026Y-114708572D01*
X183688390Y-114706842D01*
X183683910Y-114704905D01*
X183679584Y-114702762D01*
X183675414Y-114700413D01*
X183671399Y-114697856D01*
X183667539Y-114695091D01*
X183663833Y-114692117D01*
X183660283Y-114688935D01*
X183656888Y-114685544D01*
X183653648Y-114681943D01*
X183650563Y-114678131D01*
X183647633Y-114674109D01*
X183644857Y-114669876D01*
X183642237Y-114665431D01*
X183639772Y-114660773D01*
X183637462Y-114655903D01*
X183635307Y-114650820D01*
X183633307Y-114645524D01*
X183631463Y-114640013D01*
X183629773Y-114634287D01*
X183628238Y-114628346D01*
X183626858Y-114622190D01*
X183624563Y-114609229D01*
X183582230Y-114326125D01*
X183412897Y-114326125D01*
X183455231Y-114611875D01*
X183457960Y-114627534D01*
X183461184Y-114642758D01*
X183464905Y-114657547D01*
X183469122Y-114671903D01*
X183473835Y-114685825D01*
X183479043Y-114699312D01*
X183484749Y-114712366D01*
X183490950Y-114724985D01*
X183497647Y-114737171D01*
X183504840Y-114748922D01*
X183512530Y-114760239D01*
X183520715Y-114771122D01*
X183529397Y-114781571D01*
X183538575Y-114791586D01*
X183548249Y-114801167D01*
X183558419Y-114810313D01*
X183568991Y-114819429D01*
X183579870Y-114827929D01*
X183591050Y-114835817D01*
X183602530Y-114843096D01*
X183614303Y-114849771D01*
X183626368Y-114855845D01*
X183638719Y-114861322D01*
X183651353Y-114866206D01*
X183664266Y-114870501D01*
X183677455Y-114874211D01*
X183690914Y-114877339D01*
X183704641Y-114879890D01*
X183718632Y-114881868D01*
X183732882Y-114883275D01*
X183747388Y-114884117D01*
X183762146Y-114884397D01*
X183776812Y-114884117D01*
X183791044Y-114883275D01*
X183804842Y-114881868D01*
X183818205Y-114879890D01*
X183831135Y-114877339D01*
X183843630Y-114874211D01*
X183855691Y-114870501D01*
X183867318Y-114866206D01*
X183878512Y-114861322D01*
X183889271Y-114855845D01*
X183899596Y-114849771D01*
X183909486Y-114843096D01*
X183918943Y-114835817D01*
X183927966Y-114827929D01*
X183936555Y-114819429D01*
X183944710Y-114810313D01*
X183952307Y-114800701D01*
X183959225Y-114790712D01*
X183965470Y-114780344D01*
X183971043Y-114769592D01*
X183975951Y-114758452D01*
X183980195Y-114746921D01*
X183983781Y-114734995D01*
X183986711Y-114722670D01*
X183988991Y-114709941D01*
X183990623Y-114696806D01*
X183991612Y-114683259D01*
X183991961Y-114669298D01*
X183991675Y-114654918D01*
X183990757Y-114640116D01*
X183989212Y-114624888D01*
X183987042Y-114609229D01*
X183987042Y-114609229D01*
G37*
G36*
X183156250Y-113908083D02*
G01*
X183262085Y-114617166D01*
X183264225Y-114632359D01*
X183265687Y-114647175D01*
X183266474Y-114661611D01*
X183266591Y-114675664D01*
X183266041Y-114689329D01*
X183264829Y-114702603D01*
X183262958Y-114715482D01*
X183260431Y-114727961D01*
X183257254Y-114740037D01*
X183253429Y-114751706D01*
X183248961Y-114762965D01*
X183243853Y-114773808D01*
X183238110Y-114784233D01*
X183231735Y-114794236D01*
X183224733Y-114803812D01*
X183217106Y-114812959D01*
X183208951Y-114821610D01*
X183200362Y-114829707D01*
X183191339Y-114837254D01*
X183181883Y-114844254D01*
X183171992Y-114850711D01*
X183161667Y-114856630D01*
X183150908Y-114862014D01*
X183139715Y-114866867D01*
X183128087Y-114871193D01*
X183116026Y-114874996D01*
X183103531Y-114878280D01*
X183090601Y-114881048D01*
X183077238Y-114883304D01*
X183063440Y-114885053D01*
X183049208Y-114886297D01*
X183034542Y-114887042D01*
X183019813Y-114886763D01*
X183005386Y-114885926D01*
X182991254Y-114884530D01*
X182977408Y-114882577D01*
X182963842Y-114880066D01*
X182950547Y-114876996D01*
X182937515Y-114873368D01*
X182924740Y-114869182D01*
X182912212Y-114864438D01*
X182899925Y-114859136D01*
X182887871Y-114853276D01*
X182876041Y-114846858D01*
X182864428Y-114839882D01*
X182853025Y-114832347D01*
X182841823Y-114824255D01*
X182830815Y-114815604D01*
X182820645Y-114806458D01*
X182810971Y-114796882D01*
X182801793Y-114786879D01*
X182793111Y-114776454D01*
X182784926Y-114765610D01*
X182777236Y-114754352D01*
X182770043Y-114742682D01*
X182763346Y-114730606D01*
X182757145Y-114718127D01*
X182751440Y-114705249D01*
X182746231Y-114691975D01*
X182741518Y-114678310D01*
X182737301Y-114664257D01*
X182733580Y-114649820D01*
X182730356Y-114635004D01*
X182727627Y-114619812D01*
X182553002Y-113455645D01*
X182550832Y-113440452D01*
X182549286Y-113425636D01*
X182548367Y-113411200D01*
X182548081Y-113397147D01*
X182548431Y-113383482D01*
X182549420Y-113370208D01*
X182551052Y-113357329D01*
X182553332Y-113344850D01*
X182556262Y-113332774D01*
X182559848Y-113321105D01*
X182564093Y-113309846D01*
X182569001Y-113299003D01*
X182574575Y-113288578D01*
X182580819Y-113278575D01*
X182587738Y-113268999D01*
X182595335Y-113259852D01*
X182603490Y-113251201D01*
X182612079Y-113243104D01*
X182621101Y-113235558D01*
X182630558Y-113228557D01*
X182640449Y-113222100D01*
X182650774Y-113216181D01*
X182661533Y-113210797D01*
X182672726Y-113205944D01*
X182684353Y-113201618D01*
X182696415Y-113197815D01*
X182708910Y-113194532D01*
X182721840Y-113191764D01*
X182735203Y-113189508D01*
X182749001Y-113187759D01*
X182763233Y-113186515D01*
X182777899Y-113185770D01*
X182792657Y-113186049D01*
X182807163Y-113186886D01*
X182821413Y-113188281D01*
X182835404Y-113190235D01*
X182849131Y-113192746D01*
X182862591Y-113195816D01*
X182875779Y-113199444D01*
X182888692Y-113203629D01*
X182901326Y-113208373D01*
X182913678Y-113213675D01*
X182925742Y-113219535D01*
X182937516Y-113225954D01*
X182948995Y-113232930D01*
X182960176Y-113240464D01*
X182971054Y-113248557D01*
X182981627Y-113257208D01*
X182991826Y-113266354D01*
X183001584Y-113275930D01*
X183010893Y-113285933D01*
X183019743Y-113296358D01*
X183028129Y-113307201D01*
X183036042Y-113318460D01*
X183043474Y-113330129D01*
X183050418Y-113342205D01*
X183056866Y-113354684D01*
X183062810Y-113367562D01*
X183068243Y-113380836D01*
X183073156Y-113394501D01*
X183077542Y-113408554D01*
X183081393Y-113422991D01*
X183084702Y-113437807D01*
X183087460Y-113452999D01*
X183158898Y-113939833D01*
X182989563Y-113942478D01*
X182915480Y-113458290D01*
X182913156Y-113445795D01*
X182911741Y-113439849D01*
X182910158Y-113434106D01*
X182908408Y-113428563D01*
X182906493Y-113423223D01*
X182904413Y-113418083D01*
X182902169Y-113413146D01*
X182899762Y-113408409D01*
X182897194Y-113403875D01*
X182894464Y-113399542D01*
X182891575Y-113395410D01*
X182888527Y-113391480D01*
X182885321Y-113387752D01*
X182881958Y-113384225D01*
X182878439Y-113380900D01*
X182874765Y-113377776D01*
X182870937Y-113374853D01*
X182866956Y-113372133D01*
X182862823Y-113369613D01*
X182858538Y-113367296D01*
X182854104Y-113365179D01*
X182849520Y-113363265D01*
X182844788Y-113361552D01*
X182839908Y-113360040D01*
X182834883Y-113358730D01*
X182829712Y-113357622D01*
X182824396Y-113356715D01*
X182818937Y-113356009D01*
X182813336Y-113355506D01*
X182801710Y-113355102D01*
X182795880Y-113355196D01*
X182790289Y-113355480D01*
X182784932Y-113355957D01*
X182779799Y-113356632D01*
X182774883Y-113357509D01*
X182770177Y-113358591D01*
X182765672Y-113359882D01*
X182761361Y-113361386D01*
X182757236Y-113363108D01*
X182753289Y-113365050D01*
X182749513Y-113367217D01*
X182745900Y-113369613D01*
X182742441Y-113372242D01*
X182739130Y-113375107D01*
X182735958Y-113378212D01*
X182732918Y-113381561D01*
X182730532Y-113384662D01*
X182728339Y-113388010D01*
X182726348Y-113391607D01*
X182724566Y-113395452D01*
X182723002Y-113399544D01*
X182721662Y-113403885D01*
X182720555Y-113408474D01*
X182719688Y-113413311D01*
X182719069Y-113418396D01*
X182718707Y-113423729D01*
X182718607Y-113429310D01*
X182718779Y-113435139D01*
X182719230Y-113441216D01*
X182719968Y-113447541D01*
X182721000Y-113454114D01*
X182722334Y-113460936D01*
X182896960Y-114614519D01*
X182899254Y-114627014D01*
X182902169Y-114638704D01*
X182903859Y-114644246D01*
X182905704Y-114649587D01*
X182907704Y-114654726D01*
X182909858Y-114659663D01*
X182912168Y-114664400D01*
X182914633Y-114668934D01*
X182917254Y-114673267D01*
X182920029Y-114677399D01*
X182922959Y-114681329D01*
X182926044Y-114685057D01*
X182929284Y-114688584D01*
X182932679Y-114691910D01*
X182936229Y-114695033D01*
X182939935Y-114697956D01*
X182943795Y-114700677D01*
X182947810Y-114703196D01*
X182951981Y-114705513D01*
X182956306Y-114707630D01*
X182960786Y-114709544D01*
X182965422Y-114711257D01*
X182970212Y-114712769D01*
X182975157Y-114714079D01*
X182980258Y-114715187D01*
X182985513Y-114716094D01*
X182990924Y-114716800D01*
X182996489Y-114717304D01*
X183002210Y-114717606D01*
X183008086Y-114717707D01*
X183013938Y-114717606D01*
X183019587Y-114717304D01*
X183025033Y-114716800D01*
X183030275Y-114716094D01*
X183035312Y-114715187D01*
X183040141Y-114714079D01*
X183044764Y-114712769D01*
X183049178Y-114711257D01*
X183053383Y-114709544D01*
X183057378Y-114707630D01*
X183061162Y-114705513D01*
X183064733Y-114703196D01*
X183068091Y-114700677D01*
X183071235Y-114697956D01*
X183074164Y-114695033D01*
X183076877Y-114691910D01*
X183079372Y-114688584D01*
X183081650Y-114685057D01*
X183083709Y-114681329D01*
X183085548Y-114677399D01*
X183087166Y-114673267D01*
X183088562Y-114668934D01*
X183089735Y-114664400D01*
X183090684Y-114659663D01*
X183091409Y-114654726D01*
X183091908Y-114649587D01*
X183092180Y-114644246D01*
X183092224Y-114638704D01*
X183092040Y-114632960D01*
X183091626Y-114627014D01*
X183090981Y-114620867D01*
X183090105Y-114614519D01*
X182986918Y-113921311D01*
X183156250Y-113908083D01*
X183156250Y-113908083D01*
G37*
G36*
X175758501Y-113897501D02*
G01*
X175671189Y-113217522D01*
X175666228Y-113207724D01*
X175661267Y-113198174D01*
X175656306Y-113188872D01*
X175651345Y-113179819D01*
X175646384Y-113171013D01*
X175641423Y-113162455D01*
X175636462Y-113154145D01*
X175631501Y-113146084D01*
X175619553Y-113132276D01*
X175613501Y-113125527D01*
X175607357Y-113118964D01*
X175601089Y-113112649D01*
X175597898Y-113109604D01*
X175594665Y-113106645D01*
X175591386Y-113103778D01*
X175588056Y-113101012D01*
X175584672Y-113098355D01*
X175581229Y-113095814D01*
X175577726Y-113093396D01*
X175574160Y-113091106D01*
X175570533Y-113088948D01*
X175566843Y-113086925D01*
X175563091Y-113085042D01*
X175559278Y-113083302D01*
X175555402Y-113081710D01*
X175551464Y-113080269D01*
X175547464Y-113078983D01*
X175543403Y-113077855D01*
X175539279Y-113076891D01*
X175535093Y-113076093D01*
X175530845Y-113075466D01*
X175526535Y-113075013D01*
X175522163Y-113074738D01*
X175517729Y-113074646D01*
X175513297Y-113074801D01*
X175508934Y-113075266D01*
X175504649Y-113076041D01*
X175500449Y-113077126D01*
X175496342Y-113078522D01*
X175492336Y-113080227D01*
X175488438Y-113082243D01*
X175484657Y-113084568D01*
X175480999Y-113087204D01*
X175477474Y-113090149D01*
X175474087Y-113093405D01*
X175470849Y-113096971D01*
X175467765Y-113100846D01*
X175464844Y-113105032D01*
X175462093Y-113109528D01*
X175459521Y-113114334D01*
X175456698Y-113119482D01*
X175454177Y-113125005D01*
X175451951Y-113130908D01*
X175450012Y-113137195D01*
X175448352Y-113143870D01*
X175446963Y-113150936D01*
X175445838Y-113158398D01*
X175444969Y-113166258D01*
X175444347Y-113174522D01*
X175443966Y-113183193D01*
X175443818Y-113192274D01*
X175443894Y-113201771D01*
X175444188Y-113211685D01*
X175444690Y-113222023D01*
X175445394Y-113232786D01*
X175446292Y-113243980D01*
X175533605Y-113892210D01*
X175537388Y-113912424D01*
X175541795Y-113931391D01*
X175546831Y-113949101D01*
X175552498Y-113965549D01*
X175558800Y-113980725D01*
X175565742Y-113994622D01*
X175573328Y-114007232D01*
X175581561Y-114018548D01*
X175585921Y-114023718D01*
X175590445Y-114028561D01*
X175595132Y-114033077D01*
X175599983Y-114037265D01*
X175605000Y-114041123D01*
X175610181Y-114044651D01*
X175615528Y-114047847D01*
X175621042Y-114050711D01*
X175626722Y-114053242D01*
X175632569Y-114055438D01*
X175638584Y-114057299D01*
X175644766Y-114058824D01*
X175651118Y-114060012D01*
X175657638Y-114060862D01*
X175664328Y-114061372D01*
X175671189Y-114061542D01*
X175784959Y-114061542D01*
X175742626Y-113733459D01*
X176046897Y-113712292D01*
X176208293Y-114855292D01*
X176212261Y-114882145D01*
X176215233Y-114908136D01*
X176217205Y-114933276D01*
X176218174Y-114957570D01*
X176218134Y-114981027D01*
X176217083Y-115003655D01*
X176215017Y-115025461D01*
X176211931Y-115046453D01*
X176207822Y-115066639D01*
X176202686Y-115086027D01*
X176196519Y-115104624D01*
X176189318Y-115122438D01*
X176181077Y-115139477D01*
X176171794Y-115155749D01*
X176161465Y-115171261D01*
X176150085Y-115186021D01*
X176137835Y-115199943D01*
X176124892Y-115212939D01*
X176111244Y-115225013D01*
X176096879Y-115236168D01*
X176081784Y-115246408D01*
X176065950Y-115255738D01*
X176049364Y-115264161D01*
X176032014Y-115271680D01*
X176013889Y-115278301D01*
X175994978Y-115284026D01*
X175975268Y-115288859D01*
X175954748Y-115292806D01*
X175933406Y-115295868D01*
X175911231Y-115298051D01*
X175888211Y-115299358D01*
X175864334Y-115299792D01*
X175842723Y-115299389D01*
X175821541Y-115298180D01*
X175800786Y-115296165D01*
X175780453Y-115293343D01*
X175760539Y-115289715D01*
X175741039Y-115285281D01*
X175721951Y-115280041D01*
X175703269Y-115273995D01*
X175684990Y-115267143D01*
X175667111Y-115259484D01*
X175649627Y-115251020D01*
X175632534Y-115241749D01*
X175615829Y-115231672D01*
X175599508Y-115220789D01*
X175583566Y-115209100D01*
X175568001Y-115196605D01*
X175552963Y-115183334D01*
X175538607Y-115169314D01*
X175524934Y-115154543D01*
X175511942Y-115139017D01*
X175499633Y-115122730D01*
X175488006Y-115105680D01*
X175477061Y-115087863D01*
X175466798Y-115069274D01*
X175457217Y-115049910D01*
X175448318Y-115029767D01*
X175440102Y-115008841D01*
X175432568Y-114987129D01*
X175425715Y-114964625D01*
X175419545Y-114941328D01*
X175414057Y-114917231D01*
X175409251Y-114892333D01*
X175358980Y-114566896D01*
X175655314Y-114566896D01*
X175705585Y-114871167D01*
X175707165Y-114879942D01*
X175708928Y-114888407D01*
X175710869Y-114896561D01*
X175712984Y-114904406D01*
X175715270Y-114911940D01*
X175717723Y-114919165D01*
X175720338Y-114926079D01*
X175723113Y-114932683D01*
X175726042Y-114938978D01*
X175729123Y-114944962D01*
X175732351Y-114950636D01*
X175735722Y-114956000D01*
X175739233Y-114961054D01*
X175742879Y-114965797D01*
X175746657Y-114970231D01*
X175750563Y-114974355D01*
X175754562Y-114978199D01*
X175758619Y-114981796D01*
X175762731Y-114985145D01*
X175766893Y-114988245D01*
X175771101Y-114991098D01*
X175775352Y-114993702D01*
X175779642Y-114996059D01*
X175783967Y-114998167D01*
X175788322Y-115000027D01*
X175792705Y-115001640D01*
X175797111Y-115003004D01*
X175801536Y-115004120D01*
X175805977Y-115004988D01*
X175810430Y-115005608D01*
X175814890Y-115005980D01*
X175819354Y-115006104D01*
X175825681Y-115005980D01*
X175831767Y-115005608D01*
X175837621Y-115004988D01*
X175843250Y-115004120D01*
X175848662Y-115003004D01*
X175853864Y-115001639D01*
X175858865Y-115000027D01*
X175863672Y-114998167D01*
X175868293Y-114996058D01*
X175872736Y-114993702D01*
X175877009Y-114991097D01*
X175881118Y-114988245D01*
X175885073Y-114985144D01*
X175888880Y-114981796D01*
X175892548Y-114978199D01*
X175896084Y-114974355D01*
X175899401Y-114970231D01*
X175902404Y-114965797D01*
X175905089Y-114961053D01*
X175907453Y-114955999D01*
X175909491Y-114950635D01*
X175911199Y-114944961D01*
X175912574Y-114938977D01*
X175913612Y-114932683D01*
X175914309Y-114926079D01*
X175914661Y-114919164D01*
X175914665Y-114911940D01*
X175914315Y-114904406D01*
X175913609Y-114896561D01*
X175912542Y-114888407D01*
X175911112Y-114879942D01*
X175909313Y-114871167D01*
X175822000Y-114357876D01*
X175705585Y-114357876D01*
X175682021Y-114357411D01*
X175658957Y-114356021D01*
X175636397Y-114353707D01*
X175614345Y-114350476D01*
X175592804Y-114346329D01*
X175571779Y-114341272D01*
X175551273Y-114335308D01*
X175531290Y-114328441D01*
X175511835Y-114320674D01*
X175492910Y-114312013D01*
X175474520Y-114302460D01*
X175456669Y-114292019D01*
X175439361Y-114280695D01*
X175422599Y-114268491D01*
X175406387Y-114255412D01*
X175390730Y-114241460D01*
X175375692Y-114226640D01*
X175361337Y-114210955D01*
X175347663Y-114194410D01*
X175334672Y-114177009D01*
X175322363Y-114158755D01*
X175310735Y-114139652D01*
X175299790Y-114119704D01*
X175289528Y-114098915D01*
X175279947Y-114077289D01*
X175271048Y-114054830D01*
X175262832Y-114031541D01*
X175255297Y-114007427D01*
X175248445Y-113982491D01*
X175242275Y-113956738D01*
X175236787Y-113930170D01*
X175231981Y-113902793D01*
X175144668Y-113288960D01*
X175141164Y-113261583D01*
X175138586Y-113235015D01*
X175136930Y-113209261D01*
X175136193Y-113184325D01*
X175136371Y-113160211D01*
X175137459Y-113136923D01*
X175139454Y-113114463D01*
X175142353Y-113092837D01*
X175146150Y-113072049D01*
X175150843Y-113052101D01*
X175156428Y-113032998D01*
X175162899Y-113014744D01*
X175170255Y-112997343D01*
X175178490Y-112980798D01*
X175187601Y-112965114D01*
X175197584Y-112950293D01*
X175208157Y-112936342D01*
X175219035Y-112923262D01*
X175230216Y-112911058D01*
X175241696Y-112899734D01*
X175253470Y-112889293D01*
X175265534Y-112879740D01*
X175277886Y-112871078D01*
X175290520Y-112863312D01*
X175303433Y-112856445D01*
X175316622Y-112850481D01*
X175330082Y-112845424D01*
X175343809Y-112841278D01*
X175357800Y-112838046D01*
X175372050Y-112835733D01*
X175386556Y-112834342D01*
X175401314Y-112833878D01*
X175413970Y-112834120D01*
X175426160Y-112834828D01*
X175437917Y-112835970D01*
X175449270Y-112837516D01*
X175460251Y-112839433D01*
X175470891Y-112841691D01*
X175481221Y-112844260D01*
X175491272Y-112847107D01*
X175501075Y-112851086D01*
X175510661Y-112855127D01*
X175520061Y-112859292D01*
X175529306Y-112863643D01*
X175538427Y-112868242D01*
X175547455Y-112873151D01*
X175556421Y-112878433D01*
X175565356Y-112884148D01*
X175574161Y-112889233D01*
X175582719Y-112894566D01*
X175591028Y-112900147D01*
X175599090Y-112905976D01*
X175606903Y-112912053D01*
X175614469Y-112918378D01*
X175621786Y-112924952D01*
X175628856Y-112931773D01*
X175652668Y-112931773D01*
X175644732Y-112836523D01*
X175917252Y-112836523D01*
X176068064Y-113897502D01*
X175758501Y-113897501D01*
X175758501Y-113897501D01*
G37*
G36*
X175134084Y-114807667D02*
G01*
X175231980Y-115498229D01*
X175235854Y-115528088D01*
X175238543Y-115557145D01*
X175240038Y-115585404D01*
X175240331Y-115612868D01*
X175239415Y-115639542D01*
X175237282Y-115665428D01*
X175233924Y-115690532D01*
X175229334Y-115714857D01*
X175223504Y-115738406D01*
X175216425Y-115761185D01*
X175208091Y-115783196D01*
X175198494Y-115804443D01*
X175187625Y-115824931D01*
X175175477Y-115844663D01*
X175162042Y-115863643D01*
X175147313Y-115881875D01*
X175131998Y-115899147D01*
X175115822Y-115915248D01*
X175098793Y-115930186D01*
X175080920Y-115943969D01*
X175062209Y-115956606D01*
X175042669Y-115968102D01*
X175022307Y-115978467D01*
X175001131Y-115987708D01*
X174979149Y-115995833D01*
X174956369Y-116002850D01*
X174932798Y-116008765D01*
X174908444Y-116013588D01*
X174883315Y-116017325D01*
X174857419Y-116019985D01*
X174830763Y-116021576D01*
X174803355Y-116022104D01*
X174303293Y-116022104D01*
X173856147Y-112833876D01*
X174173648Y-112833876D01*
X174305939Y-113789021D01*
X174488502Y-113789021D01*
X174516035Y-113789579D01*
X174543072Y-113791249D01*
X174569613Y-113794027D01*
X174595658Y-113797910D01*
X174621207Y-113802893D01*
X174646260Y-113808974D01*
X174670816Y-113816147D01*
X174694877Y-113824409D01*
X174718441Y-113833757D01*
X174741509Y-113844186D01*
X174764082Y-113855692D01*
X174786158Y-113868272D01*
X174807738Y-113881922D01*
X174828822Y-113896638D01*
X174849410Y-113912415D01*
X174869501Y-113929251D01*
X174888850Y-113947483D01*
X174907210Y-113966463D01*
X174924585Y-113986195D01*
X174940980Y-114006683D01*
X174956398Y-114027930D01*
X174970844Y-114049941D01*
X174984320Y-114072719D01*
X174996832Y-114096269D01*
X175008382Y-114120594D01*
X175018975Y-114145697D01*
X175028615Y-114171584D01*
X175037305Y-114198258D01*
X175045049Y-114225722D01*
X175051852Y-114253980D01*
X175057716Y-114283037D01*
X175062647Y-114312897D01*
X175136730Y-114836771D01*
X174827168Y-114902917D01*
X174742502Y-114310250D01*
X174738439Y-114285289D01*
X174733194Y-114261995D01*
X174726764Y-114240359D01*
X174723103Y-114230161D01*
X174719143Y-114220374D01*
X174714886Y-114210999D01*
X174710329Y-114202033D01*
X174705473Y-114193476D01*
X174700318Y-114185327D01*
X174694861Y-114177585D01*
X174689104Y-114170249D01*
X174683046Y-114163318D01*
X174676686Y-114156792D01*
X174670023Y-114150668D01*
X174663058Y-114144946D01*
X174655789Y-114139625D01*
X174648217Y-114134705D01*
X174640341Y-114130184D01*
X174632159Y-114126061D01*
X174623673Y-114122335D01*
X174614881Y-114119006D01*
X174605782Y-114116072D01*
X174596377Y-114113532D01*
X174586665Y-114111385D01*
X174576645Y-114109632D01*
X174566317Y-114108269D01*
X174555681Y-114107297D01*
X174533480Y-114106521D01*
X174350918Y-114106521D01*
X174573168Y-115699312D01*
X174755730Y-115699312D01*
X174766931Y-115699111D01*
X174777714Y-115698507D01*
X174788081Y-115697501D01*
X174798032Y-115696093D01*
X174807569Y-115694284D01*
X174816691Y-115692074D01*
X174825401Y-115689465D01*
X174833699Y-115686455D01*
X174841587Y-115683046D01*
X174849064Y-115679239D01*
X174856133Y-115675034D01*
X174862793Y-115670430D01*
X174869047Y-115665430D01*
X174874895Y-115660032D01*
X174880337Y-115654239D01*
X174885376Y-115648049D01*
X174890011Y-115641465D01*
X174894245Y-115634485D01*
X174898077Y-115627111D01*
X174901509Y-115619343D01*
X174904542Y-115611182D01*
X174907177Y-115602628D01*
X174909414Y-115593681D01*
X174911256Y-115584343D01*
X174912701Y-115574613D01*
X174913753Y-115564492D01*
X174914411Y-115553981D01*
X174914676Y-115543079D01*
X174914551Y-115531788D01*
X174914034Y-115520108D01*
X174913128Y-115508040D01*
X174911834Y-115495583D01*
X174821876Y-114863229D01*
X175134084Y-114807667D01*
X175134084Y-114807667D01*
G37*
G36*
X181574044Y-116225834D02*
G01*
X181726406Y-116229686D01*
X181876783Y-116241120D01*
X182024988Y-116259950D01*
X182170834Y-116285990D01*
X182314133Y-116319055D01*
X182454699Y-116358959D01*
X182592344Y-116405517D01*
X182726882Y-116458543D01*
X182858126Y-116517852D01*
X182985888Y-116583257D01*
X183109982Y-116654574D01*
X183230221Y-116731617D01*
X183346417Y-116814200D01*
X183458384Y-116902138D01*
X183565935Y-116995245D01*
X183668882Y-117093336D01*
X183767038Y-117196226D01*
X183860218Y-117303727D01*
X183948232Y-117415656D01*
X184030896Y-117531826D01*
X184108021Y-117652053D01*
X184179420Y-117776149D01*
X184244908Y-117903931D01*
X184304295Y-118035212D01*
X184357396Y-118169806D01*
X184404024Y-118307529D01*
X184443992Y-118448194D01*
X184477112Y-118591617D01*
X184503197Y-118737611D01*
X184522061Y-118885991D01*
X184533517Y-119036572D01*
X184537377Y-119189167D01*
X184533524Y-119341530D01*
X184522090Y-119491907D01*
X184503260Y-119640112D01*
X184477220Y-119785957D01*
X184444155Y-119929257D01*
X184404251Y-120069823D01*
X184357693Y-120207468D01*
X184304667Y-120342006D01*
X184245359Y-120473250D01*
X184179953Y-120601012D01*
X184108636Y-120725106D01*
X184031593Y-120845345D01*
X183949010Y-120961541D01*
X183861072Y-121073508D01*
X183767965Y-121181058D01*
X183669874Y-121284005D01*
X183566985Y-121382162D01*
X183459483Y-121475341D01*
X183347554Y-121563356D01*
X183231384Y-121646020D01*
X183111157Y-121723144D01*
X182987061Y-121794544D01*
X182859279Y-121860031D01*
X182727998Y-121919419D01*
X182593404Y-121972520D01*
X182455681Y-122019148D01*
X182315016Y-122059115D01*
X182171593Y-122092235D01*
X182025599Y-122118321D01*
X181877219Y-122137185D01*
X181726639Y-122148640D01*
X181574044Y-122152500D01*
X181421681Y-122148648D01*
X181271304Y-122137214D01*
X181123099Y-122118384D01*
X180977253Y-122092344D01*
X180833954Y-122059279D01*
X180693388Y-122019375D01*
X180555742Y-121972817D01*
X180421204Y-121919791D01*
X180289961Y-121860482D01*
X180162198Y-121795077D01*
X180038104Y-121723760D01*
X179917866Y-121646717D01*
X179801669Y-121564134D01*
X179689703Y-121476196D01*
X179582152Y-121383089D01*
X179479205Y-121284998D01*
X179381048Y-121182108D01*
X179287869Y-121074607D01*
X179199854Y-120962678D01*
X179117191Y-120846508D01*
X179040066Y-120726281D01*
X178968667Y-120602185D01*
X178903179Y-120474403D01*
X178843792Y-120343122D01*
X178790691Y-120208528D01*
X178744063Y-120070805D01*
X178704095Y-119930140D01*
X178670975Y-119786717D01*
X178644890Y-119640723D01*
X178626026Y-119492343D01*
X178614570Y-119341762D01*
X178610710Y-119189167D01*
X179245711Y-119189167D01*
X179248748Y-119308747D01*
X179257761Y-119426785D01*
X179272602Y-119543132D01*
X179293124Y-119657640D01*
X179319178Y-119770162D01*
X179350617Y-119880549D01*
X179387293Y-119988655D01*
X179429059Y-120094331D01*
X179475766Y-120197430D01*
X179527266Y-120297804D01*
X179583413Y-120395305D01*
X179644058Y-120489785D01*
X179709054Y-120581097D01*
X179778252Y-120669093D01*
X179851506Y-120753624D01*
X179928666Y-120834544D01*
X180009586Y-120911705D01*
X180094118Y-120984958D01*
X180182114Y-121054157D01*
X180273426Y-121119152D01*
X180367906Y-121179797D01*
X180465407Y-121235944D01*
X180565780Y-121287445D01*
X180668879Y-121334152D01*
X180774556Y-121375917D01*
X180882661Y-121412594D01*
X180993049Y-121444033D01*
X181105571Y-121470087D01*
X181220079Y-121490608D01*
X181336426Y-121505450D01*
X181454463Y-121514463D01*
X181574044Y-121517500D01*
X181693624Y-121514463D01*
X181811661Y-121505450D01*
X181928008Y-121490608D01*
X182042516Y-121470087D01*
X182155038Y-121444033D01*
X182265425Y-121412594D01*
X182373531Y-121375917D01*
X182479208Y-121334152D01*
X182582307Y-121287445D01*
X182682680Y-121235944D01*
X182780181Y-121179797D01*
X182874662Y-121119152D01*
X182965974Y-121054157D01*
X183053969Y-120984958D01*
X183138501Y-120911705D01*
X183219421Y-120834544D01*
X183296582Y-120753624D01*
X183369836Y-120669092D01*
X183439034Y-120581097D01*
X183504030Y-120489785D01*
X183564675Y-120395305D01*
X183620822Y-120297804D01*
X183672323Y-120197430D01*
X183719030Y-120094331D01*
X183760796Y-119988655D01*
X183797472Y-119880549D01*
X183828911Y-119770161D01*
X183854965Y-119657640D01*
X183875487Y-119543131D01*
X183890328Y-119426785D01*
X183899341Y-119308747D01*
X183902378Y-119189167D01*
X183899341Y-119069587D01*
X183890328Y-118951549D01*
X183875487Y-118835202D01*
X183854965Y-118720694D01*
X183828911Y-118608173D01*
X183797472Y-118497785D01*
X183760796Y-118389679D01*
X183719030Y-118284003D01*
X183672323Y-118180904D01*
X183620822Y-118080530D01*
X183564675Y-117983029D01*
X183504030Y-117888549D01*
X183439035Y-117797237D01*
X183369836Y-117709241D01*
X183296583Y-117624710D01*
X183219422Y-117543790D01*
X183138502Y-117466629D01*
X183053970Y-117393376D01*
X182965975Y-117324177D01*
X182874663Y-117259182D01*
X182780182Y-117198537D01*
X182682681Y-117142390D01*
X182582307Y-117090889D01*
X182479208Y-117044182D01*
X182373532Y-117002417D01*
X182265426Y-116965740D01*
X182155038Y-116934301D01*
X182042516Y-116908247D01*
X181928008Y-116887726D01*
X181811662Y-116872884D01*
X181693624Y-116863871D01*
X181574044Y-116860834D01*
X181574044Y-116225834D01*
X181574044Y-116225834D01*
G37*
G36*
X177364522Y-119906187D02*
G01*
X177364522Y-117270938D01*
X173226439Y-117270938D01*
X173226439Y-121268792D01*
X177364522Y-121268792D01*
X177364522Y-119713042D01*
X177999522Y-119720979D01*
X177999522Y-121901145D01*
X172594085Y-121901145D01*
X172594085Y-118125542D01*
X167823648Y-118125542D01*
X167823648Y-115265396D01*
X168458648Y-115612000D01*
X168458648Y-117490541D01*
X172596731Y-117490541D01*
X172596731Y-113455646D01*
X168686189Y-113455646D01*
X168674363Y-113455945D01*
X168662705Y-113456835D01*
X168651229Y-113458299D01*
X168639949Y-113460322D01*
X168628879Y-113462890D01*
X168618031Y-113465988D01*
X168607419Y-113469600D01*
X168597058Y-113473712D01*
X168586960Y-113478308D01*
X168577139Y-113483373D01*
X168567609Y-113488893D01*
X168558383Y-113494852D01*
X168549475Y-113501236D01*
X168540899Y-113508029D01*
X168532667Y-113515217D01*
X168524794Y-113522784D01*
X168517292Y-113530715D01*
X168510177Y-113538995D01*
X168503460Y-113547610D01*
X168497157Y-113556544D01*
X168491280Y-113565782D01*
X168485842Y-113575310D01*
X168480858Y-113585111D01*
X168476342Y-113595172D01*
X168472305Y-113605477D01*
X168468763Y-113616011D01*
X168465729Y-113626760D01*
X168463216Y-113637707D01*
X168461237Y-113648838D01*
X168459808Y-113660139D01*
X168458940Y-113671594D01*
X168458648Y-113683187D01*
X168458648Y-115649042D01*
X167823648Y-115289208D01*
X167823648Y-113328646D01*
X167824309Y-113302513D01*
X167826271Y-113276722D01*
X167829503Y-113251306D01*
X167833972Y-113226295D01*
X167839647Y-113201723D01*
X167846495Y-113177620D01*
X167854484Y-113154019D01*
X167863583Y-113130952D01*
X167873759Y-113108451D01*
X167884981Y-113086548D01*
X167897216Y-113065275D01*
X167910433Y-113044663D01*
X167924599Y-113024745D01*
X167939683Y-113005553D01*
X167955653Y-112987119D01*
X167972476Y-112969474D01*
X167990120Y-112952651D01*
X168008555Y-112936682D01*
X168027747Y-112921598D01*
X168047665Y-112907431D01*
X168068276Y-112894215D01*
X168089550Y-112881980D01*
X168111453Y-112870758D01*
X168133954Y-112860582D01*
X168157021Y-112851483D01*
X168180622Y-112843494D01*
X168204725Y-112836646D01*
X168229297Y-112830971D01*
X168254308Y-112826502D01*
X168279724Y-112823270D01*
X168305515Y-112821308D01*
X168331647Y-112820646D01*
X173229085Y-112820646D01*
X173229085Y-116630646D01*
X177999522Y-116630646D01*
X177999522Y-119916771D01*
X177364522Y-119906187D01*
X177364522Y-119906187D01*
G37*
G36*
X182534479Y-114614521D02*
G01*
X182528274Y-114578311D01*
X182521541Y-114543125D01*
X182514249Y-114508993D01*
X182506369Y-114475946D01*
X182497868Y-114444015D01*
X182488716Y-114413231D01*
X182478882Y-114383626D01*
X182468334Y-114355229D01*
X182457291Y-114326828D01*
X182445969Y-114299171D01*
X182434336Y-114272258D01*
X182422362Y-114246089D01*
X182410017Y-114220664D01*
X182397268Y-114195984D01*
X182384085Y-114172047D01*
X182370438Y-114148855D01*
X182356542Y-114125285D01*
X182342616Y-114102181D01*
X182328627Y-114079510D01*
X182314545Y-114057243D01*
X182300339Y-114035348D01*
X182285978Y-114013794D01*
X182271431Y-113992550D01*
X182256666Y-113971584D01*
X182241902Y-113950624D01*
X182227355Y-113929417D01*
X182212995Y-113907961D01*
X182198789Y-113886257D01*
X182170719Y-113842104D01*
X182142897Y-113796960D01*
X182129254Y-113774005D01*
X182116107Y-113750740D01*
X182103457Y-113727104D01*
X182091302Y-113703033D01*
X182079644Y-113678466D01*
X182068482Y-113653340D01*
X182057816Y-113627595D01*
X182047646Y-113601168D01*
X182037104Y-113574001D01*
X182027306Y-113546060D01*
X182018252Y-113517312D01*
X182009942Y-113487727D01*
X182002377Y-113457275D01*
X181995556Y-113425922D01*
X181989479Y-113393640D01*
X181984146Y-113360396D01*
X182346627Y-113360396D01*
X182325459Y-113191064D01*
X181793646Y-113193709D01*
X181814814Y-113360396D01*
X181821020Y-113397479D01*
X181827753Y-113433322D01*
X181835044Y-113467925D01*
X181842925Y-113501287D01*
X181851425Y-113533410D01*
X181860577Y-113564291D01*
X181870412Y-113593933D01*
X181880959Y-113622334D01*
X181892002Y-113649868D01*
X181903325Y-113676905D01*
X181914957Y-113703446D01*
X181926931Y-113729491D01*
X181939277Y-113755040D01*
X181952025Y-113780093D01*
X181965208Y-113804649D01*
X181978855Y-113828710D01*
X181992751Y-113852279D01*
X182006678Y-113875384D01*
X182020667Y-113898054D01*
X182034749Y-113920321D01*
X182048955Y-113942217D01*
X182063316Y-113963771D01*
X182077863Y-113985015D01*
X182092627Y-114005979D01*
X182107391Y-114026939D01*
X182121938Y-114048147D01*
X182136299Y-114069603D01*
X182150505Y-114091308D01*
X182178575Y-114135460D01*
X182206398Y-114180605D01*
X182232071Y-114226783D01*
X182244675Y-114250322D01*
X182257000Y-114274201D01*
X182268953Y-114298453D01*
X182280440Y-114323108D01*
X182291369Y-114348197D01*
X182301647Y-114373751D01*
X182312190Y-114400157D01*
X182321987Y-114427742D01*
X182331041Y-114456443D01*
X182339351Y-114486198D01*
X182346916Y-114516945D01*
X182353738Y-114548623D01*
X182359814Y-114581169D01*
X182365147Y-114614521D01*
X182366668Y-114627482D01*
X182367082Y-114633638D01*
X182367266Y-114639579D01*
X182367221Y-114645305D01*
X182366949Y-114650815D01*
X182366451Y-114656112D01*
X182365726Y-114661195D01*
X182364777Y-114666065D01*
X182363603Y-114670723D01*
X182362207Y-114675168D01*
X182360589Y-114679401D01*
X182358751Y-114683423D01*
X182356692Y-114687235D01*
X182354414Y-114690836D01*
X182351918Y-114694227D01*
X182349205Y-114697409D01*
X182346277Y-114700383D01*
X182343133Y-114703147D01*
X182339774Y-114705705D01*
X182336203Y-114708054D01*
X182332420Y-114710197D01*
X182328425Y-114712134D01*
X182324220Y-114713864D01*
X182319806Y-114715390D01*
X182315183Y-114716710D01*
X182310353Y-114717826D01*
X182305317Y-114718738D01*
X182300075Y-114719446D01*
X182294629Y-114719951D01*
X182283127Y-114720355D01*
X182277252Y-114720254D01*
X182271531Y-114719951D01*
X182265965Y-114719446D01*
X182260555Y-114718738D01*
X182255300Y-114717826D01*
X182250199Y-114716710D01*
X182245254Y-114715390D01*
X182240463Y-114713864D01*
X182235828Y-114712134D01*
X182231348Y-114710197D01*
X182227022Y-114708054D01*
X182222852Y-114705705D01*
X182218837Y-114703147D01*
X182214976Y-114700383D01*
X182211271Y-114697409D01*
X182207721Y-114694227D01*
X182204326Y-114690836D01*
X182201086Y-114687235D01*
X182198001Y-114683423D01*
X182195071Y-114679401D01*
X182192296Y-114675168D01*
X182189676Y-114670723D01*
X182187211Y-114666065D01*
X182184901Y-114661195D01*
X182182746Y-114656112D01*
X182180746Y-114650815D01*
X182178901Y-114645305D01*
X182177212Y-114639579D01*
X182175677Y-114633638D01*
X182174297Y-114627482D01*
X182172003Y-114614521D01*
X182129668Y-114331417D01*
X181960335Y-114331417D01*
X182002669Y-114617167D01*
X182005398Y-114632825D01*
X182008622Y-114648049D01*
X182012343Y-114662839D01*
X182016560Y-114677195D01*
X182021273Y-114691116D01*
X182026482Y-114704604D01*
X182032188Y-114717657D01*
X182038389Y-114730277D01*
X182045086Y-114742462D01*
X182052279Y-114754213D01*
X182059969Y-114765530D01*
X182068154Y-114776413D01*
X182076835Y-114786862D01*
X182086013Y-114796877D01*
X182095687Y-114806458D01*
X182105856Y-114815605D01*
X182116429Y-114824721D01*
X182127307Y-114833221D01*
X182138488Y-114841109D01*
X182149968Y-114848388D01*
X182161741Y-114855063D01*
X182173806Y-114861137D01*
X182186157Y-114866614D01*
X182198792Y-114871498D01*
X182211705Y-114875793D01*
X182224893Y-114879503D01*
X182238353Y-114882631D01*
X182252080Y-114885182D01*
X182266070Y-114887159D01*
X182280320Y-114888567D01*
X182294826Y-114889409D01*
X182309584Y-114889688D01*
X182324250Y-114889409D01*
X182338482Y-114888567D01*
X182352280Y-114887159D01*
X182365643Y-114885182D01*
X182378573Y-114882631D01*
X182391068Y-114879503D01*
X182403130Y-114875793D01*
X182414757Y-114871498D01*
X182425950Y-114866614D01*
X182436709Y-114861137D01*
X182447034Y-114855063D01*
X182456925Y-114848388D01*
X182466382Y-114841109D01*
X182475404Y-114833221D01*
X182483993Y-114824721D01*
X182492148Y-114815605D01*
X182499745Y-114805992D01*
X182506663Y-114796004D01*
X182512907Y-114785635D01*
X182518481Y-114774883D01*
X182523389Y-114763744D01*
X182527633Y-114752213D01*
X182531219Y-114740286D01*
X182534150Y-114727961D01*
X182536429Y-114715232D01*
X182538062Y-114702097D01*
X182539051Y-114688550D01*
X182539400Y-114674589D01*
X182539114Y-114660210D01*
X182538196Y-114645408D01*
X182536650Y-114630180D01*
X182534479Y-114614521D01*
X182534479Y-114614521D01*
G37*
G36*
X181211563Y-113193709D02*
G01*
X181232731Y-113363042D01*
X181365023Y-113363042D01*
X181542292Y-114585417D01*
X181529063Y-114585417D01*
X181527017Y-114583463D01*
X181524856Y-114581572D01*
X181522586Y-114579743D01*
X181520216Y-114577975D01*
X181517752Y-114576270D01*
X181515203Y-114574627D01*
X181512577Y-114573045D01*
X181509881Y-114571526D01*
X181507122Y-114570069D01*
X181504310Y-114568674D01*
X181501451Y-114567341D01*
X181498553Y-114566069D01*
X181495624Y-114564860D01*
X181492672Y-114563713D01*
X181489704Y-114562628D01*
X181486729Y-114561604D01*
X181480771Y-114559511D01*
X181474781Y-114557263D01*
X181462585Y-114552674D01*
X181456316Y-114550519D01*
X181453126Y-114549518D01*
X181449893Y-114548582D01*
X181446613Y-114547723D01*
X181443283Y-114546954D01*
X181439899Y-114546285D01*
X181436457Y-114545729D01*
X181432922Y-114544767D01*
X181429264Y-114543868D01*
X181425481Y-114543031D01*
X181421574Y-114542256D01*
X181413389Y-114540892D01*
X181404707Y-114539776D01*
X181395530Y-114538908D01*
X181385856Y-114538288D01*
X181375686Y-114537916D01*
X181365021Y-114537792D01*
X181383541Y-114659500D01*
X181393898Y-114659748D01*
X181404135Y-114660492D01*
X181414255Y-114661733D01*
X181424263Y-114663469D01*
X181434162Y-114665701D01*
X181443956Y-114668430D01*
X181453650Y-114671654D01*
X181463247Y-114675375D01*
X181472751Y-114679592D01*
X181482166Y-114684305D01*
X181491495Y-114689514D01*
X181500743Y-114695219D01*
X181509914Y-114701420D01*
X181519011Y-114708118D01*
X181528038Y-114715311D01*
X181536999Y-114723000D01*
X181545711Y-114731093D01*
X181553986Y-114739495D01*
X181561818Y-114748208D01*
X181569205Y-114757231D01*
X181576142Y-114766563D01*
X181582625Y-114776206D01*
X181588651Y-114786159D01*
X181594216Y-114796422D01*
X181599316Y-114806995D01*
X181603947Y-114817878D01*
X181608105Y-114829071D01*
X181611786Y-114840575D01*
X181614987Y-114852388D01*
X181617703Y-114864511D01*
X181619931Y-114876945D01*
X181621666Y-114889688D01*
X181753958Y-114889688D01*
X181534354Y-113365688D01*
X181666645Y-113365688D01*
X181645478Y-113196356D01*
X181211563Y-113193709D01*
X181211563Y-113193709D01*
G37*
G36*
X181478792Y-115098708D02*
G01*
X181502606Y-115268042D01*
X184069063Y-115268042D01*
X184047898Y-115098708D01*
X181478792Y-115098708D01*
X181478792Y-115098708D01*
G37*
G36*
X181156000Y-112818000D02*
G01*
X181179814Y-112984688D01*
X183746271Y-112984688D01*
X183725106Y-112818000D01*
X181156000Y-112818000D01*
X181156000Y-112818000D01*
G37*
D11*
X104723400Y-111770200D02*
G75*
G03X104723400Y-111770200I-1000000J0D01*
G01*
X164242000Y-111770200D02*
G75*
G03X164242000Y-111770200I-1000000J0D01*
G01*
X164369000Y-71205600D02*
G75*
G03X164369000Y-71205600I-1000000J0D01*
G01*
X104850400Y-71205600D02*
G75*
G03X104850400Y-71205600I-1000000J0D01*
G01*
M02*
