G04 #@! TF.GenerationSoftware,KiCad,Pcbnew,(5.1.4-0-10_14)*
G04 #@! TF.CreationDate,2019-11-24T20:31:42+09:00*
G04 #@! TF.ProjectId,palette1202-OB-back,70616c65-7474-4653-9132-30322d4f422d,rev?*
G04 #@! TF.SameCoordinates,Original*
G04 #@! TF.FileFunction,Copper,L1,Top*
G04 #@! TF.FilePolarity,Positive*
%FSLAX46Y46*%
G04 Gerber Fmt 4.6, Leading zero omitted, Abs format (unit mm)*
G04 Created by KiCad (PCBNEW (5.1.4-0-10_14)) date 2019-11-24 20:31:42*
%MOMM*%
%LPD*%
G04 APERTURE LIST*
%ADD10C,0.254000*%
G04 APERTURE END LIST*
D10*
G36*
X130773681Y-44571973D02*
G01*
X130888078Y-44580484D01*
X131001487Y-44594573D01*
X131113735Y-44614159D01*
X131224639Y-44639168D01*
X131333984Y-44669514D01*
X131441627Y-44705131D01*
X131547339Y-44745931D01*
X131650936Y-44791835D01*
X131752229Y-44842766D01*
X131851008Y-44898633D01*
X131947126Y-44959384D01*
X132040341Y-45024905D01*
X132130506Y-45095149D01*
X132217404Y-45170016D01*
X132282829Y-45232279D01*
X132298746Y-45251674D01*
X132318134Y-45267586D01*
X132380384Y-45333001D01*
X132455260Y-45419916D01*
X132525497Y-45510081D01*
X132591009Y-45603290D01*
X132651751Y-45699403D01*
X132707626Y-45798201D01*
X132758555Y-45899501D01*
X132804464Y-46003119D01*
X132845261Y-46108835D01*
X132880877Y-46216484D01*
X132911227Y-46325854D01*
X132936238Y-46436778D01*
X132955821Y-46549017D01*
X132969910Y-46662448D01*
X132978421Y-46776840D01*
X132980658Y-46867130D01*
X132978200Y-46892088D01*
X132981486Y-46925449D01*
X132981485Y-53872289D01*
X132978200Y-53905642D01*
X132982312Y-53947388D01*
X132984974Y-54054834D01*
X132984572Y-54071640D01*
X132985799Y-54088132D01*
X132986209Y-54104681D01*
X132988272Y-54121379D01*
X132996817Y-54236228D01*
X132997243Y-54252993D01*
X132999291Y-54269481D01*
X133000522Y-54286026D01*
X133003396Y-54302529D01*
X133017516Y-54416200D01*
X133018760Y-54432851D01*
X133021623Y-54449258D01*
X133023677Y-54465797D01*
X133027352Y-54482095D01*
X133046945Y-54594396D01*
X133048999Y-54610929D01*
X133052671Y-54627214D01*
X133055542Y-54643670D01*
X133060002Y-54659729D01*
X133084983Y-54770519D01*
X133087835Y-54786888D01*
X133092311Y-54803019D01*
X133095995Y-54819357D01*
X133101223Y-54835135D01*
X133131503Y-54944258D01*
X133135148Y-54960456D01*
X133140415Y-54976376D01*
X133144897Y-54992527D01*
X133150881Y-55008007D01*
X133186388Y-55115324D01*
X133190814Y-55131310D01*
X133196862Y-55146982D01*
X133202131Y-55162907D01*
X133208852Y-55178051D01*
X133249512Y-55283411D01*
X133254711Y-55299159D01*
X133261519Y-55314525D01*
X133267559Y-55330176D01*
X133275006Y-55344966D01*
X133320759Y-55448231D01*
X133326718Y-55463701D01*
X133334260Y-55478703D01*
X133341059Y-55494048D01*
X133349225Y-55508470D01*
X133400005Y-55609474D01*
X133406716Y-55624644D01*
X133414966Y-55639233D01*
X133422502Y-55654222D01*
X133431378Y-55668253D01*
X133487124Y-55766829D01*
X133494585Y-55781685D01*
X133503528Y-55795835D01*
X133511767Y-55810405D01*
X133521328Y-55824002D01*
X133582001Y-55920008D01*
X133590199Y-55934512D01*
X133599805Y-55948179D01*
X133608728Y-55962299D01*
X133618966Y-55975442D01*
X133684515Y-56068707D01*
X133693442Y-56082832D01*
X133703677Y-56095971D01*
X133713253Y-56109596D01*
X133724154Y-56122258D01*
X133794543Y-56212618D01*
X133804179Y-56226320D01*
X133815011Y-56238895D01*
X133825221Y-56252001D01*
X133836771Y-56264154D01*
X133911932Y-56351403D01*
X133922279Y-56364669D01*
X133933692Y-56376663D01*
X133944487Y-56389194D01*
X133956653Y-56400793D01*
X134030743Y-56478653D01*
X134057368Y-56511096D01*
X134089794Y-56537707D01*
X134167644Y-56611796D01*
X134179239Y-56623959D01*
X134191766Y-56634751D01*
X134203761Y-56646167D01*
X134217028Y-56656516D01*
X134304285Y-56731693D01*
X134316427Y-56743233D01*
X134329518Y-56753432D01*
X134342105Y-56764276D01*
X134355820Y-56773923D01*
X134446166Y-56844308D01*
X134458821Y-56855204D01*
X134472441Y-56864778D01*
X134485588Y-56875020D01*
X134499718Y-56883951D01*
X134592955Y-56949489D01*
X134606114Y-56959740D01*
X134620247Y-56968673D01*
X134633895Y-56978266D01*
X134648384Y-56986457D01*
X134744407Y-57047147D01*
X134757998Y-57056705D01*
X134772561Y-57064942D01*
X134786719Y-57073890D01*
X134801582Y-57081355D01*
X134900140Y-57137098D01*
X134914175Y-57145977D01*
X134929167Y-57153515D01*
X134943750Y-57161763D01*
X134958916Y-57168473D01*
X135059913Y-57219255D01*
X135074348Y-57227430D01*
X135089700Y-57234233D01*
X135104685Y-57241767D01*
X135120150Y-57247725D01*
X135223420Y-57293484D01*
X135238213Y-57300933D01*
X135253869Y-57306976D01*
X135269228Y-57313781D01*
X135284970Y-57318979D01*
X135390326Y-57359641D01*
X135405474Y-57366365D01*
X135421405Y-57371636D01*
X135437069Y-57377682D01*
X135453050Y-57382108D01*
X135560376Y-57417621D01*
X135575846Y-57423601D01*
X135591985Y-57428080D01*
X135607915Y-57433351D01*
X135624124Y-57436999D01*
X135733236Y-57467280D01*
X135749018Y-57472509D01*
X135765347Y-57476191D01*
X135781475Y-57480667D01*
X135797853Y-57483521D01*
X135908648Y-57508505D01*
X135924690Y-57512961D01*
X135941129Y-57515830D01*
X135957437Y-57519507D01*
X135973982Y-57521562D01*
X136086269Y-57541156D01*
X136102566Y-57544831D01*
X136119090Y-57546884D01*
X136135499Y-57549747D01*
X136152163Y-57550992D01*
X136265813Y-57565110D01*
X136282331Y-57567987D01*
X136298892Y-57569219D01*
X136315361Y-57571265D01*
X136332114Y-57571691D01*
X136446966Y-57580236D01*
X136463666Y-57582300D01*
X136480221Y-57582710D01*
X136496709Y-57583937D01*
X136513508Y-57583535D01*
X136573187Y-57585014D01*
X136625189Y-57590136D01*
X136662704Y-57593831D01*
X136696056Y-57590546D01*
X184141962Y-57590546D01*
X184272515Y-57593614D01*
X184393095Y-57602133D01*
X184511694Y-57616136D01*
X184628129Y-57635457D01*
X184742301Y-57659943D01*
X184854102Y-57689444D01*
X184963395Y-57723808D01*
X185070039Y-57762883D01*
X185173917Y-57806524D01*
X185274831Y-57854556D01*
X185372661Y-57906830D01*
X185467272Y-57963199D01*
X185558485Y-58023480D01*
X185646158Y-58087511D01*
X185730139Y-58155122D01*
X185810300Y-58226153D01*
X185886470Y-58300408D01*
X185958544Y-58377744D01*
X186026374Y-58457972D01*
X186089829Y-58540916D01*
X186148805Y-58626426D01*
X186203194Y-58714355D01*
X186252891Y-58804554D01*
X186297795Y-58896886D01*
X186337805Y-58991222D01*
X186372842Y-59087484D01*
X186402811Y-59185601D01*
X186427602Y-59285467D01*
X186447115Y-59387057D01*
X186461233Y-59490361D01*
X186469818Y-59595331D01*
X186472063Y-59677908D01*
X186469685Y-59702052D01*
X186472971Y-59735415D01*
X186472970Y-121792245D01*
X186469685Y-121825598D01*
X186472063Y-121849742D01*
X186469818Y-121932320D01*
X186461233Y-122037288D01*
X186447116Y-122140589D01*
X186427601Y-122242190D01*
X186402812Y-122342045D01*
X186372845Y-122440156D01*
X186337807Y-122536424D01*
X186297792Y-122630768D01*
X186252891Y-122723096D01*
X186203194Y-122813295D01*
X186148805Y-122901224D01*
X186089829Y-122986734D01*
X186026374Y-123069678D01*
X185958544Y-123149906D01*
X185886474Y-123227237D01*
X185810300Y-123301496D01*
X185730141Y-123372525D01*
X185646160Y-123440136D01*
X185558481Y-123504172D01*
X185467280Y-123564446D01*
X185372661Y-123620820D01*
X185274831Y-123673094D01*
X185173917Y-123721126D01*
X185070039Y-123764767D01*
X184963395Y-123803842D01*
X184854110Y-123838203D01*
X184742306Y-123867705D01*
X184628120Y-123892194D01*
X184511695Y-123911514D01*
X184393095Y-123925517D01*
X184272515Y-123934036D01*
X184141962Y-123937104D01*
X90270017Y-123937104D01*
X90139465Y-123934036D01*
X90018888Y-123925517D01*
X89900287Y-123911514D01*
X89783869Y-123892195D01*
X89669683Y-123867706D01*
X89557873Y-123838203D01*
X89448584Y-123803839D01*
X89341937Y-123764764D01*
X89238088Y-123721135D01*
X89137156Y-123673094D01*
X89039327Y-123620820D01*
X88944714Y-123564450D01*
X88853505Y-123504171D01*
X88765823Y-123440132D01*
X88681834Y-123372515D01*
X88601690Y-123301498D01*
X88525504Y-123227227D01*
X88453443Y-123149906D01*
X88385613Y-123069678D01*
X88322159Y-122986737D01*
X88263182Y-122901224D01*
X88208794Y-122813297D01*
X88159099Y-122723104D01*
X88114194Y-122630768D01*
X88074179Y-122536423D01*
X88039135Y-122440139D01*
X88009179Y-122342063D01*
X87984385Y-122242189D01*
X87964870Y-122140591D01*
X87950753Y-122037292D01*
X87942168Y-121932316D01*
X87939922Y-121849738D01*
X87942300Y-121825598D01*
X87939015Y-121792245D01*
X87939015Y-111604242D01*
X102038400Y-111604242D01*
X102038400Y-111936158D01*
X102103154Y-112261696D01*
X102230172Y-112568347D01*
X102414575Y-112844325D01*
X102649275Y-113079025D01*
X102925253Y-113263428D01*
X103231904Y-113390446D01*
X103557442Y-113455200D01*
X103889358Y-113455200D01*
X104214896Y-113390446D01*
X104521547Y-113263428D01*
X104797525Y-113079025D01*
X105032225Y-112844325D01*
X105216628Y-112568347D01*
X105343646Y-112261696D01*
X105408400Y-111936158D01*
X105408400Y-111604242D01*
X161557000Y-111604242D01*
X161557000Y-111936158D01*
X161621754Y-112261696D01*
X161748772Y-112568347D01*
X161933175Y-112844325D01*
X162167875Y-113079025D01*
X162443853Y-113263428D01*
X162750504Y-113390446D01*
X163076042Y-113455200D01*
X163407958Y-113455200D01*
X163733496Y-113390446D01*
X164040147Y-113263428D01*
X164316125Y-113079025D01*
X164550825Y-112844325D01*
X164735228Y-112568347D01*
X164862246Y-112261696D01*
X164927000Y-111936158D01*
X164927000Y-111604242D01*
X164862246Y-111278704D01*
X164735228Y-110972053D01*
X164550825Y-110696075D01*
X164316125Y-110461375D01*
X164040147Y-110276972D01*
X163733496Y-110149954D01*
X163407958Y-110085200D01*
X163076042Y-110085200D01*
X162750504Y-110149954D01*
X162443853Y-110276972D01*
X162167875Y-110461375D01*
X161933175Y-110696075D01*
X161748772Y-110972053D01*
X161621754Y-111278704D01*
X161557000Y-111604242D01*
X105408400Y-111604242D01*
X105343646Y-111278704D01*
X105216628Y-110972053D01*
X105032225Y-110696075D01*
X104797525Y-110461375D01*
X104521547Y-110276972D01*
X104214896Y-110149954D01*
X103889358Y-110085200D01*
X103557442Y-110085200D01*
X103231904Y-110149954D01*
X102925253Y-110276972D01*
X102649275Y-110461375D01*
X102414575Y-110696075D01*
X102230172Y-110972053D01*
X102103154Y-111278704D01*
X102038400Y-111604242D01*
X87939015Y-111604242D01*
X87939015Y-71039642D01*
X102165400Y-71039642D01*
X102165400Y-71371558D01*
X102230154Y-71697096D01*
X102357172Y-72003747D01*
X102541575Y-72279725D01*
X102776275Y-72514425D01*
X103052253Y-72698828D01*
X103358904Y-72825846D01*
X103684442Y-72890600D01*
X104016358Y-72890600D01*
X104341896Y-72825846D01*
X104648547Y-72698828D01*
X104924525Y-72514425D01*
X105159225Y-72279725D01*
X105343628Y-72003747D01*
X105470646Y-71697096D01*
X105535400Y-71371558D01*
X105535400Y-71039642D01*
X161684000Y-71039642D01*
X161684000Y-71371558D01*
X161748754Y-71697096D01*
X161875772Y-72003747D01*
X162060175Y-72279725D01*
X162294875Y-72514425D01*
X162570853Y-72698828D01*
X162877504Y-72825846D01*
X163203042Y-72890600D01*
X163534958Y-72890600D01*
X163860496Y-72825846D01*
X164167147Y-72698828D01*
X164443125Y-72514425D01*
X164677825Y-72279725D01*
X164862228Y-72003747D01*
X164989246Y-71697096D01*
X165054000Y-71371558D01*
X165054000Y-71039642D01*
X164989246Y-70714104D01*
X164862228Y-70407453D01*
X164677825Y-70131475D01*
X164443125Y-69896775D01*
X164167147Y-69712372D01*
X163860496Y-69585354D01*
X163534958Y-69520600D01*
X163203042Y-69520600D01*
X162877504Y-69585354D01*
X162570853Y-69712372D01*
X162294875Y-69896775D01*
X162060175Y-70131475D01*
X161875772Y-70407453D01*
X161748754Y-70714104D01*
X161684000Y-71039642D01*
X105535400Y-71039642D01*
X105470646Y-70714104D01*
X105343628Y-70407453D01*
X105159225Y-70131475D01*
X104924525Y-69896775D01*
X104648547Y-69712372D01*
X104341896Y-69585354D01*
X104016358Y-69520600D01*
X103684442Y-69520600D01*
X103358904Y-69585354D01*
X103052253Y-69712372D01*
X102776275Y-69896775D01*
X102541575Y-70131475D01*
X102357172Y-70407453D01*
X102230154Y-70714104D01*
X102165400Y-71039642D01*
X87939015Y-71039642D01*
X87939015Y-46713768D01*
X87942300Y-46680415D01*
X87939922Y-46656275D01*
X87942168Y-46573696D01*
X87950753Y-46468720D01*
X87964871Y-46365417D01*
X87984384Y-46263824D01*
X88009176Y-46163960D01*
X88039141Y-46065854D01*
X88074180Y-45969586D01*
X88114194Y-45875243D01*
X88159099Y-45782907D01*
X88208794Y-45692714D01*
X88263182Y-45604787D01*
X88322153Y-45519284D01*
X88385615Y-45436331D01*
X88453450Y-45356097D01*
X88525504Y-45278784D01*
X88601690Y-45204513D01*
X88681834Y-45133496D01*
X88765823Y-45065880D01*
X88853512Y-45001835D01*
X88944716Y-44941561D01*
X89039327Y-44885192D01*
X89137156Y-44832918D01*
X89238088Y-44784877D01*
X89341937Y-44741248D01*
X89448580Y-44702174D01*
X89557885Y-44667806D01*
X89669677Y-44638307D01*
X89783860Y-44613819D01*
X89900288Y-44594499D01*
X90018888Y-44580496D01*
X90139465Y-44571977D01*
X90270017Y-44568909D01*
X130650039Y-44568909D01*
X130773681Y-44571973D01*
X130773681Y-44571973D01*
G37*
X130773681Y-44571973D02*
X130888078Y-44580484D01*
X131001487Y-44594573D01*
X131113735Y-44614159D01*
X131224639Y-44639168D01*
X131333984Y-44669514D01*
X131441627Y-44705131D01*
X131547339Y-44745931D01*
X131650936Y-44791835D01*
X131752229Y-44842766D01*
X131851008Y-44898633D01*
X131947126Y-44959384D01*
X132040341Y-45024905D01*
X132130506Y-45095149D01*
X132217404Y-45170016D01*
X132282829Y-45232279D01*
X132298746Y-45251674D01*
X132318134Y-45267586D01*
X132380384Y-45333001D01*
X132455260Y-45419916D01*
X132525497Y-45510081D01*
X132591009Y-45603290D01*
X132651751Y-45699403D01*
X132707626Y-45798201D01*
X132758555Y-45899501D01*
X132804464Y-46003119D01*
X132845261Y-46108835D01*
X132880877Y-46216484D01*
X132911227Y-46325854D01*
X132936238Y-46436778D01*
X132955821Y-46549017D01*
X132969910Y-46662448D01*
X132978421Y-46776840D01*
X132980658Y-46867130D01*
X132978200Y-46892088D01*
X132981486Y-46925449D01*
X132981485Y-53872289D01*
X132978200Y-53905642D01*
X132982312Y-53947388D01*
X132984974Y-54054834D01*
X132984572Y-54071640D01*
X132985799Y-54088132D01*
X132986209Y-54104681D01*
X132988272Y-54121379D01*
X132996817Y-54236228D01*
X132997243Y-54252993D01*
X132999291Y-54269481D01*
X133000522Y-54286026D01*
X133003396Y-54302529D01*
X133017516Y-54416200D01*
X133018760Y-54432851D01*
X133021623Y-54449258D01*
X133023677Y-54465797D01*
X133027352Y-54482095D01*
X133046945Y-54594396D01*
X133048999Y-54610929D01*
X133052671Y-54627214D01*
X133055542Y-54643670D01*
X133060002Y-54659729D01*
X133084983Y-54770519D01*
X133087835Y-54786888D01*
X133092311Y-54803019D01*
X133095995Y-54819357D01*
X133101223Y-54835135D01*
X133131503Y-54944258D01*
X133135148Y-54960456D01*
X133140415Y-54976376D01*
X133144897Y-54992527D01*
X133150881Y-55008007D01*
X133186388Y-55115324D01*
X133190814Y-55131310D01*
X133196862Y-55146982D01*
X133202131Y-55162907D01*
X133208852Y-55178051D01*
X133249512Y-55283411D01*
X133254711Y-55299159D01*
X133261519Y-55314525D01*
X133267559Y-55330176D01*
X133275006Y-55344966D01*
X133320759Y-55448231D01*
X133326718Y-55463701D01*
X133334260Y-55478703D01*
X133341059Y-55494048D01*
X133349225Y-55508470D01*
X133400005Y-55609474D01*
X133406716Y-55624644D01*
X133414966Y-55639233D01*
X133422502Y-55654222D01*
X133431378Y-55668253D01*
X133487124Y-55766829D01*
X133494585Y-55781685D01*
X133503528Y-55795835D01*
X133511767Y-55810405D01*
X133521328Y-55824002D01*
X133582001Y-55920008D01*
X133590199Y-55934512D01*
X133599805Y-55948179D01*
X133608728Y-55962299D01*
X133618966Y-55975442D01*
X133684515Y-56068707D01*
X133693442Y-56082832D01*
X133703677Y-56095971D01*
X133713253Y-56109596D01*
X133724154Y-56122258D01*
X133794543Y-56212618D01*
X133804179Y-56226320D01*
X133815011Y-56238895D01*
X133825221Y-56252001D01*
X133836771Y-56264154D01*
X133911932Y-56351403D01*
X133922279Y-56364669D01*
X133933692Y-56376663D01*
X133944487Y-56389194D01*
X133956653Y-56400793D01*
X134030743Y-56478653D01*
X134057368Y-56511096D01*
X134089794Y-56537707D01*
X134167644Y-56611796D01*
X134179239Y-56623959D01*
X134191766Y-56634751D01*
X134203761Y-56646167D01*
X134217028Y-56656516D01*
X134304285Y-56731693D01*
X134316427Y-56743233D01*
X134329518Y-56753432D01*
X134342105Y-56764276D01*
X134355820Y-56773923D01*
X134446166Y-56844308D01*
X134458821Y-56855204D01*
X134472441Y-56864778D01*
X134485588Y-56875020D01*
X134499718Y-56883951D01*
X134592955Y-56949489D01*
X134606114Y-56959740D01*
X134620247Y-56968673D01*
X134633895Y-56978266D01*
X134648384Y-56986457D01*
X134744407Y-57047147D01*
X134757998Y-57056705D01*
X134772561Y-57064942D01*
X134786719Y-57073890D01*
X134801582Y-57081355D01*
X134900140Y-57137098D01*
X134914175Y-57145977D01*
X134929167Y-57153515D01*
X134943750Y-57161763D01*
X134958916Y-57168473D01*
X135059913Y-57219255D01*
X135074348Y-57227430D01*
X135089700Y-57234233D01*
X135104685Y-57241767D01*
X135120150Y-57247725D01*
X135223420Y-57293484D01*
X135238213Y-57300933D01*
X135253869Y-57306976D01*
X135269228Y-57313781D01*
X135284970Y-57318979D01*
X135390326Y-57359641D01*
X135405474Y-57366365D01*
X135421405Y-57371636D01*
X135437069Y-57377682D01*
X135453050Y-57382108D01*
X135560376Y-57417621D01*
X135575846Y-57423601D01*
X135591985Y-57428080D01*
X135607915Y-57433351D01*
X135624124Y-57436999D01*
X135733236Y-57467280D01*
X135749018Y-57472509D01*
X135765347Y-57476191D01*
X135781475Y-57480667D01*
X135797853Y-57483521D01*
X135908648Y-57508505D01*
X135924690Y-57512961D01*
X135941129Y-57515830D01*
X135957437Y-57519507D01*
X135973982Y-57521562D01*
X136086269Y-57541156D01*
X136102566Y-57544831D01*
X136119090Y-57546884D01*
X136135499Y-57549747D01*
X136152163Y-57550992D01*
X136265813Y-57565110D01*
X136282331Y-57567987D01*
X136298892Y-57569219D01*
X136315361Y-57571265D01*
X136332114Y-57571691D01*
X136446966Y-57580236D01*
X136463666Y-57582300D01*
X136480221Y-57582710D01*
X136496709Y-57583937D01*
X136513508Y-57583535D01*
X136573187Y-57585014D01*
X136625189Y-57590136D01*
X136662704Y-57593831D01*
X136696056Y-57590546D01*
X184141962Y-57590546D01*
X184272515Y-57593614D01*
X184393095Y-57602133D01*
X184511694Y-57616136D01*
X184628129Y-57635457D01*
X184742301Y-57659943D01*
X184854102Y-57689444D01*
X184963395Y-57723808D01*
X185070039Y-57762883D01*
X185173917Y-57806524D01*
X185274831Y-57854556D01*
X185372661Y-57906830D01*
X185467272Y-57963199D01*
X185558485Y-58023480D01*
X185646158Y-58087511D01*
X185730139Y-58155122D01*
X185810300Y-58226153D01*
X185886470Y-58300408D01*
X185958544Y-58377744D01*
X186026374Y-58457972D01*
X186089829Y-58540916D01*
X186148805Y-58626426D01*
X186203194Y-58714355D01*
X186252891Y-58804554D01*
X186297795Y-58896886D01*
X186337805Y-58991222D01*
X186372842Y-59087484D01*
X186402811Y-59185601D01*
X186427602Y-59285467D01*
X186447115Y-59387057D01*
X186461233Y-59490361D01*
X186469818Y-59595331D01*
X186472063Y-59677908D01*
X186469685Y-59702052D01*
X186472971Y-59735415D01*
X186472970Y-121792245D01*
X186469685Y-121825598D01*
X186472063Y-121849742D01*
X186469818Y-121932320D01*
X186461233Y-122037288D01*
X186447116Y-122140589D01*
X186427601Y-122242190D01*
X186402812Y-122342045D01*
X186372845Y-122440156D01*
X186337807Y-122536424D01*
X186297792Y-122630768D01*
X186252891Y-122723096D01*
X186203194Y-122813295D01*
X186148805Y-122901224D01*
X186089829Y-122986734D01*
X186026374Y-123069678D01*
X185958544Y-123149906D01*
X185886474Y-123227237D01*
X185810300Y-123301496D01*
X185730141Y-123372525D01*
X185646160Y-123440136D01*
X185558481Y-123504172D01*
X185467280Y-123564446D01*
X185372661Y-123620820D01*
X185274831Y-123673094D01*
X185173917Y-123721126D01*
X185070039Y-123764767D01*
X184963395Y-123803842D01*
X184854110Y-123838203D01*
X184742306Y-123867705D01*
X184628120Y-123892194D01*
X184511695Y-123911514D01*
X184393095Y-123925517D01*
X184272515Y-123934036D01*
X184141962Y-123937104D01*
X90270017Y-123937104D01*
X90139465Y-123934036D01*
X90018888Y-123925517D01*
X89900287Y-123911514D01*
X89783869Y-123892195D01*
X89669683Y-123867706D01*
X89557873Y-123838203D01*
X89448584Y-123803839D01*
X89341937Y-123764764D01*
X89238088Y-123721135D01*
X89137156Y-123673094D01*
X89039327Y-123620820D01*
X88944714Y-123564450D01*
X88853505Y-123504171D01*
X88765823Y-123440132D01*
X88681834Y-123372515D01*
X88601690Y-123301498D01*
X88525504Y-123227227D01*
X88453443Y-123149906D01*
X88385613Y-123069678D01*
X88322159Y-122986737D01*
X88263182Y-122901224D01*
X88208794Y-122813297D01*
X88159099Y-122723104D01*
X88114194Y-122630768D01*
X88074179Y-122536423D01*
X88039135Y-122440139D01*
X88009179Y-122342063D01*
X87984385Y-122242189D01*
X87964870Y-122140591D01*
X87950753Y-122037292D01*
X87942168Y-121932316D01*
X87939922Y-121849738D01*
X87942300Y-121825598D01*
X87939015Y-121792245D01*
X87939015Y-111604242D01*
X102038400Y-111604242D01*
X102038400Y-111936158D01*
X102103154Y-112261696D01*
X102230172Y-112568347D01*
X102414575Y-112844325D01*
X102649275Y-113079025D01*
X102925253Y-113263428D01*
X103231904Y-113390446D01*
X103557442Y-113455200D01*
X103889358Y-113455200D01*
X104214896Y-113390446D01*
X104521547Y-113263428D01*
X104797525Y-113079025D01*
X105032225Y-112844325D01*
X105216628Y-112568347D01*
X105343646Y-112261696D01*
X105408400Y-111936158D01*
X105408400Y-111604242D01*
X161557000Y-111604242D01*
X161557000Y-111936158D01*
X161621754Y-112261696D01*
X161748772Y-112568347D01*
X161933175Y-112844325D01*
X162167875Y-113079025D01*
X162443853Y-113263428D01*
X162750504Y-113390446D01*
X163076042Y-113455200D01*
X163407958Y-113455200D01*
X163733496Y-113390446D01*
X164040147Y-113263428D01*
X164316125Y-113079025D01*
X164550825Y-112844325D01*
X164735228Y-112568347D01*
X164862246Y-112261696D01*
X164927000Y-111936158D01*
X164927000Y-111604242D01*
X164862246Y-111278704D01*
X164735228Y-110972053D01*
X164550825Y-110696075D01*
X164316125Y-110461375D01*
X164040147Y-110276972D01*
X163733496Y-110149954D01*
X163407958Y-110085200D01*
X163076042Y-110085200D01*
X162750504Y-110149954D01*
X162443853Y-110276972D01*
X162167875Y-110461375D01*
X161933175Y-110696075D01*
X161748772Y-110972053D01*
X161621754Y-111278704D01*
X161557000Y-111604242D01*
X105408400Y-111604242D01*
X105343646Y-111278704D01*
X105216628Y-110972053D01*
X105032225Y-110696075D01*
X104797525Y-110461375D01*
X104521547Y-110276972D01*
X104214896Y-110149954D01*
X103889358Y-110085200D01*
X103557442Y-110085200D01*
X103231904Y-110149954D01*
X102925253Y-110276972D01*
X102649275Y-110461375D01*
X102414575Y-110696075D01*
X102230172Y-110972053D01*
X102103154Y-111278704D01*
X102038400Y-111604242D01*
X87939015Y-111604242D01*
X87939015Y-71039642D01*
X102165400Y-71039642D01*
X102165400Y-71371558D01*
X102230154Y-71697096D01*
X102357172Y-72003747D01*
X102541575Y-72279725D01*
X102776275Y-72514425D01*
X103052253Y-72698828D01*
X103358904Y-72825846D01*
X103684442Y-72890600D01*
X104016358Y-72890600D01*
X104341896Y-72825846D01*
X104648547Y-72698828D01*
X104924525Y-72514425D01*
X105159225Y-72279725D01*
X105343628Y-72003747D01*
X105470646Y-71697096D01*
X105535400Y-71371558D01*
X105535400Y-71039642D01*
X161684000Y-71039642D01*
X161684000Y-71371558D01*
X161748754Y-71697096D01*
X161875772Y-72003747D01*
X162060175Y-72279725D01*
X162294875Y-72514425D01*
X162570853Y-72698828D01*
X162877504Y-72825846D01*
X163203042Y-72890600D01*
X163534958Y-72890600D01*
X163860496Y-72825846D01*
X164167147Y-72698828D01*
X164443125Y-72514425D01*
X164677825Y-72279725D01*
X164862228Y-72003747D01*
X164989246Y-71697096D01*
X165054000Y-71371558D01*
X165054000Y-71039642D01*
X164989246Y-70714104D01*
X164862228Y-70407453D01*
X164677825Y-70131475D01*
X164443125Y-69896775D01*
X164167147Y-69712372D01*
X163860496Y-69585354D01*
X163534958Y-69520600D01*
X163203042Y-69520600D01*
X162877504Y-69585354D01*
X162570853Y-69712372D01*
X162294875Y-69896775D01*
X162060175Y-70131475D01*
X161875772Y-70407453D01*
X161748754Y-70714104D01*
X161684000Y-71039642D01*
X105535400Y-71039642D01*
X105470646Y-70714104D01*
X105343628Y-70407453D01*
X105159225Y-70131475D01*
X104924525Y-69896775D01*
X104648547Y-69712372D01*
X104341896Y-69585354D01*
X104016358Y-69520600D01*
X103684442Y-69520600D01*
X103358904Y-69585354D01*
X103052253Y-69712372D01*
X102776275Y-69896775D01*
X102541575Y-70131475D01*
X102357172Y-70407453D01*
X102230154Y-70714104D01*
X102165400Y-71039642D01*
X87939015Y-71039642D01*
X87939015Y-46713768D01*
X87942300Y-46680415D01*
X87939922Y-46656275D01*
X87942168Y-46573696D01*
X87950753Y-46468720D01*
X87964871Y-46365417D01*
X87984384Y-46263824D01*
X88009176Y-46163960D01*
X88039141Y-46065854D01*
X88074180Y-45969586D01*
X88114194Y-45875243D01*
X88159099Y-45782907D01*
X88208794Y-45692714D01*
X88263182Y-45604787D01*
X88322153Y-45519284D01*
X88385615Y-45436331D01*
X88453450Y-45356097D01*
X88525504Y-45278784D01*
X88601690Y-45204513D01*
X88681834Y-45133496D01*
X88765823Y-45065880D01*
X88853512Y-45001835D01*
X88944716Y-44941561D01*
X89039327Y-44885192D01*
X89137156Y-44832918D01*
X89238088Y-44784877D01*
X89341937Y-44741248D01*
X89448580Y-44702174D01*
X89557885Y-44667806D01*
X89669677Y-44638307D01*
X89783860Y-44613819D01*
X89900288Y-44594499D01*
X90018888Y-44580496D01*
X90139465Y-44571977D01*
X90270017Y-44568909D01*
X130650039Y-44568909D01*
X130773681Y-44571973D01*
M02*
