G04 #@! TF.GenerationSoftware,KiCad,Pcbnew,(5.1.4-0-10_14)*
G04 #@! TF.CreationDate,2019-10-30T04:12:12+09:00*
G04 #@! TF.ProjectId,nilgiri,6e696c67-6972-4692-9e6b-696361645f70,rev?*
G04 #@! TF.SameCoordinates,Original*
G04 #@! TF.FileFunction,Soldermask,Top*
G04 #@! TF.FilePolarity,Negative*
%FSLAX46Y46*%
G04 Gerber Fmt 4.6, Leading zero omitted, Abs format (unit mm)*
G04 Created by KiCad (PCBNEW (5.1.4-0-10_14)) date 2019-10-30 04:12:12*
%MOMM*%
%LPD*%
G04 APERTURE LIST*
%ADD10C,0.150000*%
%ADD11C,0.100000*%
G04 APERTURE END LIST*
D10*
X89605500Y-120754000D02*
X89772166Y-121220666D01*
X89938833Y-120754000D01*
X90338833Y-120520666D02*
X90405500Y-120520666D01*
X90472166Y-120554000D01*
X90505500Y-120587333D01*
X90538833Y-120654000D01*
X90572166Y-120787333D01*
X90572166Y-120954000D01*
X90538833Y-121087333D01*
X90505500Y-121154000D01*
X90472166Y-121187333D01*
X90405500Y-121220666D01*
X90338833Y-121220666D01*
X90272166Y-121187333D01*
X90238833Y-121154000D01*
X90205500Y-121087333D01*
X90172166Y-120954000D01*
X90172166Y-120787333D01*
X90205500Y-120654000D01*
X90238833Y-120587333D01*
X90272166Y-120554000D01*
X90338833Y-120520666D01*
X90872166Y-121154000D02*
X90905500Y-121187333D01*
X90872166Y-121220666D01*
X90838833Y-121187333D01*
X90872166Y-121154000D01*
X90872166Y-121220666D01*
X91138833Y-120520666D02*
X91572166Y-120520666D01*
X91338833Y-120787333D01*
X91438833Y-120787333D01*
X91505500Y-120820666D01*
X91538833Y-120854000D01*
X91572166Y-120920666D01*
X91572166Y-121087333D01*
X91538833Y-121154000D01*
X91505500Y-121187333D01*
X91438833Y-121220666D01*
X91238833Y-121220666D01*
X91172166Y-121187333D01*
X91138833Y-121154000D01*
X91838833Y-120587333D02*
X91872166Y-120554000D01*
X91938833Y-120520666D01*
X92105500Y-120520666D01*
X92172166Y-120554000D01*
X92205500Y-120587333D01*
X92238833Y-120654000D01*
X92238833Y-120720666D01*
X92205500Y-120820666D01*
X91805500Y-121220666D01*
X92238833Y-121220666D01*
X92738833Y-121487333D02*
X92705500Y-121454000D01*
X92638833Y-121354000D01*
X92605500Y-121287333D01*
X92572166Y-121187333D01*
X92538833Y-121020666D01*
X92538833Y-120887333D01*
X92572166Y-120720666D01*
X92605500Y-120620666D01*
X92638833Y-120554000D01*
X92705500Y-120454000D01*
X92738833Y-120420666D01*
X93372166Y-121220666D02*
X92972166Y-121220666D01*
X93172166Y-121220666D02*
X93172166Y-120520666D01*
X93105500Y-120620666D01*
X93038833Y-120687333D01*
X92972166Y-120720666D01*
X93705500Y-121220666D02*
X93838833Y-121220666D01*
X93905500Y-121187333D01*
X93938833Y-121154000D01*
X94005500Y-121054000D01*
X94038833Y-120920666D01*
X94038833Y-120654000D01*
X94005500Y-120587333D01*
X93972166Y-120554000D01*
X93905500Y-120520666D01*
X93772166Y-120520666D01*
X93705500Y-120554000D01*
X93672166Y-120587333D01*
X93638833Y-120654000D01*
X93638833Y-120820666D01*
X93672166Y-120887333D01*
X93705500Y-120920666D01*
X93772166Y-120954000D01*
X93905500Y-120954000D01*
X93972166Y-120920666D01*
X94005500Y-120887333D01*
X94038833Y-120820666D01*
X94705500Y-121220666D02*
X94305500Y-121220666D01*
X94505500Y-121220666D02*
X94505500Y-120520666D01*
X94438833Y-120620666D01*
X94372166Y-120687333D01*
X94305500Y-120720666D01*
X95138833Y-120520666D02*
X95205500Y-120520666D01*
X95272166Y-120554000D01*
X95305500Y-120587333D01*
X95338833Y-120654000D01*
X95372166Y-120787333D01*
X95372166Y-120954000D01*
X95338833Y-121087333D01*
X95305500Y-121154000D01*
X95272166Y-121187333D01*
X95205500Y-121220666D01*
X95138833Y-121220666D01*
X95072166Y-121187333D01*
X95038833Y-121154000D01*
X95005500Y-121087333D01*
X94972166Y-120954000D01*
X94972166Y-120787333D01*
X95005500Y-120654000D01*
X95038833Y-120587333D01*
X95072166Y-120554000D01*
X95138833Y-120520666D01*
X95638833Y-120587333D02*
X95672166Y-120554000D01*
X95738833Y-120520666D01*
X95905500Y-120520666D01*
X95972166Y-120554000D01*
X96005500Y-120587333D01*
X96038833Y-120654000D01*
X96038833Y-120720666D01*
X96005500Y-120820666D01*
X95605500Y-121220666D01*
X96038833Y-121220666D01*
X96372166Y-121220666D02*
X96505500Y-121220666D01*
X96572166Y-121187333D01*
X96605500Y-121154000D01*
X96672166Y-121054000D01*
X96705500Y-120920666D01*
X96705500Y-120654000D01*
X96672166Y-120587333D01*
X96638833Y-120554000D01*
X96572166Y-120520666D01*
X96438833Y-120520666D01*
X96372166Y-120554000D01*
X96338833Y-120587333D01*
X96305500Y-120654000D01*
X96305500Y-120820666D01*
X96338833Y-120887333D01*
X96372166Y-120920666D01*
X96438833Y-120954000D01*
X96572166Y-120954000D01*
X96638833Y-120920666D01*
X96672166Y-120887333D01*
X96705500Y-120820666D01*
X96938833Y-121487333D02*
X96972166Y-121454000D01*
X97038833Y-121354000D01*
X97072166Y-121287333D01*
X97105500Y-121187333D01*
X97138833Y-121020666D01*
X97138833Y-120887333D01*
X97105500Y-120720666D01*
X97072166Y-120620666D01*
X97038833Y-120554000D01*
X96972166Y-120454000D01*
X96938833Y-120420666D01*
X89568976Y-117201904D02*
X89568976Y-116401904D01*
X90026119Y-117201904D02*
X89683261Y-116744761D01*
X90026119Y-116401904D02*
X89568976Y-116859047D01*
X90673738Y-117163809D02*
X90597547Y-117201904D01*
X90445166Y-117201904D01*
X90368976Y-117163809D01*
X90330880Y-117087619D01*
X90330880Y-116782857D01*
X90368976Y-116706666D01*
X90445166Y-116668571D01*
X90597547Y-116668571D01*
X90673738Y-116706666D01*
X90711833Y-116782857D01*
X90711833Y-116859047D01*
X90330880Y-116935238D01*
X90978500Y-116668571D02*
X91168976Y-117201904D01*
X91359452Y-116668571D02*
X91168976Y-117201904D01*
X91092785Y-117392380D01*
X91054690Y-117430476D01*
X90978500Y-117468571D01*
X91664214Y-116668571D02*
X91664214Y-117468571D01*
X91664214Y-116706666D02*
X91740404Y-116668571D01*
X91892785Y-116668571D01*
X91968976Y-116706666D01*
X92007071Y-116744761D01*
X92045166Y-116820952D01*
X92045166Y-117049523D01*
X92007071Y-117125714D01*
X91968976Y-117163809D01*
X91892785Y-117201904D01*
X91740404Y-117201904D01*
X91664214Y-117163809D01*
X92730880Y-117201904D02*
X92730880Y-116782857D01*
X92692785Y-116706666D01*
X92616595Y-116668571D01*
X92464214Y-116668571D01*
X92388023Y-116706666D01*
X92730880Y-117163809D02*
X92654690Y-117201904D01*
X92464214Y-117201904D01*
X92388023Y-117163809D01*
X92349928Y-117087619D01*
X92349928Y-117011428D01*
X92388023Y-116935238D01*
X92464214Y-116897142D01*
X92654690Y-116897142D01*
X92730880Y-116859047D01*
X93454690Y-117201904D02*
X93454690Y-116401904D01*
X93454690Y-117163809D02*
X93378500Y-117201904D01*
X93226119Y-117201904D01*
X93149928Y-117163809D01*
X93111833Y-117125714D01*
X93073738Y-117049523D01*
X93073738Y-116820952D01*
X93111833Y-116744761D01*
X93149928Y-116706666D01*
X93226119Y-116668571D01*
X93378500Y-116668571D01*
X93454690Y-116706666D01*
X94330880Y-116668571D02*
X94635642Y-116668571D01*
X94445166Y-117201904D02*
X94445166Y-116516190D01*
X94483261Y-116440000D01*
X94559452Y-116401904D01*
X94635642Y-116401904D01*
X95016595Y-117201904D02*
X94940404Y-117163809D01*
X94902309Y-117125714D01*
X94864214Y-117049523D01*
X94864214Y-116820952D01*
X94902309Y-116744761D01*
X94940404Y-116706666D01*
X95016595Y-116668571D01*
X95130880Y-116668571D01*
X95207071Y-116706666D01*
X95245166Y-116744761D01*
X95283261Y-116820952D01*
X95283261Y-117049523D01*
X95245166Y-117125714D01*
X95207071Y-117163809D01*
X95130880Y-117201904D01*
X95016595Y-117201904D01*
X95626119Y-117201904D02*
X95626119Y-116668571D01*
X95626119Y-116820952D02*
X95664214Y-116744761D01*
X95702309Y-116706666D01*
X95778500Y-116668571D01*
X95854690Y-116668571D01*
X96692785Y-116973333D02*
X97073738Y-116973333D01*
X96616595Y-117201904D02*
X96883261Y-116401904D01*
X97149928Y-117201904D01*
X97416595Y-117201904D02*
X97416595Y-116668571D01*
X97416595Y-116820952D02*
X97454690Y-116744761D01*
X97492785Y-116706666D01*
X97568976Y-116668571D01*
X97645166Y-116668571D01*
X97797547Y-116668571D02*
X98102309Y-116668571D01*
X97911833Y-116401904D02*
X97911833Y-117087619D01*
X97949928Y-117163809D01*
X98026119Y-117201904D01*
X98102309Y-117201904D01*
X98368976Y-117201904D02*
X98368976Y-116668571D01*
X98368976Y-116401904D02*
X98330880Y-116440000D01*
X98368976Y-116478095D01*
X98407071Y-116440000D01*
X98368976Y-116401904D01*
X98368976Y-116478095D01*
X98711833Y-117163809D02*
X98788023Y-117201904D01*
X98940404Y-117201904D01*
X99016595Y-117163809D01*
X99054690Y-117087619D01*
X99054690Y-117049523D01*
X99016595Y-116973333D01*
X98940404Y-116935238D01*
X98826119Y-116935238D01*
X98749928Y-116897142D01*
X98711833Y-116820952D01*
X98711833Y-116782857D01*
X98749928Y-116706666D01*
X98826119Y-116668571D01*
X98940404Y-116668571D01*
X99016595Y-116706666D01*
X99283261Y-116668571D02*
X99588023Y-116668571D01*
X99397547Y-116401904D02*
X99397547Y-117087619D01*
X99435642Y-117163809D01*
X99511833Y-117201904D01*
X99588023Y-117201904D01*
X99816595Y-117163809D02*
X99892785Y-117201904D01*
X100045166Y-117201904D01*
X100121357Y-117163809D01*
X100159452Y-117087619D01*
X100159452Y-117049523D01*
X100121357Y-116973333D01*
X100045166Y-116935238D01*
X99930880Y-116935238D01*
X99854690Y-116897142D01*
X99816595Y-116820952D01*
X99816595Y-116782857D01*
X99854690Y-116706666D01*
X99930880Y-116668571D01*
X100045166Y-116668571D01*
X100121357Y-116706666D01*
D11*
G36*
X90754236Y-118159795D02*
G01*
X91017562Y-118159795D01*
X91101782Y-119508588D01*
X90754236Y-119508588D01*
X90754236Y-118159795D01*
G37*
G36*
X90355606Y-118159795D02*
G01*
X90627826Y-118159795D01*
X90627826Y-119508588D01*
X90355606Y-119508588D01*
X90355606Y-118159795D01*
G37*
G36*
X89923768Y-117822551D02*
G01*
X90251153Y-117822551D01*
X90251153Y-119171253D01*
X90007805Y-119171253D01*
X89923768Y-117822551D01*
G37*
G36*
X89573840Y-118159789D02*
G01*
X89824467Y-118159789D01*
X89908503Y-119508570D01*
X89489623Y-119508570D01*
X89573840Y-118159789D01*
G37*
G36*
X163749500Y-123184500D02*
G01*
X162250500Y-123184500D01*
X162250500Y-121685500D01*
X163749500Y-121685500D01*
X163749500Y-123184500D01*
X163749500Y-123184500D01*
G37*
G36*
X161499500Y-123184500D02*
G01*
X160000500Y-123184500D01*
X160000500Y-121685500D01*
X161499500Y-121685500D01*
X161499500Y-123184500D01*
X161499500Y-123184500D01*
G37*
G36*
X143751500Y-123184500D02*
G01*
X142252500Y-123184500D01*
X142252500Y-121685500D01*
X143751500Y-121685500D01*
X143751500Y-123184500D01*
X143751500Y-123184500D01*
G37*
G36*
X106413500Y-123184500D02*
G01*
X104914500Y-123184500D01*
X104914500Y-121685500D01*
X106413500Y-121685500D01*
X106413500Y-123184500D01*
X106413500Y-123184500D01*
G37*
G36*
X158130721Y-118370174D02*
G01*
X158230995Y-118411709D01*
X158230996Y-118411710D01*
X158321242Y-118472010D01*
X158397990Y-118548758D01*
X158428345Y-118594188D01*
X158458291Y-118639005D01*
X158499826Y-118739279D01*
X158521000Y-118845730D01*
X158521000Y-118954270D01*
X158499826Y-119060721D01*
X158458291Y-119160995D01*
X158458290Y-119160996D01*
X158397990Y-119251242D01*
X158321242Y-119327990D01*
X158275812Y-119358345D01*
X158230995Y-119388291D01*
X158130721Y-119429826D01*
X158024270Y-119451000D01*
X157915730Y-119451000D01*
X157809279Y-119429826D01*
X157709005Y-119388291D01*
X157664188Y-119358345D01*
X157618758Y-119327990D01*
X157542010Y-119251242D01*
X157481710Y-119160996D01*
X157481709Y-119160995D01*
X157440174Y-119060721D01*
X157419000Y-118954270D01*
X157419000Y-118845730D01*
X157440174Y-118739279D01*
X157481709Y-118639005D01*
X157511655Y-118594188D01*
X157542010Y-118548758D01*
X157618758Y-118472010D01*
X157709004Y-118411710D01*
X157709005Y-118411709D01*
X157809279Y-118370174D01*
X157915730Y-118349000D01*
X158024270Y-118349000D01*
X158130721Y-118370174D01*
X158130721Y-118370174D01*
G37*
G36*
X147690721Y-118370174D02*
G01*
X147790995Y-118411709D01*
X147790996Y-118411710D01*
X147881242Y-118472010D01*
X147957990Y-118548758D01*
X147988345Y-118594188D01*
X148018291Y-118639005D01*
X148059826Y-118739279D01*
X148081000Y-118845730D01*
X148081000Y-118954270D01*
X148059826Y-119060721D01*
X148018291Y-119160995D01*
X148018290Y-119160996D01*
X147957990Y-119251242D01*
X147881242Y-119327990D01*
X147835812Y-119358345D01*
X147790995Y-119388291D01*
X147690721Y-119429826D01*
X147584270Y-119451000D01*
X147475730Y-119451000D01*
X147369279Y-119429826D01*
X147269005Y-119388291D01*
X147224188Y-119358345D01*
X147178758Y-119327990D01*
X147102010Y-119251242D01*
X147041710Y-119160996D01*
X147041709Y-119160995D01*
X147000174Y-119060721D01*
X146979000Y-118954270D01*
X146979000Y-118845730D01*
X147000174Y-118739279D01*
X147041709Y-118639005D01*
X147071655Y-118594188D01*
X147102010Y-118548758D01*
X147178758Y-118472010D01*
X147269004Y-118411710D01*
X147269005Y-118411709D01*
X147369279Y-118370174D01*
X147475730Y-118349000D01*
X147584270Y-118349000D01*
X147690721Y-118370174D01*
X147690721Y-118370174D01*
G37*
G36*
X139130721Y-118370174D02*
G01*
X139230995Y-118411709D01*
X139230996Y-118411710D01*
X139321242Y-118472010D01*
X139397990Y-118548758D01*
X139428345Y-118594188D01*
X139458291Y-118639005D01*
X139499826Y-118739279D01*
X139521000Y-118845730D01*
X139521000Y-118954270D01*
X139499826Y-119060721D01*
X139458291Y-119160995D01*
X139458290Y-119160996D01*
X139397990Y-119251242D01*
X139321242Y-119327990D01*
X139275812Y-119358345D01*
X139230995Y-119388291D01*
X139130721Y-119429826D01*
X139024270Y-119451000D01*
X138915730Y-119451000D01*
X138809279Y-119429826D01*
X138709005Y-119388291D01*
X138664188Y-119358345D01*
X138618758Y-119327990D01*
X138542010Y-119251242D01*
X138481710Y-119160996D01*
X138481709Y-119160995D01*
X138440174Y-119060721D01*
X138419000Y-118954270D01*
X138419000Y-118845730D01*
X138440174Y-118739279D01*
X138481709Y-118639005D01*
X138511655Y-118594188D01*
X138542010Y-118548758D01*
X138618758Y-118472010D01*
X138709004Y-118411710D01*
X138709005Y-118411709D01*
X138809279Y-118370174D01*
X138915730Y-118349000D01*
X139024270Y-118349000D01*
X139130721Y-118370174D01*
X139130721Y-118370174D01*
G37*
G36*
X128690721Y-118370174D02*
G01*
X128790995Y-118411709D01*
X128790996Y-118411710D01*
X128881242Y-118472010D01*
X128957990Y-118548758D01*
X128988345Y-118594188D01*
X129018291Y-118639005D01*
X129059826Y-118739279D01*
X129081000Y-118845730D01*
X129081000Y-118954270D01*
X129059826Y-119060721D01*
X129018291Y-119160995D01*
X129018290Y-119160996D01*
X128957990Y-119251242D01*
X128881242Y-119327990D01*
X128835812Y-119358345D01*
X128790995Y-119388291D01*
X128690721Y-119429826D01*
X128584270Y-119451000D01*
X128475730Y-119451000D01*
X128369279Y-119429826D01*
X128269005Y-119388291D01*
X128224188Y-119358345D01*
X128178758Y-119327990D01*
X128102010Y-119251242D01*
X128041710Y-119160996D01*
X128041709Y-119160995D01*
X128000174Y-119060721D01*
X127979000Y-118954270D01*
X127979000Y-118845730D01*
X128000174Y-118739279D01*
X128041709Y-118639005D01*
X128071655Y-118594188D01*
X128102010Y-118548758D01*
X128178758Y-118472010D01*
X128269004Y-118411710D01*
X128269005Y-118411709D01*
X128369279Y-118370174D01*
X128475730Y-118349000D01*
X128584270Y-118349000D01*
X128690721Y-118370174D01*
X128690721Y-118370174D01*
G37*
G36*
X120080721Y-118370174D02*
G01*
X120180995Y-118411709D01*
X120180996Y-118411710D01*
X120271242Y-118472010D01*
X120347990Y-118548758D01*
X120378345Y-118594188D01*
X120408291Y-118639005D01*
X120449826Y-118739279D01*
X120471000Y-118845730D01*
X120471000Y-118954270D01*
X120449826Y-119060721D01*
X120408291Y-119160995D01*
X120408290Y-119160996D01*
X120347990Y-119251242D01*
X120271242Y-119327990D01*
X120225812Y-119358345D01*
X120180995Y-119388291D01*
X120080721Y-119429826D01*
X119974270Y-119451000D01*
X119865730Y-119451000D01*
X119759279Y-119429826D01*
X119659005Y-119388291D01*
X119614188Y-119358345D01*
X119568758Y-119327990D01*
X119492010Y-119251242D01*
X119431710Y-119160996D01*
X119431709Y-119160995D01*
X119390174Y-119060721D01*
X119369000Y-118954270D01*
X119369000Y-118845730D01*
X119390174Y-118739279D01*
X119431709Y-118639005D01*
X119461655Y-118594188D01*
X119492010Y-118548758D01*
X119568758Y-118472010D01*
X119659004Y-118411710D01*
X119659005Y-118411709D01*
X119759279Y-118370174D01*
X119865730Y-118349000D01*
X119974270Y-118349000D01*
X120080721Y-118370174D01*
X120080721Y-118370174D01*
G37*
G36*
X109640721Y-118370174D02*
G01*
X109740995Y-118411709D01*
X109740996Y-118411710D01*
X109831242Y-118472010D01*
X109907990Y-118548758D01*
X109938345Y-118594188D01*
X109968291Y-118639005D01*
X110009826Y-118739279D01*
X110031000Y-118845730D01*
X110031000Y-118954270D01*
X110009826Y-119060721D01*
X109968291Y-119160995D01*
X109968290Y-119160996D01*
X109907990Y-119251242D01*
X109831242Y-119327990D01*
X109785812Y-119358345D01*
X109740995Y-119388291D01*
X109640721Y-119429826D01*
X109534270Y-119451000D01*
X109425730Y-119451000D01*
X109319279Y-119429826D01*
X109219005Y-119388291D01*
X109174188Y-119358345D01*
X109128758Y-119327990D01*
X109052010Y-119251242D01*
X108991710Y-119160996D01*
X108991709Y-119160995D01*
X108950174Y-119060721D01*
X108929000Y-118954270D01*
X108929000Y-118845730D01*
X108950174Y-118739279D01*
X108991709Y-118639005D01*
X109021655Y-118594188D01*
X109052010Y-118548758D01*
X109128758Y-118472010D01*
X109219004Y-118411710D01*
X109219005Y-118411709D01*
X109319279Y-118370174D01*
X109425730Y-118349000D01*
X109534270Y-118349000D01*
X109640721Y-118370174D01*
X109640721Y-118370174D01*
G37*
G36*
X178365814Y-117478098D02*
G01*
X178466088Y-117519633D01*
X178466089Y-117519634D01*
X178556335Y-117579934D01*
X178633083Y-117656682D01*
X178633084Y-117656684D01*
X178693384Y-117746929D01*
X178734919Y-117847203D01*
X178756093Y-117953654D01*
X178756093Y-118062194D01*
X178734919Y-118168645D01*
X178693384Y-118268919D01*
X178693383Y-118268920D01*
X178633083Y-118359166D01*
X178556335Y-118435914D01*
X178510905Y-118466269D01*
X178466088Y-118496215D01*
X178365814Y-118537750D01*
X178259363Y-118558924D01*
X178150823Y-118558924D01*
X178044372Y-118537750D01*
X177944098Y-118496215D01*
X177899281Y-118466269D01*
X177853851Y-118435914D01*
X177777103Y-118359166D01*
X177716803Y-118268920D01*
X177716802Y-118268919D01*
X177675267Y-118168645D01*
X177654093Y-118062194D01*
X177654093Y-117953654D01*
X177675267Y-117847203D01*
X177716802Y-117746929D01*
X177777102Y-117656684D01*
X177777103Y-117656682D01*
X177853851Y-117579934D01*
X177944097Y-117519634D01*
X177944098Y-117519633D01*
X178044372Y-117478098D01*
X178150823Y-117456924D01*
X178259363Y-117456924D01*
X178365814Y-117478098D01*
X178365814Y-117478098D01*
G37*
G36*
X153348254Y-112727818D02*
G01*
X153721511Y-112882426D01*
X153721513Y-112882427D01*
X154057436Y-113106884D01*
X154343116Y-113392564D01*
X154516459Y-113651989D01*
X154567574Y-113728489D01*
X154722182Y-114101746D01*
X154801000Y-114497993D01*
X154801000Y-114902007D01*
X154722182Y-115298254D01*
X154592839Y-115610515D01*
X154567573Y-115671513D01*
X154343116Y-116007436D01*
X154057436Y-116293116D01*
X153721513Y-116517573D01*
X153721512Y-116517574D01*
X153721511Y-116517574D01*
X153348254Y-116672182D01*
X152952007Y-116751000D01*
X152547993Y-116751000D01*
X152151746Y-116672182D01*
X151778489Y-116517574D01*
X151778488Y-116517574D01*
X151778487Y-116517573D01*
X151442564Y-116293116D01*
X151156884Y-116007436D01*
X150932427Y-115671513D01*
X150907161Y-115610515D01*
X150777818Y-115298254D01*
X150699000Y-114902007D01*
X150699000Y-114497993D01*
X150777818Y-114101746D01*
X150932426Y-113728489D01*
X150983542Y-113651989D01*
X151156884Y-113392564D01*
X151442564Y-113106884D01*
X151778487Y-112882427D01*
X151778489Y-112882426D01*
X152151746Y-112727818D01*
X152547993Y-112649000D01*
X152952007Y-112649000D01*
X153348254Y-112727818D01*
X153348254Y-112727818D01*
G37*
G36*
X134348254Y-112727818D02*
G01*
X134721511Y-112882426D01*
X134721513Y-112882427D01*
X135057436Y-113106884D01*
X135343116Y-113392564D01*
X135516459Y-113651989D01*
X135567574Y-113728489D01*
X135722182Y-114101746D01*
X135801000Y-114497993D01*
X135801000Y-114902007D01*
X135722182Y-115298254D01*
X135592839Y-115610515D01*
X135567573Y-115671513D01*
X135343116Y-116007436D01*
X135057436Y-116293116D01*
X134721513Y-116517573D01*
X134721512Y-116517574D01*
X134721511Y-116517574D01*
X134348254Y-116672182D01*
X133952007Y-116751000D01*
X133547993Y-116751000D01*
X133151746Y-116672182D01*
X132778489Y-116517574D01*
X132778488Y-116517574D01*
X132778487Y-116517573D01*
X132442564Y-116293116D01*
X132156884Y-116007436D01*
X131932427Y-115671513D01*
X131907161Y-115610515D01*
X131777818Y-115298254D01*
X131699000Y-114902007D01*
X131699000Y-114497993D01*
X131777818Y-114101746D01*
X131932426Y-113728489D01*
X131983542Y-113651989D01*
X132156884Y-113392564D01*
X132442564Y-113106884D01*
X132778487Y-112882427D01*
X132778489Y-112882426D01*
X133151746Y-112727818D01*
X133547993Y-112649000D01*
X133952007Y-112649000D01*
X134348254Y-112727818D01*
X134348254Y-112727818D01*
G37*
G36*
X115298254Y-112727818D02*
G01*
X115671511Y-112882426D01*
X115671513Y-112882427D01*
X116007436Y-113106884D01*
X116293116Y-113392564D01*
X116466459Y-113651989D01*
X116517574Y-113728489D01*
X116672182Y-114101746D01*
X116751000Y-114497993D01*
X116751000Y-114902007D01*
X116672182Y-115298254D01*
X116542839Y-115610515D01*
X116517573Y-115671513D01*
X116293116Y-116007436D01*
X116007436Y-116293116D01*
X115671513Y-116517573D01*
X115671512Y-116517574D01*
X115671511Y-116517574D01*
X115298254Y-116672182D01*
X114902007Y-116751000D01*
X114497993Y-116751000D01*
X114101746Y-116672182D01*
X113728489Y-116517574D01*
X113728488Y-116517574D01*
X113728487Y-116517573D01*
X113392564Y-116293116D01*
X113106884Y-116007436D01*
X112882427Y-115671513D01*
X112857161Y-115610515D01*
X112727818Y-115298254D01*
X112649000Y-114902007D01*
X112649000Y-114497993D01*
X112727818Y-114101746D01*
X112882426Y-113728489D01*
X112933542Y-113651989D01*
X113106884Y-113392564D01*
X113392564Y-113106884D01*
X113728487Y-112882427D01*
X113728489Y-112882426D01*
X114101746Y-112727818D01*
X114497993Y-112649000D01*
X114902007Y-112649000D01*
X115298254Y-112727818D01*
X115298254Y-112727818D01*
G37*
G36*
X168281548Y-114776027D02*
G01*
X168381822Y-114817562D01*
X168381823Y-114817563D01*
X168472069Y-114877863D01*
X168548817Y-114954611D01*
X168569815Y-114986037D01*
X168609118Y-115044858D01*
X168650653Y-115145132D01*
X168671827Y-115251583D01*
X168671827Y-115360123D01*
X168650653Y-115466574D01*
X168609118Y-115566848D01*
X168609117Y-115566849D01*
X168548817Y-115657095D01*
X168472069Y-115733843D01*
X168426639Y-115764198D01*
X168381822Y-115794144D01*
X168281548Y-115835679D01*
X168175097Y-115856853D01*
X168066557Y-115856853D01*
X167960106Y-115835679D01*
X167859832Y-115794144D01*
X167815015Y-115764198D01*
X167769585Y-115733843D01*
X167692837Y-115657095D01*
X167632537Y-115566849D01*
X167632536Y-115566848D01*
X167591001Y-115466574D01*
X167569827Y-115360123D01*
X167569827Y-115251583D01*
X167591001Y-115145132D01*
X167632536Y-115044858D01*
X167671839Y-114986037D01*
X167692837Y-114954611D01*
X167769585Y-114877863D01*
X167859831Y-114817563D01*
X167859832Y-114817562D01*
X167960106Y-114776027D01*
X168066557Y-114754853D01*
X168175097Y-114754853D01*
X168281548Y-114776027D01*
X168281548Y-114776027D01*
G37*
G36*
X128541981Y-113737468D02*
G01*
X128662310Y-113787311D01*
X128667560Y-113789485D01*
X128691009Y-113796598D01*
X128715395Y-113799000D01*
X128758742Y-113799000D01*
X128783512Y-113803927D01*
X128932812Y-113833624D01*
X129096784Y-113901544D01*
X129244354Y-114000147D01*
X129369853Y-114125646D01*
X129468456Y-114273216D01*
X129536376Y-114437188D01*
X129563227Y-114572181D01*
X129568041Y-114596380D01*
X129571000Y-114611259D01*
X129571000Y-114788741D01*
X129536376Y-114962812D01*
X129468456Y-115126784D01*
X129369853Y-115274354D01*
X129244354Y-115399853D01*
X129096784Y-115498456D01*
X128932812Y-115566376D01*
X128783512Y-115596073D01*
X128758742Y-115601000D01*
X128715395Y-115601000D01*
X128691009Y-115603402D01*
X128667560Y-115610515D01*
X128541981Y-115662532D01*
X128348591Y-115701000D01*
X128151409Y-115701000D01*
X127958019Y-115662532D01*
X127775849Y-115587074D01*
X127611900Y-115477527D01*
X127472473Y-115338100D01*
X127362926Y-115174151D01*
X127287468Y-114991981D01*
X127249000Y-114798590D01*
X127249000Y-114601410D01*
X127250001Y-114596380D01*
X127281666Y-114437188D01*
X127287468Y-114408019D01*
X127362926Y-114225849D01*
X127472473Y-114061900D01*
X127611900Y-113922473D01*
X127775849Y-113812926D01*
X127958019Y-113737468D01*
X128151409Y-113699000D01*
X128348591Y-113699000D01*
X128541981Y-113737468D01*
X128541981Y-113737468D01*
G37*
G36*
X158541981Y-113737468D02*
G01*
X158724151Y-113812926D01*
X158888100Y-113922473D01*
X159027527Y-114061900D01*
X159137074Y-114225849D01*
X159212532Y-114408019D01*
X159218334Y-114437188D01*
X159250000Y-114596380D01*
X159251000Y-114601410D01*
X159251000Y-114798590D01*
X159212532Y-114991981D01*
X159137074Y-115174151D01*
X159027527Y-115338100D01*
X158888100Y-115477527D01*
X158724151Y-115587074D01*
X158541981Y-115662532D01*
X158348591Y-115701000D01*
X158151409Y-115701000D01*
X157958019Y-115662532D01*
X157832440Y-115610515D01*
X157808991Y-115603402D01*
X157784605Y-115601000D01*
X157741258Y-115601000D01*
X157716488Y-115596073D01*
X157567188Y-115566376D01*
X157403216Y-115498456D01*
X157255646Y-115399853D01*
X157130147Y-115274354D01*
X157031544Y-115126784D01*
X156963624Y-114962812D01*
X156929000Y-114788741D01*
X156929000Y-114611259D01*
X156931960Y-114596380D01*
X156936773Y-114572181D01*
X156963624Y-114437188D01*
X157031544Y-114273216D01*
X157130147Y-114125646D01*
X157255646Y-114000147D01*
X157403216Y-113901544D01*
X157567188Y-113833624D01*
X157716488Y-113803927D01*
X157741258Y-113799000D01*
X157784605Y-113799000D01*
X157808991Y-113796598D01*
X157832440Y-113789485D01*
X157837690Y-113787311D01*
X157958019Y-113737468D01*
X158151409Y-113699000D01*
X158348591Y-113699000D01*
X158541981Y-113737468D01*
X158541981Y-113737468D01*
G37*
G36*
X109491981Y-113737468D02*
G01*
X109612310Y-113787311D01*
X109617560Y-113789485D01*
X109641009Y-113796598D01*
X109665395Y-113799000D01*
X109708742Y-113799000D01*
X109733512Y-113803927D01*
X109882812Y-113833624D01*
X110046784Y-113901544D01*
X110194354Y-114000147D01*
X110319853Y-114125646D01*
X110418456Y-114273216D01*
X110486376Y-114437188D01*
X110513227Y-114572181D01*
X110518041Y-114596380D01*
X110521000Y-114611259D01*
X110521000Y-114788741D01*
X110486376Y-114962812D01*
X110418456Y-115126784D01*
X110319853Y-115274354D01*
X110194354Y-115399853D01*
X110046784Y-115498456D01*
X109882812Y-115566376D01*
X109733512Y-115596073D01*
X109708742Y-115601000D01*
X109665395Y-115601000D01*
X109641009Y-115603402D01*
X109617560Y-115610515D01*
X109491981Y-115662532D01*
X109298591Y-115701000D01*
X109101409Y-115701000D01*
X108908019Y-115662532D01*
X108725849Y-115587074D01*
X108561900Y-115477527D01*
X108422473Y-115338100D01*
X108312926Y-115174151D01*
X108237468Y-114991981D01*
X108199000Y-114798590D01*
X108199000Y-114601410D01*
X108200001Y-114596380D01*
X108231666Y-114437188D01*
X108237468Y-114408019D01*
X108312926Y-114225849D01*
X108422473Y-114061900D01*
X108561900Y-113922473D01*
X108725849Y-113812926D01*
X108908019Y-113737468D01*
X109101409Y-113699000D01*
X109298591Y-113699000D01*
X109491981Y-113737468D01*
X109491981Y-113737468D01*
G37*
G36*
X147541981Y-113737468D02*
G01*
X147662310Y-113787311D01*
X147667560Y-113789485D01*
X147691009Y-113796598D01*
X147715395Y-113799000D01*
X147758742Y-113799000D01*
X147783512Y-113803927D01*
X147932812Y-113833624D01*
X148096784Y-113901544D01*
X148244354Y-114000147D01*
X148369853Y-114125646D01*
X148468456Y-114273216D01*
X148536376Y-114437188D01*
X148563227Y-114572181D01*
X148568041Y-114596380D01*
X148571000Y-114611259D01*
X148571000Y-114788741D01*
X148536376Y-114962812D01*
X148468456Y-115126784D01*
X148369853Y-115274354D01*
X148244354Y-115399853D01*
X148096784Y-115498456D01*
X147932812Y-115566376D01*
X147783512Y-115596073D01*
X147758742Y-115601000D01*
X147715395Y-115601000D01*
X147691009Y-115603402D01*
X147667560Y-115610515D01*
X147541981Y-115662532D01*
X147348591Y-115701000D01*
X147151409Y-115701000D01*
X146958019Y-115662532D01*
X146775849Y-115587074D01*
X146611900Y-115477527D01*
X146472473Y-115338100D01*
X146362926Y-115174151D01*
X146287468Y-114991981D01*
X146249000Y-114798590D01*
X146249000Y-114601410D01*
X146250001Y-114596380D01*
X146281666Y-114437188D01*
X146287468Y-114408019D01*
X146362926Y-114225849D01*
X146472473Y-114061900D01*
X146611900Y-113922473D01*
X146775849Y-113812926D01*
X146958019Y-113737468D01*
X147151409Y-113699000D01*
X147348591Y-113699000D01*
X147541981Y-113737468D01*
X147541981Y-113737468D01*
G37*
G36*
X139541981Y-113737468D02*
G01*
X139724151Y-113812926D01*
X139888100Y-113922473D01*
X140027527Y-114061900D01*
X140137074Y-114225849D01*
X140212532Y-114408019D01*
X140218334Y-114437188D01*
X140250000Y-114596380D01*
X140251000Y-114601410D01*
X140251000Y-114798590D01*
X140212532Y-114991981D01*
X140137074Y-115174151D01*
X140027527Y-115338100D01*
X139888100Y-115477527D01*
X139724151Y-115587074D01*
X139541981Y-115662532D01*
X139348591Y-115701000D01*
X139151409Y-115701000D01*
X138958019Y-115662532D01*
X138832440Y-115610515D01*
X138808991Y-115603402D01*
X138784605Y-115601000D01*
X138741258Y-115601000D01*
X138716488Y-115596073D01*
X138567188Y-115566376D01*
X138403216Y-115498456D01*
X138255646Y-115399853D01*
X138130147Y-115274354D01*
X138031544Y-115126784D01*
X137963624Y-114962812D01*
X137929000Y-114788741D01*
X137929000Y-114611259D01*
X137931960Y-114596380D01*
X137936773Y-114572181D01*
X137963624Y-114437188D01*
X138031544Y-114273216D01*
X138130147Y-114125646D01*
X138255646Y-114000147D01*
X138403216Y-113901544D01*
X138567188Y-113833624D01*
X138716488Y-113803927D01*
X138741258Y-113799000D01*
X138784605Y-113799000D01*
X138808991Y-113796598D01*
X138832440Y-113789485D01*
X138837690Y-113787311D01*
X138958019Y-113737468D01*
X139151409Y-113699000D01*
X139348591Y-113699000D01*
X139541981Y-113737468D01*
X139541981Y-113737468D01*
G37*
G36*
X120491981Y-113737468D02*
G01*
X120674151Y-113812926D01*
X120838100Y-113922473D01*
X120977527Y-114061900D01*
X121087074Y-114225849D01*
X121162532Y-114408019D01*
X121168334Y-114437188D01*
X121200000Y-114596380D01*
X121201000Y-114601410D01*
X121201000Y-114798590D01*
X121162532Y-114991981D01*
X121087074Y-115174151D01*
X120977527Y-115338100D01*
X120838100Y-115477527D01*
X120674151Y-115587074D01*
X120491981Y-115662532D01*
X120298591Y-115701000D01*
X120101409Y-115701000D01*
X119908019Y-115662532D01*
X119782440Y-115610515D01*
X119758991Y-115603402D01*
X119734605Y-115601000D01*
X119691258Y-115601000D01*
X119666488Y-115596073D01*
X119517188Y-115566376D01*
X119353216Y-115498456D01*
X119205646Y-115399853D01*
X119080147Y-115274354D01*
X118981544Y-115126784D01*
X118913624Y-114962812D01*
X118879000Y-114788741D01*
X118879000Y-114611259D01*
X118881960Y-114596380D01*
X118886773Y-114572181D01*
X118913624Y-114437188D01*
X118981544Y-114273216D01*
X119080147Y-114125646D01*
X119205646Y-114000147D01*
X119353216Y-113901544D01*
X119517188Y-113833624D01*
X119666488Y-113803927D01*
X119691258Y-113799000D01*
X119734605Y-113799000D01*
X119758991Y-113796598D01*
X119782440Y-113789485D01*
X119787690Y-113787311D01*
X119908019Y-113737468D01*
X120101409Y-113699000D01*
X120298591Y-113699000D01*
X120491981Y-113737468D01*
X120491981Y-113737468D01*
G37*
G36*
X163094425Y-114069599D02*
G01*
X163218621Y-114094302D01*
X163355022Y-114150801D01*
X163477779Y-114232825D01*
X163582175Y-114337221D01*
X163664199Y-114459978D01*
X163720698Y-114596379D01*
X163749500Y-114741181D01*
X163749500Y-114888819D01*
X163720698Y-115033621D01*
X163664199Y-115170022D01*
X163582175Y-115292779D01*
X163477779Y-115397175D01*
X163355022Y-115479199D01*
X163218621Y-115535698D01*
X163094425Y-115560401D01*
X163073820Y-115564500D01*
X162926180Y-115564500D01*
X162905575Y-115560401D01*
X162781379Y-115535698D01*
X162644978Y-115479199D01*
X162522221Y-115397175D01*
X162417825Y-115292779D01*
X162335801Y-115170022D01*
X162279302Y-115033621D01*
X162250500Y-114888819D01*
X162250500Y-114741181D01*
X162279302Y-114596379D01*
X162335801Y-114459978D01*
X162417825Y-114337221D01*
X162522221Y-114232825D01*
X162644978Y-114150801D01*
X162781379Y-114094302D01*
X162905575Y-114069599D01*
X162926180Y-114065500D01*
X163073820Y-114065500D01*
X163094425Y-114069599D01*
X163094425Y-114069599D01*
G37*
G36*
X160844425Y-114069599D02*
G01*
X160968621Y-114094302D01*
X161105022Y-114150801D01*
X161227779Y-114232825D01*
X161332175Y-114337221D01*
X161414199Y-114459978D01*
X161470698Y-114596379D01*
X161499500Y-114741181D01*
X161499500Y-114888819D01*
X161470698Y-115033621D01*
X161414199Y-115170022D01*
X161332175Y-115292779D01*
X161227779Y-115397175D01*
X161105022Y-115479199D01*
X160968621Y-115535698D01*
X160844425Y-115560401D01*
X160823820Y-115564500D01*
X160676180Y-115564500D01*
X160655575Y-115560401D01*
X160531379Y-115535698D01*
X160394978Y-115479199D01*
X160272221Y-115397175D01*
X160167825Y-115292779D01*
X160085801Y-115170022D01*
X160029302Y-115033621D01*
X160000500Y-114888819D01*
X160000500Y-114741181D01*
X160029302Y-114596379D01*
X160085801Y-114459978D01*
X160167825Y-114337221D01*
X160272221Y-114232825D01*
X160394978Y-114150801D01*
X160531379Y-114094302D01*
X160655575Y-114069599D01*
X160676180Y-114065500D01*
X160823820Y-114065500D01*
X160844425Y-114069599D01*
X160844425Y-114069599D01*
G37*
G36*
X143096425Y-114069599D02*
G01*
X143220621Y-114094302D01*
X143357022Y-114150801D01*
X143479779Y-114232825D01*
X143584175Y-114337221D01*
X143666199Y-114459978D01*
X143722698Y-114596379D01*
X143751500Y-114741181D01*
X143751500Y-114888819D01*
X143722698Y-115033621D01*
X143666199Y-115170022D01*
X143584175Y-115292779D01*
X143479779Y-115397175D01*
X143357022Y-115479199D01*
X143220621Y-115535698D01*
X143096425Y-115560401D01*
X143075820Y-115564500D01*
X142928180Y-115564500D01*
X142907575Y-115560401D01*
X142783379Y-115535698D01*
X142646978Y-115479199D01*
X142524221Y-115397175D01*
X142419825Y-115292779D01*
X142337801Y-115170022D01*
X142281302Y-115033621D01*
X142252500Y-114888819D01*
X142252500Y-114741181D01*
X142281302Y-114596379D01*
X142337801Y-114459978D01*
X142419825Y-114337221D01*
X142524221Y-114232825D01*
X142646978Y-114150801D01*
X142783379Y-114094302D01*
X142907575Y-114069599D01*
X142928180Y-114065500D01*
X143075820Y-114065500D01*
X143096425Y-114069599D01*
X143096425Y-114069599D01*
G37*
G36*
X105758425Y-114069599D02*
G01*
X105882621Y-114094302D01*
X106019022Y-114150801D01*
X106141779Y-114232825D01*
X106246175Y-114337221D01*
X106328199Y-114459978D01*
X106384698Y-114596379D01*
X106413500Y-114741181D01*
X106413500Y-114888819D01*
X106384698Y-115033621D01*
X106328199Y-115170022D01*
X106246175Y-115292779D01*
X106141779Y-115397175D01*
X106019022Y-115479199D01*
X105882621Y-115535698D01*
X105758425Y-115560401D01*
X105737820Y-115564500D01*
X105590180Y-115564500D01*
X105569575Y-115560401D01*
X105445379Y-115535698D01*
X105308978Y-115479199D01*
X105186221Y-115397175D01*
X105081825Y-115292779D01*
X104999801Y-115170022D01*
X104943302Y-115033621D01*
X104914500Y-114888819D01*
X104914500Y-114741181D01*
X104943302Y-114596379D01*
X104999801Y-114459978D01*
X105081825Y-114337221D01*
X105186221Y-114232825D01*
X105308978Y-114150801D01*
X105445379Y-114094302D01*
X105569575Y-114069599D01*
X105590180Y-114065500D01*
X105737820Y-114065500D01*
X105758425Y-114069599D01*
X105758425Y-114069599D01*
G37*
G36*
X179289403Y-113022505D02*
G01*
X179352318Y-113035019D01*
X179376702Y-113037421D01*
X179401088Y-113035019D01*
X179464001Y-113022505D01*
X179661183Y-113022505D01*
X179724094Y-113035019D01*
X179854573Y-113060973D01*
X180036743Y-113136431D01*
X180200692Y-113245978D01*
X180340119Y-113385405D01*
X180449666Y-113549354D01*
X180523867Y-113728489D01*
X180525124Y-113731525D01*
X180563592Y-113924914D01*
X180563592Y-114122096D01*
X180557882Y-114150801D01*
X180525124Y-114315486D01*
X180449666Y-114497656D01*
X180340119Y-114661605D01*
X180200692Y-114801032D01*
X180036743Y-114910579D01*
X179854573Y-114986037D01*
X179661183Y-115024505D01*
X179464001Y-115024505D01*
X179270611Y-114986037D01*
X179088441Y-114910579D01*
X178924492Y-114801032D01*
X178924489Y-114801029D01*
X178918401Y-114796961D01*
X178910732Y-114790668D01*
X178889132Y-114779123D01*
X178730119Y-114713257D01*
X178582549Y-114614654D01*
X178457050Y-114489155D01*
X178358447Y-114341585D01*
X178290527Y-114177613D01*
X178255903Y-114003542D01*
X178255903Y-113826060D01*
X178290527Y-113651989D01*
X178358447Y-113488017D01*
X178457050Y-113340447D01*
X178582549Y-113214948D01*
X178730119Y-113116345D01*
X178894091Y-113048425D01*
X179043391Y-113018728D01*
X179068161Y-113013801D01*
X179245645Y-113013801D01*
X179289403Y-113022505D01*
X179289403Y-113022505D01*
G37*
G36*
X174848254Y-110627818D02*
G01*
X175048701Y-110710846D01*
X175221513Y-110782427D01*
X175557436Y-111006884D01*
X175843116Y-111292564D01*
X176013801Y-111548011D01*
X176067574Y-111628489D01*
X176222182Y-112001746D01*
X176301000Y-112397993D01*
X176301000Y-112802007D01*
X176222182Y-113198254D01*
X176144661Y-113385406D01*
X176067573Y-113571513D01*
X175843116Y-113907436D01*
X175557436Y-114193116D01*
X175221513Y-114417573D01*
X175221512Y-114417574D01*
X175221511Y-114417574D01*
X174848254Y-114572182D01*
X174452007Y-114651000D01*
X174047993Y-114651000D01*
X173651746Y-114572182D01*
X173278489Y-114417574D01*
X173278488Y-114417574D01*
X173278487Y-114417573D01*
X172942564Y-114193116D01*
X172656884Y-113907436D01*
X172432427Y-113571513D01*
X172355339Y-113385406D01*
X172277818Y-113198254D01*
X172199000Y-112802007D01*
X172199000Y-112397993D01*
X172277818Y-112001746D01*
X172432426Y-111628489D01*
X172486200Y-111548011D01*
X172656884Y-111292564D01*
X172942564Y-111006884D01*
X173278487Y-110782427D01*
X173451299Y-110710846D01*
X173651746Y-110627818D01*
X174047993Y-110549000D01*
X174452007Y-110549000D01*
X174848254Y-110627818D01*
X174848254Y-110627818D01*
G37*
G36*
X164866336Y-109255627D02*
G01*
X165001639Y-109282540D01*
X165383997Y-109440918D01*
X165728110Y-109670847D01*
X166020753Y-109963490D01*
X166250682Y-110307603D01*
X166409060Y-110689961D01*
X166435973Y-110825264D01*
X166489800Y-111095868D01*
X166489800Y-111509732D01*
X166461771Y-111650644D01*
X166409060Y-111915639D01*
X166250682Y-112297997D01*
X166020753Y-112642110D01*
X165728110Y-112934753D01*
X165383997Y-113164682D01*
X165001639Y-113323060D01*
X164914228Y-113340447D01*
X164595732Y-113403800D01*
X164181868Y-113403800D01*
X163863372Y-113340447D01*
X163775961Y-113323060D01*
X163393603Y-113164682D01*
X163049490Y-112934753D01*
X162756847Y-112642110D01*
X162526918Y-112297997D01*
X162368540Y-111915639D01*
X162315829Y-111650644D01*
X162287800Y-111509732D01*
X162287800Y-111095868D01*
X162341627Y-110825264D01*
X162368540Y-110689961D01*
X162526918Y-110307603D01*
X162756847Y-109963490D01*
X163049490Y-109670847D01*
X163393603Y-109440918D01*
X163775961Y-109282540D01*
X163911264Y-109255627D01*
X164181868Y-109201800D01*
X164595732Y-109201800D01*
X164866336Y-109255627D01*
X164866336Y-109255627D01*
G37*
G36*
X103347536Y-109255627D02*
G01*
X103482839Y-109282540D01*
X103865197Y-109440918D01*
X104209310Y-109670847D01*
X104501953Y-109963490D01*
X104731882Y-110307603D01*
X104890260Y-110689961D01*
X104917173Y-110825264D01*
X104971000Y-111095868D01*
X104971000Y-111509732D01*
X104942971Y-111650644D01*
X104890260Y-111915639D01*
X104731882Y-112297997D01*
X104501953Y-112642110D01*
X104209310Y-112934753D01*
X103865197Y-113164682D01*
X103482839Y-113323060D01*
X103395428Y-113340447D01*
X103076932Y-113403800D01*
X102663068Y-113403800D01*
X102344572Y-113340447D01*
X102257161Y-113323060D01*
X101874803Y-113164682D01*
X101530690Y-112934753D01*
X101238047Y-112642110D01*
X101008118Y-112297997D01*
X100849740Y-111915639D01*
X100797029Y-111650644D01*
X100769000Y-111509732D01*
X100769000Y-111095868D01*
X100822827Y-110825264D01*
X100849740Y-110689961D01*
X101008118Y-110307603D01*
X101238047Y-109963490D01*
X101530690Y-109670847D01*
X101874803Y-109440918D01*
X102257161Y-109282540D01*
X102392464Y-109255627D01*
X102663068Y-109201800D01*
X103076932Y-109201800D01*
X103347536Y-109255627D01*
X103347536Y-109255627D01*
G37*
G36*
X169229389Y-110213963D02*
G01*
X169411559Y-110289421D01*
X169575508Y-110398968D01*
X169575511Y-110398971D01*
X169581599Y-110403039D01*
X169589268Y-110409332D01*
X169610868Y-110420877D01*
X169769881Y-110486743D01*
X169917451Y-110585346D01*
X170042950Y-110710845D01*
X170141553Y-110858415D01*
X170209473Y-111022387D01*
X170244097Y-111196458D01*
X170244097Y-111373940D01*
X170209473Y-111548011D01*
X170141553Y-111711983D01*
X170042950Y-111859553D01*
X169917451Y-111985052D01*
X169769881Y-112083655D01*
X169605909Y-112151575D01*
X169456609Y-112181272D01*
X169431839Y-112186199D01*
X169254355Y-112186199D01*
X169194566Y-112174306D01*
X169147682Y-112164981D01*
X169123298Y-112162579D01*
X169098912Y-112164981D01*
X169035999Y-112177495D01*
X168838817Y-112177495D01*
X168708505Y-112151574D01*
X168645427Y-112139027D01*
X168463257Y-112063569D01*
X168299308Y-111954022D01*
X168159881Y-111814595D01*
X168050334Y-111650646D01*
X167974876Y-111468476D01*
X167936408Y-111275085D01*
X167936408Y-111077905D01*
X167974876Y-110884514D01*
X168050334Y-110702344D01*
X168159881Y-110538395D01*
X168299308Y-110398968D01*
X168463257Y-110289421D01*
X168645427Y-110213963D01*
X168838817Y-110175495D01*
X169035999Y-110175495D01*
X169229389Y-110213963D01*
X169229389Y-110213963D01*
G37*
G36*
X100940721Y-104350174D02*
G01*
X101040995Y-104391709D01*
X101040996Y-104391710D01*
X101131242Y-104452010D01*
X101207990Y-104528758D01*
X101207991Y-104528760D01*
X101268291Y-104619005D01*
X101309826Y-104719279D01*
X101331000Y-104825730D01*
X101331000Y-104934270D01*
X101309826Y-105040721D01*
X101268291Y-105140995D01*
X101268290Y-105140996D01*
X101207990Y-105231242D01*
X101131242Y-105307990D01*
X101085812Y-105338345D01*
X101040995Y-105368291D01*
X100940721Y-105409826D01*
X100834270Y-105431000D01*
X100725730Y-105431000D01*
X100619279Y-105409826D01*
X100519005Y-105368291D01*
X100474188Y-105338345D01*
X100428758Y-105307990D01*
X100352010Y-105231242D01*
X100291710Y-105140996D01*
X100291709Y-105140995D01*
X100250174Y-105040721D01*
X100229000Y-104934270D01*
X100229000Y-104825730D01*
X100250174Y-104719279D01*
X100291709Y-104619005D01*
X100352009Y-104528760D01*
X100352010Y-104528758D01*
X100428758Y-104452010D01*
X100519004Y-104391710D01*
X100519005Y-104391709D01*
X100619279Y-104350174D01*
X100725730Y-104329000D01*
X100834270Y-104329000D01*
X100940721Y-104350174D01*
X100940721Y-104350174D01*
G37*
G36*
X90500721Y-104350174D02*
G01*
X90600995Y-104391709D01*
X90600996Y-104391710D01*
X90691242Y-104452010D01*
X90767990Y-104528758D01*
X90767991Y-104528760D01*
X90828291Y-104619005D01*
X90869826Y-104719279D01*
X90891000Y-104825730D01*
X90891000Y-104934270D01*
X90869826Y-105040721D01*
X90828291Y-105140995D01*
X90828290Y-105140996D01*
X90767990Y-105231242D01*
X90691242Y-105307990D01*
X90645812Y-105338345D01*
X90600995Y-105368291D01*
X90500721Y-105409826D01*
X90394270Y-105431000D01*
X90285730Y-105431000D01*
X90179279Y-105409826D01*
X90079005Y-105368291D01*
X90034188Y-105338345D01*
X89988758Y-105307990D01*
X89912010Y-105231242D01*
X89851710Y-105140996D01*
X89851709Y-105140995D01*
X89810174Y-105040721D01*
X89789000Y-104934270D01*
X89789000Y-104825730D01*
X89810174Y-104719279D01*
X89851709Y-104619005D01*
X89912009Y-104528760D01*
X89912010Y-104528758D01*
X89988758Y-104452010D01*
X90079004Y-104391710D01*
X90079005Y-104391709D01*
X90179279Y-104350174D01*
X90285730Y-104329000D01*
X90394270Y-104329000D01*
X90500721Y-104350174D01*
X90500721Y-104350174D01*
G37*
G36*
X96158254Y-98707818D02*
G01*
X96531511Y-98862426D01*
X96531513Y-98862427D01*
X96867436Y-99086884D01*
X97153116Y-99372564D01*
X97369050Y-99695731D01*
X97377574Y-99708489D01*
X97532182Y-100081746D01*
X97611000Y-100477993D01*
X97611000Y-100882007D01*
X97532182Y-101278254D01*
X97402839Y-101590515D01*
X97377573Y-101651513D01*
X97153116Y-101987436D01*
X96867436Y-102273116D01*
X96531513Y-102497573D01*
X96531512Y-102497574D01*
X96531511Y-102497574D01*
X96158254Y-102652182D01*
X95762007Y-102731000D01*
X95357993Y-102731000D01*
X94961746Y-102652182D01*
X94588489Y-102497574D01*
X94588488Y-102497574D01*
X94588487Y-102497573D01*
X94252564Y-102273116D01*
X93966884Y-101987436D01*
X93742427Y-101651513D01*
X93717161Y-101590515D01*
X93587818Y-101278254D01*
X93509000Y-100882007D01*
X93509000Y-100477993D01*
X93587818Y-100081746D01*
X93742426Y-99708489D01*
X93750951Y-99695731D01*
X93966884Y-99372564D01*
X94252564Y-99086884D01*
X94588487Y-98862427D01*
X94588489Y-98862426D01*
X94961746Y-98707818D01*
X95357993Y-98629000D01*
X95762007Y-98629000D01*
X96158254Y-98707818D01*
X96158254Y-98707818D01*
G37*
G36*
X90242697Y-99695730D02*
G01*
X90351981Y-99717468D01*
X90472310Y-99767311D01*
X90477560Y-99769485D01*
X90501009Y-99776598D01*
X90525395Y-99779000D01*
X90568742Y-99779000D01*
X90593512Y-99783927D01*
X90742812Y-99813624D01*
X90906784Y-99881544D01*
X91054354Y-99980147D01*
X91179853Y-100105646D01*
X91278456Y-100253216D01*
X91346376Y-100417188D01*
X91381000Y-100591259D01*
X91381000Y-100768741D01*
X91346376Y-100942812D01*
X91278456Y-101106784D01*
X91179853Y-101254354D01*
X91054354Y-101379853D01*
X90906784Y-101478456D01*
X90742812Y-101546376D01*
X90593512Y-101576073D01*
X90568742Y-101581000D01*
X90525395Y-101581000D01*
X90501009Y-101583402D01*
X90477560Y-101590515D01*
X90351981Y-101642532D01*
X90158591Y-101681000D01*
X89961409Y-101681000D01*
X89864715Y-101661766D01*
X89768019Y-101642532D01*
X89585849Y-101567074D01*
X89421900Y-101457527D01*
X89282473Y-101318100D01*
X89172926Y-101154151D01*
X89097468Y-100971981D01*
X89059000Y-100778591D01*
X89059000Y-100581409D01*
X89097468Y-100388020D01*
X89172925Y-100205851D01*
X89239879Y-100105647D01*
X89282473Y-100041900D01*
X89421900Y-99902473D01*
X89585849Y-99792926D01*
X89768019Y-99717468D01*
X89877303Y-99695730D01*
X89961409Y-99679000D01*
X90158591Y-99679000D01*
X90242697Y-99695730D01*
X90242697Y-99695730D01*
G37*
G36*
X101242697Y-99695730D02*
G01*
X101351981Y-99717468D01*
X101534151Y-99792926D01*
X101698100Y-99902473D01*
X101837527Y-100041900D01*
X101880121Y-100105647D01*
X101947075Y-100205851D01*
X102022532Y-100388020D01*
X102061000Y-100581409D01*
X102061000Y-100778591D01*
X102022532Y-100971981D01*
X101947074Y-101154151D01*
X101837527Y-101318100D01*
X101698100Y-101457527D01*
X101534151Y-101567074D01*
X101351981Y-101642532D01*
X101158591Y-101681000D01*
X100961409Y-101681000D01*
X100864715Y-101661766D01*
X100768019Y-101642532D01*
X100642440Y-101590515D01*
X100618991Y-101583402D01*
X100594605Y-101581000D01*
X100551258Y-101581000D01*
X100526488Y-101576073D01*
X100377188Y-101546376D01*
X100213216Y-101478456D01*
X100065646Y-101379853D01*
X99940147Y-101254354D01*
X99841544Y-101106784D01*
X99773624Y-100942812D01*
X99739000Y-100768741D01*
X99739000Y-100591259D01*
X99773624Y-100417188D01*
X99841544Y-100253216D01*
X99940147Y-100105646D01*
X100065646Y-99980147D01*
X100213216Y-99881544D01*
X100377188Y-99813624D01*
X100526488Y-99783927D01*
X100551258Y-99779000D01*
X100594605Y-99779000D01*
X100618991Y-99776598D01*
X100642440Y-99769485D01*
X100647690Y-99767311D01*
X100768019Y-99717468D01*
X100877303Y-99695730D01*
X100961409Y-99679000D01*
X101158591Y-99679000D01*
X101242697Y-99695730D01*
X101242697Y-99695730D01*
G37*
G36*
X104649500Y-100784500D02*
G01*
X103150500Y-100784500D01*
X103150500Y-99285500D01*
X104649500Y-99285500D01*
X104649500Y-100784500D01*
X104649500Y-100784500D01*
G37*
G36*
X147690721Y-99220174D02*
G01*
X147790995Y-99261709D01*
X147790996Y-99261710D01*
X147881242Y-99322010D01*
X147957990Y-99398758D01*
X147957991Y-99398760D01*
X148018291Y-99489005D01*
X148059826Y-99589279D01*
X148081000Y-99695730D01*
X148081000Y-99804270D01*
X148059826Y-99910721D01*
X148018291Y-100010995D01*
X148018290Y-100010996D01*
X147957990Y-100101242D01*
X147881242Y-100177990D01*
X147839548Y-100205849D01*
X147790995Y-100238291D01*
X147690721Y-100279826D01*
X147584270Y-100301000D01*
X147475730Y-100301000D01*
X147369279Y-100279826D01*
X147269005Y-100238291D01*
X147220452Y-100205849D01*
X147178758Y-100177990D01*
X147102010Y-100101242D01*
X147041710Y-100010996D01*
X147041709Y-100010995D01*
X147000174Y-99910721D01*
X146979000Y-99804270D01*
X146979000Y-99695730D01*
X147000174Y-99589279D01*
X147041709Y-99489005D01*
X147102009Y-99398760D01*
X147102010Y-99398758D01*
X147178758Y-99322010D01*
X147269004Y-99261710D01*
X147269005Y-99261709D01*
X147369279Y-99220174D01*
X147475730Y-99199000D01*
X147584270Y-99199000D01*
X147690721Y-99220174D01*
X147690721Y-99220174D01*
G37*
G36*
X158130721Y-99220174D02*
G01*
X158230995Y-99261709D01*
X158230996Y-99261710D01*
X158321242Y-99322010D01*
X158397990Y-99398758D01*
X158397991Y-99398760D01*
X158458291Y-99489005D01*
X158499826Y-99589279D01*
X158521000Y-99695730D01*
X158521000Y-99804270D01*
X158499826Y-99910721D01*
X158458291Y-100010995D01*
X158458290Y-100010996D01*
X158397990Y-100101242D01*
X158321242Y-100177990D01*
X158279548Y-100205849D01*
X158230995Y-100238291D01*
X158130721Y-100279826D01*
X158024270Y-100301000D01*
X157915730Y-100301000D01*
X157809279Y-100279826D01*
X157709005Y-100238291D01*
X157660452Y-100205849D01*
X157618758Y-100177990D01*
X157542010Y-100101242D01*
X157481710Y-100010996D01*
X157481709Y-100010995D01*
X157440174Y-99910721D01*
X157419000Y-99804270D01*
X157419000Y-99695730D01*
X157440174Y-99589279D01*
X157481709Y-99489005D01*
X157542009Y-99398760D01*
X157542010Y-99398758D01*
X157618758Y-99322010D01*
X157709004Y-99261710D01*
X157709005Y-99261709D01*
X157809279Y-99220174D01*
X157915730Y-99199000D01*
X158024270Y-99199000D01*
X158130721Y-99220174D01*
X158130721Y-99220174D01*
G37*
G36*
X172106564Y-96089389D02*
G01*
X172248679Y-96148255D01*
X172297835Y-96168616D01*
X172469973Y-96283635D01*
X172616365Y-96430027D01*
X172697197Y-96551000D01*
X172731385Y-96602167D01*
X172810611Y-96793436D01*
X172851000Y-96996484D01*
X172851000Y-97203516D01*
X172810611Y-97406564D01*
X172731385Y-97597833D01*
X172731384Y-97597835D01*
X172616365Y-97769973D01*
X172469973Y-97916365D01*
X172297835Y-98031384D01*
X172297834Y-98031385D01*
X172297833Y-98031385D01*
X172106564Y-98110611D01*
X171903516Y-98151000D01*
X171696484Y-98151000D01*
X171493436Y-98110611D01*
X171302167Y-98031385D01*
X171302166Y-98031385D01*
X171302165Y-98031384D01*
X171130027Y-97916365D01*
X170983635Y-97769973D01*
X170868616Y-97597835D01*
X170868615Y-97597833D01*
X170789389Y-97406564D01*
X170749000Y-97203516D01*
X170749000Y-96996484D01*
X170789389Y-96793436D01*
X170868615Y-96602167D01*
X170902804Y-96551000D01*
X170983635Y-96430027D01*
X171130027Y-96283635D01*
X171302165Y-96168616D01*
X171351321Y-96148255D01*
X171493436Y-96089389D01*
X171696484Y-96049000D01*
X171903516Y-96049000D01*
X172106564Y-96089389D01*
X172106564Y-96089389D01*
G37*
G36*
X177106564Y-96089389D02*
G01*
X177248679Y-96148255D01*
X177297835Y-96168616D01*
X177469973Y-96283635D01*
X177616365Y-96430027D01*
X177697197Y-96551000D01*
X177731385Y-96602167D01*
X177810611Y-96793436D01*
X177851000Y-96996484D01*
X177851000Y-97203516D01*
X177810611Y-97406564D01*
X177731385Y-97597833D01*
X177731384Y-97597835D01*
X177616365Y-97769973D01*
X177469973Y-97916365D01*
X177297835Y-98031384D01*
X177297834Y-98031385D01*
X177297833Y-98031385D01*
X177106564Y-98110611D01*
X176903516Y-98151000D01*
X176696484Y-98151000D01*
X176493436Y-98110611D01*
X176302167Y-98031385D01*
X176302166Y-98031385D01*
X176302165Y-98031384D01*
X176130027Y-97916365D01*
X175983635Y-97769973D01*
X175868616Y-97597835D01*
X175868615Y-97597833D01*
X175789389Y-97406564D01*
X175749000Y-97203516D01*
X175749000Y-96996484D01*
X175789389Y-96793436D01*
X175868615Y-96602167D01*
X175902804Y-96551000D01*
X175983635Y-96430027D01*
X176130027Y-96283635D01*
X176302165Y-96168616D01*
X176351321Y-96148255D01*
X176493436Y-96089389D01*
X176696484Y-96049000D01*
X176903516Y-96049000D01*
X177106564Y-96089389D01*
X177106564Y-96089389D01*
G37*
G36*
X153348254Y-93577818D02*
G01*
X153721511Y-93732426D01*
X153721513Y-93732427D01*
X154057436Y-93956884D01*
X154343116Y-94242564D01*
X154567574Y-94578489D01*
X154722182Y-94951746D01*
X154801000Y-95347993D01*
X154801000Y-95752007D01*
X154722182Y-96148254D01*
X154592839Y-96460515D01*
X154567573Y-96521513D01*
X154343116Y-96857436D01*
X154057436Y-97143116D01*
X153721513Y-97367573D01*
X153721512Y-97367574D01*
X153721511Y-97367574D01*
X153348254Y-97522182D01*
X152952007Y-97601000D01*
X152547993Y-97601000D01*
X152151746Y-97522182D01*
X151778489Y-97367574D01*
X151778488Y-97367574D01*
X151778487Y-97367573D01*
X151442564Y-97143116D01*
X151156884Y-96857436D01*
X150932427Y-96521513D01*
X150907161Y-96460515D01*
X150777818Y-96148254D01*
X150699000Y-95752007D01*
X150699000Y-95347993D01*
X150777818Y-94951746D01*
X150932426Y-94578489D01*
X151156884Y-94242564D01*
X151442564Y-93956884D01*
X151778487Y-93732427D01*
X151778489Y-93732426D01*
X152151746Y-93577818D01*
X152547993Y-93499000D01*
X152952007Y-93499000D01*
X153348254Y-93577818D01*
X153348254Y-93577818D01*
G37*
G36*
X147445285Y-94568234D02*
G01*
X147541981Y-94587468D01*
X147662310Y-94637311D01*
X147667560Y-94639485D01*
X147691009Y-94646598D01*
X147715395Y-94649000D01*
X147758742Y-94649000D01*
X147783512Y-94653927D01*
X147932812Y-94683624D01*
X148096784Y-94751544D01*
X148244354Y-94850147D01*
X148369853Y-94975646D01*
X148468456Y-95123216D01*
X148536376Y-95287188D01*
X148551002Y-95360721D01*
X148570948Y-95460995D01*
X148571000Y-95461259D01*
X148571000Y-95638741D01*
X148536376Y-95812812D01*
X148468456Y-95976784D01*
X148369853Y-96124354D01*
X148244354Y-96249853D01*
X148096784Y-96348456D01*
X147932812Y-96416376D01*
X147783512Y-96446073D01*
X147758742Y-96451000D01*
X147715395Y-96451000D01*
X147691009Y-96453402D01*
X147667560Y-96460515D01*
X147541981Y-96512532D01*
X147348591Y-96551000D01*
X147151409Y-96551000D01*
X146958019Y-96512532D01*
X146775849Y-96437074D01*
X146611900Y-96327527D01*
X146472473Y-96188100D01*
X146362926Y-96024151D01*
X146287468Y-95841981D01*
X146249000Y-95648590D01*
X146249000Y-95451410D01*
X146287468Y-95258019D01*
X146362926Y-95075849D01*
X146472473Y-94911900D01*
X146611900Y-94772473D01*
X146775849Y-94662926D01*
X146958019Y-94587468D01*
X147054715Y-94568234D01*
X147151409Y-94549000D01*
X147348591Y-94549000D01*
X147445285Y-94568234D01*
X147445285Y-94568234D01*
G37*
G36*
X158445285Y-94568234D02*
G01*
X158541981Y-94587468D01*
X158724151Y-94662926D01*
X158888100Y-94772473D01*
X159027527Y-94911900D01*
X159137074Y-95075849D01*
X159212532Y-95258019D01*
X159251000Y-95451410D01*
X159251000Y-95648590D01*
X159212532Y-95841981D01*
X159137074Y-96024151D01*
X159027527Y-96188100D01*
X158888100Y-96327527D01*
X158724151Y-96437074D01*
X158541981Y-96512532D01*
X158348591Y-96551000D01*
X158151409Y-96551000D01*
X157958019Y-96512532D01*
X157832440Y-96460515D01*
X157808991Y-96453402D01*
X157784605Y-96451000D01*
X157741258Y-96451000D01*
X157716488Y-96446073D01*
X157567188Y-96416376D01*
X157403216Y-96348456D01*
X157255646Y-96249853D01*
X157130147Y-96124354D01*
X157031544Y-95976784D01*
X156963624Y-95812812D01*
X156929000Y-95638741D01*
X156929000Y-95461259D01*
X156929053Y-95460995D01*
X156948998Y-95360721D01*
X156963624Y-95287188D01*
X157031544Y-95123216D01*
X157130147Y-94975646D01*
X157255646Y-94850147D01*
X157403216Y-94751544D01*
X157567188Y-94683624D01*
X157716488Y-94653927D01*
X157741258Y-94649000D01*
X157784605Y-94649000D01*
X157808991Y-94646598D01*
X157832440Y-94639485D01*
X157837690Y-94637311D01*
X157958019Y-94587468D01*
X158054715Y-94568234D01*
X158151409Y-94549000D01*
X158348591Y-94549000D01*
X158445285Y-94568234D01*
X158445285Y-94568234D01*
G37*
G36*
X109690721Y-94670174D02*
G01*
X109790995Y-94711709D01*
X109790996Y-94711710D01*
X109881242Y-94772010D01*
X109957990Y-94848758D01*
X109988345Y-94894188D01*
X110018291Y-94939005D01*
X110059826Y-95039279D01*
X110081000Y-95145730D01*
X110081000Y-95254270D01*
X110059826Y-95360721D01*
X110018291Y-95460995D01*
X109988345Y-95505812D01*
X109957990Y-95551242D01*
X109881242Y-95627990D01*
X109865152Y-95638741D01*
X109790995Y-95688291D01*
X109690721Y-95729826D01*
X109584270Y-95751000D01*
X109475730Y-95751000D01*
X109369279Y-95729826D01*
X109269005Y-95688291D01*
X109194848Y-95638741D01*
X109178758Y-95627990D01*
X109102010Y-95551242D01*
X109071655Y-95505812D01*
X109041709Y-95460995D01*
X109000174Y-95360721D01*
X108979000Y-95254270D01*
X108979000Y-95145730D01*
X109000174Y-95039279D01*
X109041709Y-94939005D01*
X109071655Y-94894188D01*
X109102010Y-94848758D01*
X109178758Y-94772010D01*
X109269004Y-94711710D01*
X109269005Y-94711709D01*
X109369279Y-94670174D01*
X109475730Y-94649000D01*
X109584270Y-94649000D01*
X109690721Y-94670174D01*
X109690721Y-94670174D01*
G37*
G36*
X120130721Y-94670174D02*
G01*
X120230995Y-94711709D01*
X120230996Y-94711710D01*
X120321242Y-94772010D01*
X120397990Y-94848758D01*
X120428345Y-94894188D01*
X120458291Y-94939005D01*
X120499826Y-95039279D01*
X120521000Y-95145730D01*
X120521000Y-95254270D01*
X120499826Y-95360721D01*
X120458291Y-95460995D01*
X120428345Y-95505812D01*
X120397990Y-95551242D01*
X120321242Y-95627990D01*
X120305152Y-95638741D01*
X120230995Y-95688291D01*
X120130721Y-95729826D01*
X120024270Y-95751000D01*
X119915730Y-95751000D01*
X119809279Y-95729826D01*
X119709005Y-95688291D01*
X119634848Y-95638741D01*
X119618758Y-95627990D01*
X119542010Y-95551242D01*
X119511655Y-95505812D01*
X119481709Y-95460995D01*
X119440174Y-95360721D01*
X119419000Y-95254270D01*
X119419000Y-95145730D01*
X119440174Y-95039279D01*
X119481709Y-94939005D01*
X119511655Y-94894188D01*
X119542010Y-94848758D01*
X119618758Y-94772010D01*
X119709004Y-94711710D01*
X119709005Y-94711709D01*
X119809279Y-94670174D01*
X119915730Y-94649000D01*
X120024270Y-94649000D01*
X120130721Y-94670174D01*
X120130721Y-94670174D01*
G37*
G36*
X164199500Y-95709500D02*
G01*
X162700500Y-95709500D01*
X162700500Y-94210500D01*
X164199500Y-94210500D01*
X164199500Y-95709500D01*
X164199500Y-95709500D01*
G37*
G36*
X161499500Y-95709500D02*
G01*
X160000500Y-95709500D01*
X160000500Y-94210500D01*
X161499500Y-94210500D01*
X161499500Y-95709500D01*
X161499500Y-95709500D01*
G37*
G36*
X103994425Y-91669599D02*
G01*
X104118621Y-91694302D01*
X104255022Y-91750801D01*
X104377779Y-91832825D01*
X104482175Y-91937221D01*
X104564199Y-92059978D01*
X104620698Y-92196379D01*
X104649500Y-92341181D01*
X104649500Y-92488819D01*
X104620698Y-92633621D01*
X104564199Y-92770022D01*
X104482175Y-92892779D01*
X104377779Y-92997175D01*
X104255022Y-93079199D01*
X104118621Y-93135698D01*
X103994425Y-93160401D01*
X103973820Y-93164500D01*
X103826180Y-93164500D01*
X103805575Y-93160401D01*
X103681379Y-93135698D01*
X103544978Y-93079199D01*
X103422221Y-92997175D01*
X103317825Y-92892779D01*
X103235801Y-92770022D01*
X103179302Y-92633621D01*
X103150500Y-92488819D01*
X103150500Y-92341181D01*
X103179302Y-92196379D01*
X103235801Y-92059978D01*
X103317825Y-91937221D01*
X103422221Y-91832825D01*
X103544978Y-91750801D01*
X103681379Y-91694302D01*
X103805575Y-91669599D01*
X103826180Y-91665500D01*
X103973820Y-91665500D01*
X103994425Y-91669599D01*
X103994425Y-91669599D01*
G37*
G36*
X115348254Y-89027818D02*
G01*
X115721511Y-89182426D01*
X115721513Y-89182427D01*
X116057436Y-89406884D01*
X116343116Y-89692564D01*
X116480891Y-89898758D01*
X116567574Y-90028489D01*
X116722182Y-90401746D01*
X116801000Y-90797993D01*
X116801000Y-91202007D01*
X116722182Y-91598254D01*
X116592839Y-91910515D01*
X116567573Y-91971513D01*
X116343116Y-92307436D01*
X116057436Y-92593116D01*
X115721513Y-92817573D01*
X115721512Y-92817574D01*
X115721511Y-92817574D01*
X115348254Y-92972182D01*
X114952007Y-93051000D01*
X114547993Y-93051000D01*
X114151746Y-92972182D01*
X113778489Y-92817574D01*
X113778488Y-92817574D01*
X113778487Y-92817573D01*
X113442564Y-92593116D01*
X113156884Y-92307436D01*
X112932427Y-91971513D01*
X112907161Y-91910515D01*
X112777818Y-91598254D01*
X112699000Y-91202007D01*
X112699000Y-90797993D01*
X112777818Y-90401746D01*
X112932426Y-90028489D01*
X113019110Y-89898758D01*
X113156884Y-89692564D01*
X113442564Y-89406884D01*
X113778487Y-89182427D01*
X113778489Y-89182426D01*
X114151746Y-89027818D01*
X114547993Y-88949000D01*
X114952007Y-88949000D01*
X115348254Y-89027818D01*
X115348254Y-89027818D01*
G37*
G36*
X109445285Y-90018234D02*
G01*
X109541981Y-90037468D01*
X109662310Y-90087311D01*
X109667560Y-90089485D01*
X109691009Y-90096598D01*
X109715395Y-90099000D01*
X109758742Y-90099000D01*
X109783512Y-90103927D01*
X109932812Y-90133624D01*
X110096784Y-90201544D01*
X110244354Y-90300147D01*
X110369853Y-90425646D01*
X110468456Y-90573216D01*
X110536376Y-90737188D01*
X110571000Y-90911259D01*
X110571000Y-91088741D01*
X110536376Y-91262812D01*
X110468456Y-91426784D01*
X110369853Y-91574354D01*
X110244354Y-91699853D01*
X110096784Y-91798456D01*
X109932812Y-91866376D01*
X109783512Y-91896073D01*
X109758742Y-91901000D01*
X109715395Y-91901000D01*
X109691009Y-91903402D01*
X109667560Y-91910515D01*
X109541981Y-91962532D01*
X109445285Y-91981766D01*
X109348591Y-92001000D01*
X109151409Y-92001000D01*
X108958019Y-91962532D01*
X108775849Y-91887074D01*
X108611900Y-91777527D01*
X108472473Y-91638100D01*
X108362926Y-91474151D01*
X108287468Y-91291981D01*
X108249000Y-91098590D01*
X108249000Y-90901410D01*
X108287468Y-90708019D01*
X108362926Y-90525849D01*
X108472473Y-90361900D01*
X108611900Y-90222473D01*
X108775849Y-90112926D01*
X108958019Y-90037468D01*
X109054715Y-90018234D01*
X109151409Y-89999000D01*
X109348591Y-89999000D01*
X109445285Y-90018234D01*
X109445285Y-90018234D01*
G37*
G36*
X120445285Y-90018234D02*
G01*
X120541981Y-90037468D01*
X120724151Y-90112926D01*
X120888100Y-90222473D01*
X121027527Y-90361900D01*
X121137074Y-90525849D01*
X121212532Y-90708019D01*
X121251000Y-90901410D01*
X121251000Y-91098590D01*
X121212532Y-91291981D01*
X121137074Y-91474151D01*
X121027527Y-91638100D01*
X120888100Y-91777527D01*
X120724151Y-91887074D01*
X120541981Y-91962532D01*
X120445285Y-91981766D01*
X120348591Y-92001000D01*
X120151409Y-92001000D01*
X119958019Y-91962532D01*
X119832440Y-91910515D01*
X119808991Y-91903402D01*
X119784605Y-91901000D01*
X119741258Y-91901000D01*
X119716488Y-91896073D01*
X119567188Y-91866376D01*
X119403216Y-91798456D01*
X119255646Y-91699853D01*
X119130147Y-91574354D01*
X119031544Y-91426784D01*
X118963624Y-91262812D01*
X118929000Y-91088741D01*
X118929000Y-90911259D01*
X118963624Y-90737188D01*
X119031544Y-90573216D01*
X119130147Y-90425646D01*
X119255646Y-90300147D01*
X119403216Y-90201544D01*
X119567188Y-90133624D01*
X119716488Y-90103927D01*
X119741258Y-90099000D01*
X119784605Y-90099000D01*
X119808991Y-90096598D01*
X119832440Y-90089485D01*
X119837690Y-90087311D01*
X119958019Y-90037468D01*
X120054715Y-90018234D01*
X120151409Y-89999000D01*
X120348591Y-89999000D01*
X120445285Y-90018234D01*
X120445285Y-90018234D01*
G37*
G36*
X180951000Y-91751000D02*
G01*
X178849000Y-91751000D01*
X178849000Y-88449000D01*
X180951000Y-88449000D01*
X180951000Y-91751000D01*
X180951000Y-91751000D01*
G37*
G36*
X169751000Y-91751000D02*
G01*
X167649000Y-91751000D01*
X167649000Y-88449000D01*
X169751000Y-88449000D01*
X169751000Y-91751000D01*
X169751000Y-91751000D01*
G37*
G36*
X139130721Y-89720174D02*
G01*
X139230995Y-89761709D01*
X139230996Y-89761710D01*
X139321242Y-89822010D01*
X139397990Y-89898758D01*
X139397991Y-89898760D01*
X139458291Y-89989005D01*
X139499826Y-90089279D01*
X139521000Y-90195730D01*
X139521000Y-90304270D01*
X139499826Y-90410721D01*
X139458291Y-90510995D01*
X139428345Y-90555812D01*
X139397990Y-90601242D01*
X139321242Y-90677990D01*
X139276300Y-90708019D01*
X139230995Y-90738291D01*
X139130721Y-90779826D01*
X139024270Y-90801000D01*
X138915730Y-90801000D01*
X138809279Y-90779826D01*
X138709005Y-90738291D01*
X138663700Y-90708019D01*
X138618758Y-90677990D01*
X138542010Y-90601242D01*
X138511655Y-90555812D01*
X138481709Y-90510995D01*
X138440174Y-90410721D01*
X138419000Y-90304270D01*
X138419000Y-90195730D01*
X138440174Y-90089279D01*
X138481709Y-89989005D01*
X138542009Y-89898760D01*
X138542010Y-89898758D01*
X138618758Y-89822010D01*
X138709004Y-89761710D01*
X138709005Y-89761709D01*
X138809279Y-89720174D01*
X138915730Y-89699000D01*
X139024270Y-89699000D01*
X139130721Y-89720174D01*
X139130721Y-89720174D01*
G37*
G36*
X128690721Y-89720174D02*
G01*
X128790995Y-89761709D01*
X128790996Y-89761710D01*
X128881242Y-89822010D01*
X128957990Y-89898758D01*
X128957991Y-89898760D01*
X129018291Y-89989005D01*
X129059826Y-90089279D01*
X129081000Y-90195730D01*
X129081000Y-90304270D01*
X129059826Y-90410721D01*
X129018291Y-90510995D01*
X128988345Y-90555812D01*
X128957990Y-90601242D01*
X128881242Y-90677990D01*
X128836300Y-90708019D01*
X128790995Y-90738291D01*
X128690721Y-90779826D01*
X128584270Y-90801000D01*
X128475730Y-90801000D01*
X128369279Y-90779826D01*
X128269005Y-90738291D01*
X128223700Y-90708019D01*
X128178758Y-90677990D01*
X128102010Y-90601242D01*
X128071655Y-90555812D01*
X128041709Y-90510995D01*
X128000174Y-90410721D01*
X127979000Y-90304270D01*
X127979000Y-90195730D01*
X128000174Y-90089279D01*
X128041709Y-89989005D01*
X128102009Y-89898760D01*
X128102010Y-89898758D01*
X128178758Y-89822010D01*
X128269004Y-89761710D01*
X128269005Y-89761709D01*
X128369279Y-89720174D01*
X128475730Y-89699000D01*
X128584270Y-89699000D01*
X128690721Y-89720174D01*
X128690721Y-89720174D01*
G37*
G36*
X143149500Y-88634500D02*
G01*
X141650500Y-88634500D01*
X141650500Y-87135500D01*
X143149500Y-87135500D01*
X143149500Y-88634500D01*
X143149500Y-88634500D01*
G37*
G36*
X123939500Y-88633500D02*
G01*
X122440500Y-88633500D01*
X122440500Y-87134500D01*
X123939500Y-87134500D01*
X123939500Y-88633500D01*
X123939500Y-88633500D01*
G37*
G36*
X134348254Y-84077818D02*
G01*
X134721511Y-84232426D01*
X134721513Y-84232427D01*
X135057436Y-84456884D01*
X135343116Y-84742564D01*
X135567574Y-85078489D01*
X135722182Y-85451746D01*
X135801000Y-85847993D01*
X135801000Y-86252007D01*
X135722182Y-86648254D01*
X135592839Y-86960515D01*
X135567573Y-87021513D01*
X135343116Y-87357436D01*
X135057436Y-87643116D01*
X134721513Y-87867573D01*
X134721512Y-87867574D01*
X134721511Y-87867574D01*
X134348254Y-88022182D01*
X133952007Y-88101000D01*
X133547993Y-88101000D01*
X133151746Y-88022182D01*
X132778489Y-87867574D01*
X132778488Y-87867574D01*
X132778487Y-87867573D01*
X132442564Y-87643116D01*
X132156884Y-87357436D01*
X131932427Y-87021513D01*
X131907161Y-86960515D01*
X131777818Y-86648254D01*
X131699000Y-86252007D01*
X131699000Y-85847993D01*
X131777818Y-85451746D01*
X131932426Y-85078489D01*
X132156884Y-84742564D01*
X132442564Y-84456884D01*
X132778487Y-84232427D01*
X132778489Y-84232426D01*
X133151746Y-84077818D01*
X133547993Y-83999000D01*
X133952007Y-83999000D01*
X134348254Y-84077818D01*
X134348254Y-84077818D01*
G37*
G36*
X163544425Y-86594599D02*
G01*
X163668621Y-86619302D01*
X163805022Y-86675801D01*
X163927779Y-86757825D01*
X164032175Y-86862221D01*
X164114199Y-86984978D01*
X164170698Y-87121379D01*
X164199500Y-87266181D01*
X164199500Y-87413819D01*
X164170698Y-87558621D01*
X164114199Y-87695022D01*
X164032175Y-87817779D01*
X163927779Y-87922175D01*
X163805022Y-88004199D01*
X163668621Y-88060698D01*
X163544425Y-88085401D01*
X163523820Y-88089500D01*
X163376180Y-88089500D01*
X163355575Y-88085401D01*
X163231379Y-88060698D01*
X163094978Y-88004199D01*
X162972221Y-87922175D01*
X162867825Y-87817779D01*
X162785801Y-87695022D01*
X162729302Y-87558621D01*
X162700500Y-87413819D01*
X162700500Y-87266181D01*
X162729302Y-87121379D01*
X162785801Y-86984978D01*
X162867825Y-86862221D01*
X162972221Y-86757825D01*
X163094978Y-86675801D01*
X163231379Y-86619302D01*
X163355575Y-86594599D01*
X163376180Y-86590500D01*
X163523820Y-86590500D01*
X163544425Y-86594599D01*
X163544425Y-86594599D01*
G37*
G36*
X160844425Y-86594599D02*
G01*
X160968621Y-86619302D01*
X161105022Y-86675801D01*
X161227779Y-86757825D01*
X161332175Y-86862221D01*
X161414199Y-86984978D01*
X161470698Y-87121379D01*
X161499500Y-87266181D01*
X161499500Y-87413819D01*
X161470698Y-87558621D01*
X161414199Y-87695022D01*
X161332175Y-87817779D01*
X161227779Y-87922175D01*
X161105022Y-88004199D01*
X160968621Y-88060698D01*
X160844425Y-88085401D01*
X160823820Y-88089500D01*
X160676180Y-88089500D01*
X160655575Y-88085401D01*
X160531379Y-88060698D01*
X160394978Y-88004199D01*
X160272221Y-87922175D01*
X160167825Y-87817779D01*
X160085801Y-87695022D01*
X160029302Y-87558621D01*
X160000500Y-87413819D01*
X160000500Y-87266181D01*
X160029302Y-87121379D01*
X160085801Y-86984978D01*
X160167825Y-86862221D01*
X160272221Y-86757825D01*
X160394978Y-86675801D01*
X160531379Y-86619302D01*
X160655575Y-86594599D01*
X160676180Y-86590500D01*
X160823820Y-86590500D01*
X160844425Y-86594599D01*
X160844425Y-86594599D01*
G37*
G36*
X104799500Y-88059500D02*
G01*
X103300500Y-88059500D01*
X103300500Y-86560500D01*
X104799500Y-86560500D01*
X104799500Y-88059500D01*
X104799500Y-88059500D01*
G37*
G36*
X139445285Y-85068234D02*
G01*
X139541981Y-85087468D01*
X139724151Y-85162926D01*
X139888100Y-85272473D01*
X140027527Y-85411900D01*
X140137074Y-85575849D01*
X140207442Y-85745730D01*
X140212532Y-85758020D01*
X140251000Y-85951409D01*
X140251000Y-86148591D01*
X140235206Y-86227990D01*
X140212532Y-86341981D01*
X140137074Y-86524151D01*
X140027527Y-86688100D01*
X139888100Y-86827527D01*
X139724151Y-86937074D01*
X139541981Y-87012532D01*
X139445285Y-87031766D01*
X139348591Y-87051000D01*
X139151409Y-87051000D01*
X139054715Y-87031766D01*
X138958019Y-87012532D01*
X138832440Y-86960515D01*
X138808991Y-86953402D01*
X138784605Y-86951000D01*
X138741258Y-86951000D01*
X138716488Y-86946073D01*
X138567188Y-86916376D01*
X138403216Y-86848456D01*
X138255646Y-86749853D01*
X138130147Y-86624354D01*
X138031544Y-86476784D01*
X137963624Y-86312812D01*
X137933927Y-86163512D01*
X137929000Y-86138742D01*
X137929000Y-85961258D01*
X137933927Y-85936488D01*
X137963624Y-85787188D01*
X138031544Y-85623216D01*
X138130147Y-85475646D01*
X138255646Y-85350147D01*
X138403216Y-85251544D01*
X138567188Y-85183624D01*
X138716488Y-85153927D01*
X138741258Y-85149000D01*
X138784605Y-85149000D01*
X138808991Y-85146598D01*
X138832440Y-85139485D01*
X138837690Y-85137311D01*
X138958019Y-85087468D01*
X139054715Y-85068234D01*
X139151409Y-85049000D01*
X139348591Y-85049000D01*
X139445285Y-85068234D01*
X139445285Y-85068234D01*
G37*
G36*
X128445285Y-85068234D02*
G01*
X128541981Y-85087468D01*
X128662310Y-85137311D01*
X128667560Y-85139485D01*
X128691009Y-85146598D01*
X128715395Y-85149000D01*
X128758742Y-85149000D01*
X128783512Y-85153927D01*
X128932812Y-85183624D01*
X129096784Y-85251544D01*
X129244354Y-85350147D01*
X129369853Y-85475646D01*
X129468456Y-85623216D01*
X129536376Y-85787188D01*
X129566073Y-85936488D01*
X129571000Y-85961258D01*
X129571000Y-86138742D01*
X129566073Y-86163512D01*
X129536376Y-86312812D01*
X129468456Y-86476784D01*
X129369853Y-86624354D01*
X129244354Y-86749853D01*
X129096784Y-86848456D01*
X128932812Y-86916376D01*
X128783512Y-86946073D01*
X128758742Y-86951000D01*
X128715395Y-86951000D01*
X128691009Y-86953402D01*
X128667560Y-86960515D01*
X128541981Y-87012532D01*
X128445285Y-87031766D01*
X128348591Y-87051000D01*
X128151409Y-87051000D01*
X128054715Y-87031766D01*
X127958019Y-87012532D01*
X127775849Y-86937074D01*
X127611900Y-86827527D01*
X127472473Y-86688100D01*
X127362926Y-86524151D01*
X127287468Y-86341981D01*
X127264794Y-86227990D01*
X127249000Y-86148591D01*
X127249000Y-85951409D01*
X127287468Y-85758020D01*
X127292559Y-85745730D01*
X127362926Y-85575849D01*
X127472473Y-85411900D01*
X127611900Y-85272473D01*
X127775849Y-85162926D01*
X127958019Y-85087468D01*
X128054715Y-85068234D01*
X128151409Y-85049000D01*
X128348591Y-85049000D01*
X128445285Y-85068234D01*
X128445285Y-85068234D01*
G37*
G36*
X90540721Y-85270174D02*
G01*
X90640995Y-85311709D01*
X90640996Y-85311710D01*
X90731242Y-85372010D01*
X90807990Y-85448758D01*
X90838345Y-85494188D01*
X90868291Y-85539005D01*
X90909826Y-85639279D01*
X90931000Y-85745730D01*
X90931000Y-85854270D01*
X90909826Y-85960721D01*
X90868291Y-86060995D01*
X90868290Y-86060996D01*
X90807990Y-86151242D01*
X90731242Y-86227990D01*
X90695299Y-86252006D01*
X90640995Y-86288291D01*
X90540721Y-86329826D01*
X90434270Y-86351000D01*
X90325730Y-86351000D01*
X90219279Y-86329826D01*
X90119005Y-86288291D01*
X90064701Y-86252006D01*
X90028758Y-86227990D01*
X89952010Y-86151242D01*
X89891710Y-86060996D01*
X89891709Y-86060995D01*
X89850174Y-85960721D01*
X89829000Y-85854270D01*
X89829000Y-85745730D01*
X89850174Y-85639279D01*
X89891709Y-85539005D01*
X89921655Y-85494188D01*
X89952010Y-85448758D01*
X90028758Y-85372010D01*
X90119004Y-85311710D01*
X90119005Y-85311709D01*
X90219279Y-85270174D01*
X90325730Y-85249000D01*
X90434270Y-85249000D01*
X90540721Y-85270174D01*
X90540721Y-85270174D01*
G37*
G36*
X100980721Y-85270174D02*
G01*
X101080995Y-85311709D01*
X101080996Y-85311710D01*
X101171242Y-85372010D01*
X101247990Y-85448758D01*
X101278345Y-85494188D01*
X101308291Y-85539005D01*
X101349826Y-85639279D01*
X101371000Y-85745730D01*
X101371000Y-85854270D01*
X101349826Y-85960721D01*
X101308291Y-86060995D01*
X101308290Y-86060996D01*
X101247990Y-86151242D01*
X101171242Y-86227990D01*
X101135299Y-86252006D01*
X101080995Y-86288291D01*
X100980721Y-86329826D01*
X100874270Y-86351000D01*
X100765730Y-86351000D01*
X100659279Y-86329826D01*
X100559005Y-86288291D01*
X100504701Y-86252006D01*
X100468758Y-86227990D01*
X100392010Y-86151242D01*
X100331710Y-86060996D01*
X100331709Y-86060995D01*
X100290174Y-85960721D01*
X100269000Y-85854270D01*
X100269000Y-85745730D01*
X100290174Y-85639279D01*
X100331709Y-85539005D01*
X100361655Y-85494188D01*
X100392010Y-85448758D01*
X100468758Y-85372010D01*
X100559004Y-85311710D01*
X100559005Y-85311709D01*
X100659279Y-85270174D01*
X100765730Y-85249000D01*
X100874270Y-85249000D01*
X100980721Y-85270174D01*
X100980721Y-85270174D01*
G37*
G36*
X164249500Y-85409500D02*
G01*
X162750500Y-85409500D01*
X162750500Y-83910500D01*
X164249500Y-83910500D01*
X164249500Y-85409500D01*
X164249500Y-85409500D01*
G37*
G36*
X161699500Y-85409500D02*
G01*
X160200500Y-85409500D01*
X160200500Y-83910500D01*
X161699500Y-83910500D01*
X161699500Y-85409500D01*
X161699500Y-85409500D01*
G37*
G36*
X172106564Y-81589389D02*
G01*
X172297833Y-81668615D01*
X172297835Y-81668616D01*
X172469973Y-81783635D01*
X172616365Y-81930027D01*
X172712666Y-82074151D01*
X172731385Y-82102167D01*
X172810611Y-82293436D01*
X172851000Y-82496484D01*
X172851000Y-82703516D01*
X172810611Y-82906564D01*
X172731385Y-83097833D01*
X172731384Y-83097835D01*
X172616365Y-83269973D01*
X172469973Y-83416365D01*
X172297835Y-83531384D01*
X172297834Y-83531385D01*
X172297833Y-83531385D01*
X172106564Y-83610611D01*
X171903516Y-83651000D01*
X171696484Y-83651000D01*
X171493436Y-83610611D01*
X171302167Y-83531385D01*
X171302166Y-83531385D01*
X171302165Y-83531384D01*
X171130027Y-83416365D01*
X170983635Y-83269973D01*
X170868616Y-83097835D01*
X170868615Y-83097833D01*
X170789389Y-82906564D01*
X170749000Y-82703516D01*
X170749000Y-82496484D01*
X170789389Y-82293436D01*
X170868615Y-82102167D01*
X170887335Y-82074151D01*
X170983635Y-81930027D01*
X171130027Y-81783635D01*
X171302165Y-81668616D01*
X171302167Y-81668615D01*
X171493436Y-81589389D01*
X171696484Y-81549000D01*
X171903516Y-81549000D01*
X172106564Y-81589389D01*
X172106564Y-81589389D01*
G37*
G36*
X96198254Y-79627818D02*
G01*
X96526592Y-79763820D01*
X96571513Y-79782427D01*
X96907436Y-80006884D01*
X97193116Y-80292564D01*
X97411249Y-80619022D01*
X97417574Y-80628489D01*
X97572182Y-81001746D01*
X97651000Y-81397993D01*
X97651000Y-81802007D01*
X97572182Y-82198254D01*
X97442839Y-82510515D01*
X97417573Y-82571513D01*
X97193116Y-82907436D01*
X96907436Y-83193116D01*
X96571513Y-83417573D01*
X96571512Y-83417574D01*
X96571511Y-83417574D01*
X96198254Y-83572182D01*
X95802007Y-83651000D01*
X95397993Y-83651000D01*
X95001746Y-83572182D01*
X94628489Y-83417574D01*
X94628488Y-83417574D01*
X94628487Y-83417573D01*
X94292564Y-83193116D01*
X94006884Y-82907436D01*
X93782427Y-82571513D01*
X93757161Y-82510515D01*
X93627818Y-82198254D01*
X93549000Y-81802007D01*
X93549000Y-81397993D01*
X93627818Y-81001746D01*
X93782426Y-80628489D01*
X93788752Y-80619022D01*
X94006884Y-80292564D01*
X94292564Y-80006884D01*
X94628487Y-79782427D01*
X94673408Y-79763820D01*
X95001746Y-79627818D01*
X95397993Y-79549000D01*
X95802007Y-79549000D01*
X96198254Y-79627818D01*
X96198254Y-79627818D01*
G37*
G36*
X174606564Y-81589389D02*
G01*
X174797833Y-81668615D01*
X174797835Y-81668616D01*
X174969973Y-81783635D01*
X175116365Y-81930027D01*
X175212666Y-82074151D01*
X175231385Y-82102167D01*
X175310611Y-82293436D01*
X175351000Y-82496484D01*
X175351000Y-82703516D01*
X175310611Y-82906564D01*
X175231385Y-83097833D01*
X175231384Y-83097835D01*
X175116365Y-83269973D01*
X174969973Y-83416365D01*
X174797835Y-83531384D01*
X174797834Y-83531385D01*
X174797833Y-83531385D01*
X174606564Y-83610611D01*
X174403516Y-83651000D01*
X174196484Y-83651000D01*
X173993436Y-83610611D01*
X173802167Y-83531385D01*
X173802166Y-83531385D01*
X173802165Y-83531384D01*
X173630027Y-83416365D01*
X173483635Y-83269973D01*
X173368616Y-83097835D01*
X173368615Y-83097833D01*
X173289389Y-82906564D01*
X173249000Y-82703516D01*
X173249000Y-82496484D01*
X173289389Y-82293436D01*
X173368615Y-82102167D01*
X173387335Y-82074151D01*
X173483635Y-81930027D01*
X173630027Y-81783635D01*
X173802165Y-81668616D01*
X173802167Y-81668615D01*
X173993436Y-81589389D01*
X174196484Y-81549000D01*
X174403516Y-81549000D01*
X174606564Y-81589389D01*
X174606564Y-81589389D01*
G37*
G36*
X177851000Y-83651000D02*
G01*
X175749000Y-83651000D01*
X175749000Y-81549000D01*
X177851000Y-81549000D01*
X177851000Y-83651000D01*
X177851000Y-83651000D01*
G37*
G36*
X90295285Y-80618234D02*
G01*
X90391981Y-80637468D01*
X90512310Y-80687311D01*
X90517560Y-80689485D01*
X90541009Y-80696598D01*
X90565395Y-80699000D01*
X90608742Y-80699000D01*
X90633512Y-80703927D01*
X90782812Y-80733624D01*
X90946784Y-80801544D01*
X91094354Y-80900147D01*
X91219853Y-81025646D01*
X91318456Y-81173216D01*
X91386376Y-81337188D01*
X91421000Y-81511259D01*
X91421000Y-81688741D01*
X91386376Y-81862812D01*
X91318456Y-82026784D01*
X91219853Y-82174354D01*
X91094354Y-82299853D01*
X90946784Y-82398456D01*
X90782812Y-82466376D01*
X90633512Y-82496073D01*
X90608742Y-82501000D01*
X90565395Y-82501000D01*
X90541009Y-82503402D01*
X90517560Y-82510515D01*
X90391981Y-82562532D01*
X90198591Y-82601000D01*
X90001409Y-82601000D01*
X89808019Y-82562532D01*
X89648571Y-82496486D01*
X89625851Y-82487075D01*
X89625850Y-82487075D01*
X89625849Y-82487074D01*
X89461900Y-82377527D01*
X89322473Y-82238100D01*
X89212926Y-82074151D01*
X89137468Y-81891981D01*
X89099000Y-81698590D01*
X89099000Y-81501410D01*
X89137468Y-81308019D01*
X89212926Y-81125849D01*
X89322473Y-80961900D01*
X89461900Y-80822473D01*
X89625849Y-80712926D01*
X89808019Y-80637468D01*
X89904715Y-80618234D01*
X90001409Y-80599000D01*
X90198591Y-80599000D01*
X90295285Y-80618234D01*
X90295285Y-80618234D01*
G37*
G36*
X101295285Y-80618234D02*
G01*
X101391981Y-80637468D01*
X101574151Y-80712926D01*
X101738100Y-80822473D01*
X101877527Y-80961900D01*
X101987074Y-81125849D01*
X102062532Y-81308019D01*
X102101000Y-81501410D01*
X102101000Y-81698590D01*
X102062532Y-81891981D01*
X101987074Y-82074151D01*
X101877527Y-82238100D01*
X101738100Y-82377527D01*
X101574151Y-82487074D01*
X101574150Y-82487075D01*
X101574149Y-82487075D01*
X101551429Y-82496486D01*
X101391981Y-82562532D01*
X101198591Y-82601000D01*
X101001409Y-82601000D01*
X100808019Y-82562532D01*
X100682440Y-82510515D01*
X100658991Y-82503402D01*
X100634605Y-82501000D01*
X100591258Y-82501000D01*
X100566488Y-82496073D01*
X100417188Y-82466376D01*
X100253216Y-82398456D01*
X100105646Y-82299853D01*
X99980147Y-82174354D01*
X99881544Y-82026784D01*
X99813624Y-81862812D01*
X99779000Y-81688741D01*
X99779000Y-81511259D01*
X99813624Y-81337188D01*
X99881544Y-81173216D01*
X99980147Y-81025646D01*
X100105646Y-80900147D01*
X100253216Y-80801544D01*
X100417188Y-80733624D01*
X100566488Y-80703927D01*
X100591258Y-80699000D01*
X100634605Y-80699000D01*
X100658991Y-80696598D01*
X100682440Y-80689485D01*
X100687690Y-80687311D01*
X100808019Y-80637468D01*
X100904715Y-80618234D01*
X101001409Y-80599000D01*
X101198591Y-80599000D01*
X101295285Y-80618234D01*
X101295285Y-80618234D01*
G37*
G36*
X158130721Y-80220174D02*
G01*
X158230995Y-80261709D01*
X158230996Y-80261710D01*
X158321242Y-80322010D01*
X158397990Y-80398758D01*
X158397991Y-80398760D01*
X158458291Y-80489005D01*
X158499826Y-80589279D01*
X158521000Y-80695730D01*
X158521000Y-80804270D01*
X158499826Y-80910721D01*
X158458291Y-81010995D01*
X158458290Y-81010996D01*
X158397990Y-81101242D01*
X158321242Y-81177990D01*
X158275812Y-81208345D01*
X158230995Y-81238291D01*
X158130721Y-81279826D01*
X158024270Y-81301000D01*
X157915730Y-81301000D01*
X157809279Y-81279826D01*
X157709005Y-81238291D01*
X157664188Y-81208345D01*
X157618758Y-81177990D01*
X157542010Y-81101242D01*
X157481710Y-81010996D01*
X157481709Y-81010995D01*
X157440174Y-80910721D01*
X157419000Y-80804270D01*
X157419000Y-80695730D01*
X157440174Y-80589279D01*
X157481709Y-80489005D01*
X157542009Y-80398760D01*
X157542010Y-80398758D01*
X157618758Y-80322010D01*
X157709004Y-80261710D01*
X157709005Y-80261709D01*
X157809279Y-80220174D01*
X157915730Y-80199000D01*
X158024270Y-80199000D01*
X158130721Y-80220174D01*
X158130721Y-80220174D01*
G37*
G36*
X147690721Y-80220174D02*
G01*
X147790995Y-80261709D01*
X147790996Y-80261710D01*
X147881242Y-80322010D01*
X147957990Y-80398758D01*
X147957991Y-80398760D01*
X148018291Y-80489005D01*
X148059826Y-80589279D01*
X148081000Y-80695730D01*
X148081000Y-80804270D01*
X148059826Y-80910721D01*
X148018291Y-81010995D01*
X148018290Y-81010996D01*
X147957990Y-81101242D01*
X147881242Y-81177990D01*
X147835812Y-81208345D01*
X147790995Y-81238291D01*
X147690721Y-81279826D01*
X147584270Y-81301000D01*
X147475730Y-81301000D01*
X147369279Y-81279826D01*
X147269005Y-81238291D01*
X147224188Y-81208345D01*
X147178758Y-81177990D01*
X147102010Y-81101242D01*
X147041710Y-81010996D01*
X147041709Y-81010995D01*
X147000174Y-80910721D01*
X146979000Y-80804270D01*
X146979000Y-80695730D01*
X147000174Y-80589279D01*
X147041709Y-80489005D01*
X147102009Y-80398760D01*
X147102010Y-80398758D01*
X147178758Y-80322010D01*
X147269004Y-80261710D01*
X147269005Y-80261709D01*
X147369279Y-80220174D01*
X147475730Y-80199000D01*
X147584270Y-80199000D01*
X147690721Y-80220174D01*
X147690721Y-80220174D01*
G37*
G36*
X142494425Y-79519599D02*
G01*
X142618621Y-79544302D01*
X142755022Y-79600801D01*
X142877779Y-79682825D01*
X142982175Y-79787221D01*
X143064199Y-79909978D01*
X143120698Y-80046379D01*
X143149500Y-80191181D01*
X143149500Y-80338819D01*
X143120698Y-80483621D01*
X143064199Y-80620022D01*
X142982175Y-80742779D01*
X142877779Y-80847175D01*
X142755022Y-80929199D01*
X142618621Y-80985698D01*
X142494425Y-81010401D01*
X142473820Y-81014500D01*
X142326180Y-81014500D01*
X142305575Y-81010401D01*
X142181379Y-80985698D01*
X142044978Y-80929199D01*
X141922221Y-80847175D01*
X141817825Y-80742779D01*
X141735801Y-80620022D01*
X141679302Y-80483621D01*
X141650500Y-80338819D01*
X141650500Y-80191181D01*
X141679302Y-80046379D01*
X141735801Y-79909978D01*
X141817825Y-79787221D01*
X141922221Y-79682825D01*
X142044978Y-79600801D01*
X142181379Y-79544302D01*
X142305575Y-79519599D01*
X142326180Y-79515500D01*
X142473820Y-79515500D01*
X142494425Y-79519599D01*
X142494425Y-79519599D01*
G37*
G36*
X123284425Y-79518599D02*
G01*
X123408621Y-79543302D01*
X123545022Y-79599801D01*
X123667779Y-79681825D01*
X123772175Y-79786221D01*
X123854199Y-79908978D01*
X123910698Y-80045379D01*
X123939500Y-80190181D01*
X123939500Y-80337819D01*
X123910698Y-80482621D01*
X123854199Y-80619022D01*
X123772175Y-80741779D01*
X123667779Y-80846175D01*
X123545022Y-80928199D01*
X123408621Y-80984698D01*
X123284425Y-81009401D01*
X123263820Y-81013500D01*
X123116180Y-81013500D01*
X123095575Y-81009401D01*
X122971379Y-80984698D01*
X122834978Y-80928199D01*
X122712221Y-80846175D01*
X122607825Y-80741779D01*
X122525801Y-80619022D01*
X122469302Y-80482621D01*
X122440500Y-80337819D01*
X122440500Y-80190181D01*
X122469302Y-80045379D01*
X122525801Y-79908978D01*
X122607825Y-79786221D01*
X122712221Y-79681825D01*
X122834978Y-79599801D01*
X122971379Y-79543302D01*
X123095575Y-79518599D01*
X123116180Y-79514500D01*
X123263820Y-79514500D01*
X123284425Y-79518599D01*
X123284425Y-79518599D01*
G37*
G36*
X104144425Y-78944599D02*
G01*
X104268621Y-78969302D01*
X104405022Y-79025801D01*
X104527779Y-79107825D01*
X104632175Y-79212221D01*
X104714199Y-79334978D01*
X104770698Y-79471379D01*
X104799500Y-79616181D01*
X104799500Y-79763819D01*
X104770698Y-79908621D01*
X104714199Y-80045022D01*
X104632175Y-80167779D01*
X104527779Y-80272175D01*
X104405022Y-80354199D01*
X104268621Y-80410698D01*
X104144425Y-80435401D01*
X104123820Y-80439500D01*
X103976180Y-80439500D01*
X103955575Y-80435401D01*
X103831379Y-80410698D01*
X103694978Y-80354199D01*
X103572221Y-80272175D01*
X103467825Y-80167779D01*
X103385801Y-80045022D01*
X103329302Y-79908621D01*
X103300500Y-79763819D01*
X103300500Y-79616181D01*
X103329302Y-79471379D01*
X103385801Y-79334978D01*
X103467825Y-79212221D01*
X103572221Y-79107825D01*
X103694978Y-79025801D01*
X103831379Y-78969302D01*
X103955575Y-78944599D01*
X103976180Y-78940500D01*
X104123820Y-78940500D01*
X104144425Y-78944599D01*
X104144425Y-78944599D01*
G37*
G36*
X153348254Y-74577818D02*
G01*
X153721511Y-74732426D01*
X153721513Y-74732427D01*
X154057436Y-74956884D01*
X154343116Y-75242564D01*
X154512782Y-75496486D01*
X154567574Y-75578489D01*
X154722182Y-75951746D01*
X154801000Y-76347993D01*
X154801000Y-76752007D01*
X154722182Y-77148254D01*
X154592839Y-77460515D01*
X154567573Y-77521513D01*
X154343116Y-77857436D01*
X154057436Y-78143116D01*
X153721513Y-78367573D01*
X153721512Y-78367574D01*
X153721511Y-78367574D01*
X153348254Y-78522182D01*
X152952007Y-78601000D01*
X152547993Y-78601000D01*
X152151746Y-78522182D01*
X151778489Y-78367574D01*
X151778488Y-78367574D01*
X151778487Y-78367573D01*
X151442564Y-78143116D01*
X151156884Y-77857436D01*
X150932427Y-77521513D01*
X150907161Y-77460515D01*
X150777818Y-77148254D01*
X150699000Y-76752007D01*
X150699000Y-76347993D01*
X150777818Y-75951746D01*
X150932426Y-75578489D01*
X150987219Y-75496486D01*
X151156884Y-75242564D01*
X151442564Y-74956884D01*
X151778487Y-74732427D01*
X151778489Y-74732426D01*
X152151746Y-74577818D01*
X152547993Y-74499000D01*
X152952007Y-74499000D01*
X153348254Y-74577818D01*
X153348254Y-74577818D01*
G37*
G36*
X163594425Y-76294599D02*
G01*
X163718621Y-76319302D01*
X163855022Y-76375801D01*
X163977779Y-76457825D01*
X164082175Y-76562221D01*
X164164199Y-76684978D01*
X164220698Y-76821379D01*
X164249500Y-76966181D01*
X164249500Y-77113819D01*
X164220698Y-77258621D01*
X164164199Y-77395022D01*
X164082175Y-77517779D01*
X163977779Y-77622175D01*
X163855022Y-77704199D01*
X163718621Y-77760698D01*
X163594425Y-77785401D01*
X163573820Y-77789500D01*
X163426180Y-77789500D01*
X163405575Y-77785401D01*
X163281379Y-77760698D01*
X163144978Y-77704199D01*
X163022221Y-77622175D01*
X162917825Y-77517779D01*
X162835801Y-77395022D01*
X162779302Y-77258621D01*
X162750500Y-77113819D01*
X162750500Y-76966181D01*
X162779302Y-76821379D01*
X162835801Y-76684978D01*
X162917825Y-76562221D01*
X163022221Y-76457825D01*
X163144978Y-76375801D01*
X163281379Y-76319302D01*
X163405575Y-76294599D01*
X163426180Y-76290500D01*
X163573820Y-76290500D01*
X163594425Y-76294599D01*
X163594425Y-76294599D01*
G37*
G36*
X161044425Y-76294599D02*
G01*
X161168621Y-76319302D01*
X161305022Y-76375801D01*
X161427779Y-76457825D01*
X161532175Y-76562221D01*
X161614199Y-76684978D01*
X161670698Y-76821379D01*
X161699500Y-76966181D01*
X161699500Y-77113819D01*
X161670698Y-77258621D01*
X161614199Y-77395022D01*
X161532175Y-77517779D01*
X161427779Y-77622175D01*
X161305022Y-77704199D01*
X161168621Y-77760698D01*
X161044425Y-77785401D01*
X161023820Y-77789500D01*
X160876180Y-77789500D01*
X160855575Y-77785401D01*
X160731379Y-77760698D01*
X160594978Y-77704199D01*
X160472221Y-77622175D01*
X160367825Y-77517779D01*
X160285801Y-77395022D01*
X160229302Y-77258621D01*
X160200500Y-77113819D01*
X160200500Y-76966181D01*
X160229302Y-76821379D01*
X160285801Y-76684978D01*
X160367825Y-76562221D01*
X160472221Y-76457825D01*
X160594978Y-76375801D01*
X160731379Y-76319302D01*
X160855575Y-76294599D01*
X160876180Y-76290500D01*
X161023820Y-76290500D01*
X161044425Y-76294599D01*
X161044425Y-76294599D01*
G37*
G36*
X158541981Y-75587468D02*
G01*
X158724151Y-75662926D01*
X158888100Y-75772473D01*
X159027527Y-75911900D01*
X159137074Y-76075849D01*
X159207442Y-76245730D01*
X159212532Y-76258020D01*
X159251000Y-76451409D01*
X159251000Y-76648591D01*
X159243762Y-76684978D01*
X159212532Y-76841981D01*
X159137074Y-77024151D01*
X159027527Y-77188100D01*
X158888100Y-77327527D01*
X158724151Y-77437074D01*
X158541981Y-77512532D01*
X158348591Y-77551000D01*
X158151409Y-77551000D01*
X157958019Y-77512532D01*
X157832440Y-77460515D01*
X157808991Y-77453402D01*
X157784605Y-77451000D01*
X157741258Y-77451000D01*
X157716488Y-77446073D01*
X157567188Y-77416376D01*
X157403216Y-77348456D01*
X157255646Y-77249853D01*
X157130147Y-77124354D01*
X157031544Y-76976784D01*
X156963624Y-76812812D01*
X156933927Y-76663512D01*
X156929000Y-76638742D01*
X156929000Y-76461258D01*
X156937930Y-76416365D01*
X156963624Y-76287188D01*
X157031544Y-76123216D01*
X157130147Y-75975646D01*
X157255646Y-75850147D01*
X157403216Y-75751544D01*
X157567188Y-75683624D01*
X157716488Y-75653927D01*
X157741258Y-75649000D01*
X157784605Y-75649000D01*
X157808991Y-75646598D01*
X157832440Y-75639485D01*
X157837690Y-75637311D01*
X157958019Y-75587468D01*
X158151409Y-75549000D01*
X158348591Y-75549000D01*
X158541981Y-75587468D01*
X158541981Y-75587468D01*
G37*
G36*
X147541981Y-75587468D02*
G01*
X147662310Y-75637311D01*
X147667560Y-75639485D01*
X147691009Y-75646598D01*
X147715395Y-75649000D01*
X147758742Y-75649000D01*
X147783512Y-75653927D01*
X147932812Y-75683624D01*
X148096784Y-75751544D01*
X148244354Y-75850147D01*
X148369853Y-75975646D01*
X148468456Y-76123216D01*
X148536376Y-76287188D01*
X148562070Y-76416365D01*
X148571000Y-76461258D01*
X148571000Y-76638742D01*
X148566073Y-76663512D01*
X148536376Y-76812812D01*
X148468456Y-76976784D01*
X148369853Y-77124354D01*
X148244354Y-77249853D01*
X148096784Y-77348456D01*
X147932812Y-77416376D01*
X147783512Y-77446073D01*
X147758742Y-77451000D01*
X147715395Y-77451000D01*
X147691009Y-77453402D01*
X147667560Y-77460515D01*
X147541981Y-77512532D01*
X147348591Y-77551000D01*
X147151409Y-77551000D01*
X146958019Y-77512532D01*
X146775849Y-77437074D01*
X146611900Y-77327527D01*
X146472473Y-77188100D01*
X146362926Y-77024151D01*
X146287468Y-76841981D01*
X146256238Y-76684978D01*
X146249000Y-76648591D01*
X146249000Y-76451409D01*
X146287468Y-76258020D01*
X146292559Y-76245730D01*
X146362926Y-76075849D01*
X146472473Y-75911900D01*
X146611900Y-75772473D01*
X146775849Y-75662926D01*
X146958019Y-75587468D01*
X147151409Y-75549000D01*
X147348591Y-75549000D01*
X147541981Y-75587468D01*
X147541981Y-75587468D01*
G37*
G36*
X109740721Y-75770174D02*
G01*
X109840995Y-75811709D01*
X109840996Y-75811710D01*
X109931242Y-75872010D01*
X110007990Y-75948758D01*
X110038345Y-75994188D01*
X110068291Y-76039005D01*
X110109826Y-76139279D01*
X110131000Y-76245730D01*
X110131000Y-76354270D01*
X110109826Y-76460721D01*
X110068291Y-76560995D01*
X110038345Y-76605812D01*
X110007990Y-76651242D01*
X109931242Y-76727990D01*
X109895299Y-76752006D01*
X109840995Y-76788291D01*
X109740721Y-76829826D01*
X109634270Y-76851000D01*
X109525730Y-76851000D01*
X109419279Y-76829826D01*
X109319005Y-76788291D01*
X109264701Y-76752006D01*
X109228758Y-76727990D01*
X109152010Y-76651242D01*
X109121655Y-76605812D01*
X109091709Y-76560995D01*
X109050174Y-76460721D01*
X109029000Y-76354270D01*
X109029000Y-76245730D01*
X109050174Y-76139279D01*
X109091709Y-76039005D01*
X109121655Y-75994188D01*
X109152010Y-75948758D01*
X109228758Y-75872010D01*
X109319004Y-75811710D01*
X109319005Y-75811709D01*
X109419279Y-75770174D01*
X109525730Y-75749000D01*
X109634270Y-75749000D01*
X109740721Y-75770174D01*
X109740721Y-75770174D01*
G37*
G36*
X120180721Y-75770174D02*
G01*
X120280995Y-75811709D01*
X120280996Y-75811710D01*
X120371242Y-75872010D01*
X120447990Y-75948758D01*
X120478345Y-75994188D01*
X120508291Y-76039005D01*
X120549826Y-76139279D01*
X120571000Y-76245730D01*
X120571000Y-76354270D01*
X120549826Y-76460721D01*
X120508291Y-76560995D01*
X120478345Y-76605812D01*
X120447990Y-76651242D01*
X120371242Y-76727990D01*
X120335299Y-76752006D01*
X120280995Y-76788291D01*
X120180721Y-76829826D01*
X120074270Y-76851000D01*
X119965730Y-76851000D01*
X119859279Y-76829826D01*
X119759005Y-76788291D01*
X119704701Y-76752006D01*
X119668758Y-76727990D01*
X119592010Y-76651242D01*
X119561655Y-76605812D01*
X119531709Y-76560995D01*
X119490174Y-76460721D01*
X119469000Y-76354270D01*
X119469000Y-76245730D01*
X119490174Y-76139279D01*
X119531709Y-76039005D01*
X119561655Y-75994188D01*
X119592010Y-75948758D01*
X119668758Y-75872010D01*
X119759004Y-75811710D01*
X119759005Y-75811709D01*
X119859279Y-75770174D01*
X119965730Y-75749000D01*
X120074270Y-75749000D01*
X120180721Y-75770174D01*
X120180721Y-75770174D01*
G37*
G36*
X177206564Y-74589389D02*
G01*
X177397833Y-74668615D01*
X177397835Y-74668616D01*
X177493333Y-74732426D01*
X177569973Y-74783635D01*
X177716365Y-74930027D01*
X177831385Y-75102167D01*
X177910611Y-75293436D01*
X177951000Y-75496484D01*
X177951000Y-75703516D01*
X177910611Y-75906564D01*
X177855752Y-76039005D01*
X177831384Y-76097835D01*
X177716365Y-76269973D01*
X177569973Y-76416365D01*
X177397835Y-76531384D01*
X177397834Y-76531385D01*
X177397833Y-76531385D01*
X177206564Y-76610611D01*
X177003516Y-76651000D01*
X176796484Y-76651000D01*
X176593436Y-76610611D01*
X176402167Y-76531385D01*
X176402166Y-76531385D01*
X176402165Y-76531384D01*
X176230027Y-76416365D01*
X176083635Y-76269973D01*
X175968616Y-76097835D01*
X175944248Y-76039005D01*
X175889389Y-75906564D01*
X175849000Y-75703516D01*
X175849000Y-75496484D01*
X175889389Y-75293436D01*
X175968615Y-75102167D01*
X176083635Y-74930027D01*
X176230027Y-74783635D01*
X176306667Y-74732426D01*
X176402165Y-74668616D01*
X176402167Y-74668615D01*
X176593436Y-74589389D01*
X176796484Y-74549000D01*
X177003516Y-74549000D01*
X177206564Y-74589389D01*
X177206564Y-74589389D01*
G37*
G36*
X172206564Y-74589389D02*
G01*
X172397833Y-74668615D01*
X172397835Y-74668616D01*
X172493333Y-74732426D01*
X172569973Y-74783635D01*
X172716365Y-74930027D01*
X172831385Y-75102167D01*
X172910611Y-75293436D01*
X172951000Y-75496484D01*
X172951000Y-75703516D01*
X172910611Y-75906564D01*
X172855752Y-76039005D01*
X172831384Y-76097835D01*
X172716365Y-76269973D01*
X172569973Y-76416365D01*
X172397835Y-76531384D01*
X172397834Y-76531385D01*
X172397833Y-76531385D01*
X172206564Y-76610611D01*
X172003516Y-76651000D01*
X171796484Y-76651000D01*
X171593436Y-76610611D01*
X171402167Y-76531385D01*
X171402166Y-76531385D01*
X171402165Y-76531384D01*
X171230027Y-76416365D01*
X171083635Y-76269973D01*
X170968616Y-76097835D01*
X170944248Y-76039005D01*
X170889389Y-75906564D01*
X170849000Y-75703516D01*
X170849000Y-75496484D01*
X170889389Y-75293436D01*
X170968615Y-75102167D01*
X171083635Y-74930027D01*
X171230027Y-74783635D01*
X171306667Y-74732426D01*
X171402165Y-74668616D01*
X171402167Y-74668615D01*
X171593436Y-74589389D01*
X171796484Y-74549000D01*
X172003516Y-74549000D01*
X172206564Y-74589389D01*
X172206564Y-74589389D01*
G37*
G36*
X142699500Y-76009500D02*
G01*
X141200500Y-76009500D01*
X141200500Y-74510500D01*
X142699500Y-74510500D01*
X142699500Y-76009500D01*
X142699500Y-76009500D01*
G37*
G36*
X123849500Y-75909500D02*
G01*
X122350500Y-75909500D01*
X122350500Y-74410500D01*
X123849500Y-74410500D01*
X123849500Y-75909500D01*
X123849500Y-75909500D01*
G37*
G36*
X115398254Y-70127818D02*
G01*
X115700861Y-70253162D01*
X115771513Y-70282427D01*
X116107436Y-70506884D01*
X116393116Y-70792564D01*
X116592353Y-71090742D01*
X116617574Y-71128489D01*
X116772182Y-71501746D01*
X116851000Y-71897993D01*
X116851000Y-72302007D01*
X116772182Y-72698254D01*
X116642839Y-73010515D01*
X116617573Y-73071513D01*
X116393116Y-73407436D01*
X116107436Y-73693116D01*
X115771513Y-73917573D01*
X115771512Y-73917574D01*
X115771511Y-73917574D01*
X115398254Y-74072182D01*
X115002007Y-74151000D01*
X114597993Y-74151000D01*
X114201746Y-74072182D01*
X113828489Y-73917574D01*
X113828488Y-73917574D01*
X113828487Y-73917573D01*
X113492564Y-73693116D01*
X113206884Y-73407436D01*
X112982427Y-73071513D01*
X112957161Y-73010515D01*
X112827818Y-72698254D01*
X112749000Y-72302007D01*
X112749000Y-71897993D01*
X112827818Y-71501746D01*
X112982426Y-71128489D01*
X113007648Y-71090742D01*
X113206884Y-70792564D01*
X113492564Y-70506884D01*
X113828487Y-70282427D01*
X113899139Y-70253162D01*
X114201746Y-70127818D01*
X114597993Y-70049000D01*
X115002007Y-70049000D01*
X115398254Y-70127818D01*
X115398254Y-70127818D01*
G37*
G36*
X120495285Y-71118234D02*
G01*
X120591981Y-71137468D01*
X120774151Y-71212926D01*
X120938100Y-71322473D01*
X121077527Y-71461900D01*
X121187074Y-71625849D01*
X121262532Y-71808019D01*
X121301000Y-72001410D01*
X121301000Y-72198590D01*
X121262532Y-72391981D01*
X121187074Y-72574151D01*
X121077527Y-72738100D01*
X120938100Y-72877527D01*
X120774151Y-72987074D01*
X120591981Y-73062532D01*
X120398591Y-73101000D01*
X120201409Y-73101000D01*
X120008019Y-73062532D01*
X119882440Y-73010515D01*
X119858991Y-73003402D01*
X119834605Y-73001000D01*
X119791258Y-73001000D01*
X119766488Y-72996073D01*
X119617188Y-72966376D01*
X119453216Y-72898456D01*
X119305646Y-72799853D01*
X119180147Y-72674354D01*
X119081544Y-72526784D01*
X119013624Y-72362812D01*
X118979000Y-72188741D01*
X118979000Y-72011259D01*
X119013624Y-71837188D01*
X119081544Y-71673216D01*
X119180147Y-71525646D01*
X119305646Y-71400147D01*
X119453216Y-71301544D01*
X119617188Y-71233624D01*
X119766488Y-71203927D01*
X119791258Y-71199000D01*
X119834605Y-71199000D01*
X119858991Y-71196598D01*
X119882440Y-71189485D01*
X119887690Y-71187311D01*
X120008019Y-71137468D01*
X120104715Y-71118234D01*
X120201409Y-71099000D01*
X120398591Y-71099000D01*
X120495285Y-71118234D01*
X120495285Y-71118234D01*
G37*
G36*
X109495285Y-71118234D02*
G01*
X109591981Y-71137468D01*
X109712310Y-71187311D01*
X109717560Y-71189485D01*
X109741009Y-71196598D01*
X109765395Y-71199000D01*
X109808742Y-71199000D01*
X109833512Y-71203927D01*
X109982812Y-71233624D01*
X110146784Y-71301544D01*
X110294354Y-71400147D01*
X110419853Y-71525646D01*
X110518456Y-71673216D01*
X110586376Y-71837188D01*
X110621000Y-72011259D01*
X110621000Y-72188741D01*
X110586376Y-72362812D01*
X110518456Y-72526784D01*
X110419853Y-72674354D01*
X110294354Y-72799853D01*
X110146784Y-72898456D01*
X109982812Y-72966376D01*
X109833512Y-72996073D01*
X109808742Y-73001000D01*
X109765395Y-73001000D01*
X109741009Y-73003402D01*
X109717560Y-73010515D01*
X109591981Y-73062532D01*
X109398591Y-73101000D01*
X109201409Y-73101000D01*
X109008019Y-73062532D01*
X108825849Y-72987074D01*
X108661900Y-72877527D01*
X108522473Y-72738100D01*
X108412926Y-72574151D01*
X108337468Y-72391981D01*
X108299000Y-72198590D01*
X108299000Y-72001410D01*
X108337468Y-71808019D01*
X108412926Y-71625849D01*
X108522473Y-71461900D01*
X108661900Y-71322473D01*
X108825849Y-71212926D01*
X109008019Y-71137468D01*
X109104715Y-71118234D01*
X109201409Y-71099000D01*
X109398591Y-71099000D01*
X109495285Y-71118234D01*
X109495285Y-71118234D01*
G37*
G36*
X164866336Y-68818827D02*
G01*
X165001639Y-68845740D01*
X165383997Y-69004118D01*
X165525699Y-69098800D01*
X165728109Y-69234046D01*
X166020754Y-69526691D01*
X166076143Y-69609587D01*
X166184951Y-69772429D01*
X166250683Y-69870805D01*
X166283810Y-69950781D01*
X166408165Y-70251000D01*
X166409060Y-70253162D01*
X166489800Y-70659068D01*
X166489800Y-71072932D01*
X166461953Y-71212926D01*
X166409060Y-71478839D01*
X166326569Y-71677990D01*
X166260627Y-71837189D01*
X166250682Y-71861197D01*
X166226095Y-71897994D01*
X166020754Y-72205309D01*
X165728109Y-72497954D01*
X165614075Y-72574149D01*
X165383997Y-72727882D01*
X165001639Y-72886260D01*
X164940325Y-72898456D01*
X164595732Y-72967000D01*
X164181868Y-72967000D01*
X163837275Y-72898456D01*
X163775961Y-72886260D01*
X163393603Y-72727882D01*
X163163525Y-72574149D01*
X163049491Y-72497954D01*
X162756846Y-72205309D01*
X162551505Y-71897994D01*
X162526918Y-71861197D01*
X162516974Y-71837189D01*
X162451031Y-71677990D01*
X162368540Y-71478839D01*
X162315647Y-71212926D01*
X162287800Y-71072932D01*
X162287800Y-70659068D01*
X162368540Y-70253162D01*
X162369436Y-70251000D01*
X162493790Y-69950781D01*
X162526917Y-69870805D01*
X162592650Y-69772429D01*
X162701457Y-69609587D01*
X162756846Y-69526691D01*
X163049491Y-69234046D01*
X163251901Y-69098800D01*
X163393603Y-69004118D01*
X163775961Y-68845740D01*
X163911264Y-68818827D01*
X164181868Y-68765000D01*
X164595732Y-68765000D01*
X164866336Y-68818827D01*
X164866336Y-68818827D01*
G37*
G36*
X103347536Y-68818827D02*
G01*
X103482839Y-68845740D01*
X103865197Y-69004118D01*
X104006899Y-69098800D01*
X104209309Y-69234046D01*
X104501954Y-69526691D01*
X104557343Y-69609587D01*
X104666151Y-69772429D01*
X104731883Y-69870805D01*
X104765010Y-69950781D01*
X104889365Y-70251000D01*
X104890260Y-70253162D01*
X104971000Y-70659068D01*
X104971000Y-71072932D01*
X104943153Y-71212926D01*
X104890260Y-71478839D01*
X104807769Y-71677990D01*
X104741827Y-71837189D01*
X104731882Y-71861197D01*
X104707295Y-71897994D01*
X104501954Y-72205309D01*
X104209309Y-72497954D01*
X104095275Y-72574149D01*
X103865197Y-72727882D01*
X103482839Y-72886260D01*
X103421525Y-72898456D01*
X103076932Y-72967000D01*
X102663068Y-72967000D01*
X102318475Y-72898456D01*
X102257161Y-72886260D01*
X101874803Y-72727882D01*
X101644725Y-72574149D01*
X101530691Y-72497954D01*
X101238046Y-72205309D01*
X101032705Y-71897994D01*
X101008118Y-71861197D01*
X100998174Y-71837189D01*
X100932231Y-71677990D01*
X100849740Y-71478839D01*
X100796847Y-71212926D01*
X100769000Y-71072932D01*
X100769000Y-70659068D01*
X100849740Y-70253162D01*
X100850636Y-70251000D01*
X100974990Y-69950781D01*
X101008117Y-69870805D01*
X101073850Y-69772429D01*
X101182657Y-69609587D01*
X101238046Y-69526691D01*
X101530691Y-69234046D01*
X101733101Y-69098800D01*
X101874803Y-69004118D01*
X102257161Y-68845740D01*
X102392464Y-68818827D01*
X102663068Y-68765000D01*
X103076932Y-68765000D01*
X103347536Y-68818827D01*
X103347536Y-68818827D01*
G37*
G36*
X139080721Y-70720174D02*
G01*
X139180995Y-70761709D01*
X139180996Y-70761710D01*
X139271242Y-70822010D01*
X139347990Y-70898758D01*
X139347991Y-70898760D01*
X139408291Y-70989005D01*
X139449826Y-71089279D01*
X139471000Y-71195730D01*
X139471000Y-71304270D01*
X139449826Y-71410721D01*
X139408291Y-71510995D01*
X139408290Y-71510996D01*
X139347990Y-71601242D01*
X139271242Y-71677990D01*
X139225812Y-71708345D01*
X139180995Y-71738291D01*
X139080721Y-71779826D01*
X138974270Y-71801000D01*
X138865730Y-71801000D01*
X138759279Y-71779826D01*
X138659005Y-71738291D01*
X138614188Y-71708345D01*
X138568758Y-71677990D01*
X138492010Y-71601242D01*
X138431710Y-71510996D01*
X138431709Y-71510995D01*
X138390174Y-71410721D01*
X138369000Y-71304270D01*
X138369000Y-71195730D01*
X138390174Y-71089279D01*
X138431709Y-70989005D01*
X138492009Y-70898760D01*
X138492010Y-70898758D01*
X138568758Y-70822010D01*
X138659004Y-70761710D01*
X138659005Y-70761709D01*
X138759279Y-70720174D01*
X138865730Y-70699000D01*
X138974270Y-70699000D01*
X139080721Y-70720174D01*
X139080721Y-70720174D01*
G37*
G36*
X128640721Y-70720174D02*
G01*
X128740995Y-70761709D01*
X128740996Y-70761710D01*
X128831242Y-70822010D01*
X128907990Y-70898758D01*
X128907991Y-70898760D01*
X128968291Y-70989005D01*
X129009826Y-71089279D01*
X129031000Y-71195730D01*
X129031000Y-71304270D01*
X129009826Y-71410721D01*
X128968291Y-71510995D01*
X128968290Y-71510996D01*
X128907990Y-71601242D01*
X128831242Y-71677990D01*
X128785812Y-71708345D01*
X128740995Y-71738291D01*
X128640721Y-71779826D01*
X128534270Y-71801000D01*
X128425730Y-71801000D01*
X128319279Y-71779826D01*
X128219005Y-71738291D01*
X128174188Y-71708345D01*
X128128758Y-71677990D01*
X128052010Y-71601242D01*
X127991710Y-71510996D01*
X127991709Y-71510995D01*
X127950174Y-71410721D01*
X127929000Y-71304270D01*
X127929000Y-71195730D01*
X127950174Y-71089279D01*
X127991709Y-70989005D01*
X128052009Y-70898760D01*
X128052010Y-70898758D01*
X128128758Y-70822010D01*
X128219004Y-70761710D01*
X128219005Y-70761709D01*
X128319279Y-70720174D01*
X128425730Y-70699000D01*
X128534270Y-70699000D01*
X128640721Y-70720174D01*
X128640721Y-70720174D01*
G37*
G36*
X90829810Y-68654325D02*
G01*
X90914826Y-68680114D01*
X90993175Y-68721993D01*
X91061849Y-68778351D01*
X91118207Y-68847025D01*
X91160086Y-68925374D01*
X91185875Y-69010390D01*
X91194582Y-69098800D01*
X91185875Y-69187210D01*
X91160086Y-69272226D01*
X91118207Y-69350575D01*
X91069251Y-69410228D01*
X91055638Y-69430602D01*
X91046260Y-69453241D01*
X91041480Y-69477274D01*
X91041480Y-69501778D01*
X91046261Y-69525812D01*
X91055638Y-69548450D01*
X91069252Y-69568825D01*
X91086579Y-69586152D01*
X91106953Y-69599765D01*
X91129592Y-69609143D01*
X91153625Y-69613923D01*
X91178129Y-69613923D01*
X91202163Y-69609142D01*
X91210616Y-69605641D01*
X91364279Y-69559028D01*
X91478282Y-69547800D01*
X92104518Y-69547800D01*
X92218521Y-69559028D01*
X92348071Y-69598327D01*
X92352813Y-69599765D01*
X92364802Y-69603402D01*
X92499604Y-69675455D01*
X92499607Y-69675457D01*
X92499608Y-69675458D01*
X92535356Y-69704796D01*
X92617769Y-69772431D01*
X92714745Y-69890596D01*
X92786798Y-70025398D01*
X92831172Y-70171679D01*
X92846154Y-70323800D01*
X92831172Y-70475921D01*
X92786798Y-70622202D01*
X92714745Y-70757004D01*
X92714743Y-70757007D01*
X92714742Y-70757008D01*
X92617769Y-70875169D01*
X92589024Y-70898760D01*
X92499604Y-70972145D01*
X92364802Y-71044198D01*
X92218521Y-71088572D01*
X92104518Y-71099800D01*
X91478282Y-71099800D01*
X91364279Y-71088572D01*
X91217998Y-71044198D01*
X91083196Y-70972145D01*
X90993777Y-70898760D01*
X90965031Y-70875169D01*
X90868058Y-70757008D01*
X90868057Y-70757007D01*
X90868055Y-70757004D01*
X90796002Y-70622202D01*
X90751628Y-70475921D01*
X90736646Y-70323800D01*
X90751628Y-70171679D01*
X90796002Y-70025398D01*
X90868055Y-69890596D01*
X90965033Y-69772429D01*
X91001505Y-69742497D01*
X91018832Y-69725170D01*
X91032446Y-69704796D01*
X91041823Y-69682157D01*
X91046604Y-69658124D01*
X91046604Y-69633620D01*
X91041824Y-69609587D01*
X91032447Y-69586948D01*
X91018833Y-69566573D01*
X91001506Y-69549246D01*
X90981132Y-69535632D01*
X90958493Y-69526255D01*
X90934460Y-69521474D01*
X90909956Y-69521474D01*
X90885923Y-69526254D01*
X90829812Y-69543275D01*
X90763558Y-69549800D01*
X90719242Y-69549800D01*
X90652990Y-69543275D01*
X90567974Y-69517486D01*
X90489625Y-69475607D01*
X90420951Y-69419249D01*
X90364593Y-69350575D01*
X90322714Y-69272226D01*
X90296925Y-69187210D01*
X90288218Y-69098800D01*
X90296925Y-69010390D01*
X90322714Y-68925374D01*
X90364593Y-68847025D01*
X90420951Y-68778351D01*
X90489625Y-68721993D01*
X90567974Y-68680114D01*
X90652990Y-68654325D01*
X90719242Y-68647800D01*
X90763558Y-68647800D01*
X90829810Y-68654325D01*
X90829810Y-68654325D01*
G37*
G36*
X88439115Y-69856858D02*
G01*
X88535153Y-69885991D01*
X88550335Y-69890596D01*
X88557122Y-69892655D01*
X88665868Y-69950781D01*
X88761190Y-70029010D01*
X88839419Y-70124332D01*
X88897545Y-70233078D01*
X88933342Y-70351085D01*
X88945428Y-70473800D01*
X88933342Y-70596515D01*
X88897545Y-70714522D01*
X88839419Y-70823268D01*
X88761190Y-70918590D01*
X88665868Y-70996819D01*
X88557122Y-71054945D01*
X88439115Y-71090742D01*
X88347146Y-71099800D01*
X87635654Y-71099800D01*
X87543685Y-71090742D01*
X87425678Y-71054945D01*
X87316932Y-70996819D01*
X87221610Y-70918590D01*
X87143381Y-70823268D01*
X87085255Y-70714522D01*
X87049458Y-70596515D01*
X87037372Y-70473800D01*
X87049458Y-70351085D01*
X87085255Y-70233078D01*
X87143381Y-70124332D01*
X87221610Y-70029010D01*
X87316932Y-69950781D01*
X87425678Y-69892655D01*
X87432466Y-69890596D01*
X87447647Y-69885991D01*
X87543685Y-69856858D01*
X87635654Y-69847800D01*
X88347146Y-69847800D01*
X88439115Y-69856858D01*
X88439115Y-69856858D01*
G37*
G36*
X181051000Y-70251000D02*
G01*
X178949000Y-70251000D01*
X178949000Y-66949000D01*
X181051000Y-66949000D01*
X181051000Y-70251000D01*
X181051000Y-70251000D01*
G37*
G36*
X169851000Y-70251000D02*
G01*
X167749000Y-70251000D01*
X167749000Y-66949000D01*
X169851000Y-66949000D01*
X169851000Y-70251000D01*
X169851000Y-70251000D01*
G37*
G36*
X134298254Y-65077818D02*
G01*
X134671511Y-65232426D01*
X134671513Y-65232427D01*
X135007436Y-65456884D01*
X135293116Y-65742564D01*
X135469139Y-66006000D01*
X135517574Y-66078489D01*
X135672182Y-66451746D01*
X135751000Y-66847993D01*
X135751000Y-67252007D01*
X135672182Y-67648254D01*
X135542839Y-67960515D01*
X135517573Y-68021513D01*
X135293116Y-68357436D01*
X135007436Y-68643116D01*
X134671513Y-68867573D01*
X134671512Y-68867574D01*
X134671511Y-68867574D01*
X134298254Y-69022182D01*
X133902007Y-69101000D01*
X133497993Y-69101000D01*
X133101746Y-69022182D01*
X132728489Y-68867574D01*
X132728488Y-68867574D01*
X132728487Y-68867573D01*
X132392564Y-68643116D01*
X132106884Y-68357436D01*
X131882427Y-68021513D01*
X131857161Y-67960515D01*
X131727818Y-67648254D01*
X131649000Y-67252007D01*
X131649000Y-66847993D01*
X131727818Y-66451746D01*
X131882426Y-66078489D01*
X131930862Y-66006000D01*
X132106884Y-65742564D01*
X132392564Y-65456884D01*
X132728487Y-65232427D01*
X132728489Y-65232426D01*
X133101746Y-65077818D01*
X133497993Y-64999000D01*
X133902007Y-64999000D01*
X134298254Y-65077818D01*
X134298254Y-65077818D01*
G37*
G36*
X142044425Y-66894599D02*
G01*
X142168621Y-66919302D01*
X142305022Y-66975801D01*
X142427779Y-67057825D01*
X142532175Y-67162221D01*
X142614199Y-67284978D01*
X142670698Y-67421379D01*
X142699500Y-67566181D01*
X142699500Y-67713819D01*
X142670698Y-67858621D01*
X142614199Y-67995022D01*
X142532175Y-68117779D01*
X142427779Y-68222175D01*
X142305022Y-68304199D01*
X142168621Y-68360698D01*
X142044425Y-68385401D01*
X142023820Y-68389500D01*
X141876180Y-68389500D01*
X141855575Y-68385401D01*
X141731379Y-68360698D01*
X141594978Y-68304199D01*
X141472221Y-68222175D01*
X141367825Y-68117779D01*
X141285801Y-67995022D01*
X141229302Y-67858621D01*
X141200500Y-67713819D01*
X141200500Y-67566181D01*
X141229302Y-67421379D01*
X141285801Y-67284978D01*
X141367825Y-67162221D01*
X141472221Y-67057825D01*
X141594978Y-66975801D01*
X141731379Y-66919302D01*
X141855575Y-66894599D01*
X141876180Y-66890500D01*
X142023820Y-66890500D01*
X142044425Y-66894599D01*
X142044425Y-66894599D01*
G37*
G36*
X123194425Y-66794599D02*
G01*
X123318621Y-66819302D01*
X123455022Y-66875801D01*
X123577779Y-66957825D01*
X123682175Y-67062221D01*
X123764199Y-67184978D01*
X123820698Y-67321379D01*
X123849500Y-67466181D01*
X123849500Y-67613819D01*
X123820698Y-67758621D01*
X123764199Y-67895022D01*
X123682175Y-68017779D01*
X123577779Y-68122175D01*
X123455022Y-68204199D01*
X123318621Y-68260698D01*
X123194425Y-68285401D01*
X123173820Y-68289500D01*
X123026180Y-68289500D01*
X123005575Y-68285401D01*
X122881379Y-68260698D01*
X122744978Y-68204199D01*
X122622221Y-68122175D01*
X122517825Y-68017779D01*
X122435801Y-67895022D01*
X122379302Y-67758621D01*
X122350500Y-67613819D01*
X122350500Y-67466181D01*
X122379302Y-67321379D01*
X122435801Y-67184978D01*
X122517825Y-67062221D01*
X122622221Y-66957825D01*
X122744978Y-66875801D01*
X122881379Y-66819302D01*
X123005575Y-66794599D01*
X123026180Y-66790500D01*
X123173820Y-66790500D01*
X123194425Y-66794599D01*
X123194425Y-66794599D01*
G37*
G36*
X92542400Y-68174800D02*
G01*
X91140400Y-68174800D01*
X91140400Y-65022800D01*
X92542400Y-65022800D01*
X92542400Y-68174800D01*
X92542400Y-68174800D01*
G37*
G36*
X128395285Y-66068234D02*
G01*
X128491981Y-66087468D01*
X128612310Y-66137311D01*
X128617560Y-66139485D01*
X128641009Y-66146598D01*
X128665395Y-66149000D01*
X128708742Y-66149000D01*
X128733512Y-66153927D01*
X128882812Y-66183624D01*
X129046784Y-66251544D01*
X129194354Y-66350147D01*
X129319853Y-66475646D01*
X129418456Y-66623216D01*
X129486376Y-66787188D01*
X129521000Y-66961259D01*
X129521000Y-67138741D01*
X129486376Y-67312812D01*
X129418456Y-67476784D01*
X129319853Y-67624354D01*
X129194354Y-67749853D01*
X129046784Y-67848456D01*
X128882812Y-67916376D01*
X128733512Y-67946073D01*
X128708742Y-67951000D01*
X128665395Y-67951000D01*
X128641009Y-67953402D01*
X128617560Y-67960515D01*
X128491981Y-68012532D01*
X128298591Y-68051000D01*
X128101409Y-68051000D01*
X127908019Y-68012532D01*
X127725849Y-67937074D01*
X127561900Y-67827527D01*
X127422473Y-67688100D01*
X127312926Y-67524151D01*
X127237468Y-67341981D01*
X127199000Y-67148590D01*
X127199000Y-66951410D01*
X127205387Y-66919303D01*
X127237468Y-66758020D01*
X127312925Y-66575851D01*
X127379879Y-66475647D01*
X127422473Y-66411900D01*
X127561900Y-66272473D01*
X127725849Y-66162926D01*
X127908019Y-66087468D01*
X128004715Y-66068234D01*
X128101409Y-66049000D01*
X128298591Y-66049000D01*
X128395285Y-66068234D01*
X128395285Y-66068234D01*
G37*
G36*
X139395285Y-66068234D02*
G01*
X139491981Y-66087468D01*
X139674151Y-66162926D01*
X139838100Y-66272473D01*
X139977527Y-66411900D01*
X140020121Y-66475647D01*
X140087075Y-66575851D01*
X140162532Y-66758020D01*
X140194614Y-66919303D01*
X140201000Y-66951410D01*
X140201000Y-67148590D01*
X140162532Y-67341981D01*
X140087074Y-67524151D01*
X139977527Y-67688100D01*
X139838100Y-67827527D01*
X139674151Y-67937074D01*
X139491981Y-68012532D01*
X139298591Y-68051000D01*
X139101409Y-68051000D01*
X138908019Y-68012532D01*
X138782440Y-67960515D01*
X138758991Y-67953402D01*
X138734605Y-67951000D01*
X138691258Y-67951000D01*
X138666488Y-67946073D01*
X138517188Y-67916376D01*
X138353216Y-67848456D01*
X138205646Y-67749853D01*
X138080147Y-67624354D01*
X137981544Y-67476784D01*
X137913624Y-67312812D01*
X137879000Y-67138741D01*
X137879000Y-66961259D01*
X137913624Y-66787188D01*
X137981544Y-66623216D01*
X138080147Y-66475646D01*
X138205646Y-66350147D01*
X138353216Y-66251544D01*
X138517188Y-66183624D01*
X138666488Y-66153927D01*
X138691258Y-66149000D01*
X138734605Y-66149000D01*
X138758991Y-66146598D01*
X138782440Y-66139485D01*
X138787690Y-66137311D01*
X138908019Y-66087468D01*
X139004715Y-66068234D01*
X139101409Y-66049000D01*
X139298591Y-66049000D01*
X139395285Y-66068234D01*
X139395285Y-66068234D01*
G37*
G36*
X95815183Y-63977489D02*
G01*
X95815186Y-63977490D01*
X95815185Y-63977490D01*
X95879058Y-64003946D01*
X95936548Y-64042360D01*
X95985440Y-64091252D01*
X96023854Y-64148742D01*
X96032142Y-64168753D01*
X96050311Y-64212617D01*
X96063800Y-64280430D01*
X96063800Y-64349570D01*
X96050311Y-64417383D01*
X96050310Y-64417385D01*
X96023854Y-64481258D01*
X95979046Y-64548317D01*
X95978030Y-64549555D01*
X95966479Y-64571166D01*
X95959366Y-64594615D01*
X95956964Y-64619001D01*
X95959366Y-64643387D01*
X95966479Y-64666836D01*
X95978030Y-64688447D01*
X95993575Y-64707389D01*
X96012517Y-64722934D01*
X96034128Y-64734485D01*
X96057577Y-64741598D01*
X96081963Y-64744000D01*
X101123637Y-64744000D01*
X101148023Y-64741598D01*
X101171472Y-64734485D01*
X101193083Y-64722934D01*
X101212025Y-64707389D01*
X101227570Y-64688447D01*
X101239121Y-64666836D01*
X101246234Y-64643387D01*
X101248636Y-64619001D01*
X101246234Y-64594615D01*
X101239121Y-64571166D01*
X101227570Y-64549555D01*
X101226554Y-64548317D01*
X101181746Y-64481258D01*
X101155290Y-64417385D01*
X101155289Y-64417383D01*
X101141800Y-64349570D01*
X101141800Y-64280430D01*
X101155289Y-64212617D01*
X101173458Y-64168753D01*
X101181746Y-64148742D01*
X101220160Y-64091252D01*
X101269052Y-64042360D01*
X101326542Y-64003946D01*
X101390415Y-63977490D01*
X101390414Y-63977490D01*
X101390417Y-63977489D01*
X101458230Y-63964000D01*
X101527370Y-63964000D01*
X101595183Y-63977489D01*
X101595186Y-63977490D01*
X101595185Y-63977490D01*
X101659058Y-64003946D01*
X101716548Y-64042360D01*
X101765440Y-64091252D01*
X101803854Y-64148742D01*
X101812142Y-64168753D01*
X101830311Y-64212617D01*
X101843800Y-64280430D01*
X101843800Y-64349570D01*
X101830311Y-64417383D01*
X101830310Y-64417385D01*
X101803854Y-64481258D01*
X101759046Y-64548317D01*
X101758030Y-64549555D01*
X101746479Y-64571166D01*
X101739366Y-64594615D01*
X101736964Y-64619001D01*
X101739366Y-64643387D01*
X101746479Y-64666836D01*
X101758030Y-64688447D01*
X101773575Y-64707389D01*
X101792517Y-64722934D01*
X101814128Y-64734485D01*
X101837577Y-64741598D01*
X101861963Y-64744000D01*
X102153800Y-64744000D01*
X102153800Y-66006000D01*
X95051800Y-66006000D01*
X95051800Y-64744000D01*
X95343637Y-64744000D01*
X95368023Y-64741598D01*
X95391472Y-64734485D01*
X95413083Y-64722934D01*
X95432025Y-64707389D01*
X95447570Y-64688447D01*
X95459121Y-64666836D01*
X95466234Y-64643387D01*
X95468636Y-64619001D01*
X95466234Y-64594615D01*
X95459121Y-64571166D01*
X95447570Y-64549555D01*
X95446554Y-64548317D01*
X95401746Y-64481258D01*
X95375290Y-64417385D01*
X95375289Y-64417383D01*
X95361800Y-64349570D01*
X95361800Y-64280430D01*
X95375289Y-64212617D01*
X95393458Y-64168753D01*
X95401746Y-64148742D01*
X95440160Y-64091252D01*
X95489052Y-64042360D01*
X95546542Y-64003946D01*
X95610415Y-63977490D01*
X95610414Y-63977490D01*
X95610417Y-63977489D01*
X95678230Y-63964000D01*
X95747370Y-63964000D01*
X95815183Y-63977489D01*
X95815183Y-63977489D01*
G37*
G36*
X94381013Y-63751249D02*
G01*
X94475452Y-63779897D01*
X94562487Y-63826418D01*
X94638775Y-63889025D01*
X94701382Y-63965313D01*
X94747903Y-64052348D01*
X94776551Y-64146787D01*
X94783800Y-64220388D01*
X94783800Y-65369612D01*
X94776551Y-65443213D01*
X94747903Y-65537652D01*
X94701382Y-65624687D01*
X94638775Y-65700975D01*
X94562487Y-65763582D01*
X94475451Y-65810103D01*
X94381012Y-65838751D01*
X94282800Y-65848424D01*
X94184587Y-65838751D01*
X94090148Y-65810103D01*
X94003113Y-65763582D01*
X93926825Y-65700975D01*
X93864218Y-65624687D01*
X93817697Y-65537651D01*
X93789049Y-65443212D01*
X93781800Y-65369611D01*
X93781801Y-64220388D01*
X93789050Y-64146787D01*
X93817698Y-64052348D01*
X93864219Y-63965313D01*
X93926826Y-63889025D01*
X94003114Y-63826418D01*
X94090149Y-63779897D01*
X94184588Y-63751249D01*
X94282800Y-63741576D01*
X94381013Y-63751249D01*
X94381013Y-63751249D01*
G37*
G36*
X103021013Y-63751249D02*
G01*
X103115452Y-63779897D01*
X103202487Y-63826418D01*
X103278775Y-63889025D01*
X103341382Y-63965313D01*
X103387903Y-64052348D01*
X103416551Y-64146787D01*
X103423800Y-64220388D01*
X103423800Y-65369612D01*
X103416551Y-65443213D01*
X103387903Y-65537652D01*
X103341382Y-65624687D01*
X103278775Y-65700975D01*
X103202487Y-65763582D01*
X103115451Y-65810103D01*
X103021012Y-65838751D01*
X102922800Y-65848424D01*
X102824587Y-65838751D01*
X102730148Y-65810103D01*
X102643113Y-65763582D01*
X102566825Y-65700975D01*
X102504218Y-65624687D01*
X102457697Y-65537651D01*
X102429049Y-65443212D01*
X102421800Y-65369611D01*
X102421801Y-64220388D01*
X102429050Y-64146787D01*
X102457698Y-64052348D01*
X102504219Y-63965313D01*
X102566826Y-63889025D01*
X102643114Y-63826418D01*
X102730149Y-63779897D01*
X102824588Y-63751249D01*
X102922800Y-63741576D01*
X103021013Y-63751249D01*
X103021013Y-63751249D01*
G37*
G36*
X145655999Y-62953737D02*
G01*
X145665608Y-62956652D01*
X145674472Y-62961390D01*
X145682237Y-62967763D01*
X145692448Y-62980206D01*
X145699378Y-62990575D01*
X145716705Y-63007902D01*
X145737080Y-63021515D01*
X145759720Y-63030891D01*
X145783753Y-63035671D01*
X145808257Y-63035670D01*
X145832290Y-63030888D01*
X145854929Y-63021510D01*
X145875302Y-63007895D01*
X145892629Y-62990568D01*
X145899558Y-62980198D01*
X145909763Y-62967763D01*
X145917528Y-62961390D01*
X145926392Y-62956652D01*
X145936001Y-62953737D01*
X145952140Y-62952148D01*
X146439861Y-62952148D01*
X146458199Y-62953954D01*
X146470450Y-62954556D01*
X146488869Y-62954556D01*
X146511149Y-62956750D01*
X146595233Y-62973476D01*
X146616660Y-62979976D01*
X146695858Y-63012780D01*
X146701303Y-63015691D01*
X146701309Y-63015693D01*
X146710169Y-63020429D01*
X146710173Y-63020432D01*
X146715614Y-63023340D01*
X146786899Y-63070971D01*
X146804204Y-63085172D01*
X146864828Y-63145796D01*
X146879029Y-63163101D01*
X146926660Y-63234386D01*
X146929568Y-63239827D01*
X146929571Y-63239831D01*
X146934307Y-63248691D01*
X146934309Y-63248697D01*
X146937220Y-63254142D01*
X146970024Y-63333340D01*
X146976524Y-63354767D01*
X146993250Y-63438851D01*
X146995444Y-63461131D01*
X146995444Y-63479550D01*
X146996046Y-63491801D01*
X146997852Y-63510139D01*
X146997852Y-63997862D01*
X146996046Y-64016199D01*
X146995444Y-64028450D01*
X146995444Y-64046869D01*
X146993250Y-64069149D01*
X146976524Y-64153233D01*
X146970024Y-64174660D01*
X146937220Y-64253858D01*
X146934309Y-64259303D01*
X146934307Y-64259309D01*
X146929571Y-64268169D01*
X146929568Y-64268173D01*
X146926660Y-64273614D01*
X146879029Y-64344899D01*
X146864828Y-64362204D01*
X146804204Y-64422828D01*
X146786899Y-64437029D01*
X146715614Y-64484660D01*
X146710173Y-64487568D01*
X146710169Y-64487571D01*
X146701309Y-64492307D01*
X146701303Y-64492309D01*
X146695858Y-64495220D01*
X146616660Y-64528024D01*
X146595233Y-64534524D01*
X146511149Y-64551250D01*
X146488869Y-64553444D01*
X146470450Y-64553444D01*
X146458199Y-64554046D01*
X146439862Y-64555852D01*
X145952140Y-64555852D01*
X145936001Y-64554263D01*
X145926392Y-64551348D01*
X145917528Y-64546610D01*
X145909763Y-64540237D01*
X145899552Y-64527794D01*
X145892622Y-64517425D01*
X145875295Y-64500098D01*
X145854920Y-64486485D01*
X145832280Y-64477109D01*
X145808247Y-64472329D01*
X145783743Y-64472330D01*
X145759710Y-64477112D01*
X145737071Y-64486490D01*
X145716698Y-64500105D01*
X145699371Y-64517432D01*
X145692442Y-64527802D01*
X145682237Y-64540237D01*
X145674472Y-64546610D01*
X145665608Y-64551348D01*
X145655999Y-64554263D01*
X145639860Y-64555852D01*
X145152138Y-64555852D01*
X145133801Y-64554046D01*
X145121550Y-64553444D01*
X145103131Y-64553444D01*
X145080851Y-64551250D01*
X144996767Y-64534524D01*
X144975340Y-64528024D01*
X144896142Y-64495220D01*
X144890697Y-64492309D01*
X144890691Y-64492307D01*
X144881831Y-64487571D01*
X144881827Y-64487568D01*
X144876386Y-64484660D01*
X144805101Y-64437029D01*
X144787796Y-64422828D01*
X144727172Y-64362204D01*
X144712971Y-64344899D01*
X144665340Y-64273614D01*
X144662432Y-64268173D01*
X144662429Y-64268169D01*
X144657693Y-64259309D01*
X144657691Y-64259303D01*
X144654780Y-64253858D01*
X144621976Y-64174660D01*
X144615476Y-64153233D01*
X144598750Y-64069149D01*
X144596556Y-64046869D01*
X144596556Y-64028450D01*
X144595954Y-64016199D01*
X144594148Y-63997862D01*
X144594148Y-63510139D01*
X144595954Y-63491801D01*
X144596556Y-63479550D01*
X144596556Y-63461131D01*
X144598750Y-63438851D01*
X144615476Y-63354767D01*
X144621976Y-63333340D01*
X144654780Y-63254142D01*
X144657691Y-63248697D01*
X144657693Y-63248691D01*
X144662429Y-63239831D01*
X144662432Y-63239827D01*
X144665340Y-63234386D01*
X144712971Y-63163101D01*
X144727172Y-63145796D01*
X144787796Y-63085172D01*
X144805101Y-63070971D01*
X144876386Y-63023340D01*
X144881827Y-63020432D01*
X144881831Y-63020429D01*
X144890691Y-63015693D01*
X144890697Y-63015691D01*
X144896142Y-63012780D01*
X144975340Y-62979976D01*
X144996767Y-62973476D01*
X145080851Y-62956750D01*
X145103131Y-62954556D01*
X145121550Y-62954556D01*
X145133801Y-62953954D01*
X145152139Y-62952148D01*
X145639860Y-62952148D01*
X145655999Y-62953737D01*
X145655999Y-62953737D01*
G37*
G36*
X92218521Y-62109028D02*
G01*
X92364802Y-62153402D01*
X92499604Y-62225455D01*
X92499607Y-62225457D01*
X92499608Y-62225458D01*
X92617769Y-62322431D01*
X92660363Y-62374331D01*
X92714745Y-62440596D01*
X92786798Y-62575398D01*
X92831172Y-62721679D01*
X92846154Y-62873800D01*
X92831172Y-63025921D01*
X92786798Y-63172202D01*
X92714745Y-63307004D01*
X92714743Y-63307007D01*
X92714742Y-63307008D01*
X92617769Y-63425169D01*
X92507771Y-63515443D01*
X92499604Y-63522145D01*
X92364802Y-63594198D01*
X92218521Y-63638572D01*
X92104518Y-63649800D01*
X91478282Y-63649800D01*
X91364279Y-63638572D01*
X91210610Y-63591957D01*
X91202151Y-63588454D01*
X91178117Y-63583676D01*
X91153613Y-63583678D01*
X91129580Y-63588461D01*
X91106942Y-63597841D01*
X91086569Y-63611456D01*
X91069244Y-63628785D01*
X91055632Y-63649161D01*
X91046257Y-63671800D01*
X91041479Y-63695834D01*
X91041481Y-63720338D01*
X91046264Y-63744371D01*
X91055644Y-63767009D01*
X91069251Y-63787372D01*
X91118207Y-63847025D01*
X91160086Y-63925374D01*
X91185875Y-64010390D01*
X91194582Y-64098800D01*
X91185875Y-64187210D01*
X91160086Y-64272226D01*
X91118207Y-64350575D01*
X91061849Y-64419249D01*
X90993175Y-64475607D01*
X90914826Y-64517486D01*
X90829810Y-64543275D01*
X90763558Y-64549800D01*
X90719242Y-64549800D01*
X90652990Y-64543275D01*
X90567974Y-64517486D01*
X90489625Y-64475607D01*
X90420951Y-64419249D01*
X90364593Y-64350575D01*
X90322714Y-64272226D01*
X90296925Y-64187210D01*
X90288218Y-64098800D01*
X90296925Y-64010390D01*
X90322714Y-63925374D01*
X90364593Y-63847025D01*
X90420951Y-63778351D01*
X90489625Y-63721993D01*
X90567974Y-63680114D01*
X90652990Y-63654325D01*
X90719242Y-63647800D01*
X90763558Y-63647800D01*
X90829812Y-63654325D01*
X90885923Y-63671346D01*
X90909956Y-63676126D01*
X90934460Y-63676126D01*
X90958493Y-63671345D01*
X90981132Y-63661968D01*
X91001506Y-63648354D01*
X91018833Y-63631027D01*
X91032447Y-63610652D01*
X91041824Y-63588013D01*
X91046604Y-63563980D01*
X91046604Y-63539476D01*
X91041823Y-63515443D01*
X91032446Y-63492804D01*
X91018832Y-63472430D01*
X91001505Y-63455103D01*
X90965033Y-63425171D01*
X90902406Y-63348860D01*
X90868058Y-63307008D01*
X90868057Y-63307007D01*
X90868055Y-63307004D01*
X90796002Y-63172202D01*
X90751628Y-63025921D01*
X90736646Y-62873800D01*
X90751628Y-62721679D01*
X90796002Y-62575398D01*
X90868055Y-62440596D01*
X90922438Y-62374331D01*
X90965031Y-62322431D01*
X91083192Y-62225458D01*
X91083193Y-62225457D01*
X91083196Y-62225455D01*
X91217998Y-62153402D01*
X91364279Y-62109028D01*
X91478282Y-62097800D01*
X92104518Y-62097800D01*
X92218521Y-62109028D01*
X92218521Y-62109028D01*
G37*
G36*
X151494442Y-62732518D02*
G01*
X151560627Y-62739037D01*
X151730466Y-62790557D01*
X151886991Y-62874222D01*
X151922729Y-62903552D01*
X152024186Y-62986814D01*
X152096463Y-63074885D01*
X152136778Y-63124009D01*
X152220443Y-63280534D01*
X152271963Y-63450373D01*
X152289359Y-63627000D01*
X152271963Y-63803627D01*
X152220443Y-63973466D01*
X152136778Y-64129991D01*
X152112856Y-64159140D01*
X152024186Y-64267186D01*
X151929491Y-64344899D01*
X151886991Y-64379778D01*
X151730466Y-64463443D01*
X151560627Y-64514963D01*
X151494442Y-64521482D01*
X151428260Y-64528000D01*
X151339740Y-64528000D01*
X151273558Y-64521482D01*
X151207373Y-64514963D01*
X151037534Y-64463443D01*
X150881009Y-64379778D01*
X150838509Y-64344899D01*
X150743814Y-64267186D01*
X150655144Y-64159140D01*
X150631222Y-64129991D01*
X150547557Y-63973466D01*
X150496037Y-63803627D01*
X150478641Y-63627000D01*
X150496037Y-63450373D01*
X150547557Y-63280534D01*
X150631222Y-63124009D01*
X150671537Y-63074885D01*
X150743814Y-62986814D01*
X150845271Y-62903552D01*
X150881009Y-62874222D01*
X151037534Y-62790557D01*
X151207373Y-62739037D01*
X151273558Y-62732518D01*
X151339740Y-62726000D01*
X151428260Y-62726000D01*
X151494442Y-62732518D01*
X151494442Y-62732518D01*
G37*
G36*
X156574442Y-62732518D02*
G01*
X156640627Y-62739037D01*
X156810466Y-62790557D01*
X156966991Y-62874222D01*
X157002729Y-62903552D01*
X157104186Y-62986814D01*
X157176463Y-63074885D01*
X157216778Y-63124009D01*
X157300443Y-63280534D01*
X157351963Y-63450373D01*
X157369359Y-63627000D01*
X157351963Y-63803627D01*
X157300443Y-63973466D01*
X157216778Y-64129991D01*
X157192856Y-64159140D01*
X157104186Y-64267186D01*
X157009491Y-64344899D01*
X156966991Y-64379778D01*
X156810466Y-64463443D01*
X156640627Y-64514963D01*
X156574442Y-64521482D01*
X156508260Y-64528000D01*
X156419740Y-64528000D01*
X156353558Y-64521482D01*
X156287373Y-64514963D01*
X156117534Y-64463443D01*
X155961009Y-64379778D01*
X155918509Y-64344899D01*
X155823814Y-64267186D01*
X155735144Y-64159140D01*
X155711222Y-64129991D01*
X155627557Y-63973466D01*
X155576037Y-63803627D01*
X155558641Y-63627000D01*
X155576037Y-63450373D01*
X155627557Y-63280534D01*
X155711222Y-63124009D01*
X155751537Y-63074885D01*
X155823814Y-62986814D01*
X155925271Y-62903552D01*
X155961009Y-62874222D01*
X156117534Y-62790557D01*
X156287373Y-62739037D01*
X156353558Y-62732518D01*
X156419740Y-62726000D01*
X156508260Y-62726000D01*
X156574442Y-62732518D01*
X156574442Y-62732518D01*
G37*
G36*
X154034442Y-62732518D02*
G01*
X154100627Y-62739037D01*
X154270466Y-62790557D01*
X154426991Y-62874222D01*
X154462729Y-62903552D01*
X154564186Y-62986814D01*
X154636463Y-63074885D01*
X154676778Y-63124009D01*
X154760443Y-63280534D01*
X154811963Y-63450373D01*
X154829359Y-63627000D01*
X154811963Y-63803627D01*
X154760443Y-63973466D01*
X154676778Y-64129991D01*
X154652856Y-64159140D01*
X154564186Y-64267186D01*
X154469491Y-64344899D01*
X154426991Y-64379778D01*
X154270466Y-64463443D01*
X154100627Y-64514963D01*
X154034442Y-64521482D01*
X153968260Y-64528000D01*
X153879740Y-64528000D01*
X153813558Y-64521482D01*
X153747373Y-64514963D01*
X153577534Y-64463443D01*
X153421009Y-64379778D01*
X153378509Y-64344899D01*
X153283814Y-64267186D01*
X153195144Y-64159140D01*
X153171222Y-64129991D01*
X153087557Y-63973466D01*
X153036037Y-63803627D01*
X153018641Y-63627000D01*
X153036037Y-63450373D01*
X153087557Y-63280534D01*
X153171222Y-63124009D01*
X153211537Y-63074885D01*
X153283814Y-62986814D01*
X153385271Y-62903552D01*
X153421009Y-62874222D01*
X153577534Y-62790557D01*
X153747373Y-62739037D01*
X153813558Y-62732518D01*
X153879740Y-62726000D01*
X153968260Y-62726000D01*
X154034442Y-62732518D01*
X154034442Y-62732518D01*
G37*
G36*
X88439115Y-62106858D02*
G01*
X88557122Y-62142655D01*
X88665868Y-62200781D01*
X88761190Y-62279010D01*
X88839419Y-62374332D01*
X88897545Y-62483078D01*
X88933342Y-62601085D01*
X88945428Y-62723800D01*
X88933342Y-62846515D01*
X88897545Y-62964522D01*
X88839419Y-63073268D01*
X88761190Y-63168590D01*
X88665868Y-63246819D01*
X88557122Y-63304945D01*
X88557119Y-63304946D01*
X88550321Y-63307008D01*
X88439115Y-63340742D01*
X88347146Y-63349800D01*
X87635654Y-63349800D01*
X87543685Y-63340742D01*
X87432479Y-63307008D01*
X87425681Y-63304946D01*
X87425678Y-63304945D01*
X87316932Y-63246819D01*
X87221610Y-63168590D01*
X87143381Y-63073268D01*
X87085255Y-62964522D01*
X87049458Y-62846515D01*
X87037372Y-62723800D01*
X87049458Y-62601085D01*
X87085255Y-62483078D01*
X87143381Y-62374332D01*
X87221610Y-62279010D01*
X87316932Y-62200781D01*
X87425678Y-62142655D01*
X87543685Y-62106858D01*
X87635654Y-62097800D01*
X88347146Y-62097800D01*
X88439115Y-62106858D01*
X88439115Y-62106858D01*
G37*
G36*
X174706564Y-60089389D02*
G01*
X174897833Y-60168615D01*
X174897835Y-60168616D01*
X175069973Y-60283635D01*
X175216365Y-60430027D01*
X175319253Y-60584009D01*
X175331385Y-60602167D01*
X175410611Y-60793436D01*
X175451000Y-60996484D01*
X175451000Y-61203516D01*
X175410611Y-61406564D01*
X175360135Y-61528423D01*
X175331384Y-61597835D01*
X175216365Y-61769973D01*
X175069973Y-61916365D01*
X174897835Y-62031384D01*
X174897834Y-62031385D01*
X174897833Y-62031385D01*
X174706564Y-62110611D01*
X174503516Y-62151000D01*
X174296484Y-62151000D01*
X174093436Y-62110611D01*
X173902167Y-62031385D01*
X173902166Y-62031385D01*
X173902165Y-62031384D01*
X173730027Y-61916365D01*
X173583635Y-61769973D01*
X173468616Y-61597835D01*
X173439865Y-61528423D01*
X173389389Y-61406564D01*
X173349000Y-61203516D01*
X173349000Y-60996484D01*
X173389389Y-60793436D01*
X173468615Y-60602167D01*
X173480748Y-60584009D01*
X173583635Y-60430027D01*
X173730027Y-60283635D01*
X173902165Y-60168616D01*
X173902167Y-60168615D01*
X174093436Y-60089389D01*
X174296484Y-60049000D01*
X174503516Y-60049000D01*
X174706564Y-60089389D01*
X174706564Y-60089389D01*
G37*
G36*
X177951000Y-62151000D02*
G01*
X175849000Y-62151000D01*
X175849000Y-60049000D01*
X177951000Y-60049000D01*
X177951000Y-62151000D01*
X177951000Y-62151000D01*
G37*
G36*
X172206564Y-60089389D02*
G01*
X172397833Y-60168615D01*
X172397835Y-60168616D01*
X172569973Y-60283635D01*
X172716365Y-60430027D01*
X172819253Y-60584009D01*
X172831385Y-60602167D01*
X172910611Y-60793436D01*
X172951000Y-60996484D01*
X172951000Y-61203516D01*
X172910611Y-61406564D01*
X172860135Y-61528423D01*
X172831384Y-61597835D01*
X172716365Y-61769973D01*
X172569973Y-61916365D01*
X172397835Y-62031384D01*
X172397834Y-62031385D01*
X172397833Y-62031385D01*
X172206564Y-62110611D01*
X172003516Y-62151000D01*
X171796484Y-62151000D01*
X171593436Y-62110611D01*
X171402167Y-62031385D01*
X171402166Y-62031385D01*
X171402165Y-62031384D01*
X171230027Y-61916365D01*
X171083635Y-61769973D01*
X170968616Y-61597835D01*
X170939865Y-61528423D01*
X170889389Y-61406564D01*
X170849000Y-61203516D01*
X170849000Y-60996484D01*
X170889389Y-60793436D01*
X170968615Y-60602167D01*
X170980748Y-60584009D01*
X171083635Y-60430027D01*
X171230027Y-60283635D01*
X171402165Y-60168616D01*
X171402167Y-60168615D01*
X171593436Y-60089389D01*
X171796484Y-60049000D01*
X172003516Y-60049000D01*
X172206564Y-60089389D01*
X172206564Y-60089389D01*
G37*
G36*
X151494443Y-60192519D02*
G01*
X151560627Y-60199037D01*
X151730466Y-60250557D01*
X151886991Y-60334222D01*
X151922729Y-60363552D01*
X152024186Y-60446814D01*
X152082082Y-60517362D01*
X152136778Y-60584009D01*
X152220443Y-60740534D01*
X152271963Y-60910373D01*
X152289359Y-61087000D01*
X152271963Y-61263627D01*
X152228603Y-61406565D01*
X152220442Y-61433468D01*
X152215036Y-61443582D01*
X152136778Y-61589991D01*
X152107448Y-61625729D01*
X152024186Y-61727186D01*
X151922729Y-61810448D01*
X151886991Y-61839778D01*
X151730466Y-61923443D01*
X151560627Y-61974963D01*
X151494443Y-61981481D01*
X151428260Y-61988000D01*
X151339740Y-61988000D01*
X151273557Y-61981481D01*
X151207373Y-61974963D01*
X151037534Y-61923443D01*
X150881009Y-61839778D01*
X150845271Y-61810448D01*
X150743814Y-61727186D01*
X150660552Y-61625729D01*
X150631222Y-61589991D01*
X150552964Y-61443582D01*
X150547558Y-61433468D01*
X150539397Y-61406565D01*
X150496037Y-61263627D01*
X150478641Y-61087000D01*
X150496037Y-60910373D01*
X150547557Y-60740534D01*
X150631222Y-60584009D01*
X150685918Y-60517362D01*
X150743814Y-60446814D01*
X150845271Y-60363552D01*
X150881009Y-60334222D01*
X151037534Y-60250557D01*
X151207373Y-60199037D01*
X151273557Y-60192519D01*
X151339740Y-60186000D01*
X151428260Y-60186000D01*
X151494443Y-60192519D01*
X151494443Y-60192519D01*
G37*
G36*
X154034443Y-60192519D02*
G01*
X154100627Y-60199037D01*
X154270466Y-60250557D01*
X154426991Y-60334222D01*
X154462729Y-60363552D01*
X154564186Y-60446814D01*
X154622082Y-60517362D01*
X154676778Y-60584009D01*
X154760443Y-60740534D01*
X154811963Y-60910373D01*
X154829359Y-61087000D01*
X154811963Y-61263627D01*
X154768603Y-61406565D01*
X154760442Y-61433468D01*
X154755036Y-61443582D01*
X154676778Y-61589991D01*
X154647448Y-61625729D01*
X154564186Y-61727186D01*
X154462729Y-61810448D01*
X154426991Y-61839778D01*
X154270466Y-61923443D01*
X154100627Y-61974963D01*
X154034443Y-61981481D01*
X153968260Y-61988000D01*
X153879740Y-61988000D01*
X153813557Y-61981481D01*
X153747373Y-61974963D01*
X153577534Y-61923443D01*
X153421009Y-61839778D01*
X153385271Y-61810448D01*
X153283814Y-61727186D01*
X153200552Y-61625729D01*
X153171222Y-61589991D01*
X153092964Y-61443582D01*
X153087558Y-61433468D01*
X153079397Y-61406565D01*
X153036037Y-61263627D01*
X153018641Y-61087000D01*
X153036037Y-60910373D01*
X153087557Y-60740534D01*
X153171222Y-60584009D01*
X153225918Y-60517362D01*
X153283814Y-60446814D01*
X153385271Y-60363552D01*
X153421009Y-60334222D01*
X153577534Y-60250557D01*
X153747373Y-60199037D01*
X153813557Y-60192519D01*
X153879740Y-60186000D01*
X153968260Y-60186000D01*
X154034443Y-60192519D01*
X154034443Y-60192519D01*
G37*
G36*
X157365000Y-61988000D02*
G01*
X155563000Y-61988000D01*
X155563000Y-60186000D01*
X157365000Y-60186000D01*
X157365000Y-61988000D01*
X157365000Y-61988000D01*
G37*
G36*
X94381013Y-59731249D02*
G01*
X94475452Y-59759897D01*
X94562487Y-59806418D01*
X94638775Y-59869025D01*
X94701382Y-59945313D01*
X94747903Y-60032348D01*
X94776551Y-60126787D01*
X94783800Y-60200388D01*
X94783800Y-61049612D01*
X94776551Y-61123213D01*
X94747903Y-61217652D01*
X94701382Y-61304687D01*
X94638775Y-61380975D01*
X94562487Y-61443582D01*
X94475451Y-61490103D01*
X94381012Y-61518751D01*
X94282800Y-61528424D01*
X94184587Y-61518751D01*
X94090148Y-61490103D01*
X94003113Y-61443582D01*
X93926825Y-61380975D01*
X93864218Y-61304687D01*
X93817697Y-61217651D01*
X93789049Y-61123212D01*
X93781800Y-61049611D01*
X93781800Y-60200398D01*
X93789050Y-60126786D01*
X93812647Y-60049000D01*
X93817698Y-60032348D01*
X93864219Y-59945313D01*
X93926826Y-59869025D01*
X94003114Y-59806418D01*
X94090149Y-59759897D01*
X94184588Y-59731249D01*
X94282800Y-59721576D01*
X94381013Y-59731249D01*
X94381013Y-59731249D01*
G37*
G36*
X103021013Y-59731249D02*
G01*
X103115452Y-59759897D01*
X103202487Y-59806418D01*
X103278775Y-59869025D01*
X103341382Y-59945313D01*
X103387903Y-60032348D01*
X103416551Y-60126787D01*
X103423800Y-60200388D01*
X103423800Y-61049612D01*
X103416551Y-61123213D01*
X103387903Y-61217652D01*
X103341382Y-61304687D01*
X103278775Y-61380975D01*
X103202487Y-61443582D01*
X103115451Y-61490103D01*
X103021012Y-61518751D01*
X102922800Y-61528424D01*
X102824587Y-61518751D01*
X102730148Y-61490103D01*
X102643113Y-61443582D01*
X102566825Y-61380975D01*
X102504218Y-61304687D01*
X102457697Y-61217651D01*
X102429049Y-61123212D01*
X102421800Y-61049611D01*
X102421800Y-60200398D01*
X102429050Y-60126786D01*
X102452647Y-60049000D01*
X102457698Y-60032348D01*
X102504219Y-59945313D01*
X102566826Y-59869025D01*
X102643114Y-59806418D01*
X102730149Y-59759897D01*
X102824588Y-59731249D01*
X102922800Y-59721576D01*
X103021013Y-59731249D01*
X103021013Y-59731249D01*
G37*
G36*
X147085499Y-59676445D02*
G01*
X147122995Y-59687820D01*
X147157554Y-59706292D01*
X147187847Y-59731153D01*
X147212708Y-59761446D01*
X147231180Y-59796005D01*
X147242555Y-59833501D01*
X147247000Y-59878638D01*
X147247000Y-60517362D01*
X147242555Y-60562499D01*
X147231180Y-60599995D01*
X147212708Y-60634554D01*
X147187847Y-60664847D01*
X147157554Y-60689708D01*
X147122995Y-60708180D01*
X147085499Y-60719555D01*
X147040362Y-60724000D01*
X146301638Y-60724000D01*
X146256501Y-60719555D01*
X146219005Y-60708180D01*
X146184446Y-60689708D01*
X146154153Y-60664847D01*
X146129292Y-60634554D01*
X146110820Y-60599995D01*
X146099445Y-60562499D01*
X146095000Y-60517362D01*
X146095000Y-59878638D01*
X146099445Y-59833501D01*
X146110820Y-59796005D01*
X146129292Y-59761446D01*
X146154153Y-59731153D01*
X146184446Y-59706292D01*
X146219005Y-59687820D01*
X146256501Y-59676445D01*
X146301638Y-59672000D01*
X147040362Y-59672000D01*
X147085499Y-59676445D01*
X147085499Y-59676445D01*
G37*
G36*
X145335499Y-59676445D02*
G01*
X145372995Y-59687820D01*
X145407554Y-59706292D01*
X145437847Y-59731153D01*
X145462708Y-59761446D01*
X145481180Y-59796005D01*
X145492555Y-59833501D01*
X145497000Y-59878638D01*
X145497000Y-60517362D01*
X145492555Y-60562499D01*
X145481180Y-60599995D01*
X145462708Y-60634554D01*
X145437847Y-60664847D01*
X145407554Y-60689708D01*
X145372995Y-60708180D01*
X145335499Y-60719555D01*
X145290362Y-60724000D01*
X144551638Y-60724000D01*
X144506501Y-60719555D01*
X144469005Y-60708180D01*
X144434446Y-60689708D01*
X144404153Y-60664847D01*
X144379292Y-60634554D01*
X144360820Y-60599995D01*
X144349445Y-60562499D01*
X144345000Y-60517362D01*
X144345000Y-59878638D01*
X144349445Y-59833501D01*
X144360820Y-59796005D01*
X144379292Y-59761446D01*
X144404153Y-59731153D01*
X144434446Y-59706292D01*
X144469005Y-59687820D01*
X144506501Y-59676445D01*
X144551638Y-59672000D01*
X145290362Y-59672000D01*
X145335499Y-59676445D01*
X145335499Y-59676445D01*
G37*
G36*
X89216041Y-54115253D02*
G01*
X89298257Y-54131607D01*
X89362414Y-54158182D01*
X89453146Y-54195764D01*
X89592544Y-54288907D01*
X89711093Y-54407456D01*
X89804236Y-54546854D01*
X89868393Y-54701744D01*
X89901100Y-54866173D01*
X89901100Y-55033827D01*
X89868393Y-55198256D01*
X89804236Y-55353146D01*
X89711093Y-55492544D01*
X89592544Y-55611093D01*
X89453146Y-55704236D01*
X89362414Y-55741818D01*
X89298257Y-55768393D01*
X89216041Y-55784747D01*
X89133827Y-55801100D01*
X88966173Y-55801100D01*
X88883959Y-55784747D01*
X88801743Y-55768393D01*
X88737586Y-55741818D01*
X88646854Y-55704236D01*
X88507456Y-55611093D01*
X88388907Y-55492544D01*
X88295764Y-55353146D01*
X88231607Y-55198256D01*
X88198900Y-55033827D01*
X88198900Y-54866173D01*
X88231607Y-54701744D01*
X88295764Y-54546854D01*
X88388907Y-54407456D01*
X88507456Y-54288907D01*
X88646854Y-54195764D01*
X88737586Y-54158182D01*
X88801743Y-54131607D01*
X88883959Y-54115253D01*
X88966173Y-54098900D01*
X89133827Y-54098900D01*
X89216041Y-54115253D01*
X89216041Y-54115253D01*
G37*
G36*
X124420795Y-51940156D02*
G01*
X124527150Y-51961311D01*
X124627334Y-52002809D01*
X124727520Y-52044307D01*
X124907844Y-52164795D01*
X125061205Y-52318156D01*
X125181693Y-52498480D01*
X125264689Y-52698851D01*
X125307000Y-52911560D01*
X125307000Y-53128440D01*
X125264689Y-53341149D01*
X125181693Y-53541520D01*
X125061205Y-53721844D01*
X124907844Y-53875205D01*
X124727520Y-53995693D01*
X124527150Y-54078689D01*
X124425543Y-54098900D01*
X124314440Y-54121000D01*
X124097560Y-54121000D01*
X123986457Y-54098900D01*
X123884850Y-54078689D01*
X123684480Y-53995693D01*
X123504156Y-53875205D01*
X123350795Y-53721844D01*
X123230307Y-53541520D01*
X123147311Y-53341149D01*
X123105000Y-53128440D01*
X123105000Y-52911560D01*
X123147311Y-52698851D01*
X123230307Y-52498480D01*
X123350795Y-52318156D01*
X123504156Y-52164795D01*
X123684480Y-52044307D01*
X123784666Y-52002809D01*
X123884850Y-51961311D01*
X123991205Y-51940156D01*
X124097560Y-51919000D01*
X124314440Y-51919000D01*
X124420795Y-51940156D01*
X124420795Y-51940156D01*
G37*
G36*
X181998795Y-51940156D02*
G01*
X182105150Y-51961311D01*
X182205334Y-52002809D01*
X182305520Y-52044307D01*
X182485844Y-52164795D01*
X182639205Y-52318156D01*
X182759693Y-52498480D01*
X182842689Y-52698851D01*
X182885000Y-52911560D01*
X182885000Y-53128440D01*
X182842689Y-53341149D01*
X182759693Y-53541520D01*
X182639205Y-53721844D01*
X182485844Y-53875205D01*
X182305520Y-53995693D01*
X182105150Y-54078689D01*
X182003543Y-54098900D01*
X181892440Y-54121000D01*
X181675560Y-54121000D01*
X181564457Y-54098900D01*
X181462850Y-54078689D01*
X181262480Y-53995693D01*
X181082156Y-53875205D01*
X180928795Y-53721844D01*
X180808307Y-53541520D01*
X180725311Y-53341149D01*
X180683000Y-53128440D01*
X180683000Y-52911560D01*
X180725311Y-52698851D01*
X180808307Y-52498480D01*
X180928795Y-52318156D01*
X181082156Y-52164795D01*
X181262480Y-52044307D01*
X181362666Y-52002809D01*
X181462850Y-51961311D01*
X181569205Y-51940156D01*
X181675560Y-51919000D01*
X181892440Y-51919000D01*
X181998795Y-51940156D01*
X181998795Y-51940156D01*
G37*
G36*
X156423595Y-44785546D02*
G01*
X156596666Y-44857234D01*
X156702476Y-44927934D01*
X156724087Y-44939485D01*
X156747536Y-44946598D01*
X156771922Y-44949000D01*
X157051000Y-44949000D01*
X157051000Y-45374434D01*
X157053402Y-45398820D01*
X157060515Y-45422269D01*
X157060654Y-45422605D01*
X157097200Y-45606333D01*
X157097200Y-45793667D01*
X157060654Y-45977395D01*
X157060515Y-45977731D01*
X157053402Y-46001180D01*
X157051000Y-46025566D01*
X157051000Y-47974434D01*
X157053402Y-47998820D01*
X157060515Y-48022269D01*
X157060654Y-48022605D01*
X157097200Y-48206333D01*
X157097200Y-48393667D01*
X157060654Y-48577395D01*
X157060515Y-48577731D01*
X157053402Y-48601180D01*
X157051000Y-48625566D01*
X157051000Y-49051000D01*
X156771922Y-49051000D01*
X156747536Y-49053402D01*
X156724087Y-49060515D01*
X156702476Y-49072066D01*
X156596666Y-49142766D01*
X156423595Y-49214454D01*
X156239867Y-49251000D01*
X156052533Y-49251000D01*
X155868805Y-49214454D01*
X155695734Y-49142766D01*
X155589924Y-49072066D01*
X155568313Y-49060515D01*
X155544864Y-49053402D01*
X155520478Y-49051000D01*
X153949000Y-49051000D01*
X153949000Y-44949000D01*
X155520478Y-44949000D01*
X155544864Y-44946598D01*
X155568313Y-44939485D01*
X155589924Y-44927934D01*
X155695734Y-44857234D01*
X155868805Y-44785546D01*
X156052533Y-44749000D01*
X156239867Y-44749000D01*
X156423595Y-44785546D01*
X156423595Y-44785546D01*
G37*
G36*
X150631195Y-44785546D02*
G01*
X150804266Y-44857234D01*
X150910076Y-44927934D01*
X150931687Y-44939485D01*
X150955136Y-44946598D01*
X150979522Y-44949000D01*
X152551000Y-44949000D01*
X152551000Y-49051000D01*
X150979522Y-49051000D01*
X150955136Y-49053402D01*
X150931687Y-49060515D01*
X150910076Y-49072066D01*
X150804266Y-49142766D01*
X150631195Y-49214454D01*
X150447467Y-49251000D01*
X150260133Y-49251000D01*
X150076405Y-49214454D01*
X149903334Y-49142766D01*
X149797524Y-49072066D01*
X149775913Y-49060515D01*
X149752464Y-49053402D01*
X149728078Y-49051000D01*
X149449000Y-49051000D01*
X149449000Y-48625566D01*
X149446598Y-48601180D01*
X149439485Y-48577731D01*
X149439346Y-48577395D01*
X149402800Y-48393667D01*
X149402800Y-48206333D01*
X149439346Y-48022605D01*
X149439485Y-48022269D01*
X149446598Y-47998820D01*
X149449000Y-47974434D01*
X149449000Y-46025566D01*
X149446598Y-46001180D01*
X149439485Y-45977731D01*
X149439346Y-45977395D01*
X149402800Y-45793667D01*
X149402800Y-45606333D01*
X149439346Y-45422605D01*
X149439485Y-45422269D01*
X149446598Y-45398820D01*
X149449000Y-45374434D01*
X149449000Y-44949000D01*
X149728078Y-44949000D01*
X149752464Y-44946598D01*
X149775913Y-44939485D01*
X149797524Y-44927934D01*
X149903334Y-44857234D01*
X150076405Y-44785546D01*
X150260133Y-44749000D01*
X150447467Y-44749000D01*
X150631195Y-44785546D01*
X150631195Y-44785546D01*
G37*
G36*
X181051000Y-49051000D02*
G01*
X177949000Y-49051000D01*
X177949000Y-47505451D01*
X177946598Y-47481065D01*
X177939485Y-47457616D01*
X177885546Y-47327395D01*
X177849000Y-47143667D01*
X177849000Y-46956333D01*
X177885546Y-46772605D01*
X177939485Y-46642384D01*
X177946598Y-46618935D01*
X177949000Y-46594549D01*
X177949000Y-44949000D01*
X181051000Y-44949000D01*
X181051000Y-49051000D01*
X181051000Y-49051000D01*
G37*
G36*
X128551000Y-46494549D02*
G01*
X128553402Y-46518935D01*
X128560515Y-46542384D01*
X128614454Y-46672605D01*
X128651000Y-46856333D01*
X128651000Y-47043667D01*
X128614454Y-47227395D01*
X128560515Y-47357616D01*
X128553402Y-47381065D01*
X128551000Y-47405451D01*
X128551000Y-49051000D01*
X125449000Y-49051000D01*
X125449000Y-44949000D01*
X128551000Y-44949000D01*
X128551000Y-46494549D01*
X128551000Y-46494549D01*
G37*
G36*
X124420794Y-40560155D02*
G01*
X124527150Y-40581311D01*
X124627334Y-40622809D01*
X124727520Y-40664307D01*
X124907844Y-40784795D01*
X125061205Y-40938156D01*
X125181693Y-41118480D01*
X125264689Y-41318851D01*
X125307000Y-41531560D01*
X125307000Y-41748440D01*
X125264689Y-41961149D01*
X125181693Y-42161520D01*
X125061205Y-42341844D01*
X124907844Y-42495205D01*
X124727520Y-42615693D01*
X124527150Y-42698689D01*
X124420794Y-42719845D01*
X124314440Y-42741000D01*
X124097560Y-42741000D01*
X123991205Y-42719844D01*
X123884850Y-42698689D01*
X123684480Y-42615693D01*
X123504156Y-42495205D01*
X123350795Y-42341844D01*
X123230307Y-42161520D01*
X123147311Y-41961149D01*
X123105000Y-41748440D01*
X123105000Y-41531560D01*
X123147311Y-41318851D01*
X123230307Y-41118480D01*
X123350795Y-40938156D01*
X123504156Y-40784795D01*
X123684480Y-40664307D01*
X123784666Y-40622809D01*
X123884850Y-40581311D01*
X123991205Y-40560156D01*
X124097560Y-40539000D01*
X124314440Y-40539000D01*
X124420794Y-40560155D01*
X124420794Y-40560155D01*
G37*
G36*
X181998794Y-40560155D02*
G01*
X182105150Y-40581311D01*
X182205334Y-40622809D01*
X182305520Y-40664307D01*
X182485844Y-40784795D01*
X182639205Y-40938156D01*
X182759693Y-41118480D01*
X182842689Y-41318851D01*
X182885000Y-41531560D01*
X182885000Y-41748440D01*
X182842689Y-41961149D01*
X182759693Y-42161520D01*
X182639205Y-42341844D01*
X182485844Y-42495205D01*
X182305520Y-42615693D01*
X182105150Y-42698689D01*
X181998794Y-42719845D01*
X181892440Y-42741000D01*
X181675560Y-42741000D01*
X181569205Y-42719844D01*
X181462850Y-42698689D01*
X181262480Y-42615693D01*
X181082156Y-42495205D01*
X180928795Y-42341844D01*
X180808307Y-42161520D01*
X180725311Y-41961149D01*
X180683000Y-41748440D01*
X180683000Y-41531560D01*
X180725311Y-41318851D01*
X180808307Y-41118480D01*
X180928795Y-40938156D01*
X181082156Y-40784795D01*
X181262480Y-40664307D01*
X181362666Y-40622809D01*
X181462850Y-40581311D01*
X181569205Y-40560156D01*
X181675560Y-40539000D01*
X181892440Y-40539000D01*
X181998794Y-40560155D01*
X181998794Y-40560155D01*
G37*
G36*
X152751000Y-41431000D02*
G01*
X151949000Y-41431000D01*
X151949000Y-39829000D01*
X152751000Y-39829000D01*
X152751000Y-41431000D01*
X152751000Y-41431000D01*
G37*
G36*
X151251000Y-41431000D02*
G01*
X150449000Y-41431000D01*
X150449000Y-39829000D01*
X151251000Y-39829000D01*
X151251000Y-41431000D01*
X151251000Y-41431000D01*
G37*
G36*
X155751000Y-41431000D02*
G01*
X154949000Y-41431000D01*
X154949000Y-39829000D01*
X155751000Y-39829000D01*
X155751000Y-41431000D01*
X155751000Y-41431000D01*
G37*
G36*
X89316042Y-38915254D02*
G01*
X89398257Y-38931607D01*
X89462414Y-38958182D01*
X89553146Y-38995764D01*
X89692544Y-39088907D01*
X89811093Y-39207456D01*
X89904236Y-39346854D01*
X89968393Y-39501744D01*
X90001100Y-39666173D01*
X90001100Y-39833827D01*
X89968393Y-39998256D01*
X89904236Y-40153146D01*
X89811093Y-40292544D01*
X89692544Y-40411093D01*
X89553146Y-40504236D01*
X89462414Y-40541818D01*
X89398257Y-40568393D01*
X89333313Y-40581311D01*
X89233827Y-40601100D01*
X89066173Y-40601100D01*
X88966687Y-40581311D01*
X88901743Y-40568393D01*
X88837586Y-40541818D01*
X88746854Y-40504236D01*
X88607456Y-40411093D01*
X88488907Y-40292544D01*
X88395764Y-40153146D01*
X88331607Y-39998256D01*
X88298900Y-39833827D01*
X88298900Y-39666173D01*
X88331607Y-39501744D01*
X88395764Y-39346854D01*
X88488907Y-39207456D01*
X88607456Y-39088907D01*
X88746854Y-38995764D01*
X88837586Y-38958182D01*
X88901743Y-38931607D01*
X88983958Y-38915254D01*
X89066173Y-38898900D01*
X89233827Y-38898900D01*
X89316042Y-38915254D01*
X89316042Y-38915254D01*
G37*
G36*
X157301000Y-40431000D02*
G01*
X156199000Y-40431000D01*
X156199000Y-39529000D01*
X157301000Y-39529000D01*
X157301000Y-40431000D01*
X157301000Y-40431000D01*
G37*
G36*
X150001000Y-40431000D02*
G01*
X148899000Y-40431000D01*
X148899000Y-39529000D01*
X150001000Y-39529000D01*
X150001000Y-40431000D01*
X150001000Y-40431000D01*
G37*
G36*
X151697740Y-38378627D02*
G01*
X151746136Y-38388253D01*
X151783902Y-38403896D01*
X151837311Y-38426019D01*
X151837312Y-38426020D01*
X151919369Y-38480848D01*
X151989152Y-38550631D01*
X151989153Y-38550633D01*
X152043981Y-38632689D01*
X152081747Y-38723865D01*
X152101000Y-38820655D01*
X152101000Y-38919345D01*
X152081747Y-39016135D01*
X152043981Y-39107311D01*
X152043980Y-39107312D01*
X151989152Y-39189369D01*
X151919369Y-39259152D01*
X151878062Y-39286752D01*
X151837311Y-39313981D01*
X151783902Y-39336104D01*
X151746136Y-39351747D01*
X151697740Y-39361373D01*
X151649345Y-39371000D01*
X151550655Y-39371000D01*
X151502260Y-39361374D01*
X151453864Y-39351747D01*
X151416098Y-39336104D01*
X151362689Y-39313981D01*
X151321938Y-39286752D01*
X151280631Y-39259152D01*
X151210848Y-39189369D01*
X151156020Y-39107312D01*
X151156019Y-39107311D01*
X151118253Y-39016135D01*
X151099000Y-38919345D01*
X151099000Y-38820655D01*
X151118253Y-38723865D01*
X151156019Y-38632689D01*
X151210847Y-38550633D01*
X151210848Y-38550631D01*
X151280631Y-38480848D01*
X151362688Y-38426020D01*
X151362689Y-38426019D01*
X151416098Y-38403896D01*
X151453864Y-38388253D01*
X151502260Y-38378627D01*
X151550655Y-38369000D01*
X151649345Y-38369000D01*
X151697740Y-38378627D01*
X151697740Y-38378627D01*
G37*
G36*
X154697740Y-38378627D02*
G01*
X154746136Y-38388253D01*
X154783902Y-38403896D01*
X154837311Y-38426019D01*
X154837312Y-38426020D01*
X154919369Y-38480848D01*
X154989152Y-38550631D01*
X154989153Y-38550633D01*
X155043981Y-38632689D01*
X155081747Y-38723865D01*
X155101000Y-38820655D01*
X155101000Y-38919345D01*
X155081747Y-39016135D01*
X155043981Y-39107311D01*
X155043980Y-39107312D01*
X154989152Y-39189369D01*
X154919369Y-39259152D01*
X154878062Y-39286752D01*
X154837311Y-39313981D01*
X154783902Y-39336104D01*
X154746136Y-39351747D01*
X154697740Y-39361373D01*
X154649345Y-39371000D01*
X154550655Y-39371000D01*
X154502260Y-39361374D01*
X154453864Y-39351747D01*
X154416098Y-39336104D01*
X154362689Y-39313981D01*
X154321938Y-39286752D01*
X154280631Y-39259152D01*
X154210848Y-39189369D01*
X154156020Y-39107312D01*
X154156019Y-39107311D01*
X154118253Y-39016135D01*
X154099000Y-38919345D01*
X154099000Y-38820655D01*
X154118253Y-38723865D01*
X154156019Y-38632689D01*
X154210847Y-38550633D01*
X154210848Y-38550631D01*
X154280631Y-38480848D01*
X154362688Y-38426020D01*
X154362689Y-38426019D01*
X154416098Y-38403896D01*
X154453864Y-38388253D01*
X154502260Y-38378627D01*
X154550655Y-38369000D01*
X154649345Y-38369000D01*
X154697740Y-38378627D01*
X154697740Y-38378627D01*
G37*
G36*
X150001000Y-38221000D02*
G01*
X148899000Y-38221000D01*
X148899000Y-37319000D01*
X150001000Y-37319000D01*
X150001000Y-38221000D01*
X150001000Y-38221000D01*
G37*
G36*
X157301000Y-38221000D02*
G01*
X156199000Y-38221000D01*
X156199000Y-37319000D01*
X157301000Y-37319000D01*
X157301000Y-38221000D01*
X157301000Y-38221000D01*
G37*
M02*
