G04 #@! TF.GenerationSoftware,KiCad,Pcbnew,(5.1.4-0-10_14)*
G04 #@! TF.CreationDate,2019-10-30T02:42:43+09:00*
G04 #@! TF.ProjectId,nilgiri,6e696c67-6972-4692-9e6b-696361645f70,rev?*
G04 #@! TF.SameCoordinates,Original*
G04 #@! TF.FileFunction,Legend,Bot*
G04 #@! TF.FilePolarity,Positive*
%FSLAX46Y46*%
G04 Gerber Fmt 4.6, Leading zero omitted, Abs format (unit mm)*
G04 Created by KiCad (PCBNEW (5.1.4-0-10_14)) date 2019-10-30 02:42:43*
%MOMM*%
%LPD*%
G04 APERTURE LIST*
%ADD10C,0.400000*%
%ADD11C,0.200000*%
%ADD12C,0.120000*%
%ADD13C,0.254000*%
%ADD14C,0.203200*%
%ADD15C,0.150000*%
%ADD16C,1.902000*%
%ADD17C,2.302000*%
%ADD18C,4.102000*%
%ADD19C,2.002000*%
%ADD20C,1.802000*%
%ADD21C,1.102000*%
%ADD22O,1.002000X2.102000*%
%ADD23O,1.002000X1.802000*%
%ADD24C,0.702000*%
%ADD25C,4.202000*%
%ADD26C,2.202000*%
%ADD27C,1.702200*%
%ADD28R,1.302000X1.302000*%
%ADD29C,0.100000*%
%ADD30C,1.452000*%
%ADD31C,1.626000*%
%ADD32C,1.002000*%
%ADD33C,2.102000*%
%ADD34O,2.102000X1.552000*%
%ADD35O,1.902000X1.252000*%
%ADD36O,0.902000X0.902000*%
%ADD37R,2.102000X3.302000*%
%ADD38R,2.102000X2.102000*%
%ADD39C,1.052000*%
%ADD40C,1.302000*%
%ADD41C,0.900000*%
%ADD42R,1.052000X1.402000*%
%ADD43C,1.499000*%
%ADD44R,1.499000X1.499000*%
%ADD45C,1.527000*%
%ADD46O,1.802000X1.802000*%
%ADD47R,1.802000X1.802000*%
G04 APERTURE END LIST*
D10*
X104870000Y-111302800D02*
G75*
G03X104870000Y-111302800I-2000000J0D01*
G01*
X182784000Y-53020000D02*
G75*
G03X182784000Y-53020000I-1000000J0D01*
G01*
X182784000Y-41640000D02*
G75*
G03X182784000Y-41640000I-1000000J0D01*
G01*
X125206000Y-53020000D02*
G75*
G03X125206000Y-53020000I-1000000J0D01*
G01*
X125206000Y-41640000D02*
G75*
G03X125206000Y-41640000I-1000000J0D01*
G01*
D11*
X166684000Y-51294000D02*
X166684000Y-46494000D01*
X166684000Y-46494000D02*
X165284000Y-46494000D01*
X165284000Y-51294000D02*
X165284000Y-46494000D01*
X166684000Y-50694000D02*
X165284000Y-50694000D01*
X166684000Y-50894000D02*
X165284000Y-50894000D01*
X166684000Y-51094000D02*
X165284000Y-51094000D01*
X166684000Y-51294000D02*
X165284000Y-51294000D01*
X165984000Y-48894000D02*
X166334000Y-48294000D01*
X166334000Y-48294000D02*
X165584000Y-48294000D01*
X165584000Y-48294000D02*
X165984000Y-48894000D01*
X166334000Y-48894000D02*
X165584000Y-48894000D01*
X165984000Y-48894000D02*
X165984000Y-49194000D01*
X165984000Y-48294000D02*
X165984000Y-47994000D01*
D12*
X169000000Y-44385000D02*
X164915000Y-44385000D01*
X164915000Y-44385000D02*
X164915000Y-42515000D01*
X164915000Y-42515000D02*
X169000000Y-42515000D01*
D11*
X169732000Y-51294000D02*
X169732000Y-46494000D01*
X169732000Y-46494000D02*
X168332000Y-46494000D01*
X168332000Y-51294000D02*
X168332000Y-46494000D01*
X169732000Y-50694000D02*
X168332000Y-50694000D01*
X169732000Y-50894000D02*
X168332000Y-50894000D01*
X169732000Y-51094000D02*
X168332000Y-51094000D01*
X169732000Y-51294000D02*
X168332000Y-51294000D01*
X169032000Y-48894000D02*
X169382000Y-48294000D01*
X169382000Y-48294000D02*
X168632000Y-48294000D01*
X168632000Y-48294000D02*
X169032000Y-48894000D01*
X169382000Y-48894000D02*
X168632000Y-48894000D01*
X169032000Y-48894000D02*
X169032000Y-49194000D01*
X169032000Y-48294000D02*
X169032000Y-47994000D01*
D10*
X166388800Y-111302800D02*
G75*
G03X166388800Y-111302800I-2000000J0D01*
G01*
X166388800Y-70866000D02*
G75*
G03X166388800Y-70866000I-2000000J0D01*
G01*
X104870000Y-70866000D02*
G75*
G03X104870000Y-70866000I-2000000J0D01*
G01*
D12*
X138796267Y-88810000D02*
X138453733Y-88810000D01*
X138796267Y-87790000D02*
X138453733Y-87790000D01*
X141476000Y-61385267D02*
X141476000Y-61042733D01*
X142496000Y-61385267D02*
X142496000Y-61042733D01*
X123932767Y-94744000D02*
X123590233Y-94744000D01*
X123932767Y-93724000D02*
X123590233Y-93724000D01*
X138769060Y-106997487D02*
X141597487Y-104169060D01*
X141102513Y-109330940D02*
X138769060Y-106997487D01*
X146028733Y-108265000D02*
X146371267Y-108265000D01*
X146028733Y-109285000D02*
X146371267Y-109285000D01*
D13*
X134394700Y-92133146D02*
G75*
G03X134394700Y-92133146I-282700J0D01*
G01*
D14*
X140900225Y-97790000D02*
X134112000Y-91001775D01*
X134112000Y-104578225D02*
X140900225Y-97790000D01*
X127323775Y-97790000D02*
X134112000Y-104578225D01*
X134112000Y-91001775D02*
X127323775Y-97790000D01*
D12*
X100408200Y-61372933D02*
X100408200Y-61715467D01*
X99388200Y-61372933D02*
X99388200Y-61715467D01*
D15*
X122350000Y-68650000D02*
X123850000Y-68650000D01*
X122350000Y-74050000D02*
X122350000Y-68650000D01*
X123850000Y-74050000D02*
X122350000Y-74050000D01*
X123850000Y-68650000D02*
X123850000Y-74050000D01*
X123600000Y-71850000D02*
X122600000Y-71850000D01*
X122600000Y-70850000D02*
X123100000Y-71750000D01*
X123600000Y-70850000D02*
X122600000Y-70850000D01*
X123100000Y-71750000D02*
X123600000Y-70850000D01*
D12*
X144596267Y-111460000D02*
X144253733Y-111460000D01*
X144596267Y-110440000D02*
X144253733Y-110440000D01*
D15*
X162250000Y-115925000D02*
X163750000Y-115925000D01*
X162250000Y-121325000D02*
X162250000Y-115925000D01*
X163750000Y-121325000D02*
X162250000Y-121325000D01*
X163750000Y-115925000D02*
X163750000Y-121325000D01*
X163500000Y-119125000D02*
X162500000Y-119125000D01*
X162500000Y-118125000D02*
X163000000Y-119025000D01*
X163500000Y-118125000D02*
X162500000Y-118125000D01*
X163000000Y-119025000D02*
X163500000Y-118125000D01*
X160000000Y-88450000D02*
X161500000Y-88450000D01*
X160000000Y-93850000D02*
X160000000Y-88450000D01*
X161500000Y-93850000D02*
X160000000Y-93850000D01*
X161500000Y-88450000D02*
X161500000Y-93850000D01*
X161250000Y-91650000D02*
X160250000Y-91650000D01*
X160250000Y-90650000D02*
X160750000Y-91550000D01*
X161250000Y-90650000D02*
X160250000Y-90650000D01*
X160750000Y-91550000D02*
X161250000Y-90650000D01*
X160200000Y-78150000D02*
X161700000Y-78150000D01*
X160200000Y-83550000D02*
X160200000Y-78150000D01*
X161700000Y-83550000D02*
X160200000Y-83550000D01*
X161700000Y-78150000D02*
X161700000Y-83550000D01*
X161450000Y-81350000D02*
X160450000Y-81350000D01*
X160450000Y-80350000D02*
X160950000Y-81250000D01*
X161450000Y-80350000D02*
X160450000Y-80350000D01*
X160950000Y-81250000D02*
X161450000Y-80350000D01*
X160000000Y-115925000D02*
X161500000Y-115925000D01*
X160000000Y-121325000D02*
X160000000Y-115925000D01*
X161500000Y-121325000D02*
X160000000Y-121325000D01*
X161500000Y-115925000D02*
X161500000Y-121325000D01*
X161250000Y-119125000D02*
X160250000Y-119125000D01*
X160250000Y-118125000D02*
X160750000Y-119025000D01*
X161250000Y-118125000D02*
X160250000Y-118125000D01*
X160750000Y-119025000D02*
X161250000Y-118125000D01*
X141650000Y-81375000D02*
X143150000Y-81375000D01*
X141650000Y-86775000D02*
X141650000Y-81375000D01*
X143150000Y-86775000D02*
X141650000Y-86775000D01*
X143150000Y-81375000D02*
X143150000Y-86775000D01*
X142900000Y-84575000D02*
X141900000Y-84575000D01*
X141900000Y-83575000D02*
X142400000Y-84475000D01*
X142900000Y-83575000D02*
X141900000Y-83575000D01*
X142400000Y-84475000D02*
X142900000Y-83575000D01*
X141200000Y-68750000D02*
X142700000Y-68750000D01*
X141200000Y-74150000D02*
X141200000Y-68750000D01*
X142700000Y-74150000D02*
X141200000Y-74150000D01*
X142700000Y-68750000D02*
X142700000Y-74150000D01*
X142450000Y-71950000D02*
X141450000Y-71950000D01*
X141450000Y-70950000D02*
X141950000Y-71850000D01*
X142450000Y-70950000D02*
X141450000Y-70950000D01*
X141950000Y-71850000D02*
X142450000Y-70950000D01*
X162700000Y-88450000D02*
X164200000Y-88450000D01*
X162700000Y-93850000D02*
X162700000Y-88450000D01*
X164200000Y-93850000D02*
X162700000Y-93850000D01*
X164200000Y-88450000D02*
X164200000Y-93850000D01*
X163950000Y-91650000D02*
X162950000Y-91650000D01*
X162950000Y-90650000D02*
X163450000Y-91550000D01*
X163950000Y-90650000D02*
X162950000Y-90650000D01*
X163450000Y-91550000D02*
X163950000Y-90650000D01*
X142252000Y-115925000D02*
X143752000Y-115925000D01*
X142252000Y-121325000D02*
X142252000Y-115925000D01*
X143752000Y-121325000D02*
X142252000Y-121325000D01*
X143752000Y-115925000D02*
X143752000Y-121325000D01*
X143502000Y-119125000D02*
X142502000Y-119125000D01*
X142502000Y-118125000D02*
X143002000Y-119025000D01*
X143502000Y-118125000D02*
X142502000Y-118125000D01*
X143002000Y-119025000D02*
X143502000Y-118125000D01*
X122440000Y-81374000D02*
X123940000Y-81374000D01*
X122440000Y-86774000D02*
X122440000Y-81374000D01*
X123940000Y-86774000D02*
X122440000Y-86774000D01*
X123940000Y-81374000D02*
X123940000Y-86774000D01*
X123690000Y-84574000D02*
X122690000Y-84574000D01*
X122690000Y-83574000D02*
X123190000Y-84474000D01*
X123690000Y-83574000D02*
X122690000Y-83574000D01*
X123190000Y-84474000D02*
X123690000Y-83574000D01*
X162750000Y-78150000D02*
X164250000Y-78150000D01*
X162750000Y-83550000D02*
X162750000Y-78150000D01*
X164250000Y-83550000D02*
X162750000Y-83550000D01*
X164250000Y-78150000D02*
X164250000Y-83550000D01*
X164000000Y-81350000D02*
X163000000Y-81350000D01*
X163000000Y-80350000D02*
X163500000Y-81250000D01*
X164000000Y-80350000D02*
X163000000Y-80350000D01*
X163500000Y-81250000D02*
X164000000Y-80350000D01*
X104914000Y-115925000D02*
X106414000Y-115925000D01*
X104914000Y-121325000D02*
X104914000Y-115925000D01*
X106414000Y-121325000D02*
X104914000Y-121325000D01*
X106414000Y-115925000D02*
X106414000Y-121325000D01*
X106164000Y-119125000D02*
X105164000Y-119125000D01*
X105164000Y-118125000D02*
X105664000Y-119025000D01*
X106164000Y-118125000D02*
X105164000Y-118125000D01*
X105664000Y-119025000D02*
X106164000Y-118125000D01*
X103150000Y-93525000D02*
X104650000Y-93525000D01*
X103150000Y-98925000D02*
X103150000Y-93525000D01*
X104650000Y-98925000D02*
X103150000Y-98925000D01*
X104650000Y-93525000D02*
X104650000Y-98925000D01*
X104400000Y-96725000D02*
X103400000Y-96725000D01*
X103400000Y-95725000D02*
X103900000Y-96625000D01*
X104400000Y-95725000D02*
X103400000Y-95725000D01*
X103900000Y-96625000D02*
X104400000Y-95725000D01*
X103300000Y-80800000D02*
X104800000Y-80800000D01*
X103300000Y-86200000D02*
X103300000Y-80800000D01*
X104800000Y-86200000D02*
X103300000Y-86200000D01*
X104800000Y-80800000D02*
X104800000Y-86200000D01*
X104550000Y-84000000D02*
X103550000Y-84000000D01*
X103550000Y-83000000D02*
X104050000Y-83900000D01*
X104550000Y-83000000D02*
X103550000Y-83000000D01*
X104050000Y-83900000D02*
X104550000Y-83000000D01*
D12*
X131285064Y-77745000D02*
X130080936Y-77745000D01*
X131285064Y-75925000D02*
X130080936Y-75925000D01*
X149735000Y-103044233D02*
X149735000Y-103386767D01*
X148715000Y-103044233D02*
X148715000Y-103386767D01*
X152686000Y-103044233D02*
X152686000Y-103386767D01*
X151666000Y-103044233D02*
X151666000Y-103386767D01*
X154731500Y-106570500D02*
X154731500Y-102485500D01*
X156601500Y-106570500D02*
X154731500Y-106570500D01*
X156601500Y-102485500D02*
X156601500Y-106570500D01*
X125540000Y-86021267D02*
X125540000Y-85678733D01*
X126560000Y-86021267D02*
X126560000Y-85678733D01*
X123871267Y-92160000D02*
X123528733Y-92160000D01*
X123871267Y-91140000D02*
X123528733Y-91140000D01*
X97665000Y-61372933D02*
X97665000Y-61715467D01*
X96645000Y-61372933D02*
X96645000Y-61715467D01*
X151321267Y-100060000D02*
X150978733Y-100060000D01*
X151321267Y-99040000D02*
X150978733Y-99040000D01*
D11*
X146500000Y-103450000D02*
X146500000Y-103150000D01*
X146500000Y-104050000D02*
X146500000Y-104350000D01*
X146850000Y-104050000D02*
X146100000Y-104050000D01*
X146100000Y-103450000D02*
X146500000Y-104050000D01*
X146850000Y-103450000D02*
X146100000Y-103450000D01*
X146500000Y-104050000D02*
X146850000Y-103450000D01*
X147200000Y-106450000D02*
X145800000Y-106450000D01*
X147200000Y-106250000D02*
X145800000Y-106250000D01*
X147200000Y-106050000D02*
X145800000Y-106050000D01*
X147200000Y-105850000D02*
X145800000Y-105850000D01*
X145800000Y-106450000D02*
X145800000Y-101650000D01*
X147200000Y-101650000D02*
X145800000Y-101650000D01*
X147200000Y-106450000D02*
X147200000Y-101650000D01*
D15*
X164900666Y-47744000D02*
X164200666Y-47744000D01*
X164200666Y-47910666D01*
X164234000Y-48010666D01*
X164300666Y-48077333D01*
X164367333Y-48110666D01*
X164500666Y-48144000D01*
X164600666Y-48144000D01*
X164734000Y-48110666D01*
X164800666Y-48077333D01*
X164867333Y-48010666D01*
X164900666Y-47910666D01*
X164900666Y-47744000D01*
X164200666Y-48377333D02*
X164200666Y-48810666D01*
X164467333Y-48577333D01*
X164467333Y-48677333D01*
X164500666Y-48744000D01*
X164534000Y-48777333D01*
X164600666Y-48810666D01*
X164767333Y-48810666D01*
X164834000Y-48777333D01*
X164867333Y-48744000D01*
X164900666Y-48677333D01*
X164900666Y-48477333D01*
X164867333Y-48410666D01*
X164834000Y-48377333D01*
X164900666Y-49477333D02*
X164900666Y-49077333D01*
X164900666Y-49277333D02*
X164200666Y-49277333D01*
X164300666Y-49210666D01*
X164367333Y-49144000D01*
X164400666Y-49077333D01*
X167850000Y-41922000D02*
X167883333Y-41955333D01*
X167983333Y-41988666D01*
X168050000Y-41988666D01*
X168150000Y-41955333D01*
X168216666Y-41888666D01*
X168250000Y-41822000D01*
X168283333Y-41688666D01*
X168283333Y-41588666D01*
X168250000Y-41455333D01*
X168216666Y-41388666D01*
X168150000Y-41322000D01*
X168050000Y-41288666D01*
X167983333Y-41288666D01*
X167883333Y-41322000D01*
X167850000Y-41355333D01*
X167183333Y-41988666D02*
X167583333Y-41988666D01*
X167383333Y-41988666D02*
X167383333Y-41288666D01*
X167450000Y-41388666D01*
X167516666Y-41455333D01*
X167583333Y-41488666D01*
X166750000Y-41288666D02*
X166683333Y-41288666D01*
X166616666Y-41322000D01*
X166583333Y-41355333D01*
X166550000Y-41422000D01*
X166516666Y-41555333D01*
X166516666Y-41722000D01*
X166550000Y-41855333D01*
X166583333Y-41922000D01*
X166616666Y-41955333D01*
X166683333Y-41988666D01*
X166750000Y-41988666D01*
X166816666Y-41955333D01*
X166850000Y-41922000D01*
X166883333Y-41855333D01*
X166916666Y-41722000D01*
X166916666Y-41555333D01*
X166883333Y-41422000D01*
X166850000Y-41355333D01*
X166816666Y-41322000D01*
X166750000Y-41288666D01*
X167948666Y-47744000D02*
X167248666Y-47744000D01*
X167248666Y-47910666D01*
X167282000Y-48010666D01*
X167348666Y-48077333D01*
X167415333Y-48110666D01*
X167548666Y-48144000D01*
X167648666Y-48144000D01*
X167782000Y-48110666D01*
X167848666Y-48077333D01*
X167915333Y-48010666D01*
X167948666Y-47910666D01*
X167948666Y-47744000D01*
X167248666Y-48377333D02*
X167248666Y-48810666D01*
X167515333Y-48577333D01*
X167515333Y-48677333D01*
X167548666Y-48744000D01*
X167582000Y-48777333D01*
X167648666Y-48810666D01*
X167815333Y-48810666D01*
X167882000Y-48777333D01*
X167915333Y-48744000D01*
X167948666Y-48677333D01*
X167948666Y-48477333D01*
X167915333Y-48410666D01*
X167882000Y-48377333D01*
X167315333Y-49077333D02*
X167282000Y-49110666D01*
X167248666Y-49177333D01*
X167248666Y-49344000D01*
X167282000Y-49410666D01*
X167315333Y-49444000D01*
X167382000Y-49477333D01*
X167448666Y-49477333D01*
X167548666Y-49444000D01*
X167948666Y-49044000D01*
X167948666Y-49477333D01*
X136116666Y-88450000D02*
X136150000Y-88483333D01*
X136250000Y-88516666D01*
X136316666Y-88516666D01*
X136416666Y-88483333D01*
X136483333Y-88416666D01*
X136516666Y-88350000D01*
X136550000Y-88216666D01*
X136550000Y-88116666D01*
X136516666Y-87983333D01*
X136483333Y-87916666D01*
X136416666Y-87850000D01*
X136316666Y-87816666D01*
X136250000Y-87816666D01*
X136150000Y-87850000D01*
X136116666Y-87883333D01*
X135883333Y-87816666D02*
X135450000Y-87816666D01*
X135683333Y-88083333D01*
X135583333Y-88083333D01*
X135516666Y-88116666D01*
X135483333Y-88150000D01*
X135450000Y-88216666D01*
X135450000Y-88383333D01*
X135483333Y-88450000D01*
X135516666Y-88483333D01*
X135583333Y-88516666D01*
X135783333Y-88516666D01*
X135850000Y-88483333D01*
X135883333Y-88450000D01*
X141032666Y-61097333D02*
X140699333Y-60864000D01*
X141032666Y-60697333D02*
X140332666Y-60697333D01*
X140332666Y-60964000D01*
X140366000Y-61030666D01*
X140399333Y-61064000D01*
X140466000Y-61097333D01*
X140566000Y-61097333D01*
X140632666Y-61064000D01*
X140666000Y-61030666D01*
X140699333Y-60964000D01*
X140699333Y-60697333D01*
X140332666Y-61730666D02*
X140332666Y-61397333D01*
X140666000Y-61364000D01*
X140632666Y-61397333D01*
X140599333Y-61464000D01*
X140599333Y-61630666D01*
X140632666Y-61697333D01*
X140666000Y-61730666D01*
X140732666Y-61764000D01*
X140899333Y-61764000D01*
X140966000Y-61730666D01*
X140999333Y-61697333D01*
X141032666Y-61630666D01*
X141032666Y-61464000D01*
X140999333Y-61397333D01*
X140966000Y-61364000D01*
X123883166Y-93280666D02*
X124116500Y-92947333D01*
X124283166Y-93280666D02*
X124283166Y-92580666D01*
X124016500Y-92580666D01*
X123949833Y-92614000D01*
X123916500Y-92647333D01*
X123883166Y-92714000D01*
X123883166Y-92814000D01*
X123916500Y-92880666D01*
X123949833Y-92914000D01*
X124016500Y-92947333D01*
X124283166Y-92947333D01*
X123649833Y-92580666D02*
X123216500Y-92580666D01*
X123449833Y-92847333D01*
X123349833Y-92847333D01*
X123283166Y-92880666D01*
X123249833Y-92914000D01*
X123216500Y-92980666D01*
X123216500Y-93147333D01*
X123249833Y-93214000D01*
X123283166Y-93247333D01*
X123349833Y-93280666D01*
X123549833Y-93280666D01*
X123616500Y-93247333D01*
X123649833Y-93214000D01*
X143829881Y-108358446D02*
X144166599Y-108695164D01*
X143695194Y-107752355D02*
X143829881Y-108358446D01*
X143223790Y-108223759D01*
X143324805Y-109536957D02*
X143728866Y-109132896D01*
X143526835Y-109334927D02*
X142819729Y-108627820D01*
X142988087Y-108661492D01*
X143122774Y-108661492D01*
X143223790Y-108627820D01*
X149087666Y-108962000D02*
X149121000Y-108995333D01*
X149221000Y-109028666D01*
X149287666Y-109028666D01*
X149387666Y-108995333D01*
X149454333Y-108928666D01*
X149487666Y-108862000D01*
X149521000Y-108728666D01*
X149521000Y-108628666D01*
X149487666Y-108495333D01*
X149454333Y-108428666D01*
X149387666Y-108362000D01*
X149287666Y-108328666D01*
X149221000Y-108328666D01*
X149121000Y-108362000D01*
X149087666Y-108395333D01*
X148487666Y-108328666D02*
X148621000Y-108328666D01*
X148687666Y-108362000D01*
X148721000Y-108395333D01*
X148787666Y-108495333D01*
X148821000Y-108628666D01*
X148821000Y-108895333D01*
X148787666Y-108962000D01*
X148754333Y-108995333D01*
X148687666Y-109028666D01*
X148554333Y-109028666D01*
X148487666Y-108995333D01*
X148454333Y-108962000D01*
X148421000Y-108895333D01*
X148421000Y-108728666D01*
X148454333Y-108662000D01*
X148487666Y-108628666D01*
X148554333Y-108595333D01*
X148687666Y-108595333D01*
X148754333Y-108628666D01*
X148787666Y-108662000D01*
X148821000Y-108728666D01*
D11*
X134359487Y-96316860D02*
X135160874Y-97118248D01*
X135208015Y-97259669D01*
X135208015Y-97353950D01*
X135160874Y-97495371D01*
X134972312Y-97683933D01*
X134830891Y-97731074D01*
X134736610Y-97731074D01*
X134595189Y-97683933D01*
X133793801Y-96882545D01*
X133793801Y-98862444D02*
X134359487Y-98296759D01*
X134076644Y-98579602D02*
X133086694Y-97589652D01*
X133322397Y-97636793D01*
X133510958Y-97636793D01*
X133652380Y-97589652D01*
D15*
X98944866Y-61427533D02*
X98611533Y-61194200D01*
X98944866Y-61027533D02*
X98244866Y-61027533D01*
X98244866Y-61294200D01*
X98278200Y-61360866D01*
X98311533Y-61394200D01*
X98378200Y-61427533D01*
X98478200Y-61427533D01*
X98544866Y-61394200D01*
X98578200Y-61360866D01*
X98611533Y-61294200D01*
X98611533Y-61027533D01*
X98944866Y-62094200D02*
X98944866Y-61694200D01*
X98944866Y-61894200D02*
X98244866Y-61894200D01*
X98344866Y-61827533D01*
X98411533Y-61760866D01*
X98444866Y-61694200D01*
X147055666Y-111248000D02*
X147089000Y-111281333D01*
X147189000Y-111314666D01*
X147255666Y-111314666D01*
X147355666Y-111281333D01*
X147422333Y-111214666D01*
X147455666Y-111148000D01*
X147489000Y-111014666D01*
X147489000Y-110914666D01*
X147455666Y-110781333D01*
X147422333Y-110714666D01*
X147355666Y-110648000D01*
X147255666Y-110614666D01*
X147189000Y-110614666D01*
X147089000Y-110648000D01*
X147055666Y-110681333D01*
X146822333Y-110614666D02*
X146355666Y-110614666D01*
X146655666Y-111314666D01*
X130916333Y-74753000D02*
X131149666Y-74753000D01*
X131149666Y-75119666D02*
X131149666Y-74419666D01*
X130816333Y-74419666D01*
X130183000Y-75119666D02*
X130583000Y-75119666D01*
X130383000Y-75119666D02*
X130383000Y-74419666D01*
X130449666Y-74519666D01*
X130516333Y-74586333D01*
X130583000Y-74619666D01*
X150847000Y-103098833D02*
X150880333Y-103065500D01*
X150913666Y-102965500D01*
X150913666Y-102898833D01*
X150880333Y-102798833D01*
X150813666Y-102732166D01*
X150747000Y-102698833D01*
X150613666Y-102665500D01*
X150513666Y-102665500D01*
X150380333Y-102698833D01*
X150313666Y-102732166D01*
X150247000Y-102798833D01*
X150213666Y-102898833D01*
X150213666Y-102965500D01*
X150247000Y-103065500D01*
X150280333Y-103098833D01*
X150447000Y-103698833D02*
X150913666Y-103698833D01*
X150180333Y-103532166D02*
X150680333Y-103365500D01*
X150680333Y-103798833D01*
X154000000Y-103098833D02*
X154033333Y-103065500D01*
X154066666Y-102965500D01*
X154066666Y-102898833D01*
X154033333Y-102798833D01*
X153966666Y-102732166D01*
X153900000Y-102698833D01*
X153766666Y-102665500D01*
X153666666Y-102665500D01*
X153533333Y-102698833D01*
X153466666Y-102732166D01*
X153400000Y-102798833D01*
X153366666Y-102898833D01*
X153366666Y-102965500D01*
X153400000Y-103065500D01*
X153433333Y-103098833D01*
X153433333Y-103365500D02*
X153400000Y-103398833D01*
X153366666Y-103465500D01*
X153366666Y-103632166D01*
X153400000Y-103698833D01*
X153433333Y-103732166D01*
X153500000Y-103765500D01*
X153566666Y-103765500D01*
X153666666Y-103732166D01*
X154066666Y-103332166D01*
X154066666Y-103765500D01*
X157857000Y-104023333D02*
X157890333Y-103990000D01*
X157923666Y-103890000D01*
X157923666Y-103823333D01*
X157890333Y-103723333D01*
X157823666Y-103656666D01*
X157757000Y-103623333D01*
X157623666Y-103590000D01*
X157523666Y-103590000D01*
X157390333Y-103623333D01*
X157323666Y-103656666D01*
X157257000Y-103723333D01*
X157223666Y-103823333D01*
X157223666Y-103890000D01*
X157257000Y-103990000D01*
X157290333Y-104023333D01*
X157923666Y-104690000D02*
X157923666Y-104290000D01*
X157923666Y-104490000D02*
X157223666Y-104490000D01*
X157323666Y-104423333D01*
X157390333Y-104356666D01*
X157423666Y-104290000D01*
X126361000Y-82941333D02*
X126394333Y-82908000D01*
X126427666Y-82808000D01*
X126427666Y-82741333D01*
X126394333Y-82641333D01*
X126327666Y-82574666D01*
X126261000Y-82541333D01*
X126127666Y-82508000D01*
X126027666Y-82508000D01*
X125894333Y-82541333D01*
X125827666Y-82574666D01*
X125761000Y-82641333D01*
X125727666Y-82741333D01*
X125727666Y-82808000D01*
X125761000Y-82908000D01*
X125794333Y-82941333D01*
X125727666Y-83574666D02*
X125727666Y-83241333D01*
X126061000Y-83208000D01*
X126027666Y-83241333D01*
X125994333Y-83308000D01*
X125994333Y-83474666D01*
X126027666Y-83541333D01*
X126061000Y-83574666D01*
X126127666Y-83608000D01*
X126294333Y-83608000D01*
X126361000Y-83574666D01*
X126394333Y-83541333D01*
X126427666Y-83474666D01*
X126427666Y-83308000D01*
X126394333Y-83241333D01*
X126361000Y-83208000D01*
X123816666Y-90359666D02*
X124050000Y-90026333D01*
X124216666Y-90359666D02*
X124216666Y-89659666D01*
X123950000Y-89659666D01*
X123883333Y-89693000D01*
X123850000Y-89726333D01*
X123816666Y-89793000D01*
X123816666Y-89893000D01*
X123850000Y-89959666D01*
X123883333Y-89993000D01*
X123950000Y-90026333D01*
X124216666Y-90026333D01*
X123216666Y-89893000D02*
X123216666Y-90359666D01*
X123383333Y-89626333D02*
X123550000Y-90126333D01*
X123116666Y-90126333D01*
X96201666Y-61427533D02*
X95868333Y-61194200D01*
X96201666Y-61027533D02*
X95501666Y-61027533D01*
X95501666Y-61294200D01*
X95535000Y-61360866D01*
X95568333Y-61394200D01*
X95635000Y-61427533D01*
X95735000Y-61427533D01*
X95801666Y-61394200D01*
X95835000Y-61360866D01*
X95868333Y-61294200D01*
X95868333Y-61027533D01*
X95568333Y-61694200D02*
X95535000Y-61727533D01*
X95501666Y-61794200D01*
X95501666Y-61960866D01*
X95535000Y-62027533D01*
X95568333Y-62060866D01*
X95635000Y-62094200D01*
X95701666Y-62094200D01*
X95801666Y-62060866D01*
X96201666Y-61660866D01*
X96201666Y-62094200D01*
X153966666Y-99866666D02*
X154200000Y-99533333D01*
X154366666Y-99866666D02*
X154366666Y-99166666D01*
X154100000Y-99166666D01*
X154033333Y-99200000D01*
X154000000Y-99233333D01*
X153966666Y-99300000D01*
X153966666Y-99400000D01*
X154000000Y-99466666D01*
X154033333Y-99500000D01*
X154100000Y-99533333D01*
X154366666Y-99533333D01*
X153366666Y-99166666D02*
X153500000Y-99166666D01*
X153566666Y-99200000D01*
X153600000Y-99233333D01*
X153666666Y-99333333D01*
X153700000Y-99466666D01*
X153700000Y-99733333D01*
X153666666Y-99800000D01*
X153633333Y-99833333D01*
X153566666Y-99866666D01*
X153433333Y-99866666D01*
X153366666Y-99833333D01*
X153333333Y-99800000D01*
X153300000Y-99733333D01*
X153300000Y-99566666D01*
X153333333Y-99500000D01*
X153366666Y-99466666D01*
X153433333Y-99433333D01*
X153566666Y-99433333D01*
X153633333Y-99466666D01*
X153666666Y-99500000D01*
X153700000Y-99566666D01*
X145223666Y-102975000D02*
X144523666Y-102975000D01*
X144523666Y-103141666D01*
X144557000Y-103241666D01*
X144623666Y-103308333D01*
X144690333Y-103341666D01*
X144823666Y-103375000D01*
X144923666Y-103375000D01*
X145057000Y-103341666D01*
X145123666Y-103308333D01*
X145190333Y-103241666D01*
X145223666Y-103141666D01*
X145223666Y-102975000D01*
X144590333Y-103641666D02*
X144557000Y-103675000D01*
X144523666Y-103741666D01*
X144523666Y-103908333D01*
X144557000Y-103975000D01*
X144590333Y-104008333D01*
X144657000Y-104041666D01*
X144723666Y-104041666D01*
X144823666Y-104008333D01*
X145223666Y-103608333D01*
X145223666Y-104041666D01*
X145223666Y-104708333D02*
X145223666Y-104308333D01*
X145223666Y-104508333D02*
X144523666Y-104508333D01*
X144623666Y-104441666D01*
X144690333Y-104375000D01*
X144723666Y-104308333D01*
%LPC*%
D16*
X150353800Y-48300000D03*
X150353800Y-45700000D03*
X127700000Y-46950000D03*
X156146200Y-45700000D03*
X156146200Y-48300000D03*
X178800000Y-47050000D03*
D17*
X119900000Y-68200000D03*
D18*
X114800000Y-72100000D03*
D19*
X109300000Y-72100000D03*
X120300000Y-72100000D03*
D17*
X114800000Y-66200000D03*
X117340000Y-67020000D03*
X110990000Y-69560000D03*
D20*
X119880000Y-72100000D03*
X109720000Y-72100000D03*
D21*
X120020000Y-76300000D03*
X109580000Y-76300000D03*
D22*
X102922800Y-64795000D03*
X94282800Y-64795000D03*
D23*
X102922800Y-60625000D03*
X94282800Y-60625000D03*
D24*
X95712800Y-64315000D03*
X101492800Y-64315000D03*
D25*
X102870000Y-111302800D03*
D26*
X181784000Y-53020000D03*
X181784000Y-41640000D03*
X124206000Y-53020000D03*
X124206000Y-41640000D03*
D17*
X119850000Y-87100000D03*
D18*
X114750000Y-91000000D03*
D19*
X109250000Y-91000000D03*
X120250000Y-91000000D03*
D17*
X114750000Y-85100000D03*
X117290000Y-85920000D03*
X110940000Y-88460000D03*
D20*
X119830000Y-91000000D03*
X109670000Y-91000000D03*
D21*
X119970000Y-95200000D03*
X109530000Y-95200000D03*
D27*
X89150000Y-39750000D03*
X89050000Y-54950000D03*
D28*
X165984000Y-47194000D03*
X165984000Y-49994000D03*
D29*
G36*
X166558468Y-42725295D02*
G01*
X166584569Y-42729167D01*
X166610166Y-42735578D01*
X166635011Y-42744468D01*
X166658865Y-42755750D01*
X166681498Y-42769316D01*
X166702693Y-42785035D01*
X166722245Y-42802755D01*
X166739965Y-42822307D01*
X166755684Y-42843502D01*
X166769250Y-42866135D01*
X166780532Y-42889989D01*
X166789422Y-42914834D01*
X166795833Y-42940431D01*
X166799705Y-42966532D01*
X166801000Y-42992888D01*
X166801000Y-43907112D01*
X166799705Y-43933468D01*
X166795833Y-43959569D01*
X166789422Y-43985166D01*
X166780532Y-44010011D01*
X166769250Y-44033865D01*
X166755684Y-44056498D01*
X166739965Y-44077693D01*
X166722245Y-44097245D01*
X166702693Y-44114965D01*
X166681498Y-44130684D01*
X166658865Y-44144250D01*
X166635011Y-44155532D01*
X166610166Y-44164422D01*
X166584569Y-44170833D01*
X166558468Y-44174705D01*
X166532112Y-44176000D01*
X165392888Y-44176000D01*
X165366532Y-44174705D01*
X165340431Y-44170833D01*
X165314834Y-44164422D01*
X165289989Y-44155532D01*
X165266135Y-44144250D01*
X165243502Y-44130684D01*
X165222307Y-44114965D01*
X165202755Y-44097245D01*
X165185035Y-44077693D01*
X165169316Y-44056498D01*
X165155750Y-44033865D01*
X165144468Y-44010011D01*
X165135578Y-43985166D01*
X165129167Y-43959569D01*
X165125295Y-43933468D01*
X165124000Y-43907112D01*
X165124000Y-42992888D01*
X165125295Y-42966532D01*
X165129167Y-42940431D01*
X165135578Y-42914834D01*
X165144468Y-42889989D01*
X165155750Y-42866135D01*
X165169316Y-42843502D01*
X165185035Y-42822307D01*
X165202755Y-42802755D01*
X165222307Y-42785035D01*
X165243502Y-42769316D01*
X165266135Y-42755750D01*
X165289989Y-42744468D01*
X165314834Y-42735578D01*
X165340431Y-42729167D01*
X165366532Y-42725295D01*
X165392888Y-42724000D01*
X166532112Y-42724000D01*
X166558468Y-42725295D01*
X166558468Y-42725295D01*
G37*
D30*
X165962500Y-43450000D03*
D29*
G36*
X169433468Y-42725295D02*
G01*
X169459569Y-42729167D01*
X169485166Y-42735578D01*
X169510011Y-42744468D01*
X169533865Y-42755750D01*
X169556498Y-42769316D01*
X169577693Y-42785035D01*
X169597245Y-42802755D01*
X169614965Y-42822307D01*
X169630684Y-42843502D01*
X169644250Y-42866135D01*
X169655532Y-42889989D01*
X169664422Y-42914834D01*
X169670833Y-42940431D01*
X169674705Y-42966532D01*
X169676000Y-42992888D01*
X169676000Y-43907112D01*
X169674705Y-43933468D01*
X169670833Y-43959569D01*
X169664422Y-43985166D01*
X169655532Y-44010011D01*
X169644250Y-44033865D01*
X169630684Y-44056498D01*
X169614965Y-44077693D01*
X169597245Y-44097245D01*
X169577693Y-44114965D01*
X169556498Y-44130684D01*
X169533865Y-44144250D01*
X169510011Y-44155532D01*
X169485166Y-44164422D01*
X169459569Y-44170833D01*
X169433468Y-44174705D01*
X169407112Y-44176000D01*
X168267888Y-44176000D01*
X168241532Y-44174705D01*
X168215431Y-44170833D01*
X168189834Y-44164422D01*
X168164989Y-44155532D01*
X168141135Y-44144250D01*
X168118502Y-44130684D01*
X168097307Y-44114965D01*
X168077755Y-44097245D01*
X168060035Y-44077693D01*
X168044316Y-44056498D01*
X168030750Y-44033865D01*
X168019468Y-44010011D01*
X168010578Y-43985166D01*
X168004167Y-43959569D01*
X168000295Y-43933468D01*
X167999000Y-43907112D01*
X167999000Y-42992888D01*
X168000295Y-42966532D01*
X168004167Y-42940431D01*
X168010578Y-42914834D01*
X168019468Y-42889989D01*
X168030750Y-42866135D01*
X168044316Y-42843502D01*
X168060035Y-42822307D01*
X168077755Y-42802755D01*
X168097307Y-42785035D01*
X168118502Y-42769316D01*
X168141135Y-42755750D01*
X168164989Y-42744468D01*
X168189834Y-42735578D01*
X168215431Y-42729167D01*
X168241532Y-42725295D01*
X168267888Y-42724000D01*
X169407112Y-42724000D01*
X169433468Y-42725295D01*
X169433468Y-42725295D01*
G37*
D30*
X168837500Y-43450000D03*
D28*
X169032000Y-47194000D03*
X169032000Y-49994000D03*
D31*
X91572000Y-39738600D03*
X94112000Y-39738600D03*
X96652000Y-39738600D03*
X99192000Y-39738600D03*
X101732000Y-39738600D03*
X104272000Y-39738600D03*
X106812000Y-39738600D03*
X109352000Y-39738600D03*
X111892000Y-39738600D03*
X114432000Y-39738600D03*
X116972000Y-39738600D03*
X119512000Y-39738600D03*
X119512000Y-54958600D03*
X116972000Y-54958600D03*
X114432000Y-54958600D03*
X111892000Y-54958600D03*
X109352000Y-54958600D03*
X106812000Y-54958600D03*
X104272000Y-54958600D03*
X101732000Y-54958600D03*
X99192000Y-54958600D03*
X96652000Y-54958600D03*
X94112000Y-54958600D03*
X91572000Y-54958600D03*
D32*
X151600000Y-38870000D03*
X154600000Y-38870000D03*
D25*
X164388800Y-111302800D03*
X164388800Y-70866000D03*
X102870000Y-70866000D03*
D33*
X105055600Y-60325000D03*
X111555600Y-60325000D03*
D34*
X91791400Y-62873800D03*
X91791400Y-70323800D03*
D35*
X87991400Y-62723800D03*
X87991400Y-70473800D03*
D36*
X90741400Y-64098800D03*
X90741400Y-69098800D03*
D33*
X171900000Y-75600000D03*
X176900000Y-75600000D03*
D37*
X168800000Y-68600000D03*
X180000000Y-68600000D03*
D33*
X171900000Y-61100000D03*
X174400000Y-61100000D03*
D38*
X176900000Y-61100000D03*
D17*
X138850000Y-82150000D03*
D18*
X133750000Y-86050000D03*
D19*
X128250000Y-86050000D03*
X139250000Y-86050000D03*
D17*
X133750000Y-80150000D03*
X136290000Y-80970000D03*
X129940000Y-83510000D03*
D20*
X138830000Y-86050000D03*
X128670000Y-86050000D03*
D21*
X138970000Y-90250000D03*
X128530000Y-90250000D03*
D17*
X157850000Y-91650000D03*
D18*
X152750000Y-95550000D03*
D19*
X147250000Y-95550000D03*
X158250000Y-95550000D03*
D17*
X152750000Y-89650000D03*
X155290000Y-90470000D03*
X148940000Y-93010000D03*
D20*
X157830000Y-95550000D03*
X147670000Y-95550000D03*
D21*
X157970000Y-99750000D03*
X147530000Y-99750000D03*
D29*
G36*
X138088779Y-87775266D02*
G01*
X138114309Y-87779053D01*
X138139345Y-87785325D01*
X138163646Y-87794020D01*
X138186977Y-87805055D01*
X138209115Y-87818323D01*
X138229845Y-87833698D01*
X138248969Y-87851031D01*
X138266302Y-87870155D01*
X138281677Y-87890885D01*
X138294945Y-87913023D01*
X138305980Y-87936354D01*
X138314675Y-87960655D01*
X138320947Y-87985691D01*
X138324734Y-88011221D01*
X138326000Y-88037000D01*
X138326000Y-88563000D01*
X138324734Y-88588779D01*
X138320947Y-88614309D01*
X138314675Y-88639345D01*
X138305980Y-88663646D01*
X138294945Y-88686977D01*
X138281677Y-88709115D01*
X138266302Y-88729845D01*
X138248969Y-88748969D01*
X138229845Y-88766302D01*
X138209115Y-88781677D01*
X138186977Y-88794945D01*
X138163646Y-88805980D01*
X138139345Y-88814675D01*
X138114309Y-88820947D01*
X138088779Y-88824734D01*
X138063000Y-88826000D01*
X137437000Y-88826000D01*
X137411221Y-88824734D01*
X137385691Y-88820947D01*
X137360655Y-88814675D01*
X137336354Y-88805980D01*
X137313023Y-88794945D01*
X137290885Y-88781677D01*
X137270155Y-88766302D01*
X137251031Y-88748969D01*
X137233698Y-88729845D01*
X137218323Y-88709115D01*
X137205055Y-88686977D01*
X137194020Y-88663646D01*
X137185325Y-88639345D01*
X137179053Y-88614309D01*
X137175266Y-88588779D01*
X137174000Y-88563000D01*
X137174000Y-88037000D01*
X137175266Y-88011221D01*
X137179053Y-87985691D01*
X137185325Y-87960655D01*
X137194020Y-87936354D01*
X137205055Y-87913023D01*
X137218323Y-87890885D01*
X137233698Y-87870155D01*
X137251031Y-87851031D01*
X137270155Y-87833698D01*
X137290885Y-87818323D01*
X137313023Y-87805055D01*
X137336354Y-87794020D01*
X137360655Y-87785325D01*
X137385691Y-87779053D01*
X137411221Y-87775266D01*
X137437000Y-87774000D01*
X138063000Y-87774000D01*
X138088779Y-87775266D01*
X138088779Y-87775266D01*
G37*
D39*
X137750000Y-88300000D03*
D29*
G36*
X139838779Y-87775266D02*
G01*
X139864309Y-87779053D01*
X139889345Y-87785325D01*
X139913646Y-87794020D01*
X139936977Y-87805055D01*
X139959115Y-87818323D01*
X139979845Y-87833698D01*
X139998969Y-87851031D01*
X140016302Y-87870155D01*
X140031677Y-87890885D01*
X140044945Y-87913023D01*
X140055980Y-87936354D01*
X140064675Y-87960655D01*
X140070947Y-87985691D01*
X140074734Y-88011221D01*
X140076000Y-88037000D01*
X140076000Y-88563000D01*
X140074734Y-88588779D01*
X140070947Y-88614309D01*
X140064675Y-88639345D01*
X140055980Y-88663646D01*
X140044945Y-88686977D01*
X140031677Y-88709115D01*
X140016302Y-88729845D01*
X139998969Y-88748969D01*
X139979845Y-88766302D01*
X139959115Y-88781677D01*
X139936977Y-88794945D01*
X139913646Y-88805980D01*
X139889345Y-88814675D01*
X139864309Y-88820947D01*
X139838779Y-88824734D01*
X139813000Y-88826000D01*
X139187000Y-88826000D01*
X139161221Y-88824734D01*
X139135691Y-88820947D01*
X139110655Y-88814675D01*
X139086354Y-88805980D01*
X139063023Y-88794945D01*
X139040885Y-88781677D01*
X139020155Y-88766302D01*
X139001031Y-88748969D01*
X138983698Y-88729845D01*
X138968323Y-88709115D01*
X138955055Y-88686977D01*
X138944020Y-88663646D01*
X138935325Y-88639345D01*
X138929053Y-88614309D01*
X138925266Y-88588779D01*
X138924000Y-88563000D01*
X138924000Y-88037000D01*
X138925266Y-88011221D01*
X138929053Y-87985691D01*
X138935325Y-87960655D01*
X138944020Y-87936354D01*
X138955055Y-87913023D01*
X138968323Y-87890885D01*
X138983698Y-87870155D01*
X139001031Y-87851031D01*
X139020155Y-87833698D01*
X139040885Y-87818323D01*
X139063023Y-87805055D01*
X139086354Y-87794020D01*
X139110655Y-87785325D01*
X139135691Y-87779053D01*
X139161221Y-87775266D01*
X139187000Y-87774000D01*
X139813000Y-87774000D01*
X139838779Y-87775266D01*
X139838779Y-87775266D01*
G37*
D39*
X139500000Y-88300000D03*
D29*
G36*
X142274779Y-59764266D02*
G01*
X142300309Y-59768053D01*
X142325345Y-59774325D01*
X142349646Y-59783020D01*
X142372977Y-59794055D01*
X142395115Y-59807323D01*
X142415845Y-59822698D01*
X142434969Y-59840031D01*
X142452302Y-59859155D01*
X142467677Y-59879885D01*
X142480945Y-59902023D01*
X142491980Y-59925354D01*
X142500675Y-59949655D01*
X142506947Y-59974691D01*
X142510734Y-60000221D01*
X142512000Y-60026000D01*
X142512000Y-60652000D01*
X142510734Y-60677779D01*
X142506947Y-60703309D01*
X142500675Y-60728345D01*
X142491980Y-60752646D01*
X142480945Y-60775977D01*
X142467677Y-60798115D01*
X142452302Y-60818845D01*
X142434969Y-60837969D01*
X142415845Y-60855302D01*
X142395115Y-60870677D01*
X142372977Y-60883945D01*
X142349646Y-60894980D01*
X142325345Y-60903675D01*
X142300309Y-60909947D01*
X142274779Y-60913734D01*
X142249000Y-60915000D01*
X141723000Y-60915000D01*
X141697221Y-60913734D01*
X141671691Y-60909947D01*
X141646655Y-60903675D01*
X141622354Y-60894980D01*
X141599023Y-60883945D01*
X141576885Y-60870677D01*
X141556155Y-60855302D01*
X141537031Y-60837969D01*
X141519698Y-60818845D01*
X141504323Y-60798115D01*
X141491055Y-60775977D01*
X141480020Y-60752646D01*
X141471325Y-60728345D01*
X141465053Y-60703309D01*
X141461266Y-60677779D01*
X141460000Y-60652000D01*
X141460000Y-60026000D01*
X141461266Y-60000221D01*
X141465053Y-59974691D01*
X141471325Y-59949655D01*
X141480020Y-59925354D01*
X141491055Y-59902023D01*
X141504323Y-59879885D01*
X141519698Y-59859155D01*
X141537031Y-59840031D01*
X141556155Y-59822698D01*
X141576885Y-59807323D01*
X141599023Y-59794055D01*
X141622354Y-59783020D01*
X141646655Y-59774325D01*
X141671691Y-59768053D01*
X141697221Y-59764266D01*
X141723000Y-59763000D01*
X142249000Y-59763000D01*
X142274779Y-59764266D01*
X142274779Y-59764266D01*
G37*
D39*
X141986000Y-60339000D03*
D29*
G36*
X142274779Y-61514266D02*
G01*
X142300309Y-61518053D01*
X142325345Y-61524325D01*
X142349646Y-61533020D01*
X142372977Y-61544055D01*
X142395115Y-61557323D01*
X142415845Y-61572698D01*
X142434969Y-61590031D01*
X142452302Y-61609155D01*
X142467677Y-61629885D01*
X142480945Y-61652023D01*
X142491980Y-61675354D01*
X142500675Y-61699655D01*
X142506947Y-61724691D01*
X142510734Y-61750221D01*
X142512000Y-61776000D01*
X142512000Y-62402000D01*
X142510734Y-62427779D01*
X142506947Y-62453309D01*
X142500675Y-62478345D01*
X142491980Y-62502646D01*
X142480945Y-62525977D01*
X142467677Y-62548115D01*
X142452302Y-62568845D01*
X142434969Y-62587969D01*
X142415845Y-62605302D01*
X142395115Y-62620677D01*
X142372977Y-62633945D01*
X142349646Y-62644980D01*
X142325345Y-62653675D01*
X142300309Y-62659947D01*
X142274779Y-62663734D01*
X142249000Y-62665000D01*
X141723000Y-62665000D01*
X141697221Y-62663734D01*
X141671691Y-62659947D01*
X141646655Y-62653675D01*
X141622354Y-62644980D01*
X141599023Y-62633945D01*
X141576885Y-62620677D01*
X141556155Y-62605302D01*
X141537031Y-62587969D01*
X141519698Y-62568845D01*
X141504323Y-62548115D01*
X141491055Y-62525977D01*
X141480020Y-62502646D01*
X141471325Y-62478345D01*
X141465053Y-62453309D01*
X141461266Y-62427779D01*
X141460000Y-62402000D01*
X141460000Y-61776000D01*
X141461266Y-61750221D01*
X141465053Y-61724691D01*
X141471325Y-61699655D01*
X141480020Y-61675354D01*
X141491055Y-61652023D01*
X141504323Y-61629885D01*
X141519698Y-61609155D01*
X141537031Y-61590031D01*
X141556155Y-61572698D01*
X141576885Y-61557323D01*
X141599023Y-61544055D01*
X141622354Y-61533020D01*
X141646655Y-61524325D01*
X141671691Y-61518053D01*
X141697221Y-61514266D01*
X141723000Y-61513000D01*
X142249000Y-61513000D01*
X142274779Y-61514266D01*
X142274779Y-61514266D01*
G37*
D39*
X141986000Y-62089000D03*
D17*
X138800000Y-63150000D03*
D18*
X133700000Y-67050000D03*
D19*
X128200000Y-67050000D03*
X139200000Y-67050000D03*
D17*
X133700000Y-61150000D03*
X136240000Y-61970000D03*
X129890000Y-64510000D03*
D20*
X138780000Y-67050000D03*
X128620000Y-67050000D03*
D21*
X138920000Y-71250000D03*
X128480000Y-71250000D03*
D17*
X100700000Y-77700000D03*
D18*
X95600000Y-81600000D03*
D19*
X90100000Y-81600000D03*
X101100000Y-81600000D03*
D17*
X95600000Y-75700000D03*
X98140000Y-76520000D03*
X91790000Y-79060000D03*
D20*
X100680000Y-81600000D03*
X90520000Y-81600000D03*
D21*
X100820000Y-85800000D03*
X90380000Y-85800000D03*
D29*
G36*
X123225279Y-93709266D02*
G01*
X123250809Y-93713053D01*
X123275845Y-93719325D01*
X123300146Y-93728020D01*
X123323477Y-93739055D01*
X123345615Y-93752323D01*
X123366345Y-93767698D01*
X123385469Y-93785031D01*
X123402802Y-93804155D01*
X123418177Y-93824885D01*
X123431445Y-93847023D01*
X123442480Y-93870354D01*
X123451175Y-93894655D01*
X123457447Y-93919691D01*
X123461234Y-93945221D01*
X123462500Y-93971000D01*
X123462500Y-94497000D01*
X123461234Y-94522779D01*
X123457447Y-94548309D01*
X123451175Y-94573345D01*
X123442480Y-94597646D01*
X123431445Y-94620977D01*
X123418177Y-94643115D01*
X123402802Y-94663845D01*
X123385469Y-94682969D01*
X123366345Y-94700302D01*
X123345615Y-94715677D01*
X123323477Y-94728945D01*
X123300146Y-94739980D01*
X123275845Y-94748675D01*
X123250809Y-94754947D01*
X123225279Y-94758734D01*
X123199500Y-94760000D01*
X122573500Y-94760000D01*
X122547721Y-94758734D01*
X122522191Y-94754947D01*
X122497155Y-94748675D01*
X122472854Y-94739980D01*
X122449523Y-94728945D01*
X122427385Y-94715677D01*
X122406655Y-94700302D01*
X122387531Y-94682969D01*
X122370198Y-94663845D01*
X122354823Y-94643115D01*
X122341555Y-94620977D01*
X122330520Y-94597646D01*
X122321825Y-94573345D01*
X122315553Y-94548309D01*
X122311766Y-94522779D01*
X122310500Y-94497000D01*
X122310500Y-93971000D01*
X122311766Y-93945221D01*
X122315553Y-93919691D01*
X122321825Y-93894655D01*
X122330520Y-93870354D01*
X122341555Y-93847023D01*
X122354823Y-93824885D01*
X122370198Y-93804155D01*
X122387531Y-93785031D01*
X122406655Y-93767698D01*
X122427385Y-93752323D01*
X122449523Y-93739055D01*
X122472854Y-93728020D01*
X122497155Y-93719325D01*
X122522191Y-93713053D01*
X122547721Y-93709266D01*
X122573500Y-93708000D01*
X123199500Y-93708000D01*
X123225279Y-93709266D01*
X123225279Y-93709266D01*
G37*
D39*
X122886500Y-94234000D03*
D29*
G36*
X124975279Y-93709266D02*
G01*
X125000809Y-93713053D01*
X125025845Y-93719325D01*
X125050146Y-93728020D01*
X125073477Y-93739055D01*
X125095615Y-93752323D01*
X125116345Y-93767698D01*
X125135469Y-93785031D01*
X125152802Y-93804155D01*
X125168177Y-93824885D01*
X125181445Y-93847023D01*
X125192480Y-93870354D01*
X125201175Y-93894655D01*
X125207447Y-93919691D01*
X125211234Y-93945221D01*
X125212500Y-93971000D01*
X125212500Y-94497000D01*
X125211234Y-94522779D01*
X125207447Y-94548309D01*
X125201175Y-94573345D01*
X125192480Y-94597646D01*
X125181445Y-94620977D01*
X125168177Y-94643115D01*
X125152802Y-94663845D01*
X125135469Y-94682969D01*
X125116345Y-94700302D01*
X125095615Y-94715677D01*
X125073477Y-94728945D01*
X125050146Y-94739980D01*
X125025845Y-94748675D01*
X125000809Y-94754947D01*
X124975279Y-94758734D01*
X124949500Y-94760000D01*
X124323500Y-94760000D01*
X124297721Y-94758734D01*
X124272191Y-94754947D01*
X124247155Y-94748675D01*
X124222854Y-94739980D01*
X124199523Y-94728945D01*
X124177385Y-94715677D01*
X124156655Y-94700302D01*
X124137531Y-94682969D01*
X124120198Y-94663845D01*
X124104823Y-94643115D01*
X124091555Y-94620977D01*
X124080520Y-94597646D01*
X124071825Y-94573345D01*
X124065553Y-94548309D01*
X124061766Y-94522779D01*
X124060500Y-94497000D01*
X124060500Y-93971000D01*
X124061766Y-93945221D01*
X124065553Y-93919691D01*
X124071825Y-93894655D01*
X124080520Y-93870354D01*
X124091555Y-93847023D01*
X124104823Y-93824885D01*
X124120198Y-93804155D01*
X124137531Y-93785031D01*
X124156655Y-93767698D01*
X124177385Y-93752323D01*
X124199523Y-93739055D01*
X124222854Y-93728020D01*
X124247155Y-93719325D01*
X124272191Y-93713053D01*
X124297721Y-93709266D01*
X124323500Y-93708000D01*
X124949500Y-93708000D01*
X124975279Y-93709266D01*
X124975279Y-93709266D01*
G37*
D39*
X124636500Y-94234000D03*
D17*
X138850000Y-110800000D03*
D18*
X133750000Y-114700000D03*
D19*
X128250000Y-114700000D03*
X139250000Y-114700000D03*
D17*
X133750000Y-108800000D03*
X136290000Y-109620000D03*
X129940000Y-112160000D03*
D20*
X138830000Y-114700000D03*
X128670000Y-114700000D03*
D21*
X138970000Y-118900000D03*
X128530000Y-118900000D03*
D17*
X157850000Y-110800000D03*
D18*
X152750000Y-114700000D03*
D19*
X147250000Y-114700000D03*
X158250000Y-114700000D03*
D17*
X152750000Y-108800000D03*
X155290000Y-109620000D03*
X148940000Y-112160000D03*
D20*
X157830000Y-114700000D03*
X147670000Y-114700000D03*
D21*
X157970000Y-118900000D03*
X147530000Y-118900000D03*
D17*
X180185616Y-110152866D03*
D18*
X174250000Y-112600000D03*
D19*
X168937408Y-111176495D03*
X179562592Y-114023505D03*
D17*
X175777032Y-106901038D03*
X178018252Y-108350497D03*
X171227223Y-109160448D03*
D20*
X179156903Y-113914801D03*
X169343097Y-111285199D03*
D21*
X178205093Y-118007924D03*
X168120827Y-115305853D03*
D17*
X157850000Y-72650000D03*
D18*
X152750000Y-76550000D03*
D19*
X147250000Y-76550000D03*
X158250000Y-76550000D03*
D17*
X152750000Y-70650000D03*
X155290000Y-71470000D03*
X148940000Y-74010000D03*
D20*
X157830000Y-76550000D03*
X147670000Y-76550000D03*
D21*
X157970000Y-80750000D03*
X147530000Y-80750000D03*
D17*
X119800000Y-110800000D03*
D18*
X114700000Y-114700000D03*
D19*
X109200000Y-114700000D03*
X120200000Y-114700000D03*
D17*
X114700000Y-108800000D03*
X117240000Y-109620000D03*
X110890000Y-112160000D03*
D20*
X119780000Y-114700000D03*
X109620000Y-114700000D03*
D21*
X119920000Y-118900000D03*
X109480000Y-118900000D03*
D17*
X100660000Y-96780000D03*
D18*
X95560000Y-100680000D03*
D19*
X90060000Y-100680000D03*
X101060000Y-100680000D03*
D17*
X95560000Y-94780000D03*
X98100000Y-95600000D03*
X91750000Y-98140000D03*
D20*
X100640000Y-100680000D03*
X90480000Y-100680000D03*
D21*
X100780000Y-104880000D03*
X90340000Y-104880000D03*
D40*
X141173223Y-108128858D03*
D29*
G36*
X141102512Y-109120222D02*
G01*
X140181859Y-108199569D01*
X141243934Y-107137494D01*
X142164587Y-108058147D01*
X141102512Y-109120222D01*
X141102512Y-109120222D01*
G37*
D40*
X142728858Y-106573223D03*
D29*
G36*
X142658147Y-107564587D02*
G01*
X141737494Y-106643934D01*
X142799569Y-105581859D01*
X143720222Y-106502512D01*
X142658147Y-107564587D01*
X142658147Y-107564587D01*
G37*
D40*
X141526777Y-105371142D03*
D29*
G36*
X141456066Y-106362506D02*
G01*
X140535413Y-105441853D01*
X141597488Y-104379778D01*
X142518141Y-105300431D01*
X141456066Y-106362506D01*
X141456066Y-106362506D01*
G37*
D40*
X139971142Y-106926777D03*
D29*
G36*
X139900431Y-107918141D02*
G01*
X138979778Y-106997488D01*
X140041853Y-105935413D01*
X140962506Y-106856066D01*
X139900431Y-107918141D01*
X139900431Y-107918141D01*
G37*
G36*
X147413779Y-108250266D02*
G01*
X147439309Y-108254053D01*
X147464345Y-108260325D01*
X147488646Y-108269020D01*
X147511977Y-108280055D01*
X147534115Y-108293323D01*
X147554845Y-108308698D01*
X147573969Y-108326031D01*
X147591302Y-108345155D01*
X147606677Y-108365885D01*
X147619945Y-108388023D01*
X147630980Y-108411354D01*
X147639675Y-108435655D01*
X147645947Y-108460691D01*
X147649734Y-108486221D01*
X147651000Y-108512000D01*
X147651000Y-109038000D01*
X147649734Y-109063779D01*
X147645947Y-109089309D01*
X147639675Y-109114345D01*
X147630980Y-109138646D01*
X147619945Y-109161977D01*
X147606677Y-109184115D01*
X147591302Y-109204845D01*
X147573969Y-109223969D01*
X147554845Y-109241302D01*
X147534115Y-109256677D01*
X147511977Y-109269945D01*
X147488646Y-109280980D01*
X147464345Y-109289675D01*
X147439309Y-109295947D01*
X147413779Y-109299734D01*
X147388000Y-109301000D01*
X146762000Y-109301000D01*
X146736221Y-109299734D01*
X146710691Y-109295947D01*
X146685655Y-109289675D01*
X146661354Y-109280980D01*
X146638023Y-109269945D01*
X146615885Y-109256677D01*
X146595155Y-109241302D01*
X146576031Y-109223969D01*
X146558698Y-109204845D01*
X146543323Y-109184115D01*
X146530055Y-109161977D01*
X146519020Y-109138646D01*
X146510325Y-109114345D01*
X146504053Y-109089309D01*
X146500266Y-109063779D01*
X146499000Y-109038000D01*
X146499000Y-108512000D01*
X146500266Y-108486221D01*
X146504053Y-108460691D01*
X146510325Y-108435655D01*
X146519020Y-108411354D01*
X146530055Y-108388023D01*
X146543323Y-108365885D01*
X146558698Y-108345155D01*
X146576031Y-108326031D01*
X146595155Y-108308698D01*
X146615885Y-108293323D01*
X146638023Y-108280055D01*
X146661354Y-108269020D01*
X146685655Y-108260325D01*
X146710691Y-108254053D01*
X146736221Y-108250266D01*
X146762000Y-108249000D01*
X147388000Y-108249000D01*
X147413779Y-108250266D01*
X147413779Y-108250266D01*
G37*
D39*
X147075000Y-108775000D03*
D29*
G36*
X145663779Y-108250266D02*
G01*
X145689309Y-108254053D01*
X145714345Y-108260325D01*
X145738646Y-108269020D01*
X145761977Y-108280055D01*
X145784115Y-108293323D01*
X145804845Y-108308698D01*
X145823969Y-108326031D01*
X145841302Y-108345155D01*
X145856677Y-108365885D01*
X145869945Y-108388023D01*
X145880980Y-108411354D01*
X145889675Y-108435655D01*
X145895947Y-108460691D01*
X145899734Y-108486221D01*
X145901000Y-108512000D01*
X145901000Y-109038000D01*
X145899734Y-109063779D01*
X145895947Y-109089309D01*
X145889675Y-109114345D01*
X145880980Y-109138646D01*
X145869945Y-109161977D01*
X145856677Y-109184115D01*
X145841302Y-109204845D01*
X145823969Y-109223969D01*
X145804845Y-109241302D01*
X145784115Y-109256677D01*
X145761977Y-109269945D01*
X145738646Y-109280980D01*
X145714345Y-109289675D01*
X145689309Y-109295947D01*
X145663779Y-109299734D01*
X145638000Y-109301000D01*
X145012000Y-109301000D01*
X144986221Y-109299734D01*
X144960691Y-109295947D01*
X144935655Y-109289675D01*
X144911354Y-109280980D01*
X144888023Y-109269945D01*
X144865885Y-109256677D01*
X144845155Y-109241302D01*
X144826031Y-109223969D01*
X144808698Y-109204845D01*
X144793323Y-109184115D01*
X144780055Y-109161977D01*
X144769020Y-109138646D01*
X144760325Y-109114345D01*
X144754053Y-109089309D01*
X144750266Y-109063779D01*
X144749000Y-109038000D01*
X144749000Y-108512000D01*
X144750266Y-108486221D01*
X144754053Y-108460691D01*
X144760325Y-108435655D01*
X144769020Y-108411354D01*
X144780055Y-108388023D01*
X144793323Y-108365885D01*
X144808698Y-108345155D01*
X144826031Y-108326031D01*
X144845155Y-108308698D01*
X144865885Y-108293323D01*
X144888023Y-108280055D01*
X144911354Y-108269020D01*
X144935655Y-108260325D01*
X144960691Y-108254053D01*
X144986221Y-108250266D01*
X145012000Y-108249000D01*
X145638000Y-108249000D01*
X145663779Y-108250266D01*
X145663779Y-108250266D01*
G37*
D39*
X145325000Y-108775000D03*
D41*
X132768497Y-90789643D03*
D29*
G36*
X132414944Y-89799694D02*
G01*
X133758446Y-91143196D01*
X133122050Y-91779592D01*
X131778548Y-90436090D01*
X132414944Y-89799694D01*
X132414944Y-89799694D01*
G37*
D41*
X132202812Y-91355328D03*
D29*
G36*
X131849259Y-90365379D02*
G01*
X133192761Y-91708881D01*
X132556365Y-92345277D01*
X131212863Y-91001775D01*
X131849259Y-90365379D01*
X131849259Y-90365379D01*
G37*
D41*
X131637126Y-91921014D03*
D29*
G36*
X131283573Y-90931065D02*
G01*
X132627075Y-92274567D01*
X131990679Y-92910963D01*
X130647177Y-91567461D01*
X131283573Y-90931065D01*
X131283573Y-90931065D01*
G37*
D41*
X131071441Y-92486699D03*
D29*
G36*
X130717888Y-91496750D02*
G01*
X132061390Y-92840252D01*
X131424994Y-93476648D01*
X130081492Y-92133146D01*
X130717888Y-91496750D01*
X130717888Y-91496750D01*
G37*
D41*
X130505755Y-93052385D03*
D29*
G36*
X130152202Y-92062436D02*
G01*
X131495704Y-93405938D01*
X130859308Y-94042334D01*
X129515806Y-92698832D01*
X130152202Y-92062436D01*
X130152202Y-92062436D01*
G37*
D41*
X129940070Y-93618070D03*
D29*
G36*
X129586517Y-92628121D02*
G01*
X130930019Y-93971623D01*
X130293623Y-94608019D01*
X128950121Y-93264517D01*
X129586517Y-92628121D01*
X129586517Y-92628121D01*
G37*
D41*
X129374385Y-94183755D03*
D29*
G36*
X129020832Y-93193806D02*
G01*
X130364334Y-94537308D01*
X129727938Y-95173704D01*
X128384436Y-93830202D01*
X129020832Y-93193806D01*
X129020832Y-93193806D01*
G37*
D41*
X128808699Y-94749441D03*
D29*
G36*
X128455146Y-93759492D02*
G01*
X129798648Y-95102994D01*
X129162252Y-95739390D01*
X127818750Y-94395888D01*
X128455146Y-93759492D01*
X128455146Y-93759492D01*
G37*
D41*
X128243014Y-95315126D03*
D29*
G36*
X127889461Y-94325177D02*
G01*
X129232963Y-95668679D01*
X128596567Y-96305075D01*
X127253065Y-94961573D01*
X127889461Y-94325177D01*
X127889461Y-94325177D01*
G37*
D41*
X127677328Y-95880812D03*
D29*
G36*
X127323775Y-94890863D02*
G01*
X128667277Y-96234365D01*
X128030881Y-96870761D01*
X126687379Y-95527259D01*
X127323775Y-94890863D01*
X127323775Y-94890863D01*
G37*
D41*
X127111643Y-96446497D03*
D29*
G36*
X126758090Y-95456548D02*
G01*
X128101592Y-96800050D01*
X127465196Y-97436446D01*
X126121694Y-96092944D01*
X126758090Y-95456548D01*
X126758090Y-95456548D01*
G37*
D41*
X127111643Y-99133503D03*
D29*
G36*
X127465196Y-98143554D02*
G01*
X128101592Y-98779950D01*
X126758090Y-100123452D01*
X126121694Y-99487056D01*
X127465196Y-98143554D01*
X127465196Y-98143554D01*
G37*
D41*
X127677328Y-99699188D03*
D29*
G36*
X128030881Y-98709239D02*
G01*
X128667277Y-99345635D01*
X127323775Y-100689137D01*
X126687379Y-100052741D01*
X128030881Y-98709239D01*
X128030881Y-98709239D01*
G37*
D41*
X128243014Y-100264874D03*
D29*
G36*
X128596567Y-99274925D02*
G01*
X129232963Y-99911321D01*
X127889461Y-101254823D01*
X127253065Y-100618427D01*
X128596567Y-99274925D01*
X128596567Y-99274925D01*
G37*
D41*
X128808699Y-100830559D03*
D29*
G36*
X129162252Y-99840610D02*
G01*
X129798648Y-100477006D01*
X128455146Y-101820508D01*
X127818750Y-101184112D01*
X129162252Y-99840610D01*
X129162252Y-99840610D01*
G37*
D41*
X129374385Y-101396245D03*
D29*
G36*
X129727938Y-100406296D02*
G01*
X130364334Y-101042692D01*
X129020832Y-102386194D01*
X128384436Y-101749798D01*
X129727938Y-100406296D01*
X129727938Y-100406296D01*
G37*
D41*
X129940070Y-101961930D03*
D29*
G36*
X130293623Y-100971981D02*
G01*
X130930019Y-101608377D01*
X129586517Y-102951879D01*
X128950121Y-102315483D01*
X130293623Y-100971981D01*
X130293623Y-100971981D01*
G37*
D41*
X130505755Y-102527615D03*
D29*
G36*
X130859308Y-101537666D02*
G01*
X131495704Y-102174062D01*
X130152202Y-103517564D01*
X129515806Y-102881168D01*
X130859308Y-101537666D01*
X130859308Y-101537666D01*
G37*
D41*
X131071441Y-103093301D03*
D29*
G36*
X131424994Y-102103352D02*
G01*
X132061390Y-102739748D01*
X130717888Y-104083250D01*
X130081492Y-103446854D01*
X131424994Y-102103352D01*
X131424994Y-102103352D01*
G37*
D41*
X131637126Y-103658986D03*
D29*
G36*
X131990679Y-102669037D02*
G01*
X132627075Y-103305433D01*
X131283573Y-104648935D01*
X130647177Y-104012539D01*
X131990679Y-102669037D01*
X131990679Y-102669037D01*
G37*
D41*
X132202812Y-104224672D03*
D29*
G36*
X132556365Y-103234723D02*
G01*
X133192761Y-103871119D01*
X131849259Y-105214621D01*
X131212863Y-104578225D01*
X132556365Y-103234723D01*
X132556365Y-103234723D01*
G37*
D41*
X132768497Y-104790357D03*
D29*
G36*
X133122050Y-103800408D02*
G01*
X133758446Y-104436804D01*
X132414944Y-105780306D01*
X131778548Y-105143910D01*
X133122050Y-103800408D01*
X133122050Y-103800408D01*
G37*
D41*
X135455503Y-104790357D03*
D29*
G36*
X135101950Y-103800408D02*
G01*
X136445452Y-105143910D01*
X135809056Y-105780306D01*
X134465554Y-104436804D01*
X135101950Y-103800408D01*
X135101950Y-103800408D01*
G37*
D41*
X136021188Y-104224672D03*
D29*
G36*
X135667635Y-103234723D02*
G01*
X137011137Y-104578225D01*
X136374741Y-105214621D01*
X135031239Y-103871119D01*
X135667635Y-103234723D01*
X135667635Y-103234723D01*
G37*
D41*
X136586874Y-103658986D03*
D29*
G36*
X136233321Y-102669037D02*
G01*
X137576823Y-104012539D01*
X136940427Y-104648935D01*
X135596925Y-103305433D01*
X136233321Y-102669037D01*
X136233321Y-102669037D01*
G37*
D41*
X137152559Y-103093301D03*
D29*
G36*
X136799006Y-102103352D02*
G01*
X138142508Y-103446854D01*
X137506112Y-104083250D01*
X136162610Y-102739748D01*
X136799006Y-102103352D01*
X136799006Y-102103352D01*
G37*
D41*
X137718245Y-102527615D03*
D29*
G36*
X137364692Y-101537666D02*
G01*
X138708194Y-102881168D01*
X138071798Y-103517564D01*
X136728296Y-102174062D01*
X137364692Y-101537666D01*
X137364692Y-101537666D01*
G37*
D41*
X138283930Y-101961930D03*
D29*
G36*
X137930377Y-100971981D02*
G01*
X139273879Y-102315483D01*
X138637483Y-102951879D01*
X137293981Y-101608377D01*
X137930377Y-100971981D01*
X137930377Y-100971981D01*
G37*
D41*
X138849615Y-101396245D03*
D29*
G36*
X138496062Y-100406296D02*
G01*
X139839564Y-101749798D01*
X139203168Y-102386194D01*
X137859666Y-101042692D01*
X138496062Y-100406296D01*
X138496062Y-100406296D01*
G37*
D41*
X139415301Y-100830559D03*
D29*
G36*
X139061748Y-99840610D02*
G01*
X140405250Y-101184112D01*
X139768854Y-101820508D01*
X138425352Y-100477006D01*
X139061748Y-99840610D01*
X139061748Y-99840610D01*
G37*
D41*
X139980986Y-100264874D03*
D29*
G36*
X139627433Y-99274925D02*
G01*
X140970935Y-100618427D01*
X140334539Y-101254823D01*
X138991037Y-99911321D01*
X139627433Y-99274925D01*
X139627433Y-99274925D01*
G37*
D41*
X140546672Y-99699188D03*
D29*
G36*
X140193119Y-98709239D02*
G01*
X141536621Y-100052741D01*
X140900225Y-100689137D01*
X139556723Y-99345635D01*
X140193119Y-98709239D01*
X140193119Y-98709239D01*
G37*
D41*
X141112357Y-99133503D03*
D29*
G36*
X140758804Y-98143554D02*
G01*
X142102306Y-99487056D01*
X141465910Y-100123452D01*
X140122408Y-98779950D01*
X140758804Y-98143554D01*
X140758804Y-98143554D01*
G37*
D41*
X141112357Y-96446497D03*
D29*
G36*
X141465910Y-95456548D02*
G01*
X142102306Y-96092944D01*
X140758804Y-97436446D01*
X140122408Y-96800050D01*
X141465910Y-95456548D01*
X141465910Y-95456548D01*
G37*
D41*
X140546672Y-95880812D03*
D29*
G36*
X140900225Y-94890863D02*
G01*
X141536621Y-95527259D01*
X140193119Y-96870761D01*
X139556723Y-96234365D01*
X140900225Y-94890863D01*
X140900225Y-94890863D01*
G37*
D41*
X139980986Y-95315126D03*
D29*
G36*
X140334539Y-94325177D02*
G01*
X140970935Y-94961573D01*
X139627433Y-96305075D01*
X138991037Y-95668679D01*
X140334539Y-94325177D01*
X140334539Y-94325177D01*
G37*
D41*
X139415301Y-94749441D03*
D29*
G36*
X139768854Y-93759492D02*
G01*
X140405250Y-94395888D01*
X139061748Y-95739390D01*
X138425352Y-95102994D01*
X139768854Y-93759492D01*
X139768854Y-93759492D01*
G37*
D41*
X138849615Y-94183755D03*
D29*
G36*
X139203168Y-93193806D02*
G01*
X139839564Y-93830202D01*
X138496062Y-95173704D01*
X137859666Y-94537308D01*
X139203168Y-93193806D01*
X139203168Y-93193806D01*
G37*
D41*
X138283930Y-93618070D03*
D29*
G36*
X138637483Y-92628121D02*
G01*
X139273879Y-93264517D01*
X137930377Y-94608019D01*
X137293981Y-93971623D01*
X138637483Y-92628121D01*
X138637483Y-92628121D01*
G37*
D41*
X137718245Y-93052385D03*
D29*
G36*
X138071798Y-92062436D02*
G01*
X138708194Y-92698832D01*
X137364692Y-94042334D01*
X136728296Y-93405938D01*
X138071798Y-92062436D01*
X138071798Y-92062436D01*
G37*
D41*
X137152559Y-92486699D03*
D29*
G36*
X137506112Y-91496750D02*
G01*
X138142508Y-92133146D01*
X136799006Y-93476648D01*
X136162610Y-92840252D01*
X137506112Y-91496750D01*
X137506112Y-91496750D01*
G37*
D41*
X136586874Y-91921014D03*
D29*
G36*
X136940427Y-90931065D02*
G01*
X137576823Y-91567461D01*
X136233321Y-92910963D01*
X135596925Y-92274567D01*
X136940427Y-90931065D01*
X136940427Y-90931065D01*
G37*
D41*
X136021188Y-91355328D03*
D29*
G36*
X136374741Y-90365379D02*
G01*
X137011137Y-91001775D01*
X135667635Y-92345277D01*
X135031239Y-91708881D01*
X136374741Y-90365379D01*
X136374741Y-90365379D01*
G37*
D41*
X135455503Y-90789643D03*
D29*
G36*
X135809056Y-89799694D02*
G01*
X136445452Y-90436090D01*
X135101950Y-91779592D01*
X134465554Y-91143196D01*
X135809056Y-89799694D01*
X135809056Y-89799694D01*
G37*
G36*
X100186979Y-61844466D02*
G01*
X100212509Y-61848253D01*
X100237545Y-61854525D01*
X100261846Y-61863220D01*
X100285177Y-61874255D01*
X100307315Y-61887523D01*
X100328045Y-61902898D01*
X100347169Y-61920231D01*
X100364502Y-61939355D01*
X100379877Y-61960085D01*
X100393145Y-61982223D01*
X100404180Y-62005554D01*
X100412875Y-62029855D01*
X100419147Y-62054891D01*
X100422934Y-62080421D01*
X100424200Y-62106200D01*
X100424200Y-62732200D01*
X100422934Y-62757979D01*
X100419147Y-62783509D01*
X100412875Y-62808545D01*
X100404180Y-62832846D01*
X100393145Y-62856177D01*
X100379877Y-62878315D01*
X100364502Y-62899045D01*
X100347169Y-62918169D01*
X100328045Y-62935502D01*
X100307315Y-62950877D01*
X100285177Y-62964145D01*
X100261846Y-62975180D01*
X100237545Y-62983875D01*
X100212509Y-62990147D01*
X100186979Y-62993934D01*
X100161200Y-62995200D01*
X99635200Y-62995200D01*
X99609421Y-62993934D01*
X99583891Y-62990147D01*
X99558855Y-62983875D01*
X99534554Y-62975180D01*
X99511223Y-62964145D01*
X99489085Y-62950877D01*
X99468355Y-62935502D01*
X99449231Y-62918169D01*
X99431898Y-62899045D01*
X99416523Y-62878315D01*
X99403255Y-62856177D01*
X99392220Y-62832846D01*
X99383525Y-62808545D01*
X99377253Y-62783509D01*
X99373466Y-62757979D01*
X99372200Y-62732200D01*
X99372200Y-62106200D01*
X99373466Y-62080421D01*
X99377253Y-62054891D01*
X99383525Y-62029855D01*
X99392220Y-62005554D01*
X99403255Y-61982223D01*
X99416523Y-61960085D01*
X99431898Y-61939355D01*
X99449231Y-61920231D01*
X99468355Y-61902898D01*
X99489085Y-61887523D01*
X99511223Y-61874255D01*
X99534554Y-61863220D01*
X99558855Y-61854525D01*
X99583891Y-61848253D01*
X99609421Y-61844466D01*
X99635200Y-61843200D01*
X100161200Y-61843200D01*
X100186979Y-61844466D01*
X100186979Y-61844466D01*
G37*
D39*
X99898200Y-62419200D03*
D29*
G36*
X100186979Y-60094466D02*
G01*
X100212509Y-60098253D01*
X100237545Y-60104525D01*
X100261846Y-60113220D01*
X100285177Y-60124255D01*
X100307315Y-60137523D01*
X100328045Y-60152898D01*
X100347169Y-60170231D01*
X100364502Y-60189355D01*
X100379877Y-60210085D01*
X100393145Y-60232223D01*
X100404180Y-60255554D01*
X100412875Y-60279855D01*
X100419147Y-60304891D01*
X100422934Y-60330421D01*
X100424200Y-60356200D01*
X100424200Y-60982200D01*
X100422934Y-61007979D01*
X100419147Y-61033509D01*
X100412875Y-61058545D01*
X100404180Y-61082846D01*
X100393145Y-61106177D01*
X100379877Y-61128315D01*
X100364502Y-61149045D01*
X100347169Y-61168169D01*
X100328045Y-61185502D01*
X100307315Y-61200877D01*
X100285177Y-61214145D01*
X100261846Y-61225180D01*
X100237545Y-61233875D01*
X100212509Y-61240147D01*
X100186979Y-61243934D01*
X100161200Y-61245200D01*
X99635200Y-61245200D01*
X99609421Y-61243934D01*
X99583891Y-61240147D01*
X99558855Y-61233875D01*
X99534554Y-61225180D01*
X99511223Y-61214145D01*
X99489085Y-61200877D01*
X99468355Y-61185502D01*
X99449231Y-61168169D01*
X99431898Y-61149045D01*
X99416523Y-61128315D01*
X99403255Y-61106177D01*
X99392220Y-61082846D01*
X99383525Y-61058545D01*
X99377253Y-61033509D01*
X99373466Y-61007979D01*
X99372200Y-60982200D01*
X99372200Y-60356200D01*
X99373466Y-60330421D01*
X99377253Y-60304891D01*
X99383525Y-60279855D01*
X99392220Y-60255554D01*
X99403255Y-60232223D01*
X99416523Y-60210085D01*
X99431898Y-60189355D01*
X99449231Y-60170231D01*
X99468355Y-60152898D01*
X99489085Y-60137523D01*
X99511223Y-60124255D01*
X99534554Y-60113220D01*
X99558855Y-60104525D01*
X99583891Y-60098253D01*
X99609421Y-60094466D01*
X99635200Y-60093200D01*
X100161200Y-60093200D01*
X100186979Y-60094466D01*
X100186979Y-60094466D01*
G37*
D39*
X99898200Y-60669200D03*
D33*
X171800000Y-97100000D03*
X176800000Y-97100000D03*
D37*
X168700000Y-90100000D03*
X179900000Y-90100000D03*
D33*
X171800000Y-82600000D03*
X174300000Y-82600000D03*
D38*
X176800000Y-82600000D03*
D42*
X123100000Y-69575000D03*
D43*
X123100000Y-67540000D03*
D44*
X123100000Y-75160000D03*
D42*
X123100000Y-73125000D03*
D29*
G36*
X143888779Y-110425266D02*
G01*
X143914309Y-110429053D01*
X143939345Y-110435325D01*
X143963646Y-110444020D01*
X143986977Y-110455055D01*
X144009115Y-110468323D01*
X144029845Y-110483698D01*
X144048969Y-110501031D01*
X144066302Y-110520155D01*
X144081677Y-110540885D01*
X144094945Y-110563023D01*
X144105980Y-110586354D01*
X144114675Y-110610655D01*
X144120947Y-110635691D01*
X144124734Y-110661221D01*
X144126000Y-110687000D01*
X144126000Y-111213000D01*
X144124734Y-111238779D01*
X144120947Y-111264309D01*
X144114675Y-111289345D01*
X144105980Y-111313646D01*
X144094945Y-111336977D01*
X144081677Y-111359115D01*
X144066302Y-111379845D01*
X144048969Y-111398969D01*
X144029845Y-111416302D01*
X144009115Y-111431677D01*
X143986977Y-111444945D01*
X143963646Y-111455980D01*
X143939345Y-111464675D01*
X143914309Y-111470947D01*
X143888779Y-111474734D01*
X143863000Y-111476000D01*
X143237000Y-111476000D01*
X143211221Y-111474734D01*
X143185691Y-111470947D01*
X143160655Y-111464675D01*
X143136354Y-111455980D01*
X143113023Y-111444945D01*
X143090885Y-111431677D01*
X143070155Y-111416302D01*
X143051031Y-111398969D01*
X143033698Y-111379845D01*
X143018323Y-111359115D01*
X143005055Y-111336977D01*
X142994020Y-111313646D01*
X142985325Y-111289345D01*
X142979053Y-111264309D01*
X142975266Y-111238779D01*
X142974000Y-111213000D01*
X142974000Y-110687000D01*
X142975266Y-110661221D01*
X142979053Y-110635691D01*
X142985325Y-110610655D01*
X142994020Y-110586354D01*
X143005055Y-110563023D01*
X143018323Y-110540885D01*
X143033698Y-110520155D01*
X143051031Y-110501031D01*
X143070155Y-110483698D01*
X143090885Y-110468323D01*
X143113023Y-110455055D01*
X143136354Y-110444020D01*
X143160655Y-110435325D01*
X143185691Y-110429053D01*
X143211221Y-110425266D01*
X143237000Y-110424000D01*
X143863000Y-110424000D01*
X143888779Y-110425266D01*
X143888779Y-110425266D01*
G37*
D39*
X143550000Y-110950000D03*
D29*
G36*
X145638779Y-110425266D02*
G01*
X145664309Y-110429053D01*
X145689345Y-110435325D01*
X145713646Y-110444020D01*
X145736977Y-110455055D01*
X145759115Y-110468323D01*
X145779845Y-110483698D01*
X145798969Y-110501031D01*
X145816302Y-110520155D01*
X145831677Y-110540885D01*
X145844945Y-110563023D01*
X145855980Y-110586354D01*
X145864675Y-110610655D01*
X145870947Y-110635691D01*
X145874734Y-110661221D01*
X145876000Y-110687000D01*
X145876000Y-111213000D01*
X145874734Y-111238779D01*
X145870947Y-111264309D01*
X145864675Y-111289345D01*
X145855980Y-111313646D01*
X145844945Y-111336977D01*
X145831677Y-111359115D01*
X145816302Y-111379845D01*
X145798969Y-111398969D01*
X145779845Y-111416302D01*
X145759115Y-111431677D01*
X145736977Y-111444945D01*
X145713646Y-111455980D01*
X145689345Y-111464675D01*
X145664309Y-111470947D01*
X145638779Y-111474734D01*
X145613000Y-111476000D01*
X144987000Y-111476000D01*
X144961221Y-111474734D01*
X144935691Y-111470947D01*
X144910655Y-111464675D01*
X144886354Y-111455980D01*
X144863023Y-111444945D01*
X144840885Y-111431677D01*
X144820155Y-111416302D01*
X144801031Y-111398969D01*
X144783698Y-111379845D01*
X144768323Y-111359115D01*
X144755055Y-111336977D01*
X144744020Y-111313646D01*
X144735325Y-111289345D01*
X144729053Y-111264309D01*
X144725266Y-111238779D01*
X144724000Y-111213000D01*
X144724000Y-110687000D01*
X144725266Y-110661221D01*
X144729053Y-110635691D01*
X144735325Y-110610655D01*
X144744020Y-110586354D01*
X144755055Y-110563023D01*
X144768323Y-110540885D01*
X144783698Y-110520155D01*
X144801031Y-110501031D01*
X144820155Y-110483698D01*
X144840885Y-110468323D01*
X144863023Y-110455055D01*
X144886354Y-110444020D01*
X144910655Y-110435325D01*
X144935691Y-110429053D01*
X144961221Y-110425266D01*
X144987000Y-110424000D01*
X145613000Y-110424000D01*
X145638779Y-110425266D01*
X145638779Y-110425266D01*
G37*
D39*
X145300000Y-110950000D03*
D42*
X163000000Y-116850000D03*
D43*
X163000000Y-114815000D03*
D44*
X163000000Y-122435000D03*
D42*
X163000000Y-120400000D03*
X160750000Y-89375000D03*
D43*
X160750000Y-87340000D03*
D44*
X160750000Y-94960000D03*
D42*
X160750000Y-92925000D03*
X160950000Y-79075000D03*
D43*
X160950000Y-77040000D03*
D44*
X160950000Y-84660000D03*
D42*
X160950000Y-82625000D03*
X160750000Y-116850000D03*
D43*
X160750000Y-114815000D03*
D44*
X160750000Y-122435000D03*
D42*
X160750000Y-120400000D03*
X142400000Y-82300000D03*
D43*
X142400000Y-80265000D03*
D44*
X142400000Y-87885000D03*
D42*
X142400000Y-85850000D03*
X141950000Y-69675000D03*
D43*
X141950000Y-67640000D03*
D44*
X141950000Y-75260000D03*
D42*
X141950000Y-73225000D03*
X163450000Y-89375000D03*
D43*
X163450000Y-87340000D03*
D44*
X163450000Y-94960000D03*
D42*
X163450000Y-92925000D03*
X143002000Y-116850000D03*
D43*
X143002000Y-114815000D03*
D44*
X143002000Y-122435000D03*
D42*
X143002000Y-120400000D03*
X123190000Y-82299000D03*
D43*
X123190000Y-80264000D03*
D44*
X123190000Y-87884000D03*
D42*
X123190000Y-85849000D03*
X163500000Y-79075000D03*
D43*
X163500000Y-77040000D03*
D44*
X163500000Y-84660000D03*
D42*
X163500000Y-82625000D03*
X105664000Y-116850000D03*
D43*
X105664000Y-114815000D03*
D44*
X105664000Y-122435000D03*
D42*
X105664000Y-120400000D03*
X103900000Y-94450000D03*
D43*
X103900000Y-92415000D03*
D44*
X103900000Y-100035000D03*
D42*
X103900000Y-98000000D03*
X104050000Y-81725000D03*
D43*
X104050000Y-79690000D03*
D44*
X104050000Y-87310000D03*
D42*
X104050000Y-85275000D03*
D29*
G36*
X129717363Y-75910290D02*
G01*
X129743369Y-75914148D01*
X129768871Y-75920535D01*
X129793624Y-75929392D01*
X129817390Y-75940633D01*
X129839939Y-75954148D01*
X129861056Y-75969809D01*
X129880535Y-75987465D01*
X129898191Y-76006944D01*
X129913852Y-76028061D01*
X129927367Y-76050610D01*
X129938608Y-76074376D01*
X129947465Y-76099129D01*
X129953852Y-76124631D01*
X129957710Y-76150637D01*
X129959000Y-76176895D01*
X129959000Y-77493105D01*
X129957710Y-77519363D01*
X129953852Y-77545369D01*
X129947465Y-77570871D01*
X129938608Y-77595624D01*
X129927367Y-77619390D01*
X129913852Y-77641939D01*
X129898191Y-77663056D01*
X129880535Y-77682535D01*
X129861056Y-77700191D01*
X129839939Y-77715852D01*
X129817390Y-77729367D01*
X129793624Y-77740608D01*
X129768871Y-77749465D01*
X129743369Y-77755852D01*
X129717363Y-77759710D01*
X129691105Y-77761000D01*
X128699895Y-77761000D01*
X128673637Y-77759710D01*
X128647631Y-77755852D01*
X128622129Y-77749465D01*
X128597376Y-77740608D01*
X128573610Y-77729367D01*
X128551061Y-77715852D01*
X128529944Y-77700191D01*
X128510465Y-77682535D01*
X128492809Y-77663056D01*
X128477148Y-77641939D01*
X128463633Y-77619390D01*
X128452392Y-77595624D01*
X128443535Y-77570871D01*
X128437148Y-77545369D01*
X128433290Y-77519363D01*
X128432000Y-77493105D01*
X128432000Y-76176895D01*
X128433290Y-76150637D01*
X128437148Y-76124631D01*
X128443535Y-76099129D01*
X128452392Y-76074376D01*
X128463633Y-76050610D01*
X128477148Y-76028061D01*
X128492809Y-76006944D01*
X128510465Y-75987465D01*
X128529944Y-75969809D01*
X128551061Y-75954148D01*
X128573610Y-75940633D01*
X128597376Y-75929392D01*
X128622129Y-75920535D01*
X128647631Y-75914148D01*
X128673637Y-75910290D01*
X128699895Y-75909000D01*
X129691105Y-75909000D01*
X129717363Y-75910290D01*
X129717363Y-75910290D01*
G37*
D45*
X129195500Y-76835000D03*
D29*
G36*
X132692363Y-75910290D02*
G01*
X132718369Y-75914148D01*
X132743871Y-75920535D01*
X132768624Y-75929392D01*
X132792390Y-75940633D01*
X132814939Y-75954148D01*
X132836056Y-75969809D01*
X132855535Y-75987465D01*
X132873191Y-76006944D01*
X132888852Y-76028061D01*
X132902367Y-76050610D01*
X132913608Y-76074376D01*
X132922465Y-76099129D01*
X132928852Y-76124631D01*
X132932710Y-76150637D01*
X132934000Y-76176895D01*
X132934000Y-77493105D01*
X132932710Y-77519363D01*
X132928852Y-77545369D01*
X132922465Y-77570871D01*
X132913608Y-77595624D01*
X132902367Y-77619390D01*
X132888852Y-77641939D01*
X132873191Y-77663056D01*
X132855535Y-77682535D01*
X132836056Y-77700191D01*
X132814939Y-77715852D01*
X132792390Y-77729367D01*
X132768624Y-77740608D01*
X132743871Y-77749465D01*
X132718369Y-77755852D01*
X132692363Y-77759710D01*
X132666105Y-77761000D01*
X131674895Y-77761000D01*
X131648637Y-77759710D01*
X131622631Y-77755852D01*
X131597129Y-77749465D01*
X131572376Y-77740608D01*
X131548610Y-77729367D01*
X131526061Y-77715852D01*
X131504944Y-77700191D01*
X131485465Y-77682535D01*
X131467809Y-77663056D01*
X131452148Y-77641939D01*
X131438633Y-77619390D01*
X131427392Y-77595624D01*
X131418535Y-77570871D01*
X131412148Y-77545369D01*
X131408290Y-77519363D01*
X131407000Y-77493105D01*
X131407000Y-76176895D01*
X131408290Y-76150637D01*
X131412148Y-76124631D01*
X131418535Y-76099129D01*
X131427392Y-76074376D01*
X131438633Y-76050610D01*
X131452148Y-76028061D01*
X131467809Y-76006944D01*
X131485465Y-75987465D01*
X131504944Y-75969809D01*
X131526061Y-75954148D01*
X131548610Y-75940633D01*
X131572376Y-75929392D01*
X131597129Y-75920535D01*
X131622631Y-75914148D01*
X131648637Y-75910290D01*
X131674895Y-75909000D01*
X132666105Y-75909000D01*
X132692363Y-75910290D01*
X132692363Y-75910290D01*
G37*
D45*
X132170500Y-76835000D03*
D29*
G36*
X149513779Y-103515766D02*
G01*
X149539309Y-103519553D01*
X149564345Y-103525825D01*
X149588646Y-103534520D01*
X149611977Y-103545555D01*
X149634115Y-103558823D01*
X149654845Y-103574198D01*
X149673969Y-103591531D01*
X149691302Y-103610655D01*
X149706677Y-103631385D01*
X149719945Y-103653523D01*
X149730980Y-103676854D01*
X149739675Y-103701155D01*
X149745947Y-103726191D01*
X149749734Y-103751721D01*
X149751000Y-103777500D01*
X149751000Y-104403500D01*
X149749734Y-104429279D01*
X149745947Y-104454809D01*
X149739675Y-104479845D01*
X149730980Y-104504146D01*
X149719945Y-104527477D01*
X149706677Y-104549615D01*
X149691302Y-104570345D01*
X149673969Y-104589469D01*
X149654845Y-104606802D01*
X149634115Y-104622177D01*
X149611977Y-104635445D01*
X149588646Y-104646480D01*
X149564345Y-104655175D01*
X149539309Y-104661447D01*
X149513779Y-104665234D01*
X149488000Y-104666500D01*
X148962000Y-104666500D01*
X148936221Y-104665234D01*
X148910691Y-104661447D01*
X148885655Y-104655175D01*
X148861354Y-104646480D01*
X148838023Y-104635445D01*
X148815885Y-104622177D01*
X148795155Y-104606802D01*
X148776031Y-104589469D01*
X148758698Y-104570345D01*
X148743323Y-104549615D01*
X148730055Y-104527477D01*
X148719020Y-104504146D01*
X148710325Y-104479845D01*
X148704053Y-104454809D01*
X148700266Y-104429279D01*
X148699000Y-104403500D01*
X148699000Y-103777500D01*
X148700266Y-103751721D01*
X148704053Y-103726191D01*
X148710325Y-103701155D01*
X148719020Y-103676854D01*
X148730055Y-103653523D01*
X148743323Y-103631385D01*
X148758698Y-103610655D01*
X148776031Y-103591531D01*
X148795155Y-103574198D01*
X148815885Y-103558823D01*
X148838023Y-103545555D01*
X148861354Y-103534520D01*
X148885655Y-103525825D01*
X148910691Y-103519553D01*
X148936221Y-103515766D01*
X148962000Y-103514500D01*
X149488000Y-103514500D01*
X149513779Y-103515766D01*
X149513779Y-103515766D01*
G37*
D39*
X149225000Y-104090500D03*
D29*
G36*
X149513779Y-101765766D02*
G01*
X149539309Y-101769553D01*
X149564345Y-101775825D01*
X149588646Y-101784520D01*
X149611977Y-101795555D01*
X149634115Y-101808823D01*
X149654845Y-101824198D01*
X149673969Y-101841531D01*
X149691302Y-101860655D01*
X149706677Y-101881385D01*
X149719945Y-101903523D01*
X149730980Y-101926854D01*
X149739675Y-101951155D01*
X149745947Y-101976191D01*
X149749734Y-102001721D01*
X149751000Y-102027500D01*
X149751000Y-102653500D01*
X149749734Y-102679279D01*
X149745947Y-102704809D01*
X149739675Y-102729845D01*
X149730980Y-102754146D01*
X149719945Y-102777477D01*
X149706677Y-102799615D01*
X149691302Y-102820345D01*
X149673969Y-102839469D01*
X149654845Y-102856802D01*
X149634115Y-102872177D01*
X149611977Y-102885445D01*
X149588646Y-102896480D01*
X149564345Y-102905175D01*
X149539309Y-102911447D01*
X149513779Y-102915234D01*
X149488000Y-102916500D01*
X148962000Y-102916500D01*
X148936221Y-102915234D01*
X148910691Y-102911447D01*
X148885655Y-102905175D01*
X148861354Y-102896480D01*
X148838023Y-102885445D01*
X148815885Y-102872177D01*
X148795155Y-102856802D01*
X148776031Y-102839469D01*
X148758698Y-102820345D01*
X148743323Y-102799615D01*
X148730055Y-102777477D01*
X148719020Y-102754146D01*
X148710325Y-102729845D01*
X148704053Y-102704809D01*
X148700266Y-102679279D01*
X148699000Y-102653500D01*
X148699000Y-102027500D01*
X148700266Y-102001721D01*
X148704053Y-101976191D01*
X148710325Y-101951155D01*
X148719020Y-101926854D01*
X148730055Y-101903523D01*
X148743323Y-101881385D01*
X148758698Y-101860655D01*
X148776031Y-101841531D01*
X148795155Y-101824198D01*
X148815885Y-101808823D01*
X148838023Y-101795555D01*
X148861354Y-101784520D01*
X148885655Y-101775825D01*
X148910691Y-101769553D01*
X148936221Y-101765766D01*
X148962000Y-101764500D01*
X149488000Y-101764500D01*
X149513779Y-101765766D01*
X149513779Y-101765766D01*
G37*
D39*
X149225000Y-102340500D03*
D29*
G36*
X152464779Y-103515766D02*
G01*
X152490309Y-103519553D01*
X152515345Y-103525825D01*
X152539646Y-103534520D01*
X152562977Y-103545555D01*
X152585115Y-103558823D01*
X152605845Y-103574198D01*
X152624969Y-103591531D01*
X152642302Y-103610655D01*
X152657677Y-103631385D01*
X152670945Y-103653523D01*
X152681980Y-103676854D01*
X152690675Y-103701155D01*
X152696947Y-103726191D01*
X152700734Y-103751721D01*
X152702000Y-103777500D01*
X152702000Y-104403500D01*
X152700734Y-104429279D01*
X152696947Y-104454809D01*
X152690675Y-104479845D01*
X152681980Y-104504146D01*
X152670945Y-104527477D01*
X152657677Y-104549615D01*
X152642302Y-104570345D01*
X152624969Y-104589469D01*
X152605845Y-104606802D01*
X152585115Y-104622177D01*
X152562977Y-104635445D01*
X152539646Y-104646480D01*
X152515345Y-104655175D01*
X152490309Y-104661447D01*
X152464779Y-104665234D01*
X152439000Y-104666500D01*
X151913000Y-104666500D01*
X151887221Y-104665234D01*
X151861691Y-104661447D01*
X151836655Y-104655175D01*
X151812354Y-104646480D01*
X151789023Y-104635445D01*
X151766885Y-104622177D01*
X151746155Y-104606802D01*
X151727031Y-104589469D01*
X151709698Y-104570345D01*
X151694323Y-104549615D01*
X151681055Y-104527477D01*
X151670020Y-104504146D01*
X151661325Y-104479845D01*
X151655053Y-104454809D01*
X151651266Y-104429279D01*
X151650000Y-104403500D01*
X151650000Y-103777500D01*
X151651266Y-103751721D01*
X151655053Y-103726191D01*
X151661325Y-103701155D01*
X151670020Y-103676854D01*
X151681055Y-103653523D01*
X151694323Y-103631385D01*
X151709698Y-103610655D01*
X151727031Y-103591531D01*
X151746155Y-103574198D01*
X151766885Y-103558823D01*
X151789023Y-103545555D01*
X151812354Y-103534520D01*
X151836655Y-103525825D01*
X151861691Y-103519553D01*
X151887221Y-103515766D01*
X151913000Y-103514500D01*
X152439000Y-103514500D01*
X152464779Y-103515766D01*
X152464779Y-103515766D01*
G37*
D39*
X152176000Y-104090500D03*
D29*
G36*
X152464779Y-101765766D02*
G01*
X152490309Y-101769553D01*
X152515345Y-101775825D01*
X152539646Y-101784520D01*
X152562977Y-101795555D01*
X152585115Y-101808823D01*
X152605845Y-101824198D01*
X152624969Y-101841531D01*
X152642302Y-101860655D01*
X152657677Y-101881385D01*
X152670945Y-101903523D01*
X152681980Y-101926854D01*
X152690675Y-101951155D01*
X152696947Y-101976191D01*
X152700734Y-102001721D01*
X152702000Y-102027500D01*
X152702000Y-102653500D01*
X152700734Y-102679279D01*
X152696947Y-102704809D01*
X152690675Y-102729845D01*
X152681980Y-102754146D01*
X152670945Y-102777477D01*
X152657677Y-102799615D01*
X152642302Y-102820345D01*
X152624969Y-102839469D01*
X152605845Y-102856802D01*
X152585115Y-102872177D01*
X152562977Y-102885445D01*
X152539646Y-102896480D01*
X152515345Y-102905175D01*
X152490309Y-102911447D01*
X152464779Y-102915234D01*
X152439000Y-102916500D01*
X151913000Y-102916500D01*
X151887221Y-102915234D01*
X151861691Y-102911447D01*
X151836655Y-102905175D01*
X151812354Y-102896480D01*
X151789023Y-102885445D01*
X151766885Y-102872177D01*
X151746155Y-102856802D01*
X151727031Y-102839469D01*
X151709698Y-102820345D01*
X151694323Y-102799615D01*
X151681055Y-102777477D01*
X151670020Y-102754146D01*
X151661325Y-102729845D01*
X151655053Y-102704809D01*
X151651266Y-102679279D01*
X151650000Y-102653500D01*
X151650000Y-102027500D01*
X151651266Y-102001721D01*
X151655053Y-101976191D01*
X151661325Y-101951155D01*
X151670020Y-101926854D01*
X151681055Y-101903523D01*
X151694323Y-101881385D01*
X151709698Y-101860655D01*
X151727031Y-101841531D01*
X151746155Y-101824198D01*
X151766885Y-101808823D01*
X151789023Y-101795555D01*
X151812354Y-101784520D01*
X151836655Y-101775825D01*
X151861691Y-101769553D01*
X151887221Y-101765766D01*
X151913000Y-101764500D01*
X152439000Y-101764500D01*
X152464779Y-101765766D01*
X152464779Y-101765766D01*
G37*
D39*
X152176000Y-102340500D03*
D29*
G36*
X156149968Y-101810795D02*
G01*
X156176069Y-101814667D01*
X156201666Y-101821078D01*
X156226511Y-101829968D01*
X156250365Y-101841250D01*
X156272998Y-101854816D01*
X156294193Y-101870535D01*
X156313745Y-101888255D01*
X156331465Y-101907807D01*
X156347184Y-101929002D01*
X156360750Y-101951635D01*
X156372032Y-101975489D01*
X156380922Y-102000334D01*
X156387333Y-102025931D01*
X156391205Y-102052032D01*
X156392500Y-102078388D01*
X156392500Y-103217612D01*
X156391205Y-103243968D01*
X156387333Y-103270069D01*
X156380922Y-103295666D01*
X156372032Y-103320511D01*
X156360750Y-103344365D01*
X156347184Y-103366998D01*
X156331465Y-103388193D01*
X156313745Y-103407745D01*
X156294193Y-103425465D01*
X156272998Y-103441184D01*
X156250365Y-103454750D01*
X156226511Y-103466032D01*
X156201666Y-103474922D01*
X156176069Y-103481333D01*
X156149968Y-103485205D01*
X156123612Y-103486500D01*
X155209388Y-103486500D01*
X155183032Y-103485205D01*
X155156931Y-103481333D01*
X155131334Y-103474922D01*
X155106489Y-103466032D01*
X155082635Y-103454750D01*
X155060002Y-103441184D01*
X155038807Y-103425465D01*
X155019255Y-103407745D01*
X155001535Y-103388193D01*
X154985816Y-103366998D01*
X154972250Y-103344365D01*
X154960968Y-103320511D01*
X154952078Y-103295666D01*
X154945667Y-103270069D01*
X154941795Y-103243968D01*
X154940500Y-103217612D01*
X154940500Y-102078388D01*
X154941795Y-102052032D01*
X154945667Y-102025931D01*
X154952078Y-102000334D01*
X154960968Y-101975489D01*
X154972250Y-101951635D01*
X154985816Y-101929002D01*
X155001535Y-101907807D01*
X155019255Y-101888255D01*
X155038807Y-101870535D01*
X155060002Y-101854816D01*
X155082635Y-101841250D01*
X155106489Y-101829968D01*
X155131334Y-101821078D01*
X155156931Y-101814667D01*
X155183032Y-101810795D01*
X155209388Y-101809500D01*
X156123612Y-101809500D01*
X156149968Y-101810795D01*
X156149968Y-101810795D01*
G37*
D30*
X155666500Y-102648000D03*
D29*
G36*
X156149968Y-104685795D02*
G01*
X156176069Y-104689667D01*
X156201666Y-104696078D01*
X156226511Y-104704968D01*
X156250365Y-104716250D01*
X156272998Y-104729816D01*
X156294193Y-104745535D01*
X156313745Y-104763255D01*
X156331465Y-104782807D01*
X156347184Y-104804002D01*
X156360750Y-104826635D01*
X156372032Y-104850489D01*
X156380922Y-104875334D01*
X156387333Y-104900931D01*
X156391205Y-104927032D01*
X156392500Y-104953388D01*
X156392500Y-106092612D01*
X156391205Y-106118968D01*
X156387333Y-106145069D01*
X156380922Y-106170666D01*
X156372032Y-106195511D01*
X156360750Y-106219365D01*
X156347184Y-106241998D01*
X156331465Y-106263193D01*
X156313745Y-106282745D01*
X156294193Y-106300465D01*
X156272998Y-106316184D01*
X156250365Y-106329750D01*
X156226511Y-106341032D01*
X156201666Y-106349922D01*
X156176069Y-106356333D01*
X156149968Y-106360205D01*
X156123612Y-106361500D01*
X155209388Y-106361500D01*
X155183032Y-106360205D01*
X155156931Y-106356333D01*
X155131334Y-106349922D01*
X155106489Y-106341032D01*
X155082635Y-106329750D01*
X155060002Y-106316184D01*
X155038807Y-106300465D01*
X155019255Y-106282745D01*
X155001535Y-106263193D01*
X154985816Y-106241998D01*
X154972250Y-106219365D01*
X154960968Y-106195511D01*
X154952078Y-106170666D01*
X154945667Y-106145069D01*
X154941795Y-106118968D01*
X154940500Y-106092612D01*
X154940500Y-104953388D01*
X154941795Y-104927032D01*
X154945667Y-104900931D01*
X154952078Y-104875334D01*
X154960968Y-104850489D01*
X154972250Y-104826635D01*
X154985816Y-104804002D01*
X155001535Y-104782807D01*
X155019255Y-104763255D01*
X155038807Y-104745535D01*
X155060002Y-104729816D01*
X155082635Y-104716250D01*
X155106489Y-104704968D01*
X155131334Y-104696078D01*
X155156931Y-104689667D01*
X155183032Y-104685795D01*
X155209388Y-104684500D01*
X156123612Y-104684500D01*
X156149968Y-104685795D01*
X156149968Y-104685795D01*
G37*
D30*
X155666500Y-105523000D03*
D29*
G36*
X126338779Y-84400266D02*
G01*
X126364309Y-84404053D01*
X126389345Y-84410325D01*
X126413646Y-84419020D01*
X126436977Y-84430055D01*
X126459115Y-84443323D01*
X126479845Y-84458698D01*
X126498969Y-84476031D01*
X126516302Y-84495155D01*
X126531677Y-84515885D01*
X126544945Y-84538023D01*
X126555980Y-84561354D01*
X126564675Y-84585655D01*
X126570947Y-84610691D01*
X126574734Y-84636221D01*
X126576000Y-84662000D01*
X126576000Y-85288000D01*
X126574734Y-85313779D01*
X126570947Y-85339309D01*
X126564675Y-85364345D01*
X126555980Y-85388646D01*
X126544945Y-85411977D01*
X126531677Y-85434115D01*
X126516302Y-85454845D01*
X126498969Y-85473969D01*
X126479845Y-85491302D01*
X126459115Y-85506677D01*
X126436977Y-85519945D01*
X126413646Y-85530980D01*
X126389345Y-85539675D01*
X126364309Y-85545947D01*
X126338779Y-85549734D01*
X126313000Y-85551000D01*
X125787000Y-85551000D01*
X125761221Y-85549734D01*
X125735691Y-85545947D01*
X125710655Y-85539675D01*
X125686354Y-85530980D01*
X125663023Y-85519945D01*
X125640885Y-85506677D01*
X125620155Y-85491302D01*
X125601031Y-85473969D01*
X125583698Y-85454845D01*
X125568323Y-85434115D01*
X125555055Y-85411977D01*
X125544020Y-85388646D01*
X125535325Y-85364345D01*
X125529053Y-85339309D01*
X125525266Y-85313779D01*
X125524000Y-85288000D01*
X125524000Y-84662000D01*
X125525266Y-84636221D01*
X125529053Y-84610691D01*
X125535325Y-84585655D01*
X125544020Y-84561354D01*
X125555055Y-84538023D01*
X125568323Y-84515885D01*
X125583698Y-84495155D01*
X125601031Y-84476031D01*
X125620155Y-84458698D01*
X125640885Y-84443323D01*
X125663023Y-84430055D01*
X125686354Y-84419020D01*
X125710655Y-84410325D01*
X125735691Y-84404053D01*
X125761221Y-84400266D01*
X125787000Y-84399000D01*
X126313000Y-84399000D01*
X126338779Y-84400266D01*
X126338779Y-84400266D01*
G37*
D39*
X126050000Y-84975000D03*
D29*
G36*
X126338779Y-86150266D02*
G01*
X126364309Y-86154053D01*
X126389345Y-86160325D01*
X126413646Y-86169020D01*
X126436977Y-86180055D01*
X126459115Y-86193323D01*
X126479845Y-86208698D01*
X126498969Y-86226031D01*
X126516302Y-86245155D01*
X126531677Y-86265885D01*
X126544945Y-86288023D01*
X126555980Y-86311354D01*
X126564675Y-86335655D01*
X126570947Y-86360691D01*
X126574734Y-86386221D01*
X126576000Y-86412000D01*
X126576000Y-87038000D01*
X126574734Y-87063779D01*
X126570947Y-87089309D01*
X126564675Y-87114345D01*
X126555980Y-87138646D01*
X126544945Y-87161977D01*
X126531677Y-87184115D01*
X126516302Y-87204845D01*
X126498969Y-87223969D01*
X126479845Y-87241302D01*
X126459115Y-87256677D01*
X126436977Y-87269945D01*
X126413646Y-87280980D01*
X126389345Y-87289675D01*
X126364309Y-87295947D01*
X126338779Y-87299734D01*
X126313000Y-87301000D01*
X125787000Y-87301000D01*
X125761221Y-87299734D01*
X125735691Y-87295947D01*
X125710655Y-87289675D01*
X125686354Y-87280980D01*
X125663023Y-87269945D01*
X125640885Y-87256677D01*
X125620155Y-87241302D01*
X125601031Y-87223969D01*
X125583698Y-87204845D01*
X125568323Y-87184115D01*
X125555055Y-87161977D01*
X125544020Y-87138646D01*
X125535325Y-87114345D01*
X125529053Y-87089309D01*
X125525266Y-87063779D01*
X125524000Y-87038000D01*
X125524000Y-86412000D01*
X125525266Y-86386221D01*
X125529053Y-86360691D01*
X125535325Y-86335655D01*
X125544020Y-86311354D01*
X125555055Y-86288023D01*
X125568323Y-86265885D01*
X125583698Y-86245155D01*
X125601031Y-86226031D01*
X125620155Y-86208698D01*
X125640885Y-86193323D01*
X125663023Y-86180055D01*
X125686354Y-86169020D01*
X125710655Y-86160325D01*
X125735691Y-86154053D01*
X125761221Y-86150266D01*
X125787000Y-86149000D01*
X126313000Y-86149000D01*
X126338779Y-86150266D01*
X126338779Y-86150266D01*
G37*
D39*
X126050000Y-86725000D03*
D46*
X151384000Y-63627000D03*
X151384000Y-61087000D03*
X153924000Y-63627000D03*
X153924000Y-61087000D03*
X156464000Y-63627000D03*
D47*
X156464000Y-61087000D03*
D29*
G36*
X123163779Y-91125266D02*
G01*
X123189309Y-91129053D01*
X123214345Y-91135325D01*
X123238646Y-91144020D01*
X123261977Y-91155055D01*
X123284115Y-91168323D01*
X123304845Y-91183698D01*
X123323969Y-91201031D01*
X123341302Y-91220155D01*
X123356677Y-91240885D01*
X123369945Y-91263023D01*
X123380980Y-91286354D01*
X123389675Y-91310655D01*
X123395947Y-91335691D01*
X123399734Y-91361221D01*
X123401000Y-91387000D01*
X123401000Y-91913000D01*
X123399734Y-91938779D01*
X123395947Y-91964309D01*
X123389675Y-91989345D01*
X123380980Y-92013646D01*
X123369945Y-92036977D01*
X123356677Y-92059115D01*
X123341302Y-92079845D01*
X123323969Y-92098969D01*
X123304845Y-92116302D01*
X123284115Y-92131677D01*
X123261977Y-92144945D01*
X123238646Y-92155980D01*
X123214345Y-92164675D01*
X123189309Y-92170947D01*
X123163779Y-92174734D01*
X123138000Y-92176000D01*
X122512000Y-92176000D01*
X122486221Y-92174734D01*
X122460691Y-92170947D01*
X122435655Y-92164675D01*
X122411354Y-92155980D01*
X122388023Y-92144945D01*
X122365885Y-92131677D01*
X122345155Y-92116302D01*
X122326031Y-92098969D01*
X122308698Y-92079845D01*
X122293323Y-92059115D01*
X122280055Y-92036977D01*
X122269020Y-92013646D01*
X122260325Y-91989345D01*
X122254053Y-91964309D01*
X122250266Y-91938779D01*
X122249000Y-91913000D01*
X122249000Y-91387000D01*
X122250266Y-91361221D01*
X122254053Y-91335691D01*
X122260325Y-91310655D01*
X122269020Y-91286354D01*
X122280055Y-91263023D01*
X122293323Y-91240885D01*
X122308698Y-91220155D01*
X122326031Y-91201031D01*
X122345155Y-91183698D01*
X122365885Y-91168323D01*
X122388023Y-91155055D01*
X122411354Y-91144020D01*
X122435655Y-91135325D01*
X122460691Y-91129053D01*
X122486221Y-91125266D01*
X122512000Y-91124000D01*
X123138000Y-91124000D01*
X123163779Y-91125266D01*
X123163779Y-91125266D01*
G37*
D39*
X122825000Y-91650000D03*
D29*
G36*
X124913779Y-91125266D02*
G01*
X124939309Y-91129053D01*
X124964345Y-91135325D01*
X124988646Y-91144020D01*
X125011977Y-91155055D01*
X125034115Y-91168323D01*
X125054845Y-91183698D01*
X125073969Y-91201031D01*
X125091302Y-91220155D01*
X125106677Y-91240885D01*
X125119945Y-91263023D01*
X125130980Y-91286354D01*
X125139675Y-91310655D01*
X125145947Y-91335691D01*
X125149734Y-91361221D01*
X125151000Y-91387000D01*
X125151000Y-91913000D01*
X125149734Y-91938779D01*
X125145947Y-91964309D01*
X125139675Y-91989345D01*
X125130980Y-92013646D01*
X125119945Y-92036977D01*
X125106677Y-92059115D01*
X125091302Y-92079845D01*
X125073969Y-92098969D01*
X125054845Y-92116302D01*
X125034115Y-92131677D01*
X125011977Y-92144945D01*
X124988646Y-92155980D01*
X124964345Y-92164675D01*
X124939309Y-92170947D01*
X124913779Y-92174734D01*
X124888000Y-92176000D01*
X124262000Y-92176000D01*
X124236221Y-92174734D01*
X124210691Y-92170947D01*
X124185655Y-92164675D01*
X124161354Y-92155980D01*
X124138023Y-92144945D01*
X124115885Y-92131677D01*
X124095155Y-92116302D01*
X124076031Y-92098969D01*
X124058698Y-92079845D01*
X124043323Y-92059115D01*
X124030055Y-92036977D01*
X124019020Y-92013646D01*
X124010325Y-91989345D01*
X124004053Y-91964309D01*
X124000266Y-91938779D01*
X123999000Y-91913000D01*
X123999000Y-91387000D01*
X124000266Y-91361221D01*
X124004053Y-91335691D01*
X124010325Y-91310655D01*
X124019020Y-91286354D01*
X124030055Y-91263023D01*
X124043323Y-91240885D01*
X124058698Y-91220155D01*
X124076031Y-91201031D01*
X124095155Y-91183698D01*
X124115885Y-91168323D01*
X124138023Y-91155055D01*
X124161354Y-91144020D01*
X124185655Y-91135325D01*
X124210691Y-91129053D01*
X124236221Y-91125266D01*
X124262000Y-91124000D01*
X124888000Y-91124000D01*
X124913779Y-91125266D01*
X124913779Y-91125266D01*
G37*
D39*
X124575000Y-91650000D03*
D29*
G36*
X97443779Y-61844466D02*
G01*
X97469309Y-61848253D01*
X97494345Y-61854525D01*
X97518646Y-61863220D01*
X97541977Y-61874255D01*
X97564115Y-61887523D01*
X97584845Y-61902898D01*
X97603969Y-61920231D01*
X97621302Y-61939355D01*
X97636677Y-61960085D01*
X97649945Y-61982223D01*
X97660980Y-62005554D01*
X97669675Y-62029855D01*
X97675947Y-62054891D01*
X97679734Y-62080421D01*
X97681000Y-62106200D01*
X97681000Y-62732200D01*
X97679734Y-62757979D01*
X97675947Y-62783509D01*
X97669675Y-62808545D01*
X97660980Y-62832846D01*
X97649945Y-62856177D01*
X97636677Y-62878315D01*
X97621302Y-62899045D01*
X97603969Y-62918169D01*
X97584845Y-62935502D01*
X97564115Y-62950877D01*
X97541977Y-62964145D01*
X97518646Y-62975180D01*
X97494345Y-62983875D01*
X97469309Y-62990147D01*
X97443779Y-62993934D01*
X97418000Y-62995200D01*
X96892000Y-62995200D01*
X96866221Y-62993934D01*
X96840691Y-62990147D01*
X96815655Y-62983875D01*
X96791354Y-62975180D01*
X96768023Y-62964145D01*
X96745885Y-62950877D01*
X96725155Y-62935502D01*
X96706031Y-62918169D01*
X96688698Y-62899045D01*
X96673323Y-62878315D01*
X96660055Y-62856177D01*
X96649020Y-62832846D01*
X96640325Y-62808545D01*
X96634053Y-62783509D01*
X96630266Y-62757979D01*
X96629000Y-62732200D01*
X96629000Y-62106200D01*
X96630266Y-62080421D01*
X96634053Y-62054891D01*
X96640325Y-62029855D01*
X96649020Y-62005554D01*
X96660055Y-61982223D01*
X96673323Y-61960085D01*
X96688698Y-61939355D01*
X96706031Y-61920231D01*
X96725155Y-61902898D01*
X96745885Y-61887523D01*
X96768023Y-61874255D01*
X96791354Y-61863220D01*
X96815655Y-61854525D01*
X96840691Y-61848253D01*
X96866221Y-61844466D01*
X96892000Y-61843200D01*
X97418000Y-61843200D01*
X97443779Y-61844466D01*
X97443779Y-61844466D01*
G37*
D39*
X97155000Y-62419200D03*
D29*
G36*
X97443779Y-60094466D02*
G01*
X97469309Y-60098253D01*
X97494345Y-60104525D01*
X97518646Y-60113220D01*
X97541977Y-60124255D01*
X97564115Y-60137523D01*
X97584845Y-60152898D01*
X97603969Y-60170231D01*
X97621302Y-60189355D01*
X97636677Y-60210085D01*
X97649945Y-60232223D01*
X97660980Y-60255554D01*
X97669675Y-60279855D01*
X97675947Y-60304891D01*
X97679734Y-60330421D01*
X97681000Y-60356200D01*
X97681000Y-60982200D01*
X97679734Y-61007979D01*
X97675947Y-61033509D01*
X97669675Y-61058545D01*
X97660980Y-61082846D01*
X97649945Y-61106177D01*
X97636677Y-61128315D01*
X97621302Y-61149045D01*
X97603969Y-61168169D01*
X97584845Y-61185502D01*
X97564115Y-61200877D01*
X97541977Y-61214145D01*
X97518646Y-61225180D01*
X97494345Y-61233875D01*
X97469309Y-61240147D01*
X97443779Y-61243934D01*
X97418000Y-61245200D01*
X96892000Y-61245200D01*
X96866221Y-61243934D01*
X96840691Y-61240147D01*
X96815655Y-61233875D01*
X96791354Y-61225180D01*
X96768023Y-61214145D01*
X96745885Y-61200877D01*
X96725155Y-61185502D01*
X96706031Y-61168169D01*
X96688698Y-61149045D01*
X96673323Y-61128315D01*
X96660055Y-61106177D01*
X96649020Y-61082846D01*
X96640325Y-61058545D01*
X96634053Y-61033509D01*
X96630266Y-61007979D01*
X96629000Y-60982200D01*
X96629000Y-60356200D01*
X96630266Y-60330421D01*
X96634053Y-60304891D01*
X96640325Y-60279855D01*
X96649020Y-60255554D01*
X96660055Y-60232223D01*
X96673323Y-60210085D01*
X96688698Y-60189355D01*
X96706031Y-60170231D01*
X96725155Y-60152898D01*
X96745885Y-60137523D01*
X96768023Y-60124255D01*
X96791354Y-60113220D01*
X96815655Y-60104525D01*
X96840691Y-60098253D01*
X96866221Y-60094466D01*
X96892000Y-60093200D01*
X97418000Y-60093200D01*
X97443779Y-60094466D01*
X97443779Y-60094466D01*
G37*
D39*
X97155000Y-60669200D03*
D29*
G36*
X150613779Y-99025266D02*
G01*
X150639309Y-99029053D01*
X150664345Y-99035325D01*
X150688646Y-99044020D01*
X150711977Y-99055055D01*
X150734115Y-99068323D01*
X150754845Y-99083698D01*
X150773969Y-99101031D01*
X150791302Y-99120155D01*
X150806677Y-99140885D01*
X150819945Y-99163023D01*
X150830980Y-99186354D01*
X150839675Y-99210655D01*
X150845947Y-99235691D01*
X150849734Y-99261221D01*
X150851000Y-99287000D01*
X150851000Y-99813000D01*
X150849734Y-99838779D01*
X150845947Y-99864309D01*
X150839675Y-99889345D01*
X150830980Y-99913646D01*
X150819945Y-99936977D01*
X150806677Y-99959115D01*
X150791302Y-99979845D01*
X150773969Y-99998969D01*
X150754845Y-100016302D01*
X150734115Y-100031677D01*
X150711977Y-100044945D01*
X150688646Y-100055980D01*
X150664345Y-100064675D01*
X150639309Y-100070947D01*
X150613779Y-100074734D01*
X150588000Y-100076000D01*
X149962000Y-100076000D01*
X149936221Y-100074734D01*
X149910691Y-100070947D01*
X149885655Y-100064675D01*
X149861354Y-100055980D01*
X149838023Y-100044945D01*
X149815885Y-100031677D01*
X149795155Y-100016302D01*
X149776031Y-99998969D01*
X149758698Y-99979845D01*
X149743323Y-99959115D01*
X149730055Y-99936977D01*
X149719020Y-99913646D01*
X149710325Y-99889345D01*
X149704053Y-99864309D01*
X149700266Y-99838779D01*
X149699000Y-99813000D01*
X149699000Y-99287000D01*
X149700266Y-99261221D01*
X149704053Y-99235691D01*
X149710325Y-99210655D01*
X149719020Y-99186354D01*
X149730055Y-99163023D01*
X149743323Y-99140885D01*
X149758698Y-99120155D01*
X149776031Y-99101031D01*
X149795155Y-99083698D01*
X149815885Y-99068323D01*
X149838023Y-99055055D01*
X149861354Y-99044020D01*
X149885655Y-99035325D01*
X149910691Y-99029053D01*
X149936221Y-99025266D01*
X149962000Y-99024000D01*
X150588000Y-99024000D01*
X150613779Y-99025266D01*
X150613779Y-99025266D01*
G37*
D39*
X150275000Y-99550000D03*
D29*
G36*
X152363779Y-99025266D02*
G01*
X152389309Y-99029053D01*
X152414345Y-99035325D01*
X152438646Y-99044020D01*
X152461977Y-99055055D01*
X152484115Y-99068323D01*
X152504845Y-99083698D01*
X152523969Y-99101031D01*
X152541302Y-99120155D01*
X152556677Y-99140885D01*
X152569945Y-99163023D01*
X152580980Y-99186354D01*
X152589675Y-99210655D01*
X152595947Y-99235691D01*
X152599734Y-99261221D01*
X152601000Y-99287000D01*
X152601000Y-99813000D01*
X152599734Y-99838779D01*
X152595947Y-99864309D01*
X152589675Y-99889345D01*
X152580980Y-99913646D01*
X152569945Y-99936977D01*
X152556677Y-99959115D01*
X152541302Y-99979845D01*
X152523969Y-99998969D01*
X152504845Y-100016302D01*
X152484115Y-100031677D01*
X152461977Y-100044945D01*
X152438646Y-100055980D01*
X152414345Y-100064675D01*
X152389309Y-100070947D01*
X152363779Y-100074734D01*
X152338000Y-100076000D01*
X151712000Y-100076000D01*
X151686221Y-100074734D01*
X151660691Y-100070947D01*
X151635655Y-100064675D01*
X151611354Y-100055980D01*
X151588023Y-100044945D01*
X151565885Y-100031677D01*
X151545155Y-100016302D01*
X151526031Y-99998969D01*
X151508698Y-99979845D01*
X151493323Y-99959115D01*
X151480055Y-99936977D01*
X151469020Y-99913646D01*
X151460325Y-99889345D01*
X151454053Y-99864309D01*
X151450266Y-99838779D01*
X151449000Y-99813000D01*
X151449000Y-99287000D01*
X151450266Y-99261221D01*
X151454053Y-99235691D01*
X151460325Y-99210655D01*
X151469020Y-99186354D01*
X151480055Y-99163023D01*
X151493323Y-99140885D01*
X151508698Y-99120155D01*
X151526031Y-99101031D01*
X151545155Y-99083698D01*
X151565885Y-99068323D01*
X151588023Y-99055055D01*
X151611354Y-99044020D01*
X151635655Y-99035325D01*
X151660691Y-99029053D01*
X151686221Y-99025266D01*
X151712000Y-99024000D01*
X152338000Y-99024000D01*
X152363779Y-99025266D01*
X152363779Y-99025266D01*
G37*
D39*
X152025000Y-99550000D03*
D28*
X146500000Y-105150000D03*
X146500000Y-102350000D03*
M02*
