M48
; DRILL file {KiCad (5.1.4-0-10_14)} date 2019 October 30, Wednesday 04:12:14
; FORMAT={3:3/ absolute / metric / suppress trailing zeros}
; #@! TF.CreationDate,2019-10-30T04:12:14+09:00
; #@! TF.GenerationSoftware,Kicad,Pcbnew,(5.1.4-0-10_14)
; #@! TF.FileFunction,NonPlated,1,2,NPTH
FMAT,2
METRIC,LZ
T1C0.600
T2C0.800
T3C0.900
T4C1.000
T5C1.700
T6C1.900
T7C2.100
T8C4.000
T9C4.100
%
G90
G05
T1
X095713Y-064315
X101493Y-064315
T2
X090741Y-064099
X090741Y-069099
T3
X1516Y-03887
X1546Y-03887
T4
X14753Y-08075
X15797Y-08075
X10958Y-0763
X12002Y-0763
X12853Y-09025
X13897Y-09025
X168121Y-115306
X178205Y-118008
X09034Y-10488
X12853Y-1189
X13897Y-1189
X14753Y-09975
X15797Y-1189
X10953Y-0952
X11997Y-0952
X09038Y-0858
X10082Y-0858
X14753Y-1189
X10078Y-10488
X15797Y-09975
X10948Y-1189
X11992Y-1189
X12848Y-07125
X13892Y-07125
T5
X14767Y-07655
X15783Y-07655
X10972Y-0721
X11988Y-0721
X12867Y-08605
X13883Y-08605
X169343Y-111285
X14767Y-09555
X15783Y-09555
X179157Y-113915
X09052Y-0816
X10068Y-0816
X14767Y-1147
X09048Y-10068
X10064Y-10068
X10967Y-091
X11983Y-091
X15783Y-1147
X12862Y-06705
X13878Y-06705
X11978Y-1147
X12867Y-1147
X13883Y-1147
X10962Y-1147
T6
X168937Y-111176
X179563Y-114024
X14725Y-09555
X15825Y-09555
X12825Y-08605
X13925Y-08605
X0901Y-0816
X1011Y-0816
X09006Y-10068
X10106Y-10068
X12025Y-091
X14725Y-1147
X15825Y-1147
X10925Y-091
X13925Y-1147
X12825Y-1147
X1282Y-06705
X1392Y-06705
X1092Y-1147
X1202Y-1147
X14725Y-07655
X15825Y-07655
X1093Y-0721
X1203Y-0721
T7
X124206Y-04164
X124206Y-05302
X181784Y-05302
X181784Y-04164
T8
X09556Y-10068
X13375Y-1147
X1337Y-06705
X1147Y-1147
X15275Y-07655
X1148Y-0721
X17425Y-1126
X15275Y-09555
X13375Y-08605
X15275Y-1147
X11475Y-091
X0956Y-0816
T9
X10287Y-070866
X164389Y-111303
X164389Y-070866
X10287Y-111303
T0
M30
