G04 #@! TF.GenerationSoftware,KiCad,Pcbnew,(5.1.4-0-10_14)*
G04 #@! TF.CreationDate,2020-03-30T03:10:15+09:00*
G04 #@! TF.ProjectId,palette1202-PM-back,70616c65-7474-4653-9132-30322d504d2d,rev?*
G04 #@! TF.SameCoordinates,Original*
G04 #@! TF.FileFunction,Copper,L1,Top*
G04 #@! TF.FilePolarity,Positive*
%FSLAX46Y46*%
G04 Gerber Fmt 4.6, Leading zero omitted, Abs format (unit mm)*
G04 Created by KiCad (PCBNEW (5.1.4-0-10_14)) date 2020-03-30 03:10:15*
%MOMM*%
%LPD*%
G04 APERTURE LIST*
%ADD10C,0.254000*%
G04 APERTURE END LIST*
D10*
G36*
X182905692Y-36639813D02*
G01*
X183033071Y-36654362D01*
X183037604Y-36655004D01*
X183039185Y-36655061D01*
X183043364Y-36655538D01*
X183053277Y-36655628D01*
X183057078Y-36655636D01*
X183180070Y-36659193D01*
X183290505Y-36667774D01*
X183396293Y-36681038D01*
X183494682Y-36697920D01*
X183589908Y-36718556D01*
X183684029Y-36743221D01*
X183772778Y-36770499D01*
X183858160Y-36800584D01*
X183944725Y-36835085D01*
X184025027Y-36870853D01*
X184102251Y-36908857D01*
X184177132Y-36949270D01*
X184249984Y-36992155D01*
X184321127Y-37037651D01*
X184390596Y-37085768D01*
X184456406Y-37134979D01*
X184524181Y-37189654D01*
X184585594Y-37243007D01*
X184644778Y-37298212D01*
X184704531Y-37358096D01*
X184760548Y-37418449D01*
X184814827Y-37481309D01*
X184866187Y-37545289D01*
X184915503Y-37611443D01*
X184963439Y-37680878D01*
X185009885Y-37753817D01*
X185052412Y-37826456D01*
X185094223Y-37904502D01*
X185132281Y-37982625D01*
X185167753Y-38063181D01*
X185201209Y-38148110D01*
X185230859Y-38233227D01*
X185258463Y-38324309D01*
X185282202Y-38416405D01*
X185302945Y-38514063D01*
X185319395Y-38612626D01*
X185332233Y-38718998D01*
X185340113Y-38825957D01*
X185343528Y-38962048D01*
X185360505Y-39099572D01*
X185393306Y-39199119D01*
X185393305Y-54469434D01*
X185393262Y-54469877D01*
X185393305Y-54501180D01*
X185393305Y-54533807D01*
X185393350Y-54534269D01*
X185484598Y-120956150D01*
X185451212Y-121059589D01*
X185435075Y-121197213D01*
X185434956Y-121207126D01*
X185434856Y-121227077D01*
X185430770Y-121346869D01*
X185421642Y-121457598D01*
X185408515Y-121559051D01*
X185391212Y-121657961D01*
X185369750Y-121755248D01*
X185345471Y-121846560D01*
X185317708Y-121935860D01*
X185287518Y-122020682D01*
X185252906Y-122106787D01*
X185217567Y-122185574D01*
X185179099Y-122263275D01*
X185138761Y-122337593D01*
X185095704Y-122410359D01*
X185049976Y-122481513D01*
X185002871Y-122549250D01*
X184953447Y-122615137D01*
X184899033Y-122682397D01*
X184844984Y-122744423D01*
X184788606Y-122804629D01*
X184730092Y-122862799D01*
X184669532Y-122918841D01*
X184607183Y-122972527D01*
X184539587Y-123026551D01*
X184473436Y-123075559D01*
X184405602Y-123122127D01*
X184331093Y-123169297D01*
X184252949Y-123214613D01*
X184178670Y-123253972D01*
X184098705Y-123292525D01*
X184019279Y-123327109D01*
X183936490Y-123359403D01*
X183850739Y-123388986D01*
X183757986Y-123416753D01*
X183667187Y-123439830D01*
X183571859Y-123459818D01*
X183472788Y-123476131D01*
X183370029Y-123488382D01*
X183262084Y-123496239D01*
X183128865Y-123499518D01*
X182991334Y-123516429D01*
X182891405Y-123549303D01*
X89400905Y-123549303D01*
X89295776Y-123515457D01*
X89158139Y-123499421D01*
X89148226Y-123499310D01*
X89132949Y-123499245D01*
X89011067Y-123495248D01*
X88902269Y-123486418D01*
X88796480Y-123472814D01*
X88698604Y-123455712D01*
X88604666Y-123435095D01*
X88513966Y-123411168D01*
X88425171Y-123383779D01*
X88337631Y-123352800D01*
X88255444Y-123319965D01*
X88175172Y-123284210D01*
X88093908Y-123244131D01*
X88019481Y-123203798D01*
X87945614Y-123160119D01*
X87871680Y-123112535D01*
X87803783Y-123065176D01*
X87737937Y-123015629D01*
X87671914Y-122962083D01*
X87609826Y-122907877D01*
X87550009Y-122851770D01*
X87491889Y-122793218D01*
X87435873Y-122732596D01*
X87382144Y-122670102D01*
X87329385Y-122604041D01*
X87280310Y-122537797D01*
X87233666Y-122469852D01*
X87187310Y-122396689D01*
X87144796Y-122323698D01*
X87105091Y-122249310D01*
X87065478Y-122167703D01*
X87030621Y-122088126D01*
X86997648Y-122004049D01*
X86967733Y-121917747D01*
X86940923Y-121828854D01*
X86916378Y-121732975D01*
X86896289Y-121637483D01*
X86879918Y-121538447D01*
X86867660Y-121436197D01*
X86859761Y-121328978D01*
X86856349Y-121192897D01*
X86839375Y-121055373D01*
X86806572Y-120955814D01*
X86806572Y-110136842D01*
X101312000Y-110136842D01*
X101312000Y-110468758D01*
X101376754Y-110794296D01*
X101503772Y-111100947D01*
X101688175Y-111376925D01*
X101922875Y-111611625D01*
X102198853Y-111796028D01*
X102505504Y-111923046D01*
X102831042Y-111987800D01*
X103162958Y-111987800D01*
X103488496Y-111923046D01*
X103795147Y-111796028D01*
X104071125Y-111611625D01*
X104305825Y-111376925D01*
X104490228Y-111100947D01*
X104617246Y-110794296D01*
X104682000Y-110468758D01*
X104682000Y-110136842D01*
X161862300Y-110136842D01*
X161862300Y-110468758D01*
X161927054Y-110794296D01*
X162054072Y-111100947D01*
X162238475Y-111376925D01*
X162473175Y-111611625D01*
X162749153Y-111796028D01*
X163055804Y-111923046D01*
X163381342Y-111987800D01*
X163713258Y-111987800D01*
X164038796Y-111923046D01*
X164345447Y-111796028D01*
X164621425Y-111611625D01*
X164856125Y-111376925D01*
X165040528Y-111100947D01*
X165167546Y-110794296D01*
X165232300Y-110468758D01*
X165232300Y-110136842D01*
X165167546Y-109811304D01*
X165040528Y-109504653D01*
X164856125Y-109228675D01*
X164621425Y-108993975D01*
X164345447Y-108809572D01*
X164038796Y-108682554D01*
X163713258Y-108617800D01*
X163381342Y-108617800D01*
X163055804Y-108682554D01*
X162749153Y-108809572D01*
X162473175Y-108993975D01*
X162238475Y-109228675D01*
X162054072Y-109504653D01*
X161927054Y-109811304D01*
X161862300Y-110136842D01*
X104682000Y-110136842D01*
X104617246Y-109811304D01*
X104490228Y-109504653D01*
X104305825Y-109228675D01*
X104071125Y-108993975D01*
X103795147Y-108809572D01*
X103488496Y-108682554D01*
X103162958Y-108617800D01*
X102831042Y-108617800D01*
X102505504Y-108682554D01*
X102198853Y-108809572D01*
X101922875Y-108993975D01*
X101688175Y-109228675D01*
X101503772Y-109504653D01*
X101376754Y-109811304D01*
X101312000Y-110136842D01*
X86806572Y-110136842D01*
X86806572Y-70700042D01*
X101312000Y-70700042D01*
X101312000Y-71031958D01*
X101376754Y-71357496D01*
X101503772Y-71664147D01*
X101688175Y-71940125D01*
X101922875Y-72174825D01*
X102198853Y-72359228D01*
X102505504Y-72486246D01*
X102831042Y-72551000D01*
X103162958Y-72551000D01*
X103488496Y-72486246D01*
X103795147Y-72359228D01*
X104071125Y-72174825D01*
X104305825Y-71940125D01*
X104490228Y-71664147D01*
X104617246Y-71357496D01*
X104682000Y-71031958D01*
X104682000Y-70700042D01*
X161862300Y-70700042D01*
X161862300Y-71031958D01*
X161927054Y-71357496D01*
X162054072Y-71664147D01*
X162238475Y-71940125D01*
X162473175Y-72174825D01*
X162749153Y-72359228D01*
X163055804Y-72486246D01*
X163381342Y-72551000D01*
X163713258Y-72551000D01*
X164038796Y-72486246D01*
X164345447Y-72359228D01*
X164621425Y-72174825D01*
X164856125Y-71940125D01*
X165040528Y-71664147D01*
X165167546Y-71357496D01*
X165232300Y-71031958D01*
X165232300Y-70700042D01*
X165167546Y-70374504D01*
X165040528Y-70067853D01*
X164856125Y-69791875D01*
X164621425Y-69557175D01*
X164345447Y-69372772D01*
X164038796Y-69245754D01*
X163713258Y-69181000D01*
X163381342Y-69181000D01*
X163055804Y-69245754D01*
X162749153Y-69372772D01*
X162473175Y-69557175D01*
X162238475Y-69791875D01*
X162054072Y-70067853D01*
X161927054Y-70374504D01*
X161862300Y-70700042D01*
X104682000Y-70700042D01*
X104617246Y-70374504D01*
X104490228Y-70067853D01*
X104305825Y-69791875D01*
X104071125Y-69557175D01*
X103795147Y-69372772D01*
X103488496Y-69245754D01*
X103162958Y-69181000D01*
X102831042Y-69181000D01*
X102505504Y-69245754D01*
X102198853Y-69372772D01*
X101922875Y-69557175D01*
X101688175Y-69791875D01*
X101503772Y-70067853D01*
X101376754Y-70374504D01*
X101312000Y-70700042D01*
X86806572Y-70700042D01*
X86806572Y-39199887D01*
X86840332Y-39095229D01*
X86856446Y-38957601D01*
X86856564Y-38947689D01*
X86856660Y-38928010D01*
X86860958Y-38804346D01*
X86869836Y-38697589D01*
X86882998Y-38595889D01*
X86900334Y-38496778D01*
X86921211Y-38401910D01*
X86945051Y-38311797D01*
X86972545Y-38222840D01*
X87002863Y-38137218D01*
X87035580Y-38055267D01*
X87070979Y-37975668D01*
X87109866Y-37896573D01*
X87150151Y-37821929D01*
X87194021Y-37747469D01*
X87240380Y-37675140D01*
X87287640Y-37607057D01*
X87337386Y-37540648D01*
X87390144Y-37475301D01*
X87444224Y-37413052D01*
X87500514Y-37352761D01*
X87558945Y-37294500D01*
X87619426Y-37238363D01*
X87681875Y-37184430D01*
X87746647Y-37132431D01*
X87812424Y-37083406D01*
X87880793Y-37036178D01*
X87951672Y-36990942D01*
X88024164Y-36948351D01*
X88105598Y-36904646D01*
X88184832Y-36866073D01*
X88265916Y-36830437D01*
X88348211Y-36798043D01*
X88437939Y-36766854D01*
X88526826Y-36740027D01*
X88619202Y-36716292D01*
X88714881Y-36696007D01*
X88813570Y-36679535D01*
X88919764Y-36666718D01*
X89029543Y-36658685D01*
X89162624Y-36655415D01*
X89300156Y-36638509D01*
X89400117Y-36605629D01*
X182798682Y-36605629D01*
X182905692Y-36639813D01*
X182905692Y-36639813D01*
G37*
X182905692Y-36639813D02*
X183033071Y-36654362D01*
X183037604Y-36655004D01*
X183039185Y-36655061D01*
X183043364Y-36655538D01*
X183053277Y-36655628D01*
X183057078Y-36655636D01*
X183180070Y-36659193D01*
X183290505Y-36667774D01*
X183396293Y-36681038D01*
X183494682Y-36697920D01*
X183589908Y-36718556D01*
X183684029Y-36743221D01*
X183772778Y-36770499D01*
X183858160Y-36800584D01*
X183944725Y-36835085D01*
X184025027Y-36870853D01*
X184102251Y-36908857D01*
X184177132Y-36949270D01*
X184249984Y-36992155D01*
X184321127Y-37037651D01*
X184390596Y-37085768D01*
X184456406Y-37134979D01*
X184524181Y-37189654D01*
X184585594Y-37243007D01*
X184644778Y-37298212D01*
X184704531Y-37358096D01*
X184760548Y-37418449D01*
X184814827Y-37481309D01*
X184866187Y-37545289D01*
X184915503Y-37611443D01*
X184963439Y-37680878D01*
X185009885Y-37753817D01*
X185052412Y-37826456D01*
X185094223Y-37904502D01*
X185132281Y-37982625D01*
X185167753Y-38063181D01*
X185201209Y-38148110D01*
X185230859Y-38233227D01*
X185258463Y-38324309D01*
X185282202Y-38416405D01*
X185302945Y-38514063D01*
X185319395Y-38612626D01*
X185332233Y-38718998D01*
X185340113Y-38825957D01*
X185343528Y-38962048D01*
X185360505Y-39099572D01*
X185393306Y-39199119D01*
X185393305Y-54469434D01*
X185393262Y-54469877D01*
X185393305Y-54501180D01*
X185393305Y-54533807D01*
X185393350Y-54534269D01*
X185484598Y-120956150D01*
X185451212Y-121059589D01*
X185435075Y-121197213D01*
X185434956Y-121207126D01*
X185434856Y-121227077D01*
X185430770Y-121346869D01*
X185421642Y-121457598D01*
X185408515Y-121559051D01*
X185391212Y-121657961D01*
X185369750Y-121755248D01*
X185345471Y-121846560D01*
X185317708Y-121935860D01*
X185287518Y-122020682D01*
X185252906Y-122106787D01*
X185217567Y-122185574D01*
X185179099Y-122263275D01*
X185138761Y-122337593D01*
X185095704Y-122410359D01*
X185049976Y-122481513D01*
X185002871Y-122549250D01*
X184953447Y-122615137D01*
X184899033Y-122682397D01*
X184844984Y-122744423D01*
X184788606Y-122804629D01*
X184730092Y-122862799D01*
X184669532Y-122918841D01*
X184607183Y-122972527D01*
X184539587Y-123026551D01*
X184473436Y-123075559D01*
X184405602Y-123122127D01*
X184331093Y-123169297D01*
X184252949Y-123214613D01*
X184178670Y-123253972D01*
X184098705Y-123292525D01*
X184019279Y-123327109D01*
X183936490Y-123359403D01*
X183850739Y-123388986D01*
X183757986Y-123416753D01*
X183667187Y-123439830D01*
X183571859Y-123459818D01*
X183472788Y-123476131D01*
X183370029Y-123488382D01*
X183262084Y-123496239D01*
X183128865Y-123499518D01*
X182991334Y-123516429D01*
X182891405Y-123549303D01*
X89400905Y-123549303D01*
X89295776Y-123515457D01*
X89158139Y-123499421D01*
X89148226Y-123499310D01*
X89132949Y-123499245D01*
X89011067Y-123495248D01*
X88902269Y-123486418D01*
X88796480Y-123472814D01*
X88698604Y-123455712D01*
X88604666Y-123435095D01*
X88513966Y-123411168D01*
X88425171Y-123383779D01*
X88337631Y-123352800D01*
X88255444Y-123319965D01*
X88175172Y-123284210D01*
X88093908Y-123244131D01*
X88019481Y-123203798D01*
X87945614Y-123160119D01*
X87871680Y-123112535D01*
X87803783Y-123065176D01*
X87737937Y-123015629D01*
X87671914Y-122962083D01*
X87609826Y-122907877D01*
X87550009Y-122851770D01*
X87491889Y-122793218D01*
X87435873Y-122732596D01*
X87382144Y-122670102D01*
X87329385Y-122604041D01*
X87280310Y-122537797D01*
X87233666Y-122469852D01*
X87187310Y-122396689D01*
X87144796Y-122323698D01*
X87105091Y-122249310D01*
X87065478Y-122167703D01*
X87030621Y-122088126D01*
X86997648Y-122004049D01*
X86967733Y-121917747D01*
X86940923Y-121828854D01*
X86916378Y-121732975D01*
X86896289Y-121637483D01*
X86879918Y-121538447D01*
X86867660Y-121436197D01*
X86859761Y-121328978D01*
X86856349Y-121192897D01*
X86839375Y-121055373D01*
X86806572Y-120955814D01*
X86806572Y-110136842D01*
X101312000Y-110136842D01*
X101312000Y-110468758D01*
X101376754Y-110794296D01*
X101503772Y-111100947D01*
X101688175Y-111376925D01*
X101922875Y-111611625D01*
X102198853Y-111796028D01*
X102505504Y-111923046D01*
X102831042Y-111987800D01*
X103162958Y-111987800D01*
X103488496Y-111923046D01*
X103795147Y-111796028D01*
X104071125Y-111611625D01*
X104305825Y-111376925D01*
X104490228Y-111100947D01*
X104617246Y-110794296D01*
X104682000Y-110468758D01*
X104682000Y-110136842D01*
X161862300Y-110136842D01*
X161862300Y-110468758D01*
X161927054Y-110794296D01*
X162054072Y-111100947D01*
X162238475Y-111376925D01*
X162473175Y-111611625D01*
X162749153Y-111796028D01*
X163055804Y-111923046D01*
X163381342Y-111987800D01*
X163713258Y-111987800D01*
X164038796Y-111923046D01*
X164345447Y-111796028D01*
X164621425Y-111611625D01*
X164856125Y-111376925D01*
X165040528Y-111100947D01*
X165167546Y-110794296D01*
X165232300Y-110468758D01*
X165232300Y-110136842D01*
X165167546Y-109811304D01*
X165040528Y-109504653D01*
X164856125Y-109228675D01*
X164621425Y-108993975D01*
X164345447Y-108809572D01*
X164038796Y-108682554D01*
X163713258Y-108617800D01*
X163381342Y-108617800D01*
X163055804Y-108682554D01*
X162749153Y-108809572D01*
X162473175Y-108993975D01*
X162238475Y-109228675D01*
X162054072Y-109504653D01*
X161927054Y-109811304D01*
X161862300Y-110136842D01*
X104682000Y-110136842D01*
X104617246Y-109811304D01*
X104490228Y-109504653D01*
X104305825Y-109228675D01*
X104071125Y-108993975D01*
X103795147Y-108809572D01*
X103488496Y-108682554D01*
X103162958Y-108617800D01*
X102831042Y-108617800D01*
X102505504Y-108682554D01*
X102198853Y-108809572D01*
X101922875Y-108993975D01*
X101688175Y-109228675D01*
X101503772Y-109504653D01*
X101376754Y-109811304D01*
X101312000Y-110136842D01*
X86806572Y-110136842D01*
X86806572Y-70700042D01*
X101312000Y-70700042D01*
X101312000Y-71031958D01*
X101376754Y-71357496D01*
X101503772Y-71664147D01*
X101688175Y-71940125D01*
X101922875Y-72174825D01*
X102198853Y-72359228D01*
X102505504Y-72486246D01*
X102831042Y-72551000D01*
X103162958Y-72551000D01*
X103488496Y-72486246D01*
X103795147Y-72359228D01*
X104071125Y-72174825D01*
X104305825Y-71940125D01*
X104490228Y-71664147D01*
X104617246Y-71357496D01*
X104682000Y-71031958D01*
X104682000Y-70700042D01*
X161862300Y-70700042D01*
X161862300Y-71031958D01*
X161927054Y-71357496D01*
X162054072Y-71664147D01*
X162238475Y-71940125D01*
X162473175Y-72174825D01*
X162749153Y-72359228D01*
X163055804Y-72486246D01*
X163381342Y-72551000D01*
X163713258Y-72551000D01*
X164038796Y-72486246D01*
X164345447Y-72359228D01*
X164621425Y-72174825D01*
X164856125Y-71940125D01*
X165040528Y-71664147D01*
X165167546Y-71357496D01*
X165232300Y-71031958D01*
X165232300Y-70700042D01*
X165167546Y-70374504D01*
X165040528Y-70067853D01*
X164856125Y-69791875D01*
X164621425Y-69557175D01*
X164345447Y-69372772D01*
X164038796Y-69245754D01*
X163713258Y-69181000D01*
X163381342Y-69181000D01*
X163055804Y-69245754D01*
X162749153Y-69372772D01*
X162473175Y-69557175D01*
X162238475Y-69791875D01*
X162054072Y-70067853D01*
X161927054Y-70374504D01*
X161862300Y-70700042D01*
X104682000Y-70700042D01*
X104617246Y-70374504D01*
X104490228Y-70067853D01*
X104305825Y-69791875D01*
X104071125Y-69557175D01*
X103795147Y-69372772D01*
X103488496Y-69245754D01*
X103162958Y-69181000D01*
X102831042Y-69181000D01*
X102505504Y-69245754D01*
X102198853Y-69372772D01*
X101922875Y-69557175D01*
X101688175Y-69791875D01*
X101503772Y-70067853D01*
X101376754Y-70374504D01*
X101312000Y-70700042D01*
X86806572Y-70700042D01*
X86806572Y-39199887D01*
X86840332Y-39095229D01*
X86856446Y-38957601D01*
X86856564Y-38947689D01*
X86856660Y-38928010D01*
X86860958Y-38804346D01*
X86869836Y-38697589D01*
X86882998Y-38595889D01*
X86900334Y-38496778D01*
X86921211Y-38401910D01*
X86945051Y-38311797D01*
X86972545Y-38222840D01*
X87002863Y-38137218D01*
X87035580Y-38055267D01*
X87070979Y-37975668D01*
X87109866Y-37896573D01*
X87150151Y-37821929D01*
X87194021Y-37747469D01*
X87240380Y-37675140D01*
X87287640Y-37607057D01*
X87337386Y-37540648D01*
X87390144Y-37475301D01*
X87444224Y-37413052D01*
X87500514Y-37352761D01*
X87558945Y-37294500D01*
X87619426Y-37238363D01*
X87681875Y-37184430D01*
X87746647Y-37132431D01*
X87812424Y-37083406D01*
X87880793Y-37036178D01*
X87951672Y-36990942D01*
X88024164Y-36948351D01*
X88105598Y-36904646D01*
X88184832Y-36866073D01*
X88265916Y-36830437D01*
X88348211Y-36798043D01*
X88437939Y-36766854D01*
X88526826Y-36740027D01*
X88619202Y-36716292D01*
X88714881Y-36696007D01*
X88813570Y-36679535D01*
X88919764Y-36666718D01*
X89029543Y-36658685D01*
X89162624Y-36655415D01*
X89300156Y-36638509D01*
X89400117Y-36605629D01*
X182798682Y-36605629D01*
X182905692Y-36639813D01*
M02*
