G04 #@! TF.GenerationSoftware,KiCad,Pcbnew,(5.1.4-0-10_14)*
G04 #@! TF.CreationDate,2020-03-30T03:10:15+09:00*
G04 #@! TF.ProjectId,palette1202-PM-back,70616c65-7474-4653-9132-30322d504d2d,rev?*
G04 #@! TF.SameCoordinates,Original*
G04 #@! TF.FileFunction,Legend,Bot*
G04 #@! TF.FilePolarity,Positive*
%FSLAX46Y46*%
G04 Gerber Fmt 4.6, Leading zero omitted, Abs format (unit mm)*
G04 Created by KiCad (PCBNEW (5.1.4-0-10_14)) date 2020-03-30 03:10:15*
%MOMM*%
%LPD*%
G04 APERTURE LIST*
%ADD10C,0.400000*%
%ADD11C,0.100000*%
%ADD12C,0.010000*%
G04 APERTURE END LIST*
D10*
X103997000Y-110302800D02*
G75*
G03X103997000Y-110302800I-1000000J0D01*
G01*
X103997000Y-70866000D02*
G75*
G03X103997000Y-70866000I-1000000J0D01*
G01*
D11*
G36*
X101944800Y-120222000D02*
G01*
X101949965Y-120651616D01*
X101664800Y-120652000D01*
X101664800Y-120022000D01*
X101674800Y-119942000D01*
X101694800Y-119852000D01*
X101724800Y-119782000D01*
X101784800Y-119712000D01*
X101844800Y-119672000D01*
X101924800Y-119632000D01*
X102004800Y-119612000D01*
X102084800Y-119602000D01*
X102127904Y-119604135D01*
X102274800Y-119612000D01*
X102414800Y-119642000D01*
X102529775Y-119687334D01*
X102456394Y-119911437D01*
X102394800Y-119892000D01*
X102284800Y-119862000D01*
X102170279Y-119855455D01*
X102084800Y-119862000D01*
X102004800Y-119902000D01*
X101964800Y-119952000D01*
X101954800Y-119992000D01*
X101944800Y-120072000D01*
X101944800Y-120222000D01*
G37*
G36*
X101949965Y-120539478D02*
G01*
X101994800Y-120582000D01*
X102094800Y-120642000D01*
X102224800Y-120672000D01*
X102284800Y-120672000D01*
X102374800Y-120662000D01*
X102454800Y-120632000D01*
X102514800Y-120592000D01*
X102564800Y-120532000D01*
X102604800Y-120462000D01*
X102614800Y-120372000D01*
X102614800Y-120312000D01*
X102594800Y-120212000D01*
X102544800Y-120132000D01*
X102474800Y-120082000D01*
X102404800Y-120052000D01*
X102344800Y-120032000D01*
X102264800Y-120022000D01*
X102201285Y-120019613D01*
X102114800Y-120022000D01*
X102014800Y-120042000D01*
X101948070Y-120062160D01*
X101894800Y-120092000D01*
X101874800Y-120262000D01*
X101944281Y-120234243D01*
X102034800Y-120202000D01*
X102131694Y-120195486D01*
X102204800Y-120202000D01*
X102264800Y-120222000D01*
X102314800Y-120262000D01*
X102334800Y-120322000D01*
X102334800Y-120352000D01*
X102314800Y-120412000D01*
X102284800Y-120442000D01*
X102234800Y-120462000D01*
X102174241Y-120467993D01*
X102104800Y-120462000D01*
X102064800Y-120452000D01*
X102024800Y-120432000D01*
X102004800Y-120412000D01*
X101964800Y-120372000D01*
X101944800Y-120312000D01*
X101944281Y-120286436D01*
X101874800Y-120302000D01*
X101874800Y-120542000D01*
X101949965Y-120539478D01*
G37*
G36*
X103084800Y-119952000D02*
G01*
X103074800Y-119982000D01*
X103054800Y-120062000D01*
X102874800Y-119802000D01*
X102894800Y-119772000D01*
X103084800Y-119952000D01*
G37*
G36*
X103278911Y-119596556D02*
G01*
X103364800Y-119602000D01*
X103454800Y-119622000D01*
X103584800Y-119692000D01*
X103674800Y-119782000D01*
X103734800Y-119882000D01*
X103774800Y-119982000D01*
X103791024Y-120139503D01*
X103784800Y-120242000D01*
X103754800Y-120352000D01*
X103714800Y-120432000D01*
X103644800Y-120522000D01*
X103554800Y-120592000D01*
X103444800Y-120642000D01*
X103334800Y-120672000D01*
X103249972Y-120674871D01*
X103114800Y-120662000D01*
X103014800Y-120632000D01*
X102914800Y-120572000D01*
X102826742Y-120481601D01*
X102994863Y-120332773D01*
X103084800Y-120402000D01*
X103164800Y-120432000D01*
X103246010Y-120439054D01*
X103324800Y-120432000D01*
X103404800Y-120392000D01*
X103454800Y-120342000D01*
X103484800Y-120282000D01*
X103499225Y-120236138D01*
X102778338Y-120236138D01*
X102774800Y-120152000D01*
X102784800Y-120022000D01*
X102804800Y-119932000D01*
X102874800Y-119792000D01*
X103060492Y-120052514D01*
X103503014Y-120052514D01*
X103474800Y-119962000D01*
X103434800Y-119902000D01*
X103384800Y-119862000D01*
X103344800Y-119842000D01*
X103278911Y-119832200D01*
X103204800Y-119842000D01*
X103134800Y-119882000D01*
X103084800Y-119952000D01*
X102884800Y-119782000D01*
X102934800Y-119722000D01*
X103014800Y-119662000D01*
X103084800Y-119632000D01*
X103144800Y-119612000D01*
X103224800Y-119602000D01*
X103278911Y-119596556D01*
G37*
G36*
X104988130Y-119573301D02*
G01*
X104988130Y-119298900D01*
X103867269Y-119298900D01*
X103867269Y-119573301D01*
X104988130Y-119573301D01*
G37*
G36*
X104576441Y-119573301D02*
G01*
X104278785Y-119573301D01*
X104278785Y-120651616D01*
X104576441Y-120651616D01*
X104576441Y-119573301D01*
G37*
G36*
X106584800Y-119792000D02*
G01*
X106564800Y-119752000D01*
X106514800Y-119682000D01*
X106454800Y-119642000D01*
X106404800Y-119612000D01*
X106334800Y-119602000D01*
X106264800Y-119602000D01*
X106268156Y-119903686D01*
X106324800Y-119902000D01*
X106404800Y-119922000D01*
X106484800Y-119962000D01*
X106554800Y-120042000D01*
X106584800Y-120142000D01*
X106594800Y-120242000D01*
X106598713Y-120651616D01*
X106892407Y-120651616D01*
X106892407Y-119615848D01*
X106598713Y-119615848D01*
X106594800Y-119812000D01*
X106584800Y-119792000D01*
G37*
D12*
X106071613Y-119615848D02*
X105777747Y-119615848D01*
X105777747Y-119615848D02*
X105777747Y-120651616D01*
X105777747Y-120651616D02*
X106071613Y-120651616D01*
X106071613Y-120651616D02*
X106071613Y-119615848D01*
D11*
G36*
X106079192Y-119240850D02*
G01*
X105769995Y-119240850D01*
X105769995Y-119501816D01*
X106079192Y-119501816D01*
X106079192Y-119240850D01*
G37*
G36*
X106071613Y-119615848D02*
G01*
X105777747Y-119615848D01*
X105777747Y-120651616D01*
X106071613Y-120651616D01*
X106071613Y-119615848D01*
G37*
D12*
X107462226Y-119615848D02*
X107168360Y-119615848D01*
X107168360Y-119615848D02*
X107168360Y-120651616D01*
X107168360Y-120651616D02*
X107462226Y-120651616D01*
X107462226Y-120651616D02*
X107462226Y-119615848D01*
D11*
G36*
X107469805Y-119240850D02*
G01*
X107160608Y-119240850D01*
X107160608Y-119501816D01*
X107469805Y-119501816D01*
X107469805Y-119240850D01*
G37*
G36*
X107462226Y-119615848D02*
G01*
X107168360Y-119615848D01*
X107168360Y-120651616D01*
X107462226Y-120651616D01*
X107462226Y-119615848D01*
G37*
G36*
X108814800Y-120182000D02*
G01*
X108804800Y-120242000D01*
X108784800Y-120302000D01*
X108744800Y-120372000D01*
X108704800Y-120422000D01*
X108654800Y-120472000D01*
X108604800Y-120502000D01*
X108524800Y-120542000D01*
X108424800Y-120562000D01*
X108365702Y-120566522D01*
X108294800Y-120562000D01*
X108214800Y-120542000D01*
X108134800Y-120502000D01*
X108084800Y-120462000D01*
X108014800Y-120392000D01*
X108044800Y-120182000D01*
X108094800Y-120252000D01*
X108154800Y-120292000D01*
X108204800Y-120312000D01*
X108264800Y-120322000D01*
X108364800Y-120312000D01*
X108444800Y-120272000D01*
X108494800Y-120212000D01*
X108524800Y-120162000D01*
X108534800Y-120122000D01*
X108814800Y-120182000D01*
G37*
G36*
X108024800Y-120082000D02*
G01*
X108034800Y-120002000D01*
X108074800Y-119932000D01*
X108124800Y-119882000D01*
X108184800Y-119852000D01*
X108244800Y-119842000D01*
X108280780Y-119839952D01*
X108364800Y-119852000D01*
X108434800Y-119882000D01*
X108474800Y-119922000D01*
X108504800Y-119972000D01*
X108524800Y-120022000D01*
X108531928Y-120083520D01*
X108524800Y-120132000D01*
X108814800Y-120182000D01*
X108824800Y-120122000D01*
X108825622Y-120083520D01*
X108824800Y-120012000D01*
X108804800Y-119922000D01*
X108764800Y-119822000D01*
X108704800Y-119742000D01*
X108654800Y-119692000D01*
X108594800Y-119652000D01*
X108524800Y-119622000D01*
X108444800Y-119602000D01*
X108365702Y-119596556D01*
X108284800Y-119602000D01*
X108234800Y-119612000D01*
X108164800Y-119642000D01*
X108114800Y-119672000D01*
X108054800Y-119722000D01*
X108024800Y-119752000D01*
X108024800Y-119612000D01*
X107734800Y-119612000D01*
X107734800Y-120432000D01*
X107744800Y-120562000D01*
X107764800Y-120662000D01*
X107784800Y-120712000D01*
X107804800Y-120742000D01*
X107844800Y-120812000D01*
X107914800Y-120872000D01*
X107954800Y-120892000D01*
X108014800Y-120922000D01*
X108074800Y-120942000D01*
X108134800Y-120952000D01*
X108224800Y-120962000D01*
X108315576Y-120964603D01*
X108394800Y-120962000D01*
X108484800Y-120952000D01*
X108554800Y-120942000D01*
X108654800Y-120912000D01*
X108724800Y-120882000D01*
X108773429Y-120856427D01*
X108673005Y-120636113D01*
X108604800Y-120672000D01*
X108554800Y-120692000D01*
X108484800Y-120712000D01*
X108424800Y-120722000D01*
X108323155Y-120730853D01*
X108224800Y-120722000D01*
X108164800Y-120702000D01*
X108104800Y-120662000D01*
X108064800Y-120612000D01*
X108044800Y-120562000D01*
X108024800Y-120482000D01*
X108027566Y-120398402D01*
X108054800Y-120202000D01*
X108034800Y-120152000D01*
X108024800Y-120082000D01*
G37*
G36*
X109349104Y-120651616D02*
G01*
X109055238Y-120651616D01*
X109055238Y-119240850D01*
X109349104Y-119240850D01*
X109349104Y-120651616D01*
G37*
G36*
X109932359Y-119615848D02*
G01*
X109638493Y-119615848D01*
X109638493Y-120651616D01*
X109932359Y-120651616D01*
X109932359Y-119615848D01*
G37*
G36*
X109939938Y-119240850D02*
G01*
X109630741Y-119240850D01*
X109630741Y-119501816D01*
X109939938Y-119501816D01*
X109939938Y-119240850D01*
G37*
G36*
X111440794Y-119298900D02*
G01*
X111166392Y-119298900D01*
X110532495Y-120131751D01*
X110532495Y-119298900D01*
X110238800Y-119298900D01*
X110238800Y-120651616D01*
X110491843Y-120651616D01*
X111146928Y-119791720D01*
X111146928Y-120651616D01*
X111440794Y-120651616D01*
X111440794Y-119298900D01*
G37*
D12*
X104576441Y-120651616D02*
X104576441Y-119573301D01*
X104278785Y-120651616D02*
X104576441Y-120651616D01*
X104278785Y-119573301D02*
X104278785Y-120651616D01*
X103867269Y-119573301D02*
X104278785Y-119573301D01*
X103867269Y-119298900D02*
X103867269Y-119573301D01*
X104988130Y-119298900D02*
X103867269Y-119298900D01*
X104988130Y-119573301D02*
X104988130Y-119298900D01*
X104576441Y-119573301D02*
X104988130Y-119573301D01*
X106071613Y-120651616D02*
X106071613Y-119615848D01*
X105777746Y-120651616D02*
X106071613Y-120651616D01*
X105777746Y-119615848D02*
X105777746Y-120651616D01*
X106071613Y-119615848D02*
X105777746Y-119615848D01*
X106079192Y-119501816D02*
X106079192Y-119240850D01*
X105769995Y-119501816D02*
X106079192Y-119501816D01*
X105769995Y-119240850D02*
X105769995Y-119501816D01*
X106079192Y-119240850D02*
X105769995Y-119240850D01*
X111440794Y-120651616D02*
X111440794Y-119298900D01*
X110532495Y-119298900D02*
X110238800Y-119298900D01*
X111166392Y-119298900D02*
X110532495Y-120131751D01*
X111440794Y-119298900D02*
X111166392Y-119298900D01*
X107168359Y-119615848D02*
X107168359Y-120651616D01*
X107462226Y-119615848D02*
X107168359Y-119615848D01*
X107469805Y-119501816D02*
X107469805Y-119240850D01*
X107160608Y-119501816D02*
X107469805Y-119501816D01*
X107160608Y-119240850D02*
X107160608Y-119501816D01*
X107469805Y-119240850D02*
X107160608Y-119240850D01*
X109349104Y-120651616D02*
X109349104Y-119240850D01*
X109055238Y-120651616D02*
X109349104Y-120651616D01*
X109055238Y-119240850D02*
X109055238Y-120651616D01*
X109349104Y-119240850D02*
X109055238Y-119240850D01*
X109932359Y-120651616D02*
X109932359Y-119615848D01*
X109638493Y-120651616D02*
X109932359Y-120651616D01*
X109638493Y-119615848D02*
X109638493Y-120651616D01*
X109932359Y-119615848D02*
X109638493Y-119615848D01*
X111146928Y-120651616D02*
X111440794Y-120651616D01*
X111146928Y-119791720D02*
X111146928Y-120651616D01*
X107462226Y-120651616D02*
X107462226Y-119615848D01*
X107168359Y-120651616D02*
X107462226Y-120651616D01*
X110238800Y-120651616D02*
X110491843Y-120651616D01*
X110532495Y-120131751D02*
X110532495Y-119298900D01*
X110491843Y-120651616D02*
X111146928Y-119791720D01*
X110238800Y-119298900D02*
X110238800Y-120651616D01*
D10*
X164547300Y-110302800D02*
G75*
G03X164547300Y-110302800I-1000000J0D01*
G01*
X164547300Y-70866000D02*
G75*
G03X164547300Y-70866000I-1000000J0D01*
G01*
M02*
