G04 #@! TF.GenerationSoftware,KiCad,Pcbnew,(5.1.4-0-10_14)*
G04 #@! TF.CreationDate,2020-03-30T03:10:15+09:00*
G04 #@! TF.ProjectId,palette1202-PM-back,70616c65-7474-4653-9132-30322d504d2d,rev?*
G04 #@! TF.SameCoordinates,Original*
G04 #@! TF.FileFunction,Legend,Top*
G04 #@! TF.FilePolarity,Positive*
%FSLAX46Y46*%
G04 Gerber Fmt 4.6, Leading zero omitted, Abs format (unit mm)*
G04 Created by KiCad (PCBNEW (5.1.4-0-10_14)) date 2020-03-30 03:10:15*
%MOMM*%
%LPD*%
G04 APERTURE LIST*
%ADD10C,0.010000*%
%ADD11C,0.100000*%
%ADD12C,0.400000*%
G04 APERTURE END LIST*
D10*
X104823000Y-119298900D02*
X104823000Y-120651616D01*
X104569957Y-120651616D02*
X103914872Y-119791720D01*
X104529305Y-120131751D02*
X104529305Y-119298900D01*
X104823000Y-120651616D02*
X104569957Y-120651616D01*
X107893441Y-120651616D02*
X107599574Y-120651616D01*
X107599574Y-120651616D02*
X107599574Y-119615848D01*
X103914872Y-119791720D02*
X103914872Y-120651616D01*
X103914872Y-120651616D02*
X103621006Y-120651616D01*
X105129441Y-119615848D02*
X105423307Y-119615848D01*
X105423307Y-119615848D02*
X105423307Y-120651616D01*
X105423307Y-120651616D02*
X105129441Y-120651616D01*
X105129441Y-120651616D02*
X105129441Y-119615848D01*
X105712696Y-119240850D02*
X106006562Y-119240850D01*
X106006562Y-119240850D02*
X106006562Y-120651616D01*
X106006562Y-120651616D02*
X105712696Y-120651616D01*
X105712696Y-120651616D02*
X105712696Y-119240850D01*
X107591995Y-119240850D02*
X107901192Y-119240850D01*
X107901192Y-119240850D02*
X107901192Y-119501816D01*
X107901192Y-119501816D02*
X107591995Y-119501816D01*
X107591995Y-119501816D02*
X107591995Y-119240850D01*
X107599574Y-119615848D02*
X107893441Y-119615848D01*
X107893441Y-119615848D02*
X107893441Y-120651616D01*
X103621006Y-119298900D02*
X103895408Y-119298900D01*
X103895408Y-119298900D02*
X104529305Y-120131751D01*
X104529305Y-119298900D02*
X104823000Y-119298900D01*
X103621006Y-120651616D02*
X103621006Y-119298900D01*
X108982608Y-119240850D02*
X109291805Y-119240850D01*
X109291805Y-119240850D02*
X109291805Y-119501816D01*
X109291805Y-119501816D02*
X108982608Y-119501816D01*
X108982608Y-119501816D02*
X108982608Y-119240850D01*
X108990187Y-119615848D02*
X109284054Y-119615848D01*
X109284054Y-119615848D02*
X109284054Y-120651616D01*
X109284054Y-120651616D02*
X108990187Y-120651616D01*
X108990187Y-120651616D02*
X108990187Y-119615848D01*
X110485359Y-119573301D02*
X110073670Y-119573301D01*
X110073670Y-119573301D02*
X110073670Y-119298900D01*
X110073670Y-119298900D02*
X111194531Y-119298900D01*
X111194531Y-119298900D02*
X111194531Y-119573301D01*
X111194531Y-119573301D02*
X110783015Y-119573301D01*
X110783015Y-119573301D02*
X110783015Y-120651616D01*
X110783015Y-120651616D02*
X110485359Y-120651616D01*
X110485359Y-120651616D02*
X110485359Y-119573301D01*
D11*
G36*
X103621006Y-119298900D02*
G01*
X103895408Y-119298900D01*
X104529305Y-120131751D01*
X104529305Y-119298900D01*
X104823000Y-119298900D01*
X104823000Y-120651616D01*
X104569957Y-120651616D01*
X103914872Y-119791720D01*
X103914872Y-120651616D01*
X103621006Y-120651616D01*
X103621006Y-119298900D01*
G37*
G36*
X105121862Y-119240850D02*
G01*
X105431059Y-119240850D01*
X105431059Y-119501816D01*
X105121862Y-119501816D01*
X105121862Y-119240850D01*
G37*
G36*
X105129441Y-119615848D02*
G01*
X105423307Y-119615848D01*
X105423307Y-120651616D01*
X105129441Y-120651616D01*
X105129441Y-119615848D01*
G37*
G36*
X105712696Y-120651616D02*
G01*
X106006562Y-120651616D01*
X106006562Y-119240850D01*
X105712696Y-119240850D01*
X105712696Y-120651616D01*
G37*
G36*
X107037000Y-120082000D02*
G01*
X107027000Y-120002000D01*
X106987000Y-119932000D01*
X106937000Y-119882000D01*
X106877000Y-119852000D01*
X106817000Y-119842000D01*
X106781020Y-119839952D01*
X106697000Y-119852000D01*
X106627000Y-119882000D01*
X106587000Y-119922000D01*
X106557000Y-119972000D01*
X106537000Y-120022000D01*
X106529872Y-120083520D01*
X106537000Y-120132000D01*
X106247000Y-120182000D01*
X106237000Y-120122000D01*
X106236178Y-120083520D01*
X106237000Y-120012000D01*
X106257000Y-119922000D01*
X106297000Y-119822000D01*
X106357000Y-119742000D01*
X106407000Y-119692000D01*
X106467000Y-119652000D01*
X106537000Y-119622000D01*
X106617000Y-119602000D01*
X106696098Y-119596556D01*
X106777000Y-119602000D01*
X106827000Y-119612000D01*
X106897000Y-119642000D01*
X106947000Y-119672000D01*
X107007000Y-119722000D01*
X107037000Y-119752000D01*
X107037000Y-119612000D01*
X107327000Y-119612000D01*
X107327000Y-120432000D01*
X107317000Y-120562000D01*
X107297000Y-120662000D01*
X107277000Y-120712000D01*
X107257000Y-120742000D01*
X107217000Y-120812000D01*
X107147000Y-120872000D01*
X107107000Y-120892000D01*
X107047000Y-120922000D01*
X106987000Y-120942000D01*
X106927000Y-120952000D01*
X106837000Y-120962000D01*
X106746224Y-120964603D01*
X106667000Y-120962000D01*
X106577000Y-120952000D01*
X106507000Y-120942000D01*
X106407000Y-120912000D01*
X106337000Y-120882000D01*
X106288371Y-120856427D01*
X106388795Y-120636113D01*
X106457000Y-120672000D01*
X106507000Y-120692000D01*
X106577000Y-120712000D01*
X106637000Y-120722000D01*
X106738645Y-120730853D01*
X106837000Y-120722000D01*
X106897000Y-120702000D01*
X106957000Y-120662000D01*
X106997000Y-120612000D01*
X107017000Y-120562000D01*
X107037000Y-120482000D01*
X107034234Y-120398402D01*
X107007000Y-120202000D01*
X107027000Y-120152000D01*
X107037000Y-120082000D01*
G37*
G36*
X106247000Y-120182000D02*
G01*
X106257000Y-120242000D01*
X106277000Y-120302000D01*
X106317000Y-120372000D01*
X106357000Y-120422000D01*
X106407000Y-120472000D01*
X106457000Y-120502000D01*
X106537000Y-120542000D01*
X106637000Y-120562000D01*
X106696098Y-120566522D01*
X106767000Y-120562000D01*
X106847000Y-120542000D01*
X106927000Y-120502000D01*
X106977000Y-120462000D01*
X107047000Y-120392000D01*
X107017000Y-120182000D01*
X106967000Y-120252000D01*
X106907000Y-120292000D01*
X106857000Y-120312000D01*
X106797000Y-120322000D01*
X106697000Y-120312000D01*
X106617000Y-120272000D01*
X106567000Y-120212000D01*
X106537000Y-120162000D01*
X106527000Y-120122000D01*
X106247000Y-120182000D01*
G37*
G36*
X107599574Y-119615848D02*
G01*
X107893440Y-119615848D01*
X107893440Y-120651616D01*
X107599574Y-120651616D01*
X107599574Y-119615848D01*
G37*
G36*
X107591995Y-119240850D02*
G01*
X107901192Y-119240850D01*
X107901192Y-119501816D01*
X107591995Y-119501816D01*
X107591995Y-119240850D01*
G37*
D10*
X107599574Y-120651616D02*
X107599574Y-119615848D01*
X107893440Y-120651616D02*
X107599574Y-120651616D01*
X107893440Y-119615848D02*
X107893440Y-120651616D01*
X107599574Y-119615848D02*
X107893440Y-119615848D01*
D11*
G36*
X108990187Y-119615848D02*
G01*
X109284053Y-119615848D01*
X109284053Y-120651616D01*
X108990187Y-120651616D01*
X108990187Y-119615848D01*
G37*
G36*
X108982608Y-119240850D02*
G01*
X109291805Y-119240850D01*
X109291805Y-119501816D01*
X108982608Y-119501816D01*
X108982608Y-119240850D01*
G37*
D10*
X108990187Y-120651616D02*
X108990187Y-119615848D01*
X109284053Y-120651616D02*
X108990187Y-120651616D01*
X109284053Y-119615848D02*
X109284053Y-120651616D01*
X108990187Y-119615848D02*
X109284053Y-119615848D01*
D11*
G36*
X108477000Y-119792000D02*
G01*
X108497000Y-119752000D01*
X108547000Y-119682000D01*
X108607000Y-119642000D01*
X108657000Y-119612000D01*
X108727000Y-119602000D01*
X108797000Y-119602000D01*
X108793644Y-119903686D01*
X108737000Y-119902000D01*
X108657000Y-119922000D01*
X108577000Y-119962000D01*
X108507000Y-120042000D01*
X108477000Y-120142000D01*
X108467000Y-120242000D01*
X108463087Y-120651616D01*
X108169393Y-120651616D01*
X108169393Y-119615848D01*
X108463087Y-119615848D01*
X108467000Y-119812000D01*
X108477000Y-119792000D01*
G37*
G36*
X110485359Y-119573301D02*
G01*
X110783015Y-119573301D01*
X110783015Y-120651616D01*
X110485359Y-120651616D01*
X110485359Y-119573301D01*
G37*
G36*
X110073670Y-119573301D02*
G01*
X110073670Y-119298900D01*
X111194531Y-119298900D01*
X111194531Y-119573301D01*
X110073670Y-119573301D01*
G37*
G36*
X111782889Y-119596556D02*
G01*
X111697000Y-119602000D01*
X111607000Y-119622000D01*
X111477000Y-119692000D01*
X111387000Y-119782000D01*
X111327000Y-119882000D01*
X111287000Y-119982000D01*
X111270776Y-120139503D01*
X111277000Y-120242000D01*
X111307000Y-120352000D01*
X111347000Y-120432000D01*
X111417000Y-120522000D01*
X111507000Y-120592000D01*
X111617000Y-120642000D01*
X111727000Y-120672000D01*
X111811828Y-120674871D01*
X111947000Y-120662000D01*
X112047000Y-120632000D01*
X112147000Y-120572000D01*
X112235058Y-120481601D01*
X112066937Y-120332773D01*
X111977000Y-120402000D01*
X111897000Y-120432000D01*
X111815790Y-120439054D01*
X111737000Y-120432000D01*
X111657000Y-120392000D01*
X111607000Y-120342000D01*
X111577000Y-120282000D01*
X111562575Y-120236138D01*
X112283462Y-120236138D01*
X112287000Y-120152000D01*
X112277000Y-120022000D01*
X112257000Y-119932000D01*
X112187000Y-119792000D01*
X112001308Y-120052514D01*
X111558786Y-120052514D01*
X111587000Y-119962000D01*
X111627000Y-119902000D01*
X111677000Y-119862000D01*
X111717000Y-119842000D01*
X111782889Y-119832200D01*
X111857000Y-119842000D01*
X111927000Y-119882000D01*
X111977000Y-119952000D01*
X112177000Y-119782000D01*
X112127000Y-119722000D01*
X112047000Y-119662000D01*
X111977000Y-119632000D01*
X111917000Y-119612000D01*
X111837000Y-119602000D01*
X111782889Y-119596556D01*
G37*
G36*
X111977000Y-119952000D02*
G01*
X111987000Y-119982000D01*
X112007000Y-120062000D01*
X112187000Y-119802000D01*
X112167000Y-119772000D01*
X111977000Y-119952000D01*
G37*
G36*
X113111835Y-120539478D02*
G01*
X113067000Y-120582000D01*
X112967000Y-120642000D01*
X112837000Y-120672000D01*
X112777000Y-120672000D01*
X112687000Y-120662000D01*
X112607000Y-120632000D01*
X112547000Y-120592000D01*
X112497000Y-120532000D01*
X112457000Y-120462000D01*
X112447000Y-120372000D01*
X112447000Y-120312000D01*
X112467000Y-120212000D01*
X112517000Y-120132000D01*
X112587000Y-120082000D01*
X112657000Y-120052000D01*
X112717000Y-120032000D01*
X112797000Y-120022000D01*
X112860515Y-120019613D01*
X112947000Y-120022000D01*
X113047000Y-120042000D01*
X113113730Y-120062160D01*
X113167000Y-120092000D01*
X113187000Y-120262000D01*
X113117519Y-120234243D01*
X113027000Y-120202000D01*
X112930106Y-120195486D01*
X112857000Y-120202000D01*
X112797000Y-120222000D01*
X112747000Y-120262000D01*
X112727000Y-120322000D01*
X112727000Y-120352000D01*
X112747000Y-120412000D01*
X112777000Y-120442000D01*
X112827000Y-120462000D01*
X112887559Y-120467993D01*
X112957000Y-120462000D01*
X112997000Y-120452000D01*
X113037000Y-120432000D01*
X113057000Y-120412000D01*
X113097000Y-120372000D01*
X113117000Y-120312000D01*
X113117519Y-120286436D01*
X113187000Y-120302000D01*
X113187000Y-120542000D01*
X113111835Y-120539478D01*
G37*
G36*
X113117000Y-120222000D02*
G01*
X113111835Y-120651616D01*
X113397000Y-120652000D01*
X113397000Y-120022000D01*
X113387000Y-119942000D01*
X113367000Y-119852000D01*
X113337000Y-119782000D01*
X113277000Y-119712000D01*
X113217000Y-119672000D01*
X113137000Y-119632000D01*
X113057000Y-119612000D01*
X112977000Y-119602000D01*
X112933896Y-119604135D01*
X112787000Y-119612000D01*
X112647000Y-119642000D01*
X112532025Y-119687334D01*
X112605406Y-119911437D01*
X112667000Y-119892000D01*
X112777000Y-119862000D01*
X112891521Y-119855455D01*
X112977000Y-119862000D01*
X113057000Y-119902000D01*
X113097000Y-119952000D01*
X113107000Y-119992000D01*
X113117000Y-120072000D01*
X113117000Y-120222000D01*
G37*
D12*
X103997000Y-110302800D02*
G75*
G03X103997000Y-110302800I-1000000J0D01*
G01*
X103997000Y-70866000D02*
G75*
G03X103997000Y-70866000I-1000000J0D01*
G01*
X164547300Y-110302800D02*
G75*
G03X164547300Y-110302800I-1000000J0D01*
G01*
X164547300Y-70866000D02*
G75*
G03X164547300Y-70866000I-1000000J0D01*
G01*
M02*
