G04 #@! TF.GenerationSoftware,KiCad,Pcbnew,(5.1.4-0-10_14)*
G04 #@! TF.CreationDate,2020-03-30T03:10:15+09:00*
G04 #@! TF.ProjectId,palette1202-PM-back,70616c65-7474-4653-9132-30322d504d2d,rev?*
G04 #@! TF.SameCoordinates,Original*
G04 #@! TF.FileFunction,Profile,NP*
%FSLAX46Y46*%
G04 Gerber Fmt 4.6, Leading zero omitted, Abs format (unit mm)*
G04 Created by KiCad (PCBNEW (5.1.4-0-10_14)) date 2020-03-30 03:10:15*
%MOMM*%
%LPD*%
G04 APERTURE LIST*
%ADD10C,0.050000*%
%ADD11C,0.150000*%
G04 APERTURE END LIST*
D10*
X186053305Y-54501389D02*
X186053305Y-38944240D01*
D11*
X186053305Y-38944240D02*
X186049459Y-38790955D01*
X186049459Y-38790955D02*
X186039099Y-38650335D01*
X186039099Y-38650335D02*
X186022355Y-38511602D01*
X186022355Y-38511602D02*
X186000692Y-38381801D01*
X186000692Y-38381801D02*
X185973537Y-38253957D01*
X185973537Y-38253957D02*
X185942268Y-38132649D01*
X185942268Y-38132649D02*
X185906125Y-38013391D01*
X185906125Y-38013391D02*
X185867018Y-37901126D01*
X185867018Y-37901126D02*
X185823200Y-37789893D01*
X185823200Y-37789893D02*
X185776563Y-37683982D01*
X185776563Y-37683982D02*
X185726530Y-37581277D01*
X185726530Y-37581277D02*
X185671914Y-37479329D01*
X185671914Y-37479329D02*
X185615894Y-37383644D01*
X185615894Y-37383644D02*
X185555232Y-37288379D01*
X185555232Y-37288379D02*
X185492444Y-37197431D01*
X185492444Y-37197431D02*
X185427814Y-37110737D01*
X185427814Y-37110737D02*
X185360536Y-37026927D01*
X185360536Y-37026927D02*
X185289608Y-36944784D01*
X185289608Y-36944784D02*
X185216188Y-36865681D01*
X185216188Y-36865681D02*
X185138382Y-36787705D01*
X185138382Y-36787705D02*
X185060698Y-36715245D01*
X185060698Y-36715245D02*
X184980055Y-36645185D01*
X184980055Y-36645185D02*
X184892046Y-36574187D01*
X184892046Y-36574187D02*
X184805469Y-36509446D01*
X184805469Y-36509446D02*
X184714650Y-36446542D01*
X184714650Y-36446542D02*
X184621446Y-36386938D01*
X184621446Y-36386938D02*
X184525943Y-36330719D01*
X184525943Y-36330719D02*
X184427724Y-36277711D01*
X184427724Y-36277711D02*
X184326326Y-36227810D01*
X184326326Y-36227810D02*
X184220725Y-36180773D01*
X184220725Y-36180773D02*
X184107666Y-36135713D01*
X184107666Y-36135713D02*
X183995142Y-36096065D01*
X183995142Y-36096065D02*
X183878399Y-36060182D01*
X183878399Y-36060182D02*
X183755179Y-36027892D01*
X183755179Y-36027892D02*
X183629961Y-36000756D01*
X183629961Y-36000756D02*
X183500542Y-35978550D01*
X183500542Y-35978550D02*
X183362228Y-35961207D01*
X183362228Y-35961207D02*
X183217856Y-35949989D01*
X183217856Y-35949989D02*
X183068037Y-35945656D01*
X183068037Y-35945656D02*
X183054716Y-35945629D01*
X89145183Y-35945629D02*
X88994896Y-35949322D01*
X88994896Y-35949322D02*
X88851278Y-35959831D01*
X88851278Y-35959831D02*
X88712545Y-35976575D01*
X88712545Y-35976575D02*
X88582744Y-35998240D01*
X88582744Y-35998240D02*
X88457165Y-36024864D01*
X88457165Y-36024864D02*
X88335820Y-36056042D01*
X88335820Y-36056042D02*
X88218714Y-36091386D01*
X88218714Y-36091386D02*
X88101532Y-36132118D01*
X88101532Y-36132118D02*
X87992945Y-36174861D01*
X87992945Y-36174861D02*
X87886475Y-36221655D01*
X87886475Y-36221655D02*
X87782220Y-36272409D01*
X87782220Y-36272409D02*
X87676323Y-36329243D01*
X87676323Y-36329243D02*
X87580730Y-36385406D01*
X87580730Y-36385406D02*
X87487911Y-36444645D01*
X87487911Y-36444645D02*
X87398374Y-36506496D01*
X87398374Y-36506496D02*
X87312125Y-36570778D01*
X87312125Y-36570778D02*
X87227438Y-36638765D01*
X87227438Y-36638765D02*
X87145727Y-36709335D01*
X87145727Y-36709335D02*
X87066625Y-36782755D01*
X87066625Y-36782755D02*
X86990212Y-36858946D01*
X86990212Y-36858946D02*
X86916566Y-36937827D01*
X86916566Y-36937827D02*
X86845768Y-37019320D01*
X86845768Y-37019320D02*
X86776856Y-37104676D01*
X86776856Y-37104676D02*
X86711707Y-37191646D01*
X86711707Y-37191646D02*
X86649675Y-37281010D01*
X86649675Y-37281010D02*
X86589065Y-37375574D01*
X86589065Y-37375574D02*
X86531663Y-37473001D01*
X86531663Y-37473001D02*
X86478655Y-37571221D01*
X86478655Y-37571221D02*
X86427789Y-37674679D01*
X86427789Y-37674679D02*
X86381273Y-37779276D01*
X86381273Y-37779276D02*
X86338269Y-37886994D01*
X86338269Y-37886994D02*
X86298453Y-37999440D01*
X86298453Y-37999440D02*
X86262396Y-38116105D01*
X86262396Y-38116105D02*
X86231011Y-38234739D01*
X86231011Y-38234739D02*
X86203612Y-38359242D01*
X86203612Y-38359242D02*
X86180897Y-38489101D01*
X86180897Y-38489101D02*
X86163625Y-38622567D01*
X86163625Y-38622567D02*
X86151982Y-38762570D01*
X86151982Y-38762570D02*
X86146719Y-38913977D01*
X86146719Y-38913977D02*
X86146572Y-38944240D01*
D10*
X86146572Y-54501389D02*
X86146572Y-38944240D01*
X186053305Y-54501389D02*
X186144947Y-121210692D01*
X86146572Y-121210692D02*
X86146572Y-54501389D01*
X89145183Y-35945629D02*
X183054716Y-35945629D01*
X89145183Y-124209303D02*
X183150000Y-124209303D01*
D11*
X86146572Y-121210692D02*
X86150415Y-121363972D01*
X86150415Y-121363972D02*
X86160774Y-121504588D01*
X86160774Y-121504588D02*
X86176847Y-121638650D01*
X86176847Y-121638650D02*
X86198314Y-121768519D01*
X86198314Y-121768519D02*
X86224748Y-121894168D01*
X86224748Y-121894168D02*
X86256829Y-122019487D01*
X86256829Y-122019487D02*
X86292151Y-122136605D01*
X86292151Y-122136605D02*
X86331469Y-122250034D01*
X86331469Y-122250034D02*
X86374708Y-122360287D01*
X86374708Y-122360287D02*
X86420689Y-122465258D01*
X86420689Y-122465258D02*
X86472320Y-122571624D01*
X86472320Y-122571624D02*
X86524649Y-122669662D01*
X86524649Y-122669662D02*
X86580463Y-122765487D01*
X86580463Y-122765487D02*
X86640914Y-122860897D01*
X86640914Y-122860897D02*
X86702192Y-122950159D01*
X86702192Y-122950159D02*
X86766565Y-123037053D01*
X86766565Y-123037053D02*
X86835394Y-123123236D01*
X86835394Y-123123236D02*
X86905784Y-123205108D01*
X86905784Y-123205108D02*
X86979029Y-123284375D01*
X86979029Y-123284375D02*
X87055048Y-123360960D01*
X87055048Y-123360960D02*
X87133348Y-123434403D01*
X87133348Y-123434403D02*
X87214665Y-123505396D01*
X87214665Y-123505396D02*
X87300737Y-123575203D01*
X87300737Y-123575203D02*
X87387112Y-123640197D01*
X87387112Y-123640197D02*
X87476330Y-123702427D01*
X87476330Y-123702427D02*
X87572670Y-123764431D01*
X87572670Y-123764431D02*
X87669512Y-123821696D01*
X87669512Y-123821696D02*
X87767629Y-123874868D01*
X87767629Y-123874868D02*
X87873562Y-123927113D01*
X87873562Y-123927113D02*
X87979170Y-123974155D01*
X87979170Y-123974155D02*
X88087402Y-124017395D01*
X88087402Y-124017395D02*
X88202020Y-124057957D01*
X88202020Y-124057957D02*
X88318714Y-124093950D01*
X88318714Y-124093950D02*
X88437939Y-124125402D01*
X88437939Y-124125402D02*
X88561332Y-124152483D01*
X88561332Y-124152483D02*
X88690045Y-124174974D01*
X88690045Y-124174974D02*
X88828227Y-124192743D01*
X88828227Y-124192743D02*
X88970680Y-124204305D01*
X88970680Y-124204305D02*
X89119757Y-124209194D01*
X89119757Y-124209194D02*
X89145183Y-124209303D01*
X183146336Y-124209303D02*
X183296617Y-124205604D01*
X183296617Y-124205604D02*
X183437865Y-124195323D01*
X183437865Y-124195323D02*
X183572542Y-124179267D01*
X183572542Y-124179267D02*
X183702435Y-124157878D01*
X183702435Y-124157878D02*
X183827546Y-124131646D01*
X183827546Y-124131646D02*
X183947326Y-124101204D01*
X183947326Y-124101204D02*
X184068415Y-124064954D01*
X184068415Y-124064954D02*
X184181375Y-124025984D01*
X184181375Y-124025984D02*
X184290126Y-123983563D01*
X184290126Y-123983563D02*
X184394694Y-123938031D01*
X184394694Y-123938031D02*
X184499170Y-123887661D01*
X184499170Y-123887661D02*
X184597385Y-123835619D01*
X184597385Y-123835619D02*
X184699198Y-123776578D01*
X184699198Y-123776578D02*
X184796541Y-123714952D01*
X184796541Y-123714952D02*
X184885803Y-123653674D01*
X184885803Y-123653674D02*
X184972697Y-123589299D01*
X184972697Y-123589299D02*
X185060612Y-123519035D01*
X185060612Y-123519035D02*
X185142431Y-123448585D01*
X185142431Y-123448585D02*
X185221642Y-123375283D01*
X185221642Y-123375283D02*
X185298170Y-123299206D01*
X185298170Y-123299206D02*
X185371932Y-123220435D01*
X185371932Y-123220435D02*
X185442850Y-123139050D01*
X185442850Y-123139050D02*
X185513615Y-123051577D01*
X185513615Y-123051577D02*
X185578483Y-122965102D01*
X185578483Y-122965102D02*
X185640268Y-122876256D01*
X185640268Y-122876256D02*
X185700075Y-122783195D01*
X185700075Y-122783195D02*
X185756503Y-122687832D01*
X185756503Y-122687832D02*
X185809468Y-122590250D01*
X185809468Y-122590250D02*
X185859854Y-122488478D01*
X185859854Y-122488478D02*
X185906457Y-122384576D01*
X185906457Y-122384576D02*
X185951624Y-122272213D01*
X185951624Y-122272213D02*
X185991423Y-122160391D01*
X185991423Y-122160391D02*
X186027840Y-122043256D01*
X186027840Y-122043256D02*
X186059814Y-121923006D01*
X186059814Y-121923006D02*
X186087901Y-121795683D01*
X186087901Y-121795683D02*
X186110618Y-121665825D01*
X186110618Y-121665825D02*
X186127888Y-121532358D01*
X186127888Y-121532358D02*
X186139774Y-121388174D01*
X186139774Y-121388174D02*
X186144795Y-121240950D01*
X186144795Y-121240950D02*
X186144947Y-121210692D01*
M02*
