G04 #@! TF.GenerationSoftware,KiCad,Pcbnew,(5.1.4-0-10_14)*
G04 #@! TF.CreationDate,2019-10-30T12:24:41+09:00*
G04 #@! TF.ProjectId,nilgiri_hotswap,6e696c67-6972-4695-9f68-6f7473776170,rev?*
G04 #@! TF.SameCoordinates,Original*
G04 #@! TF.FileFunction,Soldermask,Top*
G04 #@! TF.FilePolarity,Negative*
%FSLAX46Y46*%
G04 Gerber Fmt 4.6, Leading zero omitted, Abs format (unit mm)*
G04 Created by KiCad (PCBNEW (5.1.4-0-10_14)) date 2019-10-30 12:24:41*
%MOMM*%
%LPD*%
G04 APERTURE LIST*
%ADD10C,0.150000*%
%ADD11C,0.100000*%
G04 APERTURE END LIST*
D10*
X89605500Y-120754000D02*
X89772166Y-121220666D01*
X89938833Y-120754000D01*
X90338833Y-120520666D02*
X90405500Y-120520666D01*
X90472166Y-120554000D01*
X90505500Y-120587333D01*
X90538833Y-120654000D01*
X90572166Y-120787333D01*
X90572166Y-120954000D01*
X90538833Y-121087333D01*
X90505500Y-121154000D01*
X90472166Y-121187333D01*
X90405500Y-121220666D01*
X90338833Y-121220666D01*
X90272166Y-121187333D01*
X90238833Y-121154000D01*
X90205500Y-121087333D01*
X90172166Y-120954000D01*
X90172166Y-120787333D01*
X90205500Y-120654000D01*
X90238833Y-120587333D01*
X90272166Y-120554000D01*
X90338833Y-120520666D01*
X90872166Y-121154000D02*
X90905500Y-121187333D01*
X90872166Y-121220666D01*
X90838833Y-121187333D01*
X90872166Y-121154000D01*
X90872166Y-121220666D01*
X91138833Y-120520666D02*
X91572166Y-120520666D01*
X91338833Y-120787333D01*
X91438833Y-120787333D01*
X91505500Y-120820666D01*
X91538833Y-120854000D01*
X91572166Y-120920666D01*
X91572166Y-121087333D01*
X91538833Y-121154000D01*
X91505500Y-121187333D01*
X91438833Y-121220666D01*
X91238833Y-121220666D01*
X91172166Y-121187333D01*
X91138833Y-121154000D01*
X92005500Y-120520666D02*
X92072166Y-120520666D01*
X92138833Y-120554000D01*
X92172166Y-120587333D01*
X92205500Y-120654000D01*
X92238833Y-120787333D01*
X92238833Y-120954000D01*
X92205500Y-121087333D01*
X92172166Y-121154000D01*
X92138833Y-121187333D01*
X92072166Y-121220666D01*
X92005500Y-121220666D01*
X91938833Y-121187333D01*
X91905500Y-121154000D01*
X91872166Y-121087333D01*
X91838833Y-120954000D01*
X91838833Y-120787333D01*
X91872166Y-120654000D01*
X91905500Y-120587333D01*
X91938833Y-120554000D01*
X92005500Y-120520666D01*
X92738833Y-121487333D02*
X92705500Y-121454000D01*
X92638833Y-121354000D01*
X92605500Y-121287333D01*
X92572166Y-121187333D01*
X92538833Y-121020666D01*
X92538833Y-120887333D01*
X92572166Y-120720666D01*
X92605500Y-120620666D01*
X92638833Y-120554000D01*
X92705500Y-120454000D01*
X92738833Y-120420666D01*
X93372166Y-121220666D02*
X92972166Y-121220666D01*
X93172166Y-121220666D02*
X93172166Y-120520666D01*
X93105500Y-120620666D01*
X93038833Y-120687333D01*
X92972166Y-120720666D01*
X93705500Y-121220666D02*
X93838833Y-121220666D01*
X93905500Y-121187333D01*
X93938833Y-121154000D01*
X94005500Y-121054000D01*
X94038833Y-120920666D01*
X94038833Y-120654000D01*
X94005500Y-120587333D01*
X93972166Y-120554000D01*
X93905500Y-120520666D01*
X93772166Y-120520666D01*
X93705500Y-120554000D01*
X93672166Y-120587333D01*
X93638833Y-120654000D01*
X93638833Y-120820666D01*
X93672166Y-120887333D01*
X93705500Y-120920666D01*
X93772166Y-120954000D01*
X93905500Y-120954000D01*
X93972166Y-120920666D01*
X94005500Y-120887333D01*
X94038833Y-120820666D01*
X94705500Y-121220666D02*
X94305500Y-121220666D01*
X94505500Y-121220666D02*
X94505500Y-120520666D01*
X94438833Y-120620666D01*
X94372166Y-120687333D01*
X94305500Y-120720666D01*
X95138833Y-120520666D02*
X95205500Y-120520666D01*
X95272166Y-120554000D01*
X95305500Y-120587333D01*
X95338833Y-120654000D01*
X95372166Y-120787333D01*
X95372166Y-120954000D01*
X95338833Y-121087333D01*
X95305500Y-121154000D01*
X95272166Y-121187333D01*
X95205500Y-121220666D01*
X95138833Y-121220666D01*
X95072166Y-121187333D01*
X95038833Y-121154000D01*
X95005500Y-121087333D01*
X94972166Y-120954000D01*
X94972166Y-120787333D01*
X95005500Y-120654000D01*
X95038833Y-120587333D01*
X95072166Y-120554000D01*
X95138833Y-120520666D01*
X95638833Y-120587333D02*
X95672166Y-120554000D01*
X95738833Y-120520666D01*
X95905500Y-120520666D01*
X95972166Y-120554000D01*
X96005500Y-120587333D01*
X96038833Y-120654000D01*
X96038833Y-120720666D01*
X96005500Y-120820666D01*
X95605500Y-121220666D01*
X96038833Y-121220666D01*
X96372166Y-121220666D02*
X96505500Y-121220666D01*
X96572166Y-121187333D01*
X96605500Y-121154000D01*
X96672166Y-121054000D01*
X96705500Y-120920666D01*
X96705500Y-120654000D01*
X96672166Y-120587333D01*
X96638833Y-120554000D01*
X96572166Y-120520666D01*
X96438833Y-120520666D01*
X96372166Y-120554000D01*
X96338833Y-120587333D01*
X96305500Y-120654000D01*
X96305500Y-120820666D01*
X96338833Y-120887333D01*
X96372166Y-120920666D01*
X96438833Y-120954000D01*
X96572166Y-120954000D01*
X96638833Y-120920666D01*
X96672166Y-120887333D01*
X96705500Y-120820666D01*
X96938833Y-121487333D02*
X96972166Y-121454000D01*
X97038833Y-121354000D01*
X97072166Y-121287333D01*
X97105500Y-121187333D01*
X97138833Y-121020666D01*
X97138833Y-120887333D01*
X97105500Y-120720666D01*
X97072166Y-120620666D01*
X97038833Y-120554000D01*
X96972166Y-120454000D01*
X96938833Y-120420666D01*
X89568976Y-117201904D02*
X89568976Y-116401904D01*
X90026119Y-117201904D02*
X89683261Y-116744761D01*
X90026119Y-116401904D02*
X89568976Y-116859047D01*
X90673738Y-117163809D02*
X90597547Y-117201904D01*
X90445166Y-117201904D01*
X90368976Y-117163809D01*
X90330880Y-117087619D01*
X90330880Y-116782857D01*
X90368976Y-116706666D01*
X90445166Y-116668571D01*
X90597547Y-116668571D01*
X90673738Y-116706666D01*
X90711833Y-116782857D01*
X90711833Y-116859047D01*
X90330880Y-116935238D01*
X90978500Y-116668571D02*
X91168976Y-117201904D01*
X91359452Y-116668571D02*
X91168976Y-117201904D01*
X91092785Y-117392380D01*
X91054690Y-117430476D01*
X90978500Y-117468571D01*
X91664214Y-116668571D02*
X91664214Y-117468571D01*
X91664214Y-116706666D02*
X91740404Y-116668571D01*
X91892785Y-116668571D01*
X91968976Y-116706666D01*
X92007071Y-116744761D01*
X92045166Y-116820952D01*
X92045166Y-117049523D01*
X92007071Y-117125714D01*
X91968976Y-117163809D01*
X91892785Y-117201904D01*
X91740404Y-117201904D01*
X91664214Y-117163809D01*
X92730880Y-117201904D02*
X92730880Y-116782857D01*
X92692785Y-116706666D01*
X92616595Y-116668571D01*
X92464214Y-116668571D01*
X92388023Y-116706666D01*
X92730880Y-117163809D02*
X92654690Y-117201904D01*
X92464214Y-117201904D01*
X92388023Y-117163809D01*
X92349928Y-117087619D01*
X92349928Y-117011428D01*
X92388023Y-116935238D01*
X92464214Y-116897142D01*
X92654690Y-116897142D01*
X92730880Y-116859047D01*
X93454690Y-117201904D02*
X93454690Y-116401904D01*
X93454690Y-117163809D02*
X93378500Y-117201904D01*
X93226119Y-117201904D01*
X93149928Y-117163809D01*
X93111833Y-117125714D01*
X93073738Y-117049523D01*
X93073738Y-116820952D01*
X93111833Y-116744761D01*
X93149928Y-116706666D01*
X93226119Y-116668571D01*
X93378500Y-116668571D01*
X93454690Y-116706666D01*
X94330880Y-116668571D02*
X94635642Y-116668571D01*
X94445166Y-117201904D02*
X94445166Y-116516190D01*
X94483261Y-116440000D01*
X94559452Y-116401904D01*
X94635642Y-116401904D01*
X95016595Y-117201904D02*
X94940404Y-117163809D01*
X94902309Y-117125714D01*
X94864214Y-117049523D01*
X94864214Y-116820952D01*
X94902309Y-116744761D01*
X94940404Y-116706666D01*
X95016595Y-116668571D01*
X95130880Y-116668571D01*
X95207071Y-116706666D01*
X95245166Y-116744761D01*
X95283261Y-116820952D01*
X95283261Y-117049523D01*
X95245166Y-117125714D01*
X95207071Y-117163809D01*
X95130880Y-117201904D01*
X95016595Y-117201904D01*
X95626119Y-117201904D02*
X95626119Y-116668571D01*
X95626119Y-116820952D02*
X95664214Y-116744761D01*
X95702309Y-116706666D01*
X95778500Y-116668571D01*
X95854690Y-116668571D01*
X96692785Y-116973333D02*
X97073738Y-116973333D01*
X96616595Y-117201904D02*
X96883261Y-116401904D01*
X97149928Y-117201904D01*
X97416595Y-117201904D02*
X97416595Y-116668571D01*
X97416595Y-116820952D02*
X97454690Y-116744761D01*
X97492785Y-116706666D01*
X97568976Y-116668571D01*
X97645166Y-116668571D01*
X97797547Y-116668571D02*
X98102309Y-116668571D01*
X97911833Y-116401904D02*
X97911833Y-117087619D01*
X97949928Y-117163809D01*
X98026119Y-117201904D01*
X98102309Y-117201904D01*
X98368976Y-117201904D02*
X98368976Y-116668571D01*
X98368976Y-116401904D02*
X98330880Y-116440000D01*
X98368976Y-116478095D01*
X98407071Y-116440000D01*
X98368976Y-116401904D01*
X98368976Y-116478095D01*
X98711833Y-117163809D02*
X98788023Y-117201904D01*
X98940404Y-117201904D01*
X99016595Y-117163809D01*
X99054690Y-117087619D01*
X99054690Y-117049523D01*
X99016595Y-116973333D01*
X98940404Y-116935238D01*
X98826119Y-116935238D01*
X98749928Y-116897142D01*
X98711833Y-116820952D01*
X98711833Y-116782857D01*
X98749928Y-116706666D01*
X98826119Y-116668571D01*
X98940404Y-116668571D01*
X99016595Y-116706666D01*
X99283261Y-116668571D02*
X99588023Y-116668571D01*
X99397547Y-116401904D02*
X99397547Y-117087619D01*
X99435642Y-117163809D01*
X99511833Y-117201904D01*
X99588023Y-117201904D01*
X99816595Y-117163809D02*
X99892785Y-117201904D01*
X100045166Y-117201904D01*
X100121357Y-117163809D01*
X100159452Y-117087619D01*
X100159452Y-117049523D01*
X100121357Y-116973333D01*
X100045166Y-116935238D01*
X99930880Y-116935238D01*
X99854690Y-116897142D01*
X99816595Y-116820952D01*
X99816595Y-116782857D01*
X99854690Y-116706666D01*
X99930880Y-116668571D01*
X100045166Y-116668571D01*
X100121357Y-116706666D01*
D11*
G36*
X90754236Y-118159795D02*
G01*
X91017562Y-118159795D01*
X91101782Y-119508588D01*
X90754236Y-119508588D01*
X90754236Y-118159795D01*
G37*
G36*
X90355606Y-118159795D02*
G01*
X90627826Y-118159795D01*
X90627826Y-119508588D01*
X90355606Y-119508588D01*
X90355606Y-118159795D01*
G37*
G36*
X89923768Y-117822551D02*
G01*
X90251153Y-117822551D01*
X90251153Y-119171253D01*
X90007805Y-119171253D01*
X89923768Y-117822551D01*
G37*
G36*
X89573840Y-118159789D02*
G01*
X89824467Y-118159789D01*
X89908503Y-119508570D01*
X89489623Y-119508570D01*
X89573840Y-118159789D01*
G37*
G36*
X163749500Y-123184500D02*
G01*
X162250500Y-123184500D01*
X162250500Y-121685500D01*
X163749500Y-121685500D01*
X163749500Y-123184500D01*
X163749500Y-123184500D01*
G37*
G36*
X161499500Y-123184500D02*
G01*
X160000500Y-123184500D01*
X160000500Y-121685500D01*
X161499500Y-121685500D01*
X161499500Y-123184500D01*
X161499500Y-123184500D01*
G37*
G36*
X143751500Y-123184500D02*
G01*
X142252500Y-123184500D01*
X142252500Y-121685500D01*
X143751500Y-121685500D01*
X143751500Y-123184500D01*
X143751500Y-123184500D01*
G37*
G36*
X123304500Y-123177500D02*
G01*
X121805500Y-123177500D01*
X121805500Y-121678500D01*
X123304500Y-121678500D01*
X123304500Y-123177500D01*
X123304500Y-123177500D01*
G37*
G36*
X153346474Y-112733684D02*
G01*
X153509969Y-112801406D01*
X153718623Y-112887833D01*
X154053548Y-113111623D01*
X154338377Y-113396452D01*
X154562167Y-113731377D01*
X154594562Y-113809586D01*
X154716316Y-114103526D01*
X154794900Y-114498594D01*
X154794900Y-114901406D01*
X154716316Y-115296474D01*
X154665451Y-115419272D01*
X154562167Y-115668623D01*
X154338377Y-116003548D01*
X154053548Y-116288377D01*
X153718623Y-116512167D01*
X153564474Y-116576017D01*
X153346474Y-116666316D01*
X152951406Y-116744900D01*
X152548594Y-116744900D01*
X152153526Y-116666316D01*
X151935526Y-116576017D01*
X151781377Y-116512167D01*
X151446452Y-116288377D01*
X151161623Y-116003548D01*
X150937833Y-115668623D01*
X150834549Y-115419272D01*
X150783684Y-115296474D01*
X150705100Y-114901406D01*
X150705100Y-114498594D01*
X150783684Y-114103526D01*
X150905438Y-113809586D01*
X150937833Y-113731377D01*
X151161623Y-113396452D01*
X151446452Y-113111623D01*
X151781377Y-112887833D01*
X151990031Y-112801406D01*
X152153526Y-112733684D01*
X152548594Y-112655100D01*
X152951406Y-112655100D01*
X153346474Y-112733684D01*
X153346474Y-112733684D01*
G37*
G36*
X134346474Y-112733684D02*
G01*
X134509969Y-112801406D01*
X134718623Y-112887833D01*
X135053548Y-113111623D01*
X135338377Y-113396452D01*
X135562167Y-113731377D01*
X135594562Y-113809586D01*
X135716316Y-114103526D01*
X135794900Y-114498594D01*
X135794900Y-114901406D01*
X135716316Y-115296474D01*
X135665451Y-115419272D01*
X135562167Y-115668623D01*
X135338377Y-116003548D01*
X135053548Y-116288377D01*
X134718623Y-116512167D01*
X134564474Y-116576017D01*
X134346474Y-116666316D01*
X133951406Y-116744900D01*
X133548594Y-116744900D01*
X133153526Y-116666316D01*
X132935526Y-116576017D01*
X132781377Y-116512167D01*
X132446452Y-116288377D01*
X132161623Y-116003548D01*
X131937833Y-115668623D01*
X131834549Y-115419272D01*
X131783684Y-115296474D01*
X131705100Y-114901406D01*
X131705100Y-114498594D01*
X131783684Y-114103526D01*
X131905438Y-113809586D01*
X131937833Y-113731377D01*
X132161623Y-113396452D01*
X132446452Y-113111623D01*
X132781377Y-112887833D01*
X132990031Y-112801406D01*
X133153526Y-112733684D01*
X133548594Y-112655100D01*
X133951406Y-112655100D01*
X134346474Y-112733684D01*
X134346474Y-112733684D01*
G37*
G36*
X115296474Y-112733684D02*
G01*
X115459969Y-112801406D01*
X115668623Y-112887833D01*
X116003548Y-113111623D01*
X116288377Y-113396452D01*
X116512167Y-113731377D01*
X116544562Y-113809586D01*
X116666316Y-114103526D01*
X116744900Y-114498594D01*
X116744900Y-114901406D01*
X116666316Y-115296474D01*
X116615451Y-115419272D01*
X116512167Y-115668623D01*
X116288377Y-116003548D01*
X116003548Y-116288377D01*
X115668623Y-116512167D01*
X115514474Y-116576017D01*
X115296474Y-116666316D01*
X114901406Y-116744900D01*
X114498594Y-116744900D01*
X114103526Y-116666316D01*
X113885526Y-116576017D01*
X113731377Y-116512167D01*
X113396452Y-116288377D01*
X113111623Y-116003548D01*
X112887833Y-115668623D01*
X112784549Y-115419272D01*
X112733684Y-115296474D01*
X112655100Y-114901406D01*
X112655100Y-114498594D01*
X112733684Y-114103526D01*
X112855438Y-113809586D01*
X112887833Y-113731377D01*
X113111623Y-113396452D01*
X113396452Y-113111623D01*
X113731377Y-112887833D01*
X113940031Y-112801406D01*
X114103526Y-112733684D01*
X114498594Y-112655100D01*
X114901406Y-112655100D01*
X115296474Y-112733684D01*
X115296474Y-112733684D01*
G37*
G36*
X158100104Y-113809585D02*
G01*
X158268626Y-113879389D01*
X158420291Y-113980728D01*
X158549272Y-114109709D01*
X158650611Y-114261374D01*
X158720415Y-114429896D01*
X158756000Y-114608797D01*
X158756000Y-114791203D01*
X158720415Y-114970104D01*
X158650611Y-115138626D01*
X158549272Y-115290291D01*
X158420291Y-115419272D01*
X158268626Y-115520611D01*
X158100104Y-115590415D01*
X157921203Y-115626000D01*
X157738797Y-115626000D01*
X157559896Y-115590415D01*
X157391374Y-115520611D01*
X157239709Y-115419272D01*
X157110728Y-115290291D01*
X157009389Y-115138626D01*
X156939585Y-114970104D01*
X156904000Y-114791203D01*
X156904000Y-114608797D01*
X156939585Y-114429896D01*
X157009389Y-114261374D01*
X157110728Y-114109709D01*
X157239709Y-113980728D01*
X157391374Y-113879389D01*
X157559896Y-113809585D01*
X157738797Y-113774000D01*
X157921203Y-113774000D01*
X158100104Y-113809585D01*
X158100104Y-113809585D01*
G37*
G36*
X149465331Y-110428211D02*
G01*
X149793092Y-110563974D01*
X150088070Y-110761072D01*
X150338928Y-111011930D01*
X150536026Y-111306908D01*
X150671789Y-111634669D01*
X150741000Y-111982616D01*
X150741000Y-112337384D01*
X150671789Y-112685331D01*
X150536026Y-113013092D01*
X150338928Y-113308070D01*
X150088070Y-113558928D01*
X149793092Y-113756026D01*
X149465331Y-113891789D01*
X149117384Y-113961000D01*
X148762616Y-113961000D01*
X148513425Y-113911433D01*
X148489039Y-113909031D01*
X148464653Y-113911433D01*
X148441204Y-113918546D01*
X148419593Y-113930097D01*
X148400651Y-113945642D01*
X148385106Y-113964584D01*
X148373555Y-113986195D01*
X148366442Y-114009644D01*
X148364040Y-114034030D01*
X148366442Y-114058416D01*
X148373555Y-114081865D01*
X148385106Y-114103476D01*
X148389268Y-114109705D01*
X148389272Y-114109709D01*
X148490611Y-114261374D01*
X148560415Y-114429896D01*
X148596000Y-114608797D01*
X148596000Y-114791203D01*
X148560415Y-114970104D01*
X148490611Y-115138626D01*
X148389272Y-115290291D01*
X148260291Y-115419272D01*
X148108626Y-115520611D01*
X147940104Y-115590415D01*
X147761203Y-115626000D01*
X147578797Y-115626000D01*
X147399896Y-115590415D01*
X147231374Y-115520611D01*
X147079709Y-115419272D01*
X146950728Y-115290291D01*
X146849389Y-115138626D01*
X146779585Y-114970104D01*
X146744000Y-114791203D01*
X146744000Y-114608797D01*
X146779585Y-114429896D01*
X146849389Y-114261374D01*
X146950728Y-114109709D01*
X147079709Y-113980728D01*
X147231374Y-113879389D01*
X147399896Y-113809585D01*
X147578797Y-113774000D01*
X147705227Y-113774000D01*
X147729613Y-113771598D01*
X147753062Y-113764485D01*
X147774673Y-113752934D01*
X147793615Y-113737389D01*
X147809160Y-113718447D01*
X147820711Y-113696836D01*
X147827824Y-113673387D01*
X147830226Y-113649001D01*
X147827824Y-113624615D01*
X147820711Y-113601166D01*
X147809160Y-113579555D01*
X147793615Y-113560613D01*
X147541072Y-113308070D01*
X147343974Y-113013092D01*
X147208211Y-112685331D01*
X147139000Y-112337384D01*
X147139000Y-111982616D01*
X147208211Y-111634669D01*
X147343974Y-111306908D01*
X147541072Y-111011930D01*
X147791930Y-110761072D01*
X148086908Y-110563974D01*
X148414669Y-110428211D01*
X148762616Y-110359000D01*
X149117384Y-110359000D01*
X149465331Y-110428211D01*
X149465331Y-110428211D01*
G37*
G36*
X139100104Y-113809585D02*
G01*
X139268626Y-113879389D01*
X139420291Y-113980728D01*
X139549272Y-114109709D01*
X139650611Y-114261374D01*
X139720415Y-114429896D01*
X139756000Y-114608797D01*
X139756000Y-114791203D01*
X139720415Y-114970104D01*
X139650611Y-115138626D01*
X139549272Y-115290291D01*
X139420291Y-115419272D01*
X139268626Y-115520611D01*
X139100104Y-115590415D01*
X138921203Y-115626000D01*
X138738797Y-115626000D01*
X138559896Y-115590415D01*
X138391374Y-115520611D01*
X138239709Y-115419272D01*
X138110728Y-115290291D01*
X138009389Y-115138626D01*
X137939585Y-114970104D01*
X137904000Y-114791203D01*
X137904000Y-114608797D01*
X137939585Y-114429896D01*
X138009389Y-114261374D01*
X138110728Y-114109709D01*
X138239709Y-113980728D01*
X138391374Y-113879389D01*
X138559896Y-113809585D01*
X138738797Y-113774000D01*
X138921203Y-113774000D01*
X139100104Y-113809585D01*
X139100104Y-113809585D01*
G37*
G36*
X130465331Y-110428211D02*
G01*
X130793092Y-110563974D01*
X131088070Y-110761072D01*
X131338928Y-111011930D01*
X131536026Y-111306908D01*
X131671789Y-111634669D01*
X131741000Y-111982616D01*
X131741000Y-112337384D01*
X131671789Y-112685331D01*
X131536026Y-113013092D01*
X131338928Y-113308070D01*
X131088070Y-113558928D01*
X130793092Y-113756026D01*
X130465331Y-113891789D01*
X130117384Y-113961000D01*
X129762616Y-113961000D01*
X129513425Y-113911433D01*
X129489039Y-113909031D01*
X129464653Y-113911433D01*
X129441204Y-113918546D01*
X129419593Y-113930097D01*
X129400651Y-113945642D01*
X129385106Y-113964584D01*
X129373555Y-113986195D01*
X129366442Y-114009644D01*
X129364040Y-114034030D01*
X129366442Y-114058416D01*
X129373555Y-114081865D01*
X129385106Y-114103476D01*
X129389268Y-114109705D01*
X129389272Y-114109709D01*
X129490611Y-114261374D01*
X129560415Y-114429896D01*
X129596000Y-114608797D01*
X129596000Y-114791203D01*
X129560415Y-114970104D01*
X129490611Y-115138626D01*
X129389272Y-115290291D01*
X129260291Y-115419272D01*
X129108626Y-115520611D01*
X128940104Y-115590415D01*
X128761203Y-115626000D01*
X128578797Y-115626000D01*
X128399896Y-115590415D01*
X128231374Y-115520611D01*
X128079709Y-115419272D01*
X127950728Y-115290291D01*
X127849389Y-115138626D01*
X127779585Y-114970104D01*
X127744000Y-114791203D01*
X127744000Y-114608797D01*
X127779585Y-114429896D01*
X127849389Y-114261374D01*
X127950728Y-114109709D01*
X128079709Y-113980728D01*
X128231374Y-113879389D01*
X128399896Y-113809585D01*
X128578797Y-113774000D01*
X128705227Y-113774000D01*
X128729613Y-113771598D01*
X128753062Y-113764485D01*
X128774673Y-113752934D01*
X128793615Y-113737389D01*
X128809160Y-113718447D01*
X128820711Y-113696836D01*
X128827824Y-113673387D01*
X128830226Y-113649001D01*
X128827824Y-113624615D01*
X128820711Y-113601166D01*
X128809160Y-113579555D01*
X128793615Y-113560613D01*
X128541072Y-113308070D01*
X128343974Y-113013092D01*
X128208211Y-112685331D01*
X128139000Y-112337384D01*
X128139000Y-111982616D01*
X128208211Y-111634669D01*
X128343974Y-111306908D01*
X128541072Y-111011930D01*
X128791930Y-110761072D01*
X129086908Y-110563974D01*
X129414669Y-110428211D01*
X129762616Y-110359000D01*
X130117384Y-110359000D01*
X130465331Y-110428211D01*
X130465331Y-110428211D01*
G37*
G36*
X120050104Y-113809585D02*
G01*
X120218626Y-113879389D01*
X120370291Y-113980728D01*
X120499272Y-114109709D01*
X120600611Y-114261374D01*
X120670415Y-114429896D01*
X120706000Y-114608797D01*
X120706000Y-114791203D01*
X120670415Y-114970104D01*
X120600611Y-115138626D01*
X120499272Y-115290291D01*
X120370291Y-115419272D01*
X120218626Y-115520611D01*
X120050104Y-115590415D01*
X119871203Y-115626000D01*
X119688797Y-115626000D01*
X119509896Y-115590415D01*
X119341374Y-115520611D01*
X119189709Y-115419272D01*
X119060728Y-115290291D01*
X118959389Y-115138626D01*
X118889585Y-114970104D01*
X118854000Y-114791203D01*
X118854000Y-114608797D01*
X118889585Y-114429896D01*
X118959389Y-114261374D01*
X119060728Y-114109709D01*
X119189709Y-113980728D01*
X119341374Y-113879389D01*
X119509896Y-113809585D01*
X119688797Y-113774000D01*
X119871203Y-113774000D01*
X120050104Y-113809585D01*
X120050104Y-113809585D01*
G37*
G36*
X111415331Y-110428211D02*
G01*
X111743092Y-110563974D01*
X112038070Y-110761072D01*
X112288928Y-111011930D01*
X112486026Y-111306908D01*
X112621789Y-111634669D01*
X112691000Y-111982616D01*
X112691000Y-112337384D01*
X112621789Y-112685331D01*
X112486026Y-113013092D01*
X112288928Y-113308070D01*
X112038070Y-113558928D01*
X111743092Y-113756026D01*
X111415331Y-113891789D01*
X111067384Y-113961000D01*
X110712616Y-113961000D01*
X110463425Y-113911433D01*
X110439039Y-113909031D01*
X110414653Y-113911433D01*
X110391204Y-113918546D01*
X110369593Y-113930097D01*
X110350651Y-113945642D01*
X110335106Y-113964584D01*
X110323555Y-113986195D01*
X110316442Y-114009644D01*
X110314040Y-114034030D01*
X110316442Y-114058416D01*
X110323555Y-114081865D01*
X110335106Y-114103476D01*
X110339268Y-114109705D01*
X110339272Y-114109709D01*
X110440611Y-114261374D01*
X110510415Y-114429896D01*
X110546000Y-114608797D01*
X110546000Y-114791203D01*
X110510415Y-114970104D01*
X110440611Y-115138626D01*
X110339272Y-115290291D01*
X110210291Y-115419272D01*
X110058626Y-115520611D01*
X109890104Y-115590415D01*
X109711203Y-115626000D01*
X109528797Y-115626000D01*
X109349896Y-115590415D01*
X109181374Y-115520611D01*
X109029709Y-115419272D01*
X108900728Y-115290291D01*
X108799389Y-115138626D01*
X108729585Y-114970104D01*
X108694000Y-114791203D01*
X108694000Y-114608797D01*
X108729585Y-114429896D01*
X108799389Y-114261374D01*
X108900728Y-114109709D01*
X109029709Y-113980728D01*
X109181374Y-113879389D01*
X109349896Y-113809585D01*
X109528797Y-113774000D01*
X109655227Y-113774000D01*
X109679613Y-113771598D01*
X109703062Y-113764485D01*
X109724673Y-113752934D01*
X109743615Y-113737389D01*
X109759160Y-113718447D01*
X109770711Y-113696836D01*
X109777824Y-113673387D01*
X109780226Y-113649001D01*
X109777824Y-113624615D01*
X109770711Y-113601166D01*
X109759160Y-113579555D01*
X109743615Y-113560613D01*
X109491072Y-113308070D01*
X109293974Y-113013092D01*
X109158211Y-112685331D01*
X109089000Y-112337384D01*
X109089000Y-111982616D01*
X109158211Y-111634669D01*
X109293974Y-111306908D01*
X109491072Y-111011930D01*
X109741930Y-110761072D01*
X110036908Y-110563974D01*
X110364669Y-110428211D01*
X110712616Y-110359000D01*
X111067384Y-110359000D01*
X111415331Y-110428211D01*
X111415331Y-110428211D01*
G37*
G36*
X143096425Y-114069599D02*
G01*
X143220621Y-114094302D01*
X143357022Y-114150801D01*
X143479779Y-114232825D01*
X143584175Y-114337221D01*
X143666199Y-114459978D01*
X143722698Y-114596379D01*
X143747401Y-114720575D01*
X143750108Y-114734180D01*
X143751500Y-114741181D01*
X143751500Y-114888819D01*
X143722698Y-115033621D01*
X143666199Y-115170022D01*
X143584175Y-115292779D01*
X143479779Y-115397175D01*
X143357022Y-115479199D01*
X143220621Y-115535698D01*
X143111011Y-115557500D01*
X143075820Y-115564500D01*
X142928180Y-115564500D01*
X142892989Y-115557500D01*
X142783379Y-115535698D01*
X142646978Y-115479199D01*
X142524221Y-115397175D01*
X142419825Y-115292779D01*
X142337801Y-115170022D01*
X142281302Y-115033621D01*
X142252500Y-114888819D01*
X142252500Y-114741181D01*
X142253893Y-114734180D01*
X142256599Y-114720575D01*
X142281302Y-114596379D01*
X142337801Y-114459978D01*
X142419825Y-114337221D01*
X142524221Y-114232825D01*
X142646978Y-114150801D01*
X142783379Y-114094302D01*
X142907575Y-114069599D01*
X142928180Y-114065500D01*
X143075820Y-114065500D01*
X143096425Y-114069599D01*
X143096425Y-114069599D01*
G37*
G36*
X163094425Y-114069599D02*
G01*
X163218621Y-114094302D01*
X163355022Y-114150801D01*
X163477779Y-114232825D01*
X163582175Y-114337221D01*
X163664199Y-114459978D01*
X163720698Y-114596379D01*
X163745401Y-114720575D01*
X163748108Y-114734180D01*
X163749500Y-114741181D01*
X163749500Y-114888819D01*
X163720698Y-115033621D01*
X163664199Y-115170022D01*
X163582175Y-115292779D01*
X163477779Y-115397175D01*
X163355022Y-115479199D01*
X163218621Y-115535698D01*
X163109011Y-115557500D01*
X163073820Y-115564500D01*
X162926180Y-115564500D01*
X162890989Y-115557500D01*
X162781379Y-115535698D01*
X162644978Y-115479199D01*
X162522221Y-115397175D01*
X162417825Y-115292779D01*
X162335801Y-115170022D01*
X162279302Y-115033621D01*
X162250500Y-114888819D01*
X162250500Y-114741181D01*
X162251893Y-114734180D01*
X162254599Y-114720575D01*
X162279302Y-114596379D01*
X162335801Y-114459978D01*
X162417825Y-114337221D01*
X162522221Y-114232825D01*
X162644978Y-114150801D01*
X162781379Y-114094302D01*
X162905575Y-114069599D01*
X162926180Y-114065500D01*
X163073820Y-114065500D01*
X163094425Y-114069599D01*
X163094425Y-114069599D01*
G37*
G36*
X160844425Y-114069599D02*
G01*
X160968621Y-114094302D01*
X161105022Y-114150801D01*
X161227779Y-114232825D01*
X161332175Y-114337221D01*
X161414199Y-114459978D01*
X161470698Y-114596379D01*
X161495401Y-114720575D01*
X161498108Y-114734180D01*
X161499500Y-114741181D01*
X161499500Y-114888819D01*
X161470698Y-115033621D01*
X161414199Y-115170022D01*
X161332175Y-115292779D01*
X161227779Y-115397175D01*
X161105022Y-115479199D01*
X160968621Y-115535698D01*
X160859011Y-115557500D01*
X160823820Y-115564500D01*
X160676180Y-115564500D01*
X160640989Y-115557500D01*
X160531379Y-115535698D01*
X160394978Y-115479199D01*
X160272221Y-115397175D01*
X160167825Y-115292779D01*
X160085801Y-115170022D01*
X160029302Y-115033621D01*
X160000500Y-114888819D01*
X160000500Y-114741181D01*
X160001893Y-114734180D01*
X160004599Y-114720575D01*
X160029302Y-114596379D01*
X160085801Y-114459978D01*
X160167825Y-114337221D01*
X160272221Y-114232825D01*
X160394978Y-114150801D01*
X160531379Y-114094302D01*
X160655575Y-114069599D01*
X160676180Y-114065500D01*
X160823820Y-114065500D01*
X160844425Y-114069599D01*
X160844425Y-114069599D01*
G37*
G36*
X122649425Y-114062599D02*
G01*
X122773621Y-114087302D01*
X122910022Y-114143801D01*
X123032779Y-114225825D01*
X123137175Y-114330221D01*
X123219199Y-114452978D01*
X123275698Y-114589379D01*
X123286741Y-114644900D01*
X123304500Y-114734180D01*
X123304500Y-114881820D01*
X123300604Y-114901405D01*
X123275698Y-115026621D01*
X123219199Y-115163022D01*
X123137175Y-115285779D01*
X123032779Y-115390175D01*
X122910022Y-115472199D01*
X122773621Y-115528698D01*
X122649425Y-115553401D01*
X122628820Y-115557500D01*
X122481180Y-115557500D01*
X122460575Y-115553401D01*
X122336379Y-115528698D01*
X122199978Y-115472199D01*
X122077221Y-115390175D01*
X121972825Y-115285779D01*
X121890801Y-115163022D01*
X121834302Y-115026621D01*
X121809396Y-114901405D01*
X121805500Y-114881820D01*
X121805500Y-114734180D01*
X121823259Y-114644900D01*
X121834302Y-114589379D01*
X121890801Y-114452978D01*
X121972825Y-114330221D01*
X122077221Y-114225825D01*
X122199978Y-114143801D01*
X122336379Y-114087302D01*
X122460575Y-114062599D01*
X122481180Y-114058500D01*
X122628820Y-114058500D01*
X122649425Y-114062599D01*
X122649425Y-114062599D01*
G37*
G36*
X179427007Y-113024386D02*
G01*
X179595529Y-113094190D01*
X179747194Y-113195529D01*
X179876175Y-113324510D01*
X179977514Y-113476175D01*
X180047318Y-113644697D01*
X180082903Y-113823598D01*
X180082903Y-114006004D01*
X180047318Y-114184905D01*
X179977514Y-114353427D01*
X179876175Y-114505092D01*
X179747194Y-114634073D01*
X179595529Y-114735412D01*
X179427007Y-114805216D01*
X179248106Y-114840801D01*
X179065700Y-114840801D01*
X178886799Y-114805216D01*
X178718277Y-114735412D01*
X178566612Y-114634073D01*
X178437631Y-114505092D01*
X178336292Y-114353427D01*
X178266488Y-114184905D01*
X178230903Y-114006004D01*
X178230903Y-113823598D01*
X178266488Y-113644697D01*
X178336292Y-113476175D01*
X178437631Y-113324510D01*
X178566612Y-113195529D01*
X178718277Y-113094190D01*
X178886799Y-113024386D01*
X179065700Y-112988801D01*
X179248106Y-112988801D01*
X179427007Y-113024386D01*
X179427007Y-113024386D01*
G37*
G36*
X174846474Y-110633684D02*
G01*
X174994284Y-110694909D01*
X175218623Y-110787833D01*
X175553548Y-111011623D01*
X175838377Y-111296452D01*
X176062167Y-111631377D01*
X176100460Y-111723825D01*
X176216316Y-112003526D01*
X176294900Y-112398594D01*
X176294900Y-112801406D01*
X176216316Y-113196474D01*
X176163281Y-113324511D01*
X176062167Y-113568623D01*
X175838377Y-113903548D01*
X175553548Y-114188377D01*
X175218623Y-114412167D01*
X175103196Y-114459978D01*
X174846474Y-114566316D01*
X174451406Y-114644900D01*
X174048594Y-114644900D01*
X173653526Y-114566316D01*
X173396804Y-114459978D01*
X173281377Y-114412167D01*
X172946452Y-114188377D01*
X172661623Y-113903548D01*
X172437833Y-113568623D01*
X172336719Y-113324511D01*
X172283684Y-113196474D01*
X172205100Y-112801406D01*
X172205100Y-112398594D01*
X172283684Y-112003526D01*
X172399540Y-111723825D01*
X172437833Y-111631377D01*
X172661623Y-111296452D01*
X172946452Y-111011623D01*
X173281377Y-110787833D01*
X173505716Y-110694909D01*
X173653526Y-110633684D01*
X174048594Y-110555100D01*
X174451406Y-110555100D01*
X174846474Y-110633684D01*
X174846474Y-110633684D01*
G37*
G36*
X164866336Y-109255627D02*
G01*
X165001639Y-109282540D01*
X165383997Y-109440918D01*
X165470275Y-109498567D01*
X165728109Y-109670846D01*
X166020754Y-109963491D01*
X166054196Y-110013541D01*
X166198815Y-110229978D01*
X166250683Y-110307605D01*
X166267108Y-110347259D01*
X166409060Y-110689961D01*
X166420002Y-110744972D01*
X166489800Y-111095868D01*
X166489800Y-111509732D01*
X166464948Y-111634669D01*
X166409060Y-111915639D01*
X166250682Y-112297997D01*
X166134938Y-112471220D01*
X166020754Y-112642109D01*
X165728109Y-112934754D01*
X165610866Y-113013093D01*
X165383997Y-113164682D01*
X165383996Y-113164683D01*
X165383995Y-113164683D01*
X165307242Y-113196475D01*
X165001639Y-113323060D01*
X164866336Y-113349973D01*
X164595732Y-113403800D01*
X164181868Y-113403800D01*
X163911264Y-113349973D01*
X163775961Y-113323060D01*
X163470358Y-113196475D01*
X163393605Y-113164683D01*
X163393604Y-113164683D01*
X163393603Y-113164682D01*
X163166734Y-113013093D01*
X163049491Y-112934754D01*
X162756846Y-112642109D01*
X162642662Y-112471220D01*
X162526918Y-112297997D01*
X162368540Y-111915639D01*
X162312652Y-111634669D01*
X162287800Y-111509732D01*
X162287800Y-111095868D01*
X162357598Y-110744972D01*
X162368540Y-110689961D01*
X162510492Y-110347259D01*
X162526917Y-110307605D01*
X162578786Y-110229978D01*
X162723404Y-110013541D01*
X162756846Y-109963491D01*
X163049491Y-109670846D01*
X163307325Y-109498567D01*
X163393603Y-109440918D01*
X163775961Y-109282540D01*
X163911264Y-109255627D01*
X164181868Y-109201800D01*
X164595732Y-109201800D01*
X164866336Y-109255627D01*
X164866336Y-109255627D01*
G37*
G36*
X103347536Y-109255627D02*
G01*
X103482839Y-109282540D01*
X103865197Y-109440918D01*
X103951475Y-109498567D01*
X104209309Y-109670846D01*
X104501954Y-109963491D01*
X104535396Y-110013541D01*
X104680015Y-110229978D01*
X104731883Y-110307605D01*
X104748308Y-110347259D01*
X104890260Y-110689961D01*
X104901202Y-110744972D01*
X104971000Y-111095868D01*
X104971000Y-111509732D01*
X104946148Y-111634669D01*
X104890260Y-111915639D01*
X104731882Y-112297997D01*
X104616138Y-112471220D01*
X104501954Y-112642109D01*
X104209309Y-112934754D01*
X104092066Y-113013093D01*
X103865197Y-113164682D01*
X103865196Y-113164683D01*
X103865195Y-113164683D01*
X103788442Y-113196475D01*
X103482839Y-113323060D01*
X103347536Y-113349973D01*
X103076932Y-113403800D01*
X102663068Y-113403800D01*
X102392464Y-113349973D01*
X102257161Y-113323060D01*
X101951558Y-113196475D01*
X101874805Y-113164683D01*
X101874804Y-113164683D01*
X101874803Y-113164682D01*
X101647934Y-113013093D01*
X101530691Y-112934754D01*
X101238046Y-112642109D01*
X101123862Y-112471220D01*
X101008118Y-112297997D01*
X100849740Y-111915639D01*
X100793852Y-111634669D01*
X100769000Y-111509732D01*
X100769000Y-111095868D01*
X100838798Y-110744972D01*
X100849740Y-110689961D01*
X100991692Y-110347259D01*
X101008117Y-110307605D01*
X101059986Y-110229978D01*
X101204604Y-110013541D01*
X101238046Y-109963491D01*
X101530691Y-109670846D01*
X101788525Y-109498567D01*
X101874803Y-109440918D01*
X102257161Y-109282540D01*
X102392464Y-109255627D01*
X102663068Y-109201800D01*
X103076932Y-109201800D01*
X103347536Y-109255627D01*
X103347536Y-109255627D01*
G37*
G36*
X171752554Y-107428659D02*
G01*
X172080315Y-107564422D01*
X172375293Y-107761520D01*
X172626151Y-108012378D01*
X172823249Y-108307356D01*
X172959012Y-108635117D01*
X173028223Y-108983064D01*
X173028223Y-109337832D01*
X172959012Y-109685779D01*
X172823249Y-110013540D01*
X172626151Y-110308518D01*
X172375293Y-110559376D01*
X172080315Y-110756474D01*
X171752554Y-110892237D01*
X171404607Y-110961448D01*
X171049839Y-110961448D01*
X170701892Y-110892237D01*
X170374050Y-110756441D01*
X170352584Y-110744968D01*
X170329134Y-110737856D01*
X170304748Y-110735455D01*
X170280362Y-110737858D01*
X170256913Y-110744972D01*
X170235303Y-110756524D01*
X170216362Y-110772071D01*
X170200818Y-110791013D01*
X170189268Y-110812624D01*
X170182156Y-110836074D01*
X170179755Y-110860460D01*
X170182158Y-110884846D01*
X170189266Y-110908275D01*
X170233512Y-111015095D01*
X170269097Y-111193996D01*
X170269097Y-111376402D01*
X170233512Y-111555303D01*
X170163708Y-111723825D01*
X170062369Y-111875490D01*
X169933388Y-112004471D01*
X169781723Y-112105810D01*
X169613201Y-112175614D01*
X169434300Y-112211199D01*
X169251894Y-112211199D01*
X169072993Y-112175614D01*
X168904471Y-112105810D01*
X168752806Y-112004471D01*
X168623825Y-111875490D01*
X168522486Y-111723825D01*
X168452682Y-111555303D01*
X168417097Y-111376402D01*
X168417097Y-111193996D01*
X168452682Y-111015095D01*
X168522486Y-110846573D01*
X168623825Y-110694908D01*
X168752806Y-110565927D01*
X168904471Y-110464588D01*
X169072993Y-110394784D01*
X169251894Y-110359199D01*
X169434300Y-110359199D01*
X169613201Y-110394784D01*
X169613208Y-110394787D01*
X169617014Y-110395544D01*
X169633057Y-110400410D01*
X169657443Y-110402812D01*
X169681829Y-110400410D01*
X169705278Y-110393297D01*
X169726889Y-110381746D01*
X169745831Y-110366201D01*
X169761376Y-110347259D01*
X169772927Y-110325648D01*
X169780040Y-110302199D01*
X169782442Y-110277813D01*
X169780040Y-110253427D01*
X169772927Y-110229978D01*
X169761376Y-110208367D01*
X169631197Y-110013540D01*
X169495434Y-109685779D01*
X169426223Y-109337832D01*
X169426223Y-108983064D01*
X169495434Y-108635117D01*
X169631197Y-108307356D01*
X169828295Y-108012378D01*
X170079153Y-107761520D01*
X170374131Y-107564422D01*
X170701892Y-107428659D01*
X171049839Y-107359448D01*
X171404607Y-107359448D01*
X171752554Y-107428659D01*
X171752554Y-107428659D01*
G37*
G36*
X155815331Y-107888211D02*
G01*
X156143092Y-108023974D01*
X156438070Y-108221072D01*
X156688928Y-108471930D01*
X156886026Y-108766908D01*
X157021789Y-109094669D01*
X157091000Y-109442616D01*
X157091000Y-109797384D01*
X157021789Y-110145331D01*
X156886026Y-110473092D01*
X156688928Y-110768070D01*
X156438070Y-111018928D01*
X156143092Y-111216026D01*
X155815331Y-111351789D01*
X155467384Y-111421000D01*
X155112616Y-111421000D01*
X154764669Y-111351789D01*
X154436908Y-111216026D01*
X154141930Y-111018928D01*
X153891072Y-110768070D01*
X153693974Y-110473092D01*
X153558211Y-110145331D01*
X153489000Y-109797384D01*
X153489000Y-109442616D01*
X153558211Y-109094669D01*
X153693974Y-108766908D01*
X153891072Y-108471930D01*
X154141930Y-108221072D01*
X154436908Y-108023974D01*
X154764669Y-107888211D01*
X155112616Y-107819000D01*
X155467384Y-107819000D01*
X155815331Y-107888211D01*
X155815331Y-107888211D01*
G37*
G36*
X136815331Y-107888211D02*
G01*
X137143092Y-108023974D01*
X137438070Y-108221072D01*
X137688928Y-108471930D01*
X137886026Y-108766908D01*
X138021789Y-109094669D01*
X138091000Y-109442616D01*
X138091000Y-109797384D01*
X138021789Y-110145331D01*
X137886026Y-110473092D01*
X137688928Y-110768070D01*
X137438070Y-111018928D01*
X137143092Y-111216026D01*
X136815331Y-111351789D01*
X136467384Y-111421000D01*
X136112616Y-111421000D01*
X135764669Y-111351789D01*
X135436908Y-111216026D01*
X135141930Y-111018928D01*
X134891072Y-110768070D01*
X134693974Y-110473092D01*
X134558211Y-110145331D01*
X134489000Y-109797384D01*
X134489000Y-109442616D01*
X134558211Y-109094669D01*
X134693974Y-108766908D01*
X134891072Y-108471930D01*
X135141930Y-108221072D01*
X135436908Y-108023974D01*
X135764669Y-107888211D01*
X136112616Y-107819000D01*
X136467384Y-107819000D01*
X136815331Y-107888211D01*
X136815331Y-107888211D01*
G37*
G36*
X117765331Y-107888211D02*
G01*
X118093092Y-108023974D01*
X118388070Y-108221072D01*
X118638928Y-108471930D01*
X118836026Y-108766908D01*
X118971789Y-109094669D01*
X119041000Y-109442616D01*
X119041000Y-109797384D01*
X118971789Y-110145331D01*
X118836026Y-110473092D01*
X118638928Y-110768070D01*
X118388070Y-111018928D01*
X118093092Y-111216026D01*
X117765331Y-111351789D01*
X117417384Y-111421000D01*
X117062616Y-111421000D01*
X116714669Y-111351789D01*
X116386908Y-111216026D01*
X116091930Y-111018928D01*
X115841072Y-110768070D01*
X115643974Y-110473092D01*
X115508211Y-110145331D01*
X115439000Y-109797384D01*
X115439000Y-109442616D01*
X115508211Y-109094669D01*
X115643974Y-108766908D01*
X115841072Y-108471930D01*
X116091930Y-108221072D01*
X116386908Y-108023974D01*
X116714669Y-107888211D01*
X117062616Y-107819000D01*
X117417384Y-107819000D01*
X117765331Y-107888211D01*
X117765331Y-107888211D01*
G37*
G36*
X178543583Y-106618708D02*
G01*
X178871344Y-106754471D01*
X179166322Y-106951569D01*
X179417180Y-107202427D01*
X179614278Y-107497405D01*
X179750041Y-107825166D01*
X179819252Y-108173113D01*
X179819252Y-108527881D01*
X179750041Y-108875828D01*
X179614278Y-109203589D01*
X179417180Y-109498567D01*
X179166322Y-109749425D01*
X178871344Y-109946523D01*
X178543583Y-110082286D01*
X178195636Y-110151497D01*
X177840868Y-110151497D01*
X177492921Y-110082286D01*
X177165160Y-109946523D01*
X176870182Y-109749425D01*
X176619324Y-109498567D01*
X176422226Y-109203589D01*
X176286463Y-108875828D01*
X176217252Y-108527881D01*
X176217252Y-108173113D01*
X176286463Y-107825166D01*
X176422226Y-107497405D01*
X176619324Y-107202427D01*
X176870182Y-106951569D01*
X177165160Y-106754471D01*
X177492921Y-106618708D01*
X177840868Y-106549497D01*
X178195636Y-106549497D01*
X178543583Y-106618708D01*
X178543583Y-106618708D01*
G37*
G36*
X96156474Y-98713684D02*
G01*
X96374474Y-98803983D01*
X96528623Y-98867833D01*
X96863548Y-99091623D01*
X97148377Y-99376452D01*
X97372167Y-99711377D01*
X97404562Y-99789586D01*
X97526316Y-100083526D01*
X97604900Y-100478594D01*
X97604900Y-100881406D01*
X97526316Y-101276474D01*
X97475451Y-101399272D01*
X97372167Y-101648623D01*
X97148377Y-101983548D01*
X96863548Y-102268377D01*
X96528623Y-102492167D01*
X96374474Y-102556017D01*
X96156474Y-102646316D01*
X95761406Y-102724900D01*
X95358594Y-102724900D01*
X94963526Y-102646316D01*
X94745526Y-102556017D01*
X94591377Y-102492167D01*
X94256452Y-102268377D01*
X93971623Y-101983548D01*
X93747833Y-101648623D01*
X93644549Y-101399272D01*
X93593684Y-101276474D01*
X93515100Y-100881406D01*
X93515100Y-100478594D01*
X93593684Y-100083526D01*
X93715438Y-99789586D01*
X93747833Y-99711377D01*
X93971623Y-99376452D01*
X94256452Y-99091623D01*
X94591377Y-98867833D01*
X94745526Y-98803983D01*
X94963526Y-98713684D01*
X95358594Y-98635100D01*
X95761406Y-98635100D01*
X96156474Y-98713684D01*
X96156474Y-98713684D01*
G37*
G36*
X161633100Y-102200100D02*
G01*
X160134100Y-102200100D01*
X160134100Y-100701100D01*
X161633100Y-100701100D01*
X161633100Y-102200100D01*
X161633100Y-102200100D01*
G37*
G36*
X100910104Y-99789585D02*
G01*
X101078626Y-99859389D01*
X101230291Y-99960728D01*
X101359272Y-100089709D01*
X101460611Y-100241374D01*
X101530415Y-100409896D01*
X101566000Y-100588797D01*
X101566000Y-100771203D01*
X101530415Y-100950104D01*
X101460611Y-101118626D01*
X101359272Y-101270291D01*
X101230291Y-101399272D01*
X101078626Y-101500611D01*
X100910104Y-101570415D01*
X100731203Y-101606000D01*
X100548797Y-101606000D01*
X100369896Y-101570415D01*
X100201374Y-101500611D01*
X100049709Y-101399272D01*
X99920728Y-101270291D01*
X99819389Y-101118626D01*
X99749585Y-100950104D01*
X99714000Y-100771203D01*
X99714000Y-100588797D01*
X99749585Y-100409896D01*
X99819389Y-100241374D01*
X99920728Y-100089709D01*
X100049709Y-99960728D01*
X100201374Y-99859389D01*
X100369896Y-99789585D01*
X100548797Y-99754000D01*
X100731203Y-99754000D01*
X100910104Y-99789585D01*
X100910104Y-99789585D01*
G37*
G36*
X92275331Y-96408211D02*
G01*
X92603092Y-96543974D01*
X92898070Y-96741072D01*
X93148928Y-96991930D01*
X93346026Y-97286908D01*
X93481789Y-97614669D01*
X93551000Y-97962616D01*
X93551000Y-98317384D01*
X93481789Y-98665331D01*
X93346026Y-98993092D01*
X93148928Y-99288070D01*
X92898070Y-99538928D01*
X92603092Y-99736026D01*
X92275331Y-99871789D01*
X91927384Y-99941000D01*
X91572616Y-99941000D01*
X91323425Y-99891433D01*
X91299039Y-99889031D01*
X91274653Y-99891433D01*
X91251204Y-99898546D01*
X91229593Y-99910097D01*
X91210651Y-99925642D01*
X91195106Y-99944584D01*
X91183555Y-99966195D01*
X91176442Y-99989644D01*
X91174040Y-100014030D01*
X91176442Y-100038416D01*
X91183555Y-100061865D01*
X91195106Y-100083476D01*
X91199268Y-100089705D01*
X91199272Y-100089709D01*
X91300611Y-100241374D01*
X91370415Y-100409896D01*
X91406000Y-100588797D01*
X91406000Y-100771203D01*
X91370415Y-100950104D01*
X91300611Y-101118626D01*
X91199272Y-101270291D01*
X91070291Y-101399272D01*
X90918626Y-101500611D01*
X90750104Y-101570415D01*
X90571203Y-101606000D01*
X90388797Y-101606000D01*
X90209896Y-101570415D01*
X90041374Y-101500611D01*
X89889709Y-101399272D01*
X89760728Y-101270291D01*
X89659389Y-101118626D01*
X89589585Y-100950104D01*
X89554000Y-100771203D01*
X89554000Y-100588797D01*
X89589585Y-100409896D01*
X89659389Y-100241374D01*
X89760728Y-100089709D01*
X89889709Y-99960728D01*
X90041374Y-99859389D01*
X90209896Y-99789585D01*
X90388797Y-99754000D01*
X90515227Y-99754000D01*
X90539613Y-99751598D01*
X90563062Y-99744485D01*
X90584673Y-99732934D01*
X90603615Y-99717389D01*
X90619160Y-99698447D01*
X90630711Y-99676836D01*
X90637824Y-99653387D01*
X90640226Y-99629001D01*
X90637824Y-99604615D01*
X90630711Y-99581166D01*
X90619160Y-99559555D01*
X90603615Y-99540613D01*
X90351072Y-99288070D01*
X90153974Y-98993092D01*
X90018211Y-98665331D01*
X89949000Y-98317384D01*
X89949000Y-97962616D01*
X90018211Y-97614669D01*
X90153974Y-97286908D01*
X90351072Y-96991930D01*
X90601930Y-96741072D01*
X90896908Y-96543974D01*
X91224669Y-96408211D01*
X91572616Y-96339000D01*
X91927384Y-96339000D01*
X92275331Y-96408211D01*
X92275331Y-96408211D01*
G37*
G36*
X106261100Y-100784500D02*
G01*
X104762100Y-100784500D01*
X104762100Y-99285500D01*
X106261100Y-99285500D01*
X106261100Y-100784500D01*
X106261100Y-100784500D01*
G37*
G36*
X177106564Y-96089389D02*
G01*
X177297833Y-96168615D01*
X177297835Y-96168616D01*
X177469973Y-96283635D01*
X177616365Y-96430027D01*
X177692503Y-96543975D01*
X177731385Y-96602167D01*
X177810611Y-96793436D01*
X177851000Y-96996484D01*
X177851000Y-97203516D01*
X177810611Y-97406564D01*
X177765150Y-97516316D01*
X177731384Y-97597835D01*
X177616365Y-97769973D01*
X177469973Y-97916365D01*
X177297835Y-98031384D01*
X177297834Y-98031385D01*
X177297833Y-98031385D01*
X177106564Y-98110611D01*
X176903516Y-98151000D01*
X176696484Y-98151000D01*
X176493436Y-98110611D01*
X176302167Y-98031385D01*
X176302166Y-98031385D01*
X176302165Y-98031384D01*
X176130027Y-97916365D01*
X175983635Y-97769973D01*
X175868616Y-97597835D01*
X175834850Y-97516316D01*
X175789389Y-97406564D01*
X175749000Y-97203516D01*
X175749000Y-96996484D01*
X175789389Y-96793436D01*
X175868615Y-96602167D01*
X175907498Y-96543975D01*
X175983635Y-96430027D01*
X176130027Y-96283635D01*
X176302165Y-96168616D01*
X176302167Y-96168615D01*
X176493436Y-96089389D01*
X176696484Y-96049000D01*
X176903516Y-96049000D01*
X177106564Y-96089389D01*
X177106564Y-96089389D01*
G37*
G36*
X172106564Y-96089389D02*
G01*
X172297833Y-96168615D01*
X172297835Y-96168616D01*
X172469973Y-96283635D01*
X172616365Y-96430027D01*
X172692503Y-96543975D01*
X172731385Y-96602167D01*
X172810611Y-96793436D01*
X172851000Y-96996484D01*
X172851000Y-97203516D01*
X172810611Y-97406564D01*
X172765150Y-97516316D01*
X172731384Y-97597835D01*
X172616365Y-97769973D01*
X172469973Y-97916365D01*
X172297835Y-98031384D01*
X172297834Y-98031385D01*
X172297833Y-98031385D01*
X172106564Y-98110611D01*
X171903516Y-98151000D01*
X171696484Y-98151000D01*
X171493436Y-98110611D01*
X171302167Y-98031385D01*
X171302166Y-98031385D01*
X171302165Y-98031384D01*
X171130027Y-97916365D01*
X170983635Y-97769973D01*
X170868616Y-97597835D01*
X170834850Y-97516316D01*
X170789389Y-97406564D01*
X170749000Y-97203516D01*
X170749000Y-96996484D01*
X170789389Y-96793436D01*
X170868615Y-96602167D01*
X170907498Y-96543975D01*
X170983635Y-96430027D01*
X171130027Y-96283635D01*
X171302165Y-96168616D01*
X171302167Y-96168615D01*
X171493436Y-96089389D01*
X171696484Y-96049000D01*
X171903516Y-96049000D01*
X172106564Y-96089389D01*
X172106564Y-96089389D01*
G37*
G36*
X153346474Y-93583684D02*
G01*
X153414786Y-93611980D01*
X153718623Y-93737833D01*
X154053548Y-93961623D01*
X154338377Y-94246452D01*
X154562167Y-94581377D01*
X154594562Y-94659586D01*
X154716316Y-94953526D01*
X154794900Y-95348594D01*
X154794900Y-95751406D01*
X154716316Y-96146474D01*
X154665451Y-96269272D01*
X154562167Y-96518623D01*
X154338377Y-96853548D01*
X154053548Y-97138377D01*
X153718623Y-97362167D01*
X153611436Y-97406565D01*
X153346474Y-97516316D01*
X152951406Y-97594900D01*
X152548594Y-97594900D01*
X152153526Y-97516316D01*
X151888564Y-97406565D01*
X151781377Y-97362167D01*
X151446452Y-97138377D01*
X151161623Y-96853548D01*
X150937833Y-96518623D01*
X150834549Y-96269272D01*
X150783684Y-96146474D01*
X150705100Y-95751406D01*
X150705100Y-95348594D01*
X150783684Y-94953526D01*
X150905438Y-94659586D01*
X150937833Y-94581377D01*
X151161623Y-94246452D01*
X151446452Y-93961623D01*
X151781377Y-93737833D01*
X152085214Y-93611980D01*
X152153526Y-93583684D01*
X152548594Y-93505100D01*
X152951406Y-93505100D01*
X153346474Y-93583684D01*
X153346474Y-93583684D01*
G37*
G36*
X98625331Y-93868211D02*
G01*
X98953092Y-94003974D01*
X99248070Y-94201072D01*
X99498928Y-94451930D01*
X99696026Y-94746908D01*
X99831789Y-95074669D01*
X99901000Y-95422616D01*
X99901000Y-95777384D01*
X99831789Y-96125331D01*
X99696026Y-96453092D01*
X99498928Y-96748070D01*
X99248070Y-96998928D01*
X98953092Y-97196026D01*
X98625331Y-97331789D01*
X98277384Y-97401000D01*
X97922616Y-97401000D01*
X97574669Y-97331789D01*
X97246908Y-97196026D01*
X96951930Y-96998928D01*
X96701072Y-96748070D01*
X96503974Y-96453092D01*
X96368211Y-96125331D01*
X96299000Y-95777384D01*
X96299000Y-95422616D01*
X96368211Y-95074669D01*
X96503974Y-94746908D01*
X96701072Y-94451930D01*
X96951930Y-94201072D01*
X97246908Y-94003974D01*
X97574669Y-93868211D01*
X97922616Y-93799000D01*
X98277384Y-93799000D01*
X98625331Y-93868211D01*
X98625331Y-93868211D01*
G37*
G36*
X158100104Y-94659585D02*
G01*
X158268626Y-94729389D01*
X158420291Y-94830728D01*
X158549272Y-94959709D01*
X158650611Y-95111374D01*
X158720415Y-95279896D01*
X158756000Y-95458797D01*
X158756000Y-95641203D01*
X158720415Y-95820104D01*
X158650611Y-95988626D01*
X158549272Y-96140291D01*
X158420291Y-96269272D01*
X158268626Y-96370611D01*
X158100104Y-96440415D01*
X157921203Y-96476000D01*
X157738797Y-96476000D01*
X157559896Y-96440415D01*
X157391374Y-96370611D01*
X157239709Y-96269272D01*
X157110728Y-96140291D01*
X157009389Y-95988626D01*
X156939585Y-95820104D01*
X156904000Y-95641203D01*
X156904000Y-95458797D01*
X156939585Y-95279896D01*
X157009389Y-95111374D01*
X157110728Y-94959709D01*
X157239709Y-94830728D01*
X157391374Y-94729389D01*
X157559896Y-94659585D01*
X157738797Y-94624000D01*
X157921203Y-94624000D01*
X158100104Y-94659585D01*
X158100104Y-94659585D01*
G37*
G36*
X149465331Y-91278211D02*
G01*
X149793092Y-91413974D01*
X150088070Y-91611072D01*
X150338928Y-91861930D01*
X150536026Y-92156908D01*
X150671789Y-92484669D01*
X150741000Y-92832616D01*
X150741000Y-93187384D01*
X150671789Y-93535331D01*
X150536026Y-93863092D01*
X150338928Y-94158070D01*
X150088070Y-94408928D01*
X149793092Y-94606026D01*
X149465331Y-94741789D01*
X149117384Y-94811000D01*
X148762616Y-94811000D01*
X148513425Y-94761433D01*
X148489039Y-94759031D01*
X148464653Y-94761433D01*
X148441204Y-94768546D01*
X148419593Y-94780097D01*
X148400651Y-94795642D01*
X148385106Y-94814584D01*
X148373555Y-94836195D01*
X148366442Y-94859644D01*
X148364040Y-94884030D01*
X148366442Y-94908416D01*
X148373555Y-94931865D01*
X148385106Y-94953476D01*
X148389268Y-94959705D01*
X148389272Y-94959709D01*
X148490611Y-95111374D01*
X148560415Y-95279896D01*
X148596000Y-95458797D01*
X148596000Y-95641203D01*
X148560415Y-95820104D01*
X148490611Y-95988626D01*
X148389272Y-96140291D01*
X148260291Y-96269272D01*
X148108626Y-96370611D01*
X147940104Y-96440415D01*
X147761203Y-96476000D01*
X147578797Y-96476000D01*
X147399896Y-96440415D01*
X147231374Y-96370611D01*
X147079709Y-96269272D01*
X146950728Y-96140291D01*
X146849389Y-95988626D01*
X146779585Y-95820104D01*
X146744000Y-95641203D01*
X146744000Y-95458797D01*
X146779585Y-95279896D01*
X146849389Y-95111374D01*
X146950728Y-94959709D01*
X147079709Y-94830728D01*
X147231374Y-94729389D01*
X147399896Y-94659585D01*
X147578797Y-94624000D01*
X147705227Y-94624000D01*
X147729613Y-94621598D01*
X147753062Y-94614485D01*
X147774673Y-94602934D01*
X147793615Y-94587389D01*
X147809160Y-94568447D01*
X147820711Y-94546836D01*
X147827824Y-94523387D01*
X147830226Y-94499001D01*
X147827824Y-94474615D01*
X147820711Y-94451166D01*
X147809160Y-94429555D01*
X147793615Y-94410613D01*
X147541072Y-94158070D01*
X147343974Y-93863092D01*
X147208211Y-93535331D01*
X147139000Y-93187384D01*
X147139000Y-92832616D01*
X147208211Y-92484669D01*
X147343974Y-92156908D01*
X147541072Y-91861930D01*
X147791930Y-91611072D01*
X148086908Y-91413974D01*
X148414669Y-91278211D01*
X148762616Y-91209000D01*
X149117384Y-91209000D01*
X149465331Y-91278211D01*
X149465331Y-91278211D01*
G37*
G36*
X164199500Y-95709500D02*
G01*
X162700500Y-95709500D01*
X162700500Y-94210500D01*
X164199500Y-94210500D01*
X164199500Y-95709500D01*
X164199500Y-95709500D01*
G37*
G36*
X160978025Y-93085199D02*
G01*
X161102221Y-93109902D01*
X161238622Y-93166401D01*
X161361379Y-93248425D01*
X161465775Y-93352821D01*
X161547799Y-93475578D01*
X161604298Y-93611979D01*
X161633100Y-93756781D01*
X161633100Y-93904419D01*
X161604298Y-94049221D01*
X161547799Y-94185622D01*
X161465775Y-94308379D01*
X161361379Y-94412775D01*
X161238622Y-94494799D01*
X161102221Y-94551298D01*
X160978025Y-94576001D01*
X160957420Y-94580100D01*
X160809780Y-94580100D01*
X160789175Y-94576001D01*
X160664979Y-94551298D01*
X160528578Y-94494799D01*
X160405821Y-94412775D01*
X160301425Y-94308379D01*
X160219401Y-94185622D01*
X160162902Y-94049221D01*
X160134100Y-93904419D01*
X160134100Y-93756781D01*
X160162902Y-93611979D01*
X160219401Y-93475578D01*
X160301425Y-93352821D01*
X160405821Y-93248425D01*
X160528578Y-93166401D01*
X160664979Y-93109902D01*
X160789175Y-93085199D01*
X160809780Y-93081100D01*
X160957420Y-93081100D01*
X160978025Y-93085199D01*
X160978025Y-93085199D01*
G37*
G36*
X105606025Y-91669599D02*
G01*
X105730221Y-91694302D01*
X105866622Y-91750801D01*
X105989379Y-91832825D01*
X106093775Y-91937221D01*
X106175799Y-92059978D01*
X106232298Y-92196379D01*
X106261100Y-92341181D01*
X106261100Y-92488819D01*
X106232298Y-92633621D01*
X106175799Y-92770022D01*
X106093775Y-92892779D01*
X105989379Y-92997175D01*
X105866622Y-93079199D01*
X105730221Y-93135698D01*
X105606025Y-93160401D01*
X105585420Y-93164500D01*
X105437780Y-93164500D01*
X105417175Y-93160401D01*
X105292979Y-93135698D01*
X105156578Y-93079199D01*
X105033821Y-92997175D01*
X104929425Y-92892779D01*
X104847401Y-92770022D01*
X104790902Y-92633621D01*
X104762100Y-92488819D01*
X104762100Y-92341181D01*
X104790902Y-92196379D01*
X104847401Y-92059978D01*
X104929425Y-91937221D01*
X105033821Y-91832825D01*
X105156578Y-91750801D01*
X105292979Y-91694302D01*
X105417175Y-91669599D01*
X105437780Y-91665500D01*
X105585420Y-91665500D01*
X105606025Y-91669599D01*
X105606025Y-91669599D01*
G37*
G36*
X115346474Y-89033684D02*
G01*
X115436736Y-89071072D01*
X115718623Y-89187833D01*
X116053548Y-89411623D01*
X116338377Y-89696452D01*
X116562167Y-90031377D01*
X116594562Y-90109586D01*
X116716316Y-90403526D01*
X116794900Y-90798594D01*
X116794900Y-91201406D01*
X116716316Y-91596474D01*
X116652309Y-91751000D01*
X116562167Y-91968623D01*
X116338377Y-92303548D01*
X116053548Y-92588377D01*
X115718623Y-92812167D01*
X115564474Y-92876017D01*
X115346474Y-92966316D01*
X114951406Y-93044900D01*
X114548594Y-93044900D01*
X114153526Y-92966316D01*
X113935526Y-92876017D01*
X113781377Y-92812167D01*
X113446452Y-92588377D01*
X113161623Y-92303548D01*
X112937833Y-91968623D01*
X112847691Y-91751000D01*
X112783684Y-91596474D01*
X112705100Y-91201406D01*
X112705100Y-90798594D01*
X112783684Y-90403526D01*
X112905438Y-90109586D01*
X112937833Y-90031377D01*
X113161623Y-89696452D01*
X113446452Y-89411623D01*
X113781377Y-89187833D01*
X114063264Y-89071072D01*
X114153526Y-89033684D01*
X114548594Y-88955100D01*
X114951406Y-88955100D01*
X115346474Y-89033684D01*
X115346474Y-89033684D01*
G37*
G36*
X155815331Y-88738211D02*
G01*
X156143092Y-88873974D01*
X156438070Y-89071072D01*
X156688928Y-89321930D01*
X156886026Y-89616908D01*
X157021789Y-89944669D01*
X157091000Y-90292616D01*
X157091000Y-90647384D01*
X157021789Y-90995331D01*
X156886026Y-91323092D01*
X156688928Y-91618070D01*
X156438070Y-91868928D01*
X156143092Y-92066026D01*
X155815331Y-92201789D01*
X155467384Y-92271000D01*
X155112616Y-92271000D01*
X154764669Y-92201789D01*
X154436908Y-92066026D01*
X154141930Y-91868928D01*
X153891072Y-91618070D01*
X153693974Y-91323092D01*
X153558211Y-90995331D01*
X153489000Y-90647384D01*
X153489000Y-90292616D01*
X153558211Y-89944669D01*
X153693974Y-89616908D01*
X153891072Y-89321930D01*
X154141930Y-89071072D01*
X154436908Y-88873974D01*
X154764669Y-88738211D01*
X155112616Y-88669000D01*
X155467384Y-88669000D01*
X155815331Y-88738211D01*
X155815331Y-88738211D01*
G37*
G36*
X120100104Y-90109585D02*
G01*
X120268626Y-90179389D01*
X120420291Y-90280728D01*
X120549272Y-90409709D01*
X120650611Y-90561374D01*
X120720415Y-90729896D01*
X120756000Y-90908797D01*
X120756000Y-91091203D01*
X120720415Y-91270104D01*
X120650611Y-91438626D01*
X120549272Y-91590291D01*
X120420291Y-91719272D01*
X120268626Y-91820611D01*
X120100104Y-91890415D01*
X119921203Y-91926000D01*
X119738797Y-91926000D01*
X119559896Y-91890415D01*
X119391374Y-91820611D01*
X119239709Y-91719272D01*
X119110728Y-91590291D01*
X119009389Y-91438626D01*
X118939585Y-91270104D01*
X118904000Y-91091203D01*
X118904000Y-90908797D01*
X118939585Y-90729896D01*
X119009389Y-90561374D01*
X119110728Y-90409709D01*
X119239709Y-90280728D01*
X119391374Y-90179389D01*
X119559896Y-90109585D01*
X119738797Y-90074000D01*
X119921203Y-90074000D01*
X120100104Y-90109585D01*
X120100104Y-90109585D01*
G37*
G36*
X111465331Y-86728211D02*
G01*
X111793092Y-86863974D01*
X112088070Y-87061072D01*
X112338928Y-87311930D01*
X112536026Y-87606908D01*
X112671789Y-87934669D01*
X112741000Y-88282616D01*
X112741000Y-88637384D01*
X112671789Y-88985331D01*
X112536026Y-89313092D01*
X112338928Y-89608070D01*
X112088070Y-89858928D01*
X111793092Y-90056026D01*
X111465331Y-90191789D01*
X111117384Y-90261000D01*
X110762616Y-90261000D01*
X110513425Y-90211433D01*
X110489039Y-90209031D01*
X110464653Y-90211433D01*
X110441204Y-90218546D01*
X110419593Y-90230097D01*
X110400651Y-90245642D01*
X110385106Y-90264584D01*
X110373555Y-90286195D01*
X110366442Y-90309644D01*
X110364040Y-90334030D01*
X110366442Y-90358416D01*
X110373555Y-90381865D01*
X110385106Y-90403476D01*
X110389268Y-90409705D01*
X110389272Y-90409709D01*
X110490611Y-90561374D01*
X110560415Y-90729896D01*
X110596000Y-90908797D01*
X110596000Y-91091203D01*
X110560415Y-91270104D01*
X110490611Y-91438626D01*
X110389272Y-91590291D01*
X110260291Y-91719272D01*
X110108626Y-91820611D01*
X109940104Y-91890415D01*
X109761203Y-91926000D01*
X109578797Y-91926000D01*
X109399896Y-91890415D01*
X109231374Y-91820611D01*
X109079709Y-91719272D01*
X108950728Y-91590291D01*
X108849389Y-91438626D01*
X108779585Y-91270104D01*
X108744000Y-91091203D01*
X108744000Y-90908797D01*
X108779585Y-90729896D01*
X108849389Y-90561374D01*
X108950728Y-90409709D01*
X109079709Y-90280728D01*
X109231374Y-90179389D01*
X109399896Y-90109585D01*
X109578797Y-90074000D01*
X109705227Y-90074000D01*
X109729613Y-90071598D01*
X109753062Y-90064485D01*
X109774673Y-90052934D01*
X109793615Y-90037389D01*
X109809160Y-90018447D01*
X109820711Y-89996836D01*
X109827824Y-89973387D01*
X109830226Y-89949001D01*
X109827824Y-89924615D01*
X109820711Y-89901166D01*
X109809160Y-89879555D01*
X109793615Y-89860613D01*
X109541072Y-89608070D01*
X109343974Y-89313092D01*
X109208211Y-88985331D01*
X109139000Y-88637384D01*
X109139000Y-88282616D01*
X109208211Y-87934669D01*
X109343974Y-87606908D01*
X109541072Y-87311930D01*
X109791930Y-87061072D01*
X110086908Y-86863974D01*
X110414669Y-86728211D01*
X110762616Y-86659000D01*
X111117384Y-86659000D01*
X111465331Y-86728211D01*
X111465331Y-86728211D01*
G37*
G36*
X180951000Y-91751000D02*
G01*
X178849000Y-91751000D01*
X178849000Y-88449000D01*
X180951000Y-88449000D01*
X180951000Y-91751000D01*
X180951000Y-91751000D01*
G37*
G36*
X169751000Y-91751000D02*
G01*
X167649000Y-91751000D01*
X167649000Y-88449000D01*
X169751000Y-88449000D01*
X169751000Y-91751000D01*
X169751000Y-91751000D01*
G37*
G36*
X144640500Y-88252500D02*
G01*
X143141500Y-88252500D01*
X143141500Y-86753500D01*
X144640500Y-86753500D01*
X144640500Y-88252500D01*
X144640500Y-88252500D01*
G37*
G36*
X134346474Y-84083684D02*
G01*
X134564474Y-84173983D01*
X134718623Y-84237833D01*
X135053548Y-84461623D01*
X135338377Y-84746452D01*
X135562167Y-85081377D01*
X135594562Y-85159586D01*
X135716316Y-85453526D01*
X135794900Y-85848594D01*
X135794900Y-86251406D01*
X135716316Y-86646474D01*
X135626951Y-86862221D01*
X135562167Y-87018623D01*
X135338377Y-87353548D01*
X135053548Y-87638377D01*
X134718623Y-87862167D01*
X134573750Y-87922175D01*
X134346474Y-88016316D01*
X133951406Y-88094900D01*
X133548594Y-88094900D01*
X133153526Y-88016316D01*
X132926250Y-87922175D01*
X132781377Y-87862167D01*
X132446452Y-87638377D01*
X132161623Y-87353548D01*
X131937833Y-87018623D01*
X131873049Y-86862221D01*
X131783684Y-86646474D01*
X131705100Y-86251406D01*
X131705100Y-85848594D01*
X131783684Y-85453526D01*
X131905438Y-85159586D01*
X131937833Y-85081377D01*
X132161623Y-84746452D01*
X132446452Y-84461623D01*
X132781377Y-84237833D01*
X132935526Y-84173983D01*
X133153526Y-84083684D01*
X133548594Y-84005100D01*
X133951406Y-84005100D01*
X134346474Y-84083684D01*
X134346474Y-84083684D01*
G37*
G36*
X163544425Y-86594599D02*
G01*
X163668621Y-86619302D01*
X163805022Y-86675801D01*
X163927779Y-86757825D01*
X164032175Y-86862221D01*
X164114199Y-86984978D01*
X164170698Y-87121379D01*
X164199500Y-87266181D01*
X164199500Y-87413819D01*
X164170698Y-87558621D01*
X164114199Y-87695022D01*
X164032175Y-87817779D01*
X163927779Y-87922175D01*
X163805022Y-88004199D01*
X163668621Y-88060698D01*
X163544425Y-88085401D01*
X163523820Y-88089500D01*
X163376180Y-88089500D01*
X163355575Y-88085401D01*
X163231379Y-88060698D01*
X163094978Y-88004199D01*
X162972221Y-87922175D01*
X162867825Y-87817779D01*
X162785801Y-87695022D01*
X162729302Y-87558621D01*
X162700500Y-87413819D01*
X162700500Y-87266181D01*
X162729302Y-87121379D01*
X162785801Y-86984978D01*
X162867825Y-86862221D01*
X162972221Y-86757825D01*
X163094978Y-86675801D01*
X163231379Y-86619302D01*
X163355575Y-86594599D01*
X163376180Y-86590500D01*
X163523820Y-86590500D01*
X163544425Y-86594599D01*
X163544425Y-86594599D01*
G37*
G36*
X104799500Y-88059500D02*
G01*
X103300500Y-88059500D01*
X103300500Y-86560500D01*
X104799500Y-86560500D01*
X104799500Y-88059500D01*
X104799500Y-88059500D01*
G37*
G36*
X117815331Y-84188211D02*
G01*
X118143092Y-84323974D01*
X118438070Y-84521072D01*
X118688928Y-84771930D01*
X118886026Y-85066908D01*
X119021789Y-85394669D01*
X119091000Y-85742616D01*
X119091000Y-86097384D01*
X119021789Y-86445331D01*
X118886026Y-86773092D01*
X118688928Y-87068070D01*
X118438070Y-87318928D01*
X118143092Y-87516026D01*
X117815331Y-87651789D01*
X117467384Y-87721000D01*
X117112616Y-87721000D01*
X116764669Y-87651789D01*
X116436908Y-87516026D01*
X116141930Y-87318928D01*
X115891072Y-87068070D01*
X115693974Y-86773092D01*
X115558211Y-86445331D01*
X115489000Y-86097384D01*
X115489000Y-85742616D01*
X115558211Y-85394669D01*
X115693974Y-85066908D01*
X115891072Y-84771930D01*
X116141930Y-84521072D01*
X116436908Y-84323974D01*
X116764669Y-84188211D01*
X117112616Y-84119000D01*
X117467384Y-84119000D01*
X117815331Y-84188211D01*
X117815331Y-84188211D01*
G37*
G36*
X130465331Y-81778211D02*
G01*
X130793092Y-81913974D01*
X131088070Y-82111072D01*
X131338928Y-82361930D01*
X131536026Y-82656908D01*
X131671789Y-82984669D01*
X131741000Y-83332616D01*
X131741000Y-83687384D01*
X131671789Y-84035331D01*
X131536026Y-84363092D01*
X131338928Y-84658070D01*
X131088070Y-84908928D01*
X130793092Y-85106026D01*
X130465331Y-85241789D01*
X130117384Y-85311000D01*
X129762616Y-85311000D01*
X129513425Y-85261433D01*
X129489039Y-85259031D01*
X129464653Y-85261433D01*
X129441204Y-85268546D01*
X129419593Y-85280097D01*
X129400651Y-85295642D01*
X129385106Y-85314584D01*
X129373555Y-85336195D01*
X129366442Y-85359644D01*
X129364040Y-85384030D01*
X129366442Y-85408416D01*
X129373555Y-85431865D01*
X129385106Y-85453476D01*
X129389268Y-85459705D01*
X129389272Y-85459709D01*
X129490611Y-85611374D01*
X129560415Y-85779896D01*
X129596000Y-85958797D01*
X129596000Y-86141203D01*
X129560415Y-86320104D01*
X129490611Y-86488626D01*
X129389272Y-86640291D01*
X129260291Y-86769272D01*
X129108626Y-86870611D01*
X128940104Y-86940415D01*
X128761203Y-86976000D01*
X128578797Y-86976000D01*
X128399896Y-86940415D01*
X128231374Y-86870611D01*
X128079709Y-86769272D01*
X127950728Y-86640291D01*
X127849389Y-86488626D01*
X127779585Y-86320104D01*
X127744000Y-86141203D01*
X127744000Y-85958797D01*
X127779585Y-85779896D01*
X127849389Y-85611374D01*
X127950728Y-85459709D01*
X128079709Y-85330728D01*
X128231374Y-85229389D01*
X128399896Y-85159585D01*
X128578797Y-85124000D01*
X128705227Y-85124000D01*
X128729613Y-85121598D01*
X128753062Y-85114485D01*
X128774673Y-85102934D01*
X128793615Y-85087389D01*
X128809160Y-85068447D01*
X128820711Y-85046836D01*
X128827824Y-85023387D01*
X128830226Y-84999001D01*
X128827824Y-84974615D01*
X128820711Y-84951166D01*
X128809160Y-84929555D01*
X128793615Y-84910613D01*
X128541072Y-84658070D01*
X128343974Y-84363092D01*
X128208211Y-84035331D01*
X128139000Y-83687384D01*
X128139000Y-83332616D01*
X128208211Y-82984669D01*
X128343974Y-82656908D01*
X128541072Y-82361930D01*
X128791930Y-82111072D01*
X129086908Y-81913974D01*
X129414669Y-81778211D01*
X129762616Y-81709000D01*
X130117384Y-81709000D01*
X130465331Y-81778211D01*
X130465331Y-81778211D01*
G37*
G36*
X139100104Y-85159585D02*
G01*
X139268626Y-85229389D01*
X139420291Y-85330728D01*
X139549272Y-85459709D01*
X139650611Y-85611374D01*
X139720415Y-85779896D01*
X139756000Y-85958797D01*
X139756000Y-86141203D01*
X139720415Y-86320104D01*
X139650611Y-86488626D01*
X139549272Y-86640291D01*
X139420291Y-86769272D01*
X139268626Y-86870611D01*
X139100104Y-86940415D01*
X138921203Y-86976000D01*
X138738797Y-86976000D01*
X138559896Y-86940415D01*
X138391374Y-86870611D01*
X138239709Y-86769272D01*
X138110728Y-86640291D01*
X138009389Y-86488626D01*
X137939585Y-86320104D01*
X137904000Y-86141203D01*
X137904000Y-85958797D01*
X137939585Y-85779896D01*
X138009389Y-85611374D01*
X138110728Y-85459709D01*
X138239709Y-85330728D01*
X138391374Y-85229389D01*
X138559896Y-85159585D01*
X138738797Y-85124000D01*
X138921203Y-85124000D01*
X139100104Y-85159585D01*
X139100104Y-85159585D01*
G37*
G36*
X161699500Y-85409500D02*
G01*
X160200500Y-85409500D01*
X160200500Y-83910500D01*
X161699500Y-83910500D01*
X161699500Y-85409500D01*
X161699500Y-85409500D01*
G37*
G36*
X164249500Y-85409500D02*
G01*
X162750500Y-85409500D01*
X162750500Y-83910500D01*
X164249500Y-83910500D01*
X164249500Y-85409500D01*
X164249500Y-85409500D01*
G37*
G36*
X172106564Y-81589389D02*
G01*
X172297833Y-81668615D01*
X172297835Y-81668616D01*
X172469973Y-81783635D01*
X172616365Y-81930027D01*
X172688929Y-82038626D01*
X172731385Y-82102167D01*
X172810611Y-82293436D01*
X172851000Y-82496484D01*
X172851000Y-82703516D01*
X172810611Y-82906564D01*
X172778259Y-82984668D01*
X172731384Y-83097835D01*
X172616365Y-83269973D01*
X172469973Y-83416365D01*
X172297835Y-83531384D01*
X172297834Y-83531385D01*
X172297833Y-83531385D01*
X172106564Y-83610611D01*
X171903516Y-83651000D01*
X171696484Y-83651000D01*
X171493436Y-83610611D01*
X171302167Y-83531385D01*
X171302166Y-83531385D01*
X171302165Y-83531384D01*
X171130027Y-83416365D01*
X170983635Y-83269973D01*
X170868616Y-83097835D01*
X170821741Y-82984668D01*
X170789389Y-82906564D01*
X170749000Y-82703516D01*
X170749000Y-82496484D01*
X170789389Y-82293436D01*
X170868615Y-82102167D01*
X170911072Y-82038626D01*
X170983635Y-81930027D01*
X171130027Y-81783635D01*
X171302165Y-81668616D01*
X171302167Y-81668615D01*
X171493436Y-81589389D01*
X171696484Y-81549000D01*
X171903516Y-81549000D01*
X172106564Y-81589389D01*
X172106564Y-81589389D01*
G37*
G36*
X174606564Y-81589389D02*
G01*
X174797833Y-81668615D01*
X174797835Y-81668616D01*
X174969973Y-81783635D01*
X175116365Y-81930027D01*
X175188929Y-82038626D01*
X175231385Y-82102167D01*
X175310611Y-82293436D01*
X175351000Y-82496484D01*
X175351000Y-82703516D01*
X175310611Y-82906564D01*
X175278259Y-82984668D01*
X175231384Y-83097835D01*
X175116365Y-83269973D01*
X174969973Y-83416365D01*
X174797835Y-83531384D01*
X174797834Y-83531385D01*
X174797833Y-83531385D01*
X174606564Y-83610611D01*
X174403516Y-83651000D01*
X174196484Y-83651000D01*
X173993436Y-83610611D01*
X173802167Y-83531385D01*
X173802166Y-83531385D01*
X173802165Y-83531384D01*
X173630027Y-83416365D01*
X173483635Y-83269973D01*
X173368616Y-83097835D01*
X173321741Y-82984668D01*
X173289389Y-82906564D01*
X173249000Y-82703516D01*
X173249000Y-82496484D01*
X173289389Y-82293436D01*
X173368615Y-82102167D01*
X173411072Y-82038626D01*
X173483635Y-81930027D01*
X173630027Y-81783635D01*
X173802165Y-81668616D01*
X173802167Y-81668615D01*
X173993436Y-81589389D01*
X174196484Y-81549000D01*
X174403516Y-81549000D01*
X174606564Y-81589389D01*
X174606564Y-81589389D01*
G37*
G36*
X177851000Y-83651000D02*
G01*
X175749000Y-83651000D01*
X175749000Y-81549000D01*
X177851000Y-81549000D01*
X177851000Y-83651000D01*
X177851000Y-83651000D01*
G37*
G36*
X96196474Y-79633684D02*
G01*
X96414474Y-79723983D01*
X96568623Y-79787833D01*
X96903548Y-80011623D01*
X97188377Y-80296452D01*
X97412167Y-80631377D01*
X97444562Y-80709586D01*
X97566316Y-81003526D01*
X97644900Y-81398594D01*
X97644900Y-81801406D01*
X97566316Y-82196474D01*
X97515451Y-82319272D01*
X97412167Y-82568623D01*
X97188377Y-82903548D01*
X96903548Y-83188377D01*
X96568623Y-83412167D01*
X96414474Y-83476017D01*
X96196474Y-83566316D01*
X95801406Y-83644900D01*
X95398594Y-83644900D01*
X95003526Y-83566316D01*
X94785526Y-83476017D01*
X94631377Y-83412167D01*
X94296452Y-83188377D01*
X94011623Y-82903548D01*
X93787833Y-82568623D01*
X93684549Y-82319272D01*
X93633684Y-82196474D01*
X93555100Y-81801406D01*
X93555100Y-81398594D01*
X93633684Y-81003526D01*
X93755438Y-80709586D01*
X93787833Y-80631377D01*
X94011623Y-80296452D01*
X94296452Y-80011623D01*
X94631377Y-79787833D01*
X94785526Y-79723983D01*
X95003526Y-79633684D01*
X95398594Y-79555100D01*
X95801406Y-79555100D01*
X96196474Y-79633684D01*
X96196474Y-79633684D01*
G37*
G36*
X136815331Y-79238211D02*
G01*
X137143092Y-79373974D01*
X137438070Y-79571072D01*
X137688928Y-79821930D01*
X137886026Y-80116908D01*
X138021789Y-80444669D01*
X138091000Y-80792616D01*
X138091000Y-81147384D01*
X138021789Y-81495331D01*
X137886026Y-81823092D01*
X137688928Y-82118070D01*
X137438070Y-82368928D01*
X137143092Y-82566026D01*
X136815331Y-82701789D01*
X136467384Y-82771000D01*
X136112616Y-82771000D01*
X135764669Y-82701789D01*
X135436908Y-82566026D01*
X135141930Y-82368928D01*
X134891072Y-82118070D01*
X134693974Y-81823092D01*
X134558211Y-81495331D01*
X134489000Y-81147384D01*
X134489000Y-80792616D01*
X134558211Y-80444669D01*
X134693974Y-80116908D01*
X134891072Y-79821930D01*
X135141930Y-79571072D01*
X135436908Y-79373974D01*
X135764669Y-79238211D01*
X136112616Y-79169000D01*
X136467384Y-79169000D01*
X136815331Y-79238211D01*
X136815331Y-79238211D01*
G37*
G36*
X92315331Y-77328211D02*
G01*
X92643092Y-77463974D01*
X92938070Y-77661072D01*
X93188928Y-77911930D01*
X93386026Y-78206908D01*
X93521789Y-78534669D01*
X93591000Y-78882616D01*
X93591000Y-79237384D01*
X93521789Y-79585331D01*
X93386026Y-79913092D01*
X93188928Y-80208070D01*
X92938070Y-80458928D01*
X92643092Y-80656026D01*
X92315331Y-80791789D01*
X91967384Y-80861000D01*
X91612616Y-80861000D01*
X91363425Y-80811433D01*
X91339039Y-80809031D01*
X91314653Y-80811433D01*
X91291204Y-80818546D01*
X91269593Y-80830097D01*
X91250651Y-80845642D01*
X91235106Y-80864584D01*
X91223555Y-80886195D01*
X91216442Y-80909644D01*
X91214040Y-80934030D01*
X91216442Y-80958416D01*
X91223555Y-80981865D01*
X91235106Y-81003476D01*
X91239268Y-81009705D01*
X91239272Y-81009709D01*
X91340611Y-81161374D01*
X91410415Y-81329896D01*
X91446000Y-81508797D01*
X91446000Y-81691203D01*
X91410415Y-81870104D01*
X91340611Y-82038626D01*
X91239272Y-82190291D01*
X91110291Y-82319272D01*
X90958626Y-82420611D01*
X90790104Y-82490415D01*
X90611203Y-82526000D01*
X90428797Y-82526000D01*
X90249896Y-82490415D01*
X90081374Y-82420611D01*
X89929709Y-82319272D01*
X89800728Y-82190291D01*
X89699389Y-82038626D01*
X89629585Y-81870104D01*
X89594000Y-81691203D01*
X89594000Y-81508797D01*
X89629585Y-81329896D01*
X89699389Y-81161374D01*
X89800728Y-81009709D01*
X89929709Y-80880728D01*
X90081374Y-80779389D01*
X90249896Y-80709585D01*
X90428797Y-80674000D01*
X90555227Y-80674000D01*
X90579613Y-80671598D01*
X90603062Y-80664485D01*
X90624673Y-80652934D01*
X90643615Y-80637389D01*
X90659160Y-80618447D01*
X90670711Y-80596836D01*
X90677824Y-80573387D01*
X90680226Y-80549001D01*
X90677824Y-80524615D01*
X90670711Y-80501166D01*
X90659160Y-80479555D01*
X90643615Y-80460613D01*
X90391072Y-80208070D01*
X90193974Y-79913092D01*
X90058211Y-79585331D01*
X89989000Y-79237384D01*
X89989000Y-78882616D01*
X90058211Y-78534669D01*
X90193974Y-78206908D01*
X90391072Y-77911930D01*
X90641930Y-77661072D01*
X90936908Y-77463974D01*
X91264669Y-77328211D01*
X91612616Y-77259000D01*
X91967384Y-77259000D01*
X92315331Y-77328211D01*
X92315331Y-77328211D01*
G37*
G36*
X100950104Y-80709585D02*
G01*
X101118626Y-80779389D01*
X101270291Y-80880728D01*
X101399272Y-81009709D01*
X101500611Y-81161374D01*
X101570415Y-81329896D01*
X101606000Y-81508797D01*
X101606000Y-81691203D01*
X101570415Y-81870104D01*
X101500611Y-82038626D01*
X101399272Y-82190291D01*
X101270291Y-82319272D01*
X101118626Y-82420611D01*
X100950104Y-82490415D01*
X100771203Y-82526000D01*
X100588797Y-82526000D01*
X100409896Y-82490415D01*
X100241374Y-82420611D01*
X100089709Y-82319272D01*
X99960728Y-82190291D01*
X99859389Y-82038626D01*
X99789585Y-81870104D01*
X99754000Y-81691203D01*
X99754000Y-81508797D01*
X99789585Y-81329896D01*
X99859389Y-81161374D01*
X99960728Y-81009709D01*
X100089709Y-80880728D01*
X100241374Y-80779389D01*
X100409896Y-80709585D01*
X100588797Y-80674000D01*
X100771203Y-80674000D01*
X100950104Y-80709585D01*
X100950104Y-80709585D01*
G37*
G36*
X143985425Y-79137599D02*
G01*
X144109621Y-79162302D01*
X144246022Y-79218801D01*
X144368779Y-79300825D01*
X144473175Y-79405221D01*
X144555199Y-79527978D01*
X144611698Y-79664379D01*
X144640500Y-79809181D01*
X144640500Y-79956819D01*
X144611698Y-80101621D01*
X144555199Y-80238022D01*
X144473175Y-80360779D01*
X144368779Y-80465175D01*
X144246022Y-80547199D01*
X144109621Y-80603698D01*
X143985425Y-80628401D01*
X143964820Y-80632500D01*
X143817180Y-80632500D01*
X143796575Y-80628401D01*
X143672379Y-80603698D01*
X143535978Y-80547199D01*
X143413221Y-80465175D01*
X143308825Y-80360779D01*
X143226801Y-80238022D01*
X143170302Y-80101621D01*
X143141500Y-79956819D01*
X143141500Y-79809181D01*
X143170302Y-79664379D01*
X143226801Y-79527978D01*
X143308825Y-79405221D01*
X143413221Y-79300825D01*
X143535978Y-79218801D01*
X143672379Y-79162302D01*
X143796575Y-79137599D01*
X143817180Y-79133500D01*
X143964820Y-79133500D01*
X143985425Y-79137599D01*
X143985425Y-79137599D01*
G37*
G36*
X123304500Y-80632500D02*
G01*
X121805500Y-80632500D01*
X121805500Y-79133500D01*
X123304500Y-79133500D01*
X123304500Y-80632500D01*
X123304500Y-80632500D01*
G37*
G36*
X104144425Y-78944599D02*
G01*
X104268621Y-78969302D01*
X104405022Y-79025801D01*
X104527779Y-79107825D01*
X104632175Y-79212221D01*
X104714199Y-79334978D01*
X104770698Y-79471379D01*
X104799500Y-79616181D01*
X104799500Y-79763819D01*
X104770698Y-79908621D01*
X104714199Y-80045022D01*
X104632175Y-80167779D01*
X104527779Y-80272175D01*
X104405022Y-80354199D01*
X104268621Y-80410698D01*
X104144425Y-80435401D01*
X104123820Y-80439500D01*
X103976180Y-80439500D01*
X103955575Y-80435401D01*
X103831379Y-80410698D01*
X103694978Y-80354199D01*
X103572221Y-80272175D01*
X103467825Y-80167779D01*
X103385801Y-80045022D01*
X103329302Y-79908621D01*
X103300500Y-79763819D01*
X103300500Y-79616181D01*
X103329302Y-79471379D01*
X103385801Y-79334978D01*
X103467825Y-79212221D01*
X103572221Y-79107825D01*
X103694978Y-79025801D01*
X103831379Y-78969302D01*
X103955575Y-78944599D01*
X103976180Y-78940500D01*
X104123820Y-78940500D01*
X104144425Y-78944599D01*
X104144425Y-78944599D01*
G37*
G36*
X153346474Y-74583684D02*
G01*
X153551515Y-74668615D01*
X153718623Y-74737833D01*
X154053548Y-74961623D01*
X154338377Y-75246452D01*
X154562167Y-75581377D01*
X154612758Y-75703516D01*
X154716316Y-75953526D01*
X154794900Y-76348594D01*
X154794900Y-76751406D01*
X154716316Y-77146474D01*
X154626017Y-77364474D01*
X154562167Y-77518623D01*
X154338377Y-77853548D01*
X154053548Y-78138377D01*
X153718623Y-78362167D01*
X153564474Y-78426017D01*
X153346474Y-78516316D01*
X152951406Y-78594900D01*
X152548594Y-78594900D01*
X152153526Y-78516316D01*
X151935526Y-78426017D01*
X151781377Y-78362167D01*
X151446452Y-78138377D01*
X151161623Y-77853548D01*
X150937833Y-77518623D01*
X150873983Y-77364474D01*
X150783684Y-77146474D01*
X150705100Y-76751406D01*
X150705100Y-76348594D01*
X150783684Y-75953526D01*
X150887242Y-75703516D01*
X150937833Y-75581377D01*
X151161623Y-75246452D01*
X151446452Y-74961623D01*
X151781377Y-74737833D01*
X151948485Y-74668615D01*
X152153526Y-74583684D01*
X152548594Y-74505100D01*
X152951406Y-74505100D01*
X153346474Y-74583684D01*
X153346474Y-74583684D01*
G37*
G36*
X98665331Y-74788211D02*
G01*
X98993092Y-74923974D01*
X99288070Y-75121072D01*
X99538928Y-75371930D01*
X99736026Y-75666908D01*
X99871789Y-75994669D01*
X99941000Y-76342616D01*
X99941000Y-76697384D01*
X99871789Y-77045331D01*
X99736026Y-77373092D01*
X99538928Y-77668070D01*
X99288070Y-77918928D01*
X98993092Y-78116026D01*
X98665331Y-78251789D01*
X98317384Y-78321000D01*
X97962616Y-78321000D01*
X97614669Y-78251789D01*
X97286908Y-78116026D01*
X96991930Y-77918928D01*
X96741072Y-77668070D01*
X96543974Y-77373092D01*
X96408211Y-77045331D01*
X96339000Y-76697384D01*
X96339000Y-76342616D01*
X96408211Y-75994669D01*
X96543974Y-75666908D01*
X96741072Y-75371930D01*
X96991930Y-75121072D01*
X97286908Y-74923974D01*
X97614669Y-74788211D01*
X97962616Y-74719000D01*
X98317384Y-74719000D01*
X98665331Y-74788211D01*
X98665331Y-74788211D01*
G37*
G36*
X163594425Y-76294599D02*
G01*
X163718621Y-76319302D01*
X163855022Y-76375801D01*
X163977779Y-76457825D01*
X164082175Y-76562221D01*
X164164199Y-76684978D01*
X164220698Y-76821379D01*
X164249500Y-76966181D01*
X164249500Y-77113819D01*
X164220698Y-77258621D01*
X164164199Y-77395022D01*
X164082175Y-77517779D01*
X163977779Y-77622175D01*
X163855022Y-77704199D01*
X163718621Y-77760698D01*
X163594425Y-77785401D01*
X163573820Y-77789500D01*
X163426180Y-77789500D01*
X163405575Y-77785401D01*
X163281379Y-77760698D01*
X163144978Y-77704199D01*
X163022221Y-77622175D01*
X162917825Y-77517779D01*
X162835801Y-77395022D01*
X162779302Y-77258621D01*
X162750500Y-77113819D01*
X162750500Y-76966181D01*
X162779302Y-76821379D01*
X162835801Y-76684978D01*
X162917825Y-76562221D01*
X163022221Y-76457825D01*
X163144978Y-76375801D01*
X163281379Y-76319302D01*
X163405575Y-76294599D01*
X163426180Y-76290500D01*
X163573820Y-76290500D01*
X163594425Y-76294599D01*
X163594425Y-76294599D01*
G37*
G36*
X161044425Y-76294599D02*
G01*
X161168621Y-76319302D01*
X161305022Y-76375801D01*
X161427779Y-76457825D01*
X161532175Y-76562221D01*
X161614199Y-76684978D01*
X161670698Y-76821379D01*
X161699500Y-76966181D01*
X161699500Y-77113819D01*
X161670698Y-77258621D01*
X161614199Y-77395022D01*
X161532175Y-77517779D01*
X161427779Y-77622175D01*
X161305022Y-77704199D01*
X161168621Y-77760698D01*
X161044425Y-77785401D01*
X161023820Y-77789500D01*
X160876180Y-77789500D01*
X160855575Y-77785401D01*
X160731379Y-77760698D01*
X160594978Y-77704199D01*
X160472221Y-77622175D01*
X160367825Y-77517779D01*
X160285801Y-77395022D01*
X160229302Y-77258621D01*
X160200500Y-77113819D01*
X160200500Y-76966181D01*
X160229302Y-76821379D01*
X160285801Y-76684978D01*
X160367825Y-76562221D01*
X160472221Y-76457825D01*
X160594978Y-76375801D01*
X160731379Y-76319302D01*
X160855575Y-76294599D01*
X160876180Y-76290500D01*
X161023820Y-76290500D01*
X161044425Y-76294599D01*
X161044425Y-76294599D01*
G37*
G36*
X149465331Y-72278211D02*
G01*
X149793092Y-72413974D01*
X150088070Y-72611072D01*
X150338928Y-72861930D01*
X150536026Y-73156908D01*
X150671789Y-73484669D01*
X150741000Y-73832616D01*
X150741000Y-74187384D01*
X150671789Y-74535331D01*
X150536026Y-74863092D01*
X150338928Y-75158070D01*
X150088070Y-75408928D01*
X149793092Y-75606026D01*
X149465331Y-75741789D01*
X149117384Y-75811000D01*
X148762616Y-75811000D01*
X148513425Y-75761433D01*
X148489039Y-75759031D01*
X148464653Y-75761433D01*
X148441204Y-75768546D01*
X148419593Y-75780097D01*
X148400651Y-75795642D01*
X148385106Y-75814584D01*
X148373555Y-75836195D01*
X148366442Y-75859644D01*
X148364040Y-75884030D01*
X148366442Y-75908416D01*
X148373555Y-75931865D01*
X148385106Y-75953476D01*
X148389268Y-75959705D01*
X148389272Y-75959709D01*
X148490611Y-76111374D01*
X148560415Y-76279896D01*
X148596000Y-76458797D01*
X148596000Y-76641203D01*
X148560415Y-76820104D01*
X148490611Y-76988626D01*
X148389272Y-77140291D01*
X148260291Y-77269272D01*
X148108626Y-77370611D01*
X147940104Y-77440415D01*
X147761203Y-77476000D01*
X147578797Y-77476000D01*
X147399896Y-77440415D01*
X147231374Y-77370611D01*
X147079709Y-77269272D01*
X146950728Y-77140291D01*
X146849389Y-76988626D01*
X146779585Y-76820104D01*
X146744000Y-76641203D01*
X146744000Y-76458797D01*
X146779585Y-76279896D01*
X146849389Y-76111374D01*
X146950728Y-75959709D01*
X147079709Y-75830728D01*
X147231374Y-75729389D01*
X147399896Y-75659585D01*
X147578797Y-75624000D01*
X147705227Y-75624000D01*
X147729613Y-75621598D01*
X147753062Y-75614485D01*
X147774673Y-75602934D01*
X147793615Y-75587389D01*
X147809160Y-75568447D01*
X147820711Y-75546836D01*
X147827824Y-75523387D01*
X147830226Y-75499001D01*
X147827824Y-75474615D01*
X147820711Y-75451166D01*
X147809160Y-75429555D01*
X147793615Y-75410613D01*
X147541072Y-75158070D01*
X147343974Y-74863092D01*
X147208211Y-74535331D01*
X147139000Y-74187384D01*
X147139000Y-73832616D01*
X147208211Y-73484669D01*
X147343974Y-73156908D01*
X147541072Y-72861930D01*
X147791930Y-72611072D01*
X148086908Y-72413974D01*
X148414669Y-72278211D01*
X148762616Y-72209000D01*
X149117384Y-72209000D01*
X149465331Y-72278211D01*
X149465331Y-72278211D01*
G37*
G36*
X158100104Y-75659585D02*
G01*
X158268626Y-75729389D01*
X158420291Y-75830728D01*
X158549272Y-75959709D01*
X158650611Y-76111374D01*
X158720415Y-76279896D01*
X158756000Y-76458797D01*
X158756000Y-76641203D01*
X158720415Y-76820104D01*
X158650611Y-76988626D01*
X158549272Y-77140291D01*
X158420291Y-77269272D01*
X158268626Y-77370611D01*
X158100104Y-77440415D01*
X157921203Y-77476000D01*
X157738797Y-77476000D01*
X157559896Y-77440415D01*
X157391374Y-77370611D01*
X157239709Y-77269272D01*
X157110728Y-77140291D01*
X157009389Y-76988626D01*
X156939585Y-76820104D01*
X156904000Y-76641203D01*
X156904000Y-76458797D01*
X156939585Y-76279896D01*
X157009389Y-76111374D01*
X157110728Y-75959709D01*
X157239709Y-75830728D01*
X157391374Y-75729389D01*
X157559896Y-75659585D01*
X157738797Y-75624000D01*
X157921203Y-75624000D01*
X158100104Y-75659585D01*
X158100104Y-75659585D01*
G37*
G36*
X125590500Y-77203500D02*
G01*
X124091500Y-77203500D01*
X124091500Y-75704500D01*
X125590500Y-75704500D01*
X125590500Y-77203500D01*
X125590500Y-77203500D01*
G37*
G36*
X177206564Y-74589389D02*
G01*
X177397833Y-74668615D01*
X177397835Y-74668616D01*
X177569973Y-74783635D01*
X177716365Y-74930027D01*
X177831385Y-75102167D01*
X177910611Y-75293436D01*
X177951000Y-75496484D01*
X177951000Y-75703516D01*
X177910611Y-75906564D01*
X177831385Y-76097833D01*
X177831384Y-76097835D01*
X177716365Y-76269973D01*
X177569973Y-76416365D01*
X177397835Y-76531384D01*
X177397834Y-76531385D01*
X177397833Y-76531385D01*
X177206564Y-76610611D01*
X177003516Y-76651000D01*
X176796484Y-76651000D01*
X176593436Y-76610611D01*
X176402167Y-76531385D01*
X176402166Y-76531385D01*
X176402165Y-76531384D01*
X176230027Y-76416365D01*
X176083635Y-76269973D01*
X175968616Y-76097835D01*
X175968615Y-76097833D01*
X175889389Y-75906564D01*
X175849000Y-75703516D01*
X175849000Y-75496484D01*
X175889389Y-75293436D01*
X175968615Y-75102167D01*
X176083635Y-74930027D01*
X176230027Y-74783635D01*
X176402165Y-74668616D01*
X176402167Y-74668615D01*
X176593436Y-74589389D01*
X176796484Y-74549000D01*
X177003516Y-74549000D01*
X177206564Y-74589389D01*
X177206564Y-74589389D01*
G37*
G36*
X172206564Y-74589389D02*
G01*
X172397833Y-74668615D01*
X172397835Y-74668616D01*
X172569973Y-74783635D01*
X172716365Y-74930027D01*
X172831385Y-75102167D01*
X172910611Y-75293436D01*
X172951000Y-75496484D01*
X172951000Y-75703516D01*
X172910611Y-75906564D01*
X172831385Y-76097833D01*
X172831384Y-76097835D01*
X172716365Y-76269973D01*
X172569973Y-76416365D01*
X172397835Y-76531384D01*
X172397834Y-76531385D01*
X172397833Y-76531385D01*
X172206564Y-76610611D01*
X172003516Y-76651000D01*
X171796484Y-76651000D01*
X171593436Y-76610611D01*
X171402167Y-76531385D01*
X171402166Y-76531385D01*
X171402165Y-76531384D01*
X171230027Y-76416365D01*
X171083635Y-76269973D01*
X170968616Y-76097835D01*
X170968615Y-76097833D01*
X170889389Y-75906564D01*
X170849000Y-75703516D01*
X170849000Y-75496484D01*
X170889389Y-75293436D01*
X170968615Y-75102167D01*
X171083635Y-74930027D01*
X171230027Y-74783635D01*
X171402165Y-74668616D01*
X171402167Y-74668615D01*
X171593436Y-74589389D01*
X171796484Y-74549000D01*
X172003516Y-74549000D01*
X172206564Y-74589389D01*
X172206564Y-74589389D01*
G37*
G36*
X142699500Y-76009500D02*
G01*
X141200500Y-76009500D01*
X141200500Y-74510500D01*
X142699500Y-74510500D01*
X142699500Y-76009500D01*
X142699500Y-76009500D01*
G37*
G36*
X115396474Y-70133684D02*
G01*
X115614474Y-70223983D01*
X115768623Y-70287833D01*
X116103548Y-70511623D01*
X116388377Y-70796452D01*
X116612167Y-71131377D01*
X116644562Y-71209586D01*
X116766316Y-71503526D01*
X116844900Y-71898594D01*
X116844900Y-72301406D01*
X116766316Y-72696474D01*
X116715451Y-72819272D01*
X116612167Y-73068623D01*
X116388377Y-73403548D01*
X116103548Y-73688377D01*
X115768623Y-73912167D01*
X115614474Y-73976017D01*
X115396474Y-74066316D01*
X115001406Y-74144900D01*
X114598594Y-74144900D01*
X114203526Y-74066316D01*
X113985526Y-73976017D01*
X113831377Y-73912167D01*
X113496452Y-73688377D01*
X113211623Y-73403548D01*
X112987833Y-73068623D01*
X112884549Y-72819272D01*
X112833684Y-72696474D01*
X112755100Y-72301406D01*
X112755100Y-71898594D01*
X112833684Y-71503526D01*
X112955438Y-71209586D01*
X112987833Y-71131377D01*
X113211623Y-70796452D01*
X113496452Y-70511623D01*
X113831377Y-70287833D01*
X113985526Y-70223983D01*
X114203526Y-70133684D01*
X114598594Y-70055100D01*
X115001406Y-70055100D01*
X115396474Y-70133684D01*
X115396474Y-70133684D01*
G37*
G36*
X155815331Y-69738211D02*
G01*
X156143092Y-69873974D01*
X156438070Y-70071072D01*
X156688928Y-70321930D01*
X156886026Y-70616908D01*
X157021789Y-70944669D01*
X157091000Y-71292616D01*
X157091000Y-71647384D01*
X157021789Y-71995331D01*
X156886026Y-72323092D01*
X156688928Y-72618070D01*
X156438070Y-72868928D01*
X156143092Y-73066026D01*
X155815331Y-73201789D01*
X155467384Y-73271000D01*
X155112616Y-73271000D01*
X154764669Y-73201789D01*
X154436908Y-73066026D01*
X154141930Y-72868928D01*
X153891072Y-72618070D01*
X153693974Y-72323092D01*
X153558211Y-71995331D01*
X153489000Y-71647384D01*
X153489000Y-71292616D01*
X153558211Y-70944669D01*
X153693974Y-70616908D01*
X153891072Y-70321930D01*
X154141930Y-70071072D01*
X154436908Y-69873974D01*
X154764669Y-69738211D01*
X155112616Y-69669000D01*
X155467384Y-69669000D01*
X155815331Y-69738211D01*
X155815331Y-69738211D01*
G37*
G36*
X120150104Y-71209585D02*
G01*
X120318626Y-71279389D01*
X120470291Y-71380728D01*
X120599272Y-71509709D01*
X120700611Y-71661374D01*
X120770415Y-71829896D01*
X120806000Y-72008797D01*
X120806000Y-72191203D01*
X120770415Y-72370104D01*
X120700611Y-72538626D01*
X120599272Y-72690291D01*
X120470291Y-72819272D01*
X120318626Y-72920611D01*
X120150104Y-72990415D01*
X119971203Y-73026000D01*
X119788797Y-73026000D01*
X119609896Y-72990415D01*
X119441374Y-72920611D01*
X119289709Y-72819272D01*
X119160728Y-72690291D01*
X119059389Y-72538626D01*
X118989585Y-72370104D01*
X118954000Y-72191203D01*
X118954000Y-72008797D01*
X118989585Y-71829896D01*
X119059389Y-71661374D01*
X119160728Y-71509709D01*
X119289709Y-71380728D01*
X119441374Y-71279389D01*
X119609896Y-71209585D01*
X119788797Y-71174000D01*
X119971203Y-71174000D01*
X120150104Y-71209585D01*
X120150104Y-71209585D01*
G37*
G36*
X111515331Y-67828211D02*
G01*
X111843092Y-67963974D01*
X112138070Y-68161072D01*
X112388928Y-68411930D01*
X112586026Y-68706908D01*
X112721789Y-69034669D01*
X112791000Y-69382616D01*
X112791000Y-69737384D01*
X112721789Y-70085331D01*
X112586026Y-70413092D01*
X112388928Y-70708070D01*
X112138070Y-70958928D01*
X111843092Y-71156026D01*
X111515331Y-71291789D01*
X111167384Y-71361000D01*
X110812616Y-71361000D01*
X110563425Y-71311433D01*
X110539039Y-71309031D01*
X110514653Y-71311433D01*
X110491204Y-71318546D01*
X110469593Y-71330097D01*
X110450651Y-71345642D01*
X110435106Y-71364584D01*
X110423555Y-71386195D01*
X110416442Y-71409644D01*
X110414040Y-71434030D01*
X110416442Y-71458416D01*
X110423555Y-71481865D01*
X110435106Y-71503476D01*
X110439268Y-71509705D01*
X110439272Y-71509709D01*
X110540611Y-71661374D01*
X110610415Y-71829896D01*
X110646000Y-72008797D01*
X110646000Y-72191203D01*
X110610415Y-72370104D01*
X110540611Y-72538626D01*
X110439272Y-72690291D01*
X110310291Y-72819272D01*
X110158626Y-72920611D01*
X109990104Y-72990415D01*
X109811203Y-73026000D01*
X109628797Y-73026000D01*
X109449896Y-72990415D01*
X109281374Y-72920611D01*
X109129709Y-72819272D01*
X109000728Y-72690291D01*
X108899389Y-72538626D01*
X108829585Y-72370104D01*
X108794000Y-72191203D01*
X108794000Y-72008797D01*
X108829585Y-71829896D01*
X108899389Y-71661374D01*
X109000728Y-71509709D01*
X109129709Y-71380728D01*
X109281374Y-71279389D01*
X109449896Y-71209585D01*
X109628797Y-71174000D01*
X109755227Y-71174000D01*
X109779613Y-71171598D01*
X109803062Y-71164485D01*
X109824673Y-71152934D01*
X109843615Y-71137389D01*
X109859160Y-71118447D01*
X109870711Y-71096836D01*
X109877824Y-71073387D01*
X109880226Y-71049001D01*
X109877824Y-71024615D01*
X109870711Y-71001166D01*
X109859160Y-70979555D01*
X109843615Y-70960613D01*
X109591072Y-70708070D01*
X109393974Y-70413092D01*
X109258211Y-70085331D01*
X109189000Y-69737384D01*
X109189000Y-69382616D01*
X109258211Y-69034669D01*
X109393974Y-68706908D01*
X109591072Y-68411930D01*
X109841930Y-68161072D01*
X110136908Y-67963974D01*
X110464669Y-67828211D01*
X110812616Y-67759000D01*
X111167384Y-67759000D01*
X111515331Y-67828211D01*
X111515331Y-67828211D01*
G37*
G36*
X122649425Y-71517599D02*
G01*
X122773621Y-71542302D01*
X122910022Y-71598801D01*
X123032779Y-71680825D01*
X123137175Y-71785221D01*
X123219199Y-71907978D01*
X123275698Y-72044379D01*
X123304500Y-72189181D01*
X123304500Y-72336819D01*
X123275698Y-72481621D01*
X123219199Y-72618022D01*
X123137175Y-72740779D01*
X123032779Y-72845175D01*
X122910022Y-72927199D01*
X122773621Y-72983698D01*
X122649425Y-73008401D01*
X122628820Y-73012500D01*
X122481180Y-73012500D01*
X122460575Y-73008401D01*
X122336379Y-72983698D01*
X122199978Y-72927199D01*
X122077221Y-72845175D01*
X121972825Y-72740779D01*
X121890801Y-72618022D01*
X121834302Y-72481621D01*
X121805500Y-72336819D01*
X121805500Y-72189181D01*
X121834302Y-72044379D01*
X121890801Y-71907978D01*
X121972825Y-71785221D01*
X122077221Y-71680825D01*
X122199978Y-71598801D01*
X122336379Y-71542302D01*
X122460575Y-71517599D01*
X122481180Y-71513500D01*
X122628820Y-71513500D01*
X122649425Y-71517599D01*
X122649425Y-71517599D01*
G37*
G36*
X164866336Y-68818827D02*
G01*
X165001639Y-68845740D01*
X165383997Y-69004118D01*
X165456585Y-69052620D01*
X165728109Y-69234046D01*
X166020754Y-69526691D01*
X166076143Y-69609587D01*
X166184951Y-69772429D01*
X166250683Y-69870805D01*
X166283810Y-69950781D01*
X166408165Y-70251000D01*
X166409060Y-70253162D01*
X166489800Y-70659068D01*
X166489800Y-71072932D01*
X166471589Y-71164485D01*
X166409060Y-71478839D01*
X166250682Y-71861197D01*
X166020753Y-72205310D01*
X165728110Y-72497953D01*
X165383997Y-72727882D01*
X165001639Y-72886260D01*
X164866336Y-72913173D01*
X164595732Y-72967000D01*
X164181868Y-72967000D01*
X163911264Y-72913173D01*
X163775961Y-72886260D01*
X163393603Y-72727882D01*
X163049490Y-72497953D01*
X162756847Y-72205310D01*
X162526918Y-71861197D01*
X162368540Y-71478839D01*
X162306011Y-71164485D01*
X162287800Y-71072932D01*
X162287800Y-70659068D01*
X162368540Y-70253162D01*
X162369436Y-70251000D01*
X162493790Y-69950781D01*
X162526917Y-69870805D01*
X162592650Y-69772429D01*
X162701457Y-69609587D01*
X162756846Y-69526691D01*
X163049491Y-69234046D01*
X163321015Y-69052620D01*
X163393603Y-69004118D01*
X163775961Y-68845740D01*
X163911264Y-68818827D01*
X164181868Y-68765000D01*
X164595732Y-68765000D01*
X164866336Y-68818827D01*
X164866336Y-68818827D01*
G37*
G36*
X103347536Y-68818827D02*
G01*
X103482839Y-68845740D01*
X103865197Y-69004118D01*
X103937785Y-69052620D01*
X104209309Y-69234046D01*
X104501954Y-69526691D01*
X104557343Y-69609587D01*
X104666151Y-69772429D01*
X104731883Y-69870805D01*
X104765010Y-69950781D01*
X104889365Y-70251000D01*
X104890260Y-70253162D01*
X104971000Y-70659068D01*
X104971000Y-71072932D01*
X104952789Y-71164485D01*
X104890260Y-71478839D01*
X104731882Y-71861197D01*
X104501953Y-72205310D01*
X104209310Y-72497953D01*
X103865197Y-72727882D01*
X103482839Y-72886260D01*
X103347536Y-72913173D01*
X103076932Y-72967000D01*
X102663068Y-72967000D01*
X102392464Y-72913173D01*
X102257161Y-72886260D01*
X101874803Y-72727882D01*
X101530690Y-72497953D01*
X101238047Y-72205310D01*
X101008118Y-71861197D01*
X100849740Y-71478839D01*
X100787211Y-71164485D01*
X100769000Y-71072932D01*
X100769000Y-70659068D01*
X100849740Y-70253162D01*
X100850636Y-70251000D01*
X100974990Y-69950781D01*
X101008117Y-69870805D01*
X101073850Y-69772429D01*
X101182657Y-69609587D01*
X101238046Y-69526691D01*
X101530691Y-69234046D01*
X101802215Y-69052620D01*
X101874803Y-69004118D01*
X102257161Y-68845740D01*
X102392464Y-68818827D01*
X102663068Y-68765000D01*
X103076932Y-68765000D01*
X103347536Y-68818827D01*
X103347536Y-68818827D01*
G37*
G36*
X88439115Y-69856858D02*
G01*
X88495542Y-69873975D01*
X88550335Y-69890596D01*
X88557122Y-69892655D01*
X88665868Y-69950781D01*
X88761190Y-70029010D01*
X88839419Y-70124332D01*
X88897545Y-70233078D01*
X88933342Y-70351085D01*
X88945428Y-70473800D01*
X88933342Y-70596515D01*
X88897545Y-70714522D01*
X88839419Y-70823268D01*
X88761190Y-70918590D01*
X88665868Y-70996819D01*
X88557122Y-71054945D01*
X88439115Y-71090742D01*
X88347146Y-71099800D01*
X87635654Y-71099800D01*
X87543685Y-71090742D01*
X87425678Y-71054945D01*
X87316932Y-70996819D01*
X87221610Y-70918590D01*
X87143381Y-70823268D01*
X87085255Y-70714522D01*
X87049458Y-70596515D01*
X87037372Y-70473800D01*
X87049458Y-70351085D01*
X87085255Y-70233078D01*
X87143381Y-70124332D01*
X87221610Y-70029010D01*
X87316932Y-69950781D01*
X87425678Y-69892655D01*
X87432466Y-69890596D01*
X87487258Y-69873975D01*
X87543685Y-69856858D01*
X87635654Y-69847800D01*
X88347146Y-69847800D01*
X88439115Y-69856858D01*
X88439115Y-69856858D01*
G37*
G36*
X90829810Y-68654325D02*
G01*
X90914826Y-68680114D01*
X90993175Y-68721993D01*
X91061849Y-68778351D01*
X91118207Y-68847025D01*
X91160086Y-68925374D01*
X91185875Y-69010390D01*
X91194582Y-69098800D01*
X91185875Y-69187210D01*
X91160086Y-69272226D01*
X91118207Y-69350575D01*
X91069251Y-69410228D01*
X91055638Y-69430602D01*
X91046260Y-69453241D01*
X91041480Y-69477274D01*
X91041480Y-69501778D01*
X91046261Y-69525812D01*
X91055638Y-69548450D01*
X91069252Y-69568825D01*
X91086579Y-69586152D01*
X91106953Y-69599765D01*
X91129592Y-69609143D01*
X91153625Y-69613923D01*
X91178129Y-69613923D01*
X91202163Y-69609142D01*
X91210616Y-69605641D01*
X91364279Y-69559028D01*
X91478282Y-69547800D01*
X92104518Y-69547800D01*
X92218521Y-69559028D01*
X92348071Y-69598327D01*
X92352813Y-69599765D01*
X92364802Y-69603402D01*
X92499604Y-69675455D01*
X92499607Y-69675457D01*
X92499608Y-69675458D01*
X92617769Y-69772431D01*
X92701105Y-69873975D01*
X92714745Y-69890596D01*
X92786798Y-70025398D01*
X92831172Y-70171679D01*
X92846154Y-70323800D01*
X92831172Y-70475921D01*
X92786798Y-70622202D01*
X92714745Y-70757004D01*
X92714743Y-70757007D01*
X92714742Y-70757008D01*
X92617769Y-70875169D01*
X92533084Y-70944669D01*
X92499604Y-70972145D01*
X92364802Y-71044198D01*
X92218521Y-71088572D01*
X92104518Y-71099800D01*
X91478282Y-71099800D01*
X91364279Y-71088572D01*
X91217998Y-71044198D01*
X91083196Y-70972145D01*
X91049717Y-70944669D01*
X90965031Y-70875169D01*
X90868058Y-70757008D01*
X90868057Y-70757007D01*
X90868055Y-70757004D01*
X90796002Y-70622202D01*
X90751628Y-70475921D01*
X90736646Y-70323800D01*
X90751628Y-70171679D01*
X90796002Y-70025398D01*
X90868055Y-69890596D01*
X90868058Y-69890592D01*
X90965031Y-69772431D01*
X91001505Y-69742497D01*
X91018832Y-69725170D01*
X91032446Y-69704796D01*
X91041823Y-69682157D01*
X91046604Y-69658124D01*
X91046604Y-69633620D01*
X91041824Y-69609587D01*
X91032447Y-69586948D01*
X91018833Y-69566573D01*
X91001506Y-69549246D01*
X90981132Y-69535632D01*
X90958493Y-69526255D01*
X90934460Y-69521474D01*
X90909956Y-69521474D01*
X90885923Y-69526254D01*
X90829812Y-69543275D01*
X90763558Y-69549800D01*
X90719242Y-69549800D01*
X90652990Y-69543275D01*
X90567974Y-69517486D01*
X90489625Y-69475607D01*
X90420951Y-69419249D01*
X90364593Y-69350575D01*
X90322714Y-69272226D01*
X90296925Y-69187210D01*
X90288218Y-69098800D01*
X90296925Y-69010390D01*
X90322714Y-68925374D01*
X90364593Y-68847025D01*
X90420951Y-68778351D01*
X90489625Y-68721993D01*
X90567974Y-68680114D01*
X90652990Y-68654325D01*
X90719242Y-68647800D01*
X90763558Y-68647800D01*
X90829810Y-68654325D01*
X90829810Y-68654325D01*
G37*
G36*
X181051000Y-70251000D02*
G01*
X178949000Y-70251000D01*
X178949000Y-66949000D01*
X181051000Y-66949000D01*
X181051000Y-70251000D01*
X181051000Y-70251000D01*
G37*
G36*
X169851000Y-70251000D02*
G01*
X167749000Y-70251000D01*
X167749000Y-66949000D01*
X169851000Y-66949000D01*
X169851000Y-70251000D01*
X169851000Y-70251000D01*
G37*
G36*
X124935425Y-68088599D02*
G01*
X125059621Y-68113302D01*
X125196022Y-68169801D01*
X125318779Y-68251825D01*
X125423175Y-68356221D01*
X125505199Y-68478978D01*
X125561698Y-68615379D01*
X125590500Y-68760181D01*
X125590500Y-68907819D01*
X125561698Y-69052621D01*
X125505199Y-69189022D01*
X125423175Y-69311779D01*
X125318779Y-69416175D01*
X125196022Y-69498199D01*
X125059621Y-69554698D01*
X124935425Y-69579401D01*
X124914820Y-69583500D01*
X124767180Y-69583500D01*
X124746575Y-69579401D01*
X124622379Y-69554698D01*
X124485978Y-69498199D01*
X124363221Y-69416175D01*
X124258825Y-69311779D01*
X124176801Y-69189022D01*
X124120302Y-69052621D01*
X124091500Y-68907819D01*
X124091500Y-68760181D01*
X124120302Y-68615379D01*
X124176801Y-68478978D01*
X124258825Y-68356221D01*
X124363221Y-68251825D01*
X124485978Y-68169801D01*
X124622379Y-68113302D01*
X124746575Y-68088599D01*
X124767180Y-68084500D01*
X124914820Y-68084500D01*
X124935425Y-68088599D01*
X124935425Y-68088599D01*
G37*
G36*
X134296474Y-65083684D02*
G01*
X134514474Y-65173983D01*
X134668623Y-65237833D01*
X135003548Y-65461623D01*
X135288377Y-65746452D01*
X135512167Y-66081377D01*
X135547595Y-66166908D01*
X135666316Y-66453526D01*
X135744900Y-66848594D01*
X135744900Y-67251406D01*
X135666316Y-67646474D01*
X135578442Y-67858620D01*
X135512167Y-68018623D01*
X135288377Y-68353548D01*
X135003548Y-68638377D01*
X134668623Y-68862167D01*
X134558409Y-68907819D01*
X134296474Y-69016316D01*
X133901406Y-69094900D01*
X133498594Y-69094900D01*
X133103526Y-69016316D01*
X132841591Y-68907819D01*
X132731377Y-68862167D01*
X132396452Y-68638377D01*
X132111623Y-68353548D01*
X131887833Y-68018623D01*
X131821558Y-67858620D01*
X131733684Y-67646474D01*
X131655100Y-67251406D01*
X131655100Y-66848594D01*
X131733684Y-66453526D01*
X131852405Y-66166908D01*
X131887833Y-66081377D01*
X132111623Y-65746452D01*
X132396452Y-65461623D01*
X132731377Y-65237833D01*
X132885526Y-65173983D01*
X133103526Y-65083684D01*
X133498594Y-65005100D01*
X133901406Y-65005100D01*
X134296474Y-65083684D01*
X134296474Y-65083684D01*
G37*
G36*
X117865331Y-65288211D02*
G01*
X118193092Y-65423974D01*
X118488070Y-65621072D01*
X118738928Y-65871930D01*
X118936026Y-66166908D01*
X119071789Y-66494669D01*
X119141000Y-66842616D01*
X119141000Y-67197384D01*
X119071789Y-67545331D01*
X118936026Y-67873092D01*
X118738928Y-68168070D01*
X118488070Y-68418928D01*
X118193092Y-68616026D01*
X117865331Y-68751789D01*
X117517384Y-68821000D01*
X117162616Y-68821000D01*
X116814669Y-68751789D01*
X116486908Y-68616026D01*
X116191930Y-68418928D01*
X115941072Y-68168070D01*
X115743974Y-67873092D01*
X115608211Y-67545331D01*
X115539000Y-67197384D01*
X115539000Y-66842616D01*
X115608211Y-66494669D01*
X115743974Y-66166908D01*
X115941072Y-65871930D01*
X116191930Y-65621072D01*
X116486908Y-65423974D01*
X116814669Y-65288211D01*
X117162616Y-65219000D01*
X117517384Y-65219000D01*
X117865331Y-65288211D01*
X117865331Y-65288211D01*
G37*
G36*
X142044425Y-66894599D02*
G01*
X142168621Y-66919302D01*
X142305022Y-66975801D01*
X142427779Y-67057825D01*
X142532175Y-67162221D01*
X142614199Y-67284978D01*
X142670698Y-67421379D01*
X142699500Y-67566181D01*
X142699500Y-67713819D01*
X142670698Y-67858621D01*
X142614199Y-67995022D01*
X142532175Y-68117779D01*
X142427779Y-68222175D01*
X142305022Y-68304199D01*
X142168621Y-68360698D01*
X142044425Y-68385401D01*
X142023820Y-68389500D01*
X141876180Y-68389500D01*
X141855575Y-68385401D01*
X141731379Y-68360698D01*
X141594978Y-68304199D01*
X141472221Y-68222175D01*
X141367825Y-68117779D01*
X141285801Y-67995022D01*
X141229302Y-67858621D01*
X141200500Y-67713819D01*
X141200500Y-67566181D01*
X141229302Y-67421379D01*
X141285801Y-67284978D01*
X141367825Y-67162221D01*
X141472221Y-67057825D01*
X141594978Y-66975801D01*
X141731379Y-66919302D01*
X141855575Y-66894599D01*
X141876180Y-66890500D01*
X142023820Y-66890500D01*
X142044425Y-66894599D01*
X142044425Y-66894599D01*
G37*
G36*
X92542400Y-68174800D02*
G01*
X91140400Y-68174800D01*
X91140400Y-65022800D01*
X92542400Y-65022800D01*
X92542400Y-68174800D01*
X92542400Y-68174800D01*
G37*
G36*
X139050104Y-66159585D02*
G01*
X139218626Y-66229389D01*
X139370291Y-66330728D01*
X139499272Y-66459709D01*
X139600611Y-66611374D01*
X139670415Y-66779896D01*
X139706000Y-66958797D01*
X139706000Y-67141203D01*
X139670415Y-67320104D01*
X139600611Y-67488626D01*
X139499272Y-67640291D01*
X139370291Y-67769272D01*
X139218626Y-67870611D01*
X139050104Y-67940415D01*
X138871203Y-67976000D01*
X138688797Y-67976000D01*
X138509896Y-67940415D01*
X138341374Y-67870611D01*
X138189709Y-67769272D01*
X138060728Y-67640291D01*
X137959389Y-67488626D01*
X137889585Y-67320104D01*
X137854000Y-67141203D01*
X137854000Y-66958797D01*
X137889585Y-66779896D01*
X137959389Y-66611374D01*
X138060728Y-66459709D01*
X138189709Y-66330728D01*
X138341374Y-66229389D01*
X138509896Y-66159585D01*
X138688797Y-66124000D01*
X138871203Y-66124000D01*
X139050104Y-66159585D01*
X139050104Y-66159585D01*
G37*
G36*
X130415331Y-62778211D02*
G01*
X130743092Y-62913974D01*
X131038070Y-63111072D01*
X131288928Y-63361930D01*
X131486026Y-63656908D01*
X131621789Y-63984669D01*
X131691000Y-64332616D01*
X131691000Y-64687384D01*
X131621789Y-65035331D01*
X131486026Y-65363092D01*
X131288928Y-65658070D01*
X131038070Y-65908928D01*
X130743092Y-66106026D01*
X130415331Y-66241789D01*
X130067384Y-66311000D01*
X129712616Y-66311000D01*
X129463425Y-66261433D01*
X129439039Y-66259031D01*
X129414653Y-66261433D01*
X129391204Y-66268546D01*
X129369593Y-66280097D01*
X129350651Y-66295642D01*
X129335106Y-66314584D01*
X129323555Y-66336195D01*
X129316442Y-66359644D01*
X129314040Y-66384030D01*
X129316442Y-66408416D01*
X129323555Y-66431865D01*
X129335106Y-66453476D01*
X129339268Y-66459705D01*
X129339272Y-66459709D01*
X129440611Y-66611374D01*
X129510415Y-66779896D01*
X129546000Y-66958797D01*
X129546000Y-67141203D01*
X129510415Y-67320104D01*
X129440611Y-67488626D01*
X129339272Y-67640291D01*
X129210291Y-67769272D01*
X129058626Y-67870611D01*
X128890104Y-67940415D01*
X128711203Y-67976000D01*
X128528797Y-67976000D01*
X128349896Y-67940415D01*
X128181374Y-67870611D01*
X128029709Y-67769272D01*
X127900728Y-67640291D01*
X127799389Y-67488626D01*
X127729585Y-67320104D01*
X127694000Y-67141203D01*
X127694000Y-66958797D01*
X127729585Y-66779896D01*
X127799389Y-66611374D01*
X127900728Y-66459709D01*
X128029709Y-66330728D01*
X128181374Y-66229389D01*
X128349896Y-66159585D01*
X128528797Y-66124000D01*
X128655227Y-66124000D01*
X128679613Y-66121598D01*
X128703062Y-66114485D01*
X128724673Y-66102934D01*
X128743615Y-66087389D01*
X128759160Y-66068447D01*
X128770711Y-66046836D01*
X128777824Y-66023387D01*
X128780226Y-65999001D01*
X128777824Y-65974615D01*
X128770711Y-65951166D01*
X128759160Y-65929555D01*
X128743615Y-65910613D01*
X128491072Y-65658070D01*
X128293974Y-65363092D01*
X128158211Y-65035331D01*
X128089000Y-64687384D01*
X128089000Y-64332616D01*
X128158211Y-63984669D01*
X128293974Y-63656908D01*
X128491072Y-63361930D01*
X128741930Y-63111072D01*
X129036908Y-62913974D01*
X129364669Y-62778211D01*
X129712616Y-62709000D01*
X130067384Y-62709000D01*
X130415331Y-62778211D01*
X130415331Y-62778211D01*
G37*
G36*
X95815183Y-63977489D02*
G01*
X95815186Y-63977490D01*
X95815185Y-63977490D01*
X95879058Y-64003946D01*
X95936548Y-64042360D01*
X95985440Y-64091252D01*
X96023854Y-64148742D01*
X96032142Y-64168753D01*
X96050311Y-64212617D01*
X96063800Y-64280430D01*
X96063800Y-64349570D01*
X96050311Y-64417383D01*
X96050310Y-64417385D01*
X96023854Y-64481258D01*
X95979046Y-64548317D01*
X95978030Y-64549555D01*
X95966479Y-64571166D01*
X95959366Y-64594615D01*
X95956964Y-64619001D01*
X95959366Y-64643387D01*
X95966479Y-64666836D01*
X95978030Y-64688447D01*
X95993575Y-64707389D01*
X96012517Y-64722934D01*
X96034128Y-64734485D01*
X96057577Y-64741598D01*
X96081963Y-64744000D01*
X101123637Y-64744000D01*
X101148023Y-64741598D01*
X101171472Y-64734485D01*
X101193083Y-64722934D01*
X101212025Y-64707389D01*
X101227570Y-64688447D01*
X101239121Y-64666836D01*
X101246234Y-64643387D01*
X101248636Y-64619001D01*
X101246234Y-64594615D01*
X101239121Y-64571166D01*
X101227570Y-64549555D01*
X101226554Y-64548317D01*
X101181746Y-64481258D01*
X101155290Y-64417385D01*
X101155289Y-64417383D01*
X101141800Y-64349570D01*
X101141800Y-64280430D01*
X101155289Y-64212617D01*
X101173458Y-64168753D01*
X101181746Y-64148742D01*
X101220160Y-64091252D01*
X101269052Y-64042360D01*
X101326542Y-64003946D01*
X101390415Y-63977490D01*
X101390414Y-63977490D01*
X101390417Y-63977489D01*
X101458230Y-63964000D01*
X101527370Y-63964000D01*
X101595183Y-63977489D01*
X101595186Y-63977490D01*
X101595185Y-63977490D01*
X101659058Y-64003946D01*
X101716548Y-64042360D01*
X101765440Y-64091252D01*
X101803854Y-64148742D01*
X101812142Y-64168753D01*
X101830311Y-64212617D01*
X101843800Y-64280430D01*
X101843800Y-64349570D01*
X101830311Y-64417383D01*
X101830310Y-64417385D01*
X101803854Y-64481258D01*
X101759046Y-64548317D01*
X101758030Y-64549555D01*
X101746479Y-64571166D01*
X101739366Y-64594615D01*
X101736964Y-64619001D01*
X101739366Y-64643387D01*
X101746479Y-64666836D01*
X101758030Y-64688447D01*
X101773575Y-64707389D01*
X101792517Y-64722934D01*
X101814128Y-64734485D01*
X101837577Y-64741598D01*
X101861963Y-64744000D01*
X102153800Y-64744000D01*
X102153800Y-66006000D01*
X95051800Y-66006000D01*
X95051800Y-64744000D01*
X95343637Y-64744000D01*
X95368023Y-64741598D01*
X95391472Y-64734485D01*
X95413083Y-64722934D01*
X95432025Y-64707389D01*
X95447570Y-64688447D01*
X95459121Y-64666836D01*
X95466234Y-64643387D01*
X95468636Y-64619001D01*
X95466234Y-64594615D01*
X95459121Y-64571166D01*
X95447570Y-64549555D01*
X95446554Y-64548317D01*
X95401746Y-64481258D01*
X95375290Y-64417385D01*
X95375289Y-64417383D01*
X95361800Y-64349570D01*
X95361800Y-64280430D01*
X95375289Y-64212617D01*
X95393458Y-64168753D01*
X95401746Y-64148742D01*
X95440160Y-64091252D01*
X95489052Y-64042360D01*
X95546542Y-64003946D01*
X95610415Y-63977490D01*
X95610414Y-63977490D01*
X95610417Y-63977489D01*
X95678230Y-63964000D01*
X95747370Y-63964000D01*
X95815183Y-63977489D01*
X95815183Y-63977489D01*
G37*
G36*
X103021013Y-63751249D02*
G01*
X103115452Y-63779897D01*
X103202487Y-63826418D01*
X103278775Y-63889025D01*
X103341382Y-63965313D01*
X103387903Y-64052348D01*
X103416551Y-64146787D01*
X103423800Y-64220388D01*
X103423800Y-65369612D01*
X103416551Y-65443213D01*
X103387903Y-65537652D01*
X103341382Y-65624687D01*
X103278775Y-65700975D01*
X103202487Y-65763582D01*
X103115451Y-65810103D01*
X103021012Y-65838751D01*
X102922800Y-65848424D01*
X102824587Y-65838751D01*
X102730148Y-65810103D01*
X102643113Y-65763582D01*
X102566825Y-65700975D01*
X102504218Y-65624687D01*
X102457697Y-65537651D01*
X102429049Y-65443212D01*
X102421800Y-65369611D01*
X102421801Y-64220388D01*
X102429050Y-64146787D01*
X102457698Y-64052348D01*
X102504219Y-63965313D01*
X102566826Y-63889025D01*
X102643114Y-63826418D01*
X102730149Y-63779897D01*
X102824588Y-63751249D01*
X102922800Y-63741576D01*
X103021013Y-63751249D01*
X103021013Y-63751249D01*
G37*
G36*
X94381013Y-63751249D02*
G01*
X94475452Y-63779897D01*
X94562487Y-63826418D01*
X94638775Y-63889025D01*
X94701382Y-63965313D01*
X94747903Y-64052348D01*
X94776551Y-64146787D01*
X94783800Y-64220388D01*
X94783800Y-65369612D01*
X94776551Y-65443213D01*
X94747903Y-65537652D01*
X94701382Y-65624687D01*
X94638775Y-65700975D01*
X94562487Y-65763582D01*
X94475451Y-65810103D01*
X94381012Y-65838751D01*
X94282800Y-65848424D01*
X94184587Y-65838751D01*
X94090148Y-65810103D01*
X94003113Y-65763582D01*
X93926825Y-65700975D01*
X93864218Y-65624687D01*
X93817697Y-65537651D01*
X93789049Y-65443212D01*
X93781800Y-65369611D01*
X93781801Y-64220388D01*
X93789050Y-64146787D01*
X93817698Y-64052348D01*
X93864219Y-63965313D01*
X93926826Y-63889025D01*
X94003114Y-63826418D01*
X94090149Y-63779897D01*
X94184588Y-63751249D01*
X94282800Y-63741576D01*
X94381013Y-63751249D01*
X94381013Y-63751249D01*
G37*
G36*
X145655999Y-62953737D02*
G01*
X145665608Y-62956652D01*
X145674472Y-62961390D01*
X145682237Y-62967763D01*
X145692448Y-62980206D01*
X145699378Y-62990575D01*
X145716705Y-63007902D01*
X145737080Y-63021515D01*
X145759720Y-63030891D01*
X145783753Y-63035671D01*
X145808257Y-63035670D01*
X145832290Y-63030888D01*
X145854929Y-63021510D01*
X145875302Y-63007895D01*
X145892629Y-62990568D01*
X145899558Y-62980198D01*
X145909763Y-62967763D01*
X145917528Y-62961390D01*
X145926392Y-62956652D01*
X145936001Y-62953737D01*
X145952140Y-62952148D01*
X146439861Y-62952148D01*
X146458199Y-62953954D01*
X146470450Y-62954556D01*
X146488869Y-62954556D01*
X146511149Y-62956750D01*
X146595233Y-62973476D01*
X146616660Y-62979976D01*
X146695858Y-63012780D01*
X146701303Y-63015691D01*
X146701309Y-63015693D01*
X146710169Y-63020429D01*
X146710173Y-63020432D01*
X146715614Y-63023340D01*
X146786899Y-63070971D01*
X146804204Y-63085172D01*
X146864828Y-63145796D01*
X146879029Y-63163101D01*
X146926660Y-63234386D01*
X146929568Y-63239827D01*
X146929571Y-63239831D01*
X146934307Y-63248691D01*
X146934309Y-63248697D01*
X146937220Y-63254142D01*
X146970024Y-63333340D01*
X146976524Y-63354767D01*
X146993250Y-63438851D01*
X146995444Y-63461131D01*
X146995444Y-63479550D01*
X146996046Y-63491801D01*
X146997852Y-63510139D01*
X146997852Y-63997862D01*
X146996046Y-64016199D01*
X146995444Y-64028450D01*
X146995444Y-64046869D01*
X146993250Y-64069149D01*
X146976524Y-64153233D01*
X146970024Y-64174660D01*
X146937220Y-64253858D01*
X146934309Y-64259303D01*
X146934307Y-64259309D01*
X146929571Y-64268169D01*
X146929568Y-64268173D01*
X146926660Y-64273614D01*
X146879029Y-64344899D01*
X146864828Y-64362204D01*
X146804204Y-64422828D01*
X146786899Y-64437029D01*
X146715614Y-64484660D01*
X146710173Y-64487568D01*
X146710169Y-64487571D01*
X146701309Y-64492307D01*
X146701303Y-64492309D01*
X146695858Y-64495220D01*
X146616660Y-64528024D01*
X146595233Y-64534524D01*
X146511149Y-64551250D01*
X146488869Y-64553444D01*
X146470450Y-64553444D01*
X146458199Y-64554046D01*
X146439862Y-64555852D01*
X145952140Y-64555852D01*
X145936001Y-64554263D01*
X145926392Y-64551348D01*
X145917528Y-64546610D01*
X145909763Y-64540237D01*
X145899552Y-64527794D01*
X145892622Y-64517425D01*
X145875295Y-64500098D01*
X145854920Y-64486485D01*
X145832280Y-64477109D01*
X145808247Y-64472329D01*
X145783743Y-64472330D01*
X145759710Y-64477112D01*
X145737071Y-64486490D01*
X145716698Y-64500105D01*
X145699371Y-64517432D01*
X145692442Y-64527802D01*
X145682237Y-64540237D01*
X145674472Y-64546610D01*
X145665608Y-64551348D01*
X145655999Y-64554263D01*
X145639860Y-64555852D01*
X145152138Y-64555852D01*
X145133801Y-64554046D01*
X145121550Y-64553444D01*
X145103131Y-64553444D01*
X145080851Y-64551250D01*
X144996767Y-64534524D01*
X144975340Y-64528024D01*
X144896142Y-64495220D01*
X144890697Y-64492309D01*
X144890691Y-64492307D01*
X144881831Y-64487571D01*
X144881827Y-64487568D01*
X144876386Y-64484660D01*
X144805101Y-64437029D01*
X144787796Y-64422828D01*
X144727172Y-64362204D01*
X144712971Y-64344899D01*
X144665340Y-64273614D01*
X144662432Y-64268173D01*
X144662429Y-64268169D01*
X144657693Y-64259309D01*
X144657691Y-64259303D01*
X144654780Y-64253858D01*
X144621976Y-64174660D01*
X144615476Y-64153233D01*
X144598750Y-64069149D01*
X144596556Y-64046869D01*
X144596556Y-64028450D01*
X144595954Y-64016199D01*
X144594148Y-63997862D01*
X144594148Y-63510139D01*
X144595954Y-63491801D01*
X144596556Y-63479550D01*
X144596556Y-63461131D01*
X144598750Y-63438851D01*
X144615476Y-63354767D01*
X144621976Y-63333340D01*
X144654780Y-63254142D01*
X144657691Y-63248697D01*
X144657693Y-63248691D01*
X144662429Y-63239831D01*
X144662432Y-63239827D01*
X144665340Y-63234386D01*
X144712971Y-63163101D01*
X144727172Y-63145796D01*
X144787796Y-63085172D01*
X144805101Y-63070971D01*
X144876386Y-63023340D01*
X144881827Y-63020432D01*
X144881831Y-63020429D01*
X144890691Y-63015693D01*
X144890697Y-63015691D01*
X144896142Y-63012780D01*
X144975340Y-62979976D01*
X144996767Y-62973476D01*
X145080851Y-62956750D01*
X145103131Y-62954556D01*
X145121550Y-62954556D01*
X145133801Y-62953954D01*
X145152139Y-62952148D01*
X145639860Y-62952148D01*
X145655999Y-62953737D01*
X145655999Y-62953737D01*
G37*
G36*
X92218521Y-62109028D02*
G01*
X92364802Y-62153402D01*
X92499604Y-62225455D01*
X92499607Y-62225457D01*
X92499608Y-62225458D01*
X92617769Y-62322431D01*
X92660363Y-62374331D01*
X92714745Y-62440596D01*
X92786798Y-62575398D01*
X92831172Y-62721679D01*
X92846154Y-62873800D01*
X92831172Y-63025921D01*
X92786798Y-63172202D01*
X92714745Y-63307004D01*
X92714743Y-63307007D01*
X92714742Y-63307008D01*
X92617769Y-63425169D01*
X92507771Y-63515443D01*
X92499604Y-63522145D01*
X92364802Y-63594198D01*
X92218521Y-63638572D01*
X92104518Y-63649800D01*
X91478282Y-63649800D01*
X91364279Y-63638572D01*
X91210610Y-63591957D01*
X91202151Y-63588454D01*
X91178117Y-63583676D01*
X91153613Y-63583678D01*
X91129580Y-63588461D01*
X91106942Y-63597841D01*
X91086569Y-63611456D01*
X91069244Y-63628785D01*
X91055632Y-63649161D01*
X91046257Y-63671800D01*
X91041479Y-63695834D01*
X91041481Y-63720338D01*
X91046264Y-63744371D01*
X91055644Y-63767009D01*
X91069251Y-63787372D01*
X91118207Y-63847025D01*
X91160086Y-63925374D01*
X91185875Y-64010390D01*
X91194582Y-64098800D01*
X91185875Y-64187210D01*
X91160086Y-64272226D01*
X91118207Y-64350575D01*
X91061849Y-64419249D01*
X90993175Y-64475607D01*
X90914826Y-64517486D01*
X90829810Y-64543275D01*
X90763558Y-64549800D01*
X90719242Y-64549800D01*
X90652990Y-64543275D01*
X90567974Y-64517486D01*
X90489625Y-64475607D01*
X90420951Y-64419249D01*
X90364593Y-64350575D01*
X90322714Y-64272226D01*
X90296925Y-64187210D01*
X90288218Y-64098800D01*
X90296925Y-64010390D01*
X90322714Y-63925374D01*
X90364593Y-63847025D01*
X90420951Y-63778351D01*
X90489625Y-63721993D01*
X90567974Y-63680114D01*
X90652990Y-63654325D01*
X90719242Y-63647800D01*
X90763558Y-63647800D01*
X90829812Y-63654325D01*
X90885923Y-63671346D01*
X90909956Y-63676126D01*
X90934460Y-63676126D01*
X90958493Y-63671345D01*
X90981132Y-63661968D01*
X91001506Y-63648354D01*
X91018833Y-63631027D01*
X91032447Y-63610652D01*
X91041824Y-63588013D01*
X91046604Y-63563980D01*
X91046604Y-63539476D01*
X91041823Y-63515443D01*
X91032446Y-63492804D01*
X91018832Y-63472430D01*
X91001505Y-63455103D01*
X90965033Y-63425171D01*
X90902406Y-63348860D01*
X90868058Y-63307008D01*
X90868057Y-63307007D01*
X90868055Y-63307004D01*
X90796002Y-63172202D01*
X90751628Y-63025921D01*
X90736646Y-62873800D01*
X90751628Y-62721679D01*
X90796002Y-62575398D01*
X90868055Y-62440596D01*
X90922438Y-62374331D01*
X90965031Y-62322431D01*
X91083192Y-62225458D01*
X91083193Y-62225457D01*
X91083196Y-62225455D01*
X91217998Y-62153402D01*
X91364279Y-62109028D01*
X91478282Y-62097800D01*
X92104518Y-62097800D01*
X92218521Y-62109028D01*
X92218521Y-62109028D01*
G37*
G36*
X154034442Y-62732518D02*
G01*
X154100627Y-62739037D01*
X154270466Y-62790557D01*
X154426991Y-62874222D01*
X154462729Y-62903552D01*
X154564186Y-62986814D01*
X154636463Y-63074885D01*
X154676778Y-63124009D01*
X154760443Y-63280534D01*
X154811963Y-63450373D01*
X154829359Y-63627000D01*
X154811963Y-63803627D01*
X154760443Y-63973466D01*
X154676778Y-64129991D01*
X154652856Y-64159140D01*
X154564186Y-64267186D01*
X154469491Y-64344899D01*
X154426991Y-64379778D01*
X154270466Y-64463443D01*
X154100627Y-64514963D01*
X154034442Y-64521482D01*
X153968260Y-64528000D01*
X153879740Y-64528000D01*
X153813558Y-64521482D01*
X153747373Y-64514963D01*
X153577534Y-64463443D01*
X153421009Y-64379778D01*
X153378509Y-64344899D01*
X153283814Y-64267186D01*
X153195144Y-64159140D01*
X153171222Y-64129991D01*
X153087557Y-63973466D01*
X153036037Y-63803627D01*
X153018641Y-63627000D01*
X153036037Y-63450373D01*
X153087557Y-63280534D01*
X153171222Y-63124009D01*
X153211537Y-63074885D01*
X153283814Y-62986814D01*
X153385271Y-62903552D01*
X153421009Y-62874222D01*
X153577534Y-62790557D01*
X153747373Y-62739037D01*
X153813558Y-62732518D01*
X153879740Y-62726000D01*
X153968260Y-62726000D01*
X154034442Y-62732518D01*
X154034442Y-62732518D01*
G37*
G36*
X156574442Y-62732518D02*
G01*
X156640627Y-62739037D01*
X156810466Y-62790557D01*
X156966991Y-62874222D01*
X157002729Y-62903552D01*
X157104186Y-62986814D01*
X157176463Y-63074885D01*
X157216778Y-63124009D01*
X157300443Y-63280534D01*
X157351963Y-63450373D01*
X157369359Y-63627000D01*
X157351963Y-63803627D01*
X157300443Y-63973466D01*
X157216778Y-64129991D01*
X157192856Y-64159140D01*
X157104186Y-64267186D01*
X157009491Y-64344899D01*
X156966991Y-64379778D01*
X156810466Y-64463443D01*
X156640627Y-64514963D01*
X156574442Y-64521482D01*
X156508260Y-64528000D01*
X156419740Y-64528000D01*
X156353558Y-64521482D01*
X156287373Y-64514963D01*
X156117534Y-64463443D01*
X155961009Y-64379778D01*
X155918509Y-64344899D01*
X155823814Y-64267186D01*
X155735144Y-64159140D01*
X155711222Y-64129991D01*
X155627557Y-63973466D01*
X155576037Y-63803627D01*
X155558641Y-63627000D01*
X155576037Y-63450373D01*
X155627557Y-63280534D01*
X155711222Y-63124009D01*
X155751537Y-63074885D01*
X155823814Y-62986814D01*
X155925271Y-62903552D01*
X155961009Y-62874222D01*
X156117534Y-62790557D01*
X156287373Y-62739037D01*
X156353558Y-62732518D01*
X156419740Y-62726000D01*
X156508260Y-62726000D01*
X156574442Y-62732518D01*
X156574442Y-62732518D01*
G37*
G36*
X151494442Y-62732518D02*
G01*
X151560627Y-62739037D01*
X151730466Y-62790557D01*
X151886991Y-62874222D01*
X151922729Y-62903552D01*
X152024186Y-62986814D01*
X152096463Y-63074885D01*
X152136778Y-63124009D01*
X152220443Y-63280534D01*
X152271963Y-63450373D01*
X152289359Y-63627000D01*
X152271963Y-63803627D01*
X152220443Y-63973466D01*
X152136778Y-64129991D01*
X152112856Y-64159140D01*
X152024186Y-64267186D01*
X151929491Y-64344899D01*
X151886991Y-64379778D01*
X151730466Y-64463443D01*
X151560627Y-64514963D01*
X151494442Y-64521482D01*
X151428260Y-64528000D01*
X151339740Y-64528000D01*
X151273558Y-64521482D01*
X151207373Y-64514963D01*
X151037534Y-64463443D01*
X150881009Y-64379778D01*
X150838509Y-64344899D01*
X150743814Y-64267186D01*
X150655144Y-64159140D01*
X150631222Y-64129991D01*
X150547557Y-63973466D01*
X150496037Y-63803627D01*
X150478641Y-63627000D01*
X150496037Y-63450373D01*
X150547557Y-63280534D01*
X150631222Y-63124009D01*
X150671537Y-63074885D01*
X150743814Y-62986814D01*
X150845271Y-62903552D01*
X150881009Y-62874222D01*
X151037534Y-62790557D01*
X151207373Y-62739037D01*
X151273558Y-62732518D01*
X151339740Y-62726000D01*
X151428260Y-62726000D01*
X151494442Y-62732518D01*
X151494442Y-62732518D01*
G37*
G36*
X136765331Y-60238211D02*
G01*
X137093092Y-60373974D01*
X137388070Y-60571072D01*
X137638928Y-60821930D01*
X137836026Y-61116908D01*
X137971789Y-61444669D01*
X138041000Y-61792616D01*
X138041000Y-62147384D01*
X137971789Y-62495331D01*
X137836026Y-62823092D01*
X137638928Y-63118070D01*
X137388070Y-63368928D01*
X137093092Y-63566026D01*
X136765331Y-63701789D01*
X136417384Y-63771000D01*
X136062616Y-63771000D01*
X135714669Y-63701789D01*
X135386908Y-63566026D01*
X135091930Y-63368928D01*
X134841072Y-63118070D01*
X134643974Y-62823092D01*
X134508211Y-62495331D01*
X134439000Y-62147384D01*
X134439000Y-61792616D01*
X134508211Y-61444669D01*
X134643974Y-61116908D01*
X134841072Y-60821930D01*
X135091930Y-60571072D01*
X135386908Y-60373974D01*
X135714669Y-60238211D01*
X136062616Y-60169000D01*
X136417384Y-60169000D01*
X136765331Y-60238211D01*
X136765331Y-60238211D01*
G37*
G36*
X88439115Y-62106858D02*
G01*
X88557122Y-62142655D01*
X88665868Y-62200781D01*
X88761190Y-62279010D01*
X88839419Y-62374332D01*
X88897545Y-62483078D01*
X88933342Y-62601085D01*
X88945428Y-62723800D01*
X88933342Y-62846515D01*
X88897545Y-62964522D01*
X88839419Y-63073268D01*
X88761190Y-63168590D01*
X88665868Y-63246819D01*
X88557122Y-63304945D01*
X88557119Y-63304946D01*
X88550321Y-63307008D01*
X88439115Y-63340742D01*
X88347146Y-63349800D01*
X87635654Y-63349800D01*
X87543685Y-63340742D01*
X87432479Y-63307008D01*
X87425681Y-63304946D01*
X87425678Y-63304945D01*
X87316932Y-63246819D01*
X87221610Y-63168590D01*
X87143381Y-63073268D01*
X87085255Y-62964522D01*
X87049458Y-62846515D01*
X87037372Y-62723800D01*
X87049458Y-62601085D01*
X87085255Y-62483078D01*
X87143381Y-62374332D01*
X87221610Y-62279010D01*
X87316932Y-62200781D01*
X87425678Y-62142655D01*
X87543685Y-62106858D01*
X87635654Y-62097800D01*
X88347146Y-62097800D01*
X88439115Y-62106858D01*
X88439115Y-62106858D01*
G37*
G36*
X172206564Y-60089389D02*
G01*
X172397833Y-60168615D01*
X172397835Y-60168616D01*
X172569973Y-60283635D01*
X172716365Y-60430027D01*
X172819253Y-60584009D01*
X172831385Y-60602167D01*
X172910611Y-60793436D01*
X172951000Y-60996484D01*
X172951000Y-61203516D01*
X172910611Y-61406564D01*
X172860135Y-61528423D01*
X172831384Y-61597835D01*
X172716365Y-61769973D01*
X172569973Y-61916365D01*
X172397835Y-62031384D01*
X172397834Y-62031385D01*
X172397833Y-62031385D01*
X172206564Y-62110611D01*
X172003516Y-62151000D01*
X171796484Y-62151000D01*
X171593436Y-62110611D01*
X171402167Y-62031385D01*
X171402166Y-62031385D01*
X171402165Y-62031384D01*
X171230027Y-61916365D01*
X171083635Y-61769973D01*
X170968616Y-61597835D01*
X170939865Y-61528423D01*
X170889389Y-61406564D01*
X170849000Y-61203516D01*
X170849000Y-60996484D01*
X170889389Y-60793436D01*
X170968615Y-60602167D01*
X170980748Y-60584009D01*
X171083635Y-60430027D01*
X171230027Y-60283635D01*
X171402165Y-60168616D01*
X171402167Y-60168615D01*
X171593436Y-60089389D01*
X171796484Y-60049000D01*
X172003516Y-60049000D01*
X172206564Y-60089389D01*
X172206564Y-60089389D01*
G37*
G36*
X174706564Y-60089389D02*
G01*
X174897833Y-60168615D01*
X174897835Y-60168616D01*
X175069973Y-60283635D01*
X175216365Y-60430027D01*
X175319253Y-60584009D01*
X175331385Y-60602167D01*
X175410611Y-60793436D01*
X175451000Y-60996484D01*
X175451000Y-61203516D01*
X175410611Y-61406564D01*
X175360135Y-61528423D01*
X175331384Y-61597835D01*
X175216365Y-61769973D01*
X175069973Y-61916365D01*
X174897835Y-62031384D01*
X174897834Y-62031385D01*
X174897833Y-62031385D01*
X174706564Y-62110611D01*
X174503516Y-62151000D01*
X174296484Y-62151000D01*
X174093436Y-62110611D01*
X173902167Y-62031385D01*
X173902166Y-62031385D01*
X173902165Y-62031384D01*
X173730027Y-61916365D01*
X173583635Y-61769973D01*
X173468616Y-61597835D01*
X173439865Y-61528423D01*
X173389389Y-61406564D01*
X173349000Y-61203516D01*
X173349000Y-60996484D01*
X173389389Y-60793436D01*
X173468615Y-60602167D01*
X173480748Y-60584009D01*
X173583635Y-60430027D01*
X173730027Y-60283635D01*
X173902165Y-60168616D01*
X173902167Y-60168615D01*
X174093436Y-60089389D01*
X174296484Y-60049000D01*
X174503516Y-60049000D01*
X174706564Y-60089389D01*
X174706564Y-60089389D01*
G37*
G36*
X177951000Y-62151000D02*
G01*
X175849000Y-62151000D01*
X175849000Y-60049000D01*
X177951000Y-60049000D01*
X177951000Y-62151000D01*
X177951000Y-62151000D01*
G37*
G36*
X157365000Y-61988000D02*
G01*
X155563000Y-61988000D01*
X155563000Y-60186000D01*
X157365000Y-60186000D01*
X157365000Y-61988000D01*
X157365000Y-61988000D01*
G37*
G36*
X154034443Y-60192519D02*
G01*
X154100627Y-60199037D01*
X154270466Y-60250557D01*
X154426991Y-60334222D01*
X154462729Y-60363552D01*
X154564186Y-60446814D01*
X154622082Y-60517362D01*
X154676778Y-60584009D01*
X154760443Y-60740534D01*
X154811963Y-60910373D01*
X154829359Y-61087000D01*
X154811963Y-61263627D01*
X154768603Y-61406565D01*
X154760442Y-61433468D01*
X154755036Y-61443582D01*
X154676778Y-61589991D01*
X154647448Y-61625729D01*
X154564186Y-61727186D01*
X154462729Y-61810448D01*
X154426991Y-61839778D01*
X154270466Y-61923443D01*
X154100627Y-61974963D01*
X154034443Y-61981481D01*
X153968260Y-61988000D01*
X153879740Y-61988000D01*
X153813557Y-61981481D01*
X153747373Y-61974963D01*
X153577534Y-61923443D01*
X153421009Y-61839778D01*
X153385271Y-61810448D01*
X153283814Y-61727186D01*
X153200552Y-61625729D01*
X153171222Y-61589991D01*
X153092964Y-61443582D01*
X153087558Y-61433468D01*
X153079397Y-61406565D01*
X153036037Y-61263627D01*
X153018641Y-61087000D01*
X153036037Y-60910373D01*
X153087557Y-60740534D01*
X153171222Y-60584009D01*
X153225918Y-60517362D01*
X153283814Y-60446814D01*
X153385271Y-60363552D01*
X153421009Y-60334222D01*
X153577534Y-60250557D01*
X153747373Y-60199037D01*
X153813557Y-60192519D01*
X153879740Y-60186000D01*
X153968260Y-60186000D01*
X154034443Y-60192519D01*
X154034443Y-60192519D01*
G37*
G36*
X151494443Y-60192519D02*
G01*
X151560627Y-60199037D01*
X151730466Y-60250557D01*
X151886991Y-60334222D01*
X151922729Y-60363552D01*
X152024186Y-60446814D01*
X152082082Y-60517362D01*
X152136778Y-60584009D01*
X152220443Y-60740534D01*
X152271963Y-60910373D01*
X152289359Y-61087000D01*
X152271963Y-61263627D01*
X152228603Y-61406565D01*
X152220442Y-61433468D01*
X152215036Y-61443582D01*
X152136778Y-61589991D01*
X152107448Y-61625729D01*
X152024186Y-61727186D01*
X151922729Y-61810448D01*
X151886991Y-61839778D01*
X151730466Y-61923443D01*
X151560627Y-61974963D01*
X151494443Y-61981481D01*
X151428260Y-61988000D01*
X151339740Y-61988000D01*
X151273557Y-61981481D01*
X151207373Y-61974963D01*
X151037534Y-61923443D01*
X150881009Y-61839778D01*
X150845271Y-61810448D01*
X150743814Y-61727186D01*
X150660552Y-61625729D01*
X150631222Y-61589991D01*
X150552964Y-61443582D01*
X150547558Y-61433468D01*
X150539397Y-61406565D01*
X150496037Y-61263627D01*
X150478641Y-61087000D01*
X150496037Y-60910373D01*
X150547557Y-60740534D01*
X150631222Y-60584009D01*
X150685918Y-60517362D01*
X150743814Y-60446814D01*
X150845271Y-60363552D01*
X150881009Y-60334222D01*
X151037534Y-60250557D01*
X151207373Y-60199037D01*
X151273557Y-60192519D01*
X151339740Y-60186000D01*
X151428260Y-60186000D01*
X151494443Y-60192519D01*
X151494443Y-60192519D01*
G37*
G36*
X94381013Y-59731249D02*
G01*
X94475452Y-59759897D01*
X94562487Y-59806418D01*
X94638775Y-59869025D01*
X94701382Y-59945313D01*
X94747903Y-60032348D01*
X94776551Y-60126787D01*
X94783800Y-60200388D01*
X94783800Y-61049612D01*
X94776551Y-61123213D01*
X94747903Y-61217652D01*
X94701382Y-61304687D01*
X94638775Y-61380975D01*
X94562487Y-61443582D01*
X94475451Y-61490103D01*
X94381012Y-61518751D01*
X94282800Y-61528424D01*
X94184587Y-61518751D01*
X94090148Y-61490103D01*
X94003113Y-61443582D01*
X93926825Y-61380975D01*
X93864218Y-61304687D01*
X93817697Y-61217651D01*
X93789049Y-61123212D01*
X93781800Y-61049611D01*
X93781800Y-60200398D01*
X93789050Y-60126786D01*
X93812647Y-60049000D01*
X93817698Y-60032348D01*
X93864219Y-59945313D01*
X93926826Y-59869025D01*
X94003114Y-59806418D01*
X94090149Y-59759897D01*
X94184588Y-59731249D01*
X94282800Y-59721576D01*
X94381013Y-59731249D01*
X94381013Y-59731249D01*
G37*
G36*
X103021013Y-59731249D02*
G01*
X103115452Y-59759897D01*
X103202487Y-59806418D01*
X103278775Y-59869025D01*
X103341382Y-59945313D01*
X103387903Y-60032348D01*
X103416551Y-60126787D01*
X103423800Y-60200388D01*
X103423800Y-61049612D01*
X103416551Y-61123213D01*
X103387903Y-61217652D01*
X103341382Y-61304687D01*
X103278775Y-61380975D01*
X103202487Y-61443582D01*
X103115451Y-61490103D01*
X103021012Y-61518751D01*
X102922800Y-61528424D01*
X102824587Y-61518751D01*
X102730148Y-61490103D01*
X102643113Y-61443582D01*
X102566825Y-61380975D01*
X102504218Y-61304687D01*
X102457697Y-61217651D01*
X102429049Y-61123212D01*
X102421800Y-61049611D01*
X102421800Y-60200398D01*
X102429050Y-60126786D01*
X102452647Y-60049000D01*
X102457698Y-60032348D01*
X102504219Y-59945313D01*
X102566826Y-59869025D01*
X102643114Y-59806418D01*
X102730149Y-59759897D01*
X102824588Y-59731249D01*
X102922800Y-59721576D01*
X103021013Y-59731249D01*
X103021013Y-59731249D01*
G37*
G36*
X147085499Y-59676445D02*
G01*
X147122995Y-59687820D01*
X147157554Y-59706292D01*
X147187847Y-59731153D01*
X147212708Y-59761446D01*
X147231180Y-59796005D01*
X147242555Y-59833501D01*
X147247000Y-59878638D01*
X147247000Y-60517362D01*
X147242555Y-60562499D01*
X147231180Y-60599995D01*
X147212708Y-60634554D01*
X147187847Y-60664847D01*
X147157554Y-60689708D01*
X147122995Y-60708180D01*
X147085499Y-60719555D01*
X147040362Y-60724000D01*
X146301638Y-60724000D01*
X146256501Y-60719555D01*
X146219005Y-60708180D01*
X146184446Y-60689708D01*
X146154153Y-60664847D01*
X146129292Y-60634554D01*
X146110820Y-60599995D01*
X146099445Y-60562499D01*
X146095000Y-60517362D01*
X146095000Y-59878638D01*
X146099445Y-59833501D01*
X146110820Y-59796005D01*
X146129292Y-59761446D01*
X146154153Y-59731153D01*
X146184446Y-59706292D01*
X146219005Y-59687820D01*
X146256501Y-59676445D01*
X146301638Y-59672000D01*
X147040362Y-59672000D01*
X147085499Y-59676445D01*
X147085499Y-59676445D01*
G37*
G36*
X145335499Y-59676445D02*
G01*
X145372995Y-59687820D01*
X145407554Y-59706292D01*
X145437847Y-59731153D01*
X145462708Y-59761446D01*
X145481180Y-59796005D01*
X145492555Y-59833501D01*
X145497000Y-59878638D01*
X145497000Y-60517362D01*
X145492555Y-60562499D01*
X145481180Y-60599995D01*
X145462708Y-60634554D01*
X145437847Y-60664847D01*
X145407554Y-60689708D01*
X145372995Y-60708180D01*
X145335499Y-60719555D01*
X145290362Y-60724000D01*
X144551638Y-60724000D01*
X144506501Y-60719555D01*
X144469005Y-60708180D01*
X144434446Y-60689708D01*
X144404153Y-60664847D01*
X144379292Y-60634554D01*
X144360820Y-60599995D01*
X144349445Y-60562499D01*
X144345000Y-60517362D01*
X144345000Y-59878638D01*
X144349445Y-59833501D01*
X144360820Y-59796005D01*
X144379292Y-59761446D01*
X144404153Y-59731153D01*
X144434446Y-59706292D01*
X144469005Y-59687820D01*
X144506501Y-59676445D01*
X144551638Y-59672000D01*
X145290362Y-59672000D01*
X145335499Y-59676445D01*
X145335499Y-59676445D01*
G37*
G36*
X89216041Y-54115253D02*
G01*
X89298257Y-54131607D01*
X89362414Y-54158182D01*
X89453146Y-54195764D01*
X89592544Y-54288907D01*
X89711093Y-54407456D01*
X89804236Y-54546854D01*
X89841818Y-54637586D01*
X89847770Y-54651954D01*
X89868393Y-54701744D01*
X89901100Y-54866173D01*
X89901100Y-55033827D01*
X89868393Y-55198256D01*
X89804236Y-55353146D01*
X89711093Y-55492544D01*
X89592544Y-55611093D01*
X89453146Y-55704236D01*
X89362414Y-55741818D01*
X89298257Y-55768393D01*
X89216041Y-55784747D01*
X89133827Y-55801100D01*
X88966173Y-55801100D01*
X88883959Y-55784747D01*
X88801743Y-55768393D01*
X88737586Y-55741818D01*
X88646854Y-55704236D01*
X88507456Y-55611093D01*
X88388907Y-55492544D01*
X88295764Y-55353146D01*
X88231607Y-55198256D01*
X88198900Y-55033827D01*
X88198900Y-54866173D01*
X88231607Y-54701744D01*
X88252231Y-54651954D01*
X88258182Y-54637586D01*
X88295764Y-54546854D01*
X88388907Y-54407456D01*
X88507456Y-54288907D01*
X88646854Y-54195764D01*
X88737586Y-54158182D01*
X88801743Y-54131607D01*
X88883959Y-54115253D01*
X88966173Y-54098900D01*
X89133827Y-54098900D01*
X89216041Y-54115253D01*
X89216041Y-54115253D01*
G37*
G36*
X182261536Y-50972827D02*
G01*
X182396839Y-50999740D01*
X182779197Y-51158118D01*
X183123310Y-51388047D01*
X183415953Y-51680690D01*
X183645882Y-52024803D01*
X183804260Y-52407161D01*
X183885000Y-52813070D01*
X183885000Y-53226930D01*
X183804260Y-53632839D01*
X183645882Y-54015197D01*
X183415953Y-54359310D01*
X183123310Y-54651953D01*
X182779197Y-54881882D01*
X182396839Y-55040260D01*
X182261536Y-55067173D01*
X181990932Y-55121000D01*
X181577068Y-55121000D01*
X181306464Y-55067173D01*
X181171161Y-55040260D01*
X180788803Y-54881882D01*
X180444690Y-54651953D01*
X180152047Y-54359310D01*
X179922118Y-54015197D01*
X179763740Y-53632839D01*
X179683000Y-53226930D01*
X179683000Y-52813070D01*
X179763740Y-52407161D01*
X179922118Y-52024803D01*
X180152047Y-51680690D01*
X180444690Y-51388047D01*
X180788803Y-51158118D01*
X181171161Y-50999740D01*
X181306464Y-50972827D01*
X181577068Y-50919000D01*
X181990932Y-50919000D01*
X182261536Y-50972827D01*
X182261536Y-50972827D01*
G37*
G36*
X124683536Y-50972827D02*
G01*
X124818839Y-50999740D01*
X125201197Y-51158118D01*
X125545310Y-51388047D01*
X125837953Y-51680690D01*
X126067882Y-52024803D01*
X126226260Y-52407161D01*
X126307000Y-52813070D01*
X126307000Y-53226930D01*
X126226260Y-53632839D01*
X126067882Y-54015197D01*
X125837953Y-54359310D01*
X125545310Y-54651953D01*
X125201197Y-54881882D01*
X124818839Y-55040260D01*
X124683536Y-55067173D01*
X124412932Y-55121000D01*
X123999068Y-55121000D01*
X123728464Y-55067173D01*
X123593161Y-55040260D01*
X123210803Y-54881882D01*
X122866690Y-54651953D01*
X122574047Y-54359310D01*
X122344118Y-54015197D01*
X122185740Y-53632839D01*
X122105000Y-53226930D01*
X122105000Y-52813070D01*
X122185740Y-52407161D01*
X122344118Y-52024803D01*
X122574047Y-51680690D01*
X122866690Y-51388047D01*
X123210803Y-51158118D01*
X123593161Y-50999740D01*
X123728464Y-50972827D01*
X123999068Y-50919000D01*
X124412932Y-50919000D01*
X124683536Y-50972827D01*
X124683536Y-50972827D01*
G37*
G36*
X156423595Y-44785546D02*
G01*
X156596666Y-44857234D01*
X156702476Y-44927934D01*
X156724087Y-44939485D01*
X156747536Y-44946598D01*
X156771922Y-44949000D01*
X157051000Y-44949000D01*
X157051000Y-45374434D01*
X157053402Y-45398820D01*
X157060515Y-45422269D01*
X157060654Y-45422605D01*
X157097200Y-45606333D01*
X157097200Y-45793667D01*
X157060654Y-45977395D01*
X157060515Y-45977731D01*
X157053402Y-46001180D01*
X157051000Y-46025566D01*
X157051000Y-47974434D01*
X157053402Y-47998820D01*
X157060515Y-48022269D01*
X157060654Y-48022605D01*
X157097200Y-48206333D01*
X157097200Y-48393667D01*
X157060654Y-48577395D01*
X157060515Y-48577731D01*
X157053402Y-48601180D01*
X157051000Y-48625566D01*
X157051000Y-49051000D01*
X156771922Y-49051000D01*
X156747536Y-49053402D01*
X156724087Y-49060515D01*
X156702476Y-49072066D01*
X156596666Y-49142766D01*
X156423595Y-49214454D01*
X156239867Y-49251000D01*
X156052533Y-49251000D01*
X155868805Y-49214454D01*
X155695734Y-49142766D01*
X155589924Y-49072066D01*
X155568313Y-49060515D01*
X155544864Y-49053402D01*
X155520478Y-49051000D01*
X153949000Y-49051000D01*
X153949000Y-44949000D01*
X155520478Y-44949000D01*
X155544864Y-44946598D01*
X155568313Y-44939485D01*
X155589924Y-44927934D01*
X155695734Y-44857234D01*
X155868805Y-44785546D01*
X156052533Y-44749000D01*
X156239867Y-44749000D01*
X156423595Y-44785546D01*
X156423595Y-44785546D01*
G37*
G36*
X150631195Y-44785546D02*
G01*
X150804266Y-44857234D01*
X150910076Y-44927934D01*
X150931687Y-44939485D01*
X150955136Y-44946598D01*
X150979522Y-44949000D01*
X152551000Y-44949000D01*
X152551000Y-49051000D01*
X150979522Y-49051000D01*
X150955136Y-49053402D01*
X150931687Y-49060515D01*
X150910076Y-49072066D01*
X150804266Y-49142766D01*
X150631195Y-49214454D01*
X150447467Y-49251000D01*
X150260133Y-49251000D01*
X150076405Y-49214454D01*
X149903334Y-49142766D01*
X149797524Y-49072066D01*
X149775913Y-49060515D01*
X149752464Y-49053402D01*
X149728078Y-49051000D01*
X149449000Y-49051000D01*
X149449000Y-48625566D01*
X149446598Y-48601180D01*
X149439485Y-48577731D01*
X149439346Y-48577395D01*
X149402800Y-48393667D01*
X149402800Y-48206333D01*
X149439346Y-48022605D01*
X149439485Y-48022269D01*
X149446598Y-47998820D01*
X149449000Y-47974434D01*
X149449000Y-46025566D01*
X149446598Y-46001180D01*
X149439485Y-45977731D01*
X149439346Y-45977395D01*
X149402800Y-45793667D01*
X149402800Y-45606333D01*
X149439346Y-45422605D01*
X149439485Y-45422269D01*
X149446598Y-45398820D01*
X149449000Y-45374434D01*
X149449000Y-44949000D01*
X149728078Y-44949000D01*
X149752464Y-44946598D01*
X149775913Y-44939485D01*
X149797524Y-44927934D01*
X149903334Y-44857234D01*
X150076405Y-44785546D01*
X150260133Y-44749000D01*
X150447467Y-44749000D01*
X150631195Y-44785546D01*
X150631195Y-44785546D01*
G37*
G36*
X181051000Y-49051000D02*
G01*
X177949000Y-49051000D01*
X177949000Y-47505451D01*
X177946598Y-47481065D01*
X177939485Y-47457616D01*
X177885546Y-47327395D01*
X177849000Y-47143667D01*
X177849000Y-46956333D01*
X177885546Y-46772605D01*
X177939485Y-46642384D01*
X177946598Y-46618935D01*
X177949000Y-46594549D01*
X177949000Y-44949000D01*
X181051000Y-44949000D01*
X181051000Y-49051000D01*
X181051000Y-49051000D01*
G37*
G36*
X128551000Y-46494549D02*
G01*
X128553402Y-46518935D01*
X128560515Y-46542384D01*
X128614454Y-46672605D01*
X128651000Y-46856333D01*
X128651000Y-47043667D01*
X128614454Y-47227395D01*
X128560515Y-47357616D01*
X128553402Y-47381065D01*
X128551000Y-47405451D01*
X128551000Y-49051000D01*
X125449000Y-49051000D01*
X125449000Y-44949000D01*
X128551000Y-44949000D01*
X128551000Y-46494549D01*
X128551000Y-46494549D01*
G37*
G36*
X182261536Y-39592827D02*
G01*
X182396839Y-39619740D01*
X182779197Y-39778118D01*
X182855347Y-39829000D01*
X183108659Y-39998257D01*
X183123310Y-40008047D01*
X183415953Y-40300690D01*
X183616681Y-40601100D01*
X183645883Y-40644805D01*
X183804260Y-41027162D01*
X183884589Y-41431000D01*
X183885000Y-41433070D01*
X183885000Y-41846930D01*
X183804260Y-42252839D01*
X183645882Y-42635197D01*
X183415953Y-42979310D01*
X183123310Y-43271953D01*
X182779197Y-43501882D01*
X182396839Y-43660260D01*
X182261536Y-43687173D01*
X181990932Y-43741000D01*
X181577068Y-43741000D01*
X181306464Y-43687173D01*
X181171161Y-43660260D01*
X180788803Y-43501882D01*
X180444690Y-43271953D01*
X180152047Y-42979310D01*
X179922118Y-42635197D01*
X179763740Y-42252839D01*
X179683000Y-41846930D01*
X179683000Y-41433070D01*
X179683412Y-41431000D01*
X179763740Y-41027162D01*
X179922117Y-40644805D01*
X179951320Y-40601100D01*
X180152047Y-40300690D01*
X180444690Y-40008047D01*
X180459342Y-39998257D01*
X180712653Y-39829000D01*
X180788803Y-39778118D01*
X181171161Y-39619740D01*
X181306464Y-39592827D01*
X181577068Y-39539000D01*
X181990932Y-39539000D01*
X182261536Y-39592827D01*
X182261536Y-39592827D01*
G37*
G36*
X124683536Y-39592827D02*
G01*
X124818839Y-39619740D01*
X125201197Y-39778118D01*
X125277347Y-39829000D01*
X125530659Y-39998257D01*
X125545310Y-40008047D01*
X125837953Y-40300690D01*
X126038681Y-40601100D01*
X126067883Y-40644805D01*
X126226260Y-41027162D01*
X126306589Y-41431000D01*
X126307000Y-41433070D01*
X126307000Y-41846930D01*
X126226260Y-42252839D01*
X126067882Y-42635197D01*
X125837953Y-42979310D01*
X125545310Y-43271953D01*
X125201197Y-43501882D01*
X124818839Y-43660260D01*
X124683536Y-43687173D01*
X124412932Y-43741000D01*
X123999068Y-43741000D01*
X123728464Y-43687173D01*
X123593161Y-43660260D01*
X123210803Y-43501882D01*
X122866690Y-43271953D01*
X122574047Y-42979310D01*
X122344118Y-42635197D01*
X122185740Y-42252839D01*
X122105000Y-41846930D01*
X122105000Y-41433070D01*
X122105412Y-41431000D01*
X122185740Y-41027162D01*
X122344117Y-40644805D01*
X122373320Y-40601100D01*
X122574047Y-40300690D01*
X122866690Y-40008047D01*
X122881342Y-39998257D01*
X123134653Y-39829000D01*
X123210803Y-39778118D01*
X123593161Y-39619740D01*
X123728464Y-39592827D01*
X123999068Y-39539000D01*
X124412932Y-39539000D01*
X124683536Y-39592827D01*
X124683536Y-39592827D01*
G37*
G36*
X155751000Y-41431000D02*
G01*
X154949000Y-41431000D01*
X154949000Y-39829000D01*
X155751000Y-39829000D01*
X155751000Y-41431000D01*
X155751000Y-41431000D01*
G37*
G36*
X151251000Y-41431000D02*
G01*
X150449000Y-41431000D01*
X150449000Y-39829000D01*
X151251000Y-39829000D01*
X151251000Y-41431000D01*
X151251000Y-41431000D01*
G37*
G36*
X152751000Y-41431000D02*
G01*
X151949000Y-41431000D01*
X151949000Y-39829000D01*
X152751000Y-39829000D01*
X152751000Y-41431000D01*
X152751000Y-41431000D01*
G37*
G36*
X89316042Y-38915254D02*
G01*
X89398257Y-38931607D01*
X89462414Y-38958182D01*
X89553146Y-38995764D01*
X89692544Y-39088907D01*
X89811093Y-39207456D01*
X89904236Y-39346854D01*
X89941818Y-39437586D01*
X89968393Y-39501743D01*
X90001100Y-39666174D01*
X90001100Y-39833826D01*
X89968393Y-39998257D01*
X89941818Y-40062414D01*
X89904236Y-40153146D01*
X89811093Y-40292544D01*
X89692544Y-40411093D01*
X89553146Y-40504236D01*
X89462414Y-40541818D01*
X89398257Y-40568393D01*
X89316041Y-40584747D01*
X89233827Y-40601100D01*
X89066173Y-40601100D01*
X88983959Y-40584747D01*
X88901743Y-40568393D01*
X88837586Y-40541818D01*
X88746854Y-40504236D01*
X88607456Y-40411093D01*
X88488907Y-40292544D01*
X88395764Y-40153146D01*
X88358182Y-40062414D01*
X88331607Y-39998257D01*
X88298900Y-39833826D01*
X88298900Y-39666174D01*
X88331607Y-39501743D01*
X88358182Y-39437586D01*
X88395764Y-39346854D01*
X88488907Y-39207456D01*
X88607456Y-39088907D01*
X88746854Y-38995764D01*
X88837586Y-38958182D01*
X88901743Y-38931607D01*
X88983958Y-38915254D01*
X89066173Y-38898900D01*
X89233827Y-38898900D01*
X89316042Y-38915254D01*
X89316042Y-38915254D01*
G37*
G36*
X150001000Y-40431000D02*
G01*
X148899000Y-40431000D01*
X148899000Y-39529000D01*
X150001000Y-39529000D01*
X150001000Y-40431000D01*
X150001000Y-40431000D01*
G37*
G36*
X157301000Y-40431000D02*
G01*
X156199000Y-40431000D01*
X156199000Y-39529000D01*
X157301000Y-39529000D01*
X157301000Y-40431000D01*
X157301000Y-40431000D01*
G37*
G36*
X154697740Y-38378627D02*
G01*
X154746136Y-38388253D01*
X154783902Y-38403896D01*
X154837311Y-38426019D01*
X154837312Y-38426020D01*
X154919369Y-38480848D01*
X154989152Y-38550631D01*
X154989153Y-38550633D01*
X155043981Y-38632689D01*
X155081747Y-38723865D01*
X155101000Y-38820655D01*
X155101000Y-38919345D01*
X155081747Y-39016135D01*
X155043981Y-39107311D01*
X155043980Y-39107312D01*
X154989152Y-39189369D01*
X154919369Y-39259152D01*
X154878062Y-39286752D01*
X154837311Y-39313981D01*
X154783902Y-39336104D01*
X154746136Y-39351747D01*
X154697740Y-39361373D01*
X154649345Y-39371000D01*
X154550655Y-39371000D01*
X154502260Y-39361374D01*
X154453864Y-39351747D01*
X154416098Y-39336104D01*
X154362689Y-39313981D01*
X154321938Y-39286752D01*
X154280631Y-39259152D01*
X154210848Y-39189369D01*
X154156020Y-39107312D01*
X154156019Y-39107311D01*
X154118253Y-39016135D01*
X154099000Y-38919345D01*
X154099000Y-38820655D01*
X154118253Y-38723865D01*
X154156019Y-38632689D01*
X154210847Y-38550633D01*
X154210848Y-38550631D01*
X154280631Y-38480848D01*
X154362688Y-38426020D01*
X154362689Y-38426019D01*
X154416098Y-38403896D01*
X154453864Y-38388253D01*
X154502260Y-38378627D01*
X154550655Y-38369000D01*
X154649345Y-38369000D01*
X154697740Y-38378627D01*
X154697740Y-38378627D01*
G37*
G36*
X151697740Y-38378627D02*
G01*
X151746136Y-38388253D01*
X151783902Y-38403896D01*
X151837311Y-38426019D01*
X151837312Y-38426020D01*
X151919369Y-38480848D01*
X151989152Y-38550631D01*
X151989153Y-38550633D01*
X152043981Y-38632689D01*
X152081747Y-38723865D01*
X152101000Y-38820655D01*
X152101000Y-38919345D01*
X152081747Y-39016135D01*
X152043981Y-39107311D01*
X152043980Y-39107312D01*
X151989152Y-39189369D01*
X151919369Y-39259152D01*
X151878062Y-39286752D01*
X151837311Y-39313981D01*
X151783902Y-39336104D01*
X151746136Y-39351747D01*
X151697740Y-39361373D01*
X151649345Y-39371000D01*
X151550655Y-39371000D01*
X151502260Y-39361374D01*
X151453864Y-39351747D01*
X151416098Y-39336104D01*
X151362689Y-39313981D01*
X151321938Y-39286752D01*
X151280631Y-39259152D01*
X151210848Y-39189369D01*
X151156020Y-39107312D01*
X151156019Y-39107311D01*
X151118253Y-39016135D01*
X151099000Y-38919345D01*
X151099000Y-38820655D01*
X151118253Y-38723865D01*
X151156019Y-38632689D01*
X151210847Y-38550633D01*
X151210848Y-38550631D01*
X151280631Y-38480848D01*
X151362688Y-38426020D01*
X151362689Y-38426019D01*
X151416098Y-38403896D01*
X151453864Y-38388253D01*
X151502260Y-38378627D01*
X151550655Y-38369000D01*
X151649345Y-38369000D01*
X151697740Y-38378627D01*
X151697740Y-38378627D01*
G37*
G36*
X150001000Y-38221000D02*
G01*
X148899000Y-38221000D01*
X148899000Y-37319000D01*
X150001000Y-37319000D01*
X150001000Y-38221000D01*
X150001000Y-38221000D01*
G37*
G36*
X157301000Y-38221000D02*
G01*
X156199000Y-38221000D01*
X156199000Y-37319000D01*
X157301000Y-37319000D01*
X157301000Y-38221000D01*
X157301000Y-38221000D01*
G37*
M02*
