M48
; DRILL file {KiCad (5.1.4-0-10_14)} date 2019 October 30, Wednesday 12:24:43
; FORMAT={3:3/ absolute / metric / suppress trailing zeros}
; #@! TF.CreationDate,2019-10-30T12:24:43+09:00
; #@! TF.GenerationSoftware,Kicad,Pcbnew,(5.1.4-0-10_14)
; #@! TF.FileFunction,NonPlated,1,2,NPTH
FMAT,2
METRIC,LZ
T1C0.600
T2C0.800
T3C0.900
T4C1.750
T5C3.988
T6C4.100
%
G90
G05
T1
X095713Y-064315
X101493Y-064315
T2
X090741Y-064099
X090741Y-069099
T3
X1516Y-03887
X1546Y-03887
T4
X12862Y-06705
X13878Y-06705
X12867Y-1147
X13883Y-1147
X12867Y-08605
X13883Y-08605
X10962Y-1147
X09052Y-0816
X10068Y-0816
X14767Y-1147
X15783Y-1147
X10967Y-091
X11983Y-091
X11978Y-1147
X10972Y-0721
X11988Y-0721
X14767Y-07655
X15783Y-07655
X14767Y-09555
X15783Y-09555
X169343Y-111285
X179157Y-113915
X09048Y-10068
X10064Y-10068
T5
X1337Y-06705
X13375Y-1147
X13375Y-08605
X11475Y-091
X15275Y-1147
X1148Y-0721
X09556Y-10068
X15275Y-07655
X1147Y-1147
X0956Y-0816
X15275Y-09555
X17425Y-1126
T6
X181784Y-05302
X164389Y-070866
X10287Y-070866
X124206Y-05302
X181784Y-04164
X164389Y-111303
X124206Y-04164
X10287Y-111303
T0
M30
