G04 #@! TF.GenerationSoftware,KiCad,Pcbnew,(5.1.4-0-10_14)*
G04 #@! TF.CreationDate,2019-10-30T04:13:05+09:00*
G04 #@! TF.ProjectId,nilgiri_front,6e696c67-6972-4695-9f66-726f6e742e6b,rev?*
G04 #@! TF.SameCoordinates,Original*
G04 #@! TF.FileFunction,Copper,L2,Bot*
G04 #@! TF.FilePolarity,Positive*
%FSLAX46Y46*%
G04 Gerber Fmt 4.6, Leading zero omitted, Abs format (unit mm)*
G04 Created by KiCad (PCBNEW (5.1.4-0-10_14)) date 2019-10-30 04:13:05*
%MOMM*%
%LPD*%
G04 APERTURE LIST*
%ADD10C,0.254000*%
G04 APERTURE END LIST*
D10*
G36*
X182997334Y-59194184D02*
G01*
X183124713Y-59208733D01*
X183129246Y-59209375D01*
X183130827Y-59209432D01*
X183135006Y-59209909D01*
X183144919Y-59209999D01*
X183148720Y-59210007D01*
X183271712Y-59213564D01*
X183382147Y-59222145D01*
X183487935Y-59235409D01*
X183586324Y-59252291D01*
X183681550Y-59272927D01*
X183775671Y-59297592D01*
X183864420Y-59324870D01*
X183949802Y-59354955D01*
X184036367Y-59389456D01*
X184116669Y-59425224D01*
X184193893Y-59463228D01*
X184268774Y-59503641D01*
X184341621Y-59546523D01*
X184412769Y-59592022D01*
X184482238Y-59640139D01*
X184548048Y-59689350D01*
X184615823Y-59744025D01*
X184677236Y-59797378D01*
X184736420Y-59852583D01*
X184796173Y-59912467D01*
X184852190Y-59972820D01*
X184906469Y-60035680D01*
X184957829Y-60099660D01*
X185007145Y-60165814D01*
X185055081Y-60235249D01*
X185101527Y-60308188D01*
X185144054Y-60380827D01*
X185185865Y-60458873D01*
X185223923Y-60536996D01*
X185259395Y-60617552D01*
X185292851Y-60702481D01*
X185322501Y-60787598D01*
X185350105Y-60878680D01*
X185373844Y-60970776D01*
X185394587Y-61068434D01*
X185411037Y-61166997D01*
X185423875Y-61273369D01*
X185431755Y-61380328D01*
X185435170Y-61516419D01*
X185452147Y-61653943D01*
X185484947Y-61753487D01*
X185484948Y-120955065D01*
X185451212Y-121059589D01*
X185435075Y-121197213D01*
X185434956Y-121207126D01*
X185434856Y-121227077D01*
X185430770Y-121346869D01*
X185421642Y-121457598D01*
X185408515Y-121559051D01*
X185391212Y-121657961D01*
X185369750Y-121755248D01*
X185345471Y-121846560D01*
X185317708Y-121935860D01*
X185287518Y-122020682D01*
X185252906Y-122106787D01*
X185217567Y-122185574D01*
X185179099Y-122263275D01*
X185138761Y-122337593D01*
X185095704Y-122410359D01*
X185049976Y-122481513D01*
X185002871Y-122549250D01*
X184953447Y-122615137D01*
X184899033Y-122682397D01*
X184844984Y-122744423D01*
X184788606Y-122804629D01*
X184730092Y-122862799D01*
X184669532Y-122918841D01*
X184607183Y-122972527D01*
X184539587Y-123026551D01*
X184473436Y-123075559D01*
X184405602Y-123122127D01*
X184331093Y-123169297D01*
X184252949Y-123214613D01*
X184178670Y-123253972D01*
X184098705Y-123292525D01*
X184019279Y-123327109D01*
X183936490Y-123359403D01*
X183850739Y-123388986D01*
X183757986Y-123416753D01*
X183667187Y-123439830D01*
X183571859Y-123459818D01*
X183472788Y-123476131D01*
X183370029Y-123488382D01*
X183262084Y-123496239D01*
X183128865Y-123499518D01*
X182991334Y-123516429D01*
X182891405Y-123549303D01*
X89400905Y-123549303D01*
X89295776Y-123515457D01*
X89158139Y-123499421D01*
X89148226Y-123499310D01*
X89132949Y-123499245D01*
X89011067Y-123495248D01*
X88902269Y-123486418D01*
X88796480Y-123472814D01*
X88698604Y-123455712D01*
X88604666Y-123435095D01*
X88513966Y-123411168D01*
X88425171Y-123383779D01*
X88337631Y-123352800D01*
X88255444Y-123319965D01*
X88175172Y-123284210D01*
X88093908Y-123244131D01*
X88019481Y-123203798D01*
X87945614Y-123160119D01*
X87871680Y-123112535D01*
X87803783Y-123065176D01*
X87737937Y-123015629D01*
X87671914Y-122962083D01*
X87609826Y-122907877D01*
X87550009Y-122851770D01*
X87491889Y-122793218D01*
X87435873Y-122732596D01*
X87382144Y-122670102D01*
X87329385Y-122604041D01*
X87280310Y-122537797D01*
X87233666Y-122469852D01*
X87187310Y-122396689D01*
X87144796Y-122323698D01*
X87105091Y-122249310D01*
X87065478Y-122167703D01*
X87030621Y-122088126D01*
X86997648Y-122004049D01*
X86967733Y-121917747D01*
X86940923Y-121828854D01*
X86916378Y-121732975D01*
X86896289Y-121637483D01*
X86879918Y-121538447D01*
X86867660Y-121436197D01*
X86859761Y-121328978D01*
X86856349Y-121192897D01*
X86839375Y-121055373D01*
X86806572Y-120955814D01*
X86806572Y-111136842D01*
X101185000Y-111136842D01*
X101185000Y-111468758D01*
X101249754Y-111794296D01*
X101376772Y-112100947D01*
X101561175Y-112376925D01*
X101795875Y-112611625D01*
X102071853Y-112796028D01*
X102378504Y-112923046D01*
X102704042Y-112987800D01*
X103035958Y-112987800D01*
X103361496Y-112923046D01*
X103668147Y-112796028D01*
X103944125Y-112611625D01*
X104178825Y-112376925D01*
X104363228Y-112100947D01*
X104490246Y-111794296D01*
X104555000Y-111468758D01*
X104555000Y-111136842D01*
X104490246Y-110811304D01*
X104363228Y-110504653D01*
X104178825Y-110228675D01*
X103944125Y-109993975D01*
X103668147Y-109809572D01*
X103361496Y-109682554D01*
X103035958Y-109617800D01*
X102704042Y-109617800D01*
X102378504Y-109682554D01*
X102071853Y-109809572D01*
X101795875Y-109993975D01*
X101561175Y-110228675D01*
X101376772Y-110504653D01*
X101249754Y-110811304D01*
X101185000Y-111136842D01*
X86806572Y-111136842D01*
X86806572Y-93646000D01*
X87871686Y-93646000D01*
X87875001Y-93679657D01*
X87875000Y-107612353D01*
X87871686Y-107646000D01*
X87884912Y-107780283D01*
X87924081Y-107909406D01*
X87987688Y-108028407D01*
X88073289Y-108132711D01*
X88134214Y-108182711D01*
X88177593Y-108218312D01*
X88296594Y-108281919D01*
X88425717Y-108321088D01*
X88560000Y-108334314D01*
X88593647Y-108331000D01*
X102526353Y-108331000D01*
X102560000Y-108334314D01*
X102694283Y-108321088D01*
X102823406Y-108281919D01*
X102942407Y-108218312D01*
X103046711Y-108132711D01*
X103132312Y-108028407D01*
X103195919Y-107909406D01*
X103235088Y-107780283D01*
X103243389Y-107696000D01*
X107021686Y-107696000D01*
X107025001Y-107729657D01*
X107025000Y-121662353D01*
X107021686Y-121696000D01*
X107034912Y-121830283D01*
X107074081Y-121959406D01*
X107137688Y-122078407D01*
X107223289Y-122182711D01*
X107322345Y-122264005D01*
X107327593Y-122268312D01*
X107446594Y-122331919D01*
X107575717Y-122371088D01*
X107710000Y-122384314D01*
X107743647Y-122381000D01*
X121676353Y-122381000D01*
X121710000Y-122384314D01*
X121844283Y-122371088D01*
X121973406Y-122331919D01*
X122092407Y-122268312D01*
X122196711Y-122182711D01*
X122282312Y-122078407D01*
X122345919Y-121959406D01*
X122385088Y-121830283D01*
X122395000Y-121729647D01*
X122395000Y-121729646D01*
X122398314Y-121696000D01*
X122395000Y-121662353D01*
X122395000Y-107729647D01*
X122398314Y-107696000D01*
X126071686Y-107696000D01*
X126075001Y-107729657D01*
X126075000Y-121662353D01*
X126071686Y-121696000D01*
X126084912Y-121830283D01*
X126124081Y-121959406D01*
X126187688Y-122078407D01*
X126273289Y-122182711D01*
X126372345Y-122264005D01*
X126377593Y-122268312D01*
X126496594Y-122331919D01*
X126625717Y-122371088D01*
X126760000Y-122384314D01*
X126793647Y-122381000D01*
X140726353Y-122381000D01*
X140760000Y-122384314D01*
X140894283Y-122371088D01*
X141023406Y-122331919D01*
X141142407Y-122268312D01*
X141246711Y-122182711D01*
X141332312Y-122078407D01*
X141395919Y-121959406D01*
X141435088Y-121830283D01*
X141445000Y-121729647D01*
X141445000Y-121729646D01*
X141448314Y-121696000D01*
X141445000Y-121662353D01*
X141445000Y-107729647D01*
X141448314Y-107696000D01*
X141443390Y-107646000D01*
X145071686Y-107646000D01*
X145075001Y-107679657D01*
X145075000Y-121612353D01*
X145071686Y-121646000D01*
X145084912Y-121780283D01*
X145124081Y-121909406D01*
X145187688Y-122028407D01*
X145273289Y-122132711D01*
X145349619Y-122195354D01*
X145377593Y-122218312D01*
X145496594Y-122281919D01*
X145625717Y-122321088D01*
X145760000Y-122334314D01*
X145793647Y-122331000D01*
X159726353Y-122331000D01*
X159760000Y-122334314D01*
X159894283Y-122321088D01*
X160023406Y-122281919D01*
X160142407Y-122218312D01*
X160246711Y-122132711D01*
X160332312Y-122028407D01*
X160395919Y-121909406D01*
X160435088Y-121780283D01*
X160445000Y-121679647D01*
X160445000Y-121679646D01*
X160448314Y-121646000D01*
X160445000Y-121612353D01*
X160445000Y-117500729D01*
X164999947Y-117500729D01*
X165004361Y-117635589D01*
X165035001Y-117766998D01*
X165090690Y-117889903D01*
X165169284Y-117999583D01*
X165267768Y-118091823D01*
X165382353Y-118163076D01*
X165508638Y-118210607D01*
X165541998Y-118216115D01*
X178999956Y-121822164D01*
X179031599Y-121834074D01*
X179064956Y-121839581D01*
X179164729Y-121856054D01*
X179299590Y-121851639D01*
X179430998Y-121820999D01*
X179553904Y-121765310D01*
X179663584Y-121686716D01*
X179755823Y-121588232D01*
X179827077Y-121473647D01*
X179874607Y-121347362D01*
X179880115Y-121313999D01*
X183486164Y-107856046D01*
X183498074Y-107824401D01*
X183520054Y-107691271D01*
X183515639Y-107556410D01*
X183484999Y-107425001D01*
X183429311Y-107302096D01*
X183350716Y-107192416D01*
X183252233Y-107100177D01*
X183137647Y-107028923D01*
X183043006Y-106993302D01*
X183042998Y-106993300D01*
X183011362Y-106981393D01*
X182978011Y-106975887D01*
X169520048Y-103369837D01*
X169488401Y-103357926D01*
X169355271Y-103335946D01*
X169220410Y-103340361D01*
X169089001Y-103371001D01*
X168966096Y-103426689D01*
X168856416Y-103505284D01*
X168764177Y-103603767D01*
X168692923Y-103718353D01*
X168657302Y-103812994D01*
X168657299Y-103813004D01*
X168645393Y-103844638D01*
X168639887Y-103877986D01*
X165033836Y-117335954D01*
X165021926Y-117367599D01*
X165016419Y-117400957D01*
X164999947Y-117500729D01*
X160445000Y-117500729D01*
X160445000Y-111136842D01*
X162703800Y-111136842D01*
X162703800Y-111468758D01*
X162768554Y-111794296D01*
X162895572Y-112100947D01*
X163079975Y-112376925D01*
X163314675Y-112611625D01*
X163590653Y-112796028D01*
X163897304Y-112923046D01*
X164222842Y-112987800D01*
X164554758Y-112987800D01*
X164880296Y-112923046D01*
X165186947Y-112796028D01*
X165462925Y-112611625D01*
X165697625Y-112376925D01*
X165882028Y-112100947D01*
X166009046Y-111794296D01*
X166073800Y-111468758D01*
X166073800Y-111136842D01*
X166009046Y-110811304D01*
X165882028Y-110504653D01*
X165697625Y-110228675D01*
X165462925Y-109993975D01*
X165186947Y-109809572D01*
X164880296Y-109682554D01*
X164554758Y-109617800D01*
X164222842Y-109617800D01*
X163897304Y-109682554D01*
X163590653Y-109809572D01*
X163314675Y-109993975D01*
X163079975Y-110228675D01*
X162895572Y-110504653D01*
X162768554Y-110811304D01*
X162703800Y-111136842D01*
X160445000Y-111136842D01*
X160445000Y-107679646D01*
X160448314Y-107646000D01*
X160435088Y-107511717D01*
X160395919Y-107382594D01*
X160332312Y-107263593D01*
X160246711Y-107159289D01*
X160142407Y-107073688D01*
X160023406Y-107010081D01*
X159894283Y-106970912D01*
X159793647Y-106961000D01*
X159760000Y-106957686D01*
X159726353Y-106961000D01*
X145793647Y-106961000D01*
X145760000Y-106957686D01*
X145726353Y-106961000D01*
X145625717Y-106970912D01*
X145496594Y-107010081D01*
X145377593Y-107073688D01*
X145273289Y-107159289D01*
X145187688Y-107263593D01*
X145124081Y-107382594D01*
X145084912Y-107511717D01*
X145071686Y-107646000D01*
X141443390Y-107646000D01*
X141435088Y-107561717D01*
X141395919Y-107432594D01*
X141332312Y-107313593D01*
X141246711Y-107209289D01*
X141142407Y-107123688D01*
X141023406Y-107060081D01*
X140894283Y-107020912D01*
X140793647Y-107011000D01*
X140760000Y-107007686D01*
X140726353Y-107011000D01*
X126793647Y-107011000D01*
X126760000Y-107007686D01*
X126726353Y-107011000D01*
X126625717Y-107020912D01*
X126496594Y-107060081D01*
X126377593Y-107123688D01*
X126273289Y-107209289D01*
X126187688Y-107313593D01*
X126124081Y-107432594D01*
X126084912Y-107561717D01*
X126071686Y-107696000D01*
X122398314Y-107696000D01*
X122385088Y-107561717D01*
X122345919Y-107432594D01*
X122282312Y-107313593D01*
X122196711Y-107209289D01*
X122092407Y-107123688D01*
X121973406Y-107060081D01*
X121844283Y-107020912D01*
X121743647Y-107011000D01*
X121710000Y-107007686D01*
X121676353Y-107011000D01*
X107743647Y-107011000D01*
X107710000Y-107007686D01*
X107676353Y-107011000D01*
X107575717Y-107020912D01*
X107446594Y-107060081D01*
X107327593Y-107123688D01*
X107223289Y-107209289D01*
X107137688Y-107313593D01*
X107074081Y-107432594D01*
X107034912Y-107561717D01*
X107021686Y-107696000D01*
X103243389Y-107696000D01*
X103245000Y-107679647D01*
X103245000Y-107679646D01*
X103248314Y-107646000D01*
X103245000Y-107612353D01*
X103245000Y-93679647D01*
X103248314Y-93646000D01*
X103235088Y-93511717D01*
X103195919Y-93382594D01*
X103132312Y-93263593D01*
X103046711Y-93159289D01*
X102942407Y-93073688D01*
X102823406Y-93010081D01*
X102694283Y-92970912D01*
X102593647Y-92961000D01*
X102560000Y-92957686D01*
X102526353Y-92961000D01*
X88593647Y-92961000D01*
X88560000Y-92957686D01*
X88526353Y-92961000D01*
X88425717Y-92970912D01*
X88296594Y-93010081D01*
X88177593Y-93073688D01*
X88073289Y-93159289D01*
X87987688Y-93263593D01*
X87924081Y-93382594D01*
X87884912Y-93511717D01*
X87871686Y-93646000D01*
X86806572Y-93646000D01*
X86806572Y-74596000D01*
X87921686Y-74596000D01*
X87925001Y-74629657D01*
X87925000Y-88562353D01*
X87921686Y-88596000D01*
X87934912Y-88730283D01*
X87974081Y-88859406D01*
X88037688Y-88978407D01*
X88123289Y-89082711D01*
X88227593Y-89168312D01*
X88346594Y-89231919D01*
X88475717Y-89271088D01*
X88610000Y-89284314D01*
X88643647Y-89281000D01*
X102576353Y-89281000D01*
X102610000Y-89284314D01*
X102744283Y-89271088D01*
X102873406Y-89231919D01*
X102992407Y-89168312D01*
X103096711Y-89082711D01*
X103182312Y-88978407D01*
X103245919Y-88859406D01*
X103285088Y-88730283D01*
X103295000Y-88629647D01*
X103295000Y-88629646D01*
X103298314Y-88596000D01*
X103295000Y-88562353D01*
X103295000Y-83996000D01*
X107071686Y-83996000D01*
X107075001Y-84029657D01*
X107075000Y-97962353D01*
X107071686Y-97996000D01*
X107084912Y-98130283D01*
X107124081Y-98259406D01*
X107187688Y-98378407D01*
X107273289Y-98482711D01*
X107377593Y-98568312D01*
X107496594Y-98631919D01*
X107625717Y-98671088D01*
X107760000Y-98684314D01*
X107793647Y-98681000D01*
X121726353Y-98681000D01*
X121760000Y-98684314D01*
X121894283Y-98671088D01*
X122023406Y-98631919D01*
X122142407Y-98568312D01*
X122246711Y-98482711D01*
X122332312Y-98378407D01*
X122395919Y-98259406D01*
X122435088Y-98130283D01*
X122445000Y-98029647D01*
X122445000Y-98029646D01*
X122448314Y-97996000D01*
X122445000Y-97962353D01*
X122445000Y-84029647D01*
X122448314Y-83996000D01*
X122435088Y-83861717D01*
X122395919Y-83732594D01*
X122332312Y-83613593D01*
X122246711Y-83509289D01*
X122142407Y-83423688D01*
X122023406Y-83360081D01*
X121894283Y-83320912D01*
X121793647Y-83311000D01*
X121760000Y-83307686D01*
X121726353Y-83311000D01*
X107793647Y-83311000D01*
X107760000Y-83307686D01*
X107726353Y-83311000D01*
X107625717Y-83320912D01*
X107496594Y-83360081D01*
X107377593Y-83423688D01*
X107273289Y-83509289D01*
X107187688Y-83613593D01*
X107124081Y-83732594D01*
X107084912Y-83861717D01*
X107071686Y-83996000D01*
X103295000Y-83996000D01*
X103295000Y-74629647D01*
X103298314Y-74596000D01*
X103285088Y-74461717D01*
X103245919Y-74332594D01*
X103182312Y-74213593D01*
X103096711Y-74109289D01*
X102992407Y-74023688D01*
X102873406Y-73960081D01*
X102744283Y-73920912D01*
X102643647Y-73911000D01*
X102610000Y-73907686D01*
X102576353Y-73911000D01*
X88643647Y-73911000D01*
X88610000Y-73907686D01*
X88576353Y-73911000D01*
X88475717Y-73920912D01*
X88346594Y-73960081D01*
X88227593Y-74023688D01*
X88123289Y-74109289D01*
X88037688Y-74213593D01*
X87974081Y-74332594D01*
X87934912Y-74461717D01*
X87921686Y-74596000D01*
X86806572Y-74596000D01*
X86806572Y-70700042D01*
X101185000Y-70700042D01*
X101185000Y-71031958D01*
X101249754Y-71357496D01*
X101376772Y-71664147D01*
X101561175Y-71940125D01*
X101795875Y-72174825D01*
X102071853Y-72359228D01*
X102378504Y-72486246D01*
X102704042Y-72551000D01*
X103035958Y-72551000D01*
X103361496Y-72486246D01*
X103668147Y-72359228D01*
X103944125Y-72174825D01*
X104178825Y-71940125D01*
X104363228Y-71664147D01*
X104490246Y-71357496D01*
X104555000Y-71031958D01*
X104555000Y-70700042D01*
X104490246Y-70374504D01*
X104363228Y-70067853D01*
X104178825Y-69791875D01*
X103944125Y-69557175D01*
X103668147Y-69372772D01*
X103361496Y-69245754D01*
X103035958Y-69181000D01*
X102704042Y-69181000D01*
X102378504Y-69245754D01*
X102071853Y-69372772D01*
X101795875Y-69557175D01*
X101561175Y-69791875D01*
X101376772Y-70067853D01*
X101249754Y-70374504D01*
X101185000Y-70700042D01*
X86806572Y-70700042D01*
X86806572Y-65096000D01*
X107121686Y-65096000D01*
X107125001Y-65129657D01*
X107125000Y-79062353D01*
X107121686Y-79096000D01*
X107134912Y-79230283D01*
X107174081Y-79359406D01*
X107237688Y-79478407D01*
X107323289Y-79582711D01*
X107427593Y-79668312D01*
X107546594Y-79731919D01*
X107675717Y-79771088D01*
X107810000Y-79784314D01*
X107843647Y-79781000D01*
X121776353Y-79781000D01*
X121810000Y-79784314D01*
X121944283Y-79771088D01*
X122073406Y-79731919D01*
X122192407Y-79668312D01*
X122296711Y-79582711D01*
X122382312Y-79478407D01*
X122445919Y-79359406D01*
X122485088Y-79230283D01*
X122495000Y-79129647D01*
X122495000Y-79129646D01*
X122498314Y-79096000D01*
X122495000Y-79062353D01*
X122495000Y-79046000D01*
X126071686Y-79046000D01*
X126075001Y-79079657D01*
X126075000Y-93012353D01*
X126071686Y-93046000D01*
X126084912Y-93180283D01*
X126124081Y-93309406D01*
X126187688Y-93428407D01*
X126273289Y-93532711D01*
X126370332Y-93612353D01*
X126377593Y-93618312D01*
X126496594Y-93681919D01*
X126625717Y-93721088D01*
X126760000Y-93734314D01*
X126793647Y-93731000D01*
X140726353Y-93731000D01*
X140760000Y-93734314D01*
X140894283Y-93721088D01*
X141023406Y-93681919D01*
X141142407Y-93618312D01*
X141246711Y-93532711D01*
X141332312Y-93428407D01*
X141395919Y-93309406D01*
X141435088Y-93180283D01*
X141445000Y-93079647D01*
X141445000Y-93079646D01*
X141448314Y-93046000D01*
X141445000Y-93012353D01*
X141445000Y-88546000D01*
X145021686Y-88546000D01*
X145025001Y-88579657D01*
X145025000Y-102512353D01*
X145021686Y-102546000D01*
X145034912Y-102680283D01*
X145074081Y-102809406D01*
X145137688Y-102928407D01*
X145223289Y-103032711D01*
X145327593Y-103118312D01*
X145446594Y-103181919D01*
X145575717Y-103221088D01*
X145710000Y-103234314D01*
X145743647Y-103231000D01*
X159676353Y-103231000D01*
X159710000Y-103234314D01*
X159844283Y-103221088D01*
X159973406Y-103181919D01*
X160092407Y-103118312D01*
X160196711Y-103032711D01*
X160282312Y-102928407D01*
X160345919Y-102809406D01*
X160385088Y-102680283D01*
X160395000Y-102579647D01*
X160395000Y-102579646D01*
X160398314Y-102546000D01*
X160395000Y-102512353D01*
X160395000Y-88579647D01*
X160398314Y-88546000D01*
X160385088Y-88411717D01*
X160345919Y-88282594D01*
X160282312Y-88163593D01*
X160196711Y-88059289D01*
X160092407Y-87973688D01*
X159973406Y-87910081D01*
X159844283Y-87870912D01*
X159743647Y-87861000D01*
X159710000Y-87857686D01*
X159676353Y-87861000D01*
X145743647Y-87861000D01*
X145710000Y-87857686D01*
X145676353Y-87861000D01*
X145575717Y-87870912D01*
X145446594Y-87910081D01*
X145327593Y-87973688D01*
X145223289Y-88059289D01*
X145137688Y-88163593D01*
X145074081Y-88282594D01*
X145034912Y-88411717D01*
X145021686Y-88546000D01*
X141445000Y-88546000D01*
X141445000Y-79079647D01*
X141448314Y-79046000D01*
X141435088Y-78911717D01*
X141395919Y-78782594D01*
X141332312Y-78663593D01*
X141246711Y-78559289D01*
X141142407Y-78473688D01*
X141023406Y-78410081D01*
X140894283Y-78370912D01*
X140793647Y-78361000D01*
X140760000Y-78357686D01*
X140726353Y-78361000D01*
X126793647Y-78361000D01*
X126760000Y-78357686D01*
X126726353Y-78361000D01*
X126625717Y-78370912D01*
X126496594Y-78410081D01*
X126377593Y-78473688D01*
X126273289Y-78559289D01*
X126187688Y-78663593D01*
X126124081Y-78782594D01*
X126084912Y-78911717D01*
X126071686Y-79046000D01*
X122495000Y-79046000D01*
X122495000Y-65129647D01*
X122498314Y-65096000D01*
X122485088Y-64961717D01*
X122445919Y-64832594D01*
X122382312Y-64713593D01*
X122296711Y-64609289D01*
X122192407Y-64523688D01*
X122073406Y-64460081D01*
X121944283Y-64420912D01*
X121843647Y-64411000D01*
X121810000Y-64407686D01*
X121776353Y-64411000D01*
X107843647Y-64411000D01*
X107810000Y-64407686D01*
X107776353Y-64411000D01*
X107675717Y-64420912D01*
X107546594Y-64460081D01*
X107427593Y-64523688D01*
X107323289Y-64609289D01*
X107237688Y-64713593D01*
X107174081Y-64832594D01*
X107134912Y-64961717D01*
X107121686Y-65096000D01*
X86806572Y-65096000D01*
X86806572Y-61499454D01*
X86806591Y-61490192D01*
X86807152Y-61446736D01*
X86808275Y-61408793D01*
X86809984Y-61371221D01*
X86812270Y-61333960D01*
X86815127Y-61296959D01*
X86818765Y-61258079D01*
X86823289Y-61217181D01*
X86827634Y-61182982D01*
X86832857Y-61146370D01*
X86838261Y-61112235D01*
X86844568Y-61075995D01*
X86851102Y-61041596D01*
X86857924Y-61008380D01*
X86865392Y-60974563D01*
X86872956Y-60942529D01*
X86881170Y-60909853D01*
X86890587Y-60874641D01*
X86899333Y-60843780D01*
X86908734Y-60812297D01*
X86918107Y-60782425D01*
X86927681Y-60753289D01*
X86938700Y-60721261D01*
X86949070Y-60692430D01*
X86959641Y-60664212D01*
X86971283Y-60634365D01*
X86984022Y-60603025D01*
X86998081Y-60569863D01*
X87010047Y-60542712D01*
X87023396Y-60513489D01*
X87036222Y-60486380D01*
X87049669Y-60458881D01*
X87062981Y-60432533D01*
X87076905Y-60405827D01*
X87091061Y-60379510D01*
X87106678Y-60351372D01*
X87120723Y-60326820D01*
X87135771Y-60301265D01*
X87151276Y-60275685D01*
X87167152Y-60250231D01*
X87183636Y-60224543D01*
X87199019Y-60201222D01*
X87215533Y-60176840D01*
X87233809Y-60150602D01*
X87250915Y-60126713D01*
X87267756Y-60103798D01*
X87285704Y-60080002D01*
X87305336Y-60054671D01*
X87312233Y-60046000D01*
X126021686Y-60046000D01*
X126025001Y-60079657D01*
X126025000Y-74012353D01*
X126021686Y-74046000D01*
X126034912Y-74180283D01*
X126074081Y-74309406D01*
X126137688Y-74428407D01*
X126223289Y-74532711D01*
X126284071Y-74582594D01*
X126327593Y-74618312D01*
X126446594Y-74681919D01*
X126575717Y-74721088D01*
X126710000Y-74734314D01*
X126743647Y-74731000D01*
X140676353Y-74731000D01*
X140710000Y-74734314D01*
X140844283Y-74721088D01*
X140973406Y-74681919D01*
X141092407Y-74618312D01*
X141196711Y-74532711D01*
X141282312Y-74428407D01*
X141345919Y-74309406D01*
X141385088Y-74180283D01*
X141395000Y-74079647D01*
X141395000Y-74079646D01*
X141398314Y-74046000D01*
X141395000Y-74012353D01*
X141395000Y-69546000D01*
X145071686Y-69546000D01*
X145075001Y-69579657D01*
X145075000Y-83512353D01*
X145071686Y-83546000D01*
X145084912Y-83680283D01*
X145124081Y-83809406D01*
X145187688Y-83928407D01*
X145273289Y-84032711D01*
X145366740Y-84109405D01*
X145377593Y-84118312D01*
X145496594Y-84181919D01*
X145625717Y-84221088D01*
X145760000Y-84234314D01*
X145793647Y-84231000D01*
X159726353Y-84231000D01*
X159760000Y-84234314D01*
X159894283Y-84221088D01*
X160023406Y-84181919D01*
X160142407Y-84118312D01*
X160246711Y-84032711D01*
X160332312Y-83928407D01*
X160376359Y-83846000D01*
X167521686Y-83846000D01*
X167525001Y-83879657D01*
X167525000Y-96262353D01*
X167521686Y-96296000D01*
X167534912Y-96430283D01*
X167574081Y-96559406D01*
X167637688Y-96678407D01*
X167723289Y-96782711D01*
X167827593Y-96868312D01*
X167946594Y-96931919D01*
X168075717Y-96971088D01*
X168210000Y-96984314D01*
X168243647Y-96981000D01*
X180226353Y-96981000D01*
X180260000Y-96984314D01*
X180394283Y-96971088D01*
X180523406Y-96931919D01*
X180642407Y-96868312D01*
X180746711Y-96782711D01*
X180832312Y-96678407D01*
X180895919Y-96559406D01*
X180935088Y-96430283D01*
X180945000Y-96329647D01*
X180945000Y-96329646D01*
X180948314Y-96296000D01*
X180945000Y-96262353D01*
X180945000Y-83879646D01*
X180948314Y-83846000D01*
X180935088Y-83711717D01*
X180895919Y-83582594D01*
X180832312Y-83463593D01*
X180746711Y-83359289D01*
X180642407Y-83273688D01*
X180523406Y-83210081D01*
X180394283Y-83170912D01*
X180293647Y-83161000D01*
X180260000Y-83157686D01*
X180226353Y-83161000D01*
X177995000Y-83161000D01*
X177995000Y-82029647D01*
X177998314Y-81996000D01*
X177985088Y-81861717D01*
X177945919Y-81732594D01*
X177882312Y-81613593D01*
X177796711Y-81509289D01*
X177692407Y-81423688D01*
X177573406Y-81360081D01*
X177444283Y-81320912D01*
X177343647Y-81311000D01*
X177310000Y-81307686D01*
X177276353Y-81311000D01*
X171193647Y-81311000D01*
X171160000Y-81307686D01*
X171126353Y-81311000D01*
X171025717Y-81320912D01*
X170896594Y-81360081D01*
X170777593Y-81423688D01*
X170673289Y-81509289D01*
X170587688Y-81613593D01*
X170524081Y-81732594D01*
X170484912Y-81861717D01*
X170471686Y-81996000D01*
X170475001Y-82029657D01*
X170475000Y-83161000D01*
X168243647Y-83161000D01*
X168210000Y-83157686D01*
X168176353Y-83161000D01*
X168075717Y-83170912D01*
X167946594Y-83210081D01*
X167827593Y-83273688D01*
X167723289Y-83359289D01*
X167637688Y-83463593D01*
X167574081Y-83582594D01*
X167534912Y-83711717D01*
X167521686Y-83846000D01*
X160376359Y-83846000D01*
X160395919Y-83809406D01*
X160435088Y-83680283D01*
X160445000Y-83579647D01*
X160445000Y-83579646D01*
X160448314Y-83546000D01*
X160445000Y-83512353D01*
X160445000Y-70700042D01*
X162703800Y-70700042D01*
X162703800Y-71031958D01*
X162768554Y-71357496D01*
X162895572Y-71664147D01*
X163079975Y-71940125D01*
X163314675Y-72174825D01*
X163590653Y-72359228D01*
X163897304Y-72486246D01*
X164222842Y-72551000D01*
X164554758Y-72551000D01*
X164880296Y-72486246D01*
X165186947Y-72359228D01*
X165462925Y-72174825D01*
X165697625Y-71940125D01*
X165882028Y-71664147D01*
X166009046Y-71357496D01*
X166073800Y-71031958D01*
X166073800Y-70700042D01*
X166009046Y-70374504D01*
X165882028Y-70067853D01*
X165697625Y-69791875D01*
X165462925Y-69557175D01*
X165186947Y-69372772D01*
X164880296Y-69245754D01*
X164554758Y-69181000D01*
X164222842Y-69181000D01*
X163897304Y-69245754D01*
X163590653Y-69372772D01*
X163314675Y-69557175D01*
X163079975Y-69791875D01*
X162895572Y-70067853D01*
X162768554Y-70374504D01*
X162703800Y-70700042D01*
X160445000Y-70700042D01*
X160445000Y-69579647D01*
X160448314Y-69546000D01*
X160435088Y-69411717D01*
X160395919Y-69282594D01*
X160332312Y-69163593D01*
X160246711Y-69059289D01*
X160142407Y-68973688D01*
X160023406Y-68910081D01*
X159894283Y-68870912D01*
X159793647Y-68861000D01*
X159760000Y-68857686D01*
X159726353Y-68861000D01*
X145793647Y-68861000D01*
X145760000Y-68857686D01*
X145726353Y-68861000D01*
X145625717Y-68870912D01*
X145496594Y-68910081D01*
X145377593Y-68973688D01*
X145273289Y-69059289D01*
X145187688Y-69163593D01*
X145124081Y-69282594D01*
X145084912Y-69411717D01*
X145071686Y-69546000D01*
X141395000Y-69546000D01*
X141395000Y-62396000D01*
X167671686Y-62396000D01*
X167675001Y-62429657D01*
X167675000Y-74812353D01*
X167671686Y-74846000D01*
X167684912Y-74980283D01*
X167724081Y-75109406D01*
X167787688Y-75228407D01*
X167873289Y-75332711D01*
X167977593Y-75418312D01*
X168096594Y-75481919D01*
X168225717Y-75521088D01*
X168360000Y-75534314D01*
X168393647Y-75531000D01*
X180376353Y-75531000D01*
X180410000Y-75534314D01*
X180544283Y-75521088D01*
X180673406Y-75481919D01*
X180792407Y-75418312D01*
X180896711Y-75332711D01*
X180982312Y-75228407D01*
X181045919Y-75109406D01*
X181085088Y-74980283D01*
X181095000Y-74879647D01*
X181095000Y-74879646D01*
X181098314Y-74846000D01*
X181095000Y-74812353D01*
X181095000Y-62429646D01*
X181098314Y-62396000D01*
X181085088Y-62261717D01*
X181045919Y-62132594D01*
X180982312Y-62013593D01*
X180896711Y-61909289D01*
X180792407Y-61823688D01*
X180673406Y-61760081D01*
X180544283Y-61720912D01*
X180443647Y-61711000D01*
X180410000Y-61707686D01*
X180376353Y-61711000D01*
X178145000Y-61711000D01*
X178145000Y-60579647D01*
X178148314Y-60546000D01*
X178144928Y-60511617D01*
X178135088Y-60411717D01*
X178095919Y-60282594D01*
X178032312Y-60163593D01*
X178029930Y-60160690D01*
X177946711Y-60059289D01*
X177842407Y-59973688D01*
X177723406Y-59910081D01*
X177594283Y-59870912D01*
X177493647Y-59861000D01*
X177460000Y-59857686D01*
X177426353Y-59861000D01*
X171343647Y-59861000D01*
X171310000Y-59857686D01*
X171276353Y-59861000D01*
X171175717Y-59870912D01*
X171046594Y-59910081D01*
X170927593Y-59973688D01*
X170823289Y-60059289D01*
X170737688Y-60163593D01*
X170674081Y-60282594D01*
X170634912Y-60411717D01*
X170621686Y-60546000D01*
X170625001Y-60579657D01*
X170625000Y-61711000D01*
X168393647Y-61711000D01*
X168360000Y-61707686D01*
X168326353Y-61711000D01*
X168225717Y-61720912D01*
X168096594Y-61760081D01*
X167977593Y-61823688D01*
X167873289Y-61909289D01*
X167787688Y-62013593D01*
X167724081Y-62132594D01*
X167684912Y-62261717D01*
X167671686Y-62396000D01*
X141395000Y-62396000D01*
X141395000Y-60079647D01*
X141398314Y-60046000D01*
X141390685Y-59968538D01*
X141385088Y-59911717D01*
X141345919Y-59782594D01*
X141282312Y-59663593D01*
X141273277Y-59652584D01*
X141196711Y-59559289D01*
X141092407Y-59473688D01*
X140973406Y-59410081D01*
X140844283Y-59370912D01*
X140743647Y-59361000D01*
X140710000Y-59357686D01*
X140676353Y-59361000D01*
X126743647Y-59361000D01*
X126710000Y-59357686D01*
X126676353Y-59361000D01*
X126575717Y-59370912D01*
X126446594Y-59410081D01*
X126327593Y-59473688D01*
X126223289Y-59559289D01*
X126137688Y-59663593D01*
X126074081Y-59782594D01*
X126034912Y-59911717D01*
X126021686Y-60046000D01*
X87312233Y-60046000D01*
X87322603Y-60032965D01*
X87341467Y-60009847D01*
X87362924Y-59984247D01*
X87380487Y-59963846D01*
X87413765Y-59926425D01*
X87432171Y-59906386D01*
X87452400Y-59884901D01*
X87471729Y-59864866D01*
X87492949Y-59843408D01*
X87512825Y-59823793D01*
X87534444Y-59802978D01*
X87554833Y-59783826D01*
X87575913Y-59764497D01*
X87596404Y-59746152D01*
X87619082Y-59726345D01*
X87640366Y-59708210D01*
X87661968Y-59690247D01*
X87683891Y-59672452D01*
X87705761Y-59655133D01*
X87729541Y-59636775D01*
X87753583Y-59618697D01*
X87776074Y-59602216D01*
X87800163Y-59585015D01*
X87823605Y-59568711D01*
X87846880Y-59552940D01*
X87870316Y-59537463D01*
X87896103Y-59520895D01*
X87920699Y-59505532D01*
X87944920Y-59490815D01*
X87972483Y-59474548D01*
X87999746Y-59458958D01*
X88032949Y-59440618D01*
X88059044Y-59426686D01*
X88085634Y-59412932D01*
X88114197Y-59398634D01*
X88142990Y-59384711D01*
X88170646Y-59371793D01*
X88197636Y-59359612D01*
X88225812Y-59347332D01*
X88253237Y-59335804D01*
X88281281Y-59324441D01*
X88309485Y-59313438D01*
X88337759Y-59302834D01*
X88367933Y-59291979D01*
X88402087Y-59280252D01*
X88434175Y-59269776D01*
X88468840Y-59259033D01*
X88499638Y-59249984D01*
X88531200Y-59241193D01*
X88563643Y-59232654D01*
X88595174Y-59224832D01*
X88627171Y-59217376D01*
X88663071Y-59209573D01*
X88695156Y-59203100D01*
X88731493Y-59196335D01*
X88765041Y-59190616D01*
X88799583Y-59185254D01*
X88834228Y-59180404D01*
X88868913Y-59176079D01*
X88905870Y-59172046D01*
X88942933Y-59168591D01*
X88979468Y-59165767D01*
X89027853Y-59162898D01*
X89068004Y-59161260D01*
X89106133Y-59160337D01*
X89147906Y-59160000D01*
X182890324Y-59160000D01*
X182997334Y-59194184D01*
X182997334Y-59194184D01*
G37*
X182997334Y-59194184D02*
X183124713Y-59208733D01*
X183129246Y-59209375D01*
X183130827Y-59209432D01*
X183135006Y-59209909D01*
X183144919Y-59209999D01*
X183148720Y-59210007D01*
X183271712Y-59213564D01*
X183382147Y-59222145D01*
X183487935Y-59235409D01*
X183586324Y-59252291D01*
X183681550Y-59272927D01*
X183775671Y-59297592D01*
X183864420Y-59324870D01*
X183949802Y-59354955D01*
X184036367Y-59389456D01*
X184116669Y-59425224D01*
X184193893Y-59463228D01*
X184268774Y-59503641D01*
X184341621Y-59546523D01*
X184412769Y-59592022D01*
X184482238Y-59640139D01*
X184548048Y-59689350D01*
X184615823Y-59744025D01*
X184677236Y-59797378D01*
X184736420Y-59852583D01*
X184796173Y-59912467D01*
X184852190Y-59972820D01*
X184906469Y-60035680D01*
X184957829Y-60099660D01*
X185007145Y-60165814D01*
X185055081Y-60235249D01*
X185101527Y-60308188D01*
X185144054Y-60380827D01*
X185185865Y-60458873D01*
X185223923Y-60536996D01*
X185259395Y-60617552D01*
X185292851Y-60702481D01*
X185322501Y-60787598D01*
X185350105Y-60878680D01*
X185373844Y-60970776D01*
X185394587Y-61068434D01*
X185411037Y-61166997D01*
X185423875Y-61273369D01*
X185431755Y-61380328D01*
X185435170Y-61516419D01*
X185452147Y-61653943D01*
X185484947Y-61753487D01*
X185484948Y-120955065D01*
X185451212Y-121059589D01*
X185435075Y-121197213D01*
X185434956Y-121207126D01*
X185434856Y-121227077D01*
X185430770Y-121346869D01*
X185421642Y-121457598D01*
X185408515Y-121559051D01*
X185391212Y-121657961D01*
X185369750Y-121755248D01*
X185345471Y-121846560D01*
X185317708Y-121935860D01*
X185287518Y-122020682D01*
X185252906Y-122106787D01*
X185217567Y-122185574D01*
X185179099Y-122263275D01*
X185138761Y-122337593D01*
X185095704Y-122410359D01*
X185049976Y-122481513D01*
X185002871Y-122549250D01*
X184953447Y-122615137D01*
X184899033Y-122682397D01*
X184844984Y-122744423D01*
X184788606Y-122804629D01*
X184730092Y-122862799D01*
X184669532Y-122918841D01*
X184607183Y-122972527D01*
X184539587Y-123026551D01*
X184473436Y-123075559D01*
X184405602Y-123122127D01*
X184331093Y-123169297D01*
X184252949Y-123214613D01*
X184178670Y-123253972D01*
X184098705Y-123292525D01*
X184019279Y-123327109D01*
X183936490Y-123359403D01*
X183850739Y-123388986D01*
X183757986Y-123416753D01*
X183667187Y-123439830D01*
X183571859Y-123459818D01*
X183472788Y-123476131D01*
X183370029Y-123488382D01*
X183262084Y-123496239D01*
X183128865Y-123499518D01*
X182991334Y-123516429D01*
X182891405Y-123549303D01*
X89400905Y-123549303D01*
X89295776Y-123515457D01*
X89158139Y-123499421D01*
X89148226Y-123499310D01*
X89132949Y-123499245D01*
X89011067Y-123495248D01*
X88902269Y-123486418D01*
X88796480Y-123472814D01*
X88698604Y-123455712D01*
X88604666Y-123435095D01*
X88513966Y-123411168D01*
X88425171Y-123383779D01*
X88337631Y-123352800D01*
X88255444Y-123319965D01*
X88175172Y-123284210D01*
X88093908Y-123244131D01*
X88019481Y-123203798D01*
X87945614Y-123160119D01*
X87871680Y-123112535D01*
X87803783Y-123065176D01*
X87737937Y-123015629D01*
X87671914Y-122962083D01*
X87609826Y-122907877D01*
X87550009Y-122851770D01*
X87491889Y-122793218D01*
X87435873Y-122732596D01*
X87382144Y-122670102D01*
X87329385Y-122604041D01*
X87280310Y-122537797D01*
X87233666Y-122469852D01*
X87187310Y-122396689D01*
X87144796Y-122323698D01*
X87105091Y-122249310D01*
X87065478Y-122167703D01*
X87030621Y-122088126D01*
X86997648Y-122004049D01*
X86967733Y-121917747D01*
X86940923Y-121828854D01*
X86916378Y-121732975D01*
X86896289Y-121637483D01*
X86879918Y-121538447D01*
X86867660Y-121436197D01*
X86859761Y-121328978D01*
X86856349Y-121192897D01*
X86839375Y-121055373D01*
X86806572Y-120955814D01*
X86806572Y-111136842D01*
X101185000Y-111136842D01*
X101185000Y-111468758D01*
X101249754Y-111794296D01*
X101376772Y-112100947D01*
X101561175Y-112376925D01*
X101795875Y-112611625D01*
X102071853Y-112796028D01*
X102378504Y-112923046D01*
X102704042Y-112987800D01*
X103035958Y-112987800D01*
X103361496Y-112923046D01*
X103668147Y-112796028D01*
X103944125Y-112611625D01*
X104178825Y-112376925D01*
X104363228Y-112100947D01*
X104490246Y-111794296D01*
X104555000Y-111468758D01*
X104555000Y-111136842D01*
X104490246Y-110811304D01*
X104363228Y-110504653D01*
X104178825Y-110228675D01*
X103944125Y-109993975D01*
X103668147Y-109809572D01*
X103361496Y-109682554D01*
X103035958Y-109617800D01*
X102704042Y-109617800D01*
X102378504Y-109682554D01*
X102071853Y-109809572D01*
X101795875Y-109993975D01*
X101561175Y-110228675D01*
X101376772Y-110504653D01*
X101249754Y-110811304D01*
X101185000Y-111136842D01*
X86806572Y-111136842D01*
X86806572Y-93646000D01*
X87871686Y-93646000D01*
X87875001Y-93679657D01*
X87875000Y-107612353D01*
X87871686Y-107646000D01*
X87884912Y-107780283D01*
X87924081Y-107909406D01*
X87987688Y-108028407D01*
X88073289Y-108132711D01*
X88134214Y-108182711D01*
X88177593Y-108218312D01*
X88296594Y-108281919D01*
X88425717Y-108321088D01*
X88560000Y-108334314D01*
X88593647Y-108331000D01*
X102526353Y-108331000D01*
X102560000Y-108334314D01*
X102694283Y-108321088D01*
X102823406Y-108281919D01*
X102942407Y-108218312D01*
X103046711Y-108132711D01*
X103132312Y-108028407D01*
X103195919Y-107909406D01*
X103235088Y-107780283D01*
X103243389Y-107696000D01*
X107021686Y-107696000D01*
X107025001Y-107729657D01*
X107025000Y-121662353D01*
X107021686Y-121696000D01*
X107034912Y-121830283D01*
X107074081Y-121959406D01*
X107137688Y-122078407D01*
X107223289Y-122182711D01*
X107322345Y-122264005D01*
X107327593Y-122268312D01*
X107446594Y-122331919D01*
X107575717Y-122371088D01*
X107710000Y-122384314D01*
X107743647Y-122381000D01*
X121676353Y-122381000D01*
X121710000Y-122384314D01*
X121844283Y-122371088D01*
X121973406Y-122331919D01*
X122092407Y-122268312D01*
X122196711Y-122182711D01*
X122282312Y-122078407D01*
X122345919Y-121959406D01*
X122385088Y-121830283D01*
X122395000Y-121729647D01*
X122395000Y-121729646D01*
X122398314Y-121696000D01*
X122395000Y-121662353D01*
X122395000Y-107729647D01*
X122398314Y-107696000D01*
X126071686Y-107696000D01*
X126075001Y-107729657D01*
X126075000Y-121662353D01*
X126071686Y-121696000D01*
X126084912Y-121830283D01*
X126124081Y-121959406D01*
X126187688Y-122078407D01*
X126273289Y-122182711D01*
X126372345Y-122264005D01*
X126377593Y-122268312D01*
X126496594Y-122331919D01*
X126625717Y-122371088D01*
X126760000Y-122384314D01*
X126793647Y-122381000D01*
X140726353Y-122381000D01*
X140760000Y-122384314D01*
X140894283Y-122371088D01*
X141023406Y-122331919D01*
X141142407Y-122268312D01*
X141246711Y-122182711D01*
X141332312Y-122078407D01*
X141395919Y-121959406D01*
X141435088Y-121830283D01*
X141445000Y-121729647D01*
X141445000Y-121729646D01*
X141448314Y-121696000D01*
X141445000Y-121662353D01*
X141445000Y-107729647D01*
X141448314Y-107696000D01*
X141443390Y-107646000D01*
X145071686Y-107646000D01*
X145075001Y-107679657D01*
X145075000Y-121612353D01*
X145071686Y-121646000D01*
X145084912Y-121780283D01*
X145124081Y-121909406D01*
X145187688Y-122028407D01*
X145273289Y-122132711D01*
X145349619Y-122195354D01*
X145377593Y-122218312D01*
X145496594Y-122281919D01*
X145625717Y-122321088D01*
X145760000Y-122334314D01*
X145793647Y-122331000D01*
X159726353Y-122331000D01*
X159760000Y-122334314D01*
X159894283Y-122321088D01*
X160023406Y-122281919D01*
X160142407Y-122218312D01*
X160246711Y-122132711D01*
X160332312Y-122028407D01*
X160395919Y-121909406D01*
X160435088Y-121780283D01*
X160445000Y-121679647D01*
X160445000Y-121679646D01*
X160448314Y-121646000D01*
X160445000Y-121612353D01*
X160445000Y-117500729D01*
X164999947Y-117500729D01*
X165004361Y-117635589D01*
X165035001Y-117766998D01*
X165090690Y-117889903D01*
X165169284Y-117999583D01*
X165267768Y-118091823D01*
X165382353Y-118163076D01*
X165508638Y-118210607D01*
X165541998Y-118216115D01*
X178999956Y-121822164D01*
X179031599Y-121834074D01*
X179064956Y-121839581D01*
X179164729Y-121856054D01*
X179299590Y-121851639D01*
X179430998Y-121820999D01*
X179553904Y-121765310D01*
X179663584Y-121686716D01*
X179755823Y-121588232D01*
X179827077Y-121473647D01*
X179874607Y-121347362D01*
X179880115Y-121313999D01*
X183486164Y-107856046D01*
X183498074Y-107824401D01*
X183520054Y-107691271D01*
X183515639Y-107556410D01*
X183484999Y-107425001D01*
X183429311Y-107302096D01*
X183350716Y-107192416D01*
X183252233Y-107100177D01*
X183137647Y-107028923D01*
X183043006Y-106993302D01*
X183042998Y-106993300D01*
X183011362Y-106981393D01*
X182978011Y-106975887D01*
X169520048Y-103369837D01*
X169488401Y-103357926D01*
X169355271Y-103335946D01*
X169220410Y-103340361D01*
X169089001Y-103371001D01*
X168966096Y-103426689D01*
X168856416Y-103505284D01*
X168764177Y-103603767D01*
X168692923Y-103718353D01*
X168657302Y-103812994D01*
X168657299Y-103813004D01*
X168645393Y-103844638D01*
X168639887Y-103877986D01*
X165033836Y-117335954D01*
X165021926Y-117367599D01*
X165016419Y-117400957D01*
X164999947Y-117500729D01*
X160445000Y-117500729D01*
X160445000Y-111136842D01*
X162703800Y-111136842D01*
X162703800Y-111468758D01*
X162768554Y-111794296D01*
X162895572Y-112100947D01*
X163079975Y-112376925D01*
X163314675Y-112611625D01*
X163590653Y-112796028D01*
X163897304Y-112923046D01*
X164222842Y-112987800D01*
X164554758Y-112987800D01*
X164880296Y-112923046D01*
X165186947Y-112796028D01*
X165462925Y-112611625D01*
X165697625Y-112376925D01*
X165882028Y-112100947D01*
X166009046Y-111794296D01*
X166073800Y-111468758D01*
X166073800Y-111136842D01*
X166009046Y-110811304D01*
X165882028Y-110504653D01*
X165697625Y-110228675D01*
X165462925Y-109993975D01*
X165186947Y-109809572D01*
X164880296Y-109682554D01*
X164554758Y-109617800D01*
X164222842Y-109617800D01*
X163897304Y-109682554D01*
X163590653Y-109809572D01*
X163314675Y-109993975D01*
X163079975Y-110228675D01*
X162895572Y-110504653D01*
X162768554Y-110811304D01*
X162703800Y-111136842D01*
X160445000Y-111136842D01*
X160445000Y-107679646D01*
X160448314Y-107646000D01*
X160435088Y-107511717D01*
X160395919Y-107382594D01*
X160332312Y-107263593D01*
X160246711Y-107159289D01*
X160142407Y-107073688D01*
X160023406Y-107010081D01*
X159894283Y-106970912D01*
X159793647Y-106961000D01*
X159760000Y-106957686D01*
X159726353Y-106961000D01*
X145793647Y-106961000D01*
X145760000Y-106957686D01*
X145726353Y-106961000D01*
X145625717Y-106970912D01*
X145496594Y-107010081D01*
X145377593Y-107073688D01*
X145273289Y-107159289D01*
X145187688Y-107263593D01*
X145124081Y-107382594D01*
X145084912Y-107511717D01*
X145071686Y-107646000D01*
X141443390Y-107646000D01*
X141435088Y-107561717D01*
X141395919Y-107432594D01*
X141332312Y-107313593D01*
X141246711Y-107209289D01*
X141142407Y-107123688D01*
X141023406Y-107060081D01*
X140894283Y-107020912D01*
X140793647Y-107011000D01*
X140760000Y-107007686D01*
X140726353Y-107011000D01*
X126793647Y-107011000D01*
X126760000Y-107007686D01*
X126726353Y-107011000D01*
X126625717Y-107020912D01*
X126496594Y-107060081D01*
X126377593Y-107123688D01*
X126273289Y-107209289D01*
X126187688Y-107313593D01*
X126124081Y-107432594D01*
X126084912Y-107561717D01*
X126071686Y-107696000D01*
X122398314Y-107696000D01*
X122385088Y-107561717D01*
X122345919Y-107432594D01*
X122282312Y-107313593D01*
X122196711Y-107209289D01*
X122092407Y-107123688D01*
X121973406Y-107060081D01*
X121844283Y-107020912D01*
X121743647Y-107011000D01*
X121710000Y-107007686D01*
X121676353Y-107011000D01*
X107743647Y-107011000D01*
X107710000Y-107007686D01*
X107676353Y-107011000D01*
X107575717Y-107020912D01*
X107446594Y-107060081D01*
X107327593Y-107123688D01*
X107223289Y-107209289D01*
X107137688Y-107313593D01*
X107074081Y-107432594D01*
X107034912Y-107561717D01*
X107021686Y-107696000D01*
X103243389Y-107696000D01*
X103245000Y-107679647D01*
X103245000Y-107679646D01*
X103248314Y-107646000D01*
X103245000Y-107612353D01*
X103245000Y-93679647D01*
X103248314Y-93646000D01*
X103235088Y-93511717D01*
X103195919Y-93382594D01*
X103132312Y-93263593D01*
X103046711Y-93159289D01*
X102942407Y-93073688D01*
X102823406Y-93010081D01*
X102694283Y-92970912D01*
X102593647Y-92961000D01*
X102560000Y-92957686D01*
X102526353Y-92961000D01*
X88593647Y-92961000D01*
X88560000Y-92957686D01*
X88526353Y-92961000D01*
X88425717Y-92970912D01*
X88296594Y-93010081D01*
X88177593Y-93073688D01*
X88073289Y-93159289D01*
X87987688Y-93263593D01*
X87924081Y-93382594D01*
X87884912Y-93511717D01*
X87871686Y-93646000D01*
X86806572Y-93646000D01*
X86806572Y-74596000D01*
X87921686Y-74596000D01*
X87925001Y-74629657D01*
X87925000Y-88562353D01*
X87921686Y-88596000D01*
X87934912Y-88730283D01*
X87974081Y-88859406D01*
X88037688Y-88978407D01*
X88123289Y-89082711D01*
X88227593Y-89168312D01*
X88346594Y-89231919D01*
X88475717Y-89271088D01*
X88610000Y-89284314D01*
X88643647Y-89281000D01*
X102576353Y-89281000D01*
X102610000Y-89284314D01*
X102744283Y-89271088D01*
X102873406Y-89231919D01*
X102992407Y-89168312D01*
X103096711Y-89082711D01*
X103182312Y-88978407D01*
X103245919Y-88859406D01*
X103285088Y-88730283D01*
X103295000Y-88629647D01*
X103295000Y-88629646D01*
X103298314Y-88596000D01*
X103295000Y-88562353D01*
X103295000Y-83996000D01*
X107071686Y-83996000D01*
X107075001Y-84029657D01*
X107075000Y-97962353D01*
X107071686Y-97996000D01*
X107084912Y-98130283D01*
X107124081Y-98259406D01*
X107187688Y-98378407D01*
X107273289Y-98482711D01*
X107377593Y-98568312D01*
X107496594Y-98631919D01*
X107625717Y-98671088D01*
X107760000Y-98684314D01*
X107793647Y-98681000D01*
X121726353Y-98681000D01*
X121760000Y-98684314D01*
X121894283Y-98671088D01*
X122023406Y-98631919D01*
X122142407Y-98568312D01*
X122246711Y-98482711D01*
X122332312Y-98378407D01*
X122395919Y-98259406D01*
X122435088Y-98130283D01*
X122445000Y-98029647D01*
X122445000Y-98029646D01*
X122448314Y-97996000D01*
X122445000Y-97962353D01*
X122445000Y-84029647D01*
X122448314Y-83996000D01*
X122435088Y-83861717D01*
X122395919Y-83732594D01*
X122332312Y-83613593D01*
X122246711Y-83509289D01*
X122142407Y-83423688D01*
X122023406Y-83360081D01*
X121894283Y-83320912D01*
X121793647Y-83311000D01*
X121760000Y-83307686D01*
X121726353Y-83311000D01*
X107793647Y-83311000D01*
X107760000Y-83307686D01*
X107726353Y-83311000D01*
X107625717Y-83320912D01*
X107496594Y-83360081D01*
X107377593Y-83423688D01*
X107273289Y-83509289D01*
X107187688Y-83613593D01*
X107124081Y-83732594D01*
X107084912Y-83861717D01*
X107071686Y-83996000D01*
X103295000Y-83996000D01*
X103295000Y-74629647D01*
X103298314Y-74596000D01*
X103285088Y-74461717D01*
X103245919Y-74332594D01*
X103182312Y-74213593D01*
X103096711Y-74109289D01*
X102992407Y-74023688D01*
X102873406Y-73960081D01*
X102744283Y-73920912D01*
X102643647Y-73911000D01*
X102610000Y-73907686D01*
X102576353Y-73911000D01*
X88643647Y-73911000D01*
X88610000Y-73907686D01*
X88576353Y-73911000D01*
X88475717Y-73920912D01*
X88346594Y-73960081D01*
X88227593Y-74023688D01*
X88123289Y-74109289D01*
X88037688Y-74213593D01*
X87974081Y-74332594D01*
X87934912Y-74461717D01*
X87921686Y-74596000D01*
X86806572Y-74596000D01*
X86806572Y-70700042D01*
X101185000Y-70700042D01*
X101185000Y-71031958D01*
X101249754Y-71357496D01*
X101376772Y-71664147D01*
X101561175Y-71940125D01*
X101795875Y-72174825D01*
X102071853Y-72359228D01*
X102378504Y-72486246D01*
X102704042Y-72551000D01*
X103035958Y-72551000D01*
X103361496Y-72486246D01*
X103668147Y-72359228D01*
X103944125Y-72174825D01*
X104178825Y-71940125D01*
X104363228Y-71664147D01*
X104490246Y-71357496D01*
X104555000Y-71031958D01*
X104555000Y-70700042D01*
X104490246Y-70374504D01*
X104363228Y-70067853D01*
X104178825Y-69791875D01*
X103944125Y-69557175D01*
X103668147Y-69372772D01*
X103361496Y-69245754D01*
X103035958Y-69181000D01*
X102704042Y-69181000D01*
X102378504Y-69245754D01*
X102071853Y-69372772D01*
X101795875Y-69557175D01*
X101561175Y-69791875D01*
X101376772Y-70067853D01*
X101249754Y-70374504D01*
X101185000Y-70700042D01*
X86806572Y-70700042D01*
X86806572Y-65096000D01*
X107121686Y-65096000D01*
X107125001Y-65129657D01*
X107125000Y-79062353D01*
X107121686Y-79096000D01*
X107134912Y-79230283D01*
X107174081Y-79359406D01*
X107237688Y-79478407D01*
X107323289Y-79582711D01*
X107427593Y-79668312D01*
X107546594Y-79731919D01*
X107675717Y-79771088D01*
X107810000Y-79784314D01*
X107843647Y-79781000D01*
X121776353Y-79781000D01*
X121810000Y-79784314D01*
X121944283Y-79771088D01*
X122073406Y-79731919D01*
X122192407Y-79668312D01*
X122296711Y-79582711D01*
X122382312Y-79478407D01*
X122445919Y-79359406D01*
X122485088Y-79230283D01*
X122495000Y-79129647D01*
X122495000Y-79129646D01*
X122498314Y-79096000D01*
X122495000Y-79062353D01*
X122495000Y-79046000D01*
X126071686Y-79046000D01*
X126075001Y-79079657D01*
X126075000Y-93012353D01*
X126071686Y-93046000D01*
X126084912Y-93180283D01*
X126124081Y-93309406D01*
X126187688Y-93428407D01*
X126273289Y-93532711D01*
X126370332Y-93612353D01*
X126377593Y-93618312D01*
X126496594Y-93681919D01*
X126625717Y-93721088D01*
X126760000Y-93734314D01*
X126793647Y-93731000D01*
X140726353Y-93731000D01*
X140760000Y-93734314D01*
X140894283Y-93721088D01*
X141023406Y-93681919D01*
X141142407Y-93618312D01*
X141246711Y-93532711D01*
X141332312Y-93428407D01*
X141395919Y-93309406D01*
X141435088Y-93180283D01*
X141445000Y-93079647D01*
X141445000Y-93079646D01*
X141448314Y-93046000D01*
X141445000Y-93012353D01*
X141445000Y-88546000D01*
X145021686Y-88546000D01*
X145025001Y-88579657D01*
X145025000Y-102512353D01*
X145021686Y-102546000D01*
X145034912Y-102680283D01*
X145074081Y-102809406D01*
X145137688Y-102928407D01*
X145223289Y-103032711D01*
X145327593Y-103118312D01*
X145446594Y-103181919D01*
X145575717Y-103221088D01*
X145710000Y-103234314D01*
X145743647Y-103231000D01*
X159676353Y-103231000D01*
X159710000Y-103234314D01*
X159844283Y-103221088D01*
X159973406Y-103181919D01*
X160092407Y-103118312D01*
X160196711Y-103032711D01*
X160282312Y-102928407D01*
X160345919Y-102809406D01*
X160385088Y-102680283D01*
X160395000Y-102579647D01*
X160395000Y-102579646D01*
X160398314Y-102546000D01*
X160395000Y-102512353D01*
X160395000Y-88579647D01*
X160398314Y-88546000D01*
X160385088Y-88411717D01*
X160345919Y-88282594D01*
X160282312Y-88163593D01*
X160196711Y-88059289D01*
X160092407Y-87973688D01*
X159973406Y-87910081D01*
X159844283Y-87870912D01*
X159743647Y-87861000D01*
X159710000Y-87857686D01*
X159676353Y-87861000D01*
X145743647Y-87861000D01*
X145710000Y-87857686D01*
X145676353Y-87861000D01*
X145575717Y-87870912D01*
X145446594Y-87910081D01*
X145327593Y-87973688D01*
X145223289Y-88059289D01*
X145137688Y-88163593D01*
X145074081Y-88282594D01*
X145034912Y-88411717D01*
X145021686Y-88546000D01*
X141445000Y-88546000D01*
X141445000Y-79079647D01*
X141448314Y-79046000D01*
X141435088Y-78911717D01*
X141395919Y-78782594D01*
X141332312Y-78663593D01*
X141246711Y-78559289D01*
X141142407Y-78473688D01*
X141023406Y-78410081D01*
X140894283Y-78370912D01*
X140793647Y-78361000D01*
X140760000Y-78357686D01*
X140726353Y-78361000D01*
X126793647Y-78361000D01*
X126760000Y-78357686D01*
X126726353Y-78361000D01*
X126625717Y-78370912D01*
X126496594Y-78410081D01*
X126377593Y-78473688D01*
X126273289Y-78559289D01*
X126187688Y-78663593D01*
X126124081Y-78782594D01*
X126084912Y-78911717D01*
X126071686Y-79046000D01*
X122495000Y-79046000D01*
X122495000Y-65129647D01*
X122498314Y-65096000D01*
X122485088Y-64961717D01*
X122445919Y-64832594D01*
X122382312Y-64713593D01*
X122296711Y-64609289D01*
X122192407Y-64523688D01*
X122073406Y-64460081D01*
X121944283Y-64420912D01*
X121843647Y-64411000D01*
X121810000Y-64407686D01*
X121776353Y-64411000D01*
X107843647Y-64411000D01*
X107810000Y-64407686D01*
X107776353Y-64411000D01*
X107675717Y-64420912D01*
X107546594Y-64460081D01*
X107427593Y-64523688D01*
X107323289Y-64609289D01*
X107237688Y-64713593D01*
X107174081Y-64832594D01*
X107134912Y-64961717D01*
X107121686Y-65096000D01*
X86806572Y-65096000D01*
X86806572Y-61499454D01*
X86806591Y-61490192D01*
X86807152Y-61446736D01*
X86808275Y-61408793D01*
X86809984Y-61371221D01*
X86812270Y-61333960D01*
X86815127Y-61296959D01*
X86818765Y-61258079D01*
X86823289Y-61217181D01*
X86827634Y-61182982D01*
X86832857Y-61146370D01*
X86838261Y-61112235D01*
X86844568Y-61075995D01*
X86851102Y-61041596D01*
X86857924Y-61008380D01*
X86865392Y-60974563D01*
X86872956Y-60942529D01*
X86881170Y-60909853D01*
X86890587Y-60874641D01*
X86899333Y-60843780D01*
X86908734Y-60812297D01*
X86918107Y-60782425D01*
X86927681Y-60753289D01*
X86938700Y-60721261D01*
X86949070Y-60692430D01*
X86959641Y-60664212D01*
X86971283Y-60634365D01*
X86984022Y-60603025D01*
X86998081Y-60569863D01*
X87010047Y-60542712D01*
X87023396Y-60513489D01*
X87036222Y-60486380D01*
X87049669Y-60458881D01*
X87062981Y-60432533D01*
X87076905Y-60405827D01*
X87091061Y-60379510D01*
X87106678Y-60351372D01*
X87120723Y-60326820D01*
X87135771Y-60301265D01*
X87151276Y-60275685D01*
X87167152Y-60250231D01*
X87183636Y-60224543D01*
X87199019Y-60201222D01*
X87215533Y-60176840D01*
X87233809Y-60150602D01*
X87250915Y-60126713D01*
X87267756Y-60103798D01*
X87285704Y-60080002D01*
X87305336Y-60054671D01*
X87312233Y-60046000D01*
X126021686Y-60046000D01*
X126025001Y-60079657D01*
X126025000Y-74012353D01*
X126021686Y-74046000D01*
X126034912Y-74180283D01*
X126074081Y-74309406D01*
X126137688Y-74428407D01*
X126223289Y-74532711D01*
X126284071Y-74582594D01*
X126327593Y-74618312D01*
X126446594Y-74681919D01*
X126575717Y-74721088D01*
X126710000Y-74734314D01*
X126743647Y-74731000D01*
X140676353Y-74731000D01*
X140710000Y-74734314D01*
X140844283Y-74721088D01*
X140973406Y-74681919D01*
X141092407Y-74618312D01*
X141196711Y-74532711D01*
X141282312Y-74428407D01*
X141345919Y-74309406D01*
X141385088Y-74180283D01*
X141395000Y-74079647D01*
X141395000Y-74079646D01*
X141398314Y-74046000D01*
X141395000Y-74012353D01*
X141395000Y-69546000D01*
X145071686Y-69546000D01*
X145075001Y-69579657D01*
X145075000Y-83512353D01*
X145071686Y-83546000D01*
X145084912Y-83680283D01*
X145124081Y-83809406D01*
X145187688Y-83928407D01*
X145273289Y-84032711D01*
X145366740Y-84109405D01*
X145377593Y-84118312D01*
X145496594Y-84181919D01*
X145625717Y-84221088D01*
X145760000Y-84234314D01*
X145793647Y-84231000D01*
X159726353Y-84231000D01*
X159760000Y-84234314D01*
X159894283Y-84221088D01*
X160023406Y-84181919D01*
X160142407Y-84118312D01*
X160246711Y-84032711D01*
X160332312Y-83928407D01*
X160376359Y-83846000D01*
X167521686Y-83846000D01*
X167525001Y-83879657D01*
X167525000Y-96262353D01*
X167521686Y-96296000D01*
X167534912Y-96430283D01*
X167574081Y-96559406D01*
X167637688Y-96678407D01*
X167723289Y-96782711D01*
X167827593Y-96868312D01*
X167946594Y-96931919D01*
X168075717Y-96971088D01*
X168210000Y-96984314D01*
X168243647Y-96981000D01*
X180226353Y-96981000D01*
X180260000Y-96984314D01*
X180394283Y-96971088D01*
X180523406Y-96931919D01*
X180642407Y-96868312D01*
X180746711Y-96782711D01*
X180832312Y-96678407D01*
X180895919Y-96559406D01*
X180935088Y-96430283D01*
X180945000Y-96329647D01*
X180945000Y-96329646D01*
X180948314Y-96296000D01*
X180945000Y-96262353D01*
X180945000Y-83879646D01*
X180948314Y-83846000D01*
X180935088Y-83711717D01*
X180895919Y-83582594D01*
X180832312Y-83463593D01*
X180746711Y-83359289D01*
X180642407Y-83273688D01*
X180523406Y-83210081D01*
X180394283Y-83170912D01*
X180293647Y-83161000D01*
X180260000Y-83157686D01*
X180226353Y-83161000D01*
X177995000Y-83161000D01*
X177995000Y-82029647D01*
X177998314Y-81996000D01*
X177985088Y-81861717D01*
X177945919Y-81732594D01*
X177882312Y-81613593D01*
X177796711Y-81509289D01*
X177692407Y-81423688D01*
X177573406Y-81360081D01*
X177444283Y-81320912D01*
X177343647Y-81311000D01*
X177310000Y-81307686D01*
X177276353Y-81311000D01*
X171193647Y-81311000D01*
X171160000Y-81307686D01*
X171126353Y-81311000D01*
X171025717Y-81320912D01*
X170896594Y-81360081D01*
X170777593Y-81423688D01*
X170673289Y-81509289D01*
X170587688Y-81613593D01*
X170524081Y-81732594D01*
X170484912Y-81861717D01*
X170471686Y-81996000D01*
X170475001Y-82029657D01*
X170475000Y-83161000D01*
X168243647Y-83161000D01*
X168210000Y-83157686D01*
X168176353Y-83161000D01*
X168075717Y-83170912D01*
X167946594Y-83210081D01*
X167827593Y-83273688D01*
X167723289Y-83359289D01*
X167637688Y-83463593D01*
X167574081Y-83582594D01*
X167534912Y-83711717D01*
X167521686Y-83846000D01*
X160376359Y-83846000D01*
X160395919Y-83809406D01*
X160435088Y-83680283D01*
X160445000Y-83579647D01*
X160445000Y-83579646D01*
X160448314Y-83546000D01*
X160445000Y-83512353D01*
X160445000Y-70700042D01*
X162703800Y-70700042D01*
X162703800Y-71031958D01*
X162768554Y-71357496D01*
X162895572Y-71664147D01*
X163079975Y-71940125D01*
X163314675Y-72174825D01*
X163590653Y-72359228D01*
X163897304Y-72486246D01*
X164222842Y-72551000D01*
X164554758Y-72551000D01*
X164880296Y-72486246D01*
X165186947Y-72359228D01*
X165462925Y-72174825D01*
X165697625Y-71940125D01*
X165882028Y-71664147D01*
X166009046Y-71357496D01*
X166073800Y-71031958D01*
X166073800Y-70700042D01*
X166009046Y-70374504D01*
X165882028Y-70067853D01*
X165697625Y-69791875D01*
X165462925Y-69557175D01*
X165186947Y-69372772D01*
X164880296Y-69245754D01*
X164554758Y-69181000D01*
X164222842Y-69181000D01*
X163897304Y-69245754D01*
X163590653Y-69372772D01*
X163314675Y-69557175D01*
X163079975Y-69791875D01*
X162895572Y-70067853D01*
X162768554Y-70374504D01*
X162703800Y-70700042D01*
X160445000Y-70700042D01*
X160445000Y-69579647D01*
X160448314Y-69546000D01*
X160435088Y-69411717D01*
X160395919Y-69282594D01*
X160332312Y-69163593D01*
X160246711Y-69059289D01*
X160142407Y-68973688D01*
X160023406Y-68910081D01*
X159894283Y-68870912D01*
X159793647Y-68861000D01*
X159760000Y-68857686D01*
X159726353Y-68861000D01*
X145793647Y-68861000D01*
X145760000Y-68857686D01*
X145726353Y-68861000D01*
X145625717Y-68870912D01*
X145496594Y-68910081D01*
X145377593Y-68973688D01*
X145273289Y-69059289D01*
X145187688Y-69163593D01*
X145124081Y-69282594D01*
X145084912Y-69411717D01*
X145071686Y-69546000D01*
X141395000Y-69546000D01*
X141395000Y-62396000D01*
X167671686Y-62396000D01*
X167675001Y-62429657D01*
X167675000Y-74812353D01*
X167671686Y-74846000D01*
X167684912Y-74980283D01*
X167724081Y-75109406D01*
X167787688Y-75228407D01*
X167873289Y-75332711D01*
X167977593Y-75418312D01*
X168096594Y-75481919D01*
X168225717Y-75521088D01*
X168360000Y-75534314D01*
X168393647Y-75531000D01*
X180376353Y-75531000D01*
X180410000Y-75534314D01*
X180544283Y-75521088D01*
X180673406Y-75481919D01*
X180792407Y-75418312D01*
X180896711Y-75332711D01*
X180982312Y-75228407D01*
X181045919Y-75109406D01*
X181085088Y-74980283D01*
X181095000Y-74879647D01*
X181095000Y-74879646D01*
X181098314Y-74846000D01*
X181095000Y-74812353D01*
X181095000Y-62429646D01*
X181098314Y-62396000D01*
X181085088Y-62261717D01*
X181045919Y-62132594D01*
X180982312Y-62013593D01*
X180896711Y-61909289D01*
X180792407Y-61823688D01*
X180673406Y-61760081D01*
X180544283Y-61720912D01*
X180443647Y-61711000D01*
X180410000Y-61707686D01*
X180376353Y-61711000D01*
X178145000Y-61711000D01*
X178145000Y-60579647D01*
X178148314Y-60546000D01*
X178144928Y-60511617D01*
X178135088Y-60411717D01*
X178095919Y-60282594D01*
X178032312Y-60163593D01*
X178029930Y-60160690D01*
X177946711Y-60059289D01*
X177842407Y-59973688D01*
X177723406Y-59910081D01*
X177594283Y-59870912D01*
X177493647Y-59861000D01*
X177460000Y-59857686D01*
X177426353Y-59861000D01*
X171343647Y-59861000D01*
X171310000Y-59857686D01*
X171276353Y-59861000D01*
X171175717Y-59870912D01*
X171046594Y-59910081D01*
X170927593Y-59973688D01*
X170823289Y-60059289D01*
X170737688Y-60163593D01*
X170674081Y-60282594D01*
X170634912Y-60411717D01*
X170621686Y-60546000D01*
X170625001Y-60579657D01*
X170625000Y-61711000D01*
X168393647Y-61711000D01*
X168360000Y-61707686D01*
X168326353Y-61711000D01*
X168225717Y-61720912D01*
X168096594Y-61760081D01*
X167977593Y-61823688D01*
X167873289Y-61909289D01*
X167787688Y-62013593D01*
X167724081Y-62132594D01*
X167684912Y-62261717D01*
X167671686Y-62396000D01*
X141395000Y-62396000D01*
X141395000Y-60079647D01*
X141398314Y-60046000D01*
X141390685Y-59968538D01*
X141385088Y-59911717D01*
X141345919Y-59782594D01*
X141282312Y-59663593D01*
X141273277Y-59652584D01*
X141196711Y-59559289D01*
X141092407Y-59473688D01*
X140973406Y-59410081D01*
X140844283Y-59370912D01*
X140743647Y-59361000D01*
X140710000Y-59357686D01*
X140676353Y-59361000D01*
X126743647Y-59361000D01*
X126710000Y-59357686D01*
X126676353Y-59361000D01*
X126575717Y-59370912D01*
X126446594Y-59410081D01*
X126327593Y-59473688D01*
X126223289Y-59559289D01*
X126137688Y-59663593D01*
X126074081Y-59782594D01*
X126034912Y-59911717D01*
X126021686Y-60046000D01*
X87312233Y-60046000D01*
X87322603Y-60032965D01*
X87341467Y-60009847D01*
X87362924Y-59984247D01*
X87380487Y-59963846D01*
X87413765Y-59926425D01*
X87432171Y-59906386D01*
X87452400Y-59884901D01*
X87471729Y-59864866D01*
X87492949Y-59843408D01*
X87512825Y-59823793D01*
X87534444Y-59802978D01*
X87554833Y-59783826D01*
X87575913Y-59764497D01*
X87596404Y-59746152D01*
X87619082Y-59726345D01*
X87640366Y-59708210D01*
X87661968Y-59690247D01*
X87683891Y-59672452D01*
X87705761Y-59655133D01*
X87729541Y-59636775D01*
X87753583Y-59618697D01*
X87776074Y-59602216D01*
X87800163Y-59585015D01*
X87823605Y-59568711D01*
X87846880Y-59552940D01*
X87870316Y-59537463D01*
X87896103Y-59520895D01*
X87920699Y-59505532D01*
X87944920Y-59490815D01*
X87972483Y-59474548D01*
X87999746Y-59458958D01*
X88032949Y-59440618D01*
X88059044Y-59426686D01*
X88085634Y-59412932D01*
X88114197Y-59398634D01*
X88142990Y-59384711D01*
X88170646Y-59371793D01*
X88197636Y-59359612D01*
X88225812Y-59347332D01*
X88253237Y-59335804D01*
X88281281Y-59324441D01*
X88309485Y-59313438D01*
X88337759Y-59302834D01*
X88367933Y-59291979D01*
X88402087Y-59280252D01*
X88434175Y-59269776D01*
X88468840Y-59259033D01*
X88499638Y-59249984D01*
X88531200Y-59241193D01*
X88563643Y-59232654D01*
X88595174Y-59224832D01*
X88627171Y-59217376D01*
X88663071Y-59209573D01*
X88695156Y-59203100D01*
X88731493Y-59196335D01*
X88765041Y-59190616D01*
X88799583Y-59185254D01*
X88834228Y-59180404D01*
X88868913Y-59176079D01*
X88905870Y-59172046D01*
X88942933Y-59168591D01*
X88979468Y-59165767D01*
X89027853Y-59162898D01*
X89068004Y-59161260D01*
X89106133Y-59160337D01*
X89147906Y-59160000D01*
X182890324Y-59160000D01*
X182997334Y-59194184D01*
M02*
